%TF.GenerationSoftware,KiCad,Pcbnew,(6.0.8)*%
%TF.CreationDate,2023-06-01T04:28:46+02:00*%
%TF.ProjectId,BSPD-07,42535044-2d30-4372-9e6b-696361645f70,rev?*%
%TF.SameCoordinates,Original*%
%TF.FileFunction,Drillmap*%
%TF.FilePolarity,Positive*%
%FSLAX45Y45*%
G04 Gerber Fmt 4.5, Leading zero omitted, Abs format (unit mm)*
G04 Created by KiCad (PCBNEW (6.0.8)) date 2023-06-01 04:28:46*
%MOMM*%
%LPD*%
G01*
G04 APERTURE LIST*
%ADD10C,0.100000*%
%ADD11C,0.200000*%
%ADD12C,0.030000*%
%ADD13C,0.074000*%
%ADD14C,0.080000*%
G04 APERTURE END LIST*
D10*
X14995880Y-9281160D02*
G75*
G03*
X14830780Y-9446260I0J-165100D01*
G01*
X17980380Y-9446260D02*
G75*
G03*
X17815280Y-9281160I-165100J0D01*
G01*
X17815280Y-9281160D02*
X14995880Y-9281160D01*
X17815280Y-13585190D02*
G75*
G03*
X17980380Y-13420090I0J165100D01*
G01*
X14830780Y-13420090D02*
G75*
G03*
X14995880Y-13585190I165100J0D01*
G01*
X14995880Y-13585190D02*
X17815280Y-13585190D01*
X14830780Y-9446260D02*
X14830780Y-13420090D01*
X17980380Y-9446260D02*
X17980380Y-13420090D01*
D11*
D12*
X15031680Y-13007580D02*
X15061680Y-13037580D01*
X15061680Y-13007580D02*
X15031680Y-13037580D01*
X15143440Y-12022060D02*
X15173440Y-12052060D01*
X15173440Y-12022060D02*
X15143440Y-12052060D01*
X15193560Y-11226840D02*
X15223560Y-11256840D01*
X15223560Y-11226840D02*
X15193560Y-11256840D01*
X15265360Y-12682460D02*
X15295360Y-12712460D01*
X15295360Y-12682460D02*
X15265360Y-12712460D01*
X15270440Y-10513300D02*
X15300440Y-10543300D01*
X15300440Y-10513300D02*
X15270440Y-10543300D01*
X15281280Y-10922240D02*
X15311280Y-10952240D01*
X15311280Y-10922240D02*
X15281280Y-10952240D01*
X15281280Y-11684240D02*
X15311280Y-11714240D01*
X15311280Y-11684240D02*
X15281280Y-11714240D01*
X15298380Y-12911060D02*
X15328380Y-12941060D01*
X15328380Y-12911060D02*
X15298380Y-12941060D01*
X15313620Y-11023840D02*
X15343620Y-11053840D01*
X15343620Y-11023840D02*
X15313620Y-11053840D01*
X15316160Y-11798540D02*
X15346160Y-11828540D01*
X15346160Y-11798540D02*
X15316160Y-11828540D01*
X15387280Y-11023840D02*
X15417280Y-11053840D01*
X15417280Y-11023840D02*
X15387280Y-11053840D01*
X15387280Y-11798540D02*
X15417280Y-11828540D01*
X15417280Y-11798540D02*
X15387280Y-11828540D01*
X15463480Y-11023840D02*
X15493480Y-11053840D01*
X15493480Y-11023840D02*
X15463480Y-11053840D01*
X15463480Y-11798540D02*
X15493480Y-11828540D01*
X15493480Y-11798540D02*
X15463480Y-11828540D01*
X15544760Y-13347940D02*
X15574760Y-13377940D01*
X15574760Y-13347940D02*
X15544760Y-13377940D01*
X15580230Y-10792790D02*
X15610230Y-10822790D01*
X15610230Y-10792790D02*
X15580230Y-10822790D01*
X15581930Y-11553090D02*
X15611930Y-11583090D01*
X15611930Y-11553090D02*
X15581930Y-11583090D01*
X15666680Y-11011140D02*
X15696680Y-11041140D01*
X15696680Y-11011140D02*
X15666680Y-11041140D01*
X15692080Y-11798540D02*
X15722080Y-11828540D01*
X15722080Y-11798540D02*
X15692080Y-11828540D01*
X15907980Y-12077940D02*
X15937980Y-12107940D01*
X15937980Y-12077940D02*
X15907980Y-12107940D01*
X15971480Y-12077940D02*
X16001480Y-12107940D01*
X16001480Y-12077940D02*
X15971480Y-12107940D01*
X16034980Y-12077940D02*
X16064980Y-12107940D01*
X16064980Y-12077940D02*
X16034980Y-12107940D01*
X16136580Y-10388840D02*
X16166580Y-10418840D01*
X16166580Y-10388840D02*
X16136580Y-10418840D01*
X16136580Y-11150840D02*
X16166580Y-11180840D01*
X16166580Y-11150840D02*
X16136580Y-11180840D01*
X16139120Y-10967960D02*
X16169120Y-10997960D01*
X16169120Y-10967960D02*
X16139120Y-10997960D01*
X16144200Y-11727420D02*
X16174200Y-11757420D01*
X16174200Y-11727420D02*
X16144200Y-11757420D01*
X16144200Y-12135340D02*
X16174200Y-12165340D01*
X16174200Y-12135340D02*
X16144200Y-12165340D01*
X16306960Y-13154900D02*
X16336960Y-13184900D01*
X16336960Y-13154900D02*
X16306960Y-13184900D01*
X16339780Y-11564860D02*
X16369780Y-11594860D01*
X16369780Y-11564860D02*
X16339780Y-11594860D01*
X16373480Y-11481040D02*
X16403480Y-11511040D01*
X16403480Y-11481040D02*
X16373480Y-11511040D01*
X16449000Y-12133820D02*
X16479000Y-12163820D01*
X16479000Y-12133820D02*
X16449000Y-12163820D01*
X16505430Y-11747740D02*
X16535430Y-11777740D01*
X16535430Y-11747740D02*
X16505430Y-11777740D01*
X16872380Y-12015240D02*
X16902380Y-12045240D01*
X16902380Y-12015240D02*
X16872380Y-12045240D01*
X16901120Y-10914620D02*
X16931120Y-10944620D01*
X16931120Y-10914620D02*
X16901120Y-10944620D01*
X16949380Y-10363440D02*
X16979380Y-10393440D01*
X16979380Y-10363440D02*
X16949380Y-10393440D01*
X17050980Y-10363440D02*
X17080980Y-10393440D01*
X17080980Y-10363440D02*
X17050980Y-10393440D01*
X17050980Y-10452340D02*
X17080980Y-10482340D01*
X17080980Y-10452340D02*
X17050980Y-10482340D01*
X17152580Y-10363440D02*
X17182580Y-10393440D01*
X17182580Y-10363440D02*
X17152580Y-10393440D01*
X17152580Y-10452340D02*
X17182580Y-10482340D01*
X17182580Y-10452340D02*
X17152580Y-10482340D01*
X17254180Y-10363440D02*
X17284180Y-10393440D01*
X17284180Y-10363440D02*
X17254180Y-10393440D01*
X17254180Y-10452340D02*
X17284180Y-10482340D01*
X17284180Y-10452340D02*
X17254180Y-10482340D01*
X17343080Y-10363440D02*
X17373080Y-10393440D01*
X17373080Y-10363440D02*
X17343080Y-10393440D01*
X17343080Y-10452340D02*
X17373080Y-10482340D01*
X17373080Y-10452340D02*
X17343080Y-10482340D01*
X17566600Y-13272440D02*
X17596600Y-13302440D01*
X17596600Y-13272440D02*
X17566600Y-13302440D01*
D13*
X17105520Y-11371580D02*
G75*
G03*
X17105520Y-11371580I-37000J0D01*
G01*
X17110600Y-12143740D02*
G75*
G03*
X17110600Y-12143740I-37000J0D01*
G01*
X17359520Y-11371580D02*
G75*
G03*
X17359520Y-11371580I-37000J0D01*
G01*
X17364600Y-12143740D02*
G75*
G03*
X17364600Y-12143740I-37000J0D01*
G01*
X17613520Y-11371580D02*
G75*
G03*
X17613520Y-11371580I-37000J0D01*
G01*
X17618600Y-12143740D02*
G75*
G03*
X17618600Y-12143740I-37000J0D01*
G01*
D14*
X15518000Y-9863460D02*
X15518000Y-9943460D01*
X15478000Y-9903460D02*
X15558000Y-9903460D01*
X15718000Y-9863460D02*
X15718000Y-9943460D01*
X15678000Y-9903460D02*
X15758000Y-9903460D01*
X15918000Y-9863460D02*
X15918000Y-9943460D01*
X15878000Y-9903460D02*
X15958000Y-9903460D01*
X16118000Y-9863460D02*
X16118000Y-9943460D01*
X16078000Y-9903460D02*
X16158000Y-9903460D01*
X16318000Y-9863460D02*
X16318000Y-9943460D01*
X16278000Y-9903460D02*
X16358000Y-9903460D01*
X16518000Y-9863460D02*
X16518000Y-9943460D01*
X16478000Y-9903460D02*
X16558000Y-9903460D01*
X16718000Y-9863460D02*
X16718000Y-9943460D01*
X16678000Y-9903460D02*
X16758000Y-9903460D01*
X16918000Y-9863460D02*
X16918000Y-9943460D01*
X16878000Y-9903460D02*
X16958000Y-9903460D01*
X17118000Y-9863460D02*
X17118000Y-9943460D01*
X17078000Y-9903460D02*
X17158000Y-9903460D01*
X17318000Y-9863460D02*
X17318000Y-9943460D01*
X17278000Y-9903460D02*
X17358000Y-9903460D01*
D10*
X17032256Y-12778536D02*
X17032256Y-12707824D01*
X16961544Y-12707824D01*
X16961544Y-12778536D01*
X17032256Y-12778536D01*
X17286256Y-12778536D02*
X17286256Y-12707824D01*
X17215544Y-12707824D01*
X17215544Y-12778536D01*
X17286256Y-12778536D01*
D11*
X15083399Y-13900666D02*
X15083399Y-13700666D01*
X15131018Y-13700666D01*
X15159589Y-13710190D01*
X15178637Y-13729238D01*
X15188161Y-13748285D01*
X15197685Y-13786380D01*
X15197685Y-13814952D01*
X15188161Y-13853047D01*
X15178637Y-13872095D01*
X15159589Y-13891142D01*
X15131018Y-13900666D01*
X15083399Y-13900666D01*
X15283399Y-13900666D02*
X15283399Y-13767333D01*
X15283399Y-13805428D02*
X15292923Y-13786380D01*
X15302447Y-13776857D01*
X15321494Y-13767333D01*
X15340542Y-13767333D01*
X15407208Y-13900666D02*
X15407208Y-13767333D01*
X15407208Y-13700666D02*
X15397685Y-13710190D01*
X15407208Y-13719714D01*
X15416732Y-13710190D01*
X15407208Y-13700666D01*
X15407208Y-13719714D01*
X15531018Y-13900666D02*
X15511970Y-13891142D01*
X15502447Y-13872095D01*
X15502447Y-13700666D01*
X15635780Y-13900666D02*
X15616732Y-13891142D01*
X15607208Y-13872095D01*
X15607208Y-13700666D01*
X15864351Y-13900666D02*
X15864351Y-13700666D01*
X15931018Y-13843523D01*
X15997685Y-13700666D01*
X15997685Y-13900666D01*
X16178637Y-13900666D02*
X16178637Y-13795904D01*
X16169113Y-13776857D01*
X16150066Y-13767333D01*
X16111970Y-13767333D01*
X16092923Y-13776857D01*
X16178637Y-13891142D02*
X16159589Y-13900666D01*
X16111970Y-13900666D01*
X16092923Y-13891142D01*
X16083399Y-13872095D01*
X16083399Y-13853047D01*
X16092923Y-13833999D01*
X16111970Y-13824476D01*
X16159589Y-13824476D01*
X16178637Y-13814952D01*
X16273875Y-13767333D02*
X16273875Y-13967333D01*
X16273875Y-13776857D02*
X16292923Y-13767333D01*
X16331018Y-13767333D01*
X16350066Y-13776857D01*
X16359589Y-13786380D01*
X16369113Y-13805428D01*
X16369113Y-13862571D01*
X16359589Y-13881618D01*
X16350066Y-13891142D01*
X16331018Y-13900666D01*
X16292923Y-13900666D01*
X16273875Y-13891142D01*
X16454828Y-13881618D02*
X16464351Y-13891142D01*
X16454828Y-13900666D01*
X16445304Y-13891142D01*
X16454828Y-13881618D01*
X16454828Y-13900666D01*
X16454828Y-13776857D02*
X16464351Y-13786380D01*
X16454828Y-13795904D01*
X16445304Y-13786380D01*
X16454828Y-13776857D01*
X16454828Y-13795904D01*
D12*
X14795780Y-14215190D02*
X14825780Y-14245190D01*
X14825780Y-14215190D02*
X14795780Y-14245190D01*
D11*
X15121494Y-14120666D02*
X15140542Y-14120666D01*
X15159589Y-14130190D01*
X15169113Y-14139714D01*
X15178637Y-14158761D01*
X15188161Y-14196857D01*
X15188161Y-14244476D01*
X15178637Y-14282571D01*
X15169113Y-14301618D01*
X15159589Y-14311142D01*
X15140542Y-14320666D01*
X15121494Y-14320666D01*
X15102447Y-14311142D01*
X15092923Y-14301618D01*
X15083399Y-14282571D01*
X15073875Y-14244476D01*
X15073875Y-14196857D01*
X15083399Y-14158761D01*
X15092923Y-14139714D01*
X15102447Y-14130190D01*
X15121494Y-14120666D01*
X15273875Y-14301618D02*
X15283399Y-14311142D01*
X15273875Y-14320666D01*
X15264351Y-14311142D01*
X15273875Y-14301618D01*
X15273875Y-14320666D01*
X15350066Y-14120666D02*
X15473875Y-14120666D01*
X15407208Y-14196857D01*
X15435780Y-14196857D01*
X15454828Y-14206380D01*
X15464351Y-14215904D01*
X15473875Y-14234952D01*
X15473875Y-14282571D01*
X15464351Y-14301618D01*
X15454828Y-14311142D01*
X15435780Y-14320666D01*
X15378637Y-14320666D01*
X15359589Y-14311142D01*
X15350066Y-14301618D01*
X15597685Y-14120666D02*
X15616732Y-14120666D01*
X15635780Y-14130190D01*
X15645304Y-14139714D01*
X15654828Y-14158761D01*
X15664351Y-14196857D01*
X15664351Y-14244476D01*
X15654828Y-14282571D01*
X15645304Y-14301618D01*
X15635780Y-14311142D01*
X15616732Y-14320666D01*
X15597685Y-14320666D01*
X15578637Y-14311142D01*
X15569113Y-14301618D01*
X15559589Y-14282571D01*
X15550066Y-14244476D01*
X15550066Y-14196857D01*
X15559589Y-14158761D01*
X15569113Y-14139714D01*
X15578637Y-14130190D01*
X15597685Y-14120666D01*
X15788161Y-14120666D02*
X15807208Y-14120666D01*
X15826256Y-14130190D01*
X15835780Y-14139714D01*
X15845304Y-14158761D01*
X15854828Y-14196857D01*
X15854828Y-14244476D01*
X15845304Y-14282571D01*
X15835780Y-14301618D01*
X15826256Y-14311142D01*
X15807208Y-14320666D01*
X15788161Y-14320666D01*
X15769113Y-14311142D01*
X15759589Y-14301618D01*
X15750066Y-14282571D01*
X15740542Y-14244476D01*
X15740542Y-14196857D01*
X15750066Y-14158761D01*
X15759589Y-14139714D01*
X15769113Y-14130190D01*
X15788161Y-14120666D01*
X15940542Y-14320666D02*
X15940542Y-14187333D01*
X15940542Y-14206380D02*
X15950066Y-14196857D01*
X15969113Y-14187333D01*
X15997685Y-14187333D01*
X16016732Y-14196857D01*
X16026256Y-14215904D01*
X16026256Y-14320666D01*
X16026256Y-14215904D02*
X16035780Y-14196857D01*
X16054828Y-14187333D01*
X16083399Y-14187333D01*
X16102447Y-14196857D01*
X16111970Y-14215904D01*
X16111970Y-14320666D01*
X16207208Y-14320666D02*
X16207208Y-14187333D01*
X16207208Y-14206380D02*
X16216732Y-14196857D01*
X16235780Y-14187333D01*
X16264351Y-14187333D01*
X16283399Y-14196857D01*
X16292923Y-14215904D01*
X16292923Y-14320666D01*
X16292923Y-14215904D02*
X16302447Y-14196857D01*
X16321494Y-14187333D01*
X16350066Y-14187333D01*
X16369113Y-14196857D01*
X16378637Y-14215904D01*
X16378637Y-14320666D01*
X16769113Y-14111142D02*
X16597685Y-14368285D01*
X17026256Y-14120666D02*
X17045304Y-14120666D01*
X17064351Y-14130190D01*
X17073875Y-14139714D01*
X17083399Y-14158761D01*
X17092923Y-14196857D01*
X17092923Y-14244476D01*
X17083399Y-14282571D01*
X17073875Y-14301618D01*
X17064351Y-14311142D01*
X17045304Y-14320666D01*
X17026256Y-14320666D01*
X17007209Y-14311142D01*
X16997685Y-14301618D01*
X16988161Y-14282571D01*
X16978637Y-14244476D01*
X16978637Y-14196857D01*
X16988161Y-14158761D01*
X16997685Y-14139714D01*
X17007209Y-14130190D01*
X17026256Y-14120666D01*
X17178637Y-14301618D02*
X17188161Y-14311142D01*
X17178637Y-14320666D01*
X17169113Y-14311142D01*
X17178637Y-14301618D01*
X17178637Y-14320666D01*
X17311970Y-14120666D02*
X17331018Y-14120666D01*
X17350066Y-14130190D01*
X17359590Y-14139714D01*
X17369113Y-14158761D01*
X17378637Y-14196857D01*
X17378637Y-14244476D01*
X17369113Y-14282571D01*
X17359590Y-14301618D01*
X17350066Y-14311142D01*
X17331018Y-14320666D01*
X17311970Y-14320666D01*
X17292923Y-14311142D01*
X17283399Y-14301618D01*
X17273875Y-14282571D01*
X17264351Y-14244476D01*
X17264351Y-14196857D01*
X17273875Y-14158761D01*
X17283399Y-14139714D01*
X17292923Y-14130190D01*
X17311970Y-14120666D01*
X17569113Y-14320666D02*
X17454828Y-14320666D01*
X17511970Y-14320666D02*
X17511970Y-14120666D01*
X17492923Y-14149238D01*
X17473875Y-14168285D01*
X17454828Y-14177809D01*
X17759590Y-14320666D02*
X17645304Y-14320666D01*
X17702447Y-14320666D02*
X17702447Y-14120666D01*
X17683399Y-14149238D01*
X17664351Y-14168285D01*
X17645304Y-14177809D01*
X17873875Y-14206380D02*
X17854828Y-14196857D01*
X17845304Y-14187333D01*
X17835780Y-14168285D01*
X17835780Y-14158761D01*
X17845304Y-14139714D01*
X17854828Y-14130190D01*
X17873875Y-14120666D01*
X17911970Y-14120666D01*
X17931018Y-14130190D01*
X17940542Y-14139714D01*
X17950066Y-14158761D01*
X17950066Y-14168285D01*
X17940542Y-14187333D01*
X17931018Y-14196857D01*
X17911970Y-14206380D01*
X17873875Y-14206380D01*
X17854828Y-14215904D01*
X17845304Y-14225428D01*
X17835780Y-14244476D01*
X17835780Y-14282571D01*
X17845304Y-14301618D01*
X17854828Y-14311142D01*
X17873875Y-14320666D01*
X17911970Y-14320666D01*
X17931018Y-14311142D01*
X17940542Y-14301618D01*
X17950066Y-14282571D01*
X17950066Y-14244476D01*
X17940542Y-14225428D01*
X17931018Y-14215904D01*
X17911970Y-14206380D01*
X18026256Y-14120666D02*
X18026256Y-14158761D01*
X18102447Y-14120666D02*
X18102447Y-14158761D01*
X18397685Y-14396857D02*
X18388161Y-14387333D01*
X18369113Y-14358761D01*
X18359590Y-14339714D01*
X18350066Y-14311142D01*
X18340542Y-14263523D01*
X18340542Y-14225428D01*
X18350066Y-14177809D01*
X18359590Y-14149238D01*
X18369113Y-14130190D01*
X18388161Y-14101618D01*
X18397685Y-14092095D01*
X18559590Y-14187333D02*
X18559590Y-14320666D01*
X18511970Y-14111142D02*
X18464351Y-14253999D01*
X18588161Y-14253999D01*
X18750066Y-14187333D02*
X18750066Y-14320666D01*
X18702447Y-14111142D02*
X18654828Y-14253999D01*
X18778637Y-14253999D01*
X19007209Y-14320666D02*
X19007209Y-14120666D01*
X19092923Y-14320666D02*
X19092923Y-14215904D01*
X19083399Y-14196857D01*
X19064351Y-14187333D01*
X19035780Y-14187333D01*
X19016732Y-14196857D01*
X19007209Y-14206380D01*
X19216732Y-14320666D02*
X19197685Y-14311142D01*
X19188161Y-14301618D01*
X19178637Y-14282571D01*
X19178637Y-14225428D01*
X19188161Y-14206380D01*
X19197685Y-14196857D01*
X19216732Y-14187333D01*
X19245304Y-14187333D01*
X19264351Y-14196857D01*
X19273875Y-14206380D01*
X19283399Y-14225428D01*
X19283399Y-14282571D01*
X19273875Y-14301618D01*
X19264351Y-14311142D01*
X19245304Y-14320666D01*
X19216732Y-14320666D01*
X19397685Y-14320666D02*
X19378637Y-14311142D01*
X19369113Y-14292095D01*
X19369113Y-14120666D01*
X19550066Y-14311142D02*
X19531018Y-14320666D01*
X19492923Y-14320666D01*
X19473875Y-14311142D01*
X19464351Y-14292095D01*
X19464351Y-14215904D01*
X19473875Y-14196857D01*
X19492923Y-14187333D01*
X19531018Y-14187333D01*
X19550066Y-14196857D01*
X19559590Y-14215904D01*
X19559590Y-14234952D01*
X19464351Y-14253999D01*
X19635780Y-14311142D02*
X19654828Y-14320666D01*
X19692923Y-14320666D01*
X19711970Y-14311142D01*
X19721494Y-14292095D01*
X19721494Y-14282571D01*
X19711970Y-14263523D01*
X19692923Y-14253999D01*
X19664351Y-14253999D01*
X19645304Y-14244476D01*
X19635780Y-14225428D01*
X19635780Y-14215904D01*
X19645304Y-14196857D01*
X19664351Y-14187333D01*
X19692923Y-14187333D01*
X19711970Y-14196857D01*
X19788161Y-14396857D02*
X19797685Y-14387333D01*
X19816732Y-14358761D01*
X19826256Y-14339714D01*
X19835780Y-14311142D01*
X19845304Y-14263523D01*
X19845304Y-14225428D01*
X19835780Y-14177809D01*
X19826256Y-14149238D01*
X19816732Y-14130190D01*
X19797685Y-14101618D01*
X19788161Y-14092095D01*
D13*
X14825780Y-14494190D02*
G75*
G03*
X14825780Y-14494190I-37000J0D01*
G01*
D11*
X15121494Y-14384666D02*
X15140542Y-14384666D01*
X15159589Y-14394190D01*
X15169113Y-14403714D01*
X15178637Y-14422761D01*
X15188161Y-14460857D01*
X15188161Y-14508476D01*
X15178637Y-14546571D01*
X15169113Y-14565618D01*
X15159589Y-14575142D01*
X15140542Y-14584666D01*
X15121494Y-14584666D01*
X15102447Y-14575142D01*
X15092923Y-14565618D01*
X15083399Y-14546571D01*
X15073875Y-14508476D01*
X15073875Y-14460857D01*
X15083399Y-14422761D01*
X15092923Y-14403714D01*
X15102447Y-14394190D01*
X15121494Y-14384666D01*
X15273875Y-14565618D02*
X15283399Y-14575142D01*
X15273875Y-14584666D01*
X15264351Y-14575142D01*
X15273875Y-14565618D01*
X15273875Y-14584666D01*
X15350066Y-14384666D02*
X15483399Y-14384666D01*
X15397685Y-14584666D01*
X15645304Y-14451333D02*
X15645304Y-14584666D01*
X15597685Y-14375142D02*
X15550066Y-14517999D01*
X15673875Y-14517999D01*
X15788161Y-14384666D02*
X15807208Y-14384666D01*
X15826256Y-14394190D01*
X15835780Y-14403714D01*
X15845304Y-14422761D01*
X15854828Y-14460857D01*
X15854828Y-14508476D01*
X15845304Y-14546571D01*
X15835780Y-14565618D01*
X15826256Y-14575142D01*
X15807208Y-14584666D01*
X15788161Y-14584666D01*
X15769113Y-14575142D01*
X15759589Y-14565618D01*
X15750066Y-14546571D01*
X15740542Y-14508476D01*
X15740542Y-14460857D01*
X15750066Y-14422761D01*
X15759589Y-14403714D01*
X15769113Y-14394190D01*
X15788161Y-14384666D01*
X15940542Y-14584666D02*
X15940542Y-14451333D01*
X15940542Y-14470380D02*
X15950066Y-14460857D01*
X15969113Y-14451333D01*
X15997685Y-14451333D01*
X16016732Y-14460857D01*
X16026256Y-14479904D01*
X16026256Y-14584666D01*
X16026256Y-14479904D02*
X16035780Y-14460857D01*
X16054828Y-14451333D01*
X16083399Y-14451333D01*
X16102447Y-14460857D01*
X16111970Y-14479904D01*
X16111970Y-14584666D01*
X16207208Y-14584666D02*
X16207208Y-14451333D01*
X16207208Y-14470380D02*
X16216732Y-14460857D01*
X16235780Y-14451333D01*
X16264351Y-14451333D01*
X16283399Y-14460857D01*
X16292923Y-14479904D01*
X16292923Y-14584666D01*
X16292923Y-14479904D02*
X16302447Y-14460857D01*
X16321494Y-14451333D01*
X16350066Y-14451333D01*
X16369113Y-14460857D01*
X16378637Y-14479904D01*
X16378637Y-14584666D01*
X16769113Y-14375142D02*
X16597685Y-14632285D01*
X17026256Y-14384666D02*
X17045304Y-14384666D01*
X17064351Y-14394190D01*
X17073875Y-14403714D01*
X17083399Y-14422761D01*
X17092923Y-14460857D01*
X17092923Y-14508476D01*
X17083399Y-14546571D01*
X17073875Y-14565618D01*
X17064351Y-14575142D01*
X17045304Y-14584666D01*
X17026256Y-14584666D01*
X17007209Y-14575142D01*
X16997685Y-14565618D01*
X16988161Y-14546571D01*
X16978637Y-14508476D01*
X16978637Y-14460857D01*
X16988161Y-14422761D01*
X16997685Y-14403714D01*
X17007209Y-14394190D01*
X17026256Y-14384666D01*
X17178637Y-14565618D02*
X17188161Y-14575142D01*
X17178637Y-14584666D01*
X17169113Y-14575142D01*
X17178637Y-14565618D01*
X17178637Y-14584666D01*
X17311970Y-14384666D02*
X17331018Y-14384666D01*
X17350066Y-14394190D01*
X17359590Y-14403714D01*
X17369113Y-14422761D01*
X17378637Y-14460857D01*
X17378637Y-14508476D01*
X17369113Y-14546571D01*
X17359590Y-14565618D01*
X17350066Y-14575142D01*
X17331018Y-14584666D01*
X17311970Y-14584666D01*
X17292923Y-14575142D01*
X17283399Y-14565618D01*
X17273875Y-14546571D01*
X17264351Y-14508476D01*
X17264351Y-14460857D01*
X17273875Y-14422761D01*
X17283399Y-14403714D01*
X17292923Y-14394190D01*
X17311970Y-14384666D01*
X17454828Y-14403714D02*
X17464351Y-14394190D01*
X17483399Y-14384666D01*
X17531018Y-14384666D01*
X17550066Y-14394190D01*
X17559590Y-14403714D01*
X17569113Y-14422761D01*
X17569113Y-14441809D01*
X17559590Y-14470380D01*
X17445304Y-14584666D01*
X17569113Y-14584666D01*
X17664351Y-14584666D02*
X17702447Y-14584666D01*
X17721494Y-14575142D01*
X17731018Y-14565618D01*
X17750066Y-14537047D01*
X17759590Y-14498952D01*
X17759590Y-14422761D01*
X17750066Y-14403714D01*
X17740542Y-14394190D01*
X17721494Y-14384666D01*
X17683399Y-14384666D01*
X17664351Y-14394190D01*
X17654828Y-14403714D01*
X17645304Y-14422761D01*
X17645304Y-14470380D01*
X17654828Y-14489428D01*
X17664351Y-14498952D01*
X17683399Y-14508476D01*
X17721494Y-14508476D01*
X17740542Y-14498952D01*
X17750066Y-14489428D01*
X17759590Y-14470380D01*
X17950066Y-14584666D02*
X17835780Y-14584666D01*
X17892923Y-14584666D02*
X17892923Y-14384666D01*
X17873875Y-14413238D01*
X17854828Y-14432285D01*
X17835780Y-14441809D01*
X18026256Y-14384666D02*
X18026256Y-14422761D01*
X18102447Y-14384666D02*
X18102447Y-14422761D01*
X18397685Y-14660857D02*
X18388161Y-14651333D01*
X18369113Y-14622761D01*
X18359590Y-14603714D01*
X18350066Y-14575142D01*
X18340542Y-14527523D01*
X18340542Y-14489428D01*
X18350066Y-14441809D01*
X18359590Y-14413238D01*
X18369113Y-14394190D01*
X18388161Y-14365618D01*
X18397685Y-14356095D01*
X18559590Y-14384666D02*
X18521494Y-14384666D01*
X18502447Y-14394190D01*
X18492923Y-14403714D01*
X18473875Y-14432285D01*
X18464351Y-14470380D01*
X18464351Y-14546571D01*
X18473875Y-14565618D01*
X18483399Y-14575142D01*
X18502447Y-14584666D01*
X18540542Y-14584666D01*
X18559590Y-14575142D01*
X18569113Y-14565618D01*
X18578637Y-14546571D01*
X18578637Y-14498952D01*
X18569113Y-14479904D01*
X18559590Y-14470380D01*
X18540542Y-14460857D01*
X18502447Y-14460857D01*
X18483399Y-14470380D01*
X18473875Y-14479904D01*
X18464351Y-14498952D01*
X18816732Y-14584666D02*
X18816732Y-14384666D01*
X18902447Y-14584666D02*
X18902447Y-14479904D01*
X18892923Y-14460857D01*
X18873875Y-14451333D01*
X18845304Y-14451333D01*
X18826256Y-14460857D01*
X18816732Y-14470380D01*
X19026256Y-14584666D02*
X19007209Y-14575142D01*
X18997685Y-14565618D01*
X18988161Y-14546571D01*
X18988161Y-14489428D01*
X18997685Y-14470380D01*
X19007209Y-14460857D01*
X19026256Y-14451333D01*
X19054828Y-14451333D01*
X19073875Y-14460857D01*
X19083399Y-14470380D01*
X19092923Y-14489428D01*
X19092923Y-14546571D01*
X19083399Y-14565618D01*
X19073875Y-14575142D01*
X19054828Y-14584666D01*
X19026256Y-14584666D01*
X19207209Y-14584666D02*
X19188161Y-14575142D01*
X19178637Y-14556095D01*
X19178637Y-14384666D01*
X19359590Y-14575142D02*
X19340542Y-14584666D01*
X19302447Y-14584666D01*
X19283399Y-14575142D01*
X19273875Y-14556095D01*
X19273875Y-14479904D01*
X19283399Y-14460857D01*
X19302447Y-14451333D01*
X19340542Y-14451333D01*
X19359590Y-14460857D01*
X19369113Y-14479904D01*
X19369113Y-14498952D01*
X19273875Y-14517999D01*
X19445304Y-14575142D02*
X19464351Y-14584666D01*
X19502447Y-14584666D01*
X19521494Y-14575142D01*
X19531018Y-14556095D01*
X19531018Y-14546571D01*
X19521494Y-14527523D01*
X19502447Y-14517999D01*
X19473875Y-14517999D01*
X19454828Y-14508476D01*
X19445304Y-14489428D01*
X19445304Y-14479904D01*
X19454828Y-14460857D01*
X19473875Y-14451333D01*
X19502447Y-14451333D01*
X19521494Y-14460857D01*
X19597685Y-14660857D02*
X19607209Y-14651333D01*
X19626256Y-14622761D01*
X19635780Y-14603714D01*
X19645304Y-14575142D01*
X19654828Y-14527523D01*
X19654828Y-14489428D01*
X19645304Y-14441809D01*
X19635780Y-14413238D01*
X19626256Y-14394190D01*
X19607209Y-14365618D01*
X19597685Y-14356095D01*
D14*
X14785780Y-14718190D02*
X14785780Y-14798190D01*
X14745780Y-14758190D02*
X14825780Y-14758190D01*
D11*
X15121494Y-14648666D02*
X15140542Y-14648666D01*
X15159589Y-14658190D01*
X15169113Y-14667714D01*
X15178637Y-14686761D01*
X15188161Y-14724857D01*
X15188161Y-14772476D01*
X15178637Y-14810571D01*
X15169113Y-14829618D01*
X15159589Y-14839142D01*
X15140542Y-14848666D01*
X15121494Y-14848666D01*
X15102447Y-14839142D01*
X15092923Y-14829618D01*
X15083399Y-14810571D01*
X15073875Y-14772476D01*
X15073875Y-14724857D01*
X15083399Y-14686761D01*
X15092923Y-14667714D01*
X15102447Y-14658190D01*
X15121494Y-14648666D01*
X15273875Y-14829618D02*
X15283399Y-14839142D01*
X15273875Y-14848666D01*
X15264351Y-14839142D01*
X15273875Y-14829618D01*
X15273875Y-14848666D01*
X15397685Y-14734380D02*
X15378637Y-14724857D01*
X15369113Y-14715333D01*
X15359589Y-14696285D01*
X15359589Y-14686761D01*
X15369113Y-14667714D01*
X15378637Y-14658190D01*
X15397685Y-14648666D01*
X15435780Y-14648666D01*
X15454828Y-14658190D01*
X15464351Y-14667714D01*
X15473875Y-14686761D01*
X15473875Y-14696285D01*
X15464351Y-14715333D01*
X15454828Y-14724857D01*
X15435780Y-14734380D01*
X15397685Y-14734380D01*
X15378637Y-14743904D01*
X15369113Y-14753428D01*
X15359589Y-14772476D01*
X15359589Y-14810571D01*
X15369113Y-14829618D01*
X15378637Y-14839142D01*
X15397685Y-14848666D01*
X15435780Y-14848666D01*
X15454828Y-14839142D01*
X15464351Y-14829618D01*
X15473875Y-14810571D01*
X15473875Y-14772476D01*
X15464351Y-14753428D01*
X15454828Y-14743904D01*
X15435780Y-14734380D01*
X15597685Y-14648666D02*
X15616732Y-14648666D01*
X15635780Y-14658190D01*
X15645304Y-14667714D01*
X15654828Y-14686761D01*
X15664351Y-14724857D01*
X15664351Y-14772476D01*
X15654828Y-14810571D01*
X15645304Y-14829618D01*
X15635780Y-14839142D01*
X15616732Y-14848666D01*
X15597685Y-14848666D01*
X15578637Y-14839142D01*
X15569113Y-14829618D01*
X15559589Y-14810571D01*
X15550066Y-14772476D01*
X15550066Y-14724857D01*
X15559589Y-14686761D01*
X15569113Y-14667714D01*
X15578637Y-14658190D01*
X15597685Y-14648666D01*
X15788161Y-14648666D02*
X15807208Y-14648666D01*
X15826256Y-14658190D01*
X15835780Y-14667714D01*
X15845304Y-14686761D01*
X15854828Y-14724857D01*
X15854828Y-14772476D01*
X15845304Y-14810571D01*
X15835780Y-14829618D01*
X15826256Y-14839142D01*
X15807208Y-14848666D01*
X15788161Y-14848666D01*
X15769113Y-14839142D01*
X15759589Y-14829618D01*
X15750066Y-14810571D01*
X15740542Y-14772476D01*
X15740542Y-14724857D01*
X15750066Y-14686761D01*
X15759589Y-14667714D01*
X15769113Y-14658190D01*
X15788161Y-14648666D01*
X15940542Y-14848666D02*
X15940542Y-14715333D01*
X15940542Y-14734380D02*
X15950066Y-14724857D01*
X15969113Y-14715333D01*
X15997685Y-14715333D01*
X16016732Y-14724857D01*
X16026256Y-14743904D01*
X16026256Y-14848666D01*
X16026256Y-14743904D02*
X16035780Y-14724857D01*
X16054828Y-14715333D01*
X16083399Y-14715333D01*
X16102447Y-14724857D01*
X16111970Y-14743904D01*
X16111970Y-14848666D01*
X16207208Y-14848666D02*
X16207208Y-14715333D01*
X16207208Y-14734380D02*
X16216732Y-14724857D01*
X16235780Y-14715333D01*
X16264351Y-14715333D01*
X16283399Y-14724857D01*
X16292923Y-14743904D01*
X16292923Y-14848666D01*
X16292923Y-14743904D02*
X16302447Y-14724857D01*
X16321494Y-14715333D01*
X16350066Y-14715333D01*
X16369113Y-14724857D01*
X16378637Y-14743904D01*
X16378637Y-14848666D01*
X16769113Y-14639142D02*
X16597685Y-14896285D01*
X17026256Y-14648666D02*
X17045304Y-14648666D01*
X17064351Y-14658190D01*
X17073875Y-14667714D01*
X17083399Y-14686761D01*
X17092923Y-14724857D01*
X17092923Y-14772476D01*
X17083399Y-14810571D01*
X17073875Y-14829618D01*
X17064351Y-14839142D01*
X17045304Y-14848666D01*
X17026256Y-14848666D01*
X17007209Y-14839142D01*
X16997685Y-14829618D01*
X16988161Y-14810571D01*
X16978637Y-14772476D01*
X16978637Y-14724857D01*
X16988161Y-14686761D01*
X16997685Y-14667714D01*
X17007209Y-14658190D01*
X17026256Y-14648666D01*
X17178637Y-14829618D02*
X17188161Y-14839142D01*
X17178637Y-14848666D01*
X17169113Y-14839142D01*
X17178637Y-14829618D01*
X17178637Y-14848666D01*
X17311970Y-14648666D02*
X17331018Y-14648666D01*
X17350066Y-14658190D01*
X17359590Y-14667714D01*
X17369113Y-14686761D01*
X17378637Y-14724857D01*
X17378637Y-14772476D01*
X17369113Y-14810571D01*
X17359590Y-14829618D01*
X17350066Y-14839142D01*
X17331018Y-14848666D01*
X17311970Y-14848666D01*
X17292923Y-14839142D01*
X17283399Y-14829618D01*
X17273875Y-14810571D01*
X17264351Y-14772476D01*
X17264351Y-14724857D01*
X17273875Y-14686761D01*
X17283399Y-14667714D01*
X17292923Y-14658190D01*
X17311970Y-14648666D01*
X17445304Y-14648666D02*
X17569113Y-14648666D01*
X17502447Y-14724857D01*
X17531018Y-14724857D01*
X17550066Y-14734380D01*
X17559590Y-14743904D01*
X17569113Y-14762952D01*
X17569113Y-14810571D01*
X17559590Y-14829618D01*
X17550066Y-14839142D01*
X17531018Y-14848666D01*
X17473875Y-14848666D01*
X17454828Y-14839142D01*
X17445304Y-14829618D01*
X17759590Y-14848666D02*
X17645304Y-14848666D01*
X17702447Y-14848666D02*
X17702447Y-14648666D01*
X17683399Y-14677238D01*
X17664351Y-14696285D01*
X17645304Y-14705809D01*
X17940542Y-14648666D02*
X17845304Y-14648666D01*
X17835780Y-14743904D01*
X17845304Y-14734380D01*
X17864351Y-14724857D01*
X17911970Y-14724857D01*
X17931018Y-14734380D01*
X17940542Y-14743904D01*
X17950066Y-14762952D01*
X17950066Y-14810571D01*
X17940542Y-14829618D01*
X17931018Y-14839142D01*
X17911970Y-14848666D01*
X17864351Y-14848666D01*
X17845304Y-14839142D01*
X17835780Y-14829618D01*
X18026256Y-14648666D02*
X18026256Y-14686761D01*
X18102447Y-14648666D02*
X18102447Y-14686761D01*
X18397685Y-14924857D02*
X18388161Y-14915333D01*
X18369113Y-14886761D01*
X18359590Y-14867714D01*
X18350066Y-14839142D01*
X18340542Y-14791523D01*
X18340542Y-14753428D01*
X18350066Y-14705809D01*
X18359590Y-14677238D01*
X18369113Y-14658190D01*
X18388161Y-14629618D01*
X18397685Y-14620095D01*
X18578637Y-14848666D02*
X18464351Y-14848666D01*
X18521494Y-14848666D02*
X18521494Y-14648666D01*
X18502447Y-14677238D01*
X18483399Y-14696285D01*
X18464351Y-14705809D01*
X18702447Y-14648666D02*
X18721494Y-14648666D01*
X18740542Y-14658190D01*
X18750066Y-14667714D01*
X18759590Y-14686761D01*
X18769113Y-14724857D01*
X18769113Y-14772476D01*
X18759590Y-14810571D01*
X18750066Y-14829618D01*
X18740542Y-14839142D01*
X18721494Y-14848666D01*
X18702447Y-14848666D01*
X18683399Y-14839142D01*
X18673875Y-14829618D01*
X18664351Y-14810571D01*
X18654828Y-14772476D01*
X18654828Y-14724857D01*
X18664351Y-14686761D01*
X18673875Y-14667714D01*
X18683399Y-14658190D01*
X18702447Y-14648666D01*
X19007209Y-14848666D02*
X19007209Y-14648666D01*
X19092923Y-14848666D02*
X19092923Y-14743904D01*
X19083399Y-14724857D01*
X19064351Y-14715333D01*
X19035780Y-14715333D01*
X19016732Y-14724857D01*
X19007209Y-14734380D01*
X19216732Y-14848666D02*
X19197685Y-14839142D01*
X19188161Y-14829618D01*
X19178637Y-14810571D01*
X19178637Y-14753428D01*
X19188161Y-14734380D01*
X19197685Y-14724857D01*
X19216732Y-14715333D01*
X19245304Y-14715333D01*
X19264351Y-14724857D01*
X19273875Y-14734380D01*
X19283399Y-14753428D01*
X19283399Y-14810571D01*
X19273875Y-14829618D01*
X19264351Y-14839142D01*
X19245304Y-14848666D01*
X19216732Y-14848666D01*
X19397685Y-14848666D02*
X19378637Y-14839142D01*
X19369113Y-14820095D01*
X19369113Y-14648666D01*
X19550066Y-14839142D02*
X19531018Y-14848666D01*
X19492923Y-14848666D01*
X19473875Y-14839142D01*
X19464351Y-14820095D01*
X19464351Y-14743904D01*
X19473875Y-14724857D01*
X19492923Y-14715333D01*
X19531018Y-14715333D01*
X19550066Y-14724857D01*
X19559590Y-14743904D01*
X19559590Y-14762952D01*
X19464351Y-14781999D01*
X19635780Y-14839142D02*
X19654828Y-14848666D01*
X19692923Y-14848666D01*
X19711970Y-14839142D01*
X19721494Y-14820095D01*
X19721494Y-14810571D01*
X19711970Y-14791523D01*
X19692923Y-14781999D01*
X19664351Y-14781999D01*
X19645304Y-14772476D01*
X19635780Y-14753428D01*
X19635780Y-14743904D01*
X19645304Y-14724857D01*
X19664351Y-14715333D01*
X19692923Y-14715333D01*
X19711970Y-14724857D01*
X19788161Y-14924857D02*
X19797685Y-14915333D01*
X19816732Y-14886761D01*
X19826256Y-14867714D01*
X19835780Y-14839142D01*
X19845304Y-14791523D01*
X19845304Y-14753428D01*
X19835780Y-14705809D01*
X19826256Y-14677238D01*
X19816732Y-14658190D01*
X19797685Y-14629618D01*
X19788161Y-14620095D01*
D10*
X14811136Y-15057546D02*
X14811136Y-14986834D01*
X14740424Y-14986834D01*
X14740424Y-15057546D01*
X14811136Y-15057546D01*
D11*
X15188161Y-15112666D02*
X15073875Y-15112666D01*
X15131018Y-15112666D02*
X15131018Y-14912666D01*
X15111970Y-14941238D01*
X15092923Y-14960285D01*
X15073875Y-14969809D01*
X15273875Y-15093618D02*
X15283399Y-15103142D01*
X15273875Y-15112666D01*
X15264351Y-15103142D01*
X15273875Y-15093618D01*
X15273875Y-15112666D01*
X15407208Y-14912666D02*
X15426256Y-14912666D01*
X15445304Y-14922190D01*
X15454828Y-14931714D01*
X15464351Y-14950761D01*
X15473875Y-14988857D01*
X15473875Y-15036476D01*
X15464351Y-15074571D01*
X15454828Y-15093618D01*
X15445304Y-15103142D01*
X15426256Y-15112666D01*
X15407208Y-15112666D01*
X15388161Y-15103142D01*
X15378637Y-15093618D01*
X15369113Y-15074571D01*
X15359589Y-15036476D01*
X15359589Y-14988857D01*
X15369113Y-14950761D01*
X15378637Y-14931714D01*
X15388161Y-14922190D01*
X15407208Y-14912666D01*
X15597685Y-14912666D02*
X15616732Y-14912666D01*
X15635780Y-14922190D01*
X15645304Y-14931714D01*
X15654828Y-14950761D01*
X15664351Y-14988857D01*
X15664351Y-15036476D01*
X15654828Y-15074571D01*
X15645304Y-15093618D01*
X15635780Y-15103142D01*
X15616732Y-15112666D01*
X15597685Y-15112666D01*
X15578637Y-15103142D01*
X15569113Y-15093618D01*
X15559589Y-15074571D01*
X15550066Y-15036476D01*
X15550066Y-14988857D01*
X15559589Y-14950761D01*
X15569113Y-14931714D01*
X15578637Y-14922190D01*
X15597685Y-14912666D01*
X15788161Y-14912666D02*
X15807208Y-14912666D01*
X15826256Y-14922190D01*
X15835780Y-14931714D01*
X15845304Y-14950761D01*
X15854828Y-14988857D01*
X15854828Y-15036476D01*
X15845304Y-15074571D01*
X15835780Y-15093618D01*
X15826256Y-15103142D01*
X15807208Y-15112666D01*
X15788161Y-15112666D01*
X15769113Y-15103142D01*
X15759589Y-15093618D01*
X15750066Y-15074571D01*
X15740542Y-15036476D01*
X15740542Y-14988857D01*
X15750066Y-14950761D01*
X15759589Y-14931714D01*
X15769113Y-14922190D01*
X15788161Y-14912666D01*
X15940542Y-15112666D02*
X15940542Y-14979333D01*
X15940542Y-14998380D02*
X15950066Y-14988857D01*
X15969113Y-14979333D01*
X15997685Y-14979333D01*
X16016732Y-14988857D01*
X16026256Y-15007904D01*
X16026256Y-15112666D01*
X16026256Y-15007904D02*
X16035780Y-14988857D01*
X16054828Y-14979333D01*
X16083399Y-14979333D01*
X16102447Y-14988857D01*
X16111970Y-15007904D01*
X16111970Y-15112666D01*
X16207208Y-15112666D02*
X16207208Y-14979333D01*
X16207208Y-14998380D02*
X16216732Y-14988857D01*
X16235780Y-14979333D01*
X16264351Y-14979333D01*
X16283399Y-14988857D01*
X16292923Y-15007904D01*
X16292923Y-15112666D01*
X16292923Y-15007904D02*
X16302447Y-14988857D01*
X16321494Y-14979333D01*
X16350066Y-14979333D01*
X16369113Y-14988857D01*
X16378637Y-15007904D01*
X16378637Y-15112666D01*
X16769113Y-14903142D02*
X16597685Y-15160285D01*
X17026256Y-14912666D02*
X17045304Y-14912666D01*
X17064351Y-14922190D01*
X17073875Y-14931714D01*
X17083399Y-14950761D01*
X17092923Y-14988857D01*
X17092923Y-15036476D01*
X17083399Y-15074571D01*
X17073875Y-15093618D01*
X17064351Y-15103142D01*
X17045304Y-15112666D01*
X17026256Y-15112666D01*
X17007209Y-15103142D01*
X16997685Y-15093618D01*
X16988161Y-15074571D01*
X16978637Y-15036476D01*
X16978637Y-14988857D01*
X16988161Y-14950761D01*
X16997685Y-14931714D01*
X17007209Y-14922190D01*
X17026256Y-14912666D01*
X17178637Y-15093618D02*
X17188161Y-15103142D01*
X17178637Y-15112666D01*
X17169113Y-15103142D01*
X17178637Y-15093618D01*
X17178637Y-15112666D01*
X17311970Y-14912666D02*
X17331018Y-14912666D01*
X17350066Y-14922190D01*
X17359590Y-14931714D01*
X17369113Y-14950761D01*
X17378637Y-14988857D01*
X17378637Y-15036476D01*
X17369113Y-15074571D01*
X17359590Y-15093618D01*
X17350066Y-15103142D01*
X17331018Y-15112666D01*
X17311970Y-15112666D01*
X17292923Y-15103142D01*
X17283399Y-15093618D01*
X17273875Y-15074571D01*
X17264351Y-15036476D01*
X17264351Y-14988857D01*
X17273875Y-14950761D01*
X17283399Y-14931714D01*
X17292923Y-14922190D01*
X17311970Y-14912666D01*
X17445304Y-14912666D02*
X17569113Y-14912666D01*
X17502447Y-14988857D01*
X17531018Y-14988857D01*
X17550066Y-14998380D01*
X17559590Y-15007904D01*
X17569113Y-15026952D01*
X17569113Y-15074571D01*
X17559590Y-15093618D01*
X17550066Y-15103142D01*
X17531018Y-15112666D01*
X17473875Y-15112666D01*
X17454828Y-15103142D01*
X17445304Y-15093618D01*
X17664351Y-15112666D02*
X17702447Y-15112666D01*
X17721494Y-15103142D01*
X17731018Y-15093618D01*
X17750066Y-15065047D01*
X17759590Y-15026952D01*
X17759590Y-14950761D01*
X17750066Y-14931714D01*
X17740542Y-14922190D01*
X17721494Y-14912666D01*
X17683399Y-14912666D01*
X17664351Y-14922190D01*
X17654828Y-14931714D01*
X17645304Y-14950761D01*
X17645304Y-14998380D01*
X17654828Y-15017428D01*
X17664351Y-15026952D01*
X17683399Y-15036476D01*
X17721494Y-15036476D01*
X17740542Y-15026952D01*
X17750066Y-15017428D01*
X17759590Y-14998380D01*
X17931018Y-14979333D02*
X17931018Y-15112666D01*
X17883399Y-14903142D02*
X17835780Y-15045999D01*
X17959590Y-15045999D01*
X18026256Y-14912666D02*
X18026256Y-14950761D01*
X18102447Y-14912666D02*
X18102447Y-14950761D01*
X18397685Y-15188857D02*
X18388161Y-15179333D01*
X18369113Y-15150761D01*
X18359590Y-15131714D01*
X18350066Y-15103142D01*
X18340542Y-15055523D01*
X18340542Y-15017428D01*
X18350066Y-14969809D01*
X18359590Y-14941238D01*
X18369113Y-14922190D01*
X18388161Y-14893618D01*
X18397685Y-14884095D01*
X18464351Y-14931714D02*
X18473875Y-14922190D01*
X18492923Y-14912666D01*
X18540542Y-14912666D01*
X18559590Y-14922190D01*
X18569113Y-14931714D01*
X18578637Y-14950761D01*
X18578637Y-14969809D01*
X18569113Y-14998380D01*
X18454828Y-15112666D01*
X18578637Y-15112666D01*
X18816732Y-15112666D02*
X18816732Y-14912666D01*
X18902447Y-15112666D02*
X18902447Y-15007904D01*
X18892923Y-14988857D01*
X18873875Y-14979333D01*
X18845304Y-14979333D01*
X18826256Y-14988857D01*
X18816732Y-14998380D01*
X19026256Y-15112666D02*
X19007209Y-15103142D01*
X18997685Y-15093618D01*
X18988161Y-15074571D01*
X18988161Y-15017428D01*
X18997685Y-14998380D01*
X19007209Y-14988857D01*
X19026256Y-14979333D01*
X19054828Y-14979333D01*
X19073875Y-14988857D01*
X19083399Y-14998380D01*
X19092923Y-15017428D01*
X19092923Y-15074571D01*
X19083399Y-15093618D01*
X19073875Y-15103142D01*
X19054828Y-15112666D01*
X19026256Y-15112666D01*
X19207209Y-15112666D02*
X19188161Y-15103142D01*
X19178637Y-15084095D01*
X19178637Y-14912666D01*
X19359590Y-15103142D02*
X19340542Y-15112666D01*
X19302447Y-15112666D01*
X19283399Y-15103142D01*
X19273875Y-15084095D01*
X19273875Y-15007904D01*
X19283399Y-14988857D01*
X19302447Y-14979333D01*
X19340542Y-14979333D01*
X19359590Y-14988857D01*
X19369113Y-15007904D01*
X19369113Y-15026952D01*
X19273875Y-15045999D01*
X19445304Y-15103142D02*
X19464351Y-15112666D01*
X19502447Y-15112666D01*
X19521494Y-15103142D01*
X19531018Y-15084095D01*
X19531018Y-15074571D01*
X19521494Y-15055523D01*
X19502447Y-15045999D01*
X19473875Y-15045999D01*
X19454828Y-15036476D01*
X19445304Y-15017428D01*
X19445304Y-15007904D01*
X19454828Y-14988857D01*
X19473875Y-14979333D01*
X19502447Y-14979333D01*
X19521494Y-14988857D01*
X19597685Y-15188857D02*
X19607209Y-15179333D01*
X19626256Y-15150761D01*
X19635780Y-15131714D01*
X19645304Y-15103142D01*
X19654828Y-15055523D01*
X19654828Y-15017428D01*
X19645304Y-14969809D01*
X19635780Y-14941238D01*
X19626256Y-14922190D01*
X19607209Y-14893618D01*
X19597685Y-14884095D01*
M02*
