%TF.GenerationSoftware,KiCad,Pcbnew,(6.0.8)*%
%TF.CreationDate,2023-06-01T04:28:43+02:00*%
%TF.ProjectId,BSPD-07,42535044-2d30-4372-9e6b-696361645f70,rev?*%
%TF.SameCoordinates,Original*%
%TF.FileFunction,Legend,Bot*%
%TF.FilePolarity,Positive*%
%FSLAX46Y46*%
G04 Gerber Fmt 4.6, Leading zero omitted, Abs format (unit mm)*
G04 Created by KiCad (PCBNEW (6.0.8)) date 2023-06-01 04:28:43*
%MOMM*%
%LPD*%
G01*
G04 APERTURE LIST*
%ADD10C,0.150000*%
G04 APERTURE END LIST*
D10*
X155107057Y-97305657D02*
X155078485Y-97219942D01*
X155049914Y-97191371D01*
X154992771Y-97162800D01*
X154907057Y-97162800D01*
X154849914Y-97191371D01*
X154821342Y-97219942D01*
X154792771Y-97277085D01*
X154792771Y-97505657D01*
X155392771Y-97505657D01*
X155392771Y-97305657D01*
X155364200Y-97248514D01*
X155335628Y-97219942D01*
X155278485Y-97191371D01*
X155221342Y-97191371D01*
X155164200Y-97219942D01*
X155135628Y-97248514D01*
X155107057Y-97305657D01*
X155107057Y-97505657D01*
X154792771Y-96562800D02*
X155078485Y-96762800D01*
X154792771Y-96905657D02*
X155392771Y-96905657D01*
X155392771Y-96677085D01*
X155364200Y-96619942D01*
X155335628Y-96591371D01*
X155278485Y-96562800D01*
X155192771Y-96562800D01*
X155135628Y-96591371D01*
X155107057Y-96619942D01*
X155078485Y-96677085D01*
X155078485Y-96905657D01*
X154792771Y-96305657D02*
X155392771Y-96305657D01*
X154792771Y-95962800D02*
X155135628Y-96219942D01*
X155392771Y-95962800D02*
X155049914Y-96305657D01*
X154735628Y-95848514D02*
X154735628Y-95391371D01*
X154792771Y-95248514D02*
X155392771Y-95248514D01*
X154792771Y-94962800D02*
X155392771Y-94962800D01*
X154792771Y-94619942D01*
X155392771Y-94619942D01*
X169331057Y-97438942D02*
X169302485Y-97353228D01*
X169273914Y-97324657D01*
X169216771Y-97296085D01*
X169131057Y-97296085D01*
X169073914Y-97324657D01*
X169045342Y-97353228D01*
X169016771Y-97410371D01*
X169016771Y-97638942D01*
X169616771Y-97638942D01*
X169616771Y-97438942D01*
X169588200Y-97381800D01*
X169559628Y-97353228D01*
X169502485Y-97324657D01*
X169445342Y-97324657D01*
X169388200Y-97353228D01*
X169359628Y-97381800D01*
X169331057Y-97438942D01*
X169331057Y-97638942D01*
X169016771Y-96696085D02*
X169302485Y-96896085D01*
X169016771Y-97038942D02*
X169616771Y-97038942D01*
X169616771Y-96810371D01*
X169588200Y-96753228D01*
X169559628Y-96724657D01*
X169502485Y-96696085D01*
X169416771Y-96696085D01*
X169359628Y-96724657D01*
X169331057Y-96753228D01*
X169302485Y-96810371D01*
X169302485Y-97038942D01*
X169016771Y-96438942D02*
X169616771Y-96438942D01*
X169016771Y-96096085D02*
X169359628Y-96353228D01*
X169616771Y-96096085D02*
X169273914Y-96438942D01*
X168959628Y-95981800D02*
X168959628Y-95524657D01*
X169616771Y-95467514D02*
X169616771Y-95124657D01*
X169016771Y-95296085D02*
X169616771Y-95296085D01*
X169016771Y-94581800D02*
X169302485Y-94781800D01*
X169016771Y-94924657D02*
X169616771Y-94924657D01*
X169616771Y-94696085D01*
X169588200Y-94638942D01*
X169559628Y-94610371D01*
X169502485Y-94581800D01*
X169416771Y-94581800D01*
X169359628Y-94610371D01*
X169331057Y-94638942D01*
X169302485Y-94696085D01*
X169302485Y-94924657D01*
X169016771Y-94324657D02*
X169616771Y-94324657D01*
X169588200Y-93724657D02*
X169616771Y-93781800D01*
X169616771Y-93867514D01*
X169588200Y-93953228D01*
X169531057Y-94010371D01*
X169473914Y-94038942D01*
X169359628Y-94067514D01*
X169273914Y-94067514D01*
X169159628Y-94038942D01*
X169102485Y-94010371D01*
X169045342Y-93953228D01*
X169016771Y-93867514D01*
X169016771Y-93810371D01*
X169045342Y-93724657D01*
X169073914Y-93696085D01*
X169273914Y-93696085D01*
X169273914Y-93810371D01*
X149424657Y-113460542D02*
X150324657Y-113460542D01*
X149981800Y-113460542D02*
X150024657Y-113374828D01*
X150024657Y-113203400D01*
X149981800Y-113117685D01*
X149938942Y-113074828D01*
X149853228Y-113031971D01*
X149596085Y-113031971D01*
X149510371Y-113074828D01*
X149467514Y-113117685D01*
X149424657Y-113203400D01*
X149424657Y-113374828D01*
X149467514Y-113460542D01*
X150024657Y-112731971D02*
X149424657Y-112517685D01*
X150024657Y-112303400D02*
X149424657Y-112517685D01*
X149210371Y-112603400D01*
X149167514Y-112646257D01*
X149124657Y-112731971D01*
X149424657Y-111274828D02*
X150324657Y-111274828D01*
X149424657Y-110760542D02*
X149938942Y-111146257D01*
X150324657Y-110760542D02*
X149810371Y-111274828D01*
X149510371Y-110374828D02*
X149467514Y-110331971D01*
X149424657Y-110374828D01*
X149467514Y-110417685D01*
X149510371Y-110374828D01*
X149424657Y-110374828D01*
X149424657Y-109946257D02*
X150324657Y-109946257D01*
X150324657Y-109603400D01*
X150281800Y-109517685D01*
X150238942Y-109474828D01*
X150153228Y-109431971D01*
X150024657Y-109431971D01*
X149938942Y-109474828D01*
X149896085Y-109517685D01*
X149853228Y-109603400D01*
X149853228Y-109946257D01*
X149467514Y-108703400D02*
X149424657Y-108789114D01*
X149424657Y-108960542D01*
X149467514Y-109046257D01*
X149553228Y-109089114D01*
X149896085Y-109089114D01*
X149981800Y-109046257D01*
X150024657Y-108960542D01*
X150024657Y-108789114D01*
X149981800Y-108703400D01*
X149896085Y-108660542D01*
X149810371Y-108660542D01*
X149724657Y-109089114D01*
X149424657Y-108274828D02*
X150024657Y-108274828D01*
X149853228Y-108274828D02*
X149938942Y-108231971D01*
X149981800Y-108189114D01*
X150024657Y-108103400D01*
X150024657Y-108017685D01*
X150024657Y-107331971D02*
X149296085Y-107331971D01*
X149210371Y-107374828D01*
X149167514Y-107417685D01*
X149124657Y-107503400D01*
X149124657Y-107631971D01*
X149167514Y-107717685D01*
X149467514Y-107331971D02*
X149424657Y-107417685D01*
X149424657Y-107589114D01*
X149467514Y-107674828D01*
X149510371Y-107717685D01*
X149596085Y-107760542D01*
X149853228Y-107760542D01*
X149938942Y-107717685D01*
X149981800Y-107674828D01*
X150024657Y-107589114D01*
X150024657Y-107417685D01*
X149981800Y-107331971D01*
X149424657Y-106774828D02*
X149467514Y-106860542D01*
X149510371Y-106903400D01*
X149596085Y-106946257D01*
X149853228Y-106946257D01*
X149938942Y-106903400D01*
X149981800Y-106860542D01*
X150024657Y-106774828D01*
X150024657Y-106646257D01*
X149981800Y-106560542D01*
X149938942Y-106517685D01*
X149853228Y-106474828D01*
X149596085Y-106474828D01*
X149510371Y-106517685D01*
X149467514Y-106560542D01*
X149424657Y-106646257D01*
X149424657Y-106774828D01*
X149424657Y-105960542D02*
X149467514Y-106046257D01*
X149553228Y-106089114D01*
X150324657Y-106089114D01*
X172953771Y-97069228D02*
X172953771Y-97412085D01*
X172953771Y-97240657D02*
X173553771Y-97240657D01*
X173468057Y-97297800D01*
X173410914Y-97354942D01*
X173382342Y-97412085D01*
X173496628Y-96840657D02*
X173525200Y-96812085D01*
X173553771Y-96754942D01*
X173553771Y-96612085D01*
X173525200Y-96554942D01*
X173496628Y-96526371D01*
X173439485Y-96497800D01*
X173382342Y-96497800D01*
X173296628Y-96526371D01*
X172953771Y-96869228D01*
X172953771Y-96497800D01*
X173553771Y-96326371D02*
X172953771Y-96126371D01*
X173553771Y-95926371D01*
X157551771Y-97632657D02*
X157551771Y-97289800D01*
X156951771Y-97461228D02*
X157551771Y-97461228D01*
X156951771Y-97089800D02*
X157551771Y-97089800D01*
X157551771Y-96861228D01*
X157523200Y-96804085D01*
X157494628Y-96775514D01*
X157437485Y-96746942D01*
X157351771Y-96746942D01*
X157294628Y-96775514D01*
X157266057Y-96804085D01*
X157237485Y-96861228D01*
X157237485Y-97089800D01*
X156980342Y-96518371D02*
X156951771Y-96432657D01*
X156951771Y-96289800D01*
X156980342Y-96232657D01*
X157008914Y-96204085D01*
X157066057Y-96175514D01*
X157123200Y-96175514D01*
X157180342Y-96204085D01*
X157208914Y-96232657D01*
X157237485Y-96289800D01*
X157266057Y-96404085D01*
X157294628Y-96461228D01*
X157323200Y-96489800D01*
X157380342Y-96518371D01*
X157437485Y-96518371D01*
X157494628Y-96489800D01*
X157523200Y-96461228D01*
X157551771Y-96404085D01*
X157551771Y-96261228D01*
X157523200Y-96175514D01*
X156894628Y-96061228D02*
X156894628Y-95604085D01*
X156951771Y-95461228D02*
X157551771Y-95461228D01*
X156951771Y-95175514D02*
X157551771Y-95175514D01*
X156951771Y-94832657D01*
X157551771Y-94832657D01*
X164981342Y-97704085D02*
X164952771Y-97618371D01*
X164952771Y-97475514D01*
X164981342Y-97418371D01*
X165009914Y-97389800D01*
X165067057Y-97361228D01*
X165124200Y-97361228D01*
X165181342Y-97389800D01*
X165209914Y-97418371D01*
X165238485Y-97475514D01*
X165267057Y-97589800D01*
X165295628Y-97646942D01*
X165324200Y-97675514D01*
X165381342Y-97704085D01*
X165438485Y-97704085D01*
X165495628Y-97675514D01*
X165524200Y-97646942D01*
X165552771Y-97589800D01*
X165552771Y-97446942D01*
X165524200Y-97361228D01*
X165267057Y-96904085D02*
X165267057Y-97104085D01*
X164952771Y-97104085D02*
X165552771Y-97104085D01*
X165552771Y-96818371D01*
X164895628Y-96732657D02*
X164895628Y-96275514D01*
X165552771Y-96018371D02*
X165552771Y-95904085D01*
X165524200Y-95846942D01*
X165467057Y-95789800D01*
X165352771Y-95761228D01*
X165152771Y-95761228D01*
X165038485Y-95789800D01*
X164981342Y-95846942D01*
X164952771Y-95904085D01*
X164952771Y-96018371D01*
X164981342Y-96075514D01*
X165038485Y-96132657D01*
X165152771Y-96161228D01*
X165352771Y-96161228D01*
X165467057Y-96132657D01*
X165524200Y-96075514D01*
X165552771Y-96018371D01*
X165552771Y-95504085D02*
X165067057Y-95504085D01*
X165009914Y-95475514D01*
X164981342Y-95446942D01*
X164952771Y-95389800D01*
X164952771Y-95275514D01*
X164981342Y-95218371D01*
X165009914Y-95189800D01*
X165067057Y-95161228D01*
X165552771Y-95161228D01*
X165552771Y-94961228D02*
X165552771Y-94618371D01*
X164952771Y-94789800D02*
X165552771Y-94789800D01*
X163076342Y-97685085D02*
X163047771Y-97599371D01*
X163047771Y-97456514D01*
X163076342Y-97399371D01*
X163104914Y-97370800D01*
X163162057Y-97342228D01*
X163219200Y-97342228D01*
X163276342Y-97370800D01*
X163304914Y-97399371D01*
X163333485Y-97456514D01*
X163362057Y-97570800D01*
X163390628Y-97627942D01*
X163419200Y-97656514D01*
X163476342Y-97685085D01*
X163533485Y-97685085D01*
X163590628Y-97656514D01*
X163619200Y-97627942D01*
X163647771Y-97570800D01*
X163647771Y-97427942D01*
X163619200Y-97342228D01*
X163362057Y-96885085D02*
X163362057Y-97085085D01*
X163047771Y-97085085D02*
X163647771Y-97085085D01*
X163647771Y-96799371D01*
X162990628Y-96713657D02*
X162990628Y-96256514D01*
X163047771Y-96113657D02*
X163647771Y-96113657D01*
X163047771Y-95827942D02*
X163647771Y-95827942D01*
X163047771Y-95485085D01*
X163647771Y-95485085D01*
X159428200Y-97281942D02*
X159456771Y-97339085D01*
X159456771Y-97424800D01*
X159428200Y-97510514D01*
X159371057Y-97567657D01*
X159313914Y-97596228D01*
X159199628Y-97624800D01*
X159113914Y-97624800D01*
X158999628Y-97596228D01*
X158942485Y-97567657D01*
X158885342Y-97510514D01*
X158856771Y-97424800D01*
X158856771Y-97367657D01*
X158885342Y-97281942D01*
X158913914Y-97253371D01*
X159113914Y-97253371D01*
X159113914Y-97367657D01*
X158856771Y-96996228D02*
X159456771Y-96996228D01*
X158856771Y-96653371D01*
X159456771Y-96653371D01*
X158856771Y-96367657D02*
X159456771Y-96367657D01*
X159456771Y-96224800D01*
X159428200Y-96139085D01*
X159371057Y-96081942D01*
X159313914Y-96053371D01*
X159199628Y-96024800D01*
X159113914Y-96024800D01*
X158999628Y-96053371D01*
X158942485Y-96081942D01*
X158885342Y-96139085D01*
X158856771Y-96224800D01*
X158856771Y-96367657D01*
X171521771Y-97638942D02*
X171521771Y-97296085D01*
X170921771Y-97467514D02*
X171521771Y-97467514D01*
X170921771Y-97096085D02*
X171521771Y-97096085D01*
X171521771Y-96867514D01*
X171493200Y-96810371D01*
X171464628Y-96781800D01*
X171407485Y-96753228D01*
X171321771Y-96753228D01*
X171264628Y-96781800D01*
X171236057Y-96810371D01*
X171207485Y-96867514D01*
X171207485Y-97096085D01*
X170950342Y-96524657D02*
X170921771Y-96438942D01*
X170921771Y-96296085D01*
X170950342Y-96238942D01*
X170978914Y-96210371D01*
X171036057Y-96181800D01*
X171093200Y-96181800D01*
X171150342Y-96210371D01*
X171178914Y-96238942D01*
X171207485Y-96296085D01*
X171236057Y-96410371D01*
X171264628Y-96467514D01*
X171293200Y-96496085D01*
X171350342Y-96524657D01*
X171407485Y-96524657D01*
X171464628Y-96496085D01*
X171493200Y-96467514D01*
X171521771Y-96410371D01*
X171521771Y-96267514D01*
X171493200Y-96181800D01*
X170864628Y-96067514D02*
X170864628Y-95610371D01*
X171521771Y-95553228D02*
X171521771Y-95210371D01*
X170921771Y-95381800D02*
X171521771Y-95381800D01*
X170921771Y-94667514D02*
X171207485Y-94867514D01*
X170921771Y-95010371D02*
X171521771Y-95010371D01*
X171521771Y-94781800D01*
X171493200Y-94724657D01*
X171464628Y-94696085D01*
X171407485Y-94667514D01*
X171321771Y-94667514D01*
X171264628Y-94696085D01*
X171236057Y-94724657D01*
X171207485Y-94781800D01*
X171207485Y-95010371D01*
X170921771Y-94410371D02*
X171521771Y-94410371D01*
X171493200Y-93810371D02*
X171521771Y-93867514D01*
X171521771Y-93953228D01*
X171493200Y-94038942D01*
X171436057Y-94096085D01*
X171378914Y-94124657D01*
X171264628Y-94153228D01*
X171178914Y-94153228D01*
X171064628Y-94124657D01*
X171007485Y-94096085D01*
X170950342Y-94038942D01*
X170921771Y-93953228D01*
X170921771Y-93896085D01*
X170950342Y-93810371D01*
X170978914Y-93781800D01*
X171178914Y-93781800D01*
X171178914Y-93896085D01*
X161615771Y-97193085D02*
X161615771Y-97478800D01*
X161330057Y-97507371D01*
X161358628Y-97478800D01*
X161387200Y-97421657D01*
X161387200Y-97278800D01*
X161358628Y-97221657D01*
X161330057Y-97193085D01*
X161272914Y-97164514D01*
X161130057Y-97164514D01*
X161072914Y-97193085D01*
X161044342Y-97221657D01*
X161015771Y-97278800D01*
X161015771Y-97421657D01*
X161044342Y-97478800D01*
X161072914Y-97507371D01*
X161615771Y-96993085D02*
X161015771Y-96793085D01*
X161615771Y-96593085D01*
X167556200Y-97281942D02*
X167584771Y-97339085D01*
X167584771Y-97424800D01*
X167556200Y-97510514D01*
X167499057Y-97567657D01*
X167441914Y-97596228D01*
X167327628Y-97624800D01*
X167241914Y-97624800D01*
X167127628Y-97596228D01*
X167070485Y-97567657D01*
X167013342Y-97510514D01*
X166984771Y-97424800D01*
X166984771Y-97367657D01*
X167013342Y-97281942D01*
X167041914Y-97253371D01*
X167241914Y-97253371D01*
X167241914Y-97367657D01*
X166984771Y-96996228D02*
X167584771Y-96996228D01*
X166984771Y-96653371D01*
X167584771Y-96653371D01*
X166984771Y-96367657D02*
X167584771Y-96367657D01*
X167584771Y-96224800D01*
X167556200Y-96139085D01*
X167499057Y-96081942D01*
X167441914Y-96053371D01*
X167327628Y-96024800D01*
X167241914Y-96024800D01*
X167127628Y-96053371D01*
X167070485Y-96081942D01*
X167013342Y-96139085D01*
X166984771Y-96224800D01*
X166984771Y-96367657D01*
%TO.C,kibuzzard-6475F124*%
G36*
X153375497Y-125672453D02*
G01*
X153471938Y-125742700D01*
X153525516Y-125851841D01*
X153543375Y-125991938D01*
X153541788Y-126088775D01*
X153533850Y-126185613D01*
X152898850Y-126185613D01*
X152898850Y-126026863D01*
X152917503Y-125862556D01*
X152973463Y-125744288D01*
X153074666Y-125672850D01*
X153229050Y-125649038D01*
X153375497Y-125672453D01*
G37*
G36*
X152694063Y-128908175D02*
G01*
X152755975Y-129151063D01*
X152755975Y-129360613D01*
X152222575Y-129360613D01*
X152213050Y-129270125D01*
X152209875Y-129173288D01*
X152220988Y-129043113D01*
X152262262Y-128930400D01*
X152347988Y-128849438D01*
X152489275Y-128817688D01*
X152694063Y-128908175D01*
G37*
G36*
X153437013Y-128928813D02*
G01*
X153503688Y-128989138D01*
X153535438Y-129078038D01*
X153543375Y-129182813D01*
X153540200Y-129274888D01*
X153530675Y-129360613D01*
X153079825Y-129360613D01*
X153079825Y-129208213D01*
X153144913Y-128982788D01*
X153324300Y-128906587D01*
X153437013Y-128928813D01*
G37*
G36*
X153127450Y-124074238D02*
G01*
X153340175Y-124140913D01*
X153487813Y-124271088D01*
X153543375Y-124483813D01*
X153541788Y-124540963D01*
X153533850Y-124598113D01*
X152213050Y-124598113D01*
X152209875Y-124563188D01*
X152209875Y-124528263D01*
X152260675Y-124304425D01*
X152400375Y-124158375D01*
X152611513Y-124079000D01*
X152739703Y-124061141D01*
X152879800Y-124055188D01*
X153127450Y-124074238D01*
G37*
G36*
X154566783Y-104592014D02*
G01*
X154566783Y-130412596D01*
X151192817Y-131424786D01*
X151192817Y-129205038D01*
X151870150Y-129205038D01*
X151873722Y-129337594D01*
X151884438Y-129474913D01*
X151902297Y-129613819D01*
X151927300Y-129751138D01*
X153835475Y-129751138D01*
X153868813Y-129506663D01*
X153883100Y-129243138D01*
X153871591Y-129041525D01*
X153837063Y-128881188D01*
X153716413Y-128662113D01*
X153549725Y-128554163D01*
X153365575Y-128525588D01*
X153233813Y-128542653D01*
X153117925Y-128593850D01*
X152946475Y-128776413D01*
X152860750Y-128608534D01*
X152749625Y-128504950D01*
X152622625Y-128451372D01*
X152489275Y-128433513D01*
X152326159Y-128448594D01*
X152192413Y-128493838D01*
X152001913Y-128657350D01*
X151940794Y-128770063D01*
X151900313Y-128901825D01*
X151877691Y-129048272D01*
X151870150Y-129205038D01*
X151192817Y-129205038D01*
X151192817Y-127598488D01*
X151854275Y-127598488D01*
X151867372Y-127818356D01*
X151906663Y-127989013D01*
X152003500Y-128208088D01*
X152321000Y-128093788D01*
X152225750Y-127889000D01*
X152192413Y-127756841D01*
X152181300Y-127598488D01*
X152201938Y-127434975D01*
X152259088Y-127331788D01*
X152341638Y-127279400D01*
X152435300Y-127265113D01*
X152543250Y-127300038D01*
X152627388Y-127388938D01*
X152694063Y-127509587D01*
X152749625Y-127642938D01*
X152822650Y-127827088D01*
X152927425Y-128000125D01*
X153084588Y-128128713D01*
X153317950Y-128179513D01*
X153564013Y-128134666D01*
X153749750Y-128000125D01*
X153836181Y-127865540D01*
X153888039Y-127700969D01*
X153905325Y-127506413D01*
X153895006Y-127336947D01*
X153864050Y-127190500D01*
X153771975Y-126963488D01*
X153470350Y-127077788D01*
X153546550Y-127254000D01*
X153578300Y-127477838D01*
X153553253Y-127650699D01*
X153478111Y-127754415D01*
X153352875Y-127788988D01*
X153252863Y-127757238D01*
X153176663Y-127676275D01*
X153117925Y-127565150D01*
X153070300Y-127442913D01*
X152992513Y-127250825D01*
X152878213Y-127066675D01*
X152700413Y-126928563D01*
X152580159Y-126888081D01*
X152432125Y-126874588D01*
X152187253Y-126919434D01*
X152005088Y-127053975D01*
X151921303Y-127194204D01*
X151871032Y-127375708D01*
X151854275Y-127598488D01*
X151192817Y-127598488D01*
X151192817Y-126576138D01*
X151895550Y-126576138D01*
X153835475Y-126576138D01*
X153857700Y-126447550D01*
X153871988Y-126303088D01*
X153879925Y-126160213D01*
X153883100Y-126036388D01*
X153865990Y-125805318D01*
X153814661Y-125611643D01*
X153729113Y-125455363D01*
X153604758Y-125340710D01*
X153437013Y-125271918D01*
X153225875Y-125248988D01*
X153012621Y-125272094D01*
X152842758Y-125341415D01*
X152716288Y-125456950D01*
X152628975Y-125614818D01*
X152576588Y-125811139D01*
X152559125Y-126045913D01*
X152559125Y-126185613D01*
X151895550Y-126185613D01*
X151895550Y-126576138D01*
X151192817Y-126576138D01*
X151192817Y-124569538D01*
X151870150Y-124569538D01*
X151881263Y-124774325D01*
X151917775Y-124988638D01*
X153835475Y-124988638D01*
X153873575Y-124737813D01*
X153883100Y-124518738D01*
X153868813Y-124333397D01*
X153825950Y-124164725D01*
X153752528Y-124016691D01*
X153646563Y-123893263D01*
X153507656Y-123794441D01*
X153335413Y-123720225D01*
X153127053Y-123673791D01*
X152879800Y-123658313D01*
X152626991Y-123675378D01*
X152414663Y-123726575D01*
X152240434Y-123807934D01*
X152101925Y-123915488D01*
X151997547Y-124047647D01*
X151925713Y-124202825D01*
X151884041Y-124377847D01*
X151870150Y-124569538D01*
X151192817Y-124569538D01*
X151192817Y-121626313D01*
X152517850Y-121626313D01*
X152902025Y-121626313D01*
X152902025Y-120756363D01*
X152517850Y-120756363D01*
X152517850Y-121626313D01*
X151192817Y-121626313D01*
X151192817Y-118610063D01*
X151895550Y-118610063D01*
X153860875Y-118610063D01*
X153860875Y-117406737D01*
X153537025Y-117406737D01*
X153537025Y-118219538D01*
X153060775Y-118219538D01*
X153060775Y-117508337D01*
X152736925Y-117508337D01*
X152736925Y-118219538D01*
X151895550Y-118219538D01*
X151895550Y-118610063D01*
X151192817Y-118610063D01*
X151192817Y-116485988D01*
X151854275Y-116485988D01*
X151867372Y-116705856D01*
X151906663Y-116876513D01*
X152003500Y-117095588D01*
X152321000Y-116981288D01*
X152225750Y-116776500D01*
X152192413Y-116644341D01*
X152181300Y-116485988D01*
X152201938Y-116322475D01*
X152259088Y-116219287D01*
X152341638Y-116166900D01*
X152435300Y-116152613D01*
X152543250Y-116187538D01*
X152627388Y-116276438D01*
X152694063Y-116397088D01*
X152749625Y-116530438D01*
X152822650Y-116714587D01*
X152927425Y-116887625D01*
X153084588Y-117016212D01*
X153317950Y-117067013D01*
X153564013Y-117022166D01*
X153749750Y-116887625D01*
X153836181Y-116753040D01*
X153888039Y-116588469D01*
X153905325Y-116393913D01*
X153895006Y-116224447D01*
X153864050Y-116078000D01*
X153771975Y-115850988D01*
X153470350Y-115965287D01*
X153546550Y-116141500D01*
X153578300Y-116365337D01*
X153553253Y-116538199D01*
X153478111Y-116641915D01*
X153352875Y-116676488D01*
X153252863Y-116644738D01*
X153176663Y-116563775D01*
X153117925Y-116452650D01*
X153070300Y-116330413D01*
X152992513Y-116138325D01*
X152878213Y-115954175D01*
X152700413Y-115816062D01*
X152580159Y-115775581D01*
X152432125Y-115762087D01*
X152187253Y-115806934D01*
X152005088Y-115941475D01*
X151921303Y-116081704D01*
X151871032Y-116263208D01*
X151854275Y-116485988D01*
X151192817Y-116485988D01*
X151192817Y-114746088D01*
X151854275Y-114746088D01*
X151870547Y-114921109D01*
X151919363Y-115077875D01*
X152000325Y-115214797D01*
X152113038Y-115330287D01*
X152257500Y-115423156D01*
X152433713Y-115492213D01*
X152641278Y-115535075D01*
X152879800Y-115549363D01*
X153115941Y-115532694D01*
X153322713Y-115482687D01*
X153499322Y-115404106D01*
X153644975Y-115301713D01*
X153758878Y-115177094D01*
X153840238Y-115031837D01*
X153889053Y-114870706D01*
X153905325Y-114698463D01*
X153887863Y-114493675D01*
X153848175Y-114336512D01*
X153800550Y-114226975D01*
X153762450Y-114161888D01*
X153451300Y-114263488D01*
X153530675Y-114434937D01*
X153565600Y-114644488D01*
X153514800Y-114879437D01*
X153373513Y-115036600D01*
X153157613Y-115125500D01*
X153025453Y-115145741D01*
X152879800Y-115152488D01*
X152665488Y-115140140D01*
X152492450Y-115103099D01*
X152360687Y-115041363D01*
X152235672Y-114904044D01*
X152194000Y-114714338D01*
X152197175Y-114638137D01*
X152206700Y-114561938D01*
X152924250Y-114561938D01*
X152924250Y-114171413D01*
X151943175Y-114171413D01*
X151886025Y-114388900D01*
X151862212Y-114552016D01*
X151854275Y-114746088D01*
X151192817Y-114746088D01*
X151192817Y-112275937D01*
X151895550Y-112275937D01*
X151974925Y-112283875D01*
X152041600Y-112282288D01*
X152194000Y-112267603D01*
X152333700Y-112223550D01*
X152461891Y-112156875D01*
X152579763Y-112074325D01*
X152688506Y-111980663D01*
X152789313Y-111880650D01*
X152884166Y-111780638D01*
X152975050Y-111686975D01*
X153146500Y-111537750D01*
X153314775Y-111479013D01*
X153500513Y-111552037D01*
X153565600Y-111736187D01*
X153521150Y-111929862D01*
X153371925Y-112129887D01*
X153644975Y-112323562D01*
X153760863Y-112186641D01*
X153841825Y-112029875D01*
X153889450Y-111863584D01*
X153905325Y-111698088D01*
X153870400Y-111466312D01*
X153765625Y-111269462D01*
X153589413Y-111132937D01*
X153343350Y-111082138D01*
X153148088Y-111120238D01*
X152965525Y-111221837D01*
X152794075Y-111364713D01*
X152635325Y-111526637D01*
X152544838Y-111621887D01*
X152436888Y-111723487D01*
X152324175Y-111804450D01*
X152219400Y-111837787D01*
X152219400Y-110993238D01*
X151895550Y-110993238D01*
X151895550Y-112275937D01*
X151192817Y-112275937D01*
X151192817Y-110078838D01*
X151854275Y-110078838D01*
X151882497Y-110283449D01*
X151967164Y-110452782D01*
X152108275Y-110586838D01*
X152251944Y-110663236D01*
X152428950Y-110717806D01*
X152639294Y-110750548D01*
X152882975Y-110761462D01*
X153123878Y-110750350D01*
X153332238Y-110717013D01*
X153508053Y-110661450D01*
X153651325Y-110583663D01*
X153792436Y-110448549D01*
X153877103Y-110280274D01*
X153905325Y-110078838D01*
X153877279Y-109874226D01*
X153793142Y-109704893D01*
X153652913Y-109570837D01*
X153510137Y-109494439D01*
X153334222Y-109439869D01*
X153125168Y-109407127D01*
X152882975Y-109396212D01*
X152639294Y-109407127D01*
X152428950Y-109439869D01*
X152251944Y-109494439D01*
X152108275Y-109570837D01*
X151967164Y-109704893D01*
X151882497Y-109874226D01*
X151854275Y-110078838D01*
X151192817Y-110078838D01*
X151192817Y-109100937D01*
X151895550Y-109100937D01*
X151974925Y-109108875D01*
X152041600Y-109107288D01*
X152194000Y-109092603D01*
X152333700Y-109048550D01*
X152461891Y-108981875D01*
X152579763Y-108899325D01*
X152688506Y-108805662D01*
X152789313Y-108705650D01*
X152884166Y-108605637D01*
X152975050Y-108511975D01*
X153146500Y-108362750D01*
X153314775Y-108304012D01*
X153500513Y-108377037D01*
X153565600Y-108561187D01*
X153521150Y-108754862D01*
X153371925Y-108954887D01*
X153644975Y-109148562D01*
X153760863Y-109011641D01*
X153841825Y-108854875D01*
X153889450Y-108688584D01*
X153905325Y-108523087D01*
X153870400Y-108291312D01*
X153765625Y-108094462D01*
X153589413Y-107957937D01*
X153343350Y-107907138D01*
X153148088Y-107945238D01*
X152965525Y-108046837D01*
X152794075Y-108189712D01*
X152635325Y-108351637D01*
X152544838Y-108446887D01*
X152436888Y-108548487D01*
X152324175Y-108629450D01*
X152219400Y-108662787D01*
X152219400Y-107818237D01*
X151895550Y-107818237D01*
X151895550Y-109100937D01*
X151192817Y-109100937D01*
X151192817Y-107021312D01*
X151854275Y-107021312D01*
X151865388Y-107175300D01*
X151892375Y-107330875D01*
X151927300Y-107468987D01*
X151962225Y-107567412D01*
X152289250Y-107491212D01*
X152222575Y-107302300D01*
X152196381Y-107174903D01*
X152187650Y-107024488D01*
X152209081Y-106854228D01*
X152273375Y-106743500D01*
X152486100Y-106662537D01*
X152618259Y-106693494D01*
X152703588Y-106786362D01*
X152750022Y-106926856D01*
X152765500Y-107100687D01*
X152765500Y-107221337D01*
X153089350Y-107221337D01*
X153089350Y-107075287D01*
X153102050Y-106954637D01*
X153143325Y-106846688D01*
X153219525Y-106768900D01*
X153340175Y-106738738D01*
X153510038Y-106803825D01*
X153571950Y-106983212D01*
X153535438Y-107203875D01*
X153444950Y-107392787D01*
X153730700Y-107532488D01*
X153846588Y-107305475D01*
X153890641Y-107155059D01*
X153905325Y-106986387D01*
X153895006Y-106832003D01*
X153864050Y-106699050D01*
X153748163Y-106497437D01*
X153571950Y-106379962D01*
X153352875Y-106341863D01*
X153127450Y-106408537D01*
X152962350Y-106586337D01*
X152883769Y-106451003D01*
X152775025Y-106349800D01*
X152639294Y-106286697D01*
X152479750Y-106265662D01*
X152228925Y-106310112D01*
X152030488Y-106446638D01*
X151955875Y-106551413D01*
X151900313Y-106681587D01*
X151865784Y-106837956D01*
X151854275Y-107021312D01*
X151192817Y-107021312D01*
X151192817Y-105604204D01*
X154566783Y-104592014D01*
G37*
G36*
X152367038Y-109832775D02*
G01*
X152502681Y-109786032D01*
X152674660Y-109757986D01*
X152882975Y-109748637D01*
X153089526Y-109757986D01*
X153260447Y-109786032D01*
X153395738Y-109832775D01*
X153527897Y-109936359D01*
X153571950Y-110078838D01*
X153527897Y-110219331D01*
X153395738Y-110323313D01*
X153260447Y-110370938D01*
X153089526Y-110399513D01*
X152882975Y-110409038D01*
X152674660Y-110399513D01*
X152502681Y-110370938D01*
X152367038Y-110323313D01*
X152234878Y-110219331D01*
X152190825Y-110078838D01*
X152191807Y-110075662D01*
X152705175Y-110075662D01*
X152767088Y-110205838D01*
X152914725Y-110253462D01*
X153063950Y-110205838D01*
X153127450Y-110075662D01*
X153063950Y-109950250D01*
X152914725Y-109901038D01*
X152767088Y-109950250D01*
X152705175Y-110075662D01*
X152191807Y-110075662D01*
X152234878Y-109936359D01*
X152367038Y-109832775D01*
G37*
%TD*%
M02*
