%TF.GenerationSoftware,KiCad,Pcbnew,(6.0.8)*%
%TF.CreationDate,2023-06-01T04:28:43+02:00*%
%TF.ProjectId,BSPD-07,42535044-2d30-4372-9e6b-696361645f70,rev?*%
%TF.SameCoordinates,Original*%
%TF.FileFunction,Paste,Top*%
%TF.FilePolarity,Positive*%
%FSLAX46Y46*%
G04 Gerber Fmt 4.6, Leading zero omitted, Abs format (unit mm)*
G04 Created by KiCad (PCBNEW (6.0.8)) date 2023-06-01 04:28:43*
%MOMM*%
%LPD*%
G01*
G04 APERTURE LIST*
G04 Aperture macros list*
%AMRoundRect*
0 Rectangle with rounded corners*
0 $1 Rounding radius*
0 $2 $3 $4 $5 $6 $7 $8 $9 X,Y pos of 4 corners*
0 Add a 4 corners polygon primitive as box body*
4,1,4,$2,$3,$4,$5,$6,$7,$8,$9,$2,$3,0*
0 Add four circle primitives for the rounded corners*
1,1,$1+$1,$2,$3*
1,1,$1+$1,$4,$5*
1,1,$1+$1,$6,$7*
1,1,$1+$1,$8,$9*
0 Add four rect primitives between the rounded corners*
20,1,$1+$1,$2,$3,$4,$5,0*
20,1,$1+$1,$4,$5,$6,$7,0*
20,1,$1+$1,$6,$7,$8,$9,0*
20,1,$1+$1,$8,$9,$2,$3,0*%
G04 Aperture macros list end*
%ADD10RoundRect,0.135000X-0.185000X0.135000X-0.185000X-0.135000X0.185000X-0.135000X0.185000X0.135000X0*%
%ADD11RoundRect,0.135000X0.185000X-0.135000X0.185000X0.135000X-0.185000X0.135000X-0.185000X-0.135000X0*%
%ADD12RoundRect,0.135000X-0.135000X-0.185000X0.135000X-0.185000X0.135000X0.185000X-0.135000X0.185000X0*%
%ADD13RoundRect,0.250000X0.250000X0.475000X-0.250000X0.475000X-0.250000X-0.475000X0.250000X-0.475000X0*%
%ADD14RoundRect,0.147500X-0.172500X0.147500X-0.172500X-0.147500X0.172500X-0.147500X0.172500X0.147500X0*%
%ADD15R,1.528000X0.650000*%
%ADD16RoundRect,0.140000X0.170000X-0.140000X0.170000X0.140000X-0.170000X0.140000X-0.170000X-0.140000X0*%
%ADD17RoundRect,0.250000X0.475000X-0.250000X0.475000X0.250000X-0.475000X0.250000X-0.475000X-0.250000X0*%
%ADD18RoundRect,0.135000X0.135000X0.185000X-0.135000X0.185000X-0.135000X-0.185000X0.135000X-0.185000X0*%
%ADD19RoundRect,0.160000X0.160000X-0.222500X0.160000X0.222500X-0.160000X0.222500X-0.160000X-0.222500X0*%
%ADD20R,0.850000X0.300000*%
%ADD21R,1.700000X2.500000*%
%ADD22RoundRect,0.140000X-0.170000X0.140000X-0.170000X-0.140000X0.170000X-0.140000X0.170000X0.140000X0*%
%ADD23RoundRect,0.250000X-0.475000X0.250000X-0.475000X-0.250000X0.475000X-0.250000X0.475000X0.250000X0*%
%ADD24R,0.400000X1.050000*%
%ADD25R,1.200000X0.800000*%
%ADD26R,0.600000X1.300000*%
%ADD27R,0.500000X1.100000*%
%ADD28RoundRect,0.150000X0.150000X-0.587500X0.150000X0.587500X-0.150000X0.587500X-0.150000X-0.587500X0*%
%ADD29RoundRect,0.140000X-0.140000X-0.170000X0.140000X-0.170000X0.140000X0.170000X-0.140000X0.170000X0*%
%ADD30R,1.100000X0.500000*%
G04 APERTURE END LIST*
D10*
%TO.C,R18*%
X149349200Y-126007400D03*
X149349200Y-127027400D03*
%TD*%
D11*
%TO.C,R23*%
X176222400Y-128964800D03*
X176222400Y-127944800D03*
%TD*%
D12*
%TO.C,R15*%
X161463000Y-131724400D03*
X162483000Y-131724400D03*
%TD*%
D13*
%TO.C,C5*%
X158655800Y-128549400D03*
X156755800Y-128549400D03*
%TD*%
D14*
%TO.C,D2*%
X150676800Y-115722400D03*
X150676800Y-116692400D03*
%TD*%
D11*
%TO.C,R4*%
X161550800Y-109120400D03*
X161550800Y-108100400D03*
%TD*%
D15*
%TO.C,IC1*%
X154394800Y-105689400D03*
X154394800Y-106959400D03*
X154394800Y-108229400D03*
X154394800Y-109499400D03*
X159816800Y-109499400D03*
X159816800Y-108229400D03*
X159816800Y-106959400D03*
X159816800Y-105689400D03*
%TD*%
D16*
%TO.C,C4*%
X151990800Y-126997400D03*
X151990800Y-126037400D03*
%TD*%
D17*
%TO.C,C3*%
X164646800Y-124485400D03*
X164646800Y-122585400D03*
%TD*%
D11*
%TO.C,R5*%
X151946800Y-116740400D03*
X151946800Y-115720400D03*
%TD*%
%TO.C,R12*%
X166424800Y-123219400D03*
X166424800Y-122199400D03*
%TD*%
%TO.C,R7*%
X162868800Y-109120400D03*
X162868800Y-108100400D03*
%TD*%
D18*
%TO.C,R20*%
X154837600Y-129260600D03*
X153817600Y-129260600D03*
%TD*%
D19*
%TO.C,D4*%
X177644800Y-131795900D03*
X177644800Y-130650900D03*
%TD*%
%TO.C,D3*%
X175816000Y-131883800D03*
X175816000Y-130738800D03*
%TD*%
D11*
%TO.C,R11*%
X161598800Y-123283400D03*
X161598800Y-122263400D03*
%TD*%
D18*
%TO.C,R21*%
X154837600Y-133629400D03*
X153817600Y-133629400D03*
%TD*%
D15*
%TO.C,IC2*%
X154315800Y-113309400D03*
X154315800Y-114579400D03*
X154315800Y-115849400D03*
X154315800Y-117119400D03*
X159737800Y-117119400D03*
X159737800Y-115849400D03*
X159737800Y-114579400D03*
X159737800Y-113309400D03*
%TD*%
D20*
%TO.C,IC4*%
X174548200Y-108366600D03*
X174548200Y-107416600D03*
X174548200Y-106466600D03*
X171648200Y-106466600D03*
X171648200Y-107416600D03*
X171648200Y-108366600D03*
D21*
X173098200Y-107416600D03*
%TD*%
D22*
%TO.C,C2*%
X161548000Y-112372200D03*
X161548000Y-113332200D03*
%TD*%
D14*
%TO.C,D1*%
X150727600Y-108098000D03*
X150727600Y-109068000D03*
%TD*%
D23*
%TO.C,C6*%
X177035200Y-106466600D03*
X177035200Y-108366600D03*
%TD*%
D11*
%TO.C,R9*%
X162820800Y-105818400D03*
X162820800Y-104798400D03*
%TD*%
D24*
%TO.C,IC5*%
X165804800Y-116042400D03*
X165154800Y-116042400D03*
X164504800Y-116042400D03*
X164504800Y-117942400D03*
X165804800Y-117942400D03*
%TD*%
D15*
%TO.C,IC3*%
X159737800Y-125948400D03*
X159737800Y-124678400D03*
X159737800Y-123408400D03*
X159737800Y-122138400D03*
X154315800Y-122138400D03*
X154315800Y-123408400D03*
X154315800Y-124678400D03*
X154315800Y-125948400D03*
%TD*%
D25*
%TO.C,U2*%
X166874800Y-131495800D03*
X166874800Y-134035800D03*
X173174800Y-134035800D03*
X173174800Y-131495800D03*
%TD*%
D11*
%TO.C,R26*%
X151940000Y-122150600D03*
X151940000Y-121130600D03*
%TD*%
%TO.C,R10*%
X162894200Y-113336800D03*
X162894200Y-112316800D03*
%TD*%
D12*
%TO.C,R16*%
X161469800Y-125882400D03*
X162489800Y-125882400D03*
%TD*%
D18*
%TO.C,R14*%
X162483000Y-130327400D03*
X161463000Y-130327400D03*
%TD*%
D11*
%TO.C,R8*%
X162868800Y-116740400D03*
X162868800Y-115720400D03*
%TD*%
D23*
%TO.C,C7*%
X169161200Y-106339600D03*
X169161200Y-108239600D03*
%TD*%
D10*
%TO.C,R2*%
X152041600Y-113051400D03*
X152041600Y-114071400D03*
%TD*%
%TO.C,R19*%
X150670000Y-126032800D03*
X150670000Y-127052800D03*
%TD*%
D11*
%TO.C,R3*%
X151946800Y-109118400D03*
X151946800Y-108098400D03*
%TD*%
D10*
%TO.C,R22*%
X164995600Y-131544600D03*
X164995600Y-132564600D03*
%TD*%
%TO.C,R25*%
X150670000Y-121130600D03*
X150670000Y-122150600D03*
%TD*%
%TO.C,R1*%
X152092400Y-105685400D03*
X152092400Y-106705400D03*
%TD*%
D11*
%TO.C,R24*%
X177594000Y-128964800D03*
X177594000Y-127944800D03*
%TD*%
%TO.C,R6*%
X161598800Y-116740400D03*
X161598800Y-115720400D03*
%TD*%
D22*
%TO.C,C1*%
X161550800Y-104828400D03*
X161550800Y-105788400D03*
%TD*%
D26*
%TO.C,Q1*%
X166021800Y-126587400D03*
X165071800Y-126587400D03*
X164121800Y-126587400D03*
X164121800Y-128987400D03*
X165071800Y-128987400D03*
X166021800Y-128987400D03*
%TD*%
D27*
%TO.C,Q3*%
X151751800Y-131332400D03*
X150451800Y-131332400D03*
X151101800Y-133132400D03*
%TD*%
D28*
%TO.C,Q4*%
X175120000Y-103832900D03*
X177020000Y-103832900D03*
X176070000Y-101957900D03*
%TD*%
D11*
%TO.C,R13*%
X162868800Y-123283400D03*
X162868800Y-122263400D03*
%TD*%
D29*
%TO.C,C8*%
X153847600Y-127990600D03*
X154807600Y-127990600D03*
%TD*%
D12*
%TO.C,R17*%
X161463000Y-127279400D03*
X162483000Y-127279400D03*
%TD*%
D30*
%TO.C,Q2*%
X154138800Y-130795000D03*
X154138800Y-132095000D03*
X155938800Y-131445000D03*
%TD*%
M02*
