%TF.GenerationSoftware,KiCad,Pcbnew,(6.0.8)*%
%TF.CreationDate,2024-05-22T19:13:14+02:00*%
%TF.ProjectId,BSPD-07,42535044-2d30-4372-9e6b-696361645f70,rev?*%
%TF.SameCoordinates,Original*%
%TF.FileFunction,Soldermask,Bot*%
%TF.FilePolarity,Negative*%
%FSLAX46Y46*%
G04 Gerber Fmt 4.6, Leading zero omitted, Abs format (unit mm)*
G04 Created by KiCad (PCBNEW (6.0.8)) date 2024-05-22 19:13:14*
%MOMM*%
%LPD*%
G01*
G04 APERTURE LIST*
G04 Aperture macros list*
%AMRoundRect*
0 Rectangle with rounded corners*
0 $1 Rounding radius*
0 $2 $3 $4 $5 $6 $7 $8 $9 X,Y pos of 4 corners*
0 Add a 4 corners polygon primitive as box body*
4,1,4,$2,$3,$4,$5,$6,$7,$8,$9,$2,$3,0*
0 Add four circle primitives for the rounded corners*
1,1,$1+$1,$2,$3*
1,1,$1+$1,$4,$5*
1,1,$1+$1,$6,$7*
1,1,$1+$1,$8,$9*
0 Add four rect primitives between the rounded corners*
20,1,$1+$1,$2,$3,$4,$5,0*
20,1,$1+$1,$4,$5,$6,$7,0*
20,1,$1+$1,$6,$7,$8,$9,0*
20,1,$1+$1,$8,$9,$2,$3,0*%
G04 Aperture macros list end*
%ADD10C,1.269000*%
%ADD11R,1.700000X1.700000*%
%ADD12O,1.700000X1.700000*%
%ADD13C,1.965000*%
%ADD14C,4.665000*%
%ADD15RoundRect,0.250000X0.650000X-0.325000X0.650000X0.325000X-0.650000X0.325000X-0.650000X-0.325000X0*%
%ADD16RoundRect,0.250000X-0.650000X0.325000X-0.650000X-0.325000X0.650000X-0.325000X0.650000X0.325000X0*%
%ADD17RoundRect,0.140000X-0.140000X-0.170000X0.140000X-0.170000X0.140000X0.170000X-0.140000X0.170000X0*%
%ADD18RoundRect,0.250000X0.325000X0.650000X-0.325000X0.650000X-0.325000X-0.650000X0.325000X-0.650000X0*%
%ADD19RoundRect,0.243750X-0.243750X-0.456250X0.243750X-0.456250X0.243750X0.456250X-0.243750X0.456250X0*%
%ADD20RoundRect,0.140000X0.140000X0.170000X-0.140000X0.170000X-0.140000X-0.170000X0.140000X-0.170000X0*%
%ADD21RoundRect,0.150000X0.587500X0.150000X-0.587500X0.150000X-0.587500X-0.150000X0.587500X-0.150000X0*%
G04 APERTURE END LIST*
D10*
%TO.C,RV1*%
X170561000Y-113715800D03*
X173101000Y-113715800D03*
X175641000Y-113715800D03*
%TD*%
%TO.C,RV2*%
X170561000Y-121500500D03*
X173101000Y-121500500D03*
X175641000Y-121500500D03*
%TD*%
D11*
%TO.C,JP1*%
X175382000Y-132842000D03*
D12*
X177922000Y-132842000D03*
%TD*%
D13*
%TO.C,J1*%
X174403800Y-98196400D03*
X170213800Y-98196400D03*
X166023800Y-98196400D03*
X161833800Y-98196400D03*
X157643800Y-98196400D03*
X153453800Y-98196400D03*
X153453800Y-91846400D03*
X157643800Y-91846400D03*
X161833800Y-91846400D03*
X166023800Y-91846400D03*
X170213800Y-91846400D03*
X174403800Y-91846400D03*
D14*
X172813800Y-85496400D03*
X155033800Y-85496400D03*
%TD*%
D15*
%TO.C,C15*%
X162001200Y-133961400D03*
X162001200Y-131011400D03*
%TD*%
%TO.C,C16*%
X164490400Y-133961400D03*
X164490400Y-131011400D03*
%TD*%
D16*
%TO.C,C20*%
X172796200Y-102360200D03*
X172796200Y-105310200D03*
%TD*%
D17*
%TO.C,C21*%
X178158200Y-100939600D03*
X179118200Y-100939600D03*
%TD*%
D18*
%TO.C,C14*%
X165000200Y-128219200D03*
X162050200Y-128219200D03*
%TD*%
D16*
%TO.C,C19*%
X175463200Y-102360200D03*
X175463200Y-105310200D03*
%TD*%
D15*
%TO.C,C12*%
X157000000Y-133975000D03*
X157000000Y-131025000D03*
%TD*%
%TO.C,C13*%
X159500000Y-133975000D03*
X159500000Y-131025000D03*
%TD*%
D16*
%TO.C,C17*%
X170129200Y-102360200D03*
X170129200Y-105310200D03*
%TD*%
D19*
%TO.C,F1*%
X173710600Y-94589600D03*
X175585600Y-94589600D03*
%TD*%
D20*
%TO.C,C22*%
X176425800Y-100939600D03*
X175465800Y-100939600D03*
%TD*%
D19*
%TO.C,FB1*%
X176481500Y-99263200D03*
X178356500Y-99263200D03*
%TD*%
D21*
%TO.C,Q4*%
X178483500Y-95341400D03*
X178483500Y-97241400D03*
X176608500Y-96291400D03*
%TD*%
D16*
%TO.C,C18*%
X178130200Y-102360200D03*
X178130200Y-105310200D03*
%TD*%
M02*
