%TF.GenerationSoftware,KiCad,Pcbnew,(6.0.8)*%
%TF.CreationDate,2024-05-22T19:13:13+02:00*%
%TF.ProjectId,BSPD-07,42535044-2d30-4372-9e6b-696361645f70,rev?*%
%TF.SameCoordinates,Original*%
%TF.FileFunction,Copper,L1,Top*%
%TF.FilePolarity,Positive*%
%FSLAX46Y46*%
G04 Gerber Fmt 4.6, Leading zero omitted, Abs format (unit mm)*
G04 Created by KiCad (PCBNEW (6.0.8)) date 2024-05-22 19:13:13*
%MOMM*%
%LPD*%
G01*
G04 APERTURE LIST*
G04 Aperture macros list*
%AMRoundRect*
0 Rectangle with rounded corners*
0 $1 Rounding radius*
0 $2 $3 $4 $5 $6 $7 $8 $9 X,Y pos of 4 corners*
0 Add a 4 corners polygon primitive as box body*
4,1,4,$2,$3,$4,$5,$6,$7,$8,$9,$2,$3,0*
0 Add four circle primitives for the rounded corners*
1,1,$1+$1,$2,$3*
1,1,$1+$1,$4,$5*
1,1,$1+$1,$6,$7*
1,1,$1+$1,$8,$9*
0 Add four rect primitives between the rounded corners*
20,1,$1+$1,$2,$3,$4,$5,0*
20,1,$1+$1,$4,$5,$6,$7,0*
20,1,$1+$1,$6,$7,$8,$9,0*
20,1,$1+$1,$8,$9,$2,$3,0*%
G04 Aperture macros list end*
%TA.AperFunction,SMDPad,CuDef*%
%ADD10C,1.000000*%
%TD*%
%TA.AperFunction,SMDPad,CuDef*%
%ADD11RoundRect,0.135000X-0.185000X0.135000X-0.185000X-0.135000X0.185000X-0.135000X0.185000X0.135000X0*%
%TD*%
%TA.AperFunction,SMDPad,CuDef*%
%ADD12RoundRect,0.135000X0.185000X-0.135000X0.185000X0.135000X-0.185000X0.135000X-0.185000X-0.135000X0*%
%TD*%
%TA.AperFunction,SMDPad,CuDef*%
%ADD13RoundRect,0.250000X0.650000X-0.325000X0.650000X0.325000X-0.650000X0.325000X-0.650000X-0.325000X0*%
%TD*%
%TA.AperFunction,SMDPad,CuDef*%
%ADD14RoundRect,0.147500X-0.172500X0.147500X-0.172500X-0.147500X0.172500X-0.147500X0.172500X0.147500X0*%
%TD*%
%TA.AperFunction,ComponentPad*%
%ADD15C,1.269000*%
%TD*%
%TA.AperFunction,SMDPad,CuDef*%
%ADD16R,1.528000X0.650000*%
%TD*%
%TA.AperFunction,SMDPad,CuDef*%
%ADD17RoundRect,0.140000X0.140000X0.170000X-0.140000X0.170000X-0.140000X-0.170000X0.140000X-0.170000X0*%
%TD*%
%TA.AperFunction,SMDPad,CuDef*%
%ADD18RoundRect,0.250000X-0.250000X-0.475000X0.250000X-0.475000X0.250000X0.475000X-0.250000X0.475000X0*%
%TD*%
%TA.AperFunction,SMDPad,CuDef*%
%ADD19RoundRect,0.160000X0.160000X-0.222500X0.160000X0.222500X-0.160000X0.222500X-0.160000X-0.222500X0*%
%TD*%
%TA.AperFunction,SMDPad,CuDef*%
%ADD20RoundRect,0.140000X0.170000X-0.140000X0.170000X0.140000X-0.170000X0.140000X-0.170000X-0.140000X0*%
%TD*%
%TA.AperFunction,SMDPad,CuDef*%
%ADD21RoundRect,0.135000X0.135000X0.185000X-0.135000X0.185000X-0.135000X-0.185000X0.135000X-0.185000X0*%
%TD*%
%TA.AperFunction,SMDPad,CuDef*%
%ADD22R,0.850000X0.300000*%
%TD*%
%TA.AperFunction,SMDPad,CuDef*%
%ADD23R,1.700000X2.500000*%
%TD*%
%TA.AperFunction,SMDPad,CuDef*%
%ADD24RoundRect,0.140000X-0.170000X0.140000X-0.170000X-0.140000X0.170000X-0.140000X0.170000X0.140000X0*%
%TD*%
%TA.AperFunction,SMDPad,CuDef*%
%ADD25R,2.500000X1.800000*%
%TD*%
%TA.AperFunction,SMDPad,CuDef*%
%ADD26R,0.600000X0.450000*%
%TD*%
%TA.AperFunction,SMDPad,CuDef*%
%ADD27R,0.400000X1.050000*%
%TD*%
%TA.AperFunction,SMDPad,CuDef*%
%ADD28RoundRect,0.250000X1.450000X-0.312500X1.450000X0.312500X-1.450000X0.312500X-1.450000X-0.312500X0*%
%TD*%
%TA.AperFunction,SMDPad,CuDef*%
%ADD29R,0.800000X1.200000*%
%TD*%
%TA.AperFunction,SMDPad,CuDef*%
%ADD30RoundRect,0.250000X0.250000X0.475000X-0.250000X0.475000X-0.250000X-0.475000X0.250000X-0.475000X0*%
%TD*%
%TA.AperFunction,ComponentPad*%
%ADD31R,1.700000X1.700000*%
%TD*%
%TA.AperFunction,ComponentPad*%
%ADD32O,1.700000X1.700000*%
%TD*%
%TA.AperFunction,SMDPad,CuDef*%
%ADD33R,0.600000X1.300000*%
%TD*%
%TA.AperFunction,SMDPad,CuDef*%
%ADD34R,0.500000X1.100000*%
%TD*%
%TA.AperFunction,ComponentPad*%
%ADD35C,1.965000*%
%TD*%
%TA.AperFunction,ComponentPad*%
%ADD36C,4.665000*%
%TD*%
%TA.AperFunction,ViaPad*%
%ADD37C,0.600000*%
%TD*%
%TA.AperFunction,ViaPad*%
%ADD38C,0.800000*%
%TD*%
%TA.AperFunction,Conductor*%
%ADD39C,0.254000*%
%TD*%
%TA.AperFunction,Conductor*%
%ADD40C,0.300000*%
%TD*%
%TA.AperFunction,Conductor*%
%ADD41C,0.800000*%
%TD*%
%TA.AperFunction,Conductor*%
%ADD42C,0.600000*%
%TD*%
%TA.AperFunction,Conductor*%
%ADD43C,0.200000*%
%TD*%
G04 APERTURE END LIST*
D10*
%TO.P,TP2,1,1*%
%TO.N,BRAKE_COMP_OUT*%
X164642800Y-113588800D03*
%TD*%
D11*
%TO.P,R18,1*%
%TO.N,GND*%
X152095200Y-120103900D03*
%TO.P,R18,2*%
%TO.N,Net-(IC6-Pad3)*%
X152095200Y-121123900D03*
%TD*%
D12*
%TO.P,R23,1*%
%TO.N,Net-(D3-Pad2)*%
X176911000Y-127193500D03*
%TO.P,R23,2*%
%TO.N,+5V*%
X176911000Y-126173500D03*
%TD*%
%TO.P,R15,1*%
%TO.N,/10ms VAL*%
X152349200Y-128016000D03*
%TO.P,R15,2*%
%TO.N,GND*%
X152349200Y-126996000D03*
%TD*%
D13*
%TO.P,C5,1*%
%TO.N,+5V*%
X151150000Y-132415000D03*
%TO.P,C5,2*%
%TO.N,/10ms VAL*%
X151150000Y-129465000D03*
%TD*%
D14*
%TO.P,D2,1,A1*%
%TO.N,BRAKE_IN*%
X150977600Y-114627800D03*
%TO.P,D2,2,A2*%
%TO.N,GND*%
X150977600Y-115597800D03*
%TD*%
D11*
%TO.P,R31,1*%
%TO.N,TPS_IN_NF*%
X153212800Y-103172800D03*
%TO.P,R31,2*%
%TO.N,TPS_IN*%
X153212800Y-104192800D03*
%TD*%
D12*
%TO.P,R4,1*%
%TO.N,GND*%
X161550800Y-109120400D03*
%TO.P,R4,2*%
%TO.N,Net-(IC1-Pad6)*%
X161550800Y-108100400D03*
%TD*%
D15*
%TO.P,RV1,1,1*%
%TO.N,unconnected-(RV1-Pad1)*%
X170561000Y-113715800D03*
%TO.P,RV1,2,2*%
%TO.N,+5V*%
X173101000Y-113715800D03*
%TO.P,RV1,3,3*%
%TO.N,TPS_TRIG*%
X175641000Y-113715800D03*
%TD*%
D11*
%TO.P,R30,1*%
%TO.N,GND*%
X161544000Y-121664000D03*
%TO.P,R30,2*%
%TO.N,Net-(IC6-Pad5)*%
X161544000Y-122684000D03*
%TD*%
D16*
%TO.P,IC1,1,OUT1*%
%TO.N,TPS_COMP_OUT*%
X154394800Y-105689400D03*
%TO.P,IC1,2,IN1-*%
%TO.N,TPS_IN*%
X154394800Y-106959400D03*
%TO.P,IC1,3,IN1+*%
%TO.N,TPS_TRIG*%
X154394800Y-108229400D03*
%TO.P,IC1,4,GND*%
%TO.N,GND*%
X154394800Y-109499400D03*
%TO.P,IC1,5,IN2+*%
%TO.N,TPS_IN*%
X159816800Y-109499400D03*
%TO.P,IC1,6,IN2-*%
%TO.N,Net-(IC1-Pad6)*%
X159816800Y-108229400D03*
%TO.P,IC1,7,OUT2*%
%TO.N,ERR_FINAL*%
X159816800Y-106959400D03*
%TO.P,IC1,8,V+*%
%TO.N,+5V*%
X159816800Y-105689400D03*
%TD*%
D17*
%TO.P,C4,1*%
%TO.N,GND*%
X154658000Y-130937000D03*
%TO.P,C4,2*%
%TO.N,+5V*%
X153698000Y-130937000D03*
%TD*%
D18*
%TO.P,C3,1*%
%TO.N,Net-(C14-Pad2)*%
X161991000Y-128270000D03*
%TO.P,C3,2*%
%TO.N,GND*%
X163891000Y-128270000D03*
%TD*%
D12*
%TO.P,R29,1*%
%TO.N,Net-(IC6-Pad5)*%
X162864800Y-122684000D03*
%TO.P,R29,2*%
%TO.N,+5V*%
X162864800Y-121664000D03*
%TD*%
%TO.P,R5,1*%
%TO.N,GND*%
X152203600Y-115584700D03*
%TO.P,R5,2*%
%TO.N,BRAKE_TRIG*%
X152203600Y-114564700D03*
%TD*%
%TO.P,R12,1*%
%TO.N,Net-(C14-Pad2)*%
X164211000Y-126494000D03*
%TO.P,R12,2*%
%TO.N,ERR_CURRENT*%
X164211000Y-125474000D03*
%TD*%
%TO.P,R7,1*%
%TO.N,Net-(IC1-Pad6)*%
X162868800Y-109120400D03*
%TO.P,R7,2*%
%TO.N,+5V*%
X162868800Y-108100400D03*
%TD*%
%TO.P,R20,1*%
%TO.N,Net-(C8-Pad2)*%
X152806400Y-134751600D03*
%TO.P,R20,2*%
%TO.N,GND*%
X152806400Y-133731600D03*
%TD*%
D19*
%TO.P,D4,1,K*%
%TO.N,INFO_LED*%
X174625000Y-129604500D03*
%TO.P,D4,2,A*%
%TO.N,Net-(D4-Pad2)*%
X174625000Y-128459500D03*
%TD*%
%TO.P,D3,1,K*%
%TO.N,GND*%
X176911000Y-129604500D03*
%TO.P,D3,2,A*%
%TO.N,Net-(D3-Pad2)*%
X176911000Y-128459500D03*
%TD*%
D12*
%TO.P,R11,1*%
%TO.N,/500MS_REF*%
X161598800Y-126492000D03*
%TO.P,R11,2*%
%TO.N,GND*%
X161598800Y-125472000D03*
%TD*%
D20*
%TO.P,C11,1*%
%TO.N,BRAKE_IN*%
X152247600Y-113052800D03*
%TO.P,C11,2*%
%TO.N,GND*%
X152247600Y-112092800D03*
%TD*%
D21*
%TO.P,R21,1*%
%TO.N,GND*%
X159387000Y-134747000D03*
%TO.P,R21,2*%
%TO.N,Net-(Q2-Pad2)*%
X158367000Y-134747000D03*
%TD*%
D16*
%TO.P,IC2,1,OUT1*%
%TO.N,BRAKE_COMP_OUT*%
X154311800Y-112189800D03*
%TO.P,IC2,2,IN1-*%
%TO.N,BRAKE_IN*%
X154311800Y-113459800D03*
%TO.P,IC2,3,IN1+*%
%TO.N,BRAKE_TRIG*%
X154311800Y-114729800D03*
%TO.P,IC2,4,GND*%
%TO.N,GND*%
X154311800Y-115999800D03*
%TO.P,IC2,5,IN2+*%
%TO.N,BRAKE_IN*%
X159733800Y-115999800D03*
%TO.P,IC2,6,IN2-*%
%TO.N,Net-(IC2-Pad6)*%
X159733800Y-114729800D03*
%TO.P,IC2,7,OUT2*%
%TO.N,ERR_FINAL*%
X159733800Y-113459800D03*
%TO.P,IC2,8,V+*%
%TO.N,+5V*%
X159733800Y-112189800D03*
%TD*%
D22*
%TO.P,IC4,1,GND_1*%
%TO.N,GND*%
X174601800Y-108712000D03*
%TO.P,IC4,2,EN*%
%TO.N,/LDO_VIN*%
X174601800Y-107762000D03*
%TO.P,IC4,3,VIN*%
X174601800Y-106812000D03*
%TO.P,IC4,4,VOUT*%
%TO.N,+5V*%
X171701800Y-106812000D03*
%TO.P,IC4,5,VSENSE*%
X171701800Y-107762000D03*
%TO.P,IC4,6,ADJ*%
%TO.N,unconnected-(IC4-Pad6)*%
X171701800Y-108712000D03*
D23*
%TO.P,IC4,7,GND_2*%
%TO.N,GND*%
X173151800Y-107762000D03*
%TD*%
D24*
%TO.P,C2,1*%
%TO.N,GND*%
X161544000Y-111252600D03*
%TO.P,C2,2*%
%TO.N,+5V*%
X161544000Y-112212600D03*
%TD*%
D14*
%TO.P,D1,1,A1*%
%TO.N,TPS_IN*%
X150981600Y-108098000D03*
%TO.P,D1,2,A2*%
%TO.N,GND*%
X150981600Y-109068000D03*
%TD*%
D25*
%TO.P,D5,1,A1*%
%TO.N,GND*%
X169704000Y-102235000D03*
%TO.P,D5,2,A2*%
%TO.N,+12V*%
X173704000Y-102235000D03*
%TD*%
D18*
%TO.P,C6,1*%
%TO.N,/LDO_VIN*%
X176357200Y-108305600D03*
%TO.P,C6,2*%
%TO.N,GND*%
X178257200Y-108305600D03*
%TD*%
D26*
%TO.P,D6,1,K*%
%TO.N,/LDO_VIN*%
X174120000Y-104990000D03*
%TO.P,D6,2,A*%
%TO.N,+5V*%
X172020000Y-104990000D03*
%TD*%
D12*
%TO.P,R9,1*%
%TO.N,TPS_COMP_OUT*%
X162820800Y-105818400D03*
%TO.P,R9,2*%
%TO.N,+5V*%
X162820800Y-104798400D03*
%TD*%
D27*
%TO.P,IC5,1,B*%
%TO.N,TPS_COMP_OUT*%
X165804800Y-116042400D03*
%TO.P,IC5,2,A*%
%TO.N,BRAKE_COMP_OUT*%
X165154800Y-116042400D03*
%TO.P,IC5,3,GND*%
%TO.N,GND*%
X164504800Y-116042400D03*
%TO.P,IC5,4,Y*%
%TO.N,ERR_CURRENT*%
X164504800Y-117942400D03*
%TO.P,IC5,5,VCC*%
%TO.N,+5V*%
X165804800Y-117942400D03*
%TD*%
D28*
%TO.P,L1,1*%
%TO.N,/LDO_VIN*%
X177444400Y-105769500D03*
%TO.P,L1,2*%
%TO.N,Net-(C21-Pad1)*%
X177444400Y-101494500D03*
%TD*%
D16*
%TO.P,IC6,1,OUT1*%
%TO.N,ERR_FINAL*%
X154286400Y-118795800D03*
%TO.P,IC6,2,IN1-*%
%TO.N,BRAKE_IN*%
X154286400Y-120065800D03*
%TO.P,IC6,3,IN1+*%
%TO.N,Net-(IC6-Pad3)*%
X154286400Y-121335800D03*
%TO.P,IC6,4,GND*%
%TO.N,GND*%
X154286400Y-122605800D03*
%TO.P,IC6,5,IN2+*%
%TO.N,Net-(IC6-Pad5)*%
X159708400Y-122605800D03*
%TO.P,IC6,6,IN2-*%
%TO.N,TPS_IN*%
X159708400Y-121335800D03*
%TO.P,IC6,7,OUT2*%
%TO.N,ERR_FINAL*%
X159708400Y-120065800D03*
%TO.P,IC6,8,V+*%
%TO.N,+5V*%
X159708400Y-118795800D03*
%TD*%
D11*
%TO.P,R32,1*%
%TO.N,BRAKE_IN_NF*%
X154787600Y-102461600D03*
%TO.P,R32,2*%
%TO.N,BRAKE_IN*%
X154787600Y-103481600D03*
%TD*%
D16*
%TO.P,IC3,1,OUT1*%
%TO.N,Net-(IC3-Pad1)*%
X159708400Y-129157000D03*
%TO.P,IC3,2,IN1-*%
%TO.N,Net-(C14-Pad2)*%
X159708400Y-127887000D03*
%TO.P,IC3,3,IN1+*%
%TO.N,/500MS_REF*%
X159708400Y-126617000D03*
%TO.P,IC3,4,GND*%
%TO.N,GND*%
X159708400Y-125347000D03*
%TO.P,IC3,5,IN2+*%
%TO.N,/10s REF*%
X154286400Y-125347000D03*
%TO.P,IC3,6,IN2-*%
%TO.N,/10ms VAL*%
X154286400Y-126617000D03*
%TO.P,IC3,7,OUT2*%
%TO.N,ERR_FINAL*%
X154286400Y-127887000D03*
%TO.P,IC3,8,V+*%
%TO.N,+5V*%
X154286400Y-129157000D03*
%TD*%
D10*
%TO.P,TP1,1,1*%
%TO.N,TPS_COMP_OUT*%
X164515800Y-108356400D03*
%TD*%
D29*
%TO.P,U2,1*%
%TO.N,Net-(R22-Pad1)*%
X170180000Y-132944000D03*
%TO.P,U2,3*%
%TO.N,INFO_LED*%
X172720000Y-132944000D03*
%TO.P,U2,4*%
%TO.N,SAFETY_OUT*%
X172720000Y-126644000D03*
%TO.P,U2,6*%
%TO.N,SAFETY_IN*%
X170180000Y-126644000D03*
%TD*%
D12*
%TO.P,R26,1*%
%TO.N,/10s REF*%
X152349200Y-125434000D03*
%TO.P,R26,2*%
%TO.N,GND*%
X152349200Y-124414000D03*
%TD*%
%TO.P,R10,1*%
%TO.N,BRAKE_COMP_OUT*%
X162890200Y-112217200D03*
%TO.P,R10,2*%
%TO.N,+5V*%
X162890200Y-111197200D03*
%TD*%
%TO.P,R27,1*%
%TO.N,Net-(IC6-Pad3)*%
X150977600Y-121109200D03*
%TO.P,R27,2*%
%TO.N,+5V*%
X150977600Y-120089200D03*
%TD*%
D15*
%TO.P,RV2,1,1*%
%TO.N,unconnected-(RV2-Pad1)*%
X170561000Y-121500500D03*
%TO.P,RV2,2,2*%
%TO.N,+5V*%
X173101000Y-121500500D03*
%TO.P,RV2,3,3*%
%TO.N,BRAKE_TRIG*%
X175641000Y-121500500D03*
%TD*%
D11*
%TO.P,R16,1*%
%TO.N,Net-(IC3-Pad1)*%
X159766000Y-130808000D03*
%TO.P,R16,2*%
%TO.N,Net-(Q1-Pad3)*%
X159766000Y-131828000D03*
%TD*%
D10*
%TO.P,TP3,1,1*%
%TO.N,ERR_FINAL*%
X165989000Y-125349000D03*
%TD*%
D21*
%TO.P,R14,1*%
%TO.N,Net-(Q1-Pad1)*%
X159387000Y-133350000D03*
%TO.P,R14,2*%
%TO.N,/10ms VAL*%
X158367000Y-133350000D03*
%TD*%
D12*
%TO.P,R8,1*%
%TO.N,Net-(IC2-Pad6)*%
X162864800Y-115620800D03*
%TO.P,R8,2*%
%TO.N,+5V*%
X162864800Y-114600800D03*
%TD*%
D30*
%TO.P,C7,1*%
%TO.N,+5V*%
X170063200Y-108407200D03*
%TO.P,C7,2*%
%TO.N,GND*%
X168163200Y-108407200D03*
%TD*%
D11*
%TO.P,R28,1*%
%TO.N,ERR_FINAL*%
X167259000Y-128776000D03*
%TO.P,R28,2*%
%TO.N,Net-(Q3-Pad1)*%
X167259000Y-129796000D03*
%TD*%
%TO.P,R2,1*%
%TO.N,GND*%
X150977600Y-112062800D03*
%TO.P,R2,2*%
%TO.N,BRAKE_IN*%
X150977600Y-113082800D03*
%TD*%
D12*
%TO.P,R19,1*%
%TO.N,ERR_FINAL*%
X165989000Y-129796000D03*
%TO.P,R19,2*%
%TO.N,+5V*%
X165989000Y-128776000D03*
%TD*%
%TO.P,R3,1*%
%TO.N,GND*%
X152200800Y-109118400D03*
%TO.P,R3,2*%
%TO.N,TPS_TRIG*%
X152200800Y-108098400D03*
%TD*%
%TO.P,R22,1*%
%TO.N,Net-(R22-Pad1)*%
X168529000Y-129796000D03*
%TO.P,R22,2*%
%TO.N,+5V*%
X168529000Y-128776000D03*
%TD*%
D31*
%TO.P,JP1,1,A*%
%TO.N,SAFETY_IN*%
X175382000Y-132842000D03*
D32*
%TO.P,JP1,2,B*%
%TO.N,SAFETY_OUT*%
X177922000Y-132842000D03*
%TD*%
D11*
%TO.P,R25,1*%
%TO.N,+5V*%
X151079200Y-124414000D03*
%TO.P,R25,2*%
%TO.N,/10s REF*%
X151079200Y-125434000D03*
%TD*%
%TO.P,R1,1*%
%TO.N,GND*%
X151028400Y-105611200D03*
%TO.P,R1,2*%
%TO.N,TPS_IN*%
X151028400Y-106631200D03*
%TD*%
D10*
%TO.P,TP4,1,1*%
%TO.N,ERR_CURRENT*%
X164719000Y-122428000D03*
%TD*%
D12*
%TO.P,R24,1*%
%TO.N,Net-(D4-Pad2)*%
X174650400Y-127101600D03*
%TO.P,R24,2*%
%TO.N,+5V*%
X174650400Y-126081600D03*
%TD*%
%TO.P,R6,1*%
%TO.N,GND*%
X161594800Y-115620800D03*
%TO.P,R6,2*%
%TO.N,Net-(IC2-Pad6)*%
X161594800Y-114600800D03*
%TD*%
D24*
%TO.P,C1,1*%
%TO.N,GND*%
X161550800Y-104828400D03*
%TO.P,C1,2*%
%TO.N,+5V*%
X161550800Y-105788400D03*
%TD*%
D33*
%TO.P,Q1,1,DRAIN_1*%
%TO.N,Net-(Q1-Pad1)*%
X163764000Y-131134000D03*
%TO.P,Q1,2,DRAIN_2*%
X162814000Y-131134000D03*
%TO.P,Q1,3,GATE*%
%TO.N,Net-(Q1-Pad3)*%
X161864000Y-131134000D03*
%TO.P,Q1,4,SOURCE*%
%TO.N,+5V*%
X161864000Y-133534000D03*
%TO.P,Q1,5,DRAIN_3*%
%TO.N,Net-(Q1-Pad1)*%
X162814000Y-133534000D03*
%TO.P,Q1,6,DRAIN_4*%
X163764000Y-133534000D03*
%TD*%
D34*
%TO.P,Q3,1*%
%TO.N,Net-(Q3-Pad1)*%
X167274000Y-131815000D03*
%TO.P,Q3,2*%
%TO.N,GND*%
X165974000Y-131815000D03*
%TO.P,Q3,3*%
%TO.N,INFO_LED*%
X166624000Y-133615000D03*
%TD*%
D12*
%TO.P,R13,1*%
%TO.N,/500MS_REF*%
X162868800Y-126492000D03*
%TO.P,R13,2*%
%TO.N,+5V*%
X162868800Y-125472000D03*
%TD*%
D24*
%TO.P,C8,1*%
%TO.N,+5V*%
X154127200Y-133761600D03*
%TO.P,C8,2*%
%TO.N,Net-(C8-Pad2)*%
X154127200Y-134721600D03*
%TD*%
D11*
%TO.P,R17,1*%
%TO.N,Net-(IC3-Pad1)*%
X158369000Y-130801200D03*
%TO.P,R17,2*%
%TO.N,+5V*%
X158369000Y-131821200D03*
%TD*%
D34*
%TO.P,Q2,1*%
%TO.N,Net-(C8-Pad2)*%
X155610800Y-134416800D03*
%TO.P,Q2,2*%
%TO.N,Net-(Q2-Pad2)*%
X156910800Y-134416800D03*
%TO.P,Q2,3*%
%TO.N,/10ms VAL*%
X156260800Y-132616800D03*
%TD*%
D20*
%TO.P,C10,1*%
%TO.N,TPS_IN*%
X152298400Y-106601200D03*
%TO.P,C10,2*%
%TO.N,GND*%
X152298400Y-105641200D03*
%TD*%
D24*
%TO.P,C9,1*%
%TO.N,GND*%
X161544000Y-118011000D03*
%TO.P,C9,2*%
%TO.N,+5V*%
X161544000Y-118971000D03*
%TD*%
D35*
%TO.P,J1,1,1*%
%TO.N,+12V*%
X174403800Y-98196400D03*
%TO.P,J1,2,2*%
%TO.N,GND*%
X170213800Y-98196400D03*
%TO.P,J1,3,3*%
%TO.N,SAFETY_OUT*%
X166023800Y-98196400D03*
%TO.P,J1,4,4*%
%TO.N,unconnected-(J1-Pad4)*%
X161833800Y-98196400D03*
%TO.P,J1,5,5*%
%TO.N,+5V*%
X157643800Y-98196400D03*
%TO.P,J1,6,6*%
%TO.N,TPS_IN_NF*%
X153453800Y-98196400D03*
%TO.P,J1,7,7*%
%TO.N,BRAKE_IN_NF*%
X153453800Y-91846400D03*
%TO.P,J1,8,8*%
%TO.N,unconnected-(J1-Pad8)*%
X157643800Y-91846400D03*
%TO.P,J1,9,9*%
%TO.N,unconnected-(J1-Pad9)*%
X161833800Y-91846400D03*
%TO.P,J1,10,10*%
%TO.N,SAFETY_IN*%
X166023800Y-91846400D03*
%TO.P,J1,11,11*%
%TO.N,BRAKE_TRIG*%
X170213800Y-91846400D03*
%TO.P,J1,12,12*%
%TO.N,TPS_TRIG*%
X174403800Y-91846400D03*
D36*
%TO.P,J1,MH1,MH1*%
%TO.N,unconnected-(J1-PadMH1)*%
X172813800Y-85496400D03*
%TO.P,J1,MH2,MH2*%
%TO.N,unconnected-(J1-PadMH2)*%
X155033800Y-85496400D03*
%TD*%
D37*
%TO.N,TPS_COMP_OUT*%
X161080302Y-106654600D03*
X158546800Y-106603800D03*
%TO.N,TPS_IN*%
X156527500Y-107759500D03*
X158496000Y-121158000D03*
%TO.N,GND*%
X154022800Y-110388400D03*
X153286200Y-110388400D03*
X160401000Y-124510800D03*
X173151800Y-107736600D03*
X165989000Y-130810000D03*
X173355000Y-110464600D03*
X153212800Y-124358400D03*
X177393600Y-95300800D03*
X161010600Y-115620800D03*
X159131000Y-124510800D03*
X150977600Y-111455200D03*
X159410400Y-135382000D03*
X153307600Y-123444000D03*
X161036000Y-121767600D03*
X171450000Y-109575600D03*
X159766000Y-124510800D03*
X164832144Y-127089836D03*
X153307600Y-117015800D03*
X161544000Y-117322600D03*
X167504500Y-109220000D03*
X152654000Y-120142000D03*
X175387000Y-110464600D03*
X154018800Y-123444000D03*
X154784800Y-110388400D03*
X172339000Y-110464600D03*
X152298400Y-104800400D03*
X172339000Y-109575600D03*
X175387000Y-109575600D03*
X179222400Y-108305600D03*
X171450000Y-110464600D03*
X164465000Y-115062000D03*
X154780800Y-117015800D03*
X154018800Y-117015800D03*
X160977207Y-108858314D03*
X176911000Y-130556000D03*
X161592000Y-104114600D03*
X174371000Y-109575600D03*
X152247600Y-111455200D03*
X173177200Y-108534200D03*
X173202600Y-106959400D03*
X161511800Y-110538800D03*
D38*
X170129200Y-100330000D03*
D37*
X175412400Y-100152200D03*
X151765000Y-126619000D03*
X179243288Y-100193775D03*
X151003000Y-104800400D03*
X154780800Y-123444000D03*
X173355000Y-109575600D03*
X174371000Y-110464600D03*
X152806400Y-133146800D03*
X154635200Y-131673600D03*
%TO.N,+5V*%
X163626800Y-121716800D03*
X158369000Y-132461000D03*
X159639000Y-104825800D03*
X150241000Y-124409200D03*
X165862000Y-118999000D03*
X167690800Y-106984800D03*
X159000000Y-111275400D03*
X168427400Y-106222800D03*
X162864800Y-107442000D03*
X151130000Y-133553200D03*
X160274000Y-104825800D03*
X160377737Y-117968230D03*
X167690800Y-106222800D03*
X159107737Y-117968230D03*
X176911000Y-125425200D03*
X159635000Y-111275400D03*
X169926000Y-106984800D03*
X154914600Y-130048000D03*
X159742737Y-117968230D03*
X153979385Y-133117949D03*
X163322000Y-124841000D03*
X161950400Y-134924800D03*
X163525200Y-114630200D03*
X160270000Y-111275400D03*
X150215600Y-120142000D03*
X168021000Y-128143000D03*
X170688000Y-106984800D03*
X174650400Y-125349000D03*
X166370000Y-128143000D03*
X153670000Y-130048000D03*
X154305000Y-130048000D03*
X168427400Y-106984800D03*
X159004000Y-104825800D03*
X169214800Y-106984800D03*
X162941000Y-110617000D03*
%TO.N,BRAKE_COMP_OUT*%
X158267400Y-113004600D03*
X161055263Y-112941170D03*
%TO.N,BRAKE_IN*%
X154787600Y-104190800D03*
X155829000Y-119888000D03*
X156387901Y-114104367D03*
X153031446Y-111297749D03*
%TO.N,SAFETY_IN*%
X170561000Y-128016000D03*
%TO.N,SAFETY_OUT*%
X170688000Y-124460000D03*
X172974000Y-127762000D03*
X166886500Y-120015000D03*
%TO.N,Net-(C14-Pad2)*%
X160985200Y-128016000D03*
%TO.N,TPS_TRIG*%
X163703000Y-110109000D03*
X169113200Y-112471200D03*
%TO.N,BRAKE_TRIG*%
X169545000Y-117856000D03*
X163322000Y-117856000D03*
%TO.N,ERR_FINAL*%
X155829000Y-128143000D03*
X162229800Y-114018484D03*
X162114764Y-121025237D03*
X165345500Y-124333000D03*
X165354000Y-129667000D03*
X160909000Y-107473900D03*
%TO.N,/10ms VAL*%
X157000000Y-132000000D03*
D38*
%TO.N,Net-(C21-Pad1)*%
X177368200Y-100406200D03*
%TO.N,/LDO_VIN*%
X176530000Y-106934000D03*
X177546000Y-106934000D03*
%TD*%
D39*
%TO.N,TPS_COMP_OUT*%
X161080302Y-106654600D02*
X161984600Y-106654600D01*
X164515800Y-107188000D02*
X164515800Y-108356400D01*
X162820800Y-105818400D02*
X163146200Y-105818400D01*
X164515800Y-111836200D02*
X165804800Y-113125200D01*
X163146200Y-105818400D02*
X164515800Y-107188000D01*
X154394800Y-105689400D02*
X157632400Y-105689400D01*
X164515800Y-108356400D02*
X164515800Y-111836200D01*
X165804800Y-113125200D02*
X165804800Y-116042400D01*
X161984600Y-106654600D02*
X162820800Y-105818400D01*
X157632400Y-105689400D02*
X158546800Y-106603800D01*
%TO.N,TPS_IN*%
X152616900Y-106388900D02*
X152743900Y-106261900D01*
X152870900Y-106769900D02*
X153060400Y-106959400D01*
X155727400Y-106959400D02*
X156527500Y-107759500D01*
X152870900Y-106134900D02*
X152870900Y-106769900D01*
X152298400Y-106707400D02*
X152616900Y-106388900D01*
X158673800Y-121335800D02*
X158496000Y-121158000D01*
X152743900Y-106261900D02*
X152755600Y-106273600D01*
X152870900Y-106134900D02*
X153035000Y-105970800D01*
X152298400Y-106707400D02*
X152550400Y-106959400D01*
X158267400Y-109499400D02*
X159816800Y-109499400D01*
X150981600Y-106673400D02*
X151003000Y-106652000D01*
X150981600Y-108098000D02*
X150981600Y-106673400D01*
X152755600Y-106959400D02*
X153060400Y-106959400D01*
X156527500Y-107759500D02*
X158267400Y-109499400D01*
X152550400Y-106959400D02*
X152755600Y-106959400D01*
X153060400Y-106959400D02*
X154394800Y-106959400D01*
X152755600Y-106273600D02*
X152755600Y-106959400D01*
X153212800Y-104190800D02*
X153212800Y-105793000D01*
X154394800Y-106959400D02*
X155727400Y-106959400D01*
X151056400Y-106705400D02*
X152196800Y-106705400D01*
X152616900Y-106388900D02*
X152550400Y-106455400D01*
X153035000Y-105970800D02*
X153035000Y-106934000D01*
X152743900Y-106261900D02*
X152870900Y-106134900D01*
X151003000Y-106652000D02*
X151056400Y-106705400D01*
X153035000Y-106934000D02*
X153060400Y-106959400D01*
X153212800Y-105793000D02*
X153035000Y-105970800D01*
X159708400Y-121335800D02*
X158673800Y-121335800D01*
X152550400Y-106455400D02*
X152550400Y-106959400D01*
%TO.N,GND*%
X161036000Y-121767600D02*
X161139600Y-121664000D01*
X173812200Y-108712000D02*
X173151800Y-109372400D01*
X165974000Y-130825000D02*
X165989000Y-130810000D01*
X161511800Y-110538800D02*
X161511800Y-111220400D01*
D40*
X152271000Y-126998000D02*
X151892000Y-126619000D01*
D39*
X152654000Y-120142000D02*
X152615900Y-120103900D01*
X161010600Y-115620800D02*
X161594800Y-115620800D01*
X150977600Y-112062800D02*
X150977600Y-111455200D01*
X161511800Y-111220400D02*
X161544000Y-111252600D01*
X152404800Y-124358400D02*
X152349200Y-124414000D01*
X167870300Y-108854200D02*
X168150800Y-108854200D01*
X161139600Y-121664000D02*
X161544000Y-121664000D01*
X164504800Y-115101800D02*
X164465000Y-115062000D01*
X165974000Y-131815000D02*
X165974000Y-130825000D01*
D41*
X173151800Y-109372400D02*
X173355000Y-109575600D01*
D39*
X163891000Y-127802600D02*
X163891000Y-128270000D01*
D42*
X170213800Y-98196400D02*
X170213800Y-100575600D01*
D39*
X167504500Y-109220000D02*
X167870300Y-108854200D01*
X178257200Y-108305600D02*
X179222400Y-108305600D01*
X161544000Y-117322600D02*
X161544000Y-118011000D01*
X160977207Y-108858314D02*
X161239293Y-109120400D01*
X152615900Y-120103900D02*
X152095200Y-120103900D01*
D41*
X173151800Y-107762000D02*
X173151800Y-109372400D01*
D42*
X169653200Y-101136200D02*
X169653200Y-102514400D01*
D39*
X176911000Y-129604500D02*
X176911000Y-130556000D01*
X161239293Y-109120400D02*
X161550800Y-109120400D01*
X164832144Y-127089836D02*
X164603764Y-127089836D01*
X174601800Y-108712000D02*
X173812200Y-108712000D01*
X154658000Y-131650800D02*
X154658000Y-130937000D01*
D40*
X152806400Y-133731600D02*
X152806400Y-133146800D01*
D39*
X164603764Y-127089836D02*
X163891000Y-127802600D01*
X161515800Y-104770800D02*
X161548000Y-104803000D01*
X153212800Y-124358400D02*
X152404800Y-124358400D01*
X152247600Y-112092800D02*
X152247600Y-111455200D01*
X152273000Y-104902000D02*
X152298400Y-104927400D01*
X152298400Y-104927400D02*
X152298400Y-105664800D01*
X164504800Y-116042400D02*
X164504800Y-115101800D01*
D42*
X170213800Y-100575600D02*
X169653200Y-101136200D01*
D39*
X159410400Y-134770400D02*
X159387000Y-134747000D01*
D40*
X151892000Y-126619000D02*
X151765000Y-126619000D01*
X152400000Y-126998000D02*
X152271000Y-126998000D01*
D39*
X154635200Y-131673600D02*
X154658000Y-131650800D01*
X159410400Y-135382000D02*
X159410400Y-134770400D01*
X161515800Y-104089200D02*
X161515800Y-104770800D01*
X151003000Y-104800400D02*
X151003000Y-105692000D01*
%TO.N,Net-(IC1-Pad6)*%
X159945800Y-108100400D02*
X159816800Y-108229400D01*
X162570800Y-109120400D02*
X161550800Y-108100400D01*
X162868800Y-109120400D02*
X162570800Y-109120400D01*
X161550800Y-108100400D02*
X159945800Y-108100400D01*
D40*
%TO.N,+5V*%
X151130000Y-133553200D02*
X151130000Y-132435000D01*
D39*
X161521200Y-112189800D02*
X161544000Y-112212600D01*
X168021000Y-128268000D02*
X168529000Y-128776000D01*
X168021000Y-128143000D02*
X168021000Y-128268000D01*
X150255700Y-120101900D02*
X150825200Y-120101900D01*
X162868800Y-108100400D02*
X162868800Y-107446000D01*
X159816800Y-105689400D02*
X161451800Y-105689400D01*
X159733800Y-112189800D02*
X161521200Y-112189800D01*
D40*
X154127200Y-133265764D02*
X154127200Y-133761600D01*
X153979385Y-133117949D02*
X154127200Y-133265764D01*
D39*
X162941000Y-111146400D02*
X162890200Y-111197200D01*
D40*
X161830800Y-105788400D02*
X162820800Y-104798400D01*
D39*
X162868800Y-125294200D02*
X163322000Y-124841000D01*
X174650400Y-126081600D02*
X174650400Y-125349000D01*
X165804800Y-118941800D02*
X165862000Y-118999000D01*
X165989000Y-128524000D02*
X166370000Y-128143000D01*
X165804800Y-117942400D02*
X165804800Y-118941800D01*
D40*
X151130000Y-132435000D02*
X151150000Y-132415000D01*
D39*
X161451800Y-105689400D02*
X161550800Y-105788400D01*
X150245800Y-124414000D02*
X151079200Y-124414000D01*
X165989000Y-128776000D02*
X165989000Y-128524000D01*
X162868800Y-107446000D02*
X162864800Y-107442000D01*
X150241000Y-124409200D02*
X150245800Y-124414000D01*
X172020000Y-104990000D02*
X171701800Y-105308200D01*
X159841537Y-118882630D02*
X161628937Y-118882630D01*
X150215600Y-120142000D02*
X150255700Y-120101900D01*
X158369000Y-132461000D02*
X158369000Y-131821200D01*
X162941000Y-110617000D02*
X162941000Y-111146400D01*
X162864800Y-121664000D02*
X163574000Y-121664000D01*
D40*
X161550800Y-105788400D02*
X161830800Y-105788400D01*
D39*
X176911000Y-125425200D02*
X176911000Y-126173500D01*
X161525200Y-105740200D02*
X161548000Y-105763000D01*
X161950400Y-134924800D02*
X161864000Y-134838400D01*
X161864000Y-134838400D02*
X161864000Y-133534000D01*
X162868800Y-125472000D02*
X162868800Y-125294200D01*
X163574000Y-121664000D02*
X163626800Y-121716800D01*
X171701800Y-105308200D02*
X171701800Y-106812000D01*
X163525200Y-114630200D02*
X163495800Y-114600800D01*
X163495800Y-114600800D02*
X162864800Y-114600800D01*
%TO.N,BRAKE_COMP_OUT*%
X164642800Y-113588800D02*
X165154800Y-114100800D01*
X162890200Y-112217200D02*
X163271200Y-112217200D01*
X154311800Y-112189800D02*
X157452600Y-112189800D01*
X157452600Y-112189800D02*
X158267400Y-113004600D01*
X165154800Y-114100800D02*
X165154800Y-116042400D01*
X161055263Y-112941170D02*
X162166230Y-112941170D01*
X162166230Y-112941170D02*
X162890200Y-112217200D01*
X163271200Y-112217200D02*
X164642800Y-113588800D01*
%TO.N,BRAKE_IN*%
X154311800Y-113459800D02*
X154337200Y-113434400D01*
X154787600Y-104190800D02*
X154787600Y-103481600D01*
X152330600Y-113072100D02*
X152718300Y-113459800D01*
X150933600Y-114566700D02*
X150933600Y-113126800D01*
X153031446Y-111297749D02*
X153031446Y-112279392D01*
X155651200Y-120065800D02*
X154286400Y-120065800D01*
X150986300Y-113074100D02*
X152328600Y-113074100D01*
X153031446Y-112279392D02*
X152207238Y-113103600D01*
X152328600Y-113074100D02*
X152330600Y-113072100D01*
X158263400Y-115999800D02*
X159733800Y-115999800D01*
X152718300Y-113459800D02*
X154311800Y-113459800D01*
X154337200Y-113434400D02*
X155698000Y-113434400D01*
X155698000Y-113434400D02*
X158263400Y-115999800D01*
X155829000Y-119888000D02*
X155651200Y-120065800D01*
D42*
%TO.N,+12V*%
X174403800Y-101763800D02*
X174403800Y-98196400D01*
X173653200Y-102514400D02*
X174403800Y-101763800D01*
D39*
%TO.N,SAFETY_IN*%
X165970000Y-100476000D02*
X165970000Y-111106000D01*
X166023800Y-91846400D02*
X167333300Y-93155900D01*
X167513000Y-122936000D02*
X170180000Y-125603000D01*
X167333300Y-99112700D02*
X165970000Y-100476000D01*
X170561000Y-128016000D02*
X170180000Y-127635000D01*
X167333300Y-93155900D02*
X167333300Y-99112700D01*
X165970000Y-111106000D02*
X167513000Y-112649000D01*
X167513000Y-112649000D02*
X167513000Y-122936000D01*
X170180000Y-127635000D02*
X170180000Y-126644000D01*
X170180000Y-125603000D02*
X170180000Y-126644000D01*
%TO.N,SAFETY_OUT*%
X166886500Y-112664552D02*
X165516000Y-111294052D01*
X170688000Y-124612000D02*
X172720000Y-126644000D01*
X165516000Y-98704200D02*
X166023800Y-98196400D01*
X170688000Y-124460000D02*
X170688000Y-124612000D01*
X166886500Y-120015000D02*
X166886500Y-112664552D01*
X172974000Y-127762000D02*
X172974000Y-126898000D01*
X165516000Y-111294052D02*
X165516000Y-98704200D01*
X172974000Y-126898000D02*
X172720000Y-126644000D01*
%TO.N,Net-(C14-Pad2)*%
X159708400Y-127887000D02*
X159837400Y-128016000D01*
X163134000Y-127127000D02*
X163830000Y-127127000D01*
X160985200Y-128016000D02*
X161737000Y-128016000D01*
X164211000Y-126746000D02*
X164211000Y-126494000D01*
X161737000Y-128016000D02*
X161991000Y-128270000D01*
X159837400Y-128016000D02*
X160985200Y-128016000D01*
X163830000Y-127127000D02*
X164211000Y-126746000D01*
X161991000Y-128270000D02*
X163134000Y-127127000D01*
D43*
%TO.N,Net-(C8-Pad2)*%
X155306000Y-134721600D02*
X155610800Y-134416800D01*
X154097200Y-134751600D02*
X154127200Y-134721600D01*
X154127200Y-134721600D02*
X155306000Y-134721600D01*
X152806400Y-134751600D02*
X154097200Y-134751600D01*
D39*
%TO.N,ERR_CURRENT*%
X164719000Y-119380000D02*
X164504800Y-119165800D01*
X164211000Y-125474000D02*
X164719000Y-124966000D01*
X164504800Y-119165800D02*
X164504800Y-117942400D01*
X164719000Y-124966000D02*
X164719000Y-122428000D01*
X164719000Y-122428000D02*
X164719000Y-119380000D01*
%TO.N,TPS_TRIG*%
X166878000Y-110363000D02*
X166878000Y-100852104D01*
X152200800Y-108098400D02*
X154263800Y-108098400D01*
X163449000Y-109855000D02*
X161163000Y-109855000D01*
X166878000Y-100852104D02*
X168402000Y-99328104D01*
X163703000Y-110109000D02*
X163449000Y-109855000D01*
X168986200Y-112471200D02*
X166878000Y-110363000D01*
X169113200Y-112471200D02*
X168986200Y-112471200D01*
X154833800Y-108229400D02*
X154394800Y-108229400D01*
X168402000Y-97848200D02*
X174403800Y-91846400D01*
X156755800Y-110151400D02*
X154833800Y-108229400D01*
X160866600Y-110151400D02*
X156755800Y-110151400D01*
X161163000Y-109855000D02*
X160866600Y-110151400D01*
X168402000Y-99328104D02*
X168402000Y-97848200D01*
X154263800Y-108098400D02*
X154394800Y-108229400D01*
%TO.N,BRAKE_TRIG*%
X158273348Y-116651800D02*
X161990800Y-116651800D01*
X152203600Y-114564700D02*
X154146700Y-114564700D01*
X163195000Y-117856000D02*
X163322000Y-117856000D01*
X166424000Y-110798000D02*
X168148000Y-112522000D01*
X167787300Y-99300752D02*
X166424000Y-100664052D01*
X161990800Y-116651800D02*
X163195000Y-117856000D01*
X154146700Y-114564700D02*
X154311800Y-114729800D01*
X156351348Y-114729800D02*
X158273348Y-116651800D01*
X168148000Y-112522000D02*
X168148000Y-116459000D01*
X168148000Y-116459000D02*
X169545000Y-117856000D01*
X170213800Y-91846400D02*
X167787300Y-94272900D01*
X167787300Y-94272900D02*
X167787300Y-99300752D01*
X154311800Y-114729800D02*
X156351348Y-114729800D01*
X166424000Y-100664052D02*
X166424000Y-110798000D01*
%TO.N,Net-(Q1-Pad3)*%
X159766000Y-131828000D02*
X161170000Y-131828000D01*
X161170000Y-131828000D02*
X161864000Y-131134000D01*
%TO.N,Net-(Q1-Pad1)*%
X163764000Y-131134000D02*
X163764000Y-133534000D01*
X162814000Y-133534000D02*
X162814000Y-132880000D01*
X162814000Y-132880000D02*
X162491000Y-132557000D01*
X163764000Y-133534000D02*
X162814000Y-133534000D01*
X160180000Y-132557000D02*
X159387000Y-133350000D01*
X162814000Y-131134000D02*
X163764000Y-131134000D01*
X162491000Y-132557000D02*
X160180000Y-132557000D01*
%TO.N,Net-(IC6-Pad3)*%
X152095200Y-121123900D02*
X150827200Y-121123900D01*
X154233600Y-121283000D02*
X154286400Y-121335800D01*
X152222200Y-121283000D02*
X154233600Y-121283000D01*
%TO.N,Net-(Q2-Pad2)*%
X158367000Y-134747000D02*
X157241000Y-134747000D01*
X157241000Y-134747000D02*
X156910800Y-134416800D01*
%TO.N,ERR_FINAL*%
X165989000Y-129796000D02*
X167009000Y-128776000D01*
X160394500Y-106959400D02*
X160909000Y-107473900D01*
X167259000Y-126619000D02*
X165989000Y-125349000D01*
X155879800Y-118795800D02*
X157149800Y-120065800D01*
X160703800Y-113459800D02*
X159733800Y-113459800D01*
X161868316Y-113657000D02*
X160901000Y-113657000D01*
X159816800Y-106959400D02*
X160394500Y-106959400D01*
X157149800Y-120065800D02*
X159708400Y-120065800D01*
X154286400Y-118795800D02*
X155879800Y-118795800D01*
X162229800Y-114018484D02*
X161868316Y-113657000D01*
X165345500Y-124333000D02*
X165345500Y-124705500D01*
X160901000Y-113657000D02*
X160703800Y-113459800D01*
X154286400Y-127887000D02*
X155573000Y-127887000D01*
X165345500Y-124705500D02*
X165989000Y-125349000D01*
X161155327Y-120065800D02*
X159708400Y-120065800D01*
X165860000Y-129667000D02*
X165989000Y-129796000D01*
X167259000Y-128776000D02*
X167259000Y-126619000D01*
X155573000Y-127887000D02*
X155829000Y-128143000D01*
X162114764Y-121025237D02*
X161155327Y-120065800D01*
X167009000Y-128776000D02*
X167259000Y-128776000D01*
X165354000Y-129667000D02*
X165860000Y-129667000D01*
%TO.N,Net-(R22-Pad1)*%
X170180000Y-132944000D02*
X168529000Y-131293000D01*
X168529000Y-131293000D02*
X168529000Y-129796000D01*
%TO.N,INFO_LED*%
X172720000Y-131509500D02*
X174625000Y-129604500D01*
X172720000Y-132944000D02*
X172720000Y-131509500D01*
X167248000Y-134239000D02*
X171425000Y-134239000D01*
X171425000Y-134239000D02*
X172720000Y-132944000D01*
X166624000Y-133615000D02*
X167248000Y-134239000D01*
%TO.N,/500MS_REF*%
X161473800Y-126617000D02*
X161598800Y-126492000D01*
X162868800Y-126492000D02*
X161598800Y-126492000D01*
X159737800Y-126617000D02*
X161473800Y-126617000D01*
%TO.N,/10s REF*%
X151166200Y-125347000D02*
X154286400Y-125347000D01*
X151079200Y-125434000D02*
X151166200Y-125347000D01*
%TO.N,/10ms VAL*%
X153699949Y-132490949D02*
X152893200Y-131684200D01*
D43*
X156877600Y-132000000D02*
X156260800Y-132616800D01*
D39*
X158367000Y-133350000D02*
X156994000Y-133350000D01*
D43*
X151885000Y-129465000D02*
X151150000Y-129465000D01*
D39*
X153748200Y-126617000D02*
X152349200Y-128016000D01*
D43*
X152349200Y-128265800D02*
X152349200Y-128016000D01*
X152893200Y-131684200D02*
X151920000Y-130711000D01*
X157000000Y-132000000D02*
X156877600Y-132000000D01*
X151920000Y-130711000D02*
X151920000Y-129500000D01*
X151920000Y-129500000D02*
X151885000Y-129465000D01*
X153801000Y-126617000D02*
X154286400Y-126617000D01*
D39*
X156994000Y-133350000D02*
X156260800Y-132616800D01*
X154813000Y-132616800D02*
X154687149Y-132490949D01*
X156260800Y-132616800D02*
X154813000Y-132616800D01*
D43*
X151150000Y-129465000D02*
X152349200Y-128265800D01*
D39*
X154687149Y-132490949D02*
X153699949Y-132490949D01*
X154286400Y-126617000D02*
X153748200Y-126617000D01*
%TO.N,Net-(IC2-Pad6)*%
X161465800Y-114729800D02*
X161594800Y-114600800D01*
X162864800Y-115620800D02*
X162614800Y-115620800D01*
X162614800Y-115620800D02*
X161594800Y-114600800D01*
X159733800Y-114729800D02*
X161465800Y-114729800D01*
%TO.N,Net-(D3-Pad2)*%
X176911000Y-128459500D02*
X176911000Y-127193500D01*
%TO.N,Net-(D4-Pad2)*%
X174625000Y-128459500D02*
X174625000Y-127127000D01*
D43*
X174625000Y-127127000D02*
X174650400Y-127101600D01*
D39*
%TO.N,Net-(Q3-Pad1)*%
X167259000Y-129796000D02*
X167259000Y-131800000D01*
X167259000Y-131800000D02*
X167274000Y-131815000D01*
%TO.N,Net-(IC6-Pad5)*%
X162786600Y-122605800D02*
X159708400Y-122605800D01*
X162864800Y-122684000D02*
X162786600Y-122605800D01*
%TO.N,TPS_IN_NF*%
X153035000Y-98615200D02*
X153453800Y-98196400D01*
X153212800Y-98437400D02*
X153453800Y-98196400D01*
X153212800Y-103170800D02*
X153212800Y-98437400D01*
%TO.N,BRAKE_IN_NF*%
X153453800Y-93662200D02*
X154152600Y-94361000D01*
X154787600Y-94996000D02*
X154152600Y-94361000D01*
X153453800Y-91846400D02*
X153453800Y-93662200D01*
X154787600Y-102461600D02*
X154787600Y-94996000D01*
D42*
%TO.N,Net-(C21-Pad1)*%
X177368200Y-101418300D02*
X177444400Y-101494500D01*
X177368200Y-100406200D02*
X177368200Y-101418300D01*
D39*
%TO.N,Net-(IC3-Pad1)*%
X159766000Y-130808000D02*
X159766000Y-129214600D01*
X158375800Y-130808000D02*
X158369000Y-130801200D01*
X159766000Y-129214600D02*
X159708400Y-129157000D01*
X159766000Y-130808000D02*
X158375800Y-130808000D01*
%TO.N,/LDO_VIN*%
X174601800Y-105471800D02*
X174601800Y-106812000D01*
X174120000Y-104990000D02*
X174601800Y-105471800D01*
%TD*%
%TA.AperFunction,Conductor*%
%TO.N,+5V*%
G36*
X172079947Y-105988980D02*
G01*
X172126604Y-106042493D01*
X172138152Y-106095166D01*
X172138166Y-106187053D01*
X172118176Y-106255175D01*
X172101341Y-106276088D01*
X172079021Y-106298447D01*
X172051060Y-106326456D01*
X172051058Y-106326458D01*
X172042843Y-106334688D01*
X171996374Y-106439800D01*
X171995277Y-106449213D01*
X171992786Y-106458348D01*
X171989715Y-106457511D01*
X171968278Y-106507954D01*
X171909593Y-106547911D01*
X171870896Y-106554000D01*
X171869915Y-106554000D01*
X171854676Y-106558475D01*
X171853471Y-106559865D01*
X171851800Y-106567548D01*
X171851800Y-107051885D01*
X171856275Y-107067124D01*
X171857665Y-107068329D01*
X171865348Y-107070000D01*
X171867300Y-107070000D01*
X171872880Y-107071638D01*
X171878583Y-107072879D01*
X171878494Y-107073287D01*
X171935421Y-107090002D01*
X171981914Y-107143658D01*
X171993300Y-107195999D01*
X171993301Y-107377999D01*
X171973299Y-107446120D01*
X171919644Y-107492613D01*
X171877391Y-107501805D01*
X171854676Y-107508475D01*
X171853471Y-107509865D01*
X171851800Y-107517548D01*
X171851800Y-107786000D01*
X171831798Y-107854121D01*
X171778142Y-107900614D01*
X171725800Y-107912000D01*
X171186915Y-107912000D01*
X171171676Y-107916475D01*
X171170471Y-107917865D01*
X171169417Y-107922713D01*
X171170007Y-107928706D01*
X171172645Y-107941968D01*
X171181961Y-107964459D01*
X171192043Y-107979548D01*
X171209252Y-107996757D01*
X171232292Y-108012152D01*
X171277820Y-108066629D01*
X171286667Y-108137072D01*
X171257514Y-108199430D01*
X171253554Y-108204000D01*
X171246800Y-108204000D01*
X171246800Y-108211794D01*
X171228678Y-108232708D01*
X171184602Y-108265346D01*
X171099037Y-108303353D01*
X171017843Y-108384688D01*
X170971374Y-108489800D01*
X170968300Y-108516165D01*
X170968301Y-108679315D01*
X170968301Y-108804400D01*
X170948299Y-108872520D01*
X170894644Y-108919013D01*
X170842301Y-108930400D01*
X170797200Y-108930400D01*
X170729079Y-108910398D01*
X170682586Y-108856742D01*
X170671200Y-108804400D01*
X170671200Y-108679315D01*
X170666725Y-108664076D01*
X170665335Y-108662871D01*
X170657652Y-108661200D01*
X169473316Y-108661200D01*
X169458077Y-108665675D01*
X169456872Y-108667065D01*
X169455201Y-108674748D01*
X169455201Y-108804400D01*
X169435199Y-108872521D01*
X169381543Y-108919014D01*
X169329201Y-108930400D01*
X169097700Y-108930400D01*
X169029579Y-108910398D01*
X168983086Y-108856742D01*
X168971700Y-108804400D01*
X168971700Y-108135085D01*
X169455200Y-108135085D01*
X169459675Y-108150324D01*
X169461065Y-108151529D01*
X169468748Y-108153200D01*
X169791085Y-108153200D01*
X169806324Y-108148725D01*
X169807529Y-108147335D01*
X169809200Y-108139652D01*
X169809200Y-108135085D01*
X170317200Y-108135085D01*
X170321675Y-108150324D01*
X170323065Y-108151529D01*
X170330748Y-108153200D01*
X170653084Y-108153200D01*
X170668323Y-108148725D01*
X170669528Y-108147335D01*
X170671199Y-108139652D01*
X170671199Y-107902879D01*
X170670528Y-107893710D01*
X170662268Y-107837591D01*
X170656526Y-107819112D01*
X170612905Y-107730267D01*
X170600945Y-107713560D01*
X170531335Y-107644073D01*
X170514613Y-107632145D01*
X170443363Y-107597317D01*
X171169808Y-107597317D01*
X171173275Y-107609124D01*
X171174665Y-107610329D01*
X171182348Y-107612000D01*
X171533685Y-107612000D01*
X171548924Y-107607525D01*
X171550129Y-107606135D01*
X171551800Y-107598452D01*
X171551800Y-107522115D01*
X171547325Y-107506876D01*
X171545935Y-107505671D01*
X171538252Y-107504000D01*
X171272349Y-107504000D01*
X171260094Y-107505207D01*
X171246832Y-107507845D01*
X171224341Y-107517161D01*
X171209252Y-107527243D01*
X171192043Y-107544452D01*
X171181961Y-107559541D01*
X171172645Y-107582032D01*
X171170007Y-107595294D01*
X171169808Y-107597317D01*
X170443363Y-107597317D01*
X170425675Y-107588671D01*
X170407214Y-107582965D01*
X170351657Y-107574860D01*
X170342558Y-107574200D01*
X170335315Y-107574200D01*
X170320076Y-107578675D01*
X170318871Y-107580065D01*
X170317200Y-107587748D01*
X170317200Y-108135085D01*
X169809200Y-108135085D01*
X169809200Y-107592316D01*
X169804725Y-107577077D01*
X169803335Y-107575872D01*
X169795652Y-107574201D01*
X169783879Y-107574201D01*
X169774710Y-107574872D01*
X169718591Y-107583132D01*
X169700112Y-107588874D01*
X169611267Y-107632495D01*
X169594560Y-107644455D01*
X169525073Y-107714065D01*
X169513145Y-107730787D01*
X169469671Y-107819725D01*
X169463965Y-107838186D01*
X169455860Y-107893743D01*
X169455200Y-107902842D01*
X169455200Y-108135085D01*
X168971700Y-108135085D01*
X168971700Y-107888808D01*
X168960678Y-107797727D01*
X168904348Y-107655453D01*
X168811832Y-107533568D01*
X168689947Y-107441052D01*
X168547673Y-107384722D01*
X168539635Y-107383749D01*
X168539634Y-107383749D01*
X168514862Y-107380751D01*
X168456592Y-107373700D01*
X167869808Y-107373700D01*
X167811538Y-107380751D01*
X167786766Y-107383749D01*
X167786765Y-107383749D01*
X167778727Y-107384722D01*
X167636453Y-107441052D01*
X167535674Y-107517548D01*
X167515680Y-107532724D01*
X167449326Y-107557977D01*
X167379853Y-107543349D01*
X167329317Y-107493482D01*
X167313500Y-107432361D01*
X167313500Y-106972713D01*
X171169417Y-106972713D01*
X171170007Y-106978706D01*
X171172645Y-106991968D01*
X171181961Y-107014459D01*
X171192043Y-107029548D01*
X171209252Y-107046757D01*
X171224341Y-107056839D01*
X171246832Y-107066155D01*
X171260094Y-107068793D01*
X171272349Y-107070000D01*
X171533685Y-107070000D01*
X171548924Y-107065525D01*
X171550129Y-107064135D01*
X171551800Y-107056452D01*
X171551800Y-106980115D01*
X171547325Y-106964876D01*
X171545935Y-106963671D01*
X171538252Y-106962000D01*
X171186915Y-106962000D01*
X171171676Y-106966475D01*
X171170471Y-106967865D01*
X171169417Y-106972713D01*
X167313500Y-106972713D01*
X167313500Y-106647317D01*
X171169808Y-106647317D01*
X171173275Y-106659124D01*
X171174665Y-106660329D01*
X171182348Y-106662000D01*
X171533685Y-106662000D01*
X171548924Y-106657525D01*
X171550129Y-106656135D01*
X171551800Y-106648452D01*
X171551800Y-106572115D01*
X171547325Y-106556876D01*
X171545935Y-106555671D01*
X171538252Y-106554000D01*
X171272349Y-106554000D01*
X171260094Y-106555207D01*
X171246832Y-106557845D01*
X171224341Y-106567161D01*
X171209252Y-106577243D01*
X171192043Y-106594452D01*
X171181961Y-106609541D01*
X171172645Y-106632032D01*
X171170007Y-106645294D01*
X171169808Y-106647317D01*
X167313500Y-106647317D01*
X167313500Y-106109220D01*
X167333502Y-106041099D01*
X167387158Y-105994606D01*
X167439113Y-105983221D01*
X172011765Y-105969188D01*
X172079947Y-105988980D01*
G37*
%TD.AperFunction*%
%TD*%
%TA.AperFunction,Conductor*%
%TO.N,GND*%
G36*
X154482521Y-122371802D02*
G01*
X154529014Y-122425458D01*
X154540400Y-122477800D01*
X154540400Y-123020685D01*
X154544875Y-123035924D01*
X154546265Y-123037129D01*
X154553948Y-123038800D01*
X155054851Y-123038800D01*
X155067106Y-123037593D01*
X155080368Y-123034955D01*
X155114324Y-123020890D01*
X155116055Y-123025068D01*
X155160683Y-123011145D01*
X155229130Y-123029999D01*
X155276518Y-123082866D01*
X155288800Y-123137127D01*
X155288800Y-123749800D01*
X155268798Y-123817921D01*
X155215142Y-123864414D01*
X155162800Y-123875800D01*
X153001800Y-123875800D01*
X152933679Y-123855798D01*
X152887186Y-123802142D01*
X152875800Y-123749800D01*
X152875800Y-123163600D01*
X152895802Y-123095479D01*
X152949458Y-123048986D01*
X153001800Y-123037600D01*
X153383800Y-123037600D01*
X153383800Y-123032281D01*
X153400943Y-123027248D01*
X153471939Y-123027248D01*
X153484658Y-123031735D01*
X153492432Y-123034955D01*
X153505694Y-123037593D01*
X153517949Y-123038800D01*
X154014285Y-123038800D01*
X154029524Y-123034325D01*
X154030729Y-123032935D01*
X154032400Y-123025252D01*
X154032400Y-122477800D01*
X154052402Y-122409679D01*
X154106058Y-122363186D01*
X154158400Y-122351800D01*
X154414400Y-122351800D01*
X154482521Y-122371802D01*
G37*
%TD.AperFunction*%
%TD*%
%TA.AperFunction,Conductor*%
%TO.N,GND*%
G36*
X151745544Y-108757402D02*
G01*
X151792037Y-108811058D01*
X151798934Y-108830066D01*
X151807586Y-108861606D01*
X151808507Y-108862433D01*
X151817177Y-108864400D01*
X152580425Y-108864400D01*
X152593956Y-108860427D01*
X152596107Y-108845467D01*
X152625600Y-108780887D01*
X152685327Y-108742504D01*
X152720824Y-108737400D01*
X153325272Y-108737400D01*
X153393393Y-108757402D01*
X153414290Y-108774227D01*
X153453488Y-108813357D01*
X153464126Y-108818060D01*
X153558600Y-108859826D01*
X153557004Y-108863436D01*
X153601355Y-108890662D01*
X153632173Y-108954621D01*
X153623521Y-109025089D01*
X153577855Y-109079886D01*
X153563250Y-109089645D01*
X153546043Y-109106852D01*
X153535961Y-109121941D01*
X153526645Y-109144432D01*
X153524007Y-109157694D01*
X153522800Y-109169949D01*
X153522800Y-109227285D01*
X153527275Y-109242524D01*
X153528665Y-109243729D01*
X153536348Y-109245400D01*
X154522800Y-109245400D01*
X154590921Y-109265402D01*
X154637414Y-109319058D01*
X154648800Y-109371400D01*
X154648800Y-109914285D01*
X154653275Y-109929524D01*
X154654665Y-109930729D01*
X154662348Y-109932400D01*
X155166800Y-109932400D01*
X155234921Y-109952402D01*
X155281414Y-110006058D01*
X155292800Y-110058400D01*
X155292800Y-110643400D01*
X155272798Y-110711521D01*
X155219142Y-110758014D01*
X155166800Y-110769400D01*
X153371050Y-110769400D01*
X153322832Y-110759809D01*
X153197926Y-110708071D01*
X153197923Y-110708070D01*
X153190296Y-110704911D01*
X153031446Y-110683998D01*
X153023258Y-110685076D01*
X153023255Y-110685076D01*
X153022245Y-110685209D01*
X153021392Y-110685076D01*
X153014999Y-110685076D01*
X153014999Y-110684079D01*
X152952097Y-110674269D01*
X152898998Y-110627141D01*
X152879800Y-110560287D01*
X152879800Y-110007400D01*
X152870987Y-109992711D01*
X152772671Y-109828851D01*
X153522800Y-109828851D01*
X153524007Y-109841106D01*
X153526645Y-109854368D01*
X153535961Y-109876859D01*
X153546043Y-109891948D01*
X153563252Y-109909157D01*
X153578341Y-109919239D01*
X153600832Y-109928555D01*
X153614094Y-109931193D01*
X153626349Y-109932400D01*
X154122685Y-109932400D01*
X154137924Y-109927925D01*
X154139129Y-109926535D01*
X154140800Y-109918852D01*
X154140800Y-109771515D01*
X154136325Y-109756276D01*
X154134935Y-109755071D01*
X154127252Y-109753400D01*
X153540915Y-109753400D01*
X153525676Y-109757875D01*
X153524471Y-109759265D01*
X153522800Y-109766948D01*
X153522800Y-109828851D01*
X152772671Y-109828851D01*
X152587061Y-109519501D01*
X152569165Y-109450797D01*
X152583832Y-109404992D01*
X152583062Y-109404751D01*
X152592610Y-109374258D01*
X152584423Y-109372400D01*
X151486979Y-109372400D01*
X151418858Y-109352398D01*
X151402782Y-109340138D01*
X151384778Y-109323967D01*
X151376110Y-109322000D01*
X150853600Y-109322000D01*
X150785479Y-109301998D01*
X150738986Y-109248342D01*
X150727600Y-109196000D01*
X150727600Y-108940000D01*
X150747602Y-108871879D01*
X150801258Y-108825386D01*
X150853600Y-108814000D01*
X151372111Y-108814000D01*
X151387350Y-108809525D01*
X151407670Y-108786075D01*
X151410039Y-108780887D01*
X151469765Y-108742504D01*
X151505263Y-108737400D01*
X151677423Y-108737400D01*
X151745544Y-108757402D01*
G37*
%TD.AperFunction*%
%TD*%
%TA.AperFunction,Conductor*%
%TO.N,GND*%
G36*
X173347921Y-107528002D02*
G01*
X173394414Y-107581658D01*
X173405800Y-107634000D01*
X173405800Y-109101885D01*
X173410275Y-109117124D01*
X173411665Y-109118329D01*
X173419348Y-109120000D01*
X174006251Y-109120000D01*
X174018506Y-109118793D01*
X174031768Y-109116155D01*
X174054259Y-109106839D01*
X174069348Y-109096757D01*
X174086557Y-109079548D01*
X174096638Y-109064461D01*
X174103547Y-109047781D01*
X174148096Y-108992501D01*
X174219956Y-108970000D01*
X174433685Y-108970000D01*
X174448924Y-108965525D01*
X174450129Y-108964135D01*
X174451800Y-108956452D01*
X174451800Y-108951885D01*
X174751800Y-108951885D01*
X174756275Y-108967124D01*
X174757665Y-108968329D01*
X174765348Y-108970000D01*
X175031251Y-108970000D01*
X175043506Y-108968793D01*
X175056768Y-108966155D01*
X175079259Y-108956839D01*
X175094348Y-108946757D01*
X175111557Y-108929548D01*
X175121639Y-108914459D01*
X175130955Y-108891968D01*
X175133593Y-108878706D01*
X175133792Y-108876683D01*
X175130325Y-108864876D01*
X175128935Y-108863671D01*
X175121252Y-108862000D01*
X174769915Y-108862000D01*
X174754676Y-108866475D01*
X174753471Y-108867865D01*
X174751800Y-108875548D01*
X174751800Y-108951885D01*
X174451800Y-108951885D01*
X174451800Y-108688000D01*
X174471802Y-108619879D01*
X174525458Y-108573386D01*
X174577800Y-108562000D01*
X175116685Y-108562000D01*
X175131924Y-108557525D01*
X175133129Y-108556135D01*
X175137679Y-108535217D01*
X175141037Y-108535947D01*
X175154802Y-108489067D01*
X175208458Y-108442574D01*
X175278732Y-108432470D01*
X175343312Y-108461964D01*
X175361273Y-108481154D01*
X175582819Y-108773911D01*
X175607609Y-108836338D01*
X175613349Y-108889180D01*
X175663674Y-109023424D01*
X175669054Y-109030603D01*
X175669056Y-109030606D01*
X175736054Y-109120000D01*
X175749654Y-109138146D01*
X175756835Y-109143528D01*
X175864376Y-109224126D01*
X175863154Y-109225756D01*
X175905055Y-109267751D01*
X175920400Y-109328012D01*
X175920400Y-110719600D01*
X175900398Y-110787721D01*
X175846742Y-110834214D01*
X175794400Y-110845600D01*
X171120133Y-110845600D01*
X171052012Y-110825598D01*
X171005519Y-110771942D01*
X170994140Y-110718274D01*
X171009281Y-109279915D01*
X171029998Y-109212011D01*
X171071664Y-109172479D01*
X171094914Y-109158882D01*
X171094919Y-109158879D01*
X171099945Y-109155939D01*
X171122520Y-109136378D01*
X171187099Y-109106884D01*
X171229614Y-109108022D01*
X171252126Y-109112500D01*
X172151474Y-109112500D01*
X172157540Y-109111293D01*
X172157544Y-109111293D01*
X172189337Y-109104969D01*
X172262135Y-109112139D01*
X172271830Y-109116155D01*
X172285094Y-109118793D01*
X172297349Y-109120000D01*
X172879685Y-109120000D01*
X172894924Y-109115525D01*
X172896129Y-109114135D01*
X172897800Y-109106452D01*
X172897800Y-107634000D01*
X172917802Y-107565879D01*
X172971458Y-107519386D01*
X173023800Y-107508000D01*
X173279800Y-107508000D01*
X173347921Y-107528002D01*
G37*
%TD.AperFunction*%
%TD*%
%TA.AperFunction,Conductor*%
%TO.N,GND*%
G36*
X160631978Y-124132602D02*
G01*
X160678471Y-124186258D01*
X160682308Y-124195645D01*
X161036000Y-125171200D01*
X161047837Y-125171200D01*
X161097067Y-125208764D01*
X161111192Y-125218000D01*
X161726800Y-125218000D01*
X161794921Y-125238002D01*
X161841414Y-125291658D01*
X161852800Y-125344000D01*
X161852800Y-125600000D01*
X161832798Y-125668121D01*
X161810549Y-125687400D01*
X160784772Y-125687400D01*
X160716651Y-125667398D01*
X160670158Y-125613742D01*
X160666742Y-125604584D01*
X160664535Y-125602671D01*
X160656852Y-125601000D01*
X159580400Y-125601000D01*
X159512279Y-125580998D01*
X159465786Y-125527342D01*
X159454400Y-125475000D01*
X159454400Y-125074885D01*
X159962400Y-125074885D01*
X159966875Y-125090124D01*
X159968265Y-125091329D01*
X159975948Y-125093000D01*
X160652284Y-125093000D01*
X160667523Y-125088525D01*
X160668728Y-125087135D01*
X160670399Y-125079452D01*
X160670399Y-125008691D01*
X160669192Y-124996430D01*
X160661333Y-124956917D01*
X160652016Y-124934423D01*
X160622043Y-124889566D01*
X160604834Y-124872357D01*
X160559975Y-124842383D01*
X160537484Y-124833067D01*
X160497969Y-124825207D01*
X160485714Y-124824000D01*
X159980515Y-124824000D01*
X159965276Y-124828475D01*
X159964071Y-124829865D01*
X159962400Y-124837548D01*
X159962400Y-125074885D01*
X159454400Y-125074885D01*
X159454400Y-124842116D01*
X159449925Y-124826877D01*
X159448535Y-124825672D01*
X159440852Y-124824001D01*
X158931091Y-124824001D01*
X158918828Y-124825208D01*
X158897778Y-124829395D01*
X158827064Y-124823065D01*
X158770998Y-124779509D01*
X158747200Y-124705815D01*
X158747200Y-124238600D01*
X158767202Y-124170479D01*
X158820858Y-124123986D01*
X158873200Y-124112600D01*
X160563857Y-124112600D01*
X160631978Y-124132602D01*
G37*
%TD.AperFunction*%
%TD*%
%TA.AperFunction,Conductor*%
%TO.N,GND*%
G36*
X151459123Y-115362153D02*
G01*
X151459124Y-115362153D01*
X151717485Y-115362344D01*
X152685121Y-115363060D01*
X152685124Y-115363061D01*
X153403885Y-115363593D01*
X153471991Y-115383646D01*
X153518444Y-115437336D01*
X153528496Y-115507617D01*
X153498955Y-115572176D01*
X153488849Y-115581086D01*
X153489029Y-115581266D01*
X153463043Y-115607252D01*
X153452961Y-115622341D01*
X153443645Y-115644832D01*
X153441007Y-115658094D01*
X153439800Y-115670349D01*
X153439800Y-115727685D01*
X153444275Y-115742924D01*
X153445665Y-115744129D01*
X153453348Y-115745800D01*
X154439800Y-115745800D01*
X154507921Y-115765802D01*
X154554414Y-115819458D01*
X154565800Y-115871800D01*
X154565800Y-116414685D01*
X154570275Y-116429924D01*
X154571665Y-116431129D01*
X154579348Y-116432800D01*
X155080251Y-116432800D01*
X155092506Y-116431593D01*
X155105770Y-116428955D01*
X155114581Y-116425305D01*
X155185171Y-116417715D01*
X155248658Y-116449494D01*
X155284886Y-116510552D01*
X155288800Y-116541713D01*
X155288800Y-117270800D01*
X155268798Y-117338921D01*
X155215142Y-117385414D01*
X155162800Y-117396800D01*
X153001800Y-117396800D01*
X152933679Y-117376798D01*
X152887186Y-117323142D01*
X152875800Y-117270800D01*
X152875800Y-116507800D01*
X152867191Y-116493238D01*
X152867191Y-116493236D01*
X152770251Y-116329251D01*
X153439800Y-116329251D01*
X153441007Y-116341506D01*
X153443645Y-116354768D01*
X153452961Y-116377259D01*
X153463043Y-116392348D01*
X153480252Y-116409557D01*
X153495341Y-116419639D01*
X153517832Y-116428955D01*
X153531094Y-116431593D01*
X153543349Y-116432800D01*
X154039685Y-116432800D01*
X154054924Y-116428325D01*
X154056129Y-116426935D01*
X154057800Y-116419252D01*
X154057800Y-116271915D01*
X154053325Y-116256676D01*
X154051935Y-116255471D01*
X154044252Y-116253800D01*
X153457915Y-116253800D01*
X153442676Y-116258275D01*
X153441471Y-116259665D01*
X153439800Y-116267348D01*
X153439800Y-116329251D01*
X152770251Y-116329251D01*
X152577428Y-116003071D01*
X152559981Y-115934252D01*
X152581127Y-115868951D01*
X152591275Y-115853763D01*
X152595410Y-115840558D01*
X152587223Y-115838700D01*
X151823975Y-115838700D01*
X151792035Y-115848079D01*
X151760414Y-115868401D01*
X151724703Y-115873506D01*
X151675763Y-115873424D01*
X151450313Y-115873048D01*
X151399193Y-115857945D01*
X151372110Y-115851800D01*
X150849600Y-115851800D01*
X150781479Y-115831798D01*
X150734986Y-115778142D01*
X150723600Y-115725800D01*
X150723600Y-115469800D01*
X150743602Y-115401679D01*
X150789790Y-115361657D01*
X151459123Y-115362153D01*
G37*
%TD.AperFunction*%
%TD*%
%TA.AperFunction,Conductor*%
%TO.N,+5V*%
G36*
X154482521Y-128923002D02*
G01*
X154529014Y-128976658D01*
X154540400Y-129029000D01*
X154540400Y-129671884D01*
X154544875Y-129687123D01*
X154546265Y-129688328D01*
X154553948Y-129689999D01*
X155064694Y-129689999D01*
X155081047Y-129688388D01*
X155150800Y-129701615D01*
X155202330Y-129750454D01*
X155219400Y-129813781D01*
X155219400Y-130391392D01*
X155199398Y-130459513D01*
X155145742Y-130506006D01*
X155075468Y-130516110D01*
X155020332Y-130490929D01*
X155019023Y-130492764D01*
X155010545Y-130486717D01*
X155003173Y-130479358D01*
X154924560Y-130440930D01*
X154907726Y-130432701D01*
X154907724Y-130432701D01*
X154898939Y-130428406D01*
X154889262Y-130426994D01*
X154889261Y-130426994D01*
X154871671Y-130424428D01*
X154831034Y-130418500D01*
X154484966Y-130418500D01*
X154480417Y-130419170D01*
X154480412Y-130419170D01*
X154426155Y-130427157D01*
X154426153Y-130427158D01*
X154416470Y-130428583D01*
X154407682Y-130432898D01*
X154407681Y-130432898D01*
X154365969Y-130453378D01*
X154312325Y-130479716D01*
X154304970Y-130487084D01*
X154304967Y-130487086D01*
X154266829Y-130525292D01*
X154204546Y-130559372D01*
X154133726Y-130554369D01*
X154088638Y-130525448D01*
X154050252Y-130487129D01*
X154033525Y-130475198D01*
X153968276Y-130443303D01*
X153954374Y-130440930D01*
X153952158Y-130444187D01*
X153952000Y-130445191D01*
X153952000Y-131065000D01*
X153931998Y-131133121D01*
X153878342Y-131179614D01*
X153826000Y-131191000D01*
X153570000Y-131191000D01*
X153501879Y-131170998D01*
X153455386Y-131117342D01*
X153444000Y-131065000D01*
X153444000Y-130453378D01*
X153440027Y-130439848D01*
X153422469Y-130437324D01*
X153357888Y-130407831D01*
X153319504Y-130348105D01*
X153314400Y-130312606D01*
X153314400Y-129806233D01*
X153334402Y-129738112D01*
X153388058Y-129691619D01*
X153464981Y-129682654D01*
X153495845Y-129688793D01*
X153508100Y-129690000D01*
X154014285Y-129690000D01*
X154029524Y-129685525D01*
X154030729Y-129684135D01*
X154032400Y-129676452D01*
X154032400Y-129029000D01*
X154052402Y-128960879D01*
X154106058Y-128914386D01*
X154158400Y-128903000D01*
X154414400Y-128903000D01*
X154482521Y-128923002D01*
G37*
%TD.AperFunction*%
%TD*%
%TA.AperFunction,Conductor*%
%TO.N,+5V*%
G36*
X160518248Y-104464802D02*
G01*
X160562825Y-104514451D01*
X161036000Y-105460800D01*
X161052984Y-105460800D01*
X161069362Y-105465297D01*
X161068890Y-105467017D01*
X161115838Y-105480802D01*
X161148020Y-105517942D01*
X161164152Y-105532433D01*
X161172822Y-105534400D01*
X161678800Y-105534400D01*
X161746921Y-105554402D01*
X161793414Y-105608058D01*
X161804800Y-105660400D01*
X161804800Y-105916400D01*
X161784798Y-105984521D01*
X161731142Y-106031014D01*
X161678800Y-106042400D01*
X161176820Y-106042400D01*
X161161581Y-106046875D01*
X161142721Y-106068640D01*
X161138581Y-106077707D01*
X161078857Y-106116094D01*
X161043352Y-106121200D01*
X160814800Y-106121200D01*
X160746679Y-106101198D01*
X160700186Y-106047542D01*
X160688800Y-105995200D01*
X160688800Y-105961515D01*
X160684325Y-105946276D01*
X160682935Y-105945071D01*
X160675252Y-105943400D01*
X158962915Y-105943400D01*
X158947676Y-105947875D01*
X158946471Y-105949265D01*
X158944800Y-105956948D01*
X158944800Y-105995200D01*
X158924798Y-106063321D01*
X158871142Y-106109814D01*
X158818800Y-106121200D01*
X158749000Y-106121200D01*
X158680879Y-106101198D01*
X158634386Y-106047542D01*
X158623000Y-105995200D01*
X158623000Y-105417285D01*
X158944800Y-105417285D01*
X158949275Y-105432524D01*
X158950665Y-105433729D01*
X158958348Y-105435400D01*
X159544685Y-105435400D01*
X159559924Y-105430925D01*
X159561129Y-105429535D01*
X159562800Y-105421852D01*
X159562800Y-105417285D01*
X160070800Y-105417285D01*
X160075275Y-105432524D01*
X160076665Y-105433729D01*
X160084348Y-105435400D01*
X160670685Y-105435400D01*
X160685924Y-105430925D01*
X160687129Y-105429535D01*
X160688800Y-105421852D01*
X160688800Y-105359949D01*
X160687593Y-105347694D01*
X160684955Y-105334432D01*
X160675639Y-105311941D01*
X160665557Y-105296852D01*
X160648348Y-105279643D01*
X160633259Y-105269561D01*
X160610768Y-105260245D01*
X160597506Y-105257607D01*
X160585251Y-105256400D01*
X160088915Y-105256400D01*
X160073676Y-105260875D01*
X160072471Y-105262265D01*
X160070800Y-105269948D01*
X160070800Y-105417285D01*
X159562800Y-105417285D01*
X159562800Y-105274515D01*
X159558325Y-105259276D01*
X159556935Y-105258071D01*
X159549252Y-105256400D01*
X159048349Y-105256400D01*
X159036094Y-105257607D01*
X159022832Y-105260245D01*
X159000341Y-105269561D01*
X158985252Y-105279643D01*
X158968043Y-105296852D01*
X158957961Y-105311941D01*
X158948645Y-105334432D01*
X158946007Y-105347694D01*
X158944800Y-105359949D01*
X158944800Y-105417285D01*
X158623000Y-105417285D01*
X158623000Y-104570800D01*
X158643002Y-104502679D01*
X158696658Y-104456186D01*
X158749000Y-104444800D01*
X160450127Y-104444800D01*
X160518248Y-104464802D01*
G37*
%TD.AperFunction*%
%TD*%
%TA.AperFunction,Conductor*%
%TO.N,+5V*%
G36*
X160611064Y-117607232D02*
G01*
X160657557Y-117660888D01*
X160661602Y-117670852D01*
X161012737Y-118654030D01*
X161043833Y-118654030D01*
X161111954Y-118674032D01*
X161127092Y-118691502D01*
X161128907Y-118689481D01*
X161157353Y-118715033D01*
X161166022Y-118717000D01*
X161672000Y-118717000D01*
X161740121Y-118737002D01*
X161786614Y-118790658D01*
X161798000Y-118843000D01*
X161798000Y-119099000D01*
X161777998Y-119167121D01*
X161724342Y-119213614D01*
X161672000Y-119225000D01*
X161170020Y-119225000D01*
X161142933Y-119232953D01*
X161103142Y-119258526D01*
X161067643Y-119263630D01*
X160705790Y-119263630D01*
X160637669Y-119243628D01*
X160591176Y-119189972D01*
X160581424Y-119131438D01*
X160580400Y-119131438D01*
X160580400Y-119125295D01*
X160580397Y-119125277D01*
X160580400Y-119125247D01*
X160580400Y-119067915D01*
X160575925Y-119052676D01*
X160574535Y-119051471D01*
X160566852Y-119049800D01*
X159580400Y-119049800D01*
X159512279Y-119029798D01*
X159465786Y-118976142D01*
X159454400Y-118923800D01*
X159454400Y-118523685D01*
X159962400Y-118523685D01*
X159966875Y-118538924D01*
X159968265Y-118540129D01*
X159975948Y-118541800D01*
X160562285Y-118541800D01*
X160577524Y-118537325D01*
X160578729Y-118535935D01*
X160580400Y-118528252D01*
X160580400Y-118466349D01*
X160579193Y-118454094D01*
X160576555Y-118440832D01*
X160567239Y-118418341D01*
X160557157Y-118403252D01*
X160539948Y-118386043D01*
X160524859Y-118375961D01*
X160502368Y-118366645D01*
X160489106Y-118364007D01*
X160476851Y-118362800D01*
X159980515Y-118362800D01*
X159965276Y-118367275D01*
X159964071Y-118368665D01*
X159962400Y-118376348D01*
X159962400Y-118523685D01*
X159454400Y-118523685D01*
X159454400Y-118380915D01*
X159449925Y-118365676D01*
X159448535Y-118364471D01*
X159440852Y-118362800D01*
X158939949Y-118362800D01*
X158927694Y-118364007D01*
X158914430Y-118366645D01*
X158900954Y-118372227D01*
X158830364Y-118379816D01*
X158766877Y-118348036D01*
X158730651Y-118286977D01*
X158726737Y-118255818D01*
X158726737Y-117713230D01*
X158746739Y-117645109D01*
X158800395Y-117598616D01*
X158852737Y-117587230D01*
X160542943Y-117587230D01*
X160611064Y-117607232D01*
G37*
%TD.AperFunction*%
%TD*%
%TA.AperFunction,Conductor*%
%TO.N,/LDO_VIN*%
G36*
X175609307Y-105176002D02*
G01*
X175655800Y-105229658D01*
X175665904Y-105299932D01*
X175654385Y-105337335D01*
X175650872Y-105344522D01*
X175645165Y-105362986D01*
X175637060Y-105418543D01*
X175636400Y-105427642D01*
X175636400Y-105497385D01*
X175640875Y-105512624D01*
X175642265Y-105513829D01*
X175649948Y-105515500D01*
X177572400Y-105515500D01*
X177640521Y-105535502D01*
X177687014Y-105589158D01*
X177698400Y-105641500D01*
X177698400Y-106421884D01*
X177702875Y-106437123D01*
X177704265Y-106438328D01*
X177711948Y-106439999D01*
X178923722Y-106439999D01*
X178934802Y-106439188D01*
X179004201Y-106454164D01*
X179054487Y-106504282D01*
X179070000Y-106564852D01*
X179070000Y-107062000D01*
X179049998Y-107130121D01*
X178996342Y-107176614D01*
X178944000Y-107188000D01*
X178308000Y-107188000D01*
X178050402Y-107316799D01*
X177994053Y-107330101D01*
X177959824Y-107330101D01*
X177956430Y-107330470D01*
X177956424Y-107330470D01*
X177906478Y-107335895D01*
X177906474Y-107335896D01*
X177898620Y-107336749D01*
X177764376Y-107387074D01*
X177757197Y-107392454D01*
X177757194Y-107392456D01*
X177706644Y-107430342D01*
X177649654Y-107473054D01*
X177616308Y-107517548D01*
X177614625Y-107519793D01*
X177570148Y-107556926D01*
X177292000Y-107696000D01*
X177292000Y-108840000D01*
X177271998Y-108908121D01*
X177218342Y-108954614D01*
X177166000Y-108966000D01*
X177088818Y-108966000D01*
X177020697Y-108945998D01*
X176974204Y-108892342D01*
X176964395Y-108823613D01*
X176964210Y-108823600D01*
X176964272Y-108822749D01*
X176964138Y-108821812D01*
X176964539Y-108819060D01*
X176965200Y-108809958D01*
X176965200Y-108577715D01*
X176960725Y-108562476D01*
X176959335Y-108561271D01*
X176951652Y-108559600D01*
X176229200Y-108559600D01*
X176161079Y-108539598D01*
X176114586Y-108485942D01*
X176103200Y-108433600D01*
X176103200Y-108033485D01*
X176611200Y-108033485D01*
X176615675Y-108048724D01*
X176617065Y-108049929D01*
X176624748Y-108051600D01*
X176947084Y-108051600D01*
X176962323Y-108047125D01*
X176963528Y-108045735D01*
X176965199Y-108038052D01*
X176965199Y-107801279D01*
X176964528Y-107792110D01*
X176956268Y-107735991D01*
X176950526Y-107717512D01*
X176906905Y-107628667D01*
X176894945Y-107611960D01*
X176825335Y-107542473D01*
X176808613Y-107530545D01*
X176719675Y-107487071D01*
X176701214Y-107481365D01*
X176645657Y-107473260D01*
X176636558Y-107472600D01*
X176629315Y-107472600D01*
X176614076Y-107477075D01*
X176612871Y-107478465D01*
X176611200Y-107486148D01*
X176611200Y-108033485D01*
X176103200Y-108033485D01*
X176103200Y-107490716D01*
X176098725Y-107475477D01*
X176097335Y-107474272D01*
X176089652Y-107472601D01*
X176077879Y-107472601D01*
X176068710Y-107473272D01*
X176012591Y-107481532D01*
X175994112Y-107487274D01*
X175905267Y-107530895D01*
X175888560Y-107542855D01*
X175819073Y-107612465D01*
X175807145Y-107629187D01*
X175763671Y-107718125D01*
X175757965Y-107736586D01*
X175749860Y-107792143D01*
X175749200Y-107801242D01*
X175749200Y-108140652D01*
X175729198Y-108208773D01*
X175675542Y-108255266D01*
X175605268Y-108265370D01*
X175540688Y-108235876D01*
X175531041Y-108224929D01*
X175524049Y-108219073D01*
X175514000Y-108204000D01*
X175417614Y-108204000D01*
X175375693Y-108196822D01*
X175350416Y-108187904D01*
X175350415Y-108187904D01*
X175341918Y-108184906D01*
X175242370Y-108179571D01*
X175229471Y-108181426D01*
X175159200Y-108171324D01*
X175105543Y-108124833D01*
X175085539Y-108056713D01*
X175106773Y-107986708D01*
X175121639Y-107964459D01*
X175130955Y-107941968D01*
X175133593Y-107928706D01*
X175133792Y-107926683D01*
X175130325Y-107914876D01*
X175128935Y-107913671D01*
X175121252Y-107912000D01*
X174577800Y-107912000D01*
X174509679Y-107891998D01*
X174463186Y-107838342D01*
X174451800Y-107786000D01*
X174451800Y-107593885D01*
X174751800Y-107593885D01*
X174756275Y-107609124D01*
X174757665Y-107610329D01*
X174765348Y-107612000D01*
X175116685Y-107612000D01*
X175131924Y-107607525D01*
X175133129Y-107606135D01*
X175134183Y-107601287D01*
X175133593Y-107595294D01*
X175130955Y-107582032D01*
X175121639Y-107559541D01*
X175111557Y-107544452D01*
X175094348Y-107527243D01*
X175079259Y-107517161D01*
X175056768Y-107507845D01*
X175043506Y-107505207D01*
X175031251Y-107504000D01*
X174769915Y-107504000D01*
X174754676Y-107508475D01*
X174753471Y-107509865D01*
X174751800Y-107517548D01*
X174751800Y-107593885D01*
X174451800Y-107593885D01*
X174451800Y-107522115D01*
X174447325Y-107506876D01*
X174445935Y-107505671D01*
X174438252Y-107504000D01*
X174378300Y-107504000D01*
X174310179Y-107483998D01*
X174263686Y-107430342D01*
X174252300Y-107378000D01*
X174252300Y-107196000D01*
X174272302Y-107127879D01*
X174325958Y-107081386D01*
X174378300Y-107070000D01*
X174433685Y-107070000D01*
X174448924Y-107065525D01*
X174450129Y-107064135D01*
X174451800Y-107056452D01*
X174451800Y-107051885D01*
X174751800Y-107051885D01*
X174756275Y-107067124D01*
X174757665Y-107068329D01*
X174765348Y-107070000D01*
X175031251Y-107070000D01*
X175043506Y-107068793D01*
X175056768Y-107066155D01*
X175079259Y-107056839D01*
X175094348Y-107046757D01*
X175111557Y-107029548D01*
X175121639Y-107014459D01*
X175130955Y-106991968D01*
X175133593Y-106978706D01*
X175133792Y-106976683D01*
X175130325Y-106964876D01*
X175128935Y-106963671D01*
X175121252Y-106962000D01*
X174769915Y-106962000D01*
X174754676Y-106966475D01*
X174753471Y-106967865D01*
X174751800Y-106975548D01*
X174751800Y-107051885D01*
X174451800Y-107051885D01*
X174451800Y-106643885D01*
X174751800Y-106643885D01*
X174756275Y-106659124D01*
X174757665Y-106660329D01*
X174765348Y-106662000D01*
X175116685Y-106662000D01*
X175131924Y-106657525D01*
X175133129Y-106656135D01*
X175134183Y-106651287D01*
X175133593Y-106645294D01*
X175130955Y-106632032D01*
X175121639Y-106609541D01*
X175111557Y-106594452D01*
X175094348Y-106577243D01*
X175079259Y-106567161D01*
X175056768Y-106557845D01*
X175043506Y-106555207D01*
X175031251Y-106554000D01*
X174769915Y-106554000D01*
X174754676Y-106558475D01*
X174753471Y-106559865D01*
X174751800Y-106567548D01*
X174751800Y-106643885D01*
X174451800Y-106643885D01*
X174451800Y-106572115D01*
X174447325Y-106556876D01*
X174445935Y-106555671D01*
X174438252Y-106554000D01*
X174370000Y-106554000D01*
X174301879Y-106533998D01*
X174255386Y-106480342D01*
X174244000Y-106428000D01*
X174244000Y-106111321D01*
X175636401Y-106111321D01*
X175637072Y-106120490D01*
X175645332Y-106176609D01*
X175651074Y-106195088D01*
X175694695Y-106283933D01*
X175706655Y-106300640D01*
X175776265Y-106370127D01*
X175792987Y-106382055D01*
X175881925Y-106425529D01*
X175900386Y-106431235D01*
X175955943Y-106439340D01*
X175965042Y-106440000D01*
X177172285Y-106440000D01*
X177187524Y-106435525D01*
X177188729Y-106434135D01*
X177190400Y-106426452D01*
X177190400Y-106041615D01*
X177185925Y-106026376D01*
X177184535Y-106025171D01*
X177176852Y-106023500D01*
X175654516Y-106023500D01*
X175639277Y-106027975D01*
X175638072Y-106029365D01*
X175636401Y-106037048D01*
X175636401Y-106111321D01*
X174244000Y-106111321D01*
X174244000Y-105449000D01*
X174264002Y-105380879D01*
X174317658Y-105334386D01*
X174370000Y-105323000D01*
X174424451Y-105323000D01*
X174436706Y-105321793D01*
X174449968Y-105319155D01*
X174472459Y-105309839D01*
X174487548Y-105299757D01*
X174504757Y-105282548D01*
X174514840Y-105267458D01*
X174528788Y-105233783D01*
X174573336Y-105178502D01*
X174645197Y-105156000D01*
X175541186Y-105156000D01*
X175609307Y-105176002D01*
G37*
%TD.AperFunction*%
%TD*%
%TA.AperFunction,Conductor*%
%TO.N,+5V*%
G36*
X160504803Y-110914402D02*
G01*
X160551296Y-110968058D01*
X160554659Y-110976158D01*
X160905000Y-111910400D01*
X161057602Y-111910400D01*
X161125723Y-111930402D01*
X161141801Y-111942663D01*
X161157354Y-111956633D01*
X161166021Y-111958600D01*
X161672000Y-111958600D01*
X161740121Y-111978602D01*
X161786614Y-112032258D01*
X161798000Y-112084600D01*
X161798000Y-112340600D01*
X161777998Y-112408721D01*
X161724342Y-112455214D01*
X161672000Y-112466600D01*
X161261705Y-112466600D01*
X161225603Y-112461317D01*
X161179368Y-112447490D01*
X161131197Y-112433084D01*
X161122221Y-112433029D01*
X161122220Y-112433029D01*
X161060907Y-112432655D01*
X160985542Y-112432194D01*
X160845492Y-112472221D01*
X160808058Y-112495840D01*
X160786939Y-112509165D01*
X160718654Y-112528599D01*
X160650702Y-112508030D01*
X160604658Y-112453988D01*
X160602265Y-112447490D01*
X160599935Y-112445471D01*
X160592252Y-112443800D01*
X159605800Y-112443800D01*
X159537679Y-112423798D01*
X159491186Y-112370142D01*
X159479800Y-112317800D01*
X159479800Y-111917685D01*
X159987800Y-111917685D01*
X159992275Y-111932924D01*
X159993665Y-111934129D01*
X160001348Y-111935800D01*
X160587685Y-111935800D01*
X160602924Y-111931325D01*
X160604129Y-111929935D01*
X160605800Y-111922252D01*
X160605800Y-111860349D01*
X160604593Y-111848094D01*
X160601955Y-111834832D01*
X160592639Y-111812341D01*
X160582557Y-111797252D01*
X160565348Y-111780043D01*
X160550259Y-111769961D01*
X160527768Y-111760645D01*
X160514506Y-111758007D01*
X160502251Y-111756800D01*
X160005915Y-111756800D01*
X159990676Y-111761275D01*
X159989471Y-111762665D01*
X159987800Y-111770348D01*
X159987800Y-111917685D01*
X159479800Y-111917685D01*
X159479800Y-111774915D01*
X159475325Y-111759676D01*
X159473935Y-111758471D01*
X159466252Y-111756800D01*
X158965349Y-111756800D01*
X158953094Y-111758007D01*
X158939832Y-111760645D01*
X158917341Y-111769961D01*
X158902252Y-111780043D01*
X158885043Y-111797252D01*
X158874961Y-111812340D01*
X158861409Y-111845059D01*
X158816861Y-111900340D01*
X158749498Y-111922761D01*
X158680706Y-111905203D01*
X158632328Y-111853241D01*
X158619000Y-111796841D01*
X158619000Y-111020400D01*
X158639002Y-110952279D01*
X158692658Y-110905786D01*
X158745000Y-110894400D01*
X160436682Y-110894400D01*
X160504803Y-110914402D01*
G37*
%TD.AperFunction*%
%TD*%
M02*
