%TF.GenerationSoftware,KiCad,Pcbnew,(6.0.8)*%
%TF.CreationDate,2024-05-22T19:13:14+02:00*%
%TF.ProjectId,BSPD-07,42535044-2d30-4372-9e6b-696361645f70,rev?*%
%TF.SameCoordinates,Original*%
%TF.FileFunction,Legend,Bot*%
%TF.FilePolarity,Positive*%
%FSLAX46Y46*%
G04 Gerber Fmt 4.6, Leading zero omitted, Abs format (unit mm)*
G04 Created by KiCad (PCBNEW (6.0.8)) date 2024-05-22 19:13:14*
%MOMM*%
%LPD*%
G01*
G04 APERTURE LIST*
G04 Aperture macros list*
%AMRoundRect*
0 Rectangle with rounded corners*
0 $1 Rounding radius*
0 $2 $3 $4 $5 $6 $7 $8 $9 X,Y pos of 4 corners*
0 Add a 4 corners polygon primitive as box body*
4,1,4,$2,$3,$4,$5,$6,$7,$8,$9,$2,$3,0*
0 Add four circle primitives for the rounded corners*
1,1,$1+$1,$2,$3*
1,1,$1+$1,$4,$5*
1,1,$1+$1,$6,$7*
1,1,$1+$1,$8,$9*
0 Add four rect primitives between the rounded corners*
20,1,$1+$1,$2,$3,$4,$5,0*
20,1,$1+$1,$4,$5,$6,$7,0*
20,1,$1+$1,$6,$7,$8,$9,0*
20,1,$1+$1,$8,$9,$2,$3,0*%
G04 Aperture macros list end*
%ADD10C,0.100000*%
%ADD11C,0.150000*%
%ADD12C,0.120000*%
%ADD13C,1.269000*%
%ADD14R,1.700000X1.700000*%
%ADD15O,1.700000X1.700000*%
%ADD16C,1.965000*%
%ADD17C,4.665000*%
%ADD18RoundRect,0.250000X0.650000X-0.325000X0.650000X0.325000X-0.650000X0.325000X-0.650000X-0.325000X0*%
%ADD19RoundRect,0.250000X-0.650000X0.325000X-0.650000X-0.325000X0.650000X-0.325000X0.650000X0.325000X0*%
%ADD20RoundRect,0.140000X-0.140000X-0.170000X0.140000X-0.170000X0.140000X0.170000X-0.140000X0.170000X0*%
%ADD21RoundRect,0.250000X0.325000X0.650000X-0.325000X0.650000X-0.325000X-0.650000X0.325000X-0.650000X0*%
%ADD22RoundRect,0.243750X-0.243750X-0.456250X0.243750X-0.456250X0.243750X0.456250X-0.243750X0.456250X0*%
%ADD23RoundRect,0.140000X0.140000X0.170000X-0.140000X0.170000X-0.140000X-0.170000X0.140000X-0.170000X0*%
%ADD24RoundRect,0.150000X0.587500X0.150000X-0.587500X0.150000X-0.587500X-0.150000X0.587500X-0.150000X0*%
G04 APERTURE END LIST*
D10*
X154757657Y-90025542D02*
X154671942Y-90054114D01*
X154643371Y-90082685D01*
X154614800Y-90139828D01*
X154614800Y-90225542D01*
X154643371Y-90282685D01*
X154671942Y-90311257D01*
X154729085Y-90339828D01*
X154957657Y-90339828D01*
X154957657Y-89739828D01*
X154757657Y-89739828D01*
X154700514Y-89768400D01*
X154671942Y-89796971D01*
X154643371Y-89854114D01*
X154643371Y-89911257D01*
X154671942Y-89968400D01*
X154700514Y-89996971D01*
X154757657Y-90025542D01*
X154957657Y-90025542D01*
X154014800Y-90339828D02*
X154214800Y-90054114D01*
X154357657Y-90339828D02*
X154357657Y-89739828D01*
X154129085Y-89739828D01*
X154071942Y-89768400D01*
X154043371Y-89796971D01*
X154014800Y-89854114D01*
X154014800Y-89939828D01*
X154043371Y-89996971D01*
X154071942Y-90025542D01*
X154129085Y-90054114D01*
X154357657Y-90054114D01*
X153757657Y-90339828D02*
X153757657Y-89739828D01*
X153414800Y-90339828D02*
X153671942Y-89996971D01*
X153414800Y-89739828D02*
X153757657Y-90082685D01*
X153300514Y-90396971D02*
X152843371Y-90396971D01*
X152700514Y-90339828D02*
X152700514Y-89739828D01*
X152414800Y-90339828D02*
X152414800Y-89739828D01*
X152071942Y-90339828D01*
X152071942Y-89739828D01*
X171545085Y-90177942D02*
X171459371Y-90206514D01*
X171430800Y-90235085D01*
X171402228Y-90292228D01*
X171402228Y-90377942D01*
X171430800Y-90435085D01*
X171459371Y-90463657D01*
X171516514Y-90492228D01*
X171745085Y-90492228D01*
X171745085Y-89892228D01*
X171545085Y-89892228D01*
X171487942Y-89920800D01*
X171459371Y-89949371D01*
X171430800Y-90006514D01*
X171430800Y-90063657D01*
X171459371Y-90120800D01*
X171487942Y-90149371D01*
X171545085Y-90177942D01*
X171745085Y-90177942D01*
X170802228Y-90492228D02*
X171002228Y-90206514D01*
X171145085Y-90492228D02*
X171145085Y-89892228D01*
X170916514Y-89892228D01*
X170859371Y-89920800D01*
X170830800Y-89949371D01*
X170802228Y-90006514D01*
X170802228Y-90092228D01*
X170830800Y-90149371D01*
X170859371Y-90177942D01*
X170916514Y-90206514D01*
X171145085Y-90206514D01*
X170545085Y-90492228D02*
X170545085Y-89892228D01*
X170202228Y-90492228D02*
X170459371Y-90149371D01*
X170202228Y-89892228D02*
X170545085Y-90235085D01*
X170087942Y-90549371D02*
X169630800Y-90549371D01*
X169573657Y-89892228D02*
X169230800Y-89892228D01*
X169402228Y-90492228D02*
X169402228Y-89892228D01*
X168687942Y-90492228D02*
X168887942Y-90206514D01*
X169030800Y-90492228D02*
X169030800Y-89892228D01*
X168802228Y-89892228D01*
X168745085Y-89920800D01*
X168716514Y-89949371D01*
X168687942Y-90006514D01*
X168687942Y-90092228D01*
X168716514Y-90149371D01*
X168745085Y-90177942D01*
X168802228Y-90206514D01*
X169030800Y-90206514D01*
D11*
X149424657Y-113460542D02*
X150324657Y-113460542D01*
X149981800Y-113460542D02*
X150024657Y-113374828D01*
X150024657Y-113203400D01*
X149981800Y-113117685D01*
X149938942Y-113074828D01*
X149853228Y-113031971D01*
X149596085Y-113031971D01*
X149510371Y-113074828D01*
X149467514Y-113117685D01*
X149424657Y-113203400D01*
X149424657Y-113374828D01*
X149467514Y-113460542D01*
X150024657Y-112731971D02*
X149424657Y-112517685D01*
X150024657Y-112303400D02*
X149424657Y-112517685D01*
X149210371Y-112603400D01*
X149167514Y-112646257D01*
X149124657Y-112731971D01*
X149424657Y-111274828D02*
X150324657Y-111274828D01*
X149424657Y-110760542D02*
X149938942Y-111146257D01*
X150324657Y-110760542D02*
X149810371Y-111274828D01*
X149510371Y-110374828D02*
X149467514Y-110331971D01*
X149424657Y-110374828D01*
X149467514Y-110417685D01*
X149510371Y-110374828D01*
X149424657Y-110374828D01*
X149424657Y-109946257D02*
X150324657Y-109946257D01*
X150324657Y-109603400D01*
X150281800Y-109517685D01*
X150238942Y-109474828D01*
X150153228Y-109431971D01*
X150024657Y-109431971D01*
X149938942Y-109474828D01*
X149896085Y-109517685D01*
X149853228Y-109603400D01*
X149853228Y-109946257D01*
X149467514Y-108703400D02*
X149424657Y-108789114D01*
X149424657Y-108960542D01*
X149467514Y-109046257D01*
X149553228Y-109089114D01*
X149896085Y-109089114D01*
X149981800Y-109046257D01*
X150024657Y-108960542D01*
X150024657Y-108789114D01*
X149981800Y-108703400D01*
X149896085Y-108660542D01*
X149810371Y-108660542D01*
X149724657Y-109089114D01*
X149424657Y-108274828D02*
X150024657Y-108274828D01*
X149853228Y-108274828D02*
X149938942Y-108231971D01*
X149981800Y-108189114D01*
X150024657Y-108103400D01*
X150024657Y-108017685D01*
X150024657Y-107331971D02*
X149296085Y-107331971D01*
X149210371Y-107374828D01*
X149167514Y-107417685D01*
X149124657Y-107503400D01*
X149124657Y-107631971D01*
X149167514Y-107717685D01*
X149467514Y-107331971D02*
X149424657Y-107417685D01*
X149424657Y-107589114D01*
X149467514Y-107674828D01*
X149510371Y-107717685D01*
X149596085Y-107760542D01*
X149853228Y-107760542D01*
X149938942Y-107717685D01*
X149981800Y-107674828D01*
X150024657Y-107589114D01*
X150024657Y-107417685D01*
X149981800Y-107331971D01*
X149424657Y-106774828D02*
X149467514Y-106860542D01*
X149510371Y-106903400D01*
X149596085Y-106946257D01*
X149853228Y-106946257D01*
X149938942Y-106903400D01*
X149981800Y-106860542D01*
X150024657Y-106774828D01*
X150024657Y-106646257D01*
X149981800Y-106560542D01*
X149938942Y-106517685D01*
X149853228Y-106474828D01*
X149596085Y-106474828D01*
X149510371Y-106517685D01*
X149467514Y-106560542D01*
X149424657Y-106646257D01*
X149424657Y-106774828D01*
X149424657Y-105960542D02*
X149467514Y-106046257D01*
X149553228Y-106089114D01*
X150324657Y-106089114D01*
D10*
X174968228Y-96816828D02*
X175311085Y-96816828D01*
X175139657Y-96816828D02*
X175139657Y-96216828D01*
X175196800Y-96302542D01*
X175253942Y-96359685D01*
X175311085Y-96388257D01*
X174739657Y-96273971D02*
X174711085Y-96245400D01*
X174653942Y-96216828D01*
X174511085Y-96216828D01*
X174453942Y-96245400D01*
X174425371Y-96273971D01*
X174396800Y-96331114D01*
X174396800Y-96388257D01*
X174425371Y-96473971D01*
X174768228Y-96816828D01*
X174396800Y-96816828D01*
X174225371Y-96216828D02*
X174025371Y-96816828D01*
X173825371Y-96216828D01*
X154957657Y-96089828D02*
X154614800Y-96089828D01*
X154786228Y-96689828D02*
X154786228Y-96089828D01*
X154414800Y-96689828D02*
X154414800Y-96089828D01*
X154186228Y-96089828D01*
X154129085Y-96118400D01*
X154100514Y-96146971D01*
X154071942Y-96204114D01*
X154071942Y-96289828D01*
X154100514Y-96346971D01*
X154129085Y-96375542D01*
X154186228Y-96404114D01*
X154414800Y-96404114D01*
X153843371Y-96661257D02*
X153757657Y-96689828D01*
X153614800Y-96689828D01*
X153557657Y-96661257D01*
X153529085Y-96632685D01*
X153500514Y-96575542D01*
X153500514Y-96518400D01*
X153529085Y-96461257D01*
X153557657Y-96432685D01*
X153614800Y-96404114D01*
X153729085Y-96375542D01*
X153786228Y-96346971D01*
X153814800Y-96318400D01*
X153843371Y-96261257D01*
X153843371Y-96204114D01*
X153814800Y-96146971D01*
X153786228Y-96118400D01*
X153729085Y-96089828D01*
X153586228Y-96089828D01*
X153500514Y-96118400D01*
X153386228Y-96746971D02*
X152929085Y-96746971D01*
X152786228Y-96689828D02*
X152786228Y-96089828D01*
X152500514Y-96689828D02*
X152500514Y-96089828D01*
X152157657Y-96689828D01*
X152157657Y-96089828D01*
X167475085Y-96788257D02*
X167389371Y-96816828D01*
X167246514Y-96816828D01*
X167189371Y-96788257D01*
X167160800Y-96759685D01*
X167132228Y-96702542D01*
X167132228Y-96645400D01*
X167160800Y-96588257D01*
X167189371Y-96559685D01*
X167246514Y-96531114D01*
X167360800Y-96502542D01*
X167417942Y-96473971D01*
X167446514Y-96445400D01*
X167475085Y-96388257D01*
X167475085Y-96331114D01*
X167446514Y-96273971D01*
X167417942Y-96245400D01*
X167360800Y-96216828D01*
X167217942Y-96216828D01*
X167132228Y-96245400D01*
X166675085Y-96502542D02*
X166875085Y-96502542D01*
X166875085Y-96816828D02*
X166875085Y-96216828D01*
X166589371Y-96216828D01*
X166503657Y-96873971D02*
X166046514Y-96873971D01*
X165789371Y-96216828D02*
X165675085Y-96216828D01*
X165617942Y-96245400D01*
X165560800Y-96302542D01*
X165532228Y-96416828D01*
X165532228Y-96616828D01*
X165560800Y-96731114D01*
X165617942Y-96788257D01*
X165675085Y-96816828D01*
X165789371Y-96816828D01*
X165846514Y-96788257D01*
X165903657Y-96731114D01*
X165932228Y-96616828D01*
X165932228Y-96416828D01*
X165903657Y-96302542D01*
X165846514Y-96245400D01*
X165789371Y-96216828D01*
X165275085Y-96216828D02*
X165275085Y-96702542D01*
X165246514Y-96759685D01*
X165217942Y-96788257D01*
X165160800Y-96816828D01*
X165046514Y-96816828D01*
X164989371Y-96788257D01*
X164960800Y-96759685D01*
X164932228Y-96702542D01*
X164932228Y-96216828D01*
X164732228Y-96216828D02*
X164389371Y-96216828D01*
X164560800Y-96816828D02*
X164560800Y-96216828D01*
X166948085Y-90438257D02*
X166862371Y-90466828D01*
X166719514Y-90466828D01*
X166662371Y-90438257D01*
X166633800Y-90409685D01*
X166605228Y-90352542D01*
X166605228Y-90295400D01*
X166633800Y-90238257D01*
X166662371Y-90209685D01*
X166719514Y-90181114D01*
X166833800Y-90152542D01*
X166890942Y-90123971D01*
X166919514Y-90095400D01*
X166948085Y-90038257D01*
X166948085Y-89981114D01*
X166919514Y-89923971D01*
X166890942Y-89895400D01*
X166833800Y-89866828D01*
X166690942Y-89866828D01*
X166605228Y-89895400D01*
X166148085Y-90152542D02*
X166348085Y-90152542D01*
X166348085Y-90466828D02*
X166348085Y-89866828D01*
X166062371Y-89866828D01*
X165976657Y-90523971D02*
X165519514Y-90523971D01*
X165376657Y-90466828D02*
X165376657Y-89866828D01*
X165090942Y-90466828D02*
X165090942Y-89866828D01*
X164748085Y-90466828D01*
X164748085Y-89866828D01*
X175910685Y-89892228D02*
X175567828Y-89892228D01*
X175739257Y-90492228D02*
X175739257Y-89892228D01*
X175367828Y-90492228D02*
X175367828Y-89892228D01*
X175139257Y-89892228D01*
X175082114Y-89920800D01*
X175053542Y-89949371D01*
X175024971Y-90006514D01*
X175024971Y-90092228D01*
X175053542Y-90149371D01*
X175082114Y-90177942D01*
X175139257Y-90206514D01*
X175367828Y-90206514D01*
X174796400Y-90463657D02*
X174710685Y-90492228D01*
X174567828Y-90492228D01*
X174510685Y-90463657D01*
X174482114Y-90435085D01*
X174453542Y-90377942D01*
X174453542Y-90320800D01*
X174482114Y-90263657D01*
X174510685Y-90235085D01*
X174567828Y-90206514D01*
X174682114Y-90177942D01*
X174739257Y-90149371D01*
X174767828Y-90120800D01*
X174796400Y-90063657D01*
X174796400Y-90006514D01*
X174767828Y-89949371D01*
X174739257Y-89920800D01*
X174682114Y-89892228D01*
X174539257Y-89892228D01*
X174453542Y-89920800D01*
X174339257Y-90549371D02*
X173882114Y-90549371D01*
X173824971Y-89892228D02*
X173482114Y-89892228D01*
X173653542Y-90492228D02*
X173653542Y-89892228D01*
X172939257Y-90492228D02*
X173139257Y-90206514D01*
X173282114Y-90492228D02*
X173282114Y-89892228D01*
X173053542Y-89892228D01*
X172996400Y-89920800D01*
X172967828Y-89949371D01*
X172939257Y-90006514D01*
X172939257Y-90092228D01*
X172967828Y-90149371D01*
X172996400Y-90177942D01*
X173053542Y-90206514D01*
X173282114Y-90206514D01*
X157947085Y-96089828D02*
X158232800Y-96089828D01*
X158261371Y-96375542D01*
X158232800Y-96346971D01*
X158175657Y-96318400D01*
X158032800Y-96318400D01*
X157975657Y-96346971D01*
X157947085Y-96375542D01*
X157918514Y-96432685D01*
X157918514Y-96575542D01*
X157947085Y-96632685D01*
X157975657Y-96661257D01*
X158032800Y-96689828D01*
X158175657Y-96689828D01*
X158232800Y-96661257D01*
X158261371Y-96632685D01*
X157747085Y-96089828D02*
X157547085Y-96689828D01*
X157347085Y-96089828D01*
X170989942Y-96245400D02*
X171047085Y-96216828D01*
X171132800Y-96216828D01*
X171218514Y-96245400D01*
X171275657Y-96302542D01*
X171304228Y-96359685D01*
X171332800Y-96473971D01*
X171332800Y-96559685D01*
X171304228Y-96673971D01*
X171275657Y-96731114D01*
X171218514Y-96788257D01*
X171132800Y-96816828D01*
X171075657Y-96816828D01*
X170989942Y-96788257D01*
X170961371Y-96759685D01*
X170961371Y-96559685D01*
X171075657Y-96559685D01*
X170704228Y-96816828D02*
X170704228Y-96216828D01*
X170361371Y-96816828D01*
X170361371Y-96216828D01*
X170075657Y-96816828D02*
X170075657Y-96216828D01*
X169932800Y-96216828D01*
X169847085Y-96245400D01*
X169789942Y-96302542D01*
X169761371Y-96359685D01*
X169732800Y-96473971D01*
X169732800Y-96559685D01*
X169761371Y-96673971D01*
X169789942Y-96731114D01*
X169847085Y-96788257D01*
X169932800Y-96816828D01*
X170075657Y-96816828D01*
%TO.C,C15*%
X162322628Y-129921771D02*
X162346438Y-129945580D01*
X162417866Y-129969390D01*
X162465485Y-129969390D01*
X162536914Y-129945580D01*
X162584533Y-129897961D01*
X162608342Y-129850342D01*
X162632152Y-129755104D01*
X162632152Y-129683676D01*
X162608342Y-129588438D01*
X162584533Y-129540819D01*
X162536914Y-129493200D01*
X162465485Y-129469390D01*
X162417866Y-129469390D01*
X162346438Y-129493200D01*
X162322628Y-129517009D01*
X161846438Y-129969390D02*
X162132152Y-129969390D01*
X161989295Y-129969390D02*
X161989295Y-129469390D01*
X162036914Y-129540819D01*
X162084533Y-129588438D01*
X162132152Y-129612247D01*
X161394057Y-129469390D02*
X161632152Y-129469390D01*
X161655961Y-129707485D01*
X161632152Y-129683676D01*
X161584533Y-129659866D01*
X161465485Y-129659866D01*
X161417866Y-129683676D01*
X161394057Y-129707485D01*
X161370247Y-129755104D01*
X161370247Y-129874152D01*
X161394057Y-129921771D01*
X161417866Y-129945580D01*
X161465485Y-129969390D01*
X161584533Y-129969390D01*
X161632152Y-129945580D01*
X161655961Y-129921771D01*
%TO.C,C16*%
X164710228Y-129921771D02*
X164734038Y-129945580D01*
X164805466Y-129969390D01*
X164853085Y-129969390D01*
X164924514Y-129945580D01*
X164972133Y-129897961D01*
X164995942Y-129850342D01*
X165019752Y-129755104D01*
X165019752Y-129683676D01*
X164995942Y-129588438D01*
X164972133Y-129540819D01*
X164924514Y-129493200D01*
X164853085Y-129469390D01*
X164805466Y-129469390D01*
X164734038Y-129493200D01*
X164710228Y-129517009D01*
X164234038Y-129969390D02*
X164519752Y-129969390D01*
X164376895Y-129969390D02*
X164376895Y-129469390D01*
X164424514Y-129540819D01*
X164472133Y-129588438D01*
X164519752Y-129612247D01*
X163805466Y-129469390D02*
X163900704Y-129469390D01*
X163948323Y-129493200D01*
X163972133Y-129517009D01*
X164019752Y-129588438D01*
X164043561Y-129683676D01*
X164043561Y-129874152D01*
X164019752Y-129921771D01*
X163995942Y-129945580D01*
X163948323Y-129969390D01*
X163853085Y-129969390D01*
X163805466Y-129945580D01*
X163781657Y-129921771D01*
X163757847Y-129874152D01*
X163757847Y-129755104D01*
X163781657Y-129707485D01*
X163805466Y-129683676D01*
X163853085Y-129659866D01*
X163948323Y-129659866D01*
X163995942Y-129683676D01*
X164019752Y-129707485D01*
X164043561Y-129755104D01*
%TO.C,C20*%
X172746171Y-106561771D02*
X172769980Y-106537961D01*
X172793790Y-106466533D01*
X172793790Y-106418914D01*
X172769980Y-106347485D01*
X172722361Y-106299866D01*
X172674742Y-106276057D01*
X172579504Y-106252247D01*
X172508076Y-106252247D01*
X172412838Y-106276057D01*
X172365219Y-106299866D01*
X172317600Y-106347485D01*
X172293790Y-106418914D01*
X172293790Y-106466533D01*
X172317600Y-106537961D01*
X172341409Y-106561771D01*
X172341409Y-106752247D02*
X172317600Y-106776057D01*
X172293790Y-106823676D01*
X172293790Y-106942723D01*
X172317600Y-106990342D01*
X172341409Y-107014152D01*
X172389028Y-107037961D01*
X172436647Y-107037961D01*
X172508076Y-107014152D01*
X172793790Y-106728438D01*
X172793790Y-107037961D01*
X172293790Y-107347485D02*
X172293790Y-107395104D01*
X172317600Y-107442723D01*
X172341409Y-107466533D01*
X172389028Y-107490342D01*
X172484266Y-107514152D01*
X172603314Y-107514152D01*
X172698552Y-107490342D01*
X172746171Y-107466533D01*
X172769980Y-107442723D01*
X172793790Y-107395104D01*
X172793790Y-107347485D01*
X172769980Y-107299866D01*
X172746171Y-107276057D01*
X172698552Y-107252247D01*
X172603314Y-107228438D01*
X172484266Y-107228438D01*
X172389028Y-107252247D01*
X172341409Y-107276057D01*
X172317600Y-107299866D01*
X172293790Y-107347485D01*
%TO.C,C21*%
X174514628Y-100356171D02*
X174538438Y-100379980D01*
X174609866Y-100403790D01*
X174657485Y-100403790D01*
X174728914Y-100379980D01*
X174776533Y-100332361D01*
X174800342Y-100284742D01*
X174824152Y-100189504D01*
X174824152Y-100118076D01*
X174800342Y-100022838D01*
X174776533Y-99975219D01*
X174728914Y-99927600D01*
X174657485Y-99903790D01*
X174609866Y-99903790D01*
X174538438Y-99927600D01*
X174514628Y-99951409D01*
X174324152Y-99951409D02*
X174300342Y-99927600D01*
X174252723Y-99903790D01*
X174133676Y-99903790D01*
X174086057Y-99927600D01*
X174062247Y-99951409D01*
X174038438Y-99999028D01*
X174038438Y-100046647D01*
X174062247Y-100118076D01*
X174347961Y-100403790D01*
X174038438Y-100403790D01*
X173562247Y-100403790D02*
X173847961Y-100403790D01*
X173705104Y-100403790D02*
X173705104Y-99903790D01*
X173752723Y-99975219D01*
X173800342Y-100022838D01*
X173847961Y-100046647D01*
%TO.C,C14*%
X163897428Y-126822971D02*
X163921238Y-126846780D01*
X163992666Y-126870590D01*
X164040285Y-126870590D01*
X164111714Y-126846780D01*
X164159333Y-126799161D01*
X164183142Y-126751542D01*
X164206952Y-126656304D01*
X164206952Y-126584876D01*
X164183142Y-126489638D01*
X164159333Y-126442019D01*
X164111714Y-126394400D01*
X164040285Y-126370590D01*
X163992666Y-126370590D01*
X163921238Y-126394400D01*
X163897428Y-126418209D01*
X163421238Y-126870590D02*
X163706952Y-126870590D01*
X163564095Y-126870590D02*
X163564095Y-126370590D01*
X163611714Y-126442019D01*
X163659333Y-126489638D01*
X163706952Y-126513447D01*
X162992666Y-126537257D02*
X162992666Y-126870590D01*
X163111714Y-126346780D02*
X163230761Y-126703923D01*
X162921238Y-126703923D01*
%TO.C,C19*%
X175641771Y-106561771D02*
X175665580Y-106537961D01*
X175689390Y-106466533D01*
X175689390Y-106418914D01*
X175665580Y-106347485D01*
X175617961Y-106299866D01*
X175570342Y-106276057D01*
X175475104Y-106252247D01*
X175403676Y-106252247D01*
X175308438Y-106276057D01*
X175260819Y-106299866D01*
X175213200Y-106347485D01*
X175189390Y-106418914D01*
X175189390Y-106466533D01*
X175213200Y-106537961D01*
X175237009Y-106561771D01*
X175689390Y-107037961D02*
X175689390Y-106752247D01*
X175689390Y-106895104D02*
X175189390Y-106895104D01*
X175260819Y-106847485D01*
X175308438Y-106799866D01*
X175332247Y-106752247D01*
X175689390Y-107276057D02*
X175689390Y-107371295D01*
X175665580Y-107418914D01*
X175641771Y-107442723D01*
X175570342Y-107490342D01*
X175475104Y-107514152D01*
X175284628Y-107514152D01*
X175237009Y-107490342D01*
X175213200Y-107466533D01*
X175189390Y-107418914D01*
X175189390Y-107323676D01*
X175213200Y-107276057D01*
X175237009Y-107252247D01*
X175284628Y-107228438D01*
X175403676Y-107228438D01*
X175451295Y-107252247D01*
X175475104Y-107276057D01*
X175498914Y-107323676D01*
X175498914Y-107418914D01*
X175475104Y-107466533D01*
X175451295Y-107490342D01*
X175403676Y-107514152D01*
%TO.C,C12*%
X157344228Y-129921771D02*
X157368038Y-129945580D01*
X157439466Y-129969390D01*
X157487085Y-129969390D01*
X157558514Y-129945580D01*
X157606133Y-129897961D01*
X157629942Y-129850342D01*
X157653752Y-129755104D01*
X157653752Y-129683676D01*
X157629942Y-129588438D01*
X157606133Y-129540819D01*
X157558514Y-129493200D01*
X157487085Y-129469390D01*
X157439466Y-129469390D01*
X157368038Y-129493200D01*
X157344228Y-129517009D01*
X156868038Y-129969390D02*
X157153752Y-129969390D01*
X157010895Y-129969390D02*
X157010895Y-129469390D01*
X157058514Y-129540819D01*
X157106133Y-129588438D01*
X157153752Y-129612247D01*
X156677561Y-129517009D02*
X156653752Y-129493200D01*
X156606133Y-129469390D01*
X156487085Y-129469390D01*
X156439466Y-129493200D01*
X156415657Y-129517009D01*
X156391847Y-129564628D01*
X156391847Y-129612247D01*
X156415657Y-129683676D01*
X156701371Y-129969390D01*
X156391847Y-129969390D01*
%TO.C,C13*%
X159782628Y-129921771D02*
X159806438Y-129945580D01*
X159877866Y-129969390D01*
X159925485Y-129969390D01*
X159996914Y-129945580D01*
X160044533Y-129897961D01*
X160068342Y-129850342D01*
X160092152Y-129755104D01*
X160092152Y-129683676D01*
X160068342Y-129588438D01*
X160044533Y-129540819D01*
X159996914Y-129493200D01*
X159925485Y-129469390D01*
X159877866Y-129469390D01*
X159806438Y-129493200D01*
X159782628Y-129517009D01*
X159306438Y-129969390D02*
X159592152Y-129969390D01*
X159449295Y-129969390D02*
X159449295Y-129469390D01*
X159496914Y-129540819D01*
X159544533Y-129588438D01*
X159592152Y-129612247D01*
X159139771Y-129469390D02*
X158830247Y-129469390D01*
X158996914Y-129659866D01*
X158925485Y-129659866D01*
X158877866Y-129683676D01*
X158854057Y-129707485D01*
X158830247Y-129755104D01*
X158830247Y-129874152D01*
X158854057Y-129921771D01*
X158877866Y-129945580D01*
X158925485Y-129969390D01*
X159068342Y-129969390D01*
X159115961Y-129945580D01*
X159139771Y-129921771D01*
%TO.C,C17*%
X170349028Y-101270571D02*
X170372838Y-101294380D01*
X170444266Y-101318190D01*
X170491885Y-101318190D01*
X170563314Y-101294380D01*
X170610933Y-101246761D01*
X170634742Y-101199142D01*
X170658552Y-101103904D01*
X170658552Y-101032476D01*
X170634742Y-100937238D01*
X170610933Y-100889619D01*
X170563314Y-100842000D01*
X170491885Y-100818190D01*
X170444266Y-100818190D01*
X170372838Y-100842000D01*
X170349028Y-100865809D01*
X169872838Y-101318190D02*
X170158552Y-101318190D01*
X170015695Y-101318190D02*
X170015695Y-100818190D01*
X170063314Y-100889619D01*
X170110933Y-100937238D01*
X170158552Y-100961047D01*
X169706171Y-100818190D02*
X169372838Y-100818190D01*
X169587123Y-101318190D01*
%TO.C,F1*%
X177001466Y-93995085D02*
X177168133Y-93995085D01*
X177168133Y-94256990D02*
X177168133Y-93756990D01*
X176930038Y-93756990D01*
X176477657Y-94256990D02*
X176763371Y-94256990D01*
X176620514Y-94256990D02*
X176620514Y-93756990D01*
X176668133Y-93828419D01*
X176715752Y-93876038D01*
X176763371Y-93899847D01*
%TO.C,C22*%
X174514628Y-101168971D02*
X174538438Y-101192780D01*
X174609866Y-101216590D01*
X174657485Y-101216590D01*
X174728914Y-101192780D01*
X174776533Y-101145161D01*
X174800342Y-101097542D01*
X174824152Y-101002304D01*
X174824152Y-100930876D01*
X174800342Y-100835638D01*
X174776533Y-100788019D01*
X174728914Y-100740400D01*
X174657485Y-100716590D01*
X174609866Y-100716590D01*
X174538438Y-100740400D01*
X174514628Y-100764209D01*
X174324152Y-100764209D02*
X174300342Y-100740400D01*
X174252723Y-100716590D01*
X174133676Y-100716590D01*
X174086057Y-100740400D01*
X174062247Y-100764209D01*
X174038438Y-100811828D01*
X174038438Y-100859447D01*
X174062247Y-100930876D01*
X174347961Y-101216590D01*
X174038438Y-101216590D01*
X173847961Y-100764209D02*
X173824152Y-100740400D01*
X173776533Y-100716590D01*
X173657485Y-100716590D01*
X173609866Y-100740400D01*
X173586057Y-100764209D01*
X173562247Y-100811828D01*
X173562247Y-100859447D01*
X173586057Y-100930876D01*
X173871771Y-101216590D01*
X173562247Y-101216590D01*
%TO.C,FB1*%
X179389885Y-98744933D02*
X179389885Y-98578266D01*
X179651790Y-98578266D02*
X179151790Y-98578266D01*
X179151790Y-98816361D01*
X179389885Y-99173504D02*
X179413695Y-99244933D01*
X179437504Y-99268742D01*
X179485123Y-99292552D01*
X179556552Y-99292552D01*
X179604171Y-99268742D01*
X179627980Y-99244933D01*
X179651790Y-99197314D01*
X179651790Y-99006838D01*
X179151790Y-99006838D01*
X179151790Y-99173504D01*
X179175600Y-99221123D01*
X179199409Y-99244933D01*
X179247028Y-99268742D01*
X179294647Y-99268742D01*
X179342266Y-99244933D01*
X179366076Y-99221123D01*
X179389885Y-99173504D01*
X179389885Y-99006838D01*
X179651790Y-99768742D02*
X179651790Y-99483028D01*
X179651790Y-99625885D02*
X179151790Y-99625885D01*
X179223219Y-99578266D01*
X179270838Y-99530647D01*
X179294647Y-99483028D01*
%TO.C,Q4*%
X178533419Y-94330009D02*
X178581038Y-94306200D01*
X178628657Y-94258580D01*
X178700085Y-94187152D01*
X178747704Y-94163342D01*
X178795323Y-94163342D01*
X178771514Y-94282390D02*
X178819133Y-94258580D01*
X178866752Y-94210961D01*
X178890561Y-94115723D01*
X178890561Y-93949057D01*
X178866752Y-93853819D01*
X178819133Y-93806200D01*
X178771514Y-93782390D01*
X178676276Y-93782390D01*
X178628657Y-93806200D01*
X178581038Y-93853819D01*
X178557228Y-93949057D01*
X178557228Y-94115723D01*
X178581038Y-94210961D01*
X178628657Y-94258580D01*
X178676276Y-94282390D01*
X178771514Y-94282390D01*
X178128657Y-93949057D02*
X178128657Y-94282390D01*
X178247704Y-93758580D02*
X178366752Y-94115723D01*
X178057228Y-94115723D01*
%TO.C,C18*%
X178537371Y-106510971D02*
X178561180Y-106487161D01*
X178584990Y-106415733D01*
X178584990Y-106368114D01*
X178561180Y-106296685D01*
X178513561Y-106249066D01*
X178465942Y-106225257D01*
X178370704Y-106201447D01*
X178299276Y-106201447D01*
X178204038Y-106225257D01*
X178156419Y-106249066D01*
X178108800Y-106296685D01*
X178084990Y-106368114D01*
X178084990Y-106415733D01*
X178108800Y-106487161D01*
X178132609Y-106510971D01*
X178584990Y-106987161D02*
X178584990Y-106701447D01*
X178584990Y-106844304D02*
X178084990Y-106844304D01*
X178156419Y-106796685D01*
X178204038Y-106749066D01*
X178227847Y-106701447D01*
X178299276Y-107272876D02*
X178275466Y-107225257D01*
X178251657Y-107201447D01*
X178204038Y-107177638D01*
X178180228Y-107177638D01*
X178132609Y-107201447D01*
X178108800Y-107225257D01*
X178084990Y-107272876D01*
X178084990Y-107368114D01*
X178108800Y-107415733D01*
X178132609Y-107439542D01*
X178180228Y-107463352D01*
X178204038Y-107463352D01*
X178251657Y-107439542D01*
X178275466Y-107415733D01*
X178299276Y-107368114D01*
X178299276Y-107272876D01*
X178323085Y-107225257D01*
X178346895Y-107201447D01*
X178394514Y-107177638D01*
X178489752Y-107177638D01*
X178537371Y-107201447D01*
X178561180Y-107225257D01*
X178584990Y-107272876D01*
X178584990Y-107368114D01*
X178561180Y-107415733D01*
X178537371Y-107439542D01*
X178489752Y-107463352D01*
X178394514Y-107463352D01*
X178346895Y-107439542D01*
X178323085Y-107415733D01*
X178299276Y-107368114D01*
D12*
%TO.C,C15*%
X162911200Y-133197652D02*
X162911200Y-131775148D01*
X161091200Y-133197652D02*
X161091200Y-131775148D01*
%TO.C,C16*%
X163580400Y-133197652D02*
X163580400Y-131775148D01*
X165400400Y-133197652D02*
X165400400Y-131775148D01*
%TO.C,C20*%
X173706200Y-103123948D02*
X173706200Y-104546452D01*
X171886200Y-103123948D02*
X171886200Y-104546452D01*
%TO.C,C21*%
X178530364Y-100579600D02*
X178746036Y-100579600D01*
X178530364Y-101299600D02*
X178746036Y-101299600D01*
%TO.C,kibuzzard-6551674A*%
G36*
X152694063Y-128946275D02*
G01*
X152755975Y-129189163D01*
X152755975Y-129398713D01*
X152222575Y-129398713D01*
X152213050Y-129308225D01*
X152209875Y-129211387D01*
X152220988Y-129081213D01*
X152262262Y-128968500D01*
X152347988Y-128887538D01*
X152489275Y-128855788D01*
X152694063Y-128946275D01*
G37*
G36*
X153127450Y-124112338D02*
G01*
X153340175Y-124179013D01*
X153487813Y-124309188D01*
X153543375Y-124521913D01*
X153541788Y-124579063D01*
X153533850Y-124636213D01*
X152213050Y-124636213D01*
X152209875Y-124601288D01*
X152209875Y-124566363D01*
X152260675Y-124342525D01*
X152400375Y-124196475D01*
X152611513Y-124117100D01*
X152739703Y-124099241D01*
X152879800Y-124093288D01*
X153127450Y-124112338D01*
G37*
G36*
X154566783Y-104553914D02*
G01*
X154566783Y-130450696D01*
X151192817Y-131462886D01*
X151192817Y-129243138D01*
X151870150Y-129243138D01*
X151873722Y-129375694D01*
X151884438Y-129513013D01*
X151902297Y-129651919D01*
X151927300Y-129789237D01*
X153835475Y-129789237D01*
X153868813Y-129544763D01*
X153883100Y-129281238D01*
X153871591Y-129079625D01*
X153837063Y-128919288D01*
X153716413Y-128700213D01*
X153549725Y-128592263D01*
X153365575Y-128563688D01*
X153233813Y-128580753D01*
X153117925Y-128631950D01*
X152946475Y-128814513D01*
X152860750Y-128646634D01*
X152749625Y-128543050D01*
X152622625Y-128489472D01*
X152489275Y-128471613D01*
X152326159Y-128486694D01*
X152192413Y-128531938D01*
X152001913Y-128695450D01*
X151940794Y-128808163D01*
X151900313Y-128939925D01*
X151877691Y-129086372D01*
X151870150Y-129243138D01*
X151192817Y-129243138D01*
X151192817Y-127636588D01*
X151854275Y-127636588D01*
X151867372Y-127856456D01*
X151906663Y-128027113D01*
X152003500Y-128246188D01*
X152321000Y-128131888D01*
X152225750Y-127927100D01*
X152192413Y-127794941D01*
X152181300Y-127636588D01*
X152201938Y-127473075D01*
X152259088Y-127369888D01*
X152341638Y-127317500D01*
X152435300Y-127303212D01*
X152543250Y-127338138D01*
X152627388Y-127427038D01*
X152694063Y-127547688D01*
X152749625Y-127681038D01*
X152822650Y-127865188D01*
X152927425Y-128038225D01*
X153084588Y-128166812D01*
X153317950Y-128217613D01*
X153564013Y-128172766D01*
X153749750Y-128038225D01*
X153836181Y-127903640D01*
X153888039Y-127739069D01*
X153905325Y-127544513D01*
X153895006Y-127375047D01*
X153864050Y-127228600D01*
X153771975Y-127001588D01*
X153470350Y-127115888D01*
X153546550Y-127292100D01*
X153578300Y-127515938D01*
X153553253Y-127688799D01*
X153478111Y-127792515D01*
X153352875Y-127827088D01*
X153252863Y-127795337D01*
X153176663Y-127714375D01*
X153117925Y-127603250D01*
X153070300Y-127481013D01*
X152992513Y-127288925D01*
X152878213Y-127104775D01*
X152700413Y-126966663D01*
X152580159Y-126926181D01*
X152432125Y-126912687D01*
X152187253Y-126957534D01*
X152005088Y-127092075D01*
X151921303Y-127232304D01*
X151871032Y-127413808D01*
X151854275Y-127636588D01*
X151192817Y-127636588D01*
X151192817Y-126614238D01*
X151895550Y-126614238D01*
X153835475Y-126614238D01*
X153857700Y-126485650D01*
X153871988Y-126341188D01*
X153879925Y-126198313D01*
X153883100Y-126074488D01*
X153865990Y-125843418D01*
X153814661Y-125649743D01*
X153729113Y-125493463D01*
X153604758Y-125378810D01*
X153437013Y-125310018D01*
X153225875Y-125287087D01*
X153012621Y-125310194D01*
X152842758Y-125379515D01*
X152716288Y-125495050D01*
X152628975Y-125652918D01*
X152576588Y-125849239D01*
X152559125Y-126084013D01*
X152559125Y-126223713D01*
X151895550Y-126223713D01*
X151895550Y-126614238D01*
X151192817Y-126614238D01*
X151192817Y-124607638D01*
X151870150Y-124607638D01*
X151881263Y-124812425D01*
X151917775Y-125026738D01*
X153835475Y-125026738D01*
X153873575Y-124775913D01*
X153883100Y-124556838D01*
X153868813Y-124371497D01*
X153825950Y-124202825D01*
X153752528Y-124054791D01*
X153646563Y-123931363D01*
X153507656Y-123832541D01*
X153335413Y-123758325D01*
X153127053Y-123711891D01*
X152879800Y-123696412D01*
X152626991Y-123713478D01*
X152414663Y-123764675D01*
X152240434Y-123846034D01*
X152101925Y-123953587D01*
X151997547Y-124085747D01*
X151925713Y-124240925D01*
X151884041Y-124415947D01*
X151870150Y-124607638D01*
X151192817Y-124607638D01*
X151192817Y-121664412D01*
X152517850Y-121664412D01*
X152902025Y-121664412D01*
X152902025Y-120794463D01*
X152517850Y-120794463D01*
X152517850Y-121664412D01*
X151192817Y-121664412D01*
X151192817Y-118648162D01*
X151895550Y-118648162D01*
X153860875Y-118648162D01*
X153860875Y-117444837D01*
X153537025Y-117444837D01*
X153537025Y-118257638D01*
X153060775Y-118257638D01*
X153060775Y-117546437D01*
X152736925Y-117546437D01*
X152736925Y-118257638D01*
X151895550Y-118257638D01*
X151895550Y-118648162D01*
X151192817Y-118648162D01*
X151192817Y-116524087D01*
X151854275Y-116524087D01*
X151867372Y-116743956D01*
X151906663Y-116914612D01*
X152003500Y-117133688D01*
X152321000Y-117019388D01*
X152225750Y-116814600D01*
X152192413Y-116682441D01*
X152181300Y-116524087D01*
X152201938Y-116360575D01*
X152259088Y-116257387D01*
X152341638Y-116205000D01*
X152435300Y-116190713D01*
X152543250Y-116225638D01*
X152627388Y-116314537D01*
X152694063Y-116435188D01*
X152749625Y-116568537D01*
X152822650Y-116752687D01*
X152927425Y-116925725D01*
X153084588Y-117054312D01*
X153317950Y-117105112D01*
X153564013Y-117060266D01*
X153749750Y-116925725D01*
X153836181Y-116791140D01*
X153888039Y-116626569D01*
X153905325Y-116432013D01*
X153895006Y-116262547D01*
X153864050Y-116116100D01*
X153771975Y-115889088D01*
X153470350Y-116003387D01*
X153546550Y-116179600D01*
X153578300Y-116403437D01*
X153553253Y-116576299D01*
X153478111Y-116680015D01*
X153352875Y-116714587D01*
X153252863Y-116682838D01*
X153176663Y-116601875D01*
X153117925Y-116490750D01*
X153070300Y-116368512D01*
X152992513Y-116176425D01*
X152878213Y-115992275D01*
X152700413Y-115854162D01*
X152580159Y-115813681D01*
X152432125Y-115800187D01*
X152187253Y-115845034D01*
X152005088Y-115979575D01*
X151921303Y-116119804D01*
X151871032Y-116301308D01*
X151854275Y-116524087D01*
X151192817Y-116524087D01*
X151192817Y-114784187D01*
X151854275Y-114784187D01*
X151870547Y-114959209D01*
X151919363Y-115115975D01*
X152000325Y-115252897D01*
X152113038Y-115368387D01*
X152257500Y-115461256D01*
X152433713Y-115530312D01*
X152641278Y-115573175D01*
X152879800Y-115587463D01*
X153115941Y-115570794D01*
X153322713Y-115520787D01*
X153499322Y-115442206D01*
X153644975Y-115339813D01*
X153758878Y-115215194D01*
X153840238Y-115069937D01*
X153889053Y-114908806D01*
X153905325Y-114736562D01*
X153887863Y-114531775D01*
X153848175Y-114374612D01*
X153800550Y-114265075D01*
X153762450Y-114199988D01*
X153451300Y-114301588D01*
X153530675Y-114473037D01*
X153565600Y-114682587D01*
X153514800Y-114917537D01*
X153373513Y-115074700D01*
X153157613Y-115163600D01*
X153025453Y-115183841D01*
X152879800Y-115190588D01*
X152665488Y-115178240D01*
X152492450Y-115141199D01*
X152360687Y-115079462D01*
X152235672Y-114942144D01*
X152194000Y-114752438D01*
X152197175Y-114676237D01*
X152206700Y-114600038D01*
X152924250Y-114600038D01*
X152924250Y-114209513D01*
X151943175Y-114209513D01*
X151886025Y-114427000D01*
X151862212Y-114590116D01*
X151854275Y-114784187D01*
X151192817Y-114784187D01*
X151192817Y-112314037D01*
X151895550Y-112314037D01*
X151974925Y-112321975D01*
X152041600Y-112320388D01*
X152194000Y-112305703D01*
X152333700Y-112261650D01*
X152461891Y-112194975D01*
X152579763Y-112112425D01*
X152688506Y-112018762D01*
X152789313Y-111918750D01*
X152884166Y-111818737D01*
X152975050Y-111725075D01*
X153146500Y-111575850D01*
X153314775Y-111517113D01*
X153500513Y-111590137D01*
X153565600Y-111774287D01*
X153521150Y-111967962D01*
X153371925Y-112167987D01*
X153644975Y-112361662D01*
X153760863Y-112224741D01*
X153841825Y-112067975D01*
X153889450Y-111901684D01*
X153905325Y-111736188D01*
X153870400Y-111504412D01*
X153765625Y-111307562D01*
X153589413Y-111171037D01*
X153343350Y-111120237D01*
X153148088Y-111158338D01*
X152965525Y-111259937D01*
X152794075Y-111402812D01*
X152635325Y-111564737D01*
X152544838Y-111659987D01*
X152436888Y-111761587D01*
X152324175Y-111842550D01*
X152219400Y-111875887D01*
X152219400Y-111031337D01*
X151895550Y-111031337D01*
X151895550Y-112314037D01*
X151192817Y-112314037D01*
X151192817Y-110116937D01*
X151854275Y-110116937D01*
X151882497Y-110321549D01*
X151967164Y-110490882D01*
X152108275Y-110624938D01*
X152251944Y-110701336D01*
X152428950Y-110755906D01*
X152639294Y-110788648D01*
X152882975Y-110799562D01*
X153123878Y-110788450D01*
X153332238Y-110755113D01*
X153508053Y-110699550D01*
X153651325Y-110621762D01*
X153792436Y-110486649D01*
X153877103Y-110318374D01*
X153905325Y-110116937D01*
X153877279Y-109912326D01*
X153793142Y-109742993D01*
X153652913Y-109608937D01*
X153510137Y-109532539D01*
X153334222Y-109477969D01*
X153125168Y-109445227D01*
X152882975Y-109434312D01*
X152639294Y-109445227D01*
X152428950Y-109477969D01*
X152251944Y-109532539D01*
X152108275Y-109608937D01*
X151967164Y-109742993D01*
X151882497Y-109912326D01*
X151854275Y-110116937D01*
X151192817Y-110116937D01*
X151192817Y-109139037D01*
X151895550Y-109139037D01*
X151974925Y-109146975D01*
X152041600Y-109145387D01*
X152194000Y-109130703D01*
X152333700Y-109086650D01*
X152461891Y-109019975D01*
X152579763Y-108937425D01*
X152688506Y-108843762D01*
X152789313Y-108743750D01*
X152884166Y-108643737D01*
X152975050Y-108550075D01*
X153146500Y-108400850D01*
X153314775Y-108342112D01*
X153500513Y-108415137D01*
X153565600Y-108599287D01*
X153521150Y-108792962D01*
X153371925Y-108992987D01*
X153644975Y-109186662D01*
X153760863Y-109049741D01*
X153841825Y-108892975D01*
X153889450Y-108726684D01*
X153905325Y-108561187D01*
X153870400Y-108329412D01*
X153765625Y-108132562D01*
X153589413Y-107996037D01*
X153343350Y-107945237D01*
X153148088Y-107983338D01*
X152965525Y-108084937D01*
X152794075Y-108227812D01*
X152635325Y-108389737D01*
X152544838Y-108484987D01*
X152436888Y-108586587D01*
X152324175Y-108667550D01*
X152219400Y-108700887D01*
X152219400Y-107856337D01*
X151895550Y-107856337D01*
X151895550Y-109139037D01*
X151192817Y-109139037D01*
X151192817Y-106830812D01*
X151895550Y-106830812D01*
X152359100Y-106830812D01*
X152359100Y-107649962D01*
X152644850Y-107649962D01*
X152777009Y-107580906D01*
X152925838Y-107494387D01*
X153084984Y-107394375D01*
X153248100Y-107284838D01*
X153412009Y-107167363D01*
X153573538Y-107043537D01*
X153725541Y-106916537D01*
X153860875Y-106789538D01*
X153860875Y-106440287D01*
X152679775Y-106440287D01*
X152679775Y-106227562D01*
X152359100Y-106227562D01*
X152359100Y-106440287D01*
X151895550Y-106440287D01*
X151895550Y-106830812D01*
X151192817Y-106830812D01*
X151192817Y-105566104D01*
X154566783Y-104553914D01*
G37*
G36*
X153375497Y-125710553D02*
G01*
X153471938Y-125780800D01*
X153525516Y-125889941D01*
X153543375Y-126030037D01*
X153541788Y-126126875D01*
X153533850Y-126223713D01*
X152898850Y-126223713D01*
X152898850Y-126064963D01*
X152917503Y-125900656D01*
X152973463Y-125782388D01*
X153074666Y-125710950D01*
X153229050Y-125687138D01*
X153375497Y-125710553D01*
G37*
G36*
X153216350Y-106948287D02*
G01*
X153043313Y-107067350D01*
X152860750Y-107180063D01*
X152679775Y-107275313D01*
X152679775Y-106830812D01*
X153371925Y-106830812D01*
X153216350Y-106948287D01*
G37*
G36*
X152367038Y-109870875D02*
G01*
X152502681Y-109824132D01*
X152674660Y-109796086D01*
X152882975Y-109786737D01*
X153089526Y-109796086D01*
X153260447Y-109824132D01*
X153395738Y-109870875D01*
X153527897Y-109974459D01*
X153571950Y-110116937D01*
X153527897Y-110257431D01*
X153395738Y-110361413D01*
X153260447Y-110409038D01*
X153089526Y-110437612D01*
X152882975Y-110447138D01*
X152674660Y-110437612D01*
X152502681Y-110409038D01*
X152367038Y-110361413D01*
X152234878Y-110257431D01*
X152190825Y-110116937D01*
X152191807Y-110113762D01*
X152705175Y-110113762D01*
X152767088Y-110243937D01*
X152914725Y-110291562D01*
X153063950Y-110243937D01*
X153127450Y-110113762D01*
X153063950Y-109988350D01*
X152914725Y-109939138D01*
X152767088Y-109988350D01*
X152705175Y-110113762D01*
X152191807Y-110113762D01*
X152234878Y-109974459D01*
X152367038Y-109870875D01*
G37*
G36*
X153437013Y-128966913D02*
G01*
X153503688Y-129027238D01*
X153535438Y-129116138D01*
X153543375Y-129220913D01*
X153540200Y-129312988D01*
X153530675Y-129398713D01*
X153079825Y-129398713D01*
X153079825Y-129246312D01*
X153144913Y-129020888D01*
X153324300Y-128944688D01*
X153437013Y-128966913D01*
G37*
%TO.C,C14*%
X164236452Y-127309200D02*
X162813948Y-127309200D01*
X164236452Y-129129200D02*
X162813948Y-129129200D01*
%TO.C,C19*%
X176373200Y-103123948D02*
X176373200Y-104546452D01*
X174553200Y-103123948D02*
X174553200Y-104546452D01*
%TO.C,C12*%
X156090000Y-133211252D02*
X156090000Y-131788748D01*
X157910000Y-133211252D02*
X157910000Y-131788748D01*
%TO.C,C13*%
X158590000Y-133211252D02*
X158590000Y-131788748D01*
X160410000Y-133211252D02*
X160410000Y-131788748D01*
%TO.C,C17*%
X169219200Y-103123948D02*
X169219200Y-104546452D01*
X171039200Y-103123948D02*
X171039200Y-104546452D01*
%TO.C,F1*%
X174389522Y-93879600D02*
X174906678Y-93879600D01*
X174389522Y-95299600D02*
X174906678Y-95299600D01*
%TO.C,C22*%
X176053636Y-101299600D02*
X175837964Y-101299600D01*
X176053636Y-100579600D02*
X175837964Y-100579600D01*
%TO.C,FB1*%
X178419000Y-100223200D02*
X175734000Y-100223200D01*
X175734000Y-98303200D02*
X178419000Y-98303200D01*
X175734000Y-100223200D02*
X175734000Y-98303200D01*
%TO.C,Q4*%
X177546000Y-94731400D02*
X179221000Y-94731400D01*
X177546000Y-94731400D02*
X176896000Y-94731400D01*
X177546000Y-97851400D02*
X176896000Y-97851400D01*
X177546000Y-97851400D02*
X178196000Y-97851400D01*
%TO.C,C18*%
X179040200Y-103123948D02*
X179040200Y-104546452D01*
X177220200Y-103123948D02*
X177220200Y-104546452D01*
%TD*%
%LPC*%
D13*
%TO.C,RV1*%
X170561000Y-113715800D03*
X173101000Y-113715800D03*
X175641000Y-113715800D03*
%TD*%
%TO.C,RV2*%
X170561000Y-121500500D03*
X173101000Y-121500500D03*
X175641000Y-121500500D03*
%TD*%
D14*
%TO.C,JP1*%
X175382000Y-132842000D03*
D15*
X177922000Y-132842000D03*
%TD*%
D16*
%TO.C,J1*%
X174403800Y-98196400D03*
X170213800Y-98196400D03*
X166023800Y-98196400D03*
X161833800Y-98196400D03*
X157643800Y-98196400D03*
X153453800Y-98196400D03*
X153453800Y-91846400D03*
X157643800Y-91846400D03*
X161833800Y-91846400D03*
X166023800Y-91846400D03*
X170213800Y-91846400D03*
X174403800Y-91846400D03*
D17*
X172813800Y-85496400D03*
X155033800Y-85496400D03*
%TD*%
D18*
%TO.C,C15*%
X162001200Y-133961400D03*
X162001200Y-131011400D03*
%TD*%
%TO.C,C16*%
X164490400Y-133961400D03*
X164490400Y-131011400D03*
%TD*%
D19*
%TO.C,C20*%
X172796200Y-102360200D03*
X172796200Y-105310200D03*
%TD*%
D20*
%TO.C,C21*%
X178158200Y-100939600D03*
X179118200Y-100939600D03*
%TD*%
D21*
%TO.C,C14*%
X165000200Y-128219200D03*
X162050200Y-128219200D03*
%TD*%
D19*
%TO.C,C19*%
X175463200Y-102360200D03*
X175463200Y-105310200D03*
%TD*%
D18*
%TO.C,C12*%
X157000000Y-133975000D03*
X157000000Y-131025000D03*
%TD*%
%TO.C,C13*%
X159500000Y-133975000D03*
X159500000Y-131025000D03*
%TD*%
D19*
%TO.C,C17*%
X170129200Y-102360200D03*
X170129200Y-105310200D03*
%TD*%
D22*
%TO.C,F1*%
X173710600Y-94589600D03*
X175585600Y-94589600D03*
%TD*%
D23*
%TO.C,C22*%
X176425800Y-100939600D03*
X175465800Y-100939600D03*
%TD*%
D22*
%TO.C,FB1*%
X176481500Y-99263200D03*
X178356500Y-99263200D03*
%TD*%
D24*
%TO.C,Q4*%
X178483500Y-95341400D03*
X178483500Y-97241400D03*
X176608500Y-96291400D03*
%TD*%
D19*
%TO.C,C18*%
X178130200Y-102360200D03*
X178130200Y-105310200D03*
%TD*%
M02*
