%TF.GenerationSoftware,KiCad,Pcbnew,(6.0.8)*%
%TF.CreationDate,2024-05-22T19:13:14+02:00*%
%TF.ProjectId,BSPD-07,42535044-2d30-4372-9e6b-696361645f70,rev?*%
%TF.SameCoordinates,Original*%
%TF.FileFunction,Copper,L4,Bot*%
%TF.FilePolarity,Positive*%
%FSLAX46Y46*%
G04 Gerber Fmt 4.6, Leading zero omitted, Abs format (unit mm)*
G04 Created by KiCad (PCBNEW (6.0.8)) date 2024-05-22 19:13:14*
%MOMM*%
%LPD*%
G01*
G04 APERTURE LIST*
G04 Aperture macros list*
%AMRoundRect*
0 Rectangle with rounded corners*
0 $1 Rounding radius*
0 $2 $3 $4 $5 $6 $7 $8 $9 X,Y pos of 4 corners*
0 Add a 4 corners polygon primitive as box body*
4,1,4,$2,$3,$4,$5,$6,$7,$8,$9,$2,$3,0*
0 Add four circle primitives for the rounded corners*
1,1,$1+$1,$2,$3*
1,1,$1+$1,$4,$5*
1,1,$1+$1,$6,$7*
1,1,$1+$1,$8,$9*
0 Add four rect primitives between the rounded corners*
20,1,$1+$1,$2,$3,$4,$5,0*
20,1,$1+$1,$4,$5,$6,$7,0*
20,1,$1+$1,$6,$7,$8,$9,0*
20,1,$1+$1,$8,$9,$2,$3,0*%
G04 Aperture macros list end*
%TA.AperFunction,ComponentPad*%
%ADD10C,1.269000*%
%TD*%
%TA.AperFunction,ComponentPad*%
%ADD11R,1.700000X1.700000*%
%TD*%
%TA.AperFunction,ComponentPad*%
%ADD12O,1.700000X1.700000*%
%TD*%
%TA.AperFunction,ComponentPad*%
%ADD13C,1.965000*%
%TD*%
%TA.AperFunction,ComponentPad*%
%ADD14C,4.665000*%
%TD*%
%TA.AperFunction,SMDPad,CuDef*%
%ADD15RoundRect,0.250000X0.650000X-0.325000X0.650000X0.325000X-0.650000X0.325000X-0.650000X-0.325000X0*%
%TD*%
%TA.AperFunction,SMDPad,CuDef*%
%ADD16RoundRect,0.250000X-0.650000X0.325000X-0.650000X-0.325000X0.650000X-0.325000X0.650000X0.325000X0*%
%TD*%
%TA.AperFunction,SMDPad,CuDef*%
%ADD17RoundRect,0.140000X-0.140000X-0.170000X0.140000X-0.170000X0.140000X0.170000X-0.140000X0.170000X0*%
%TD*%
%TA.AperFunction,SMDPad,CuDef*%
%ADD18RoundRect,0.250000X0.325000X0.650000X-0.325000X0.650000X-0.325000X-0.650000X0.325000X-0.650000X0*%
%TD*%
%TA.AperFunction,SMDPad,CuDef*%
%ADD19RoundRect,0.243750X-0.243750X-0.456250X0.243750X-0.456250X0.243750X0.456250X-0.243750X0.456250X0*%
%TD*%
%TA.AperFunction,SMDPad,CuDef*%
%ADD20RoundRect,0.140000X0.140000X0.170000X-0.140000X0.170000X-0.140000X-0.170000X0.140000X-0.170000X0*%
%TD*%
%TA.AperFunction,SMDPad,CuDef*%
%ADD21RoundRect,0.150000X0.587500X0.150000X-0.587500X0.150000X-0.587500X-0.150000X0.587500X-0.150000X0*%
%TD*%
%TA.AperFunction,ViaPad*%
%ADD22C,0.600000*%
%TD*%
%TA.AperFunction,ViaPad*%
%ADD23C,0.800000*%
%TD*%
%TA.AperFunction,Conductor*%
%ADD24C,0.254000*%
%TD*%
%TA.AperFunction,Conductor*%
%ADD25C,0.600000*%
%TD*%
%TA.AperFunction,Conductor*%
%ADD26C,0.300000*%
%TD*%
%TA.AperFunction,Conductor*%
%ADD27C,0.500000*%
%TD*%
%TA.AperFunction,Conductor*%
%ADD28C,0.200000*%
%TD*%
G04 APERTURE END LIST*
D10*
%TO.P,RV1,1,1*%
%TO.N,unconnected-(RV1-Pad1)*%
X170561000Y-113715800D03*
%TO.P,RV1,2,2*%
%TO.N,+5V*%
X173101000Y-113715800D03*
%TO.P,RV1,3,3*%
%TO.N,TPS_TRIG*%
X175641000Y-113715800D03*
%TD*%
%TO.P,RV2,1,1*%
%TO.N,unconnected-(RV2-Pad1)*%
X170561000Y-121500500D03*
%TO.P,RV2,2,2*%
%TO.N,+5V*%
X173101000Y-121500500D03*
%TO.P,RV2,3,3*%
%TO.N,BRAKE_TRIG*%
X175641000Y-121500500D03*
%TD*%
D11*
%TO.P,JP1,1,A*%
%TO.N,SAFETY_IN*%
X175382000Y-132842000D03*
D12*
%TO.P,JP1,2,B*%
%TO.N,SAFETY_OUT*%
X177922000Y-132842000D03*
%TD*%
D13*
%TO.P,J1,1,1*%
%TO.N,+12V*%
X174403800Y-98196400D03*
%TO.P,J1,2,2*%
%TO.N,GND*%
X170213800Y-98196400D03*
%TO.P,J1,3,3*%
%TO.N,SAFETY_OUT*%
X166023800Y-98196400D03*
%TO.P,J1,4,4*%
%TO.N,unconnected-(J1-Pad4)*%
X161833800Y-98196400D03*
%TO.P,J1,5,5*%
%TO.N,+5V*%
X157643800Y-98196400D03*
%TO.P,J1,6,6*%
%TO.N,TPS_IN_NF*%
X153453800Y-98196400D03*
%TO.P,J1,7,7*%
%TO.N,BRAKE_IN_NF*%
X153453800Y-91846400D03*
%TO.P,J1,8,8*%
%TO.N,unconnected-(J1-Pad8)*%
X157643800Y-91846400D03*
%TO.P,J1,9,9*%
%TO.N,unconnected-(J1-Pad9)*%
X161833800Y-91846400D03*
%TO.P,J1,10,10*%
%TO.N,SAFETY_IN*%
X166023800Y-91846400D03*
%TO.P,J1,11,11*%
%TO.N,BRAKE_TRIG*%
X170213800Y-91846400D03*
%TO.P,J1,12,12*%
%TO.N,TPS_TRIG*%
X174403800Y-91846400D03*
D14*
%TO.P,J1,MH1,MH1*%
%TO.N,unconnected-(J1-PadMH1)*%
X172813800Y-85496400D03*
%TO.P,J1,MH2,MH2*%
%TO.N,unconnected-(J1-PadMH2)*%
X155033800Y-85496400D03*
%TD*%
D15*
%TO.P,C15,1*%
%TO.N,+5V*%
X162001200Y-133961400D03*
%TO.P,C15,2*%
%TO.N,/10ms VAL*%
X162001200Y-131011400D03*
%TD*%
%TO.P,C16,1*%
%TO.N,+5V*%
X164490400Y-133961400D03*
%TO.P,C16,2*%
%TO.N,/10ms VAL*%
X164490400Y-131011400D03*
%TD*%
D16*
%TO.P,C20,1*%
%TO.N,GND*%
X172796200Y-102360200D03*
%TO.P,C20,2*%
%TO.N,/LDO_VIN*%
X172796200Y-105310200D03*
%TD*%
D17*
%TO.P,C21,1*%
%TO.N,Net-(C21-Pad1)*%
X178158200Y-100939600D03*
%TO.P,C21,2*%
%TO.N,GND*%
X179118200Y-100939600D03*
%TD*%
D18*
%TO.P,C14,1*%
%TO.N,GND*%
X165000200Y-128219200D03*
%TO.P,C14,2*%
%TO.N,Net-(C14-Pad2)*%
X162050200Y-128219200D03*
%TD*%
D16*
%TO.P,C19,1*%
%TO.N,GND*%
X175463200Y-102360200D03*
%TO.P,C19,2*%
%TO.N,/LDO_VIN*%
X175463200Y-105310200D03*
%TD*%
D15*
%TO.P,C12,1*%
%TO.N,+5V*%
X157000000Y-133975000D03*
%TO.P,C12,2*%
%TO.N,/10ms VAL*%
X157000000Y-131025000D03*
%TD*%
%TO.P,C13,1*%
%TO.N,+5V*%
X159500000Y-133975000D03*
%TO.P,C13,2*%
%TO.N,/10ms VAL*%
X159500000Y-131025000D03*
%TD*%
D16*
%TO.P,C17,1*%
%TO.N,GND*%
X170129200Y-102360200D03*
%TO.P,C17,2*%
%TO.N,/LDO_VIN*%
X170129200Y-105310200D03*
%TD*%
D19*
%TO.P,F1,1*%
%TO.N,+12V*%
X173710600Y-94589600D03*
%TO.P,F1,2*%
%TO.N,Net-(F1-Pad2)*%
X175585600Y-94589600D03*
%TD*%
D20*
%TO.P,C22,1*%
%TO.N,Net-(C21-Pad1)*%
X176425800Y-100939600D03*
%TO.P,C22,2*%
%TO.N,GND*%
X175465800Y-100939600D03*
%TD*%
D19*
%TO.P,FB1,1*%
%TO.N,Net-(C21-Pad1)*%
X176481500Y-99263200D03*
%TO.P,FB1,2*%
%TO.N,Net-(FB1-Pad2)*%
X178356500Y-99263200D03*
%TD*%
D21*
%TO.P,Q4,1,G*%
%TO.N,GND*%
X178483500Y-95341400D03*
%TO.P,Q4,2,S*%
%TO.N,Net-(FB1-Pad2)*%
X178483500Y-97241400D03*
%TO.P,Q4,3,D*%
%TO.N,Net-(F1-Pad2)*%
X176608500Y-96291400D03*
%TD*%
D16*
%TO.P,C18,1*%
%TO.N,GND*%
X178130200Y-102360200D03*
%TO.P,C18,2*%
%TO.N,/LDO_VIN*%
X178130200Y-105310200D03*
%TD*%
D22*
%TO.N,TPS_COMP_OUT*%
X161080302Y-106654600D03*
X158546800Y-106603800D03*
%TO.N,TPS_IN*%
X156527500Y-107759500D03*
X158496000Y-121158000D03*
%TO.N,GND*%
X154022800Y-110388400D03*
X153286200Y-110388400D03*
X160401000Y-124510800D03*
X173151800Y-107736600D03*
X165989000Y-130810000D03*
X173355000Y-110464600D03*
X153212800Y-124358400D03*
X177393600Y-95300800D03*
X161010600Y-115620800D03*
X159131000Y-124510800D03*
X150977600Y-111455200D03*
X159410400Y-135382000D03*
X153307600Y-123444000D03*
X161036000Y-121767600D03*
X171450000Y-109575600D03*
X159766000Y-124510800D03*
X164832144Y-127089836D03*
X153307600Y-117015800D03*
X161544000Y-117322600D03*
X167504500Y-109220000D03*
X152654000Y-120142000D03*
X175387000Y-110464600D03*
X154018800Y-123444000D03*
X154784800Y-110388400D03*
X172339000Y-110464600D03*
X152298400Y-104800400D03*
X172339000Y-109575600D03*
X175387000Y-109575600D03*
X179222400Y-108305600D03*
X171450000Y-110464600D03*
X164465000Y-115062000D03*
X154780800Y-117015800D03*
X154018800Y-117015800D03*
X160977207Y-108858314D03*
X176911000Y-130556000D03*
X161592000Y-104114600D03*
X174371000Y-109575600D03*
X152247600Y-111455200D03*
X173177200Y-108534200D03*
X173202600Y-106959400D03*
X161511800Y-110538800D03*
D23*
X170129200Y-100330000D03*
D22*
X175412400Y-100152200D03*
X151765000Y-126619000D03*
X179243288Y-100193775D03*
X151003000Y-104800400D03*
X154780800Y-123444000D03*
X173355000Y-109575600D03*
X174371000Y-110464600D03*
X152806400Y-133146800D03*
X154635200Y-131673600D03*
%TO.N,+5V*%
X163626800Y-121716800D03*
X158369000Y-132461000D03*
X159639000Y-104825800D03*
X150241000Y-124409200D03*
X165862000Y-118999000D03*
X167690800Y-106984800D03*
X159000000Y-111275400D03*
X168427400Y-106222800D03*
X162864800Y-107442000D03*
X151130000Y-133553200D03*
X160274000Y-104825800D03*
X160377737Y-117968230D03*
X167690800Y-106222800D03*
X159107737Y-117968230D03*
X176911000Y-125425200D03*
X159635000Y-111275400D03*
X169926000Y-106984800D03*
X154914600Y-130048000D03*
X159742737Y-117968230D03*
X153979385Y-133117949D03*
X163322000Y-124841000D03*
X161950400Y-134924800D03*
X163525200Y-114630200D03*
X160270000Y-111275400D03*
X150215600Y-120142000D03*
X168021000Y-128143000D03*
X170688000Y-106984800D03*
X174650400Y-125349000D03*
X166370000Y-128143000D03*
X153670000Y-130048000D03*
X154305000Y-130048000D03*
X168427400Y-106984800D03*
X159004000Y-104825800D03*
X169214800Y-106984800D03*
X162941000Y-110617000D03*
%TO.N,BRAKE_COMP_OUT*%
X158267400Y-113004600D03*
X161055263Y-112941170D03*
%TO.N,BRAKE_IN*%
X154787600Y-104190800D03*
X155829000Y-119888000D03*
X156387901Y-114104367D03*
X153031446Y-111297749D03*
%TO.N,SAFETY_IN*%
X170561000Y-128016000D03*
%TO.N,SAFETY_OUT*%
X170688000Y-124460000D03*
X172974000Y-127762000D03*
X166886500Y-120015000D03*
%TO.N,Net-(C14-Pad2)*%
X160985200Y-128016000D03*
%TO.N,TPS_TRIG*%
X163703000Y-110109000D03*
X169113200Y-112471200D03*
%TO.N,BRAKE_TRIG*%
X169545000Y-117856000D03*
X163322000Y-117856000D03*
%TO.N,ERR_FINAL*%
X155829000Y-128143000D03*
X162229800Y-114018484D03*
X162114764Y-121025237D03*
X165345500Y-124333000D03*
X165354000Y-129667000D03*
X160909000Y-107473900D03*
%TO.N,/10ms VAL*%
X157000000Y-132000000D03*
D23*
%TO.N,Net-(C21-Pad1)*%
X177368200Y-100406200D03*
%TO.N,/LDO_VIN*%
X176530000Y-106934000D03*
X177546000Y-106934000D03*
%TD*%
D24*
%TO.N,TPS_COMP_OUT*%
X161029502Y-106603800D02*
X161080302Y-106654600D01*
X158546800Y-106603800D02*
X161029502Y-106603800D01*
%TO.N,TPS_IN*%
X157014901Y-119676901D02*
X158496000Y-121158000D01*
X156527500Y-107759500D02*
X157014901Y-108246901D01*
X157014901Y-108246901D02*
X157014901Y-119676901D01*
D25*
%TO.N,GND*%
X170129200Y-102360200D02*
X170129200Y-100330000D01*
X170129200Y-100330000D02*
X170129200Y-98281000D01*
D24*
X179118200Y-100939600D02*
X179118200Y-100318863D01*
X179118200Y-100318863D02*
X179243288Y-100193775D01*
D26*
X164832144Y-127089836D02*
X165000200Y-127257892D01*
D25*
X177393600Y-95300800D02*
X177434200Y-95341400D01*
X177434200Y-95341400D02*
X178483500Y-95341400D01*
X170129200Y-98281000D02*
X170213800Y-98196400D01*
D24*
X175465800Y-100939600D02*
X175465800Y-100205600D01*
D26*
X165000200Y-127257892D02*
X165000200Y-128219200D01*
D24*
X175465800Y-100205600D02*
X175412400Y-100152200D01*
D25*
X178130200Y-102360200D02*
X170129200Y-102360200D01*
D26*
%TO.N,+5V*%
X161661000Y-133975000D02*
X157000000Y-133975000D01*
D27*
X167690800Y-106222800D02*
X167690800Y-106984800D01*
D26*
X164490400Y-133961400D02*
X162001200Y-133961400D01*
D27*
X167690800Y-106222800D02*
X161594800Y-100126800D01*
X161594800Y-100126800D02*
X159574200Y-100126800D01*
D26*
X162001200Y-134874000D02*
X161950400Y-134924800D01*
D27*
X159574200Y-100126800D02*
X157643800Y-98196400D01*
D26*
X162001200Y-133961400D02*
X162001200Y-134874000D01*
D24*
%TO.N,BRAKE_COMP_OUT*%
X160991833Y-113004600D02*
X158267400Y-113004600D01*
X161055263Y-112941170D02*
X160991833Y-113004600D01*
%TO.N,BRAKE_IN*%
X152659200Y-110648112D02*
X152659200Y-108402000D01*
X152659200Y-108402000D02*
X154787600Y-106273600D01*
X153031446Y-111297749D02*
X153031446Y-111020358D01*
X156387901Y-119329099D02*
X156387901Y-114104367D01*
X154787600Y-106273600D02*
X154787600Y-104190800D01*
X153031446Y-111020358D02*
X152659200Y-110648112D01*
X155829000Y-119888000D02*
X156387901Y-119329099D01*
D25*
%TO.N,+12V*%
X173710600Y-97503200D02*
X174403800Y-98196400D01*
X173710600Y-94589600D02*
X173710600Y-97503200D01*
D24*
%TO.N,SAFETY_IN*%
X175382000Y-132842000D02*
X175382000Y-132837000D01*
X175382000Y-132837000D02*
X170561000Y-128016000D01*
%TO.N,SAFETY_OUT*%
X172974000Y-128013712D02*
X172974000Y-127762000D01*
X166886500Y-120658500D02*
X170688000Y-124460000D01*
X177802288Y-132842000D02*
X172974000Y-128013712D01*
X166886500Y-120015000D02*
X166886500Y-120658500D01*
X177922000Y-132842000D02*
X177802288Y-132842000D01*
D28*
%TO.N,Net-(C14-Pad2)*%
X162050200Y-128219200D02*
X161188400Y-128219200D01*
X161188400Y-128219200D02*
X160985200Y-128016000D01*
D24*
%TO.N,TPS_TRIG*%
X175641000Y-113591600D02*
X174520600Y-112471200D01*
X175641000Y-113715800D02*
X175641000Y-113591600D01*
X163703000Y-110109000D02*
X166065200Y-112471200D01*
X174520600Y-112471200D02*
X169113200Y-112471200D01*
X166065200Y-112471200D02*
X169113200Y-112471200D01*
%TO.N,BRAKE_TRIG*%
X171315000Y-119626000D02*
X174004600Y-119626000D01*
X163322000Y-117856000D02*
X169545000Y-117856000D01*
X174004600Y-119626000D02*
X175816000Y-121437400D01*
X169545000Y-117856000D02*
X171315000Y-119626000D01*
D25*
%TO.N,Net-(F1-Pad2)*%
X175666400Y-94589600D02*
X176608500Y-95531700D01*
X176608500Y-95531700D02*
X176608500Y-96291400D01*
X175585600Y-94589600D02*
X175666400Y-94589600D01*
D24*
%TO.N,ERR_FINAL*%
X162560000Y-120580001D02*
X162560000Y-114348684D01*
X157353000Y-129667000D02*
X155829000Y-128143000D01*
X162114764Y-121025237D02*
X162153600Y-121064073D01*
X160909000Y-107473900D02*
X162298000Y-108862900D01*
X162114764Y-121091476D02*
X162114764Y-121025237D01*
X165345500Y-124333000D02*
X165345500Y-124322212D01*
X162560000Y-114348684D02*
X162229800Y-114018484D01*
X165345500Y-124322212D02*
X162114764Y-121091476D01*
X162114764Y-121025237D02*
X162560000Y-120580001D01*
X165354000Y-129667000D02*
X157353000Y-129667000D01*
X162298000Y-108862900D02*
X162298000Y-114172706D01*
D28*
%TO.N,/10ms VAL*%
X157000000Y-131025000D02*
X157000000Y-132000000D01*
X159500000Y-131025000D02*
X157000000Y-131025000D01*
X159500000Y-131025000D02*
X164476800Y-131025000D01*
X164476800Y-131025000D02*
X164490400Y-131011400D01*
D24*
%TO.N,Net-(C21-Pad1)*%
X177368200Y-100406200D02*
X177901600Y-100939600D01*
X176834800Y-100939600D02*
X176425800Y-100939600D01*
X177901600Y-100939600D02*
X178158200Y-100939600D01*
D27*
X176481500Y-99519500D02*
X177368200Y-100406200D01*
D24*
X177368200Y-100406200D02*
X176834800Y-100939600D01*
D27*
X176481500Y-99263200D02*
X176481500Y-99519500D01*
%TO.N,Net-(FB1-Pad2)*%
X178483500Y-99136200D02*
X178356500Y-99263200D01*
X178483500Y-97241400D02*
X178483500Y-99136200D01*
D25*
%TO.N,/LDO_VIN*%
X178130200Y-106349800D02*
X177546000Y-106934000D01*
X178130200Y-105310200D02*
X178130200Y-106349800D01*
X178130200Y-105310200D02*
X170129200Y-105310200D01*
X177546000Y-106934000D02*
X176530000Y-106934000D01*
%TD*%
M02*
