%TF.GenerationSoftware,KiCad,Pcbnew,(6.0.8)*%
%TF.CreationDate,2024-05-22T19:13:14+02:00*%
%TF.ProjectId,BSPD-07,42535044-2d30-4372-9e6b-696361645f70,rev?*%
%TF.SameCoordinates,Original*%
%TF.FileFunction,Legend,Top*%
%TF.FilePolarity,Positive*%
%FSLAX46Y46*%
G04 Gerber Fmt 4.6, Leading zero omitted, Abs format (unit mm)*
G04 Created by KiCad (PCBNEW (6.0.8)) date 2024-05-22 19:13:14*
%MOMM*%
%LPD*%
G01*
G04 APERTURE LIST*
G04 Aperture macros list*
%AMRoundRect*
0 Rectangle with rounded corners*
0 $1 Rounding radius*
0 $2 $3 $4 $5 $6 $7 $8 $9 X,Y pos of 4 corners*
0 Add a 4 corners polygon primitive as box body*
4,1,4,$2,$3,$4,$5,$6,$7,$8,$9,$2,$3,0*
0 Add four circle primitives for the rounded corners*
1,1,$1+$1,$2,$3*
1,1,$1+$1,$4,$5*
1,1,$1+$1,$6,$7*
1,1,$1+$1,$8,$9*
0 Add four rect primitives between the rounded corners*
20,1,$1+$1,$2,$3,$4,$5,0*
20,1,$1+$1,$4,$5,$6,$7,0*
20,1,$1+$1,$6,$7,$8,$9,0*
20,1,$1+$1,$8,$9,$2,$3,0*%
G04 Aperture macros list end*
%ADD10C,0.150000*%
%ADD11C,0.100000*%
%ADD12C,0.120000*%
%ADD13C,0.200000*%
%ADD14C,0.250000*%
%ADD15C,0.300000*%
%ADD16C,1.000000*%
%ADD17RoundRect,0.135000X-0.185000X0.135000X-0.185000X-0.135000X0.185000X-0.135000X0.185000X0.135000X0*%
%ADD18RoundRect,0.135000X0.185000X-0.135000X0.185000X0.135000X-0.185000X0.135000X-0.185000X-0.135000X0*%
%ADD19RoundRect,0.250000X0.650000X-0.325000X0.650000X0.325000X-0.650000X0.325000X-0.650000X-0.325000X0*%
%ADD20RoundRect,0.147500X-0.172500X0.147500X-0.172500X-0.147500X0.172500X-0.147500X0.172500X0.147500X0*%
%ADD21C,1.269000*%
%ADD22R,1.528000X0.650000*%
%ADD23RoundRect,0.140000X0.140000X0.170000X-0.140000X0.170000X-0.140000X-0.170000X0.140000X-0.170000X0*%
%ADD24RoundRect,0.250000X-0.250000X-0.475000X0.250000X-0.475000X0.250000X0.475000X-0.250000X0.475000X0*%
%ADD25RoundRect,0.160000X0.160000X-0.222500X0.160000X0.222500X-0.160000X0.222500X-0.160000X-0.222500X0*%
%ADD26RoundRect,0.140000X0.170000X-0.140000X0.170000X0.140000X-0.170000X0.140000X-0.170000X-0.140000X0*%
%ADD27RoundRect,0.135000X0.135000X0.185000X-0.135000X0.185000X-0.135000X-0.185000X0.135000X-0.185000X0*%
%ADD28R,0.850000X0.300000*%
%ADD29R,1.700000X2.500000*%
%ADD30RoundRect,0.140000X-0.170000X0.140000X-0.170000X-0.140000X0.170000X-0.140000X0.170000X0.140000X0*%
%ADD31R,2.500000X1.800000*%
%ADD32R,0.600000X0.450000*%
%ADD33R,0.400000X1.050000*%
%ADD34RoundRect,0.250000X1.450000X-0.312500X1.450000X0.312500X-1.450000X0.312500X-1.450000X-0.312500X0*%
%ADD35R,0.800000X1.200000*%
%ADD36RoundRect,0.250000X0.250000X0.475000X-0.250000X0.475000X-0.250000X-0.475000X0.250000X-0.475000X0*%
%ADD37R,1.700000X1.700000*%
%ADD38O,1.700000X1.700000*%
%ADD39R,0.600000X1.300000*%
%ADD40R,0.500000X1.100000*%
%ADD41C,1.965000*%
%ADD42C,4.665000*%
G04 APERTURE END LIST*
D10*
X162201600Y-104165400D02*
X162455600Y-103860600D01*
X161947600Y-103860600D02*
X162201600Y-104165400D01*
X162201600Y-103555800D02*
X162201600Y-104165400D01*
D11*
X160677600Y-100558600D02*
X163471600Y-100558600D01*
X163471600Y-100558600D02*
X163471600Y-103505000D01*
X163471600Y-103505000D02*
X160677600Y-103505000D01*
X160677600Y-103505000D02*
X160677600Y-100558600D01*
X152908000Y-121704100D02*
X150266400Y-121704100D01*
X150266400Y-121704100D02*
X150266400Y-117817900D01*
X150266400Y-117817900D02*
X152908000Y-117817900D01*
X152908000Y-117817900D02*
X152908000Y-121704100D01*
X150266400Y-113842800D02*
X152908000Y-113842800D01*
X152908000Y-113842800D02*
X152908000Y-117475000D01*
X152908000Y-117475000D02*
X150266400Y-117475000D01*
X150266400Y-117475000D02*
X150266400Y-113842800D01*
X150266400Y-107340400D02*
X152908000Y-107340400D01*
X152908000Y-107340400D02*
X152908000Y-111099600D01*
X152908000Y-111099600D02*
X150266400Y-111099600D01*
X150266400Y-111099600D02*
X150266400Y-107340400D01*
X160896300Y-113969800D02*
X163461700Y-113969800D01*
X163461700Y-113969800D02*
X163461700Y-117348000D01*
X163461700Y-117348000D02*
X160896300Y-117348000D01*
X160896300Y-117348000D02*
X160896300Y-113969800D01*
X163525200Y-123342400D02*
X160883600Y-123342400D01*
X160883600Y-123342400D02*
X160883600Y-119583200D01*
X160883600Y-119583200D02*
X163525200Y-119583200D01*
X163525200Y-119583200D02*
X163525200Y-123342400D01*
X150266400Y-121945400D02*
X152908000Y-121945400D01*
X152908000Y-121945400D02*
X152908000Y-126238000D01*
X152908000Y-126238000D02*
X150266400Y-126238000D01*
X150266400Y-126238000D02*
X150266400Y-121945400D01*
X157484000Y-124282971D02*
X157507809Y-124306780D01*
X157484000Y-124330590D01*
X157460190Y-124306780D01*
X157484000Y-124282971D01*
X157484000Y-124330590D01*
X157722095Y-124330590D02*
X157722095Y-123830590D01*
X157841142Y-123830590D01*
X157912571Y-123854400D01*
X157960190Y-123902019D01*
X157984000Y-123949638D01*
X158007809Y-124044876D01*
X158007809Y-124116304D01*
X157984000Y-124211542D01*
X157960190Y-124259161D01*
X157912571Y-124306780D01*
X157841142Y-124330590D01*
X157722095Y-124330590D01*
X157416904Y-117704371D02*
X157440714Y-117728180D01*
X157416904Y-117751990D01*
X157393095Y-117728180D01*
X157416904Y-117704371D01*
X157416904Y-117751990D01*
X157631190Y-117728180D02*
X157702619Y-117751990D01*
X157821666Y-117751990D01*
X157869285Y-117728180D01*
X157893095Y-117704371D01*
X157916904Y-117656752D01*
X157916904Y-117609133D01*
X157893095Y-117561514D01*
X157869285Y-117537704D01*
X157821666Y-117513895D01*
X157726428Y-117490085D01*
X157678809Y-117466276D01*
X157655000Y-117442466D01*
X157631190Y-117394847D01*
X157631190Y-117347228D01*
X157655000Y-117299609D01*
X157678809Y-117275800D01*
X157726428Y-117251990D01*
X157845476Y-117251990D01*
X157916904Y-117275800D01*
X157433200Y-111127771D02*
X157457009Y-111151580D01*
X157433200Y-111175390D01*
X157409390Y-111151580D01*
X157433200Y-111127771D01*
X157433200Y-111175390D01*
X157837961Y-110913485D02*
X157909390Y-110937295D01*
X157933200Y-110961104D01*
X157957009Y-111008723D01*
X157957009Y-111080152D01*
X157933200Y-111127771D01*
X157909390Y-111151580D01*
X157861771Y-111175390D01*
X157671295Y-111175390D01*
X157671295Y-110675390D01*
X157837961Y-110675390D01*
X157885580Y-110699200D01*
X157909390Y-110723009D01*
X157933200Y-110770628D01*
X157933200Y-110818247D01*
X157909390Y-110865866D01*
X157885580Y-110889676D01*
X157837961Y-110913485D01*
X157671295Y-110913485D01*
X157543523Y-104623371D02*
X157567333Y-104647180D01*
X157543523Y-104670990D01*
X157519714Y-104647180D01*
X157543523Y-104623371D01*
X157543523Y-104670990D01*
X157710190Y-104170990D02*
X157995904Y-104170990D01*
X157853047Y-104670990D02*
X157853047Y-104170990D01*
%TO.C,TP2*%
X165739047Y-113365790D02*
X166024761Y-113365790D01*
X165881904Y-113865790D02*
X165881904Y-113365790D01*
X166191428Y-113865790D02*
X166191428Y-113365790D01*
X166381904Y-113365790D01*
X166429523Y-113389600D01*
X166453333Y-113413409D01*
X166477142Y-113461028D01*
X166477142Y-113532457D01*
X166453333Y-113580076D01*
X166429523Y-113603885D01*
X166381904Y-113627695D01*
X166191428Y-113627695D01*
X166667619Y-113413409D02*
X166691428Y-113389600D01*
X166739047Y-113365790D01*
X166858095Y-113365790D01*
X166905714Y-113389600D01*
X166929523Y-113413409D01*
X166953333Y-113461028D01*
X166953333Y-113508647D01*
X166929523Y-113580076D01*
X166643809Y-113865790D01*
X166953333Y-113865790D01*
%TO.C,R18*%
X152372190Y-119066428D02*
X152134095Y-119233095D01*
X152372190Y-119352142D02*
X151872190Y-119352142D01*
X151872190Y-119161666D01*
X151896000Y-119114047D01*
X151919809Y-119090238D01*
X151967428Y-119066428D01*
X152038857Y-119066428D01*
X152086476Y-119090238D01*
X152110285Y-119114047D01*
X152134095Y-119161666D01*
X152134095Y-119352142D01*
X152372190Y-118590238D02*
X152372190Y-118875952D01*
X152372190Y-118733095D02*
X151872190Y-118733095D01*
X151943619Y-118780714D01*
X151991238Y-118828333D01*
X152015047Y-118875952D01*
X152086476Y-118304523D02*
X152062666Y-118352142D01*
X152038857Y-118375952D01*
X151991238Y-118399761D01*
X151967428Y-118399761D01*
X151919809Y-118375952D01*
X151896000Y-118352142D01*
X151872190Y-118304523D01*
X151872190Y-118209285D01*
X151896000Y-118161666D01*
X151919809Y-118137857D01*
X151967428Y-118114047D01*
X151991238Y-118114047D01*
X152038857Y-118137857D01*
X152062666Y-118161666D01*
X152086476Y-118209285D01*
X152086476Y-118304523D01*
X152110285Y-118352142D01*
X152134095Y-118375952D01*
X152181714Y-118399761D01*
X152276952Y-118399761D01*
X152324571Y-118375952D01*
X152348380Y-118352142D01*
X152372190Y-118304523D01*
X152372190Y-118209285D01*
X152348380Y-118161666D01*
X152324571Y-118137857D01*
X152276952Y-118114047D01*
X152181714Y-118114047D01*
X152134095Y-118137857D01*
X152110285Y-118161666D01*
X152086476Y-118209285D01*
%TO.C,R23*%
X178153190Y-126940428D02*
X177915095Y-127107095D01*
X178153190Y-127226142D02*
X177653190Y-127226142D01*
X177653190Y-127035666D01*
X177677000Y-126988047D01*
X177700809Y-126964238D01*
X177748428Y-126940428D01*
X177819857Y-126940428D01*
X177867476Y-126964238D01*
X177891285Y-126988047D01*
X177915095Y-127035666D01*
X177915095Y-127226142D01*
X177700809Y-126749952D02*
X177677000Y-126726142D01*
X177653190Y-126678523D01*
X177653190Y-126559476D01*
X177677000Y-126511857D01*
X177700809Y-126488047D01*
X177748428Y-126464238D01*
X177796047Y-126464238D01*
X177867476Y-126488047D01*
X178153190Y-126773761D01*
X178153190Y-126464238D01*
X177653190Y-126297571D02*
X177653190Y-125988047D01*
X177843666Y-126154714D01*
X177843666Y-126083285D01*
X177867476Y-126035666D01*
X177891285Y-126011857D01*
X177938904Y-125988047D01*
X178057952Y-125988047D01*
X178105571Y-126011857D01*
X178129380Y-126035666D01*
X178153190Y-126083285D01*
X178153190Y-126226142D01*
X178129380Y-126273761D01*
X178105571Y-126297571D01*
%TO.C,R15*%
X151584790Y-127956428D02*
X151346695Y-128123095D01*
X151584790Y-128242142D02*
X151084790Y-128242142D01*
X151084790Y-128051666D01*
X151108600Y-128004047D01*
X151132409Y-127980238D01*
X151180028Y-127956428D01*
X151251457Y-127956428D01*
X151299076Y-127980238D01*
X151322885Y-128004047D01*
X151346695Y-128051666D01*
X151346695Y-128242142D01*
X151584790Y-127480238D02*
X151584790Y-127765952D01*
X151584790Y-127623095D02*
X151084790Y-127623095D01*
X151156219Y-127670714D01*
X151203838Y-127718333D01*
X151227647Y-127765952D01*
X151084790Y-127027857D02*
X151084790Y-127265952D01*
X151322885Y-127289761D01*
X151299076Y-127265952D01*
X151275266Y-127218333D01*
X151275266Y-127099285D01*
X151299076Y-127051666D01*
X151322885Y-127027857D01*
X151370504Y-127004047D01*
X151489552Y-127004047D01*
X151537171Y-127027857D01*
X151560980Y-127051666D01*
X151584790Y-127099285D01*
X151584790Y-127218333D01*
X151560980Y-127265952D01*
X151537171Y-127289761D01*
%TO.C,C5*%
X149682971Y-131045733D02*
X149706780Y-131069542D01*
X149730590Y-131140971D01*
X149730590Y-131188590D01*
X149706780Y-131260019D01*
X149659161Y-131307638D01*
X149611542Y-131331447D01*
X149516304Y-131355257D01*
X149444876Y-131355257D01*
X149349638Y-131331447D01*
X149302019Y-131307638D01*
X149254400Y-131260019D01*
X149230590Y-131188590D01*
X149230590Y-131140971D01*
X149254400Y-131069542D01*
X149278209Y-131045733D01*
X149230590Y-130593352D02*
X149230590Y-130831447D01*
X149468685Y-130855257D01*
X149444876Y-130831447D01*
X149421066Y-130783828D01*
X149421066Y-130664780D01*
X149444876Y-130617161D01*
X149468685Y-130593352D01*
X149516304Y-130569542D01*
X149635352Y-130569542D01*
X149682971Y-130593352D01*
X149706780Y-130617161D01*
X149730590Y-130664780D01*
X149730590Y-130783828D01*
X149706780Y-130831447D01*
X149682971Y-130855257D01*
%TO.C,D2*%
X151197790Y-117082047D02*
X150697790Y-117082047D01*
X150697790Y-116963000D01*
X150721600Y-116891571D01*
X150769219Y-116843952D01*
X150816838Y-116820142D01*
X150912076Y-116796333D01*
X150983504Y-116796333D01*
X151078742Y-116820142D01*
X151126361Y-116843952D01*
X151173980Y-116891571D01*
X151197790Y-116963000D01*
X151197790Y-117082047D01*
X150745409Y-116605857D02*
X150721600Y-116582047D01*
X150697790Y-116534428D01*
X150697790Y-116415380D01*
X150721600Y-116367761D01*
X150745409Y-116343952D01*
X150793028Y-116320142D01*
X150840647Y-116320142D01*
X150912076Y-116343952D01*
X151197790Y-116629666D01*
X151197790Y-116320142D01*
%TO.C,R31*%
X153438990Y-102226228D02*
X153200895Y-102392895D01*
X153438990Y-102511942D02*
X152938990Y-102511942D01*
X152938990Y-102321466D01*
X152962800Y-102273847D01*
X152986609Y-102250038D01*
X153034228Y-102226228D01*
X153105657Y-102226228D01*
X153153276Y-102250038D01*
X153177085Y-102273847D01*
X153200895Y-102321466D01*
X153200895Y-102511942D01*
X152938990Y-102059561D02*
X152938990Y-101750038D01*
X153129466Y-101916704D01*
X153129466Y-101845276D01*
X153153276Y-101797657D01*
X153177085Y-101773847D01*
X153224704Y-101750038D01*
X153343752Y-101750038D01*
X153391371Y-101773847D01*
X153415180Y-101797657D01*
X153438990Y-101845276D01*
X153438990Y-101988133D01*
X153415180Y-102035752D01*
X153391371Y-102059561D01*
X153438990Y-101273847D02*
X153438990Y-101559561D01*
X153438990Y-101416704D02*
X152938990Y-101416704D01*
X153010419Y-101464323D01*
X153058038Y-101511942D01*
X153081847Y-101559561D01*
%TO.C,R4*%
X161665790Y-102826333D02*
X161427695Y-102993000D01*
X161665790Y-103112047D02*
X161165790Y-103112047D01*
X161165790Y-102921571D01*
X161189600Y-102873952D01*
X161213409Y-102850142D01*
X161261028Y-102826333D01*
X161332457Y-102826333D01*
X161380076Y-102850142D01*
X161403885Y-102873952D01*
X161427695Y-102921571D01*
X161427695Y-103112047D01*
X161332457Y-102397761D02*
X161665790Y-102397761D01*
X161141980Y-102516809D02*
X161499123Y-102635857D01*
X161499123Y-102326333D01*
%TO.C,RV1*%
X176740380Y-110970190D02*
X176573714Y-110732095D01*
X176454666Y-110970190D02*
X176454666Y-110470190D01*
X176645142Y-110470190D01*
X176692761Y-110494000D01*
X176716571Y-110517809D01*
X176740380Y-110565428D01*
X176740380Y-110636857D01*
X176716571Y-110684476D01*
X176692761Y-110708285D01*
X176645142Y-110732095D01*
X176454666Y-110732095D01*
X176883238Y-110470190D02*
X177049904Y-110970190D01*
X177216571Y-110470190D01*
X177645142Y-110970190D02*
X177359428Y-110970190D01*
X177502285Y-110970190D02*
X177502285Y-110470190D01*
X177454666Y-110541619D01*
X177407047Y-110589238D01*
X177359428Y-110613047D01*
%TO.C,R30*%
X161770190Y-120717428D02*
X161532095Y-120884095D01*
X161770190Y-121003142D02*
X161270190Y-121003142D01*
X161270190Y-120812666D01*
X161294000Y-120765047D01*
X161317809Y-120741238D01*
X161365428Y-120717428D01*
X161436857Y-120717428D01*
X161484476Y-120741238D01*
X161508285Y-120765047D01*
X161532095Y-120812666D01*
X161532095Y-121003142D01*
X161270190Y-120550761D02*
X161270190Y-120241238D01*
X161460666Y-120407904D01*
X161460666Y-120336476D01*
X161484476Y-120288857D01*
X161508285Y-120265047D01*
X161555904Y-120241238D01*
X161674952Y-120241238D01*
X161722571Y-120265047D01*
X161746380Y-120288857D01*
X161770190Y-120336476D01*
X161770190Y-120479333D01*
X161746380Y-120526952D01*
X161722571Y-120550761D01*
X161270190Y-119931714D02*
X161270190Y-119884095D01*
X161294000Y-119836476D01*
X161317809Y-119812666D01*
X161365428Y-119788857D01*
X161460666Y-119765047D01*
X161579714Y-119765047D01*
X161674952Y-119788857D01*
X161722571Y-119812666D01*
X161746380Y-119836476D01*
X161770190Y-119884095D01*
X161770190Y-119931714D01*
X161746380Y-119979333D01*
X161722571Y-120003142D01*
X161674952Y-120026952D01*
X161579714Y-120050761D01*
X161460666Y-120050761D01*
X161365428Y-120026952D01*
X161317809Y-120003142D01*
X161294000Y-119979333D01*
X161270190Y-119931714D01*
%TO.C,IC1*%
X156331504Y-104670990D02*
X156331504Y-104170990D01*
X156855314Y-104623371D02*
X156831504Y-104647180D01*
X156760076Y-104670990D01*
X156712457Y-104670990D01*
X156641028Y-104647180D01*
X156593409Y-104599561D01*
X156569600Y-104551942D01*
X156545790Y-104456704D01*
X156545790Y-104385276D01*
X156569600Y-104290038D01*
X156593409Y-104242419D01*
X156641028Y-104194800D01*
X156712457Y-104170990D01*
X156760076Y-104170990D01*
X156831504Y-104194800D01*
X156855314Y-104218609D01*
X157331504Y-104670990D02*
X157045790Y-104670990D01*
X157188647Y-104670990D02*
X157188647Y-104170990D01*
X157141028Y-104242419D01*
X157093409Y-104290038D01*
X157045790Y-104313847D01*
%TO.C,C4*%
X155855171Y-131045733D02*
X155878980Y-131069542D01*
X155902790Y-131140971D01*
X155902790Y-131188590D01*
X155878980Y-131260019D01*
X155831361Y-131307638D01*
X155783742Y-131331447D01*
X155688504Y-131355257D01*
X155617076Y-131355257D01*
X155521838Y-131331447D01*
X155474219Y-131307638D01*
X155426600Y-131260019D01*
X155402790Y-131188590D01*
X155402790Y-131140971D01*
X155426600Y-131069542D01*
X155450409Y-131045733D01*
X155569457Y-130617161D02*
X155902790Y-130617161D01*
X155378980Y-130736209D02*
X155736123Y-130855257D01*
X155736123Y-130545733D01*
%TO.C,C3*%
X162832266Y-129820171D02*
X162808457Y-129843980D01*
X162737028Y-129867790D01*
X162689409Y-129867790D01*
X162617980Y-129843980D01*
X162570361Y-129796361D01*
X162546552Y-129748742D01*
X162522742Y-129653504D01*
X162522742Y-129582076D01*
X162546552Y-129486838D01*
X162570361Y-129439219D01*
X162617980Y-129391600D01*
X162689409Y-129367790D01*
X162737028Y-129367790D01*
X162808457Y-129391600D01*
X162832266Y-129415409D01*
X162998933Y-129367790D02*
X163308457Y-129367790D01*
X163141790Y-129558266D01*
X163213219Y-129558266D01*
X163260838Y-129582076D01*
X163284647Y-129605885D01*
X163308457Y-129653504D01*
X163308457Y-129772552D01*
X163284647Y-129820171D01*
X163260838Y-129843980D01*
X163213219Y-129867790D01*
X163070361Y-129867790D01*
X163022742Y-129843980D01*
X162998933Y-129820171D01*
%TO.C,R29*%
X163090990Y-120717428D02*
X162852895Y-120884095D01*
X163090990Y-121003142D02*
X162590990Y-121003142D01*
X162590990Y-120812666D01*
X162614800Y-120765047D01*
X162638609Y-120741238D01*
X162686228Y-120717428D01*
X162757657Y-120717428D01*
X162805276Y-120741238D01*
X162829085Y-120765047D01*
X162852895Y-120812666D01*
X162852895Y-121003142D01*
X162638609Y-120526952D02*
X162614800Y-120503142D01*
X162590990Y-120455523D01*
X162590990Y-120336476D01*
X162614800Y-120288857D01*
X162638609Y-120265047D01*
X162686228Y-120241238D01*
X162733847Y-120241238D01*
X162805276Y-120265047D01*
X163090990Y-120550761D01*
X163090990Y-120241238D01*
X163090990Y-120003142D02*
X163090990Y-119907904D01*
X163067180Y-119860285D01*
X163043371Y-119836476D01*
X162971942Y-119788857D01*
X162876704Y-119765047D01*
X162686228Y-119765047D01*
X162638609Y-119788857D01*
X162614800Y-119812666D01*
X162590990Y-119860285D01*
X162590990Y-119955523D01*
X162614800Y-120003142D01*
X162638609Y-120026952D01*
X162686228Y-120050761D01*
X162805276Y-120050761D01*
X162852895Y-120026952D01*
X162876704Y-120003142D01*
X162900514Y-119955523D01*
X162900514Y-119860285D01*
X162876704Y-119812666D01*
X162852895Y-119788857D01*
X162805276Y-119765047D01*
%TO.C,R5*%
X152473790Y-116809033D02*
X152235695Y-116975700D01*
X152473790Y-117094747D02*
X151973790Y-117094747D01*
X151973790Y-116904271D01*
X151997600Y-116856652D01*
X152021409Y-116832842D01*
X152069028Y-116809033D01*
X152140457Y-116809033D01*
X152188076Y-116832842D01*
X152211885Y-116856652D01*
X152235695Y-116904271D01*
X152235695Y-117094747D01*
X151973790Y-116356652D02*
X151973790Y-116594747D01*
X152211885Y-116618557D01*
X152188076Y-116594747D01*
X152164266Y-116547128D01*
X152164266Y-116428080D01*
X152188076Y-116380461D01*
X152211885Y-116356652D01*
X152259504Y-116332842D01*
X152378552Y-116332842D01*
X152426171Y-116356652D01*
X152449980Y-116380461D01*
X152473790Y-116428080D01*
X152473790Y-116547128D01*
X152449980Y-116594747D01*
X152426171Y-116618557D01*
%TO.C,R12*%
X164437190Y-124527428D02*
X164199095Y-124694095D01*
X164437190Y-124813142D02*
X163937190Y-124813142D01*
X163937190Y-124622666D01*
X163961000Y-124575047D01*
X163984809Y-124551238D01*
X164032428Y-124527428D01*
X164103857Y-124527428D01*
X164151476Y-124551238D01*
X164175285Y-124575047D01*
X164199095Y-124622666D01*
X164199095Y-124813142D01*
X164437190Y-124051238D02*
X164437190Y-124336952D01*
X164437190Y-124194095D02*
X163937190Y-124194095D01*
X164008619Y-124241714D01*
X164056238Y-124289333D01*
X164080047Y-124336952D01*
X163984809Y-123860761D02*
X163961000Y-123836952D01*
X163937190Y-123789333D01*
X163937190Y-123670285D01*
X163961000Y-123622666D01*
X163984809Y-123598857D01*
X164032428Y-123575047D01*
X164080047Y-123575047D01*
X164151476Y-123598857D01*
X164437190Y-123884571D01*
X164437190Y-123575047D01*
%TO.C,R7*%
X163037390Y-102826333D02*
X162799295Y-102993000D01*
X163037390Y-103112047D02*
X162537390Y-103112047D01*
X162537390Y-102921571D01*
X162561200Y-102873952D01*
X162585009Y-102850142D01*
X162632628Y-102826333D01*
X162704057Y-102826333D01*
X162751676Y-102850142D01*
X162775485Y-102873952D01*
X162799295Y-102921571D01*
X162799295Y-103112047D01*
X162537390Y-102659666D02*
X162537390Y-102326333D01*
X163037390Y-102540619D01*
%TO.C,R20*%
X152143590Y-134585828D02*
X151905495Y-134752495D01*
X152143590Y-134871542D02*
X151643590Y-134871542D01*
X151643590Y-134681066D01*
X151667400Y-134633447D01*
X151691209Y-134609638D01*
X151738828Y-134585828D01*
X151810257Y-134585828D01*
X151857876Y-134609638D01*
X151881685Y-134633447D01*
X151905495Y-134681066D01*
X151905495Y-134871542D01*
X151691209Y-134395352D02*
X151667400Y-134371542D01*
X151643590Y-134323923D01*
X151643590Y-134204876D01*
X151667400Y-134157257D01*
X151691209Y-134133447D01*
X151738828Y-134109638D01*
X151786447Y-134109638D01*
X151857876Y-134133447D01*
X152143590Y-134419161D01*
X152143590Y-134109638D01*
X151643590Y-133800114D02*
X151643590Y-133752495D01*
X151667400Y-133704876D01*
X151691209Y-133681066D01*
X151738828Y-133657257D01*
X151834066Y-133633447D01*
X151953114Y-133633447D01*
X152048352Y-133657257D01*
X152095971Y-133681066D01*
X152119780Y-133704876D01*
X152143590Y-133752495D01*
X152143590Y-133800114D01*
X152119780Y-133847733D01*
X152095971Y-133871542D01*
X152048352Y-133895352D01*
X151953114Y-133919161D01*
X151834066Y-133919161D01*
X151738828Y-133895352D01*
X151691209Y-133871542D01*
X151667400Y-133847733D01*
X151643590Y-133800114D01*
%TO.C,D4*%
X175740190Y-129401047D02*
X175240190Y-129401047D01*
X175240190Y-129282000D01*
X175264000Y-129210571D01*
X175311619Y-129162952D01*
X175359238Y-129139142D01*
X175454476Y-129115333D01*
X175525904Y-129115333D01*
X175621142Y-129139142D01*
X175668761Y-129162952D01*
X175716380Y-129210571D01*
X175740190Y-129282000D01*
X175740190Y-129401047D01*
X175406857Y-128686761D02*
X175740190Y-128686761D01*
X175216380Y-128805809D02*
X175573523Y-128924857D01*
X175573523Y-128615333D01*
%TO.C,D3*%
X178026190Y-129401047D02*
X177526190Y-129401047D01*
X177526190Y-129282000D01*
X177550000Y-129210571D01*
X177597619Y-129162952D01*
X177645238Y-129139142D01*
X177740476Y-129115333D01*
X177811904Y-129115333D01*
X177907142Y-129139142D01*
X177954761Y-129162952D01*
X178002380Y-129210571D01*
X178026190Y-129282000D01*
X178026190Y-129401047D01*
X177526190Y-128948666D02*
X177526190Y-128639142D01*
X177716666Y-128805809D01*
X177716666Y-128734380D01*
X177740476Y-128686761D01*
X177764285Y-128662952D01*
X177811904Y-128639142D01*
X177930952Y-128639142D01*
X177978571Y-128662952D01*
X178002380Y-128686761D01*
X178026190Y-128734380D01*
X178026190Y-128877238D01*
X178002380Y-128924857D01*
X177978571Y-128948666D01*
%TO.C,R11*%
X161897190Y-124527428D02*
X161659095Y-124694095D01*
X161897190Y-124813142D02*
X161397190Y-124813142D01*
X161397190Y-124622666D01*
X161421000Y-124575047D01*
X161444809Y-124551238D01*
X161492428Y-124527428D01*
X161563857Y-124527428D01*
X161611476Y-124551238D01*
X161635285Y-124575047D01*
X161659095Y-124622666D01*
X161659095Y-124813142D01*
X161897190Y-124051238D02*
X161897190Y-124336952D01*
X161897190Y-124194095D02*
X161397190Y-124194095D01*
X161468619Y-124241714D01*
X161516238Y-124289333D01*
X161540047Y-124336952D01*
X161897190Y-123575047D02*
X161897190Y-123860761D01*
X161897190Y-123717904D02*
X161397190Y-123717904D01*
X161468619Y-123765523D01*
X161516238Y-123813142D01*
X161540047Y-123860761D01*
%TO.C,C11*%
X150140171Y-112894228D02*
X150163980Y-112918038D01*
X150187790Y-112989466D01*
X150187790Y-113037085D01*
X150163980Y-113108514D01*
X150116361Y-113156133D01*
X150068742Y-113179942D01*
X149973504Y-113203752D01*
X149902076Y-113203752D01*
X149806838Y-113179942D01*
X149759219Y-113156133D01*
X149711600Y-113108514D01*
X149687790Y-113037085D01*
X149687790Y-112989466D01*
X149711600Y-112918038D01*
X149735409Y-112894228D01*
X150187790Y-112418038D02*
X150187790Y-112703752D01*
X150187790Y-112560895D02*
X149687790Y-112560895D01*
X149759219Y-112608514D01*
X149806838Y-112656133D01*
X149830647Y-112703752D01*
X150187790Y-111941847D02*
X150187790Y-112227561D01*
X150187790Y-112084704D02*
X149687790Y-112084704D01*
X149759219Y-112132323D01*
X149806838Y-112179942D01*
X149830647Y-112227561D01*
%TO.C,R21*%
X160601790Y-135144628D02*
X160363695Y-135311295D01*
X160601790Y-135430342D02*
X160101790Y-135430342D01*
X160101790Y-135239866D01*
X160125600Y-135192247D01*
X160149409Y-135168438D01*
X160197028Y-135144628D01*
X160268457Y-135144628D01*
X160316076Y-135168438D01*
X160339885Y-135192247D01*
X160363695Y-135239866D01*
X160363695Y-135430342D01*
X160149409Y-134954152D02*
X160125600Y-134930342D01*
X160101790Y-134882723D01*
X160101790Y-134763676D01*
X160125600Y-134716057D01*
X160149409Y-134692247D01*
X160197028Y-134668438D01*
X160244647Y-134668438D01*
X160316076Y-134692247D01*
X160601790Y-134977961D01*
X160601790Y-134668438D01*
X160601790Y-134192247D02*
X160601790Y-134477961D01*
X160601790Y-134335104D02*
X160101790Y-134335104D01*
X160173219Y-134382723D01*
X160220838Y-134430342D01*
X160244647Y-134477961D01*
%TO.C,IC2*%
X156280704Y-111173390D02*
X156280704Y-110673390D01*
X156804514Y-111125771D02*
X156780704Y-111149580D01*
X156709276Y-111173390D01*
X156661657Y-111173390D01*
X156590228Y-111149580D01*
X156542609Y-111101961D01*
X156518800Y-111054342D01*
X156494990Y-110959104D01*
X156494990Y-110887676D01*
X156518800Y-110792438D01*
X156542609Y-110744819D01*
X156590228Y-110697200D01*
X156661657Y-110673390D01*
X156709276Y-110673390D01*
X156780704Y-110697200D01*
X156804514Y-110721009D01*
X156994990Y-110721009D02*
X157018800Y-110697200D01*
X157066419Y-110673390D01*
X157185466Y-110673390D01*
X157233085Y-110697200D01*
X157256895Y-110721009D01*
X157280704Y-110768628D01*
X157280704Y-110816247D01*
X157256895Y-110887676D01*
X156971180Y-111173390D01*
X157280704Y-111173390D01*
%TO.C,IC4*%
X169844304Y-106398190D02*
X169844304Y-105898190D01*
X170368114Y-106350571D02*
X170344304Y-106374380D01*
X170272876Y-106398190D01*
X170225257Y-106398190D01*
X170153828Y-106374380D01*
X170106209Y-106326761D01*
X170082400Y-106279142D01*
X170058590Y-106183904D01*
X170058590Y-106112476D01*
X170082400Y-106017238D01*
X170106209Y-105969619D01*
X170153828Y-105922000D01*
X170225257Y-105898190D01*
X170272876Y-105898190D01*
X170344304Y-105922000D01*
X170368114Y-105945809D01*
X170796685Y-106064857D02*
X170796685Y-106398190D01*
X170677638Y-105874380D02*
X170558590Y-106231523D01*
X170868114Y-106231523D01*
%TO.C,C2*%
X161773371Y-113291133D02*
X161797180Y-113314942D01*
X161820990Y-113386371D01*
X161820990Y-113433990D01*
X161797180Y-113505419D01*
X161749561Y-113553038D01*
X161701942Y-113576847D01*
X161606704Y-113600657D01*
X161535276Y-113600657D01*
X161440038Y-113576847D01*
X161392419Y-113553038D01*
X161344800Y-113505419D01*
X161320990Y-113433990D01*
X161320990Y-113386371D01*
X161344800Y-113314942D01*
X161368609Y-113291133D01*
X161368609Y-113100657D02*
X161344800Y-113076847D01*
X161320990Y-113029228D01*
X161320990Y-112910180D01*
X161344800Y-112862561D01*
X161368609Y-112838752D01*
X161416228Y-112814942D01*
X161463847Y-112814942D01*
X161535276Y-112838752D01*
X161820990Y-113124466D01*
X161820990Y-112814942D01*
%TO.C,D1*%
X151200990Y-110630447D02*
X150700990Y-110630447D01*
X150700990Y-110511400D01*
X150724800Y-110439971D01*
X150772419Y-110392352D01*
X150820038Y-110368542D01*
X150915276Y-110344733D01*
X150986704Y-110344733D01*
X151081942Y-110368542D01*
X151129561Y-110392352D01*
X151177180Y-110439971D01*
X151200990Y-110511400D01*
X151200990Y-110630447D01*
X151200990Y-109868542D02*
X151200990Y-110154257D01*
X151200990Y-110011400D02*
X150700990Y-110011400D01*
X150772419Y-110059019D01*
X150820038Y-110106638D01*
X150843847Y-110154257D01*
%TO.C,D5*%
X168337752Y-104645590D02*
X168337752Y-104145590D01*
X168456800Y-104145590D01*
X168528228Y-104169400D01*
X168575847Y-104217019D01*
X168599657Y-104264638D01*
X168623466Y-104359876D01*
X168623466Y-104431304D01*
X168599657Y-104526542D01*
X168575847Y-104574161D01*
X168528228Y-104621780D01*
X168456800Y-104645590D01*
X168337752Y-104645590D01*
X169075847Y-104145590D02*
X168837752Y-104145590D01*
X168813942Y-104383685D01*
X168837752Y-104359876D01*
X168885371Y-104336066D01*
X169004419Y-104336066D01*
X169052038Y-104359876D01*
X169075847Y-104383685D01*
X169099657Y-104431304D01*
X169099657Y-104550352D01*
X169075847Y-104597971D01*
X169052038Y-104621780D01*
X169004419Y-104645590D01*
X168885371Y-104645590D01*
X168837752Y-104621780D01*
X168813942Y-104597971D01*
%TO.C,C6*%
X178224666Y-109982771D02*
X178200857Y-110006580D01*
X178129428Y-110030390D01*
X178081809Y-110030390D01*
X178010380Y-110006580D01*
X177962761Y-109958961D01*
X177938952Y-109911342D01*
X177915142Y-109816104D01*
X177915142Y-109744676D01*
X177938952Y-109649438D01*
X177962761Y-109601819D01*
X178010380Y-109554200D01*
X178081809Y-109530390D01*
X178129428Y-109530390D01*
X178200857Y-109554200D01*
X178224666Y-109578009D01*
X178653238Y-109530390D02*
X178558000Y-109530390D01*
X178510380Y-109554200D01*
X178486571Y-109578009D01*
X178438952Y-109649438D01*
X178415142Y-109744676D01*
X178415142Y-109935152D01*
X178438952Y-109982771D01*
X178462761Y-110006580D01*
X178510380Y-110030390D01*
X178605619Y-110030390D01*
X178653238Y-110006580D01*
X178677047Y-109982771D01*
X178700857Y-109935152D01*
X178700857Y-109816104D01*
X178677047Y-109768485D01*
X178653238Y-109744676D01*
X178605619Y-109720866D01*
X178510380Y-109720866D01*
X178462761Y-109744676D01*
X178438952Y-109768485D01*
X178415142Y-109816104D01*
%TO.C,D6*%
X170460952Y-105256190D02*
X170460952Y-104756190D01*
X170580000Y-104756190D01*
X170651428Y-104780000D01*
X170699047Y-104827619D01*
X170722857Y-104875238D01*
X170746666Y-104970476D01*
X170746666Y-105041904D01*
X170722857Y-105137142D01*
X170699047Y-105184761D01*
X170651428Y-105232380D01*
X170580000Y-105256190D01*
X170460952Y-105256190D01*
X171175238Y-104756190D02*
X171080000Y-104756190D01*
X171032380Y-104780000D01*
X171008571Y-104803809D01*
X170960952Y-104875238D01*
X170937142Y-104970476D01*
X170937142Y-105160952D01*
X170960952Y-105208571D01*
X170984761Y-105232380D01*
X171032380Y-105256190D01*
X171127619Y-105256190D01*
X171175238Y-105232380D01*
X171199047Y-105208571D01*
X171222857Y-105160952D01*
X171222857Y-105041904D01*
X171199047Y-104994285D01*
X171175238Y-104970476D01*
X171127619Y-104946666D01*
X171032380Y-104946666D01*
X170984761Y-104970476D01*
X170960952Y-104994285D01*
X170937142Y-105041904D01*
%TO.C,R9*%
X163037390Y-101403933D02*
X162799295Y-101570600D01*
X163037390Y-101689647D02*
X162537390Y-101689647D01*
X162537390Y-101499171D01*
X162561200Y-101451552D01*
X162585009Y-101427742D01*
X162632628Y-101403933D01*
X162704057Y-101403933D01*
X162751676Y-101427742D01*
X162775485Y-101451552D01*
X162799295Y-101499171D01*
X162799295Y-101689647D01*
X163037390Y-101165838D02*
X163037390Y-101070600D01*
X163013580Y-101022980D01*
X162989771Y-100999171D01*
X162918342Y-100951552D01*
X162823104Y-100927742D01*
X162632628Y-100927742D01*
X162585009Y-100951552D01*
X162561200Y-100975361D01*
X162537390Y-101022980D01*
X162537390Y-101118219D01*
X162561200Y-101165838D01*
X162585009Y-101189647D01*
X162632628Y-101213457D01*
X162751676Y-101213457D01*
X162799295Y-101189647D01*
X162823104Y-101165838D01*
X162846914Y-101118219D01*
X162846914Y-101022980D01*
X162823104Y-100975361D01*
X162799295Y-100951552D01*
X162751676Y-100927742D01*
%TO.C,IC5*%
X167285990Y-117353495D02*
X166785990Y-117353495D01*
X167238371Y-116829685D02*
X167262180Y-116853495D01*
X167285990Y-116924923D01*
X167285990Y-116972542D01*
X167262180Y-117043971D01*
X167214561Y-117091590D01*
X167166942Y-117115400D01*
X167071704Y-117139209D01*
X167000276Y-117139209D01*
X166905038Y-117115400D01*
X166857419Y-117091590D01*
X166809800Y-117043971D01*
X166785990Y-116972542D01*
X166785990Y-116924923D01*
X166809800Y-116853495D01*
X166833609Y-116829685D01*
X166785990Y-116377304D02*
X166785990Y-116615400D01*
X167024085Y-116639209D01*
X167000276Y-116615400D01*
X166976466Y-116567780D01*
X166976466Y-116448733D01*
X167000276Y-116401114D01*
X167024085Y-116377304D01*
X167071704Y-116353495D01*
X167190752Y-116353495D01*
X167238371Y-116377304D01*
X167262180Y-116401114D01*
X167285990Y-116448733D01*
X167285990Y-116567780D01*
X167262180Y-116615400D01*
X167238371Y-116639209D01*
%TO.C,L1*%
X179126666Y-107016190D02*
X178888571Y-107016190D01*
X178888571Y-106516190D01*
X179555238Y-107016190D02*
X179269523Y-107016190D01*
X179412380Y-107016190D02*
X179412380Y-106516190D01*
X179364761Y-106587619D01*
X179317142Y-106635238D01*
X179269523Y-106659047D01*
%TO.C,IC6*%
X156229904Y-117777390D02*
X156229904Y-117277390D01*
X156753714Y-117729771D02*
X156729904Y-117753580D01*
X156658476Y-117777390D01*
X156610857Y-117777390D01*
X156539428Y-117753580D01*
X156491809Y-117705961D01*
X156468000Y-117658342D01*
X156444190Y-117563104D01*
X156444190Y-117491676D01*
X156468000Y-117396438D01*
X156491809Y-117348819D01*
X156539428Y-117301200D01*
X156610857Y-117277390D01*
X156658476Y-117277390D01*
X156729904Y-117301200D01*
X156753714Y-117325009D01*
X157182285Y-117277390D02*
X157087047Y-117277390D01*
X157039428Y-117301200D01*
X157015619Y-117325009D01*
X156968000Y-117396438D01*
X156944190Y-117491676D01*
X156944190Y-117682152D01*
X156968000Y-117729771D01*
X156991809Y-117753580D01*
X157039428Y-117777390D01*
X157134666Y-117777390D01*
X157182285Y-117753580D01*
X157206095Y-117729771D01*
X157229904Y-117682152D01*
X157229904Y-117563104D01*
X157206095Y-117515485D01*
X157182285Y-117491676D01*
X157134666Y-117467866D01*
X157039428Y-117467866D01*
X156991809Y-117491676D01*
X156968000Y-117515485D01*
X156944190Y-117563104D01*
%TO.C,R32*%
X155013790Y-101515028D02*
X154775695Y-101681695D01*
X155013790Y-101800742D02*
X154513790Y-101800742D01*
X154513790Y-101610266D01*
X154537600Y-101562647D01*
X154561409Y-101538838D01*
X154609028Y-101515028D01*
X154680457Y-101515028D01*
X154728076Y-101538838D01*
X154751885Y-101562647D01*
X154775695Y-101610266D01*
X154775695Y-101800742D01*
X154513790Y-101348361D02*
X154513790Y-101038838D01*
X154704266Y-101205504D01*
X154704266Y-101134076D01*
X154728076Y-101086457D01*
X154751885Y-101062647D01*
X154799504Y-101038838D01*
X154918552Y-101038838D01*
X154966171Y-101062647D01*
X154989980Y-101086457D01*
X155013790Y-101134076D01*
X155013790Y-101276933D01*
X154989980Y-101324552D01*
X154966171Y-101348361D01*
X154561409Y-100848361D02*
X154537600Y-100824552D01*
X154513790Y-100776933D01*
X154513790Y-100657885D01*
X154537600Y-100610266D01*
X154561409Y-100586457D01*
X154609028Y-100562647D01*
X154656647Y-100562647D01*
X154728076Y-100586457D01*
X155013790Y-100872171D01*
X155013790Y-100562647D01*
%TO.C,IC3*%
X156229904Y-124330590D02*
X156229904Y-123830590D01*
X156753714Y-124282971D02*
X156729904Y-124306780D01*
X156658476Y-124330590D01*
X156610857Y-124330590D01*
X156539428Y-124306780D01*
X156491809Y-124259161D01*
X156468000Y-124211542D01*
X156444190Y-124116304D01*
X156444190Y-124044876D01*
X156468000Y-123949638D01*
X156491809Y-123902019D01*
X156539428Y-123854400D01*
X156610857Y-123830590D01*
X156658476Y-123830590D01*
X156729904Y-123854400D01*
X156753714Y-123878209D01*
X156920380Y-123830590D02*
X157229904Y-123830590D01*
X157063238Y-124021066D01*
X157134666Y-124021066D01*
X157182285Y-124044876D01*
X157206095Y-124068685D01*
X157229904Y-124116304D01*
X157229904Y-124235352D01*
X157206095Y-124282971D01*
X157182285Y-124306780D01*
X157134666Y-124330590D01*
X156991809Y-124330590D01*
X156944190Y-124306780D01*
X156920380Y-124282971D01*
%TO.C,TP1*%
X165535847Y-108082590D02*
X165821561Y-108082590D01*
X165678704Y-108582590D02*
X165678704Y-108082590D01*
X165988228Y-108582590D02*
X165988228Y-108082590D01*
X166178704Y-108082590D01*
X166226323Y-108106400D01*
X166250133Y-108130209D01*
X166273942Y-108177828D01*
X166273942Y-108249257D01*
X166250133Y-108296876D01*
X166226323Y-108320685D01*
X166178704Y-108344495D01*
X165988228Y-108344495D01*
X166750133Y-108582590D02*
X166464419Y-108582590D01*
X166607276Y-108582590D02*
X166607276Y-108082590D01*
X166559657Y-108154019D01*
X166512038Y-108201638D01*
X166464419Y-108225447D01*
%TO.C,U2*%
X171176190Y-125602952D02*
X171580952Y-125602952D01*
X171628571Y-125579142D01*
X171652380Y-125555333D01*
X171676190Y-125507714D01*
X171676190Y-125412476D01*
X171652380Y-125364857D01*
X171628571Y-125341047D01*
X171580952Y-125317238D01*
X171176190Y-125317238D01*
X171223809Y-125102952D02*
X171200000Y-125079142D01*
X171176190Y-125031523D01*
X171176190Y-124912476D01*
X171200000Y-124864857D01*
X171223809Y-124841047D01*
X171271428Y-124817238D01*
X171319047Y-124817238D01*
X171390476Y-124841047D01*
X171676190Y-125126761D01*
X171676190Y-124817238D01*
%TO.C,R26*%
X152372190Y-123257428D02*
X152134095Y-123424095D01*
X152372190Y-123543142D02*
X151872190Y-123543142D01*
X151872190Y-123352666D01*
X151896000Y-123305047D01*
X151919809Y-123281238D01*
X151967428Y-123257428D01*
X152038857Y-123257428D01*
X152086476Y-123281238D01*
X152110285Y-123305047D01*
X152134095Y-123352666D01*
X152134095Y-123543142D01*
X151919809Y-123066952D02*
X151896000Y-123043142D01*
X151872190Y-122995523D01*
X151872190Y-122876476D01*
X151896000Y-122828857D01*
X151919809Y-122805047D01*
X151967428Y-122781238D01*
X152015047Y-122781238D01*
X152086476Y-122805047D01*
X152372190Y-123090761D01*
X152372190Y-122781238D01*
X151872190Y-122352666D02*
X151872190Y-122447904D01*
X151896000Y-122495523D01*
X151919809Y-122519333D01*
X151991238Y-122566952D01*
X152086476Y-122590761D01*
X152276952Y-122590761D01*
X152324571Y-122566952D01*
X152348380Y-122543142D01*
X152372190Y-122495523D01*
X152372190Y-122400285D01*
X152348380Y-122352666D01*
X152324571Y-122328857D01*
X152276952Y-122305047D01*
X152157904Y-122305047D01*
X152110285Y-122328857D01*
X152086476Y-122352666D01*
X152062666Y-122400285D01*
X152062666Y-122495523D01*
X152086476Y-122543142D01*
X152110285Y-122566952D01*
X152157904Y-122590761D01*
%TO.C,R10*%
X164056190Y-111954428D02*
X163818095Y-112121095D01*
X164056190Y-112240142D02*
X163556190Y-112240142D01*
X163556190Y-112049666D01*
X163580000Y-112002047D01*
X163603809Y-111978238D01*
X163651428Y-111954428D01*
X163722857Y-111954428D01*
X163770476Y-111978238D01*
X163794285Y-112002047D01*
X163818095Y-112049666D01*
X163818095Y-112240142D01*
X164056190Y-111478238D02*
X164056190Y-111763952D01*
X164056190Y-111621095D02*
X163556190Y-111621095D01*
X163627619Y-111668714D01*
X163675238Y-111716333D01*
X163699047Y-111763952D01*
X163556190Y-111168714D02*
X163556190Y-111121095D01*
X163580000Y-111073476D01*
X163603809Y-111049666D01*
X163651428Y-111025857D01*
X163746666Y-111002047D01*
X163865714Y-111002047D01*
X163960952Y-111025857D01*
X164008571Y-111049666D01*
X164032380Y-111073476D01*
X164056190Y-111121095D01*
X164056190Y-111168714D01*
X164032380Y-111216333D01*
X164008571Y-111240142D01*
X163960952Y-111263952D01*
X163865714Y-111287761D01*
X163746666Y-111287761D01*
X163651428Y-111263952D01*
X163603809Y-111240142D01*
X163580000Y-111216333D01*
X163556190Y-111168714D01*
%TO.C,R27*%
X151254590Y-119066428D02*
X151016495Y-119233095D01*
X151254590Y-119352142D02*
X150754590Y-119352142D01*
X150754590Y-119161666D01*
X150778400Y-119114047D01*
X150802209Y-119090238D01*
X150849828Y-119066428D01*
X150921257Y-119066428D01*
X150968876Y-119090238D01*
X150992685Y-119114047D01*
X151016495Y-119161666D01*
X151016495Y-119352142D01*
X150802209Y-118875952D02*
X150778400Y-118852142D01*
X150754590Y-118804523D01*
X150754590Y-118685476D01*
X150778400Y-118637857D01*
X150802209Y-118614047D01*
X150849828Y-118590238D01*
X150897447Y-118590238D01*
X150968876Y-118614047D01*
X151254590Y-118899761D01*
X151254590Y-118590238D01*
X150754590Y-118423571D02*
X150754590Y-118090238D01*
X151254590Y-118304523D01*
%TO.C,RV2*%
X176740380Y-118717190D02*
X176573714Y-118479095D01*
X176454666Y-118717190D02*
X176454666Y-118217190D01*
X176645142Y-118217190D01*
X176692761Y-118241000D01*
X176716571Y-118264809D01*
X176740380Y-118312428D01*
X176740380Y-118383857D01*
X176716571Y-118431476D01*
X176692761Y-118455285D01*
X176645142Y-118479095D01*
X176454666Y-118479095D01*
X176883238Y-118217190D02*
X177049904Y-118717190D01*
X177216571Y-118217190D01*
X177359428Y-118264809D02*
X177383238Y-118241000D01*
X177430857Y-118217190D01*
X177549904Y-118217190D01*
X177597523Y-118241000D01*
X177621333Y-118264809D01*
X177645142Y-118312428D01*
X177645142Y-118360047D01*
X177621333Y-118431476D01*
X177335619Y-118717190D01*
X177645142Y-118717190D01*
%TO.C,R16*%
X160881190Y-131639428D02*
X160643095Y-131806095D01*
X160881190Y-131925142D02*
X160381190Y-131925142D01*
X160381190Y-131734666D01*
X160405000Y-131687047D01*
X160428809Y-131663238D01*
X160476428Y-131639428D01*
X160547857Y-131639428D01*
X160595476Y-131663238D01*
X160619285Y-131687047D01*
X160643095Y-131734666D01*
X160643095Y-131925142D01*
X160881190Y-131163238D02*
X160881190Y-131448952D01*
X160881190Y-131306095D02*
X160381190Y-131306095D01*
X160452619Y-131353714D01*
X160500238Y-131401333D01*
X160524047Y-131448952D01*
X160381190Y-130734666D02*
X160381190Y-130829904D01*
X160405000Y-130877523D01*
X160428809Y-130901333D01*
X160500238Y-130948952D01*
X160595476Y-130972761D01*
X160785952Y-130972761D01*
X160833571Y-130948952D01*
X160857380Y-130925142D01*
X160881190Y-130877523D01*
X160881190Y-130782285D01*
X160857380Y-130734666D01*
X160833571Y-130710857D01*
X160785952Y-130687047D01*
X160666904Y-130687047D01*
X160619285Y-130710857D01*
X160595476Y-130734666D01*
X160571666Y-130782285D01*
X160571666Y-130877523D01*
X160595476Y-130925142D01*
X160619285Y-130948952D01*
X160666904Y-130972761D01*
%TO.C,TP3*%
X167059847Y-125100590D02*
X167345561Y-125100590D01*
X167202704Y-125600590D02*
X167202704Y-125100590D01*
X167512228Y-125600590D02*
X167512228Y-125100590D01*
X167702704Y-125100590D01*
X167750323Y-125124400D01*
X167774133Y-125148209D01*
X167797942Y-125195828D01*
X167797942Y-125267257D01*
X167774133Y-125314876D01*
X167750323Y-125338685D01*
X167702704Y-125362495D01*
X167512228Y-125362495D01*
X167964609Y-125100590D02*
X168274133Y-125100590D01*
X168107466Y-125291066D01*
X168178895Y-125291066D01*
X168226514Y-125314876D01*
X168250323Y-125338685D01*
X168274133Y-125386304D01*
X168274133Y-125505352D01*
X168250323Y-125552971D01*
X168226514Y-125576780D01*
X168178895Y-125600590D01*
X168036038Y-125600590D01*
X167988419Y-125576780D01*
X167964609Y-125552971D01*
%TO.C,R14*%
X160601790Y-133519028D02*
X160363695Y-133685695D01*
X160601790Y-133804742D02*
X160101790Y-133804742D01*
X160101790Y-133614266D01*
X160125600Y-133566647D01*
X160149409Y-133542838D01*
X160197028Y-133519028D01*
X160268457Y-133519028D01*
X160316076Y-133542838D01*
X160339885Y-133566647D01*
X160363695Y-133614266D01*
X160363695Y-133804742D01*
X160601790Y-133042838D02*
X160601790Y-133328552D01*
X160601790Y-133185695D02*
X160101790Y-133185695D01*
X160173219Y-133233314D01*
X160220838Y-133280933D01*
X160244647Y-133328552D01*
X160268457Y-132614266D02*
X160601790Y-132614266D01*
X160077980Y-132733314D02*
X160435123Y-132852361D01*
X160435123Y-132542838D01*
%TO.C,R8*%
X163090990Y-116720133D02*
X162852895Y-116886800D01*
X163090990Y-117005847D02*
X162590990Y-117005847D01*
X162590990Y-116815371D01*
X162614800Y-116767752D01*
X162638609Y-116743942D01*
X162686228Y-116720133D01*
X162757657Y-116720133D01*
X162805276Y-116743942D01*
X162829085Y-116767752D01*
X162852895Y-116815371D01*
X162852895Y-117005847D01*
X162805276Y-116434419D02*
X162781466Y-116482038D01*
X162757657Y-116505847D01*
X162710038Y-116529657D01*
X162686228Y-116529657D01*
X162638609Y-116505847D01*
X162614800Y-116482038D01*
X162590990Y-116434419D01*
X162590990Y-116339180D01*
X162614800Y-116291561D01*
X162638609Y-116267752D01*
X162686228Y-116243942D01*
X162710038Y-116243942D01*
X162757657Y-116267752D01*
X162781466Y-116291561D01*
X162805276Y-116339180D01*
X162805276Y-116434419D01*
X162829085Y-116482038D01*
X162852895Y-116505847D01*
X162900514Y-116529657D01*
X162995752Y-116529657D01*
X163043371Y-116505847D01*
X163067180Y-116482038D01*
X163090990Y-116434419D01*
X163090990Y-116339180D01*
X163067180Y-116291561D01*
X163043371Y-116267752D01*
X162995752Y-116243942D01*
X162900514Y-116243942D01*
X162852895Y-116267752D01*
X162829085Y-116291561D01*
X162805276Y-116339180D01*
%TO.C,C7*%
X170198266Y-110058971D02*
X170174457Y-110082780D01*
X170103028Y-110106590D01*
X170055409Y-110106590D01*
X169983980Y-110082780D01*
X169936361Y-110035161D01*
X169912552Y-109987542D01*
X169888742Y-109892304D01*
X169888742Y-109820876D01*
X169912552Y-109725638D01*
X169936361Y-109678019D01*
X169983980Y-109630400D01*
X170055409Y-109606590D01*
X170103028Y-109606590D01*
X170174457Y-109630400D01*
X170198266Y-109654209D01*
X170364933Y-109606590D02*
X170698266Y-109606590D01*
X170483980Y-110106590D01*
%TO.C,R28*%
X167485190Y-127575428D02*
X167247095Y-127742095D01*
X167485190Y-127861142D02*
X166985190Y-127861142D01*
X166985190Y-127670666D01*
X167009000Y-127623047D01*
X167032809Y-127599238D01*
X167080428Y-127575428D01*
X167151857Y-127575428D01*
X167199476Y-127599238D01*
X167223285Y-127623047D01*
X167247095Y-127670666D01*
X167247095Y-127861142D01*
X167032809Y-127384952D02*
X167009000Y-127361142D01*
X166985190Y-127313523D01*
X166985190Y-127194476D01*
X167009000Y-127146857D01*
X167032809Y-127123047D01*
X167080428Y-127099238D01*
X167128047Y-127099238D01*
X167199476Y-127123047D01*
X167485190Y-127408761D01*
X167485190Y-127099238D01*
X167199476Y-126813523D02*
X167175666Y-126861142D01*
X167151857Y-126884952D01*
X167104238Y-126908761D01*
X167080428Y-126908761D01*
X167032809Y-126884952D01*
X167009000Y-126861142D01*
X166985190Y-126813523D01*
X166985190Y-126718285D01*
X167009000Y-126670666D01*
X167032809Y-126646857D01*
X167080428Y-126623047D01*
X167104238Y-126623047D01*
X167151857Y-126646857D01*
X167175666Y-126670666D01*
X167199476Y-126718285D01*
X167199476Y-126813523D01*
X167223285Y-126861142D01*
X167247095Y-126884952D01*
X167294714Y-126908761D01*
X167389952Y-126908761D01*
X167437571Y-126884952D01*
X167461380Y-126861142D01*
X167485190Y-126813523D01*
X167485190Y-126718285D01*
X167461380Y-126670666D01*
X167437571Y-126646857D01*
X167389952Y-126623047D01*
X167294714Y-126623047D01*
X167247095Y-126646857D01*
X167223285Y-126670666D01*
X167199476Y-126718285D01*
%TO.C,R2*%
X149324190Y-112859333D02*
X149086095Y-113026000D01*
X149324190Y-113145047D02*
X148824190Y-113145047D01*
X148824190Y-112954571D01*
X148848000Y-112906952D01*
X148871809Y-112883142D01*
X148919428Y-112859333D01*
X148990857Y-112859333D01*
X149038476Y-112883142D01*
X149062285Y-112906952D01*
X149086095Y-112954571D01*
X149086095Y-113145047D01*
X148871809Y-112668857D02*
X148848000Y-112645047D01*
X148824190Y-112597428D01*
X148824190Y-112478380D01*
X148848000Y-112430761D01*
X148871809Y-112406952D01*
X148919428Y-112383142D01*
X148967047Y-112383142D01*
X149038476Y-112406952D01*
X149324190Y-112692666D01*
X149324190Y-112383142D01*
%TO.C,R19*%
X166215190Y-127575428D02*
X165977095Y-127742095D01*
X166215190Y-127861142D02*
X165715190Y-127861142D01*
X165715190Y-127670666D01*
X165739000Y-127623047D01*
X165762809Y-127599238D01*
X165810428Y-127575428D01*
X165881857Y-127575428D01*
X165929476Y-127599238D01*
X165953285Y-127623047D01*
X165977095Y-127670666D01*
X165977095Y-127861142D01*
X166215190Y-127099238D02*
X166215190Y-127384952D01*
X166215190Y-127242095D02*
X165715190Y-127242095D01*
X165786619Y-127289714D01*
X165834238Y-127337333D01*
X165858047Y-127384952D01*
X166215190Y-126861142D02*
X166215190Y-126765904D01*
X166191380Y-126718285D01*
X166167571Y-126694476D01*
X166096142Y-126646857D01*
X166000904Y-126623047D01*
X165810428Y-126623047D01*
X165762809Y-126646857D01*
X165739000Y-126670666D01*
X165715190Y-126718285D01*
X165715190Y-126813523D01*
X165739000Y-126861142D01*
X165762809Y-126884952D01*
X165810428Y-126908761D01*
X165929476Y-126908761D01*
X165977095Y-126884952D01*
X166000904Y-126861142D01*
X166024714Y-126813523D01*
X166024714Y-126718285D01*
X166000904Y-126670666D01*
X165977095Y-126646857D01*
X165929476Y-126623047D01*
%TO.C,R3*%
X152426990Y-110344733D02*
X152188895Y-110511400D01*
X152426990Y-110630447D02*
X151926990Y-110630447D01*
X151926990Y-110439971D01*
X151950800Y-110392352D01*
X151974609Y-110368542D01*
X152022228Y-110344733D01*
X152093657Y-110344733D01*
X152141276Y-110368542D01*
X152165085Y-110392352D01*
X152188895Y-110439971D01*
X152188895Y-110630447D01*
X151926990Y-110178066D02*
X151926990Y-109868542D01*
X152117466Y-110035209D01*
X152117466Y-109963780D01*
X152141276Y-109916161D01*
X152165085Y-109892352D01*
X152212704Y-109868542D01*
X152331752Y-109868542D01*
X152379371Y-109892352D01*
X152403180Y-109916161D01*
X152426990Y-109963780D01*
X152426990Y-110106638D01*
X152403180Y-110154257D01*
X152379371Y-110178066D01*
%TO.C,R22*%
X168755190Y-127575428D02*
X168517095Y-127742095D01*
X168755190Y-127861142D02*
X168255190Y-127861142D01*
X168255190Y-127670666D01*
X168279000Y-127623047D01*
X168302809Y-127599238D01*
X168350428Y-127575428D01*
X168421857Y-127575428D01*
X168469476Y-127599238D01*
X168493285Y-127623047D01*
X168517095Y-127670666D01*
X168517095Y-127861142D01*
X168302809Y-127384952D02*
X168279000Y-127361142D01*
X168255190Y-127313523D01*
X168255190Y-127194476D01*
X168279000Y-127146857D01*
X168302809Y-127123047D01*
X168350428Y-127099238D01*
X168398047Y-127099238D01*
X168469476Y-127123047D01*
X168755190Y-127408761D01*
X168755190Y-127099238D01*
X168302809Y-126908761D02*
X168279000Y-126884952D01*
X168255190Y-126837333D01*
X168255190Y-126718285D01*
X168279000Y-126670666D01*
X168302809Y-126646857D01*
X168350428Y-126623047D01*
X168398047Y-126623047D01*
X168469476Y-126646857D01*
X168755190Y-126932571D01*
X168755190Y-126623047D01*
%TO.C,JP1*%
X176240333Y-134854190D02*
X176240333Y-135211333D01*
X176216523Y-135282761D01*
X176168904Y-135330380D01*
X176097476Y-135354190D01*
X176049857Y-135354190D01*
X176478428Y-135354190D02*
X176478428Y-134854190D01*
X176668904Y-134854190D01*
X176716523Y-134878000D01*
X176740333Y-134901809D01*
X176764142Y-134949428D01*
X176764142Y-135020857D01*
X176740333Y-135068476D01*
X176716523Y-135092285D01*
X176668904Y-135116095D01*
X176478428Y-135116095D01*
X177240333Y-135354190D02*
X176954619Y-135354190D01*
X177097476Y-135354190D02*
X177097476Y-134854190D01*
X177049857Y-134925619D01*
X177002238Y-134973238D01*
X176954619Y-134997047D01*
%TO.C,R25*%
X151356190Y-123257428D02*
X151118095Y-123424095D01*
X151356190Y-123543142D02*
X150856190Y-123543142D01*
X150856190Y-123352666D01*
X150880000Y-123305047D01*
X150903809Y-123281238D01*
X150951428Y-123257428D01*
X151022857Y-123257428D01*
X151070476Y-123281238D01*
X151094285Y-123305047D01*
X151118095Y-123352666D01*
X151118095Y-123543142D01*
X150903809Y-123066952D02*
X150880000Y-123043142D01*
X150856190Y-122995523D01*
X150856190Y-122876476D01*
X150880000Y-122828857D01*
X150903809Y-122805047D01*
X150951428Y-122781238D01*
X150999047Y-122781238D01*
X151070476Y-122805047D01*
X151356190Y-123090761D01*
X151356190Y-122781238D01*
X150856190Y-122328857D02*
X150856190Y-122566952D01*
X151094285Y-122590761D01*
X151070476Y-122566952D01*
X151046666Y-122519333D01*
X151046666Y-122400285D01*
X151070476Y-122352666D01*
X151094285Y-122328857D01*
X151141904Y-122305047D01*
X151260952Y-122305047D01*
X151308571Y-122328857D01*
X151332380Y-122352666D01*
X151356190Y-122400285D01*
X151356190Y-122519333D01*
X151332380Y-122566952D01*
X151308571Y-122590761D01*
%TO.C,R1*%
X151229190Y-104020133D02*
X150991095Y-104186800D01*
X151229190Y-104305847D02*
X150729190Y-104305847D01*
X150729190Y-104115371D01*
X150753000Y-104067752D01*
X150776809Y-104043942D01*
X150824428Y-104020133D01*
X150895857Y-104020133D01*
X150943476Y-104043942D01*
X150967285Y-104067752D01*
X150991095Y-104115371D01*
X150991095Y-104305847D01*
X151229190Y-103543942D02*
X151229190Y-103829657D01*
X151229190Y-103686800D02*
X150729190Y-103686800D01*
X150800619Y-103734419D01*
X150848238Y-103782038D01*
X150872047Y-103829657D01*
%TO.C,TP4*%
X165789847Y-122204990D02*
X166075561Y-122204990D01*
X165932704Y-122704990D02*
X165932704Y-122204990D01*
X166242228Y-122704990D02*
X166242228Y-122204990D01*
X166432704Y-122204990D01*
X166480323Y-122228800D01*
X166504133Y-122252609D01*
X166527942Y-122300228D01*
X166527942Y-122371657D01*
X166504133Y-122419276D01*
X166480323Y-122443085D01*
X166432704Y-122466895D01*
X166242228Y-122466895D01*
X166956514Y-122371657D02*
X166956514Y-122704990D01*
X166837466Y-122181180D02*
X166718419Y-122538323D01*
X167027942Y-122538323D01*
%TO.C,R24*%
X175790990Y-126864228D02*
X175552895Y-127030895D01*
X175790990Y-127149942D02*
X175290990Y-127149942D01*
X175290990Y-126959466D01*
X175314800Y-126911847D01*
X175338609Y-126888038D01*
X175386228Y-126864228D01*
X175457657Y-126864228D01*
X175505276Y-126888038D01*
X175529085Y-126911847D01*
X175552895Y-126959466D01*
X175552895Y-127149942D01*
X175338609Y-126673752D02*
X175314800Y-126649942D01*
X175290990Y-126602323D01*
X175290990Y-126483276D01*
X175314800Y-126435657D01*
X175338609Y-126411847D01*
X175386228Y-126388038D01*
X175433847Y-126388038D01*
X175505276Y-126411847D01*
X175790990Y-126697561D01*
X175790990Y-126388038D01*
X175457657Y-125959466D02*
X175790990Y-125959466D01*
X175267180Y-126078514D02*
X175624323Y-126197561D01*
X175624323Y-125888038D01*
%TO.C,R6*%
X161846390Y-116694733D02*
X161608295Y-116861400D01*
X161846390Y-116980447D02*
X161346390Y-116980447D01*
X161346390Y-116789971D01*
X161370200Y-116742352D01*
X161394009Y-116718542D01*
X161441628Y-116694733D01*
X161513057Y-116694733D01*
X161560676Y-116718542D01*
X161584485Y-116742352D01*
X161608295Y-116789971D01*
X161608295Y-116980447D01*
X161346390Y-116266161D02*
X161346390Y-116361400D01*
X161370200Y-116409019D01*
X161394009Y-116432828D01*
X161465438Y-116480447D01*
X161560676Y-116504257D01*
X161751152Y-116504257D01*
X161798771Y-116480447D01*
X161822580Y-116456638D01*
X161846390Y-116409019D01*
X161846390Y-116313780D01*
X161822580Y-116266161D01*
X161798771Y-116242352D01*
X161751152Y-116218542D01*
X161632104Y-116218542D01*
X161584485Y-116242352D01*
X161560676Y-116266161D01*
X161536866Y-116313780D01*
X161536866Y-116409019D01*
X161560676Y-116456638D01*
X161584485Y-116480447D01*
X161632104Y-116504257D01*
%TO.C,C1*%
X161618171Y-101353133D02*
X161641980Y-101376942D01*
X161665790Y-101448371D01*
X161665790Y-101495990D01*
X161641980Y-101567419D01*
X161594361Y-101615038D01*
X161546742Y-101638847D01*
X161451504Y-101662657D01*
X161380076Y-101662657D01*
X161284838Y-101638847D01*
X161237219Y-101615038D01*
X161189600Y-101567419D01*
X161165790Y-101495990D01*
X161165790Y-101448371D01*
X161189600Y-101376942D01*
X161213409Y-101353133D01*
X161665790Y-100876942D02*
X161665790Y-101162657D01*
X161665790Y-101019800D02*
X161165790Y-101019800D01*
X161237219Y-101067419D01*
X161284838Y-101115038D01*
X161308647Y-101162657D01*
%TO.C,Q1*%
X163579180Y-135198609D02*
X163531561Y-135174800D01*
X163483942Y-135127180D01*
X163412514Y-135055752D01*
X163364895Y-135031942D01*
X163317276Y-135031942D01*
X163341085Y-135150990D02*
X163293466Y-135127180D01*
X163245847Y-135079561D01*
X163222038Y-134984323D01*
X163222038Y-134817657D01*
X163245847Y-134722419D01*
X163293466Y-134674800D01*
X163341085Y-134650990D01*
X163436323Y-134650990D01*
X163483942Y-134674800D01*
X163531561Y-134722419D01*
X163555371Y-134817657D01*
X163555371Y-134984323D01*
X163531561Y-135079561D01*
X163483942Y-135127180D01*
X163436323Y-135150990D01*
X163341085Y-135150990D01*
X164031561Y-135150990D02*
X163745847Y-135150990D01*
X163888704Y-135150990D02*
X163888704Y-134650990D01*
X163841085Y-134722419D01*
X163793466Y-134770038D01*
X163745847Y-134793847D01*
%TO.C,Q3*%
X168548809Y-132635619D02*
X168525000Y-132683238D01*
X168477380Y-132730857D01*
X168405952Y-132802285D01*
X168382142Y-132849904D01*
X168382142Y-132897523D01*
X168501190Y-132873714D02*
X168477380Y-132921333D01*
X168429761Y-132968952D01*
X168334523Y-132992761D01*
X168167857Y-132992761D01*
X168072619Y-132968952D01*
X168025000Y-132921333D01*
X168001190Y-132873714D01*
X168001190Y-132778476D01*
X168025000Y-132730857D01*
X168072619Y-132683238D01*
X168167857Y-132659428D01*
X168334523Y-132659428D01*
X168429761Y-132683238D01*
X168477380Y-132730857D01*
X168501190Y-132778476D01*
X168501190Y-132873714D01*
X168001190Y-132492761D02*
X168001190Y-132183238D01*
X168191666Y-132349904D01*
X168191666Y-132278476D01*
X168215476Y-132230857D01*
X168239285Y-132207047D01*
X168286904Y-132183238D01*
X168405952Y-132183238D01*
X168453571Y-132207047D01*
X168477380Y-132230857D01*
X168501190Y-132278476D01*
X168501190Y-132421333D01*
X168477380Y-132468952D01*
X168453571Y-132492761D01*
%TO.C,R13*%
X163094990Y-124527428D02*
X162856895Y-124694095D01*
X163094990Y-124813142D02*
X162594990Y-124813142D01*
X162594990Y-124622666D01*
X162618800Y-124575047D01*
X162642609Y-124551238D01*
X162690228Y-124527428D01*
X162761657Y-124527428D01*
X162809276Y-124551238D01*
X162833085Y-124575047D01*
X162856895Y-124622666D01*
X162856895Y-124813142D01*
X163094990Y-124051238D02*
X163094990Y-124336952D01*
X163094990Y-124194095D02*
X162594990Y-124194095D01*
X162666419Y-124241714D01*
X162714038Y-124289333D01*
X162737847Y-124336952D01*
X162594990Y-123884571D02*
X162594990Y-123575047D01*
X162785466Y-123741714D01*
X162785466Y-123670285D01*
X162809276Y-123622666D01*
X162833085Y-123598857D01*
X162880704Y-123575047D01*
X162999752Y-123575047D01*
X163047371Y-123598857D01*
X163071180Y-123622666D01*
X163094990Y-123670285D01*
X163094990Y-123813142D01*
X163071180Y-123860761D01*
X163047371Y-123884571D01*
%TO.C,C8*%
X154178771Y-132341133D02*
X154202580Y-132364942D01*
X154226390Y-132436371D01*
X154226390Y-132483990D01*
X154202580Y-132555419D01*
X154154961Y-132603038D01*
X154107342Y-132626847D01*
X154012104Y-132650657D01*
X153940676Y-132650657D01*
X153845438Y-132626847D01*
X153797819Y-132603038D01*
X153750200Y-132555419D01*
X153726390Y-132483990D01*
X153726390Y-132436371D01*
X153750200Y-132364942D01*
X153774009Y-132341133D01*
X153940676Y-132055419D02*
X153916866Y-132103038D01*
X153893057Y-132126847D01*
X153845438Y-132150657D01*
X153821628Y-132150657D01*
X153774009Y-132126847D01*
X153750200Y-132103038D01*
X153726390Y-132055419D01*
X153726390Y-131960180D01*
X153750200Y-131912561D01*
X153774009Y-131888752D01*
X153821628Y-131864942D01*
X153845438Y-131864942D01*
X153893057Y-131888752D01*
X153916866Y-131912561D01*
X153940676Y-131960180D01*
X153940676Y-132055419D01*
X153964485Y-132103038D01*
X153988295Y-132126847D01*
X154035914Y-132150657D01*
X154131152Y-132150657D01*
X154178771Y-132126847D01*
X154202580Y-132103038D01*
X154226390Y-132055419D01*
X154226390Y-131960180D01*
X154202580Y-131912561D01*
X154178771Y-131888752D01*
X154131152Y-131864942D01*
X154035914Y-131864942D01*
X153988295Y-131888752D01*
X153964485Y-131912561D01*
X153940676Y-131960180D01*
%TO.C,R17*%
X157706190Y-131639428D02*
X157468095Y-131806095D01*
X157706190Y-131925142D02*
X157206190Y-131925142D01*
X157206190Y-131734666D01*
X157230000Y-131687047D01*
X157253809Y-131663238D01*
X157301428Y-131639428D01*
X157372857Y-131639428D01*
X157420476Y-131663238D01*
X157444285Y-131687047D01*
X157468095Y-131734666D01*
X157468095Y-131925142D01*
X157706190Y-131163238D02*
X157706190Y-131448952D01*
X157706190Y-131306095D02*
X157206190Y-131306095D01*
X157277619Y-131353714D01*
X157325238Y-131401333D01*
X157349047Y-131448952D01*
X157206190Y-130996571D02*
X157206190Y-130663238D01*
X157706190Y-130877523D01*
%TO.C,Q2*%
X155772609Y-132407019D02*
X155748800Y-132454638D01*
X155701180Y-132502257D01*
X155629752Y-132573685D01*
X155605942Y-132621304D01*
X155605942Y-132668923D01*
X155724990Y-132645114D02*
X155701180Y-132692733D01*
X155653561Y-132740352D01*
X155558323Y-132764161D01*
X155391657Y-132764161D01*
X155296419Y-132740352D01*
X155248800Y-132692733D01*
X155224990Y-132645114D01*
X155224990Y-132549876D01*
X155248800Y-132502257D01*
X155296419Y-132454638D01*
X155391657Y-132430828D01*
X155558323Y-132430828D01*
X155653561Y-132454638D01*
X155701180Y-132502257D01*
X155724990Y-132549876D01*
X155724990Y-132645114D01*
X155272609Y-132240352D02*
X155248800Y-132216542D01*
X155224990Y-132168923D01*
X155224990Y-132049876D01*
X155248800Y-132002257D01*
X155272609Y-131978447D01*
X155320228Y-131954638D01*
X155367847Y-131954638D01*
X155439276Y-131978447D01*
X155724990Y-132264161D01*
X155724990Y-131954638D01*
%TO.C,C10*%
X152451571Y-104055028D02*
X152475380Y-104078838D01*
X152499190Y-104150266D01*
X152499190Y-104197885D01*
X152475380Y-104269314D01*
X152427761Y-104316933D01*
X152380142Y-104340742D01*
X152284904Y-104364552D01*
X152213476Y-104364552D01*
X152118238Y-104340742D01*
X152070619Y-104316933D01*
X152023000Y-104269314D01*
X151999190Y-104197885D01*
X151999190Y-104150266D01*
X152023000Y-104078838D01*
X152046809Y-104055028D01*
X152499190Y-103578838D02*
X152499190Y-103864552D01*
X152499190Y-103721695D02*
X151999190Y-103721695D01*
X152070619Y-103769314D01*
X152118238Y-103816933D01*
X152142047Y-103864552D01*
X151999190Y-103269314D02*
X151999190Y-103221695D01*
X152023000Y-103174076D01*
X152046809Y-103150266D01*
X152094428Y-103126457D01*
X152189666Y-103102647D01*
X152308714Y-103102647D01*
X152403952Y-103126457D01*
X152451571Y-103150266D01*
X152475380Y-103174076D01*
X152499190Y-103221695D01*
X152499190Y-103269314D01*
X152475380Y-103316933D01*
X152451571Y-103340742D01*
X152403952Y-103364552D01*
X152308714Y-103388361D01*
X152189666Y-103388361D01*
X152094428Y-103364552D01*
X152046809Y-103340742D01*
X152023000Y-103316933D01*
X151999190Y-103269314D01*
%TO.C,C9*%
X162882571Y-118574333D02*
X162906380Y-118598142D01*
X162930190Y-118669571D01*
X162930190Y-118717190D01*
X162906380Y-118788619D01*
X162858761Y-118836238D01*
X162811142Y-118860047D01*
X162715904Y-118883857D01*
X162644476Y-118883857D01*
X162549238Y-118860047D01*
X162501619Y-118836238D01*
X162454000Y-118788619D01*
X162430190Y-118717190D01*
X162430190Y-118669571D01*
X162454000Y-118598142D01*
X162477809Y-118574333D01*
X162930190Y-118336238D02*
X162930190Y-118241000D01*
X162906380Y-118193380D01*
X162882571Y-118169571D01*
X162811142Y-118121952D01*
X162715904Y-118098142D01*
X162525428Y-118098142D01*
X162477809Y-118121952D01*
X162454000Y-118145761D01*
X162430190Y-118193380D01*
X162430190Y-118288619D01*
X162454000Y-118336238D01*
X162477809Y-118360047D01*
X162525428Y-118383857D01*
X162644476Y-118383857D01*
X162692095Y-118360047D01*
X162715904Y-118336238D01*
X162739714Y-118288619D01*
X162739714Y-118193380D01*
X162715904Y-118145761D01*
X162692095Y-118121952D01*
X162644476Y-118098142D01*
%TO.C,J1*%
X163762133Y-85848590D02*
X163762133Y-86205733D01*
X163738323Y-86277161D01*
X163690704Y-86324780D01*
X163619276Y-86348590D01*
X163571657Y-86348590D01*
X164262133Y-86348590D02*
X163976419Y-86348590D01*
X164119276Y-86348590D02*
X164119276Y-85848590D01*
X164071657Y-85920019D01*
X164024038Y-85967638D01*
X163976419Y-85991447D01*
D12*
%TO.C,TP2*%
X165342800Y-113588800D02*
G75*
G03*
X165342800Y-113588800I-700000J0D01*
G01*
%TO.C,R18*%
X152475200Y-120460259D02*
X152475200Y-120767541D01*
X151715200Y-120460259D02*
X151715200Y-120767541D01*
%TO.C,R23*%
X176531000Y-126837141D02*
X176531000Y-126529859D01*
X177291000Y-126837141D02*
X177291000Y-126529859D01*
%TO.C,R15*%
X151969200Y-127659641D02*
X151969200Y-127352359D01*
X152729200Y-127659641D02*
X152729200Y-127352359D01*
%TO.C,C5*%
X150240000Y-131651252D02*
X150240000Y-130228748D01*
X152060000Y-131651252D02*
X152060000Y-130228748D01*
D11*
%TO.C,D2*%
X151027600Y-114022800D02*
G75*
G03*
X151027600Y-114022800I-50000J0D01*
G01*
D12*
%TO.C,R31*%
X152832800Y-103529159D02*
X152832800Y-103836441D01*
X153592800Y-103529159D02*
X153592800Y-103836441D01*
%TO.C,R4*%
X161170800Y-108764041D02*
X161170800Y-108456759D01*
X161930800Y-108764041D02*
X161930800Y-108456759D01*
D11*
%TO.C,RV1*%
X168336000Y-111300800D02*
X177866000Y-111300800D01*
X177866000Y-111300800D02*
X177866000Y-116130800D01*
X177866000Y-116130800D02*
X168336000Y-116130800D01*
D13*
X170501000Y-110715800D02*
X170501000Y-110715800D01*
X170701000Y-110715800D02*
X170701000Y-110715800D01*
D11*
X168336000Y-116130800D02*
X168336000Y-111300800D01*
D13*
X170701000Y-110715800D02*
G75*
G03*
X170501000Y-110715800I-100000J0D01*
G01*
X170501000Y-110715800D02*
G75*
G03*
X170701000Y-110715800I100000J0D01*
G01*
D12*
%TO.C,R30*%
X161164000Y-122020359D02*
X161164000Y-122327641D01*
X161924000Y-122020359D02*
X161924000Y-122327641D01*
D13*
%TO.C,IC1*%
X155507800Y-110046400D02*
X155507800Y-105142400D01*
X158703800Y-105142400D02*
X158703800Y-110046400D01*
X153630800Y-105014400D02*
X155157800Y-105014400D01*
X155507800Y-105142400D02*
X158703800Y-105142400D01*
X158703800Y-110046400D02*
X155507800Y-110046400D01*
D12*
%TO.C,C4*%
X154285836Y-130577000D02*
X154070164Y-130577000D01*
X154285836Y-131297000D02*
X154070164Y-131297000D01*
%TO.C,C3*%
X162679748Y-127535000D02*
X163202252Y-127535000D01*
X162679748Y-129005000D02*
X163202252Y-129005000D01*
%TO.C,R29*%
X162484800Y-122327641D02*
X162484800Y-122020359D01*
X163244800Y-122327641D02*
X163244800Y-122020359D01*
%TO.C,R5*%
X151823600Y-115228341D02*
X151823600Y-114921059D01*
X152583600Y-115228341D02*
X152583600Y-114921059D01*
%TO.C,R12*%
X163831000Y-126137641D02*
X163831000Y-125830359D01*
X164591000Y-126137641D02*
X164591000Y-125830359D01*
%TO.C,R7*%
X162488800Y-108764041D02*
X162488800Y-108456759D01*
X163248800Y-108764041D02*
X163248800Y-108456759D01*
%TO.C,R20*%
X153186400Y-134395241D02*
X153186400Y-134087959D01*
X152426400Y-134395241D02*
X152426400Y-134087959D01*
D11*
%TO.C,D4*%
X174675000Y-130297000D02*
G75*
G03*
X174675000Y-130297000I-50000J0D01*
G01*
%TO.C,D3*%
X176961000Y-130297000D02*
G75*
G03*
X176961000Y-130297000I-50000J0D01*
G01*
D12*
%TO.C,R11*%
X161978800Y-126135641D02*
X161978800Y-125828359D01*
X161218800Y-126135641D02*
X161218800Y-125828359D01*
%TO.C,C11*%
X152607600Y-112680636D02*
X152607600Y-112464964D01*
X151887600Y-112680636D02*
X151887600Y-112464964D01*
%TO.C,R21*%
X159030641Y-134367000D02*
X158723359Y-134367000D01*
X159030641Y-135127000D02*
X158723359Y-135127000D01*
D13*
%TO.C,IC2*%
X153547800Y-111514800D02*
X155074800Y-111514800D01*
X155424800Y-111642800D02*
X158620800Y-111642800D01*
X158620800Y-111642800D02*
X158620800Y-116546800D01*
X155424800Y-116546800D02*
X155424800Y-111642800D01*
X158620800Y-116546800D02*
X155424800Y-116546800D01*
D14*
%TO.C,IC4*%
X175151800Y-109362000D02*
G75*
G03*
X175151800Y-109362000I-125000J0D01*
G01*
D12*
%TO.C,C2*%
X161904000Y-111624764D02*
X161904000Y-111840436D01*
X161184000Y-111624764D02*
X161184000Y-111840436D01*
%TO.C,kibuzzard-664CB14A*%
G36*
X178718567Y-113639600D02*
G01*
X178769169Y-113675319D01*
X178797148Y-113734453D01*
X178806475Y-113816606D01*
X178806475Y-113895981D01*
X178488975Y-113895981D01*
X178485006Y-113847562D01*
X178484212Y-113799144D01*
X178493142Y-113729095D01*
X178519931Y-113674525D01*
X178568152Y-113639402D01*
X178641375Y-113627694D01*
X178718567Y-113639600D01*
G37*
G36*
X178104800Y-115129469D02*
G01*
X178104800Y-114931031D01*
X178325462Y-114931031D01*
X178487387Y-114931031D01*
X178487387Y-114672269D01*
X179308125Y-114672269D01*
X179308125Y-114475419D01*
X178487387Y-114475419D01*
X178487387Y-114216656D01*
X178325462Y-114216656D01*
X178325462Y-114931031D01*
X178104800Y-114931031D01*
X178104800Y-113821369D01*
X178314350Y-113821369D01*
X178315937Y-113883281D01*
X178319906Y-113954719D01*
X178327050Y-114026950D01*
X178338162Y-114091244D01*
X179308125Y-114091244D01*
X179308125Y-113895981D01*
X178976337Y-113895981D01*
X178976337Y-113826131D01*
X178967606Y-113708744D01*
X178941412Y-113610584D01*
X178897756Y-113531650D01*
X178834521Y-113473883D01*
X178749590Y-113439222D01*
X178642962Y-113427669D01*
X178537394Y-113439134D01*
X178453521Y-113473530D01*
X178391344Y-113530856D01*
X178348569Y-113608997D01*
X178322905Y-113705834D01*
X178314350Y-113821369D01*
X178104800Y-113821369D01*
X178104800Y-112968881D01*
X178303237Y-112968881D01*
X178311881Y-113066160D01*
X178337810Y-113148445D01*
X178381025Y-113215737D01*
X178473894Y-113283008D01*
X178596925Y-113305431D01*
X178713606Y-113280031D01*
X178792187Y-113215737D01*
X178844575Y-113129219D01*
X178881087Y-113037144D01*
X178908869Y-112970469D01*
X178942206Y-112910144D01*
X178984275Y-112865694D01*
X179038250Y-112848231D01*
X179085081Y-112855375D01*
X179126356Y-112881569D01*
X179154931Y-112933162D01*
X179165250Y-113014919D01*
X179159694Y-113094095D01*
X179143025Y-113160175D01*
X179095400Y-113262569D01*
X179254150Y-113319719D01*
X179302569Y-113210181D01*
X179322214Y-113124853D01*
X179328762Y-113014919D01*
X179320384Y-112903529D01*
X179295249Y-112812777D01*
X179253356Y-112742663D01*
X179162273Y-112675392D01*
X179039837Y-112652969D01*
X178965820Y-112659716D01*
X178905694Y-112679956D01*
X178816794Y-112749012D01*
X178759644Y-112841088D01*
X178720750Y-112937131D01*
X178696937Y-112998250D01*
X178667569Y-113053812D01*
X178629469Y-113094294D01*
X178579462Y-113110169D01*
X178516844Y-113092883D01*
X178479274Y-113041024D01*
X178466750Y-112954594D01*
X178482625Y-112842675D01*
X178520725Y-112754569D01*
X178369912Y-112697419D01*
X178323875Y-112810925D01*
X178308397Y-112884148D01*
X178303237Y-112968881D01*
X178104800Y-112968881D01*
X178104800Y-112027811D01*
X179527200Y-112454531D01*
X179527200Y-115556189D01*
X178104800Y-115129469D01*
G37*
D11*
%TO.C,D1*%
X151031600Y-107493000D02*
G75*
G03*
X151031600Y-107493000I-50000J0D01*
G01*
D12*
%TO.C,D5*%
X168304000Y-103885000D02*
X173704000Y-103885000D01*
X168304000Y-100585000D02*
X168304000Y-103885000D01*
X168304000Y-100585000D02*
X173704000Y-100585000D01*
%TO.C,C6*%
X177045948Y-107570600D02*
X177568452Y-107570600D01*
X177045948Y-109040600D02*
X177568452Y-109040600D01*
%TO.C,D6*%
X174570000Y-104140000D02*
X172020000Y-104140000D01*
X174570000Y-105840000D02*
X172020000Y-105840000D01*
X174570000Y-105840000D02*
X174570000Y-104140000D01*
%TO.C,R9*%
X163200800Y-105462041D02*
X163200800Y-105154759D01*
X162440800Y-105462041D02*
X162440800Y-105154759D01*
D13*
%TO.C,IC5*%
X166179800Y-116917400D02*
X166179800Y-117067400D01*
X164129800Y-116917400D02*
X166179800Y-116917400D01*
X166179800Y-117067400D02*
X164129800Y-117067400D01*
X166254800Y-115517400D02*
X166254800Y-116567400D01*
X164129800Y-117067400D02*
X164129800Y-116917400D01*
D12*
%TO.C,L1*%
X175734400Y-105018252D02*
X175734400Y-102245748D01*
X179154400Y-105018252D02*
X179154400Y-102245748D01*
%TO.C,kibuzzard-664CB150*%
G36*
X179080319Y-123124912D02*
G01*
X179123181Y-123165394D01*
X179143819Y-123221750D01*
X179149375Y-123286838D01*
X179147788Y-123335256D01*
X179143025Y-123380500D01*
X178876325Y-123380500D01*
X178876325Y-123275725D01*
X178907281Y-123154281D01*
X179009675Y-123109037D01*
X179080319Y-123124912D01*
G37*
G36*
X178681856Y-123191587D02*
G01*
X178714400Y-123304300D01*
X178714400Y-123380500D01*
X178488975Y-123380500D01*
X178484212Y-123337637D01*
X178482625Y-123291600D01*
X178486594Y-123239212D01*
X178502469Y-123194762D01*
X178535806Y-123164600D01*
X178592162Y-123153487D01*
X178681856Y-123191587D01*
G37*
G36*
X178743769Y-122399425D02*
G01*
X178772939Y-122457766D01*
X178782662Y-122543887D01*
X178782662Y-122586750D01*
X178487387Y-122586750D01*
X178483419Y-122555000D01*
X178482625Y-122528012D01*
X178491753Y-122457766D01*
X178519137Y-122402600D01*
X178565969Y-122366881D01*
X178633437Y-122354975D01*
X178743769Y-122399425D01*
G37*
G36*
X178917600Y-121775537D02*
G01*
X178816000Y-121755694D01*
X178718369Y-121733469D01*
X178619944Y-121708069D01*
X178514375Y-121678700D01*
X178619944Y-121649331D01*
X178718369Y-121623931D01*
X178816000Y-121602500D01*
X178917600Y-121583450D01*
X178917600Y-121775537D01*
G37*
G36*
X178114325Y-123774200D02*
G01*
X178114325Y-123321762D01*
X178312762Y-123321762D01*
X178319906Y-123453525D01*
X178336575Y-123575762D01*
X179290663Y-123575762D01*
X179303164Y-123507103D01*
X179312094Y-123437650D01*
X179317452Y-123368991D01*
X179319238Y-123302712D01*
X179315467Y-123224330D01*
X179304156Y-123151106D01*
X179283916Y-123085225D01*
X179253356Y-123028869D01*
X179158106Y-122947112D01*
X179091233Y-122924491D01*
X179009675Y-122916950D01*
X178943000Y-122925880D01*
X178879500Y-122952669D01*
X178823938Y-123004461D01*
X178781075Y-123088400D01*
X178695350Y-122997119D01*
X178637406Y-122971520D01*
X178571525Y-122962987D01*
X178479450Y-122977275D01*
X178396106Y-123031250D01*
X178335781Y-123140787D01*
X178318517Y-123220956D01*
X178312762Y-123321762D01*
X178114325Y-123321762D01*
X178114325Y-122528012D01*
X178312762Y-122528012D01*
X178314350Y-122583575D01*
X178318319Y-122650250D01*
X178326256Y-122719306D01*
X178338162Y-122782012D01*
X179306538Y-122782012D01*
X179306538Y-122586750D01*
X178944587Y-122586750D01*
X178944587Y-122485150D01*
X179034480Y-122431373D01*
X179123181Y-122381169D01*
X179213073Y-122335727D01*
X179306538Y-122296237D01*
X179306538Y-122091450D01*
X179202556Y-122136694D01*
X179093019Y-122191462D01*
X178988244Y-122250200D01*
X178896963Y-122307350D01*
X178852116Y-122237897D01*
X178790600Y-122191462D01*
X178716781Y-122165269D01*
X178635025Y-122156537D01*
X178557833Y-122163086D01*
X178491356Y-122182731D01*
X178390550Y-122258137D01*
X178356022Y-122312112D01*
X178331812Y-122375612D01*
X178317525Y-122447844D01*
X178312762Y-122528012D01*
X178114325Y-122528012D01*
X178114325Y-121780300D01*
X178323875Y-121780300D01*
X178432569Y-121813935D01*
X178544339Y-121848166D01*
X178659185Y-121882991D01*
X178777106Y-121918412D01*
X178874737Y-121946924D01*
X178976496Y-121975308D01*
X179082383Y-122003566D01*
X179192396Y-122031696D01*
X179306538Y-122059700D01*
X179306538Y-121856500D01*
X179079525Y-121812050D01*
X179079525Y-121550112D01*
X179306538Y-121504075D01*
X179306538Y-121294525D01*
X179195127Y-121320719D01*
X179086954Y-121347230D01*
X178982021Y-121374059D01*
X178880325Y-121401205D01*
X178781869Y-121428669D01*
X178662459Y-121463246D01*
X178546323Y-121497923D01*
X178433462Y-121532700D01*
X178323875Y-121567575D01*
X178323875Y-121780300D01*
X178114325Y-121780300D01*
X178114325Y-121208800D01*
X178323875Y-121208800D01*
X179306538Y-121208800D01*
X179306538Y-121013537D01*
X178857275Y-121013537D01*
X178946969Y-120930194D01*
X179002134Y-120887530D01*
X179061269Y-120846850D01*
X179123181Y-120808948D01*
X179186681Y-120774619D01*
X179306538Y-120724612D01*
X179306538Y-120503950D01*
X179235695Y-120529747D01*
X179162869Y-120562687D01*
X179089844Y-120601383D01*
X179018406Y-120644444D01*
X178949945Y-120691077D01*
X178885850Y-120740487D01*
X178827509Y-120790891D01*
X178776313Y-120840500D01*
X178717972Y-120792280D01*
X178657250Y-120746044D01*
X178595933Y-120702189D01*
X178535806Y-120661112D01*
X178477466Y-120623608D01*
X178421506Y-120590469D01*
X178323875Y-120537287D01*
X178323875Y-120757950D01*
X178419125Y-120805575D01*
X178525488Y-120868281D01*
X178633437Y-120940512D01*
X178731862Y-121013537D01*
X178323875Y-121013537D01*
X178323875Y-121208800D01*
X178114325Y-121208800D01*
X178114325Y-120386475D01*
X178323875Y-120386475D01*
X179306538Y-120386475D01*
X179306538Y-119756237D01*
X179144613Y-119756237D01*
X179144613Y-120191212D01*
X178868387Y-120191212D01*
X178868387Y-119843550D01*
X178706462Y-119843550D01*
X178706462Y-120191212D01*
X178485800Y-120191212D01*
X178485800Y-119791162D01*
X178323875Y-119791162D01*
X178323875Y-120386475D01*
X178114325Y-120386475D01*
X178114325Y-119136795D01*
X179517675Y-119557800D01*
X179517675Y-124195205D01*
X178114325Y-123774200D01*
G37*
D13*
%TO.C,IC6*%
X158595400Y-118248800D02*
X158595400Y-123152800D01*
X158595400Y-123152800D02*
X155399400Y-123152800D01*
X153522400Y-118120800D02*
X155049400Y-118120800D01*
X155399400Y-118248800D02*
X158595400Y-118248800D01*
X155399400Y-123152800D02*
X155399400Y-118248800D01*
D12*
%TO.C,R32*%
X155167600Y-102817959D02*
X155167600Y-103125241D01*
X154407600Y-102817959D02*
X154407600Y-103125241D01*
D13*
%TO.C,IC3*%
X158595400Y-129704000D02*
X155399400Y-129704000D01*
X160472400Y-129832000D02*
X158945400Y-129832000D01*
X155399400Y-124800000D02*
X158595400Y-124800000D01*
X158595400Y-124800000D02*
X158595400Y-129704000D01*
X155399400Y-129704000D02*
X155399400Y-124800000D01*
D12*
%TO.C,TP1*%
X165215800Y-108356400D02*
G75*
G03*
X165215800Y-108356400I-700000J0D01*
G01*
%TO.C,U2*%
X169530000Y-132794000D02*
X169530000Y-127794000D01*
X173370000Y-128294000D02*
X173370000Y-131294000D01*
%TO.C,R26*%
X151969200Y-125077641D02*
X151969200Y-124770359D01*
X152729200Y-125077641D02*
X152729200Y-124770359D01*
%TO.C,R10*%
X163270200Y-111860841D02*
X163270200Y-111553559D01*
X162510200Y-111860841D02*
X162510200Y-111553559D01*
%TO.C,R27*%
X150597600Y-120752841D02*
X150597600Y-120445559D01*
X151357600Y-120752841D02*
X151357600Y-120445559D01*
D11*
%TO.C,RV2*%
X177866000Y-119085500D02*
X177866000Y-123915500D01*
X177866000Y-123915500D02*
X168336000Y-123915500D01*
D13*
X170501000Y-118500500D02*
X170501000Y-118500500D01*
D11*
X168336000Y-119085500D02*
X177866000Y-119085500D01*
D13*
X170701000Y-118500500D02*
X170701000Y-118500500D01*
D11*
X168336000Y-123915500D02*
X168336000Y-119085500D01*
D13*
X170701000Y-118500500D02*
G75*
G03*
X170501000Y-118500500I-100000J0D01*
G01*
X170501000Y-118500500D02*
G75*
G03*
X170701000Y-118500500I100000J0D01*
G01*
D12*
%TO.C,R16*%
X160146000Y-131164359D02*
X160146000Y-131471641D01*
X159386000Y-131164359D02*
X159386000Y-131471641D01*
%TO.C,TP3*%
X166689000Y-125349000D02*
G75*
G03*
X166689000Y-125349000I-700000J0D01*
G01*
%TO.C,R14*%
X159030641Y-132970000D02*
X158723359Y-132970000D01*
X159030641Y-133730000D02*
X158723359Y-133730000D01*
%TO.C,R8*%
X163244800Y-115264441D02*
X163244800Y-114957159D01*
X162484800Y-115264441D02*
X162484800Y-114957159D01*
%TO.C,C7*%
X169374452Y-107672200D02*
X168851948Y-107672200D01*
X169374452Y-109142200D02*
X168851948Y-109142200D01*
%TO.C,R28*%
X167639000Y-129132359D02*
X167639000Y-129439641D01*
X166879000Y-129132359D02*
X166879000Y-129439641D01*
%TO.C,R2*%
X150597600Y-112419159D02*
X150597600Y-112726441D01*
X151357600Y-112419159D02*
X151357600Y-112726441D01*
%TO.C,R19*%
X165609000Y-129439641D02*
X165609000Y-129132359D01*
X166369000Y-129439641D02*
X166369000Y-129132359D01*
%TO.C,R3*%
X152580800Y-108762041D02*
X152580800Y-108454759D01*
X151820800Y-108762041D02*
X151820800Y-108454759D01*
%TO.C,R22*%
X168149000Y-129439641D02*
X168149000Y-129132359D01*
X168909000Y-129439641D02*
X168909000Y-129132359D01*
%TO.C,JP1*%
X179252000Y-134172000D02*
X179252000Y-131512000D01*
X174052000Y-134172000D02*
X174052000Y-132842000D01*
X175382000Y-134172000D02*
X174052000Y-134172000D01*
X176652000Y-134172000D02*
X179252000Y-134172000D01*
X176652000Y-131512000D02*
X179252000Y-131512000D01*
X176652000Y-134172000D02*
X176652000Y-131512000D01*
%TO.C,R25*%
X151459200Y-124770359D02*
X151459200Y-125077641D01*
X150699200Y-124770359D02*
X150699200Y-125077641D01*
%TO.C,R1*%
X150648400Y-105967559D02*
X150648400Y-106274841D01*
X151408400Y-105967559D02*
X151408400Y-106274841D01*
%TO.C,TP4*%
X165419000Y-122428000D02*
G75*
G03*
X165419000Y-122428000I-700000J0D01*
G01*
%TO.C,R24*%
X174270400Y-126745241D02*
X174270400Y-126437959D01*
X175030400Y-126745241D02*
X175030400Y-126437959D01*
%TO.C,R6*%
X161974800Y-115264441D02*
X161974800Y-114957159D01*
X161214800Y-115264441D02*
X161214800Y-114957159D01*
%TO.C,C1*%
X161190800Y-105200564D02*
X161190800Y-105416236D01*
X161910800Y-105200564D02*
X161910800Y-105416236D01*
D13*
%TO.C,Q1*%
X164264000Y-132134000D02*
X164264000Y-132534000D01*
X164414000Y-130484000D02*
X164414000Y-131784000D01*
X164264000Y-132534000D02*
X161364000Y-132534000D01*
X161364000Y-132534000D02*
X161364000Y-132134000D01*
X161364000Y-132134000D02*
X164264000Y-132134000D01*
%TO.C,Q3*%
X167774000Y-131265000D02*
X167774000Y-132365000D01*
D12*
%TO.C,R13*%
X163248800Y-126135641D02*
X163248800Y-125828359D01*
X162488800Y-126135641D02*
X162488800Y-125828359D01*
%TO.C,C8*%
X153767200Y-134133764D02*
X153767200Y-134349436D01*
X154487200Y-134133764D02*
X154487200Y-134349436D01*
%TO.C,R17*%
X157989000Y-131157559D02*
X157989000Y-131464841D01*
X158749000Y-131157559D02*
X158749000Y-131464841D01*
D13*
%TO.C,Q2*%
X155110800Y-134966800D02*
X155110800Y-133866800D01*
D12*
%TO.C,C10*%
X151938400Y-106229036D02*
X151938400Y-106013364D01*
X152658400Y-106229036D02*
X152658400Y-106013364D01*
%TO.C,C9*%
X161904000Y-118383164D02*
X161904000Y-118598836D01*
X161184000Y-118383164D02*
X161184000Y-118598836D01*
D15*
%TO.C,J1*%
X174928800Y-102966400D02*
X174928800Y-102966400D01*
X174928800Y-103166400D02*
X174928800Y-103166400D01*
X174928800Y-102966400D02*
G75*
G03*
X174928800Y-103166400I0J-100000D01*
G01*
X174928800Y-103166400D02*
G75*
G03*
X174928800Y-102966400I0J100000D01*
G01*
%TD*%
%LPC*%
D16*
%TO.C,TP2*%
X164642800Y-113588800D03*
%TD*%
D17*
%TO.C,R18*%
X152095200Y-120103900D03*
X152095200Y-121123900D03*
%TD*%
D18*
%TO.C,R23*%
X176911000Y-127193500D03*
X176911000Y-126173500D03*
%TD*%
%TO.C,R15*%
X152349200Y-128016000D03*
X152349200Y-126996000D03*
%TD*%
D19*
%TO.C,C5*%
X151150000Y-132415000D03*
X151150000Y-129465000D03*
%TD*%
D20*
%TO.C,D2*%
X150977600Y-114627800D03*
X150977600Y-115597800D03*
%TD*%
D17*
%TO.C,R31*%
X153212800Y-103172800D03*
X153212800Y-104192800D03*
%TD*%
D18*
%TO.C,R4*%
X161550800Y-109120400D03*
X161550800Y-108100400D03*
%TD*%
D21*
%TO.C,RV1*%
X170561000Y-113715800D03*
X173101000Y-113715800D03*
X175641000Y-113715800D03*
%TD*%
D17*
%TO.C,R30*%
X161544000Y-121664000D03*
X161544000Y-122684000D03*
%TD*%
D22*
%TO.C,IC1*%
X154394800Y-105689400D03*
X154394800Y-106959400D03*
X154394800Y-108229400D03*
X154394800Y-109499400D03*
X159816800Y-109499400D03*
X159816800Y-108229400D03*
X159816800Y-106959400D03*
X159816800Y-105689400D03*
%TD*%
D23*
%TO.C,C4*%
X154658000Y-130937000D03*
X153698000Y-130937000D03*
%TD*%
D24*
%TO.C,C3*%
X161991000Y-128270000D03*
X163891000Y-128270000D03*
%TD*%
D18*
%TO.C,R29*%
X162864800Y-122684000D03*
X162864800Y-121664000D03*
%TD*%
%TO.C,R5*%
X152203600Y-115584700D03*
X152203600Y-114564700D03*
%TD*%
%TO.C,R12*%
X164211000Y-126494000D03*
X164211000Y-125474000D03*
%TD*%
%TO.C,R7*%
X162868800Y-109120400D03*
X162868800Y-108100400D03*
%TD*%
%TO.C,R20*%
X152806400Y-134751600D03*
X152806400Y-133731600D03*
%TD*%
D25*
%TO.C,D4*%
X174625000Y-129604500D03*
X174625000Y-128459500D03*
%TD*%
%TO.C,D3*%
X176911000Y-129604500D03*
X176911000Y-128459500D03*
%TD*%
D18*
%TO.C,R11*%
X161598800Y-126492000D03*
X161598800Y-125472000D03*
%TD*%
D26*
%TO.C,C11*%
X152247600Y-113052800D03*
X152247600Y-112092800D03*
%TD*%
D27*
%TO.C,R21*%
X159387000Y-134747000D03*
X158367000Y-134747000D03*
%TD*%
D22*
%TO.C,IC2*%
X154311800Y-112189800D03*
X154311800Y-113459800D03*
X154311800Y-114729800D03*
X154311800Y-115999800D03*
X159733800Y-115999800D03*
X159733800Y-114729800D03*
X159733800Y-113459800D03*
X159733800Y-112189800D03*
%TD*%
D28*
%TO.C,IC4*%
X174601800Y-108712000D03*
X174601800Y-107762000D03*
X174601800Y-106812000D03*
X171701800Y-106812000D03*
X171701800Y-107762000D03*
X171701800Y-108712000D03*
D29*
X173151800Y-107762000D03*
%TD*%
D30*
%TO.C,C2*%
X161544000Y-111252600D03*
X161544000Y-112212600D03*
%TD*%
D20*
%TO.C,D1*%
X150981600Y-108098000D03*
X150981600Y-109068000D03*
%TD*%
D31*
%TO.C,D5*%
X169704000Y-102235000D03*
X173704000Y-102235000D03*
%TD*%
D24*
%TO.C,C6*%
X176357200Y-108305600D03*
X178257200Y-108305600D03*
%TD*%
D32*
%TO.C,D6*%
X174120000Y-104990000D03*
X172020000Y-104990000D03*
%TD*%
D18*
%TO.C,R9*%
X162820800Y-105818400D03*
X162820800Y-104798400D03*
%TD*%
D33*
%TO.C,IC5*%
X165804800Y-116042400D03*
X165154800Y-116042400D03*
X164504800Y-116042400D03*
X164504800Y-117942400D03*
X165804800Y-117942400D03*
%TD*%
D34*
%TO.C,L1*%
X177444400Y-105769500D03*
X177444400Y-101494500D03*
%TD*%
D22*
%TO.C,IC6*%
X154286400Y-118795800D03*
X154286400Y-120065800D03*
X154286400Y-121335800D03*
X154286400Y-122605800D03*
X159708400Y-122605800D03*
X159708400Y-121335800D03*
X159708400Y-120065800D03*
X159708400Y-118795800D03*
%TD*%
D17*
%TO.C,R32*%
X154787600Y-102461600D03*
X154787600Y-103481600D03*
%TD*%
D22*
%TO.C,IC3*%
X159708400Y-129157000D03*
X159708400Y-127887000D03*
X159708400Y-126617000D03*
X159708400Y-125347000D03*
X154286400Y-125347000D03*
X154286400Y-126617000D03*
X154286400Y-127887000D03*
X154286400Y-129157000D03*
%TD*%
D16*
%TO.C,TP1*%
X164515800Y-108356400D03*
%TD*%
D35*
%TO.C,U2*%
X170180000Y-132944000D03*
X172720000Y-132944000D03*
X172720000Y-126644000D03*
X170180000Y-126644000D03*
%TD*%
D18*
%TO.C,R26*%
X152349200Y-125434000D03*
X152349200Y-124414000D03*
%TD*%
%TO.C,R10*%
X162890200Y-112217200D03*
X162890200Y-111197200D03*
%TD*%
%TO.C,R27*%
X150977600Y-121109200D03*
X150977600Y-120089200D03*
%TD*%
D21*
%TO.C,RV2*%
X170561000Y-121500500D03*
X173101000Y-121500500D03*
X175641000Y-121500500D03*
%TD*%
D17*
%TO.C,R16*%
X159766000Y-130808000D03*
X159766000Y-131828000D03*
%TD*%
D16*
%TO.C,TP3*%
X165989000Y-125349000D03*
%TD*%
D27*
%TO.C,R14*%
X159387000Y-133350000D03*
X158367000Y-133350000D03*
%TD*%
D18*
%TO.C,R8*%
X162864800Y-115620800D03*
X162864800Y-114600800D03*
%TD*%
D36*
%TO.C,C7*%
X170063200Y-108407200D03*
X168163200Y-108407200D03*
%TD*%
D17*
%TO.C,R28*%
X167259000Y-128776000D03*
X167259000Y-129796000D03*
%TD*%
%TO.C,R2*%
X150977600Y-112062800D03*
X150977600Y-113082800D03*
%TD*%
D18*
%TO.C,R19*%
X165989000Y-129796000D03*
X165989000Y-128776000D03*
%TD*%
%TO.C,R3*%
X152200800Y-109118400D03*
X152200800Y-108098400D03*
%TD*%
%TO.C,R22*%
X168529000Y-129796000D03*
X168529000Y-128776000D03*
%TD*%
D37*
%TO.C,JP1*%
X175382000Y-132842000D03*
D38*
X177922000Y-132842000D03*
%TD*%
D17*
%TO.C,R25*%
X151079200Y-124414000D03*
X151079200Y-125434000D03*
%TD*%
%TO.C,R1*%
X151028400Y-105611200D03*
X151028400Y-106631200D03*
%TD*%
D16*
%TO.C,TP4*%
X164719000Y-122428000D03*
%TD*%
D18*
%TO.C,R24*%
X174650400Y-127101600D03*
X174650400Y-126081600D03*
%TD*%
%TO.C,R6*%
X161594800Y-115620800D03*
X161594800Y-114600800D03*
%TD*%
D30*
%TO.C,C1*%
X161550800Y-104828400D03*
X161550800Y-105788400D03*
%TD*%
D39*
%TO.C,Q1*%
X163764000Y-131134000D03*
X162814000Y-131134000D03*
X161864000Y-131134000D03*
X161864000Y-133534000D03*
X162814000Y-133534000D03*
X163764000Y-133534000D03*
%TD*%
D40*
%TO.C,Q3*%
X167274000Y-131815000D03*
X165974000Y-131815000D03*
X166624000Y-133615000D03*
%TD*%
D18*
%TO.C,R13*%
X162868800Y-126492000D03*
X162868800Y-125472000D03*
%TD*%
D30*
%TO.C,C8*%
X154127200Y-133761600D03*
X154127200Y-134721600D03*
%TD*%
D17*
%TO.C,R17*%
X158369000Y-130801200D03*
X158369000Y-131821200D03*
%TD*%
D40*
%TO.C,Q2*%
X155610800Y-134416800D03*
X156910800Y-134416800D03*
X156260800Y-132616800D03*
%TD*%
D26*
%TO.C,C10*%
X152298400Y-106601200D03*
X152298400Y-105641200D03*
%TD*%
D30*
%TO.C,C9*%
X161544000Y-118011000D03*
X161544000Y-118971000D03*
%TD*%
D41*
%TO.C,J1*%
X174403800Y-98196400D03*
X170213800Y-98196400D03*
X166023800Y-98196400D03*
X161833800Y-98196400D03*
X157643800Y-98196400D03*
X153453800Y-98196400D03*
X153453800Y-91846400D03*
X157643800Y-91846400D03*
X161833800Y-91846400D03*
X166023800Y-91846400D03*
X170213800Y-91846400D03*
X174403800Y-91846400D03*
D42*
X172813800Y-85496400D03*
X155033800Y-85496400D03*
%TD*%
M02*
