%TF.GenerationSoftware,KiCad,Pcbnew,(6.0.8)*%
%TF.CreationDate,2024-05-22T19:13:14+02:00*%
%TF.ProjectId,BSPD-07,42535044-2d30-4372-9e6b-696361645f70,rev?*%
%TF.SameCoordinates,Original*%
%TF.FileFunction,Copper,L2,Inr*%
%TF.FilePolarity,Positive*%
%FSLAX46Y46*%
G04 Gerber Fmt 4.6, Leading zero omitted, Abs format (unit mm)*
G04 Created by KiCad (PCBNEW (6.0.8)) date 2024-05-22 19:13:14*
%MOMM*%
%LPD*%
G01*
G04 APERTURE LIST*
%TA.AperFunction,ComponentPad*%
%ADD10C,1.269000*%
%TD*%
%TA.AperFunction,ComponentPad*%
%ADD11R,1.700000X1.700000*%
%TD*%
%TA.AperFunction,ComponentPad*%
%ADD12O,1.700000X1.700000*%
%TD*%
%TA.AperFunction,ComponentPad*%
%ADD13C,1.965000*%
%TD*%
%TA.AperFunction,ComponentPad*%
%ADD14C,4.665000*%
%TD*%
%TA.AperFunction,ViaPad*%
%ADD15C,0.600000*%
%TD*%
%TA.AperFunction,ViaPad*%
%ADD16C,0.800000*%
%TD*%
G04 APERTURE END LIST*
D10*
%TO.N,unconnected-(RV1-Pad1)*%
%TO.C,RV1*%
X170561000Y-113715800D03*
%TO.N,+5V*%
X173101000Y-113715800D03*
%TO.N,TPS_TRIG*%
X175641000Y-113715800D03*
%TD*%
%TO.N,unconnected-(RV2-Pad1)*%
%TO.C,RV2*%
X170561000Y-121500500D03*
%TO.N,+5V*%
X173101000Y-121500500D03*
%TO.N,BRAKE_TRIG*%
X175641000Y-121500500D03*
%TD*%
D11*
%TO.N,SAFETY_IN*%
%TO.C,JP1*%
X175382000Y-132842000D03*
D12*
%TO.N,SAFETY_OUT*%
X177922000Y-132842000D03*
%TD*%
D13*
%TO.N,+12V*%
%TO.C,J1*%
X174403800Y-98196400D03*
%TO.N,GND*%
X170213800Y-98196400D03*
%TO.N,SAFETY_OUT*%
X166023800Y-98196400D03*
%TO.N,unconnected-(J1-Pad4)*%
X161833800Y-98196400D03*
%TO.N,+5V*%
X157643800Y-98196400D03*
%TO.N,TPS_IN_NF*%
X153453800Y-98196400D03*
%TO.N,BRAKE_IN_NF*%
X153453800Y-91846400D03*
%TO.N,unconnected-(J1-Pad8)*%
X157643800Y-91846400D03*
%TO.N,unconnected-(J1-Pad9)*%
X161833800Y-91846400D03*
%TO.N,SAFETY_IN*%
X166023800Y-91846400D03*
%TO.N,BRAKE_TRIG*%
X170213800Y-91846400D03*
%TO.N,TPS_TRIG*%
X174403800Y-91846400D03*
D14*
%TO.N,unconnected-(J1-PadMH1)*%
X172813800Y-85496400D03*
%TO.N,unconnected-(J1-PadMH2)*%
X155033800Y-85496400D03*
%TD*%
D15*
%TO.N,TPS_COMP_OUT*%
X161080302Y-106654600D03*
X158546800Y-106603800D03*
%TO.N,TPS_IN*%
X156527500Y-107759500D03*
X158496000Y-121158000D03*
%TO.N,GND*%
X154022800Y-110388400D03*
X153286200Y-110388400D03*
X160401000Y-124510800D03*
X173151800Y-107736600D03*
X165989000Y-130810000D03*
X173355000Y-110464600D03*
X153212800Y-124358400D03*
X177393600Y-95300800D03*
X161010600Y-115620800D03*
X159131000Y-124510800D03*
X150977600Y-111455200D03*
X159410400Y-135382000D03*
X153307600Y-123444000D03*
X161036000Y-121767600D03*
X171450000Y-109575600D03*
X159766000Y-124510800D03*
X164832144Y-127089836D03*
X153307600Y-117015800D03*
X161544000Y-117322600D03*
X167504500Y-109220000D03*
X152654000Y-120142000D03*
X175387000Y-110464600D03*
X154018800Y-123444000D03*
X154784800Y-110388400D03*
X172339000Y-110464600D03*
X152298400Y-104800400D03*
X172339000Y-109575600D03*
X175387000Y-109575600D03*
X179222400Y-108305600D03*
X171450000Y-110464600D03*
X164465000Y-115062000D03*
X154780800Y-117015800D03*
X154018800Y-117015800D03*
X160977207Y-108858314D03*
X176911000Y-130556000D03*
X161592000Y-104114600D03*
X174371000Y-109575600D03*
X152247600Y-111455200D03*
X173177200Y-108534200D03*
X173202600Y-106959400D03*
X161511800Y-110538800D03*
D16*
X170129200Y-100330000D03*
D15*
X175412400Y-100152200D03*
X151765000Y-126619000D03*
X179243288Y-100193775D03*
X151003000Y-104800400D03*
X154780800Y-123444000D03*
X173355000Y-109575600D03*
X174371000Y-110464600D03*
X152806400Y-133146800D03*
X154635200Y-131673600D03*
%TO.N,+5V*%
X163626800Y-121716800D03*
X158369000Y-132461000D03*
X159639000Y-104825800D03*
X150241000Y-124409200D03*
X165862000Y-118999000D03*
X167690800Y-106984800D03*
X159000000Y-111275400D03*
X168427400Y-106222800D03*
X162864800Y-107442000D03*
X151130000Y-133553200D03*
X160274000Y-104825800D03*
X160377737Y-117968230D03*
X167690800Y-106222800D03*
X159107737Y-117968230D03*
X176911000Y-125425200D03*
X159635000Y-111275400D03*
X169926000Y-106984800D03*
X154914600Y-130048000D03*
X159742737Y-117968230D03*
X153979385Y-133117949D03*
X163322000Y-124841000D03*
X161950400Y-134924800D03*
X163525200Y-114630200D03*
X160270000Y-111275400D03*
X150215600Y-120142000D03*
X168021000Y-128143000D03*
X170688000Y-106984800D03*
X174650400Y-125349000D03*
X166370000Y-128143000D03*
X153670000Y-130048000D03*
X154305000Y-130048000D03*
X168427400Y-106984800D03*
X159004000Y-104825800D03*
X169214800Y-106984800D03*
X162941000Y-110617000D03*
%TO.N,BRAKE_COMP_OUT*%
X158267400Y-113004600D03*
X161055263Y-112941170D03*
%TO.N,BRAKE_IN*%
X154787600Y-104190800D03*
X155829000Y-119888000D03*
X156387901Y-114104367D03*
X153031446Y-111297749D03*
%TO.N,SAFETY_IN*%
X170561000Y-128016000D03*
%TO.N,SAFETY_OUT*%
X170688000Y-124460000D03*
X172974000Y-127762000D03*
X166886500Y-120015000D03*
%TO.N,Net-(C14-Pad2)*%
X160985200Y-128016000D03*
%TO.N,TPS_TRIG*%
X163703000Y-110109000D03*
X169113200Y-112471200D03*
%TO.N,BRAKE_TRIG*%
X169545000Y-117856000D03*
X163322000Y-117856000D03*
%TO.N,ERR_FINAL*%
X155829000Y-128143000D03*
X162229800Y-114018484D03*
X162114764Y-121025237D03*
X165345500Y-124333000D03*
X165354000Y-129667000D03*
X160909000Y-107473900D03*
%TO.N,/10ms VAL*%
X157000000Y-132000000D03*
D16*
%TO.N,Net-(C21-Pad1)*%
X177368200Y-100406200D03*
%TO.N,/LDO_VIN*%
X176530000Y-106934000D03*
X177546000Y-106934000D03*
%TD*%
%TA.AperFunction,Conductor*%
%TO.N,+5V*%
G36*
X178133961Y-82595574D02*
G01*
X178138598Y-82595582D01*
X178152427Y-82598762D01*
X178166269Y-82595630D01*
X178176630Y-82595648D01*
X178186289Y-82596036D01*
X178368534Y-82610379D01*
X178368572Y-82610382D01*
X178388099Y-82613475D01*
X178588921Y-82661688D01*
X178607715Y-82667794D01*
X178798524Y-82746830D01*
X178816129Y-82755800D01*
X178992229Y-82863714D01*
X179008224Y-82875336D01*
X179165261Y-83009458D01*
X179179242Y-83023439D01*
X179313364Y-83180476D01*
X179324985Y-83196469D01*
X179432900Y-83372571D01*
X179441870Y-83390176D01*
X179520904Y-83580980D01*
X179527012Y-83599779D01*
X179572411Y-83788877D01*
X179575225Y-83800600D01*
X179578318Y-83820128D01*
X179592744Y-84003428D01*
X179593132Y-84013533D01*
X179593118Y-84021699D01*
X179589938Y-84035527D01*
X179593070Y-84049368D01*
X179593063Y-84053278D01*
X179595300Y-84073300D01*
X179595300Y-99599058D01*
X179575298Y-99667179D01*
X179521642Y-99713672D01*
X179451368Y-99723776D01*
X179433204Y-99719776D01*
X179319222Y-99685689D01*
X179310246Y-99685634D01*
X179310245Y-99685634D01*
X179248932Y-99685260D01*
X179173567Y-99684799D01*
X179033517Y-99724826D01*
X179025930Y-99729613D01*
X179025928Y-99729614D01*
X178969729Y-99765073D01*
X178910330Y-99802551D01*
X178813910Y-99911726D01*
X178810096Y-99919849D01*
X178810095Y-99919851D01*
X178772543Y-99999835D01*
X178752007Y-100043575D01*
X178750627Y-100052440D01*
X178750626Y-100052442D01*
X178732143Y-100171150D01*
X178729597Y-100187499D01*
X178748483Y-100331927D01*
X178752097Y-100340140D01*
X178752098Y-100340144D01*
X178781164Y-100406200D01*
X178807147Y-100465249D01*
X178812922Y-100472119D01*
X178812923Y-100472121D01*
X178884155Y-100556862D01*
X178900871Y-100576748D01*
X178908348Y-100581725D01*
X179014649Y-100652485D01*
X179014651Y-100652486D01*
X179022122Y-100657459D01*
X179161152Y-100700896D01*
X179306786Y-100703565D01*
X179345113Y-100693116D01*
X179436158Y-100668294D01*
X179507141Y-100669674D01*
X179566110Y-100709211D01*
X179594342Y-100774353D01*
X179595300Y-100789857D01*
X179595300Y-107717129D01*
X179575298Y-107785250D01*
X179521642Y-107831743D01*
X179451368Y-107841847D01*
X179433199Y-107837846D01*
X179306939Y-107800087D01*
X179306936Y-107800087D01*
X179298334Y-107797514D01*
X179289358Y-107797459D01*
X179289357Y-107797459D01*
X179228044Y-107797085D01*
X179152679Y-107796624D01*
X179012629Y-107836651D01*
X179005042Y-107841438D01*
X179005040Y-107841439D01*
X178952242Y-107874752D01*
X178889442Y-107914376D01*
X178793022Y-108023551D01*
X178789208Y-108031674D01*
X178789207Y-108031676D01*
X178734933Y-108147276D01*
X178731119Y-108155400D01*
X178729739Y-108164265D01*
X178729738Y-108164267D01*
X178713386Y-108269290D01*
X178708709Y-108299324D01*
X178709873Y-108308226D01*
X178709873Y-108308229D01*
X178720568Y-108390013D01*
X178727595Y-108443752D01*
X178731209Y-108451965D01*
X178731210Y-108451969D01*
X178760728Y-108519052D01*
X178786259Y-108577074D01*
X178792034Y-108583944D01*
X178792035Y-108583946D01*
X178858864Y-108663449D01*
X178879983Y-108688573D01*
X178887460Y-108693550D01*
X178993761Y-108764310D01*
X178993763Y-108764311D01*
X179001234Y-108769284D01*
X179140264Y-108812721D01*
X179285898Y-108815390D01*
X179351671Y-108797458D01*
X179417764Y-108779439D01*
X179417767Y-108779438D01*
X179420868Y-108778592D01*
X179420870Y-108778592D01*
X179426426Y-108777077D01*
X179426645Y-108777879D01*
X179489726Y-108770096D01*
X179553703Y-108800876D01*
X179590883Y-108861359D01*
X179595300Y-108894429D01*
X179595300Y-134162910D01*
X179593126Y-134182061D01*
X179593118Y-134186698D01*
X179589938Y-134200527D01*
X179593070Y-134214369D01*
X179593052Y-134224730D01*
X179592664Y-134234396D01*
X179578318Y-134416672D01*
X179575225Y-134436199D01*
X179531206Y-134619556D01*
X179527014Y-134637016D01*
X179520906Y-134655815D01*
X179441870Y-134846624D01*
X179432900Y-134864229D01*
X179351229Y-134997504D01*
X179324986Y-135040329D01*
X179313364Y-135056324D01*
X179179242Y-135213361D01*
X179165261Y-135227342D01*
X179008224Y-135361464D01*
X178992231Y-135373085D01*
X178816129Y-135481000D01*
X178798524Y-135489970D01*
X178607715Y-135569006D01*
X178588921Y-135575112D01*
X178388100Y-135623325D01*
X178368572Y-135626418D01*
X178185272Y-135640844D01*
X178175167Y-135641232D01*
X178167001Y-135641218D01*
X178153173Y-135638038D01*
X178139332Y-135641170D01*
X178135422Y-135641163D01*
X178115400Y-135643400D01*
X160031079Y-135643400D01*
X159962958Y-135623398D01*
X159916465Y-135569742D01*
X159906825Y-135496495D01*
X159923170Y-135399344D01*
X159923170Y-135399341D01*
X159923976Y-135394552D01*
X159924129Y-135382000D01*
X159903480Y-135237813D01*
X159898719Y-135227342D01*
X159846908Y-135113390D01*
X159846907Y-135113388D01*
X159843192Y-135105218D01*
X159748113Y-134994873D01*
X159625885Y-134915648D01*
X159486334Y-134873914D01*
X159477358Y-134873859D01*
X159477357Y-134873859D01*
X159416044Y-134873485D01*
X159340679Y-134873024D01*
X159200629Y-134913051D01*
X159077442Y-134990776D01*
X158981022Y-135099951D01*
X158977208Y-135108074D01*
X158977207Y-135108076D01*
X158922933Y-135223676D01*
X158919119Y-135231800D01*
X158917739Y-135240665D01*
X158917738Y-135240667D01*
X158901579Y-135344449D01*
X158896709Y-135375724D01*
X158897873Y-135384626D01*
X158897873Y-135384629D01*
X158913099Y-135501063D01*
X158902099Y-135571202D01*
X158854924Y-135624259D01*
X158788163Y-135643400D01*
X149912938Y-135643400D01*
X149890387Y-135641008D01*
X149888538Y-135641032D01*
X149874667Y-135638056D01*
X149860877Y-135641390D01*
X149847464Y-135641563D01*
X149838611Y-135641367D01*
X149676030Y-135632026D01*
X149658045Y-135629685D01*
X149517083Y-135600886D01*
X149472311Y-135591739D01*
X149454841Y-135586836D01*
X149276488Y-135522608D01*
X149259914Y-135515252D01*
X149092615Y-135426063D01*
X149077278Y-135416407D01*
X148924533Y-135304117D01*
X148910729Y-135292348D01*
X148775703Y-135159289D01*
X148763729Y-135145655D01*
X148649217Y-134994584D01*
X148639326Y-134979373D01*
X148606837Y-134920529D01*
X148547695Y-134813411D01*
X148540100Y-134796955D01*
X148473258Y-134619552D01*
X148468100Y-134602159D01*
X148427434Y-134417002D01*
X148424828Y-134399046D01*
X148412990Y-134235076D01*
X148412663Y-134225782D01*
X148412682Y-134215103D01*
X148415862Y-134201273D01*
X148412730Y-134187432D01*
X148412737Y-134183521D01*
X148410500Y-134163500D01*
X148410500Y-133140524D01*
X152292709Y-133140524D01*
X152293873Y-133149426D01*
X152293873Y-133149429D01*
X152304098Y-133227619D01*
X152311595Y-133284952D01*
X152315209Y-133293165D01*
X152315210Y-133293169D01*
X152315637Y-133294139D01*
X152370259Y-133418274D01*
X152376034Y-133425144D01*
X152376035Y-133425146D01*
X152383540Y-133434074D01*
X152463983Y-133529773D01*
X152471460Y-133534750D01*
X152577761Y-133605510D01*
X152577763Y-133605511D01*
X152585234Y-133610484D01*
X152724264Y-133653921D01*
X152869898Y-133656590D01*
X152940162Y-133637434D01*
X153001763Y-133620639D01*
X153001764Y-133620639D01*
X153010426Y-133618277D01*
X153018759Y-133613161D01*
X153126902Y-133546761D01*
X153134554Y-133542063D01*
X153141174Y-133534750D01*
X153226273Y-133440734D01*
X153226274Y-133440733D01*
X153232301Y-133434074D01*
X153237663Y-133423008D01*
X153291895Y-133311072D01*
X153291895Y-133311071D01*
X153295810Y-133302991D01*
X153319976Y-133159352D01*
X153320129Y-133146800D01*
X153299480Y-133002613D01*
X153295762Y-132994435D01*
X153242908Y-132878190D01*
X153242907Y-132878188D01*
X153239192Y-132870018D01*
X153144113Y-132759673D01*
X153021885Y-132680448D01*
X152882334Y-132638714D01*
X152873358Y-132638659D01*
X152873357Y-132638659D01*
X152812044Y-132638285D01*
X152736679Y-132637824D01*
X152596629Y-132677851D01*
X152473442Y-132755576D01*
X152377022Y-132864751D01*
X152315119Y-132996600D01*
X152313739Y-133005465D01*
X152313738Y-133005467D01*
X152301589Y-133083496D01*
X152292709Y-133140524D01*
X148410500Y-133140524D01*
X148410500Y-131667324D01*
X154121509Y-131667324D01*
X154122673Y-131676226D01*
X154122673Y-131676229D01*
X154134296Y-131765114D01*
X154140395Y-131811752D01*
X154144009Y-131819965D01*
X154144010Y-131819969D01*
X154179370Y-131900329D01*
X154199059Y-131945074D01*
X154204834Y-131951944D01*
X154204835Y-131951946D01*
X154259808Y-132017344D01*
X154292783Y-132056573D01*
X154300260Y-132061550D01*
X154406561Y-132132310D01*
X154406563Y-132132311D01*
X154414034Y-132137284D01*
X154553064Y-132180721D01*
X154698698Y-132183390D01*
X154798461Y-132156191D01*
X154830563Y-132147439D01*
X154830564Y-132147439D01*
X154839226Y-132145077D01*
X154847559Y-132139961D01*
X154931197Y-132088607D01*
X154963354Y-132068863D01*
X154969974Y-132061550D01*
X155031367Y-131993724D01*
X156486309Y-131993724D01*
X156487473Y-132002626D01*
X156487473Y-132002629D01*
X156493628Y-132049697D01*
X156505195Y-132138152D01*
X156508809Y-132146365D01*
X156508810Y-132146369D01*
X156548413Y-132236371D01*
X156563859Y-132271474D01*
X156569634Y-132278344D01*
X156569635Y-132278346D01*
X156577140Y-132287274D01*
X156657583Y-132382973D01*
X156665060Y-132387950D01*
X156771361Y-132458710D01*
X156771363Y-132458711D01*
X156778834Y-132463684D01*
X156917864Y-132507121D01*
X157063498Y-132509790D01*
X157133762Y-132490634D01*
X157195363Y-132473839D01*
X157195364Y-132473839D01*
X157204026Y-132471477D01*
X157212359Y-132466361D01*
X157273422Y-132428868D01*
X157328154Y-132395263D01*
X157334774Y-132387950D01*
X157419873Y-132293934D01*
X157419874Y-132293933D01*
X157425901Y-132287274D01*
X157442313Y-132253401D01*
X157485495Y-132164272D01*
X157485495Y-132164271D01*
X157489410Y-132156191D01*
X157513576Y-132012552D01*
X157513729Y-132000000D01*
X157509642Y-131971463D01*
X174323500Y-131971463D01*
X174323501Y-133712536D01*
X174335597Y-133773353D01*
X174381680Y-133842320D01*
X174450647Y-133888403D01*
X174462816Y-133890824D01*
X174462817Y-133890824D01*
X174504519Y-133899119D01*
X174511463Y-133900500D01*
X175381859Y-133900500D01*
X176252536Y-133900499D01*
X176313353Y-133888403D01*
X176323670Y-133881510D01*
X176323671Y-133881509D01*
X176372007Y-133849211D01*
X176382320Y-133842320D01*
X176428403Y-133773353D01*
X176430825Y-133761180D01*
X176439293Y-133718605D01*
X176440500Y-133712537D01*
X176440499Y-132827150D01*
X176858482Y-132827150D01*
X176858998Y-132833294D01*
X176873963Y-133011506D01*
X176875852Y-133034004D01*
X176933069Y-133233545D01*
X176935887Y-133239027D01*
X176935888Y-133239031D01*
X177023784Y-133410058D01*
X177027955Y-133418173D01*
X177031786Y-133423007D01*
X177031787Y-133423008D01*
X177052981Y-133449748D01*
X177156894Y-133580854D01*
X177161581Y-133584843D01*
X177161584Y-133584846D01*
X177310284Y-133711399D01*
X177314976Y-133715392D01*
X177496180Y-133816664D01*
X177693603Y-133880810D01*
X177899725Y-133905389D01*
X177905860Y-133904917D01*
X177905862Y-133904917D01*
X178100555Y-133889936D01*
X178100560Y-133889935D01*
X178106696Y-133889463D01*
X178112626Y-133887807D01*
X178112628Y-133887807D01*
X178206664Y-133861552D01*
X178306632Y-133833640D01*
X178405558Y-133783669D01*
X178486416Y-133742825D01*
X178486418Y-133742824D01*
X178491917Y-133740046D01*
X178644751Y-133620639D01*
X178650634Y-133616043D01*
X178650635Y-133616042D01*
X178655495Y-133612245D01*
X178791133Y-133455106D01*
X178799298Y-133440734D01*
X178872956Y-133311072D01*
X178893667Y-133274614D01*
X178959190Y-133077644D01*
X178985207Y-132871698D01*
X178985622Y-132842000D01*
X178969996Y-132682639D01*
X178965966Y-132641534D01*
X178965965Y-132641531D01*
X178965365Y-132635408D01*
X178914328Y-132466361D01*
X178907152Y-132442593D01*
X178907151Y-132442590D01*
X178905368Y-132436685D01*
X178895219Y-132417598D01*
X178810809Y-132258847D01*
X178810808Y-132258845D01*
X178807913Y-132253401D01*
X178748637Y-132180721D01*
X178680610Y-132097311D01*
X178680607Y-132097308D01*
X178676715Y-132092536D01*
X178669770Y-132086790D01*
X178521518Y-131964145D01*
X178521519Y-131964145D01*
X178516770Y-131960217D01*
X178511353Y-131957288D01*
X178511350Y-131957286D01*
X178339590Y-131864416D01*
X178339585Y-131864414D01*
X178334170Y-131861486D01*
X178135871Y-131800102D01*
X178129746Y-131799458D01*
X178129745Y-131799458D01*
X177935554Y-131779048D01*
X177935552Y-131779048D01*
X177929425Y-131778404D01*
X177860168Y-131784707D01*
X177728836Y-131796659D01*
X177728833Y-131796660D01*
X177722697Y-131797218D01*
X177716791Y-131798956D01*
X177716787Y-131798957D01*
X177612023Y-131829791D01*
X177523560Y-131855827D01*
X177339600Y-131951999D01*
X177177823Y-132082071D01*
X177173865Y-132086788D01*
X177173863Y-132086790D01*
X177123057Y-132147339D01*
X177044391Y-132241089D01*
X177041427Y-132246481D01*
X177041424Y-132246485D01*
X176959633Y-132395263D01*
X176944387Y-132422995D01*
X176881621Y-132620861D01*
X176880935Y-132626978D01*
X176880934Y-132626982D01*
X176865288Y-132766475D01*
X176858482Y-132827150D01*
X176440499Y-132827150D01*
X176440499Y-131971464D01*
X176428403Y-131910647D01*
X176382320Y-131841680D01*
X176313353Y-131795597D01*
X176301184Y-131793176D01*
X176301183Y-131793176D01*
X176258605Y-131784707D01*
X176252537Y-131783500D01*
X175382141Y-131783500D01*
X174511464Y-131783501D01*
X174450647Y-131795597D01*
X174440330Y-131802490D01*
X174440329Y-131802491D01*
X174399473Y-131829791D01*
X174381680Y-131841680D01*
X174335597Y-131910647D01*
X174333176Y-131922816D01*
X174333176Y-131922817D01*
X174330383Y-131936858D01*
X174323500Y-131971463D01*
X157509642Y-131971463D01*
X157505863Y-131945074D01*
X157494354Y-131864706D01*
X157494353Y-131864703D01*
X157493080Y-131855813D01*
X157486654Y-131841680D01*
X157436508Y-131731390D01*
X157436507Y-131731388D01*
X157432792Y-131723218D01*
X157337713Y-131612873D01*
X157215485Y-131533648D01*
X157075934Y-131491914D01*
X157066958Y-131491859D01*
X157066957Y-131491859D01*
X157005644Y-131491485D01*
X156930279Y-131491024D01*
X156790229Y-131531051D01*
X156667042Y-131608776D01*
X156570622Y-131717951D01*
X156566808Y-131726074D01*
X156566807Y-131726076D01*
X156514319Y-131837872D01*
X156508719Y-131849800D01*
X156507339Y-131858665D01*
X156507338Y-131858667D01*
X156488812Y-131977650D01*
X156486309Y-131993724D01*
X155031367Y-131993724D01*
X155055073Y-131967534D01*
X155055074Y-131967533D01*
X155061101Y-131960874D01*
X155079540Y-131922817D01*
X155120695Y-131837872D01*
X155120695Y-131837871D01*
X155124610Y-131829791D01*
X155148776Y-131686152D01*
X155148929Y-131673600D01*
X155128280Y-131529413D01*
X155124562Y-131521235D01*
X155071708Y-131404990D01*
X155071707Y-131404988D01*
X155067992Y-131396818D01*
X154972913Y-131286473D01*
X154850685Y-131207248D01*
X154711134Y-131165514D01*
X154702158Y-131165459D01*
X154702157Y-131165459D01*
X154640844Y-131165085D01*
X154565479Y-131164624D01*
X154425429Y-131204651D01*
X154302242Y-131282376D01*
X154205822Y-131391551D01*
X154202008Y-131399674D01*
X154202007Y-131399676D01*
X154147733Y-131515276D01*
X154143919Y-131523400D01*
X154142539Y-131532265D01*
X154142538Y-131532267D01*
X154129578Y-131615504D01*
X154121509Y-131667324D01*
X148410500Y-131667324D01*
X148410500Y-130803724D01*
X165475309Y-130803724D01*
X165476473Y-130812626D01*
X165476473Y-130812629D01*
X165488096Y-130901514D01*
X165494195Y-130948152D01*
X165497809Y-130956365D01*
X165497810Y-130956369D01*
X165525670Y-131019684D01*
X165552859Y-131081474D01*
X165558634Y-131088344D01*
X165558635Y-131088346D01*
X165623455Y-131165459D01*
X165646583Y-131192973D01*
X165654060Y-131197950D01*
X165760361Y-131268710D01*
X165760363Y-131268711D01*
X165767834Y-131273684D01*
X165906864Y-131317121D01*
X166052498Y-131319790D01*
X166165051Y-131289104D01*
X166184363Y-131283839D01*
X166184364Y-131283839D01*
X166193026Y-131281477D01*
X166201359Y-131276361D01*
X166255090Y-131243370D01*
X166317154Y-131205263D01*
X166323774Y-131197950D01*
X166408873Y-131103934D01*
X166408874Y-131103933D01*
X166414901Y-131097274D01*
X166431300Y-131063428D01*
X166474495Y-130974272D01*
X166474495Y-130974271D01*
X166478410Y-130966191D01*
X166502576Y-130822552D01*
X166502729Y-130810000D01*
X166487315Y-130702369D01*
X166483354Y-130674706D01*
X166483353Y-130674703D01*
X166482080Y-130665813D01*
X166478362Y-130657635D01*
X166429297Y-130549724D01*
X176397309Y-130549724D01*
X176398473Y-130558626D01*
X176398473Y-130558629D01*
X176410096Y-130647514D01*
X176416195Y-130694152D01*
X176419809Y-130702365D01*
X176419810Y-130702369D01*
X176420237Y-130703339D01*
X176474859Y-130827474D01*
X176480634Y-130834344D01*
X176480635Y-130834346D01*
X176488140Y-130843274D01*
X176568583Y-130938973D01*
X176587046Y-130951263D01*
X176682361Y-131014710D01*
X176682363Y-131014711D01*
X176689834Y-131019684D01*
X176828864Y-131063121D01*
X176974498Y-131065790D01*
X177044762Y-131046633D01*
X177106363Y-131029839D01*
X177106364Y-131029839D01*
X177115026Y-131027477D01*
X177123359Y-131022361D01*
X177231502Y-130955961D01*
X177239154Y-130951263D01*
X177245774Y-130943950D01*
X177330873Y-130849934D01*
X177330874Y-130849933D01*
X177336901Y-130843274D01*
X177350668Y-130814860D01*
X177396495Y-130720272D01*
X177396495Y-130720271D01*
X177400410Y-130712191D01*
X177424576Y-130568552D01*
X177424729Y-130556000D01*
X177404080Y-130411813D01*
X177400362Y-130403635D01*
X177347508Y-130287390D01*
X177347507Y-130287388D01*
X177343792Y-130279218D01*
X177248713Y-130168873D01*
X177126485Y-130089648D01*
X176986934Y-130047914D01*
X176977958Y-130047859D01*
X176977957Y-130047859D01*
X176916644Y-130047485D01*
X176841279Y-130047024D01*
X176701229Y-130087051D01*
X176578042Y-130164776D01*
X176481622Y-130273951D01*
X176477808Y-130282074D01*
X176477807Y-130282076D01*
X176423533Y-130397676D01*
X176419719Y-130405800D01*
X176418339Y-130414665D01*
X176418338Y-130414667D01*
X176400938Y-130526418D01*
X176397309Y-130549724D01*
X166429297Y-130549724D01*
X166425508Y-130541390D01*
X166425507Y-130541388D01*
X166421792Y-130533218D01*
X166326713Y-130422873D01*
X166204485Y-130343648D01*
X166064934Y-130301914D01*
X166055958Y-130301859D01*
X166055957Y-130301859D01*
X165994644Y-130301485D01*
X165919279Y-130301024D01*
X165779229Y-130341051D01*
X165656042Y-130418776D01*
X165559622Y-130527951D01*
X165555808Y-130536074D01*
X165555807Y-130536076D01*
X165544171Y-130560860D01*
X165497719Y-130659800D01*
X165496339Y-130668665D01*
X165496338Y-130668667D01*
X165490940Y-130703339D01*
X165475309Y-130803724D01*
X148410500Y-130803724D01*
X148410500Y-129660724D01*
X164840309Y-129660724D01*
X164841473Y-129669626D01*
X164841473Y-129669629D01*
X164853096Y-129758514D01*
X164859195Y-129805152D01*
X164862809Y-129813365D01*
X164862810Y-129813369D01*
X164863237Y-129814339D01*
X164917859Y-129938474D01*
X164923634Y-129945344D01*
X164923635Y-129945346D01*
X164931140Y-129954274D01*
X165011583Y-130049973D01*
X165019060Y-130054950D01*
X165125361Y-130125710D01*
X165125363Y-130125711D01*
X165132834Y-130130684D01*
X165271864Y-130174121D01*
X165417498Y-130176790D01*
X165487762Y-130157633D01*
X165549363Y-130140839D01*
X165549364Y-130140839D01*
X165558026Y-130138477D01*
X165566359Y-130133361D01*
X165641782Y-130087051D01*
X165682154Y-130062263D01*
X165688774Y-130054950D01*
X165773873Y-129960934D01*
X165773874Y-129960933D01*
X165779901Y-129954274D01*
X165843410Y-129823191D01*
X165867576Y-129679552D01*
X165867729Y-129667000D01*
X165847080Y-129522813D01*
X165843362Y-129514635D01*
X165790508Y-129398390D01*
X165790507Y-129398388D01*
X165786792Y-129390218D01*
X165691713Y-129279873D01*
X165569485Y-129200648D01*
X165429934Y-129158914D01*
X165420958Y-129158859D01*
X165420957Y-129158859D01*
X165359644Y-129158485D01*
X165284279Y-129158024D01*
X165144229Y-129198051D01*
X165021042Y-129275776D01*
X164924622Y-129384951D01*
X164862719Y-129516800D01*
X164840309Y-129660724D01*
X148410500Y-129660724D01*
X148410500Y-128136724D01*
X155315309Y-128136724D01*
X155316473Y-128145626D01*
X155316473Y-128145629D01*
X155326291Y-128220710D01*
X155334195Y-128281152D01*
X155337809Y-128289365D01*
X155337810Y-128289369D01*
X155377567Y-128379722D01*
X155392859Y-128414474D01*
X155398634Y-128421344D01*
X155398635Y-128421346D01*
X155450275Y-128482779D01*
X155486583Y-128525973D01*
X155494060Y-128530950D01*
X155600361Y-128601710D01*
X155600363Y-128601711D01*
X155607834Y-128606684D01*
X155746864Y-128650121D01*
X155892498Y-128652790D01*
X155962762Y-128633634D01*
X156024363Y-128616839D01*
X156024364Y-128616839D01*
X156033026Y-128614477D01*
X156041359Y-128609361D01*
X156149502Y-128542961D01*
X156157154Y-128538263D01*
X156163774Y-128530950D01*
X156248873Y-128436934D01*
X156248874Y-128436933D01*
X156254901Y-128430274D01*
X156318410Y-128299191D01*
X156342576Y-128155552D01*
X156342729Y-128143000D01*
X156337056Y-128103385D01*
X156323643Y-128009724D01*
X160471509Y-128009724D01*
X160472673Y-128018626D01*
X160472673Y-128018629D01*
X160484296Y-128107514D01*
X160490395Y-128154152D01*
X160494009Y-128162365D01*
X160494010Y-128162369D01*
X160521870Y-128225684D01*
X160549059Y-128287474D01*
X160554834Y-128294344D01*
X160554835Y-128294346D01*
X160567938Y-128309934D01*
X160642783Y-128398973D01*
X160650260Y-128403950D01*
X160756561Y-128474710D01*
X160756563Y-128474711D01*
X160764034Y-128479684D01*
X160903064Y-128523121D01*
X161048698Y-128525790D01*
X161118962Y-128506634D01*
X161180563Y-128489839D01*
X161180564Y-128489839D01*
X161189226Y-128487477D01*
X161197559Y-128482361D01*
X161305702Y-128415961D01*
X161313354Y-128411263D01*
X161319974Y-128403950D01*
X161405073Y-128309934D01*
X161405074Y-128309933D01*
X161411101Y-128303274D01*
X161426133Y-128272249D01*
X161470695Y-128180272D01*
X161470695Y-128180271D01*
X161474610Y-128172191D01*
X161498776Y-128028552D01*
X161498929Y-128016000D01*
X161498030Y-128009724D01*
X170047309Y-128009724D01*
X170048473Y-128018626D01*
X170048473Y-128018629D01*
X170060096Y-128107514D01*
X170066195Y-128154152D01*
X170069809Y-128162365D01*
X170069810Y-128162369D01*
X170097670Y-128225684D01*
X170124859Y-128287474D01*
X170130634Y-128294344D01*
X170130635Y-128294346D01*
X170143738Y-128309934D01*
X170218583Y-128398973D01*
X170226060Y-128403950D01*
X170332361Y-128474710D01*
X170332363Y-128474711D01*
X170339834Y-128479684D01*
X170478864Y-128523121D01*
X170624498Y-128525790D01*
X170694762Y-128506634D01*
X170756363Y-128489839D01*
X170756364Y-128489839D01*
X170765026Y-128487477D01*
X170773359Y-128482361D01*
X170881502Y-128415961D01*
X170889154Y-128411263D01*
X170895774Y-128403950D01*
X170980873Y-128309934D01*
X170980874Y-128309933D01*
X170986901Y-128303274D01*
X171001933Y-128272249D01*
X171046495Y-128180272D01*
X171046495Y-128180271D01*
X171050410Y-128172191D01*
X171074576Y-128028552D01*
X171074729Y-128016000D01*
X171059315Y-127908369D01*
X171055354Y-127880706D01*
X171055353Y-127880703D01*
X171054080Y-127871813D01*
X171050362Y-127863635D01*
X171001297Y-127755724D01*
X172460309Y-127755724D01*
X172461473Y-127764626D01*
X172461473Y-127764629D01*
X172473096Y-127853514D01*
X172479195Y-127900152D01*
X172482809Y-127908365D01*
X172482810Y-127908369D01*
X172483237Y-127909339D01*
X172537859Y-128033474D01*
X172543634Y-128040344D01*
X172543635Y-128040346D01*
X172551140Y-128049274D01*
X172631583Y-128144973D01*
X172647476Y-128155552D01*
X172745361Y-128220710D01*
X172745363Y-128220711D01*
X172752834Y-128225684D01*
X172891864Y-128269121D01*
X173037498Y-128271790D01*
X173107762Y-128252634D01*
X173169363Y-128235839D01*
X173169364Y-128235839D01*
X173178026Y-128233477D01*
X173186359Y-128228361D01*
X173294502Y-128161961D01*
X173302154Y-128157263D01*
X173308774Y-128149950D01*
X173393873Y-128055934D01*
X173393874Y-128055933D01*
X173399901Y-128049274D01*
X173413668Y-128020860D01*
X173459495Y-127926272D01*
X173459495Y-127926271D01*
X173463410Y-127918191D01*
X173487576Y-127774552D01*
X173487729Y-127762000D01*
X173469529Y-127634914D01*
X173468354Y-127626706D01*
X173468353Y-127626703D01*
X173467080Y-127617813D01*
X173463362Y-127609635D01*
X173410508Y-127493390D01*
X173410507Y-127493388D01*
X173406792Y-127485218D01*
X173311713Y-127374873D01*
X173189485Y-127295648D01*
X173049934Y-127253914D01*
X173040958Y-127253859D01*
X173040957Y-127253859D01*
X172979644Y-127253485D01*
X172904279Y-127253024D01*
X172764229Y-127293051D01*
X172641042Y-127370776D01*
X172544622Y-127479951D01*
X172540808Y-127488074D01*
X172540807Y-127488076D01*
X172486533Y-127603676D01*
X172482719Y-127611800D01*
X172481339Y-127620665D01*
X172481338Y-127620667D01*
X172463938Y-127732418D01*
X172460309Y-127755724D01*
X171001297Y-127755724D01*
X170997508Y-127747390D01*
X170997507Y-127747388D01*
X170993792Y-127739218D01*
X170898713Y-127628873D01*
X170776485Y-127549648D01*
X170636934Y-127507914D01*
X170627958Y-127507859D01*
X170627957Y-127507859D01*
X170566644Y-127507485D01*
X170491279Y-127507024D01*
X170351229Y-127547051D01*
X170228042Y-127624776D01*
X170131622Y-127733951D01*
X170127808Y-127742074D01*
X170127807Y-127742076D01*
X170116171Y-127766860D01*
X170069719Y-127865800D01*
X170068339Y-127874665D01*
X170068338Y-127874667D01*
X170049008Y-127998813D01*
X170047309Y-128009724D01*
X161498030Y-128009724D01*
X161483515Y-127908369D01*
X161479554Y-127880706D01*
X161479553Y-127880703D01*
X161478280Y-127871813D01*
X161474562Y-127863635D01*
X161421708Y-127747390D01*
X161421707Y-127747388D01*
X161417992Y-127739218D01*
X161322913Y-127628873D01*
X161200685Y-127549648D01*
X161061134Y-127507914D01*
X161052158Y-127507859D01*
X161052157Y-127507859D01*
X160990844Y-127507485D01*
X160915479Y-127507024D01*
X160775429Y-127547051D01*
X160652242Y-127624776D01*
X160555822Y-127733951D01*
X160552008Y-127742074D01*
X160552007Y-127742076D01*
X160540371Y-127766860D01*
X160493919Y-127865800D01*
X160492539Y-127874665D01*
X160492538Y-127874667D01*
X160473208Y-127998813D01*
X160471509Y-128009724D01*
X156323643Y-128009724D01*
X156323354Y-128007706D01*
X156323353Y-128007703D01*
X156322080Y-127998813D01*
X156318362Y-127990635D01*
X156265508Y-127874390D01*
X156265507Y-127874388D01*
X156261792Y-127866218D01*
X156166713Y-127755873D01*
X156044485Y-127676648D01*
X155904934Y-127634914D01*
X155895958Y-127634859D01*
X155895957Y-127634859D01*
X155834644Y-127634485D01*
X155759279Y-127634024D01*
X155619229Y-127674051D01*
X155496042Y-127751776D01*
X155399622Y-127860951D01*
X155337719Y-127992800D01*
X155336339Y-128001665D01*
X155336338Y-128001667D01*
X155327889Y-128055934D01*
X155315309Y-128136724D01*
X148410500Y-128136724D01*
X148410500Y-126612724D01*
X151251309Y-126612724D01*
X151252473Y-126621626D01*
X151252473Y-126621629D01*
X151261914Y-126693822D01*
X151270195Y-126757152D01*
X151273809Y-126765365D01*
X151273810Y-126765369D01*
X151313567Y-126855722D01*
X151328859Y-126890474D01*
X151334634Y-126897344D01*
X151334635Y-126897346D01*
X151375238Y-126945649D01*
X151422583Y-127001973D01*
X151430060Y-127006950D01*
X151536361Y-127077710D01*
X151536363Y-127077711D01*
X151543834Y-127082684D01*
X151552401Y-127085361D01*
X151552402Y-127085361D01*
X151568777Y-127090477D01*
X151682864Y-127126121D01*
X151828498Y-127128790D01*
X151943160Y-127097529D01*
X151960363Y-127092839D01*
X151960364Y-127092839D01*
X151969026Y-127090477D01*
X151977359Y-127085361D01*
X151980292Y-127083560D01*
X164318453Y-127083560D01*
X164319617Y-127092462D01*
X164319617Y-127092465D01*
X164324346Y-127128625D01*
X164337339Y-127227988D01*
X164340953Y-127236201D01*
X164340954Y-127236205D01*
X164369258Y-127300529D01*
X164396003Y-127361310D01*
X164401778Y-127368180D01*
X164401779Y-127368182D01*
X164409284Y-127377110D01*
X164489727Y-127472809D01*
X164497204Y-127477786D01*
X164603505Y-127548546D01*
X164603507Y-127548547D01*
X164610978Y-127553520D01*
X164750008Y-127596957D01*
X164895642Y-127599626D01*
X164965906Y-127580470D01*
X165027507Y-127563675D01*
X165027508Y-127563675D01*
X165036170Y-127561313D01*
X165044503Y-127556197D01*
X165123229Y-127507859D01*
X165160298Y-127485099D01*
X165166346Y-127478418D01*
X165252017Y-127383770D01*
X165252018Y-127383769D01*
X165258045Y-127377110D01*
X165296452Y-127297839D01*
X165317639Y-127254108D01*
X165317639Y-127254107D01*
X165321554Y-127246027D01*
X165341306Y-127128625D01*
X165344914Y-127107180D01*
X165344914Y-127107177D01*
X165345720Y-127102388D01*
X165345873Y-127089836D01*
X165333290Y-127001973D01*
X165326498Y-126954542D01*
X165326497Y-126954539D01*
X165325224Y-126945649D01*
X165321506Y-126937471D01*
X165268652Y-126821226D01*
X165268651Y-126821224D01*
X165264936Y-126813054D01*
X165169857Y-126702709D01*
X165047629Y-126623484D01*
X164908078Y-126581750D01*
X164899102Y-126581695D01*
X164899101Y-126581695D01*
X164837788Y-126581321D01*
X164762423Y-126580860D01*
X164622373Y-126620887D01*
X164499186Y-126698612D01*
X164402766Y-126807787D01*
X164398952Y-126815910D01*
X164398951Y-126815912D01*
X164344677Y-126931512D01*
X164340863Y-126939636D01*
X164339483Y-126948501D01*
X164339482Y-126948503D01*
X164328512Y-127018961D01*
X164318453Y-127083560D01*
X151980292Y-127083560D01*
X152085502Y-127018961D01*
X152093154Y-127014263D01*
X152099774Y-127006950D01*
X152184873Y-126912934D01*
X152184874Y-126912933D01*
X152190901Y-126906274D01*
X152232107Y-126821226D01*
X152250495Y-126783272D01*
X152250495Y-126783271D01*
X152254410Y-126775191D01*
X152278576Y-126631552D01*
X152278729Y-126619000D01*
X152258080Y-126474813D01*
X152254362Y-126466635D01*
X152201508Y-126350390D01*
X152201507Y-126350388D01*
X152197792Y-126342218D01*
X152102713Y-126231873D01*
X151980485Y-126152648D01*
X151840934Y-126110914D01*
X151831958Y-126110859D01*
X151831957Y-126110859D01*
X151770644Y-126110485D01*
X151695279Y-126110024D01*
X151555229Y-126150051D01*
X151432042Y-126227776D01*
X151335622Y-126336951D01*
X151273719Y-126468800D01*
X151272339Y-126477665D01*
X151272338Y-126477667D01*
X151256132Y-126581750D01*
X151251309Y-126612724D01*
X148410500Y-126612724D01*
X148410500Y-124352124D01*
X152699109Y-124352124D01*
X152700273Y-124361026D01*
X152700273Y-124361029D01*
X152711234Y-124444852D01*
X152717995Y-124496552D01*
X152721609Y-124504765D01*
X152721610Y-124504769D01*
X152727649Y-124518493D01*
X152776659Y-124629874D01*
X152782434Y-124636744D01*
X152782435Y-124636746D01*
X152843252Y-124709097D01*
X152870383Y-124741373D01*
X152877860Y-124746350D01*
X152984161Y-124817110D01*
X152984163Y-124817111D01*
X152991634Y-124822084D01*
X153130664Y-124865521D01*
X153276298Y-124868190D01*
X153368791Y-124842973D01*
X153408163Y-124832239D01*
X153408164Y-124832239D01*
X153416826Y-124829877D01*
X153425159Y-124824761D01*
X153533302Y-124758361D01*
X153540954Y-124753663D01*
X153547574Y-124746350D01*
X153632673Y-124652334D01*
X153632674Y-124652333D01*
X153638701Y-124645674D01*
X153647781Y-124626934D01*
X153698295Y-124522672D01*
X153698295Y-124522671D01*
X153702210Y-124514591D01*
X153703904Y-124504524D01*
X158617309Y-124504524D01*
X158618473Y-124513426D01*
X158618473Y-124513429D01*
X158629552Y-124598152D01*
X158636195Y-124648952D01*
X158639809Y-124657165D01*
X158639810Y-124657169D01*
X158640237Y-124658139D01*
X158694859Y-124782274D01*
X158700634Y-124789144D01*
X158700635Y-124789146D01*
X158767078Y-124868190D01*
X158788583Y-124893773D01*
X158796060Y-124898750D01*
X158902361Y-124969510D01*
X158902363Y-124969511D01*
X158909834Y-124974484D01*
X158918401Y-124977161D01*
X158918402Y-124977161D01*
X158934777Y-124982277D01*
X159048864Y-125017921D01*
X159194498Y-125020590D01*
X159250756Y-125005252D01*
X159326367Y-124984638D01*
X159326369Y-124984637D01*
X159335026Y-124982277D01*
X159381585Y-124953690D01*
X159450103Y-124935092D01*
X159517332Y-124956177D01*
X159544834Y-124974484D01*
X159553401Y-124977161D01*
X159553402Y-124977161D01*
X159569777Y-124982277D01*
X159683864Y-125017921D01*
X159829498Y-125020590D01*
X159885756Y-125005252D01*
X159961367Y-124984638D01*
X159961369Y-124984637D01*
X159970026Y-124982277D01*
X160016585Y-124953690D01*
X160085103Y-124935092D01*
X160152332Y-124956177D01*
X160179834Y-124974484D01*
X160188401Y-124977161D01*
X160188402Y-124977161D01*
X160204777Y-124982277D01*
X160318864Y-125017921D01*
X160464498Y-125020590D01*
X160534762Y-125001433D01*
X160596363Y-124984639D01*
X160596364Y-124984639D01*
X160605026Y-124982277D01*
X160613359Y-124977161D01*
X160708556Y-124918710D01*
X160729154Y-124906063D01*
X160735774Y-124898750D01*
X160820873Y-124804734D01*
X160820874Y-124804733D01*
X160826901Y-124798074D01*
X160851514Y-124747274D01*
X160886495Y-124675072D01*
X160886495Y-124675071D01*
X160890410Y-124666991D01*
X160914576Y-124523352D01*
X160914729Y-124510800D01*
X160894080Y-124366613D01*
X160888156Y-124353583D01*
X160875944Y-124326724D01*
X164831809Y-124326724D01*
X164832973Y-124335626D01*
X164832973Y-124335629D01*
X164836957Y-124366093D01*
X164850695Y-124471152D01*
X164854309Y-124479365D01*
X164854310Y-124479369D01*
X164873664Y-124523352D01*
X164909359Y-124604474D01*
X164915134Y-124611344D01*
X164915135Y-124611346D01*
X164968702Y-124675072D01*
X165003083Y-124715973D01*
X165010560Y-124720950D01*
X165116861Y-124791710D01*
X165116863Y-124791711D01*
X165124334Y-124796684D01*
X165263364Y-124840121D01*
X165408998Y-124842790D01*
X165503190Y-124817110D01*
X165540863Y-124806839D01*
X165540864Y-124806839D01*
X165549526Y-124804477D01*
X165557859Y-124799361D01*
X165631844Y-124753934D01*
X165673654Y-124728263D01*
X165680274Y-124720950D01*
X165765373Y-124626934D01*
X165765374Y-124626933D01*
X165771401Y-124620274D01*
X165786433Y-124589249D01*
X165830995Y-124497272D01*
X165830995Y-124497271D01*
X165834910Y-124489191D01*
X165840877Y-124453724D01*
X170174309Y-124453724D01*
X170175473Y-124462626D01*
X170175473Y-124462629D01*
X170181772Y-124510800D01*
X170193195Y-124598152D01*
X170196809Y-124606365D01*
X170196810Y-124606369D01*
X170219590Y-124658139D01*
X170251859Y-124731474D01*
X170257634Y-124738344D01*
X170257635Y-124738346D01*
X170334575Y-124829877D01*
X170345583Y-124842973D01*
X170353060Y-124847950D01*
X170459361Y-124918710D01*
X170459363Y-124918711D01*
X170466834Y-124923684D01*
X170605864Y-124967121D01*
X170751498Y-124969790D01*
X170878767Y-124935092D01*
X170883363Y-124933839D01*
X170883364Y-124933839D01*
X170892026Y-124931477D01*
X170900359Y-124926361D01*
X170995100Y-124868190D01*
X171016154Y-124855263D01*
X171022774Y-124847950D01*
X171107873Y-124753934D01*
X171107874Y-124753933D01*
X171113901Y-124747274D01*
X171120092Y-124734497D01*
X171173495Y-124624272D01*
X171173495Y-124624271D01*
X171177410Y-124616191D01*
X171193847Y-124518493D01*
X171200770Y-124477344D01*
X171200770Y-124477341D01*
X171201576Y-124472552D01*
X171201729Y-124460000D01*
X171189629Y-124375506D01*
X171182354Y-124324706D01*
X171182353Y-124324703D01*
X171181080Y-124315813D01*
X171177362Y-124307635D01*
X171124508Y-124191390D01*
X171124507Y-124191388D01*
X171120792Y-124183218D01*
X171025713Y-124072873D01*
X170903485Y-123993648D01*
X170763934Y-123951914D01*
X170754958Y-123951859D01*
X170754957Y-123951859D01*
X170693644Y-123951485D01*
X170618279Y-123951024D01*
X170478229Y-123991051D01*
X170470642Y-123995838D01*
X170470640Y-123995839D01*
X170455666Y-124005287D01*
X170355042Y-124068776D01*
X170258622Y-124177951D01*
X170254808Y-124186074D01*
X170254807Y-124186076D01*
X170228462Y-124242190D01*
X170196719Y-124309800D01*
X170195339Y-124318665D01*
X170195338Y-124318667D01*
X170187873Y-124366613D01*
X170174309Y-124453724D01*
X165840877Y-124453724D01*
X165848678Y-124407359D01*
X165858270Y-124350344D01*
X165858270Y-124350341D01*
X165859076Y-124345552D01*
X165859229Y-124333000D01*
X165843336Y-124222023D01*
X165839854Y-124197706D01*
X165839853Y-124197703D01*
X165838580Y-124188813D01*
X165834862Y-124180635D01*
X165782008Y-124064390D01*
X165782007Y-124064388D01*
X165778292Y-124056218D01*
X165683213Y-123945873D01*
X165560985Y-123866648D01*
X165421434Y-123824914D01*
X165412458Y-123824859D01*
X165412457Y-123824859D01*
X165351144Y-123824485D01*
X165275779Y-123824024D01*
X165135729Y-123864051D01*
X165128142Y-123868838D01*
X165128140Y-123868839D01*
X165062332Y-123910361D01*
X165012542Y-123941776D01*
X165006600Y-123948504D01*
X164986491Y-123971273D01*
X164916122Y-124050951D01*
X164912308Y-124059074D01*
X164912307Y-124059076D01*
X164859654Y-124171223D01*
X164854219Y-124182800D01*
X164852839Y-124191665D01*
X164852838Y-124191667D01*
X164833508Y-124315813D01*
X164831809Y-124326724D01*
X160875944Y-124326724D01*
X160837508Y-124242190D01*
X160837507Y-124242188D01*
X160833792Y-124234018D01*
X160738713Y-124123673D01*
X160616485Y-124044448D01*
X160476934Y-124002714D01*
X160467958Y-124002659D01*
X160467957Y-124002659D01*
X160406644Y-124002285D01*
X160331279Y-124001824D01*
X160191229Y-124041851D01*
X160168459Y-124056218D01*
X160151064Y-124067193D01*
X160082779Y-124086627D01*
X160015297Y-124066364D01*
X159989014Y-124049328D01*
X159981485Y-124044448D01*
X159841934Y-124002714D01*
X159832958Y-124002659D01*
X159832957Y-124002659D01*
X159771644Y-124002285D01*
X159696279Y-124001824D01*
X159556229Y-124041851D01*
X159533459Y-124056218D01*
X159516064Y-124067193D01*
X159447779Y-124086627D01*
X159380297Y-124066364D01*
X159354014Y-124049328D01*
X159346485Y-124044448D01*
X159206934Y-124002714D01*
X159197958Y-124002659D01*
X159197957Y-124002659D01*
X159136644Y-124002285D01*
X159061279Y-124001824D01*
X158921229Y-124041851D01*
X158913642Y-124046638D01*
X158913640Y-124046639D01*
X158878555Y-124068776D01*
X158798042Y-124119576D01*
X158701622Y-124228751D01*
X158697808Y-124236874D01*
X158697807Y-124236876D01*
X158656571Y-124324706D01*
X158639719Y-124360600D01*
X158638339Y-124369465D01*
X158638338Y-124369467D01*
X158619937Y-124487649D01*
X158617309Y-124504524D01*
X153703904Y-124504524D01*
X153726376Y-124370952D01*
X153726529Y-124358400D01*
X153709126Y-124236876D01*
X153707154Y-124223106D01*
X153707153Y-124223103D01*
X153705880Y-124214213D01*
X153699453Y-124200076D01*
X153645592Y-124081618D01*
X153648477Y-124080306D01*
X153633000Y-124027173D01*
X153653150Y-123959096D01*
X153706906Y-123912719D01*
X153777202Y-123902768D01*
X153797265Y-123908864D01*
X153797634Y-123907684D01*
X153936664Y-123951121D01*
X154082298Y-123953790D01*
X154189606Y-123924534D01*
X154214163Y-123917839D01*
X154214164Y-123917839D01*
X154222826Y-123915477D01*
X154231159Y-123910361D01*
X154335449Y-123846327D01*
X154403966Y-123827729D01*
X154471196Y-123848815D01*
X154552161Y-123902710D01*
X154552163Y-123902711D01*
X154559634Y-123907684D01*
X154568201Y-123910361D01*
X154568202Y-123910361D01*
X154584577Y-123915477D01*
X154698664Y-123951121D01*
X154844298Y-123953790D01*
X154951606Y-123924534D01*
X154976163Y-123917839D01*
X154976164Y-123917839D01*
X154984826Y-123915477D01*
X154993159Y-123910361D01*
X155068582Y-123864051D01*
X155108954Y-123839263D01*
X155120079Y-123826973D01*
X155200673Y-123737934D01*
X155200674Y-123737933D01*
X155206701Y-123731274D01*
X155270210Y-123600191D01*
X155294376Y-123456552D01*
X155294529Y-123444000D01*
X155273880Y-123299813D01*
X155270162Y-123291635D01*
X155217308Y-123175390D01*
X155217307Y-123175388D01*
X155213592Y-123167218D01*
X155118513Y-123056873D01*
X154996285Y-122977648D01*
X154856734Y-122935914D01*
X154847758Y-122935859D01*
X154847757Y-122935859D01*
X154786444Y-122935485D01*
X154711079Y-122935024D01*
X154571029Y-122975051D01*
X154563442Y-122979838D01*
X154563440Y-122979839D01*
X154466509Y-123040998D01*
X154398224Y-123060432D01*
X154330741Y-123040168D01*
X154241816Y-122982529D01*
X154241814Y-122982528D01*
X154234285Y-122977648D01*
X154094734Y-122935914D01*
X154085758Y-122935859D01*
X154085757Y-122935859D01*
X154024444Y-122935485D01*
X153949079Y-122935024D01*
X153809029Y-122975051D01*
X153801442Y-122979838D01*
X153801440Y-122979839D01*
X153730251Y-123024756D01*
X153661966Y-123044190D01*
X153594484Y-123023926D01*
X153530619Y-122982531D01*
X153530615Y-122982529D01*
X153523085Y-122977648D01*
X153383534Y-122935914D01*
X153374558Y-122935859D01*
X153374557Y-122935859D01*
X153313244Y-122935485D01*
X153237879Y-122935024D01*
X153097829Y-122975051D01*
X153090242Y-122979838D01*
X153090240Y-122979839D01*
X153023977Y-123021648D01*
X152974642Y-123052776D01*
X152878222Y-123161951D01*
X152816319Y-123293800D01*
X152793909Y-123437724D01*
X152795073Y-123446626D01*
X152795073Y-123446629D01*
X152806696Y-123535514D01*
X152812795Y-123582152D01*
X152816409Y-123590365D01*
X152816410Y-123590369D01*
X152816837Y-123591339D01*
X152871459Y-123715474D01*
X152877234Y-123722344D01*
X152877235Y-123722346D01*
X152919678Y-123772838D01*
X152948199Y-123837854D01*
X152937043Y-123907968D01*
X152894103Y-123956371D01*
X152894270Y-123956568D01*
X152892875Y-123957755D01*
X152890464Y-123960473D01*
X152887439Y-123962382D01*
X152887436Y-123962385D01*
X152879842Y-123967176D01*
X152873900Y-123973904D01*
X152848456Y-124002714D01*
X152783422Y-124076351D01*
X152779608Y-124084474D01*
X152779607Y-124084476D01*
X152735721Y-124177951D01*
X152721519Y-124208200D01*
X152720139Y-124217065D01*
X152720138Y-124217067D01*
X152700889Y-124340693D01*
X152699109Y-124352124D01*
X148410500Y-124352124D01*
X148410500Y-122466670D01*
X172499191Y-122466670D01*
X172509071Y-122479157D01*
X172548709Y-122505642D01*
X172558814Y-122511129D01*
X172741128Y-122589457D01*
X172752071Y-122593012D01*
X172945599Y-122636804D01*
X172957008Y-122638306D01*
X173155282Y-122646096D01*
X173166763Y-122645495D01*
X173363139Y-122617021D01*
X173374324Y-122614335D01*
X173562220Y-122550553D01*
X173572723Y-122545877D01*
X173694381Y-122477746D01*
X173704243Y-122467670D01*
X173701288Y-122459998D01*
X173113812Y-121872522D01*
X173099868Y-121864908D01*
X173098035Y-121865039D01*
X173091420Y-121869290D01*
X172505387Y-122455323D01*
X172499191Y-122466670D01*
X148410500Y-122466670D01*
X148410500Y-121761324D01*
X160522309Y-121761324D01*
X160523473Y-121770226D01*
X160523473Y-121770229D01*
X160532465Y-121838990D01*
X160541195Y-121905752D01*
X160544809Y-121913965D01*
X160544810Y-121913969D01*
X160545237Y-121914939D01*
X160599859Y-122039074D01*
X160605634Y-122045944D01*
X160605635Y-122045946D01*
X160649985Y-122098707D01*
X160693583Y-122150573D01*
X160701060Y-122155550D01*
X160807361Y-122226310D01*
X160807363Y-122226311D01*
X160814834Y-122231284D01*
X160823401Y-122233961D01*
X160823402Y-122233961D01*
X160839777Y-122239077D01*
X160953864Y-122274721D01*
X161099498Y-122277390D01*
X161169762Y-122258233D01*
X161231363Y-122241439D01*
X161231364Y-122241439D01*
X161240026Y-122239077D01*
X161248359Y-122233961D01*
X161356502Y-122167561D01*
X161364154Y-122162863D01*
X161370774Y-122155550D01*
X161455873Y-122061534D01*
X161455874Y-122061533D01*
X161461901Y-122054874D01*
X161489102Y-121998732D01*
X161521495Y-121931872D01*
X161521495Y-121931871D01*
X161525410Y-121923791D01*
X161549576Y-121780152D01*
X161549729Y-121767600D01*
X161535097Y-121665428D01*
X161530354Y-121632306D01*
X161530353Y-121632303D01*
X161529080Y-121623413D01*
X161525362Y-121615235D01*
X161472508Y-121498990D01*
X161472507Y-121498988D01*
X161468792Y-121490818D01*
X161373713Y-121380473D01*
X161251485Y-121301248D01*
X161111934Y-121259514D01*
X161102958Y-121259459D01*
X161102957Y-121259459D01*
X161041644Y-121259085D01*
X160966279Y-121258624D01*
X160826229Y-121298651D01*
X160818642Y-121303438D01*
X160818640Y-121303439D01*
X160752377Y-121345248D01*
X160703042Y-121376376D01*
X160606622Y-121485551D01*
X160602808Y-121493674D01*
X160602807Y-121493676D01*
X160569687Y-121564220D01*
X160544719Y-121617400D01*
X160543339Y-121626265D01*
X160543338Y-121626267D01*
X160534101Y-121685593D01*
X160522309Y-121761324D01*
X148410500Y-121761324D01*
X148410500Y-121151724D01*
X157982309Y-121151724D01*
X157983473Y-121160626D01*
X157983473Y-121160629D01*
X157986193Y-121181428D01*
X158001195Y-121296152D01*
X158004809Y-121304365D01*
X158004810Y-121304369D01*
X158012688Y-121322272D01*
X158059859Y-121429474D01*
X158065634Y-121436344D01*
X158065635Y-121436346D01*
X158144091Y-121529681D01*
X158153583Y-121540973D01*
X158161060Y-121545950D01*
X158267361Y-121616710D01*
X158267363Y-121616711D01*
X158274834Y-121621684D01*
X158413864Y-121665121D01*
X158559498Y-121667790D01*
X158689650Y-121632306D01*
X158691363Y-121631839D01*
X158691364Y-121631839D01*
X158700026Y-121629477D01*
X158708359Y-121624361D01*
X158762090Y-121591370D01*
X158824154Y-121553263D01*
X158830774Y-121545950D01*
X158915873Y-121451934D01*
X158915874Y-121451933D01*
X158921901Y-121445274D01*
X158939859Y-121408210D01*
X158981495Y-121322272D01*
X158981495Y-121322271D01*
X158985410Y-121314191D01*
X159009576Y-121170552D01*
X159009729Y-121158000D01*
X158989817Y-121018961D01*
X161601073Y-121018961D01*
X161602237Y-121027863D01*
X161602237Y-121027866D01*
X161611000Y-121094875D01*
X161619959Y-121163389D01*
X161623573Y-121171602D01*
X161623574Y-121171606D01*
X161624001Y-121172576D01*
X161678623Y-121296711D01*
X161684398Y-121303581D01*
X161684399Y-121303583D01*
X161744926Y-121375589D01*
X161772347Y-121408210D01*
X161779824Y-121413187D01*
X161886125Y-121483947D01*
X161886127Y-121483948D01*
X161893598Y-121488921D01*
X161902165Y-121491598D01*
X161902166Y-121491598D01*
X161921169Y-121497535D01*
X162032628Y-121532358D01*
X162178262Y-121535027D01*
X162280824Y-121507065D01*
X162304904Y-121500500D01*
X169713357Y-121500500D01*
X169714047Y-121507065D01*
X169730940Y-121667790D01*
X169731880Y-121676735D01*
X169733919Y-121683009D01*
X169733919Y-121683011D01*
X169767040Y-121784944D01*
X169786640Y-121845267D01*
X169789940Y-121850982D01*
X169789940Y-121850983D01*
X169821561Y-121905752D01*
X169875242Y-121998732D01*
X169993816Y-122130422D01*
X169999158Y-122134303D01*
X169999160Y-122134305D01*
X170125795Y-122226310D01*
X170137178Y-122234580D01*
X170143206Y-122237264D01*
X170143208Y-122237265D01*
X170233331Y-122277390D01*
X170299064Y-122306656D01*
X170305522Y-122308029D01*
X170305526Y-122308030D01*
X170392132Y-122326439D01*
X170472397Y-122343500D01*
X170649603Y-122343500D01*
X170729868Y-122326439D01*
X170816474Y-122308030D01*
X170816478Y-122308029D01*
X170822936Y-122306656D01*
X170888669Y-122277390D01*
X170978792Y-122237265D01*
X170978794Y-122237264D01*
X170984822Y-122234580D01*
X170996205Y-122226310D01*
X171122840Y-122134305D01*
X171122842Y-122134303D01*
X171128184Y-122130422D01*
X171246758Y-121998732D01*
X171300439Y-121905752D01*
X171332060Y-121850983D01*
X171332060Y-121850982D01*
X171335360Y-121845267D01*
X171354961Y-121784944D01*
X171388081Y-121683011D01*
X171388081Y-121683009D01*
X171390120Y-121676735D01*
X171391061Y-121667790D01*
X171407953Y-121507065D01*
X171408643Y-121500500D01*
X171406092Y-121476231D01*
X171954376Y-121476231D01*
X171967353Y-121674225D01*
X171969153Y-121685593D01*
X172017997Y-121877913D01*
X172021835Y-121888751D01*
X172104908Y-122068949D01*
X172110664Y-122078918D01*
X172122032Y-122095004D01*
X172132623Y-122103395D01*
X172145923Y-122096367D01*
X172728978Y-121513312D01*
X172735356Y-121501632D01*
X173465408Y-121501632D01*
X173465539Y-121503465D01*
X173469790Y-121510080D01*
X174056583Y-122096873D01*
X174068963Y-122103633D01*
X174075543Y-122098707D01*
X174146377Y-121972223D01*
X174151053Y-121961720D01*
X174214835Y-121773824D01*
X174217521Y-121762639D01*
X174246291Y-121564220D01*
X174246920Y-121556843D01*
X174248298Y-121504204D01*
X174248176Y-121500500D01*
X174793357Y-121500500D01*
X174794047Y-121507065D01*
X174810940Y-121667790D01*
X174811880Y-121676735D01*
X174813919Y-121683009D01*
X174813919Y-121683011D01*
X174847040Y-121784944D01*
X174866640Y-121845267D01*
X174869940Y-121850982D01*
X174869940Y-121850983D01*
X174901561Y-121905752D01*
X174955242Y-121998732D01*
X175073816Y-122130422D01*
X175079158Y-122134303D01*
X175079160Y-122134305D01*
X175205795Y-122226310D01*
X175217178Y-122234580D01*
X175223206Y-122237264D01*
X175223208Y-122237265D01*
X175313331Y-122277390D01*
X175379064Y-122306656D01*
X175385522Y-122308029D01*
X175385526Y-122308030D01*
X175472132Y-122326439D01*
X175552397Y-122343500D01*
X175729603Y-122343500D01*
X175809868Y-122326439D01*
X175896474Y-122308030D01*
X175896478Y-122308029D01*
X175902936Y-122306656D01*
X175968669Y-122277390D01*
X176058792Y-122237265D01*
X176058794Y-122237264D01*
X176064822Y-122234580D01*
X176076205Y-122226310D01*
X176202840Y-122134305D01*
X176202842Y-122134303D01*
X176208184Y-122130422D01*
X176326758Y-121998732D01*
X176380439Y-121905752D01*
X176412060Y-121850983D01*
X176412060Y-121850982D01*
X176415360Y-121845267D01*
X176434961Y-121784944D01*
X176468081Y-121683011D01*
X176468081Y-121683009D01*
X176470120Y-121676735D01*
X176471061Y-121667790D01*
X176487953Y-121507065D01*
X176488643Y-121500500D01*
X176481178Y-121429474D01*
X176470810Y-121330826D01*
X176470809Y-121330822D01*
X176470120Y-121324265D01*
X176464227Y-121306129D01*
X176417400Y-121162010D01*
X176417398Y-121162006D01*
X176415360Y-121155733D01*
X176401491Y-121131710D01*
X176330061Y-121007989D01*
X176326758Y-121002268D01*
X176208184Y-120870578D01*
X176202841Y-120866696D01*
X176202840Y-120866695D01*
X176070164Y-120770301D01*
X176070161Y-120770299D01*
X176064822Y-120766420D01*
X176058794Y-120763736D01*
X176058792Y-120763735D01*
X175908969Y-120697030D01*
X175902936Y-120694344D01*
X175896478Y-120692971D01*
X175896474Y-120692970D01*
X175809868Y-120674561D01*
X175729603Y-120657500D01*
X175552397Y-120657500D01*
X175472132Y-120674561D01*
X175385526Y-120692970D01*
X175385522Y-120692971D01*
X175379064Y-120694344D01*
X175284470Y-120736460D01*
X175223210Y-120763735D01*
X175217179Y-120766420D01*
X175073816Y-120870578D01*
X174955242Y-121002268D01*
X174951939Y-121007989D01*
X174880510Y-121131710D01*
X174866640Y-121155733D01*
X174864602Y-121162006D01*
X174864600Y-121162010D01*
X174817773Y-121306129D01*
X174811880Y-121324265D01*
X174811191Y-121330822D01*
X174811190Y-121330826D01*
X174800822Y-121429474D01*
X174793357Y-121500500D01*
X174248176Y-121500500D01*
X174248055Y-121496805D01*
X174229711Y-121297161D01*
X174227613Y-121285840D01*
X174173755Y-121094875D01*
X174169631Y-121084128D01*
X174081870Y-120906169D01*
X174079813Y-120902812D01*
X174070519Y-120895838D01*
X174058101Y-120902609D01*
X173473022Y-121487688D01*
X173465408Y-121501632D01*
X172735356Y-121501632D01*
X172736592Y-121499368D01*
X172736461Y-121497535D01*
X172732210Y-121490920D01*
X172143997Y-120902707D01*
X172131617Y-120895947D01*
X172125651Y-120900413D01*
X172043637Y-121056293D01*
X172039230Y-121066936D01*
X171980390Y-121256428D01*
X171978000Y-121267672D01*
X171954677Y-121464728D01*
X171954376Y-121476231D01*
X171406092Y-121476231D01*
X171401178Y-121429474D01*
X171390810Y-121330826D01*
X171390809Y-121330822D01*
X171390120Y-121324265D01*
X171384227Y-121306129D01*
X171337400Y-121162010D01*
X171337398Y-121162006D01*
X171335360Y-121155733D01*
X171321491Y-121131710D01*
X171250061Y-121007989D01*
X171246758Y-121002268D01*
X171128184Y-120870578D01*
X171122841Y-120866696D01*
X171122840Y-120866695D01*
X170990164Y-120770301D01*
X170990161Y-120770299D01*
X170984822Y-120766420D01*
X170978794Y-120763736D01*
X170978792Y-120763735D01*
X170828969Y-120697030D01*
X170822936Y-120694344D01*
X170816478Y-120692971D01*
X170816474Y-120692970D01*
X170729868Y-120674561D01*
X170649603Y-120657500D01*
X170472397Y-120657500D01*
X170392132Y-120674561D01*
X170305526Y-120692970D01*
X170305522Y-120692971D01*
X170299064Y-120694344D01*
X170204470Y-120736460D01*
X170143210Y-120763735D01*
X170137179Y-120766420D01*
X169993816Y-120870578D01*
X169875242Y-121002268D01*
X169871939Y-121007989D01*
X169800510Y-121131710D01*
X169786640Y-121155733D01*
X169784602Y-121162006D01*
X169784600Y-121162010D01*
X169737773Y-121306129D01*
X169731880Y-121324265D01*
X169731191Y-121330822D01*
X169731190Y-121330826D01*
X169720822Y-121429474D01*
X169713357Y-121500500D01*
X162304904Y-121500500D01*
X162310127Y-121499076D01*
X162310128Y-121499076D01*
X162318790Y-121496714D01*
X162327123Y-121491598D01*
X162435266Y-121425198D01*
X162442918Y-121420500D01*
X162449538Y-121413187D01*
X162534637Y-121319171D01*
X162534638Y-121319170D01*
X162540665Y-121312511D01*
X162545061Y-121303439D01*
X162600259Y-121189509D01*
X162600259Y-121189508D01*
X162604174Y-121181428D01*
X162628340Y-121037789D01*
X162628493Y-121025237D01*
X162622820Y-120985622D01*
X162609118Y-120889943D01*
X162609117Y-120889940D01*
X162607844Y-120881050D01*
X162602467Y-120869223D01*
X162551272Y-120756627D01*
X162551271Y-120756625D01*
X162547556Y-120748455D01*
X162452477Y-120638110D01*
X162330249Y-120558885D01*
X162247048Y-120534003D01*
X172498615Y-120534003D01*
X172502102Y-120542392D01*
X173088188Y-121128478D01*
X173102132Y-121136092D01*
X173103965Y-121135961D01*
X173110580Y-121131710D01*
X173696295Y-120545995D01*
X173703055Y-120533615D01*
X173697025Y-120525560D01*
X173626789Y-120481245D01*
X173616545Y-120476025D01*
X173432246Y-120402497D01*
X173421208Y-120399227D01*
X173226603Y-120360518D01*
X173215156Y-120359315D01*
X173016758Y-120356718D01*
X173005278Y-120357621D01*
X172809729Y-120391223D01*
X172798609Y-120394203D01*
X172612450Y-120462880D01*
X172602072Y-120467830D01*
X172508213Y-120523670D01*
X172498615Y-120534003D01*
X162247048Y-120534003D01*
X162190698Y-120517151D01*
X162181722Y-120517096D01*
X162181721Y-120517096D01*
X162120408Y-120516722D01*
X162045043Y-120516261D01*
X161904993Y-120556288D01*
X161781806Y-120634013D01*
X161685386Y-120743188D01*
X161681572Y-120751311D01*
X161681571Y-120751313D01*
X161627399Y-120866696D01*
X161623483Y-120875037D01*
X161622103Y-120883902D01*
X161622102Y-120883904D01*
X161602811Y-121007800D01*
X161601073Y-121018961D01*
X158989817Y-121018961D01*
X158989080Y-121013813D01*
X158983831Y-121002268D01*
X158932508Y-120889390D01*
X158932507Y-120889388D01*
X158928792Y-120881218D01*
X158833713Y-120770873D01*
X158711485Y-120691648D01*
X158571934Y-120649914D01*
X158562958Y-120649859D01*
X158562957Y-120649859D01*
X158501644Y-120649485D01*
X158426279Y-120649024D01*
X158286229Y-120689051D01*
X158163042Y-120766776D01*
X158066622Y-120875951D01*
X158062808Y-120884074D01*
X158062807Y-120884076D01*
X158009622Y-120997356D01*
X158004719Y-121007800D01*
X158003339Y-121016665D01*
X158003338Y-121016667D01*
X157985929Y-121128478D01*
X157982309Y-121151724D01*
X148410500Y-121151724D01*
X148410500Y-120135724D01*
X152140309Y-120135724D01*
X152141473Y-120144626D01*
X152141473Y-120144629D01*
X152153096Y-120233514D01*
X152159195Y-120280152D01*
X152162809Y-120288365D01*
X152162810Y-120288369D01*
X152190670Y-120351684D01*
X152217859Y-120413474D01*
X152223634Y-120420344D01*
X152223635Y-120420346D01*
X152275275Y-120481779D01*
X152311583Y-120524973D01*
X152319060Y-120529950D01*
X152425361Y-120600710D01*
X152425363Y-120600711D01*
X152432834Y-120605684D01*
X152571864Y-120649121D01*
X152717498Y-120651790D01*
X152800271Y-120629223D01*
X152849363Y-120615839D01*
X152849364Y-120615839D01*
X152858026Y-120613477D01*
X152866359Y-120608361D01*
X152951168Y-120556288D01*
X152982154Y-120537263D01*
X152988774Y-120529950D01*
X153073873Y-120435934D01*
X153073874Y-120435933D01*
X153079901Y-120429274D01*
X153092875Y-120402497D01*
X153139495Y-120306272D01*
X153139495Y-120306271D01*
X153143410Y-120298191D01*
X153167576Y-120154552D01*
X153167729Y-120142000D01*
X153151339Y-120027552D01*
X153148354Y-120006706D01*
X153148353Y-120006703D01*
X153147080Y-119997813D01*
X153143362Y-119989635D01*
X153094297Y-119881724D01*
X155315309Y-119881724D01*
X155316473Y-119890626D01*
X155316473Y-119890629D01*
X155328096Y-119979514D01*
X155334195Y-120026152D01*
X155337809Y-120034365D01*
X155337810Y-120034369D01*
X155338237Y-120035339D01*
X155392859Y-120159474D01*
X155398634Y-120166344D01*
X155398635Y-120166346D01*
X155411738Y-120181934D01*
X155486583Y-120270973D01*
X155505046Y-120283263D01*
X155600361Y-120346710D01*
X155600363Y-120346711D01*
X155607834Y-120351684D01*
X155746864Y-120395121D01*
X155892498Y-120397790D01*
X155962762Y-120378634D01*
X156024363Y-120361839D01*
X156024364Y-120361839D01*
X156033026Y-120359477D01*
X156041359Y-120354361D01*
X156149502Y-120287961D01*
X156157154Y-120283263D01*
X156163774Y-120275950D01*
X156248873Y-120181934D01*
X156248874Y-120181933D01*
X156254901Y-120175274D01*
X156268668Y-120146860D01*
X156314495Y-120052272D01*
X156314495Y-120052271D01*
X156318410Y-120044191D01*
X156324377Y-120008724D01*
X166372809Y-120008724D01*
X166373973Y-120017626D01*
X166373973Y-120017629D01*
X166385596Y-120106514D01*
X166391695Y-120153152D01*
X166395309Y-120161365D01*
X166395310Y-120161369D01*
X166435067Y-120251722D01*
X166450359Y-120286474D01*
X166456134Y-120293344D01*
X166456135Y-120293346D01*
X166507775Y-120354779D01*
X166544083Y-120397973D01*
X166551560Y-120402950D01*
X166657861Y-120473710D01*
X166657863Y-120473711D01*
X166665334Y-120478684D01*
X166804364Y-120522121D01*
X166949998Y-120524790D01*
X167020262Y-120505633D01*
X167081863Y-120488839D01*
X167081864Y-120488839D01*
X167090526Y-120486477D01*
X167098859Y-120481361D01*
X167207002Y-120414961D01*
X167214654Y-120410263D01*
X167221274Y-120402950D01*
X167306373Y-120308934D01*
X167306374Y-120308933D01*
X167312401Y-120302274D01*
X167327433Y-120271249D01*
X167371995Y-120179272D01*
X167371995Y-120179271D01*
X167375910Y-120171191D01*
X167400076Y-120027552D01*
X167400229Y-120015000D01*
X167383143Y-119895693D01*
X167380854Y-119879706D01*
X167380853Y-119879703D01*
X167379580Y-119870813D01*
X167375862Y-119862635D01*
X167323008Y-119746390D01*
X167323007Y-119746388D01*
X167319292Y-119738218D01*
X167224213Y-119627873D01*
X167101985Y-119548648D01*
X166962434Y-119506914D01*
X166953458Y-119506859D01*
X166953457Y-119506859D01*
X166892144Y-119506485D01*
X166816779Y-119506024D01*
X166676729Y-119546051D01*
X166553542Y-119623776D01*
X166457122Y-119732951D01*
X166453308Y-119741074D01*
X166453307Y-119741076D01*
X166445594Y-119757504D01*
X166395219Y-119864800D01*
X166393839Y-119873665D01*
X166393838Y-119873667D01*
X166374508Y-119997813D01*
X166372809Y-120008724D01*
X156324377Y-120008724D01*
X156342576Y-119900552D01*
X156342729Y-119888000D01*
X156322080Y-119743813D01*
X156318362Y-119735635D01*
X156265508Y-119619390D01*
X156265507Y-119619388D01*
X156261792Y-119611218D01*
X156166713Y-119500873D01*
X156044485Y-119421648D01*
X155904934Y-119379914D01*
X155895958Y-119379859D01*
X155895957Y-119379859D01*
X155834644Y-119379485D01*
X155759279Y-119379024D01*
X155619229Y-119419051D01*
X155496042Y-119496776D01*
X155399622Y-119605951D01*
X155395808Y-119614074D01*
X155395807Y-119614076D01*
X155343154Y-119726223D01*
X155337719Y-119737800D01*
X155336339Y-119746665D01*
X155336338Y-119746667D01*
X155317008Y-119870813D01*
X155315309Y-119881724D01*
X153094297Y-119881724D01*
X153090508Y-119873390D01*
X153090507Y-119873388D01*
X153086792Y-119865218D01*
X152991713Y-119754873D01*
X152869485Y-119675648D01*
X152729934Y-119633914D01*
X152720958Y-119633859D01*
X152720957Y-119633859D01*
X152659644Y-119633485D01*
X152584279Y-119633024D01*
X152444229Y-119673051D01*
X152321042Y-119750776D01*
X152224622Y-119859951D01*
X152220808Y-119868074D01*
X152220807Y-119868076D01*
X152209171Y-119892860D01*
X152162719Y-119991800D01*
X152161339Y-120000665D01*
X152161338Y-120000667D01*
X152155940Y-120035339D01*
X152140309Y-120135724D01*
X148410500Y-120135724D01*
X148410500Y-117849724D01*
X162808309Y-117849724D01*
X162809473Y-117858626D01*
X162809473Y-117858629D01*
X162821096Y-117947514D01*
X162827195Y-117994152D01*
X162830809Y-118002365D01*
X162830810Y-118002369D01*
X162831237Y-118003339D01*
X162885859Y-118127474D01*
X162891634Y-118134344D01*
X162891635Y-118134346D01*
X162899140Y-118143274D01*
X162979583Y-118238973D01*
X162987060Y-118243950D01*
X163093361Y-118314710D01*
X163093363Y-118314711D01*
X163100834Y-118319684D01*
X163239864Y-118363121D01*
X163385498Y-118365790D01*
X163455762Y-118346634D01*
X163517363Y-118329839D01*
X163517364Y-118329839D01*
X163526026Y-118327477D01*
X163534359Y-118322361D01*
X163642502Y-118255961D01*
X163650154Y-118251263D01*
X163656774Y-118243950D01*
X163741873Y-118149934D01*
X163741874Y-118149933D01*
X163747901Y-118143274D01*
X163811410Y-118012191D01*
X163835576Y-117868552D01*
X163835729Y-117856000D01*
X163834830Y-117849724D01*
X169031309Y-117849724D01*
X169032473Y-117858626D01*
X169032473Y-117858629D01*
X169044096Y-117947514D01*
X169050195Y-117994152D01*
X169053809Y-118002365D01*
X169053810Y-118002369D01*
X169054237Y-118003339D01*
X169108859Y-118127474D01*
X169114634Y-118134344D01*
X169114635Y-118134346D01*
X169122140Y-118143274D01*
X169202583Y-118238973D01*
X169210060Y-118243950D01*
X169316361Y-118314710D01*
X169316363Y-118314711D01*
X169323834Y-118319684D01*
X169462864Y-118363121D01*
X169608498Y-118365790D01*
X169678762Y-118346634D01*
X169740363Y-118329839D01*
X169740364Y-118329839D01*
X169749026Y-118327477D01*
X169757359Y-118322361D01*
X169865502Y-118255961D01*
X169873154Y-118251263D01*
X169879774Y-118243950D01*
X169964873Y-118149934D01*
X169964874Y-118149933D01*
X169970901Y-118143274D01*
X170034410Y-118012191D01*
X170058576Y-117868552D01*
X170058729Y-117856000D01*
X170048033Y-117781310D01*
X170039354Y-117720706D01*
X170039353Y-117720703D01*
X170038080Y-117711813D01*
X170034362Y-117703635D01*
X169981508Y-117587390D01*
X169981507Y-117587388D01*
X169977792Y-117579218D01*
X169882713Y-117468873D01*
X169760485Y-117389648D01*
X169620934Y-117347914D01*
X169611958Y-117347859D01*
X169611957Y-117347859D01*
X169550644Y-117347485D01*
X169475279Y-117347024D01*
X169335229Y-117387051D01*
X169327642Y-117391838D01*
X169327640Y-117391839D01*
X169307723Y-117404406D01*
X169212042Y-117464776D01*
X169115622Y-117573951D01*
X169111808Y-117582074D01*
X169111807Y-117582076D01*
X169098756Y-117609874D01*
X169053719Y-117705800D01*
X169052339Y-117714665D01*
X169052338Y-117714667D01*
X169034034Y-117832225D01*
X169031309Y-117849724D01*
X163834830Y-117849724D01*
X163825033Y-117781310D01*
X163816354Y-117720706D01*
X163816353Y-117720703D01*
X163815080Y-117711813D01*
X163811362Y-117703635D01*
X163758508Y-117587390D01*
X163758507Y-117587388D01*
X163754792Y-117579218D01*
X163659713Y-117468873D01*
X163537485Y-117389648D01*
X163397934Y-117347914D01*
X163388958Y-117347859D01*
X163388957Y-117347859D01*
X163327644Y-117347485D01*
X163252279Y-117347024D01*
X163112229Y-117387051D01*
X163104642Y-117391838D01*
X163104640Y-117391839D01*
X163084723Y-117404406D01*
X162989042Y-117464776D01*
X162892622Y-117573951D01*
X162888808Y-117582074D01*
X162888807Y-117582076D01*
X162875756Y-117609874D01*
X162830719Y-117705800D01*
X162829339Y-117714665D01*
X162829338Y-117714667D01*
X162811034Y-117832225D01*
X162808309Y-117849724D01*
X148410500Y-117849724D01*
X148410500Y-117009524D01*
X152793909Y-117009524D01*
X152795073Y-117018426D01*
X152795073Y-117018429D01*
X152806696Y-117107314D01*
X152812795Y-117153952D01*
X152816409Y-117162165D01*
X152816410Y-117162169D01*
X152820732Y-117171991D01*
X152871459Y-117287274D01*
X152877234Y-117294144D01*
X152877235Y-117294146D01*
X152957513Y-117389648D01*
X152965183Y-117398773D01*
X152972660Y-117403750D01*
X153078961Y-117474510D01*
X153078963Y-117474511D01*
X153086434Y-117479484D01*
X153095001Y-117482161D01*
X153095002Y-117482161D01*
X153110081Y-117486872D01*
X153225464Y-117522921D01*
X153371098Y-117525590D01*
X153441362Y-117506433D01*
X153502963Y-117489639D01*
X153502964Y-117489639D01*
X153511626Y-117487277D01*
X153597826Y-117434350D01*
X153666342Y-117415754D01*
X153733571Y-117436840D01*
X153790161Y-117474510D01*
X153790163Y-117474511D01*
X153797634Y-117479484D01*
X153806201Y-117482161D01*
X153806202Y-117482161D01*
X153821281Y-117486872D01*
X153936664Y-117522921D01*
X154082298Y-117525590D01*
X154152562Y-117506433D01*
X154214163Y-117489639D01*
X154214164Y-117489639D01*
X154222826Y-117487277D01*
X154231159Y-117482161D01*
X154335449Y-117418127D01*
X154403966Y-117399529D01*
X154471196Y-117420615D01*
X154552161Y-117474510D01*
X154552163Y-117474511D01*
X154559634Y-117479484D01*
X154568201Y-117482161D01*
X154568202Y-117482161D01*
X154583281Y-117486872D01*
X154698664Y-117522921D01*
X154844298Y-117525590D01*
X154914562Y-117506433D01*
X154976163Y-117489639D01*
X154976164Y-117489639D01*
X154984826Y-117487277D01*
X154993159Y-117482161D01*
X155046890Y-117449170D01*
X155108954Y-117411063D01*
X155115574Y-117403750D01*
X155194708Y-117316324D01*
X161030309Y-117316324D01*
X161031473Y-117325226D01*
X161031473Y-117325229D01*
X161039561Y-117387077D01*
X161049195Y-117460752D01*
X161052809Y-117468965D01*
X161052810Y-117468969D01*
X161077652Y-117525425D01*
X161107859Y-117594074D01*
X161113634Y-117600944D01*
X161113635Y-117600946D01*
X161121140Y-117609874D01*
X161201583Y-117705573D01*
X161209060Y-117710550D01*
X161315361Y-117781310D01*
X161315363Y-117781311D01*
X161322834Y-117786284D01*
X161461864Y-117829721D01*
X161607498Y-117832390D01*
X161677762Y-117813234D01*
X161739363Y-117796439D01*
X161739364Y-117796439D01*
X161748026Y-117794077D01*
X161756359Y-117788961D01*
X161864502Y-117722561D01*
X161872154Y-117717863D01*
X161878774Y-117710550D01*
X161963873Y-117616534D01*
X161963874Y-117616533D01*
X161969901Y-117609874D01*
X161980795Y-117587390D01*
X162029495Y-117486872D01*
X162029495Y-117486871D01*
X162033410Y-117478791D01*
X162049716Y-117381872D01*
X162056770Y-117339944D01*
X162056770Y-117339941D01*
X162057576Y-117335152D01*
X162057729Y-117322600D01*
X162037080Y-117178413D01*
X162033362Y-117170235D01*
X161980508Y-117053990D01*
X161980507Y-117053988D01*
X161976792Y-117045818D01*
X161881713Y-116935473D01*
X161759485Y-116856248D01*
X161619934Y-116814514D01*
X161610958Y-116814459D01*
X161610957Y-116814459D01*
X161549644Y-116814085D01*
X161474279Y-116813624D01*
X161334229Y-116853651D01*
X161326642Y-116858438D01*
X161326640Y-116858439D01*
X161291666Y-116880506D01*
X161211042Y-116931376D01*
X161114622Y-117040551D01*
X161052719Y-117172400D01*
X161051339Y-117181265D01*
X161051338Y-117181267D01*
X161033631Y-117294990D01*
X161030309Y-117316324D01*
X155194708Y-117316324D01*
X155200673Y-117309734D01*
X155200674Y-117309733D01*
X155206701Y-117303074D01*
X155270210Y-117171991D01*
X155290957Y-117048676D01*
X155293570Y-117033144D01*
X155293570Y-117033141D01*
X155294376Y-117028352D01*
X155294529Y-117015800D01*
X155288856Y-116976185D01*
X155275154Y-116880506D01*
X155275153Y-116880503D01*
X155273880Y-116871613D01*
X155270162Y-116863435D01*
X155217308Y-116747190D01*
X155217307Y-116747188D01*
X155213592Y-116739018D01*
X155118513Y-116628673D01*
X154996285Y-116549448D01*
X154856734Y-116507714D01*
X154847758Y-116507659D01*
X154847757Y-116507659D01*
X154786444Y-116507285D01*
X154711079Y-116506824D01*
X154571029Y-116546851D01*
X154563442Y-116551638D01*
X154563440Y-116551639D01*
X154466509Y-116612798D01*
X154398224Y-116632232D01*
X154330741Y-116611968D01*
X154241816Y-116554329D01*
X154241814Y-116554328D01*
X154234285Y-116549448D01*
X154094734Y-116507714D01*
X154085758Y-116507659D01*
X154085757Y-116507659D01*
X154024444Y-116507285D01*
X153949079Y-116506824D01*
X153809029Y-116546851D01*
X153801442Y-116551638D01*
X153801440Y-116551639D01*
X153730251Y-116596556D01*
X153661966Y-116615990D01*
X153594484Y-116595726D01*
X153530619Y-116554331D01*
X153530615Y-116554329D01*
X153523085Y-116549448D01*
X153383534Y-116507714D01*
X153374558Y-116507659D01*
X153374557Y-116507659D01*
X153313244Y-116507285D01*
X153237879Y-116506824D01*
X153097829Y-116546851D01*
X153090242Y-116551638D01*
X153090240Y-116551639D01*
X153023977Y-116593448D01*
X152974642Y-116624576D01*
X152878222Y-116733751D01*
X152874408Y-116741874D01*
X152874407Y-116741876D01*
X152840304Y-116814514D01*
X152816319Y-116865600D01*
X152814939Y-116874465D01*
X152814938Y-116874467D01*
X152805030Y-116938104D01*
X152793909Y-117009524D01*
X148410500Y-117009524D01*
X148410500Y-115614524D01*
X160496909Y-115614524D01*
X160498073Y-115623426D01*
X160498073Y-115623429D01*
X160509696Y-115712314D01*
X160515795Y-115758952D01*
X160519409Y-115767165D01*
X160519410Y-115767169D01*
X160519837Y-115768139D01*
X160574459Y-115892274D01*
X160580234Y-115899144D01*
X160580235Y-115899146D01*
X160587740Y-115908074D01*
X160668183Y-116003773D01*
X160675660Y-116008750D01*
X160781961Y-116079510D01*
X160781963Y-116079511D01*
X160789434Y-116084484D01*
X160928464Y-116127921D01*
X161074098Y-116130590D01*
X161144362Y-116111433D01*
X161205963Y-116094639D01*
X161205964Y-116094639D01*
X161214626Y-116092277D01*
X161222959Y-116087161D01*
X161331102Y-116020761D01*
X161338754Y-116016063D01*
X161345374Y-116008750D01*
X161430473Y-115914734D01*
X161430474Y-115914733D01*
X161436501Y-115908074D01*
X161500010Y-115776991D01*
X161524176Y-115633352D01*
X161524329Y-115620800D01*
X161512162Y-115535839D01*
X161504954Y-115485506D01*
X161504953Y-115485503D01*
X161503680Y-115476613D01*
X161499962Y-115468435D01*
X161447108Y-115352190D01*
X161447107Y-115352188D01*
X161443392Y-115344018D01*
X161348313Y-115233673D01*
X161226085Y-115154448D01*
X161086534Y-115112714D01*
X161077558Y-115112659D01*
X161077557Y-115112659D01*
X161016244Y-115112285D01*
X160940879Y-115111824D01*
X160800829Y-115151851D01*
X160677642Y-115229576D01*
X160581222Y-115338751D01*
X160577408Y-115346874D01*
X160577407Y-115346876D01*
X160523375Y-115461961D01*
X160519319Y-115470600D01*
X160517939Y-115479465D01*
X160517938Y-115479467D01*
X160503589Y-115571625D01*
X160496909Y-115614524D01*
X148410500Y-115614524D01*
X148410500Y-115055724D01*
X163951309Y-115055724D01*
X163952473Y-115064626D01*
X163952473Y-115064629D01*
X163958645Y-115111824D01*
X163970195Y-115200152D01*
X163973809Y-115208365D01*
X163973810Y-115208369D01*
X164013567Y-115298722D01*
X164028859Y-115333474D01*
X164034634Y-115340344D01*
X164034635Y-115340346D01*
X164037722Y-115344018D01*
X164122583Y-115444973D01*
X164130060Y-115449950D01*
X164236361Y-115520710D01*
X164236363Y-115520711D01*
X164243834Y-115525684D01*
X164382864Y-115569121D01*
X164528498Y-115571790D01*
X164598762Y-115552633D01*
X164660363Y-115535839D01*
X164660364Y-115535839D01*
X164669026Y-115533477D01*
X164677359Y-115528361D01*
X164774958Y-115468435D01*
X164793154Y-115457263D01*
X164799774Y-115449950D01*
X164884873Y-115355934D01*
X164884874Y-115355933D01*
X164890901Y-115349274D01*
X164896000Y-115338751D01*
X164950495Y-115226272D01*
X164950495Y-115226271D01*
X164954410Y-115218191D01*
X164978576Y-115074552D01*
X164978729Y-115062000D01*
X164958080Y-114917813D01*
X164954362Y-114909635D01*
X164901508Y-114793390D01*
X164901507Y-114793388D01*
X164897792Y-114785218D01*
X164808828Y-114681970D01*
X172499191Y-114681970D01*
X172509071Y-114694457D01*
X172548709Y-114720942D01*
X172558814Y-114726429D01*
X172741128Y-114804757D01*
X172752071Y-114808312D01*
X172945599Y-114852104D01*
X172957008Y-114853606D01*
X173155282Y-114861396D01*
X173166763Y-114860795D01*
X173363139Y-114832321D01*
X173374324Y-114829635D01*
X173562220Y-114765853D01*
X173572723Y-114761177D01*
X173694381Y-114693046D01*
X173704243Y-114682970D01*
X173701288Y-114675298D01*
X173113812Y-114087822D01*
X173099868Y-114080208D01*
X173098035Y-114080339D01*
X173091420Y-114084590D01*
X172505387Y-114670623D01*
X172499191Y-114681970D01*
X164808828Y-114681970D01*
X164802713Y-114674873D01*
X164680485Y-114595648D01*
X164540934Y-114553914D01*
X164531958Y-114553859D01*
X164531957Y-114553859D01*
X164470644Y-114553485D01*
X164395279Y-114553024D01*
X164255229Y-114593051D01*
X164132042Y-114670776D01*
X164035622Y-114779951D01*
X164031808Y-114788074D01*
X164031807Y-114788076D01*
X163977533Y-114903676D01*
X163973719Y-114911800D01*
X163951309Y-115055724D01*
X148410500Y-115055724D01*
X148410500Y-114098091D01*
X155874210Y-114098091D01*
X155875374Y-114106993D01*
X155875374Y-114106996D01*
X155882940Y-114164853D01*
X155893096Y-114242519D01*
X155896710Y-114250732D01*
X155896711Y-114250736D01*
X155923522Y-114311667D01*
X155951760Y-114375841D01*
X155957535Y-114382711D01*
X155957536Y-114382713D01*
X156013996Y-114449880D01*
X156045484Y-114487340D01*
X156052961Y-114492317D01*
X156159262Y-114563077D01*
X156159264Y-114563078D01*
X156166735Y-114568051D01*
X156305765Y-114611488D01*
X156451399Y-114614157D01*
X156537859Y-114590585D01*
X156583264Y-114578206D01*
X156583265Y-114578206D01*
X156591927Y-114575844D01*
X156600260Y-114570728D01*
X156708403Y-114504328D01*
X156716055Y-114499630D01*
X156722675Y-114492317D01*
X156807774Y-114398301D01*
X156807775Y-114398300D01*
X156813802Y-114391641D01*
X156834169Y-114349605D01*
X156873396Y-114268639D01*
X156873396Y-114268638D01*
X156877311Y-114260558D01*
X156901477Y-114116919D01*
X156901630Y-114104367D01*
X156895357Y-114060567D01*
X156888432Y-114012208D01*
X161716109Y-114012208D01*
X161717273Y-114021110D01*
X161717273Y-114021113D01*
X161727339Y-114098091D01*
X161734995Y-114156636D01*
X161738609Y-114164849D01*
X161738610Y-114164853D01*
X161772785Y-114242519D01*
X161793659Y-114289958D01*
X161799434Y-114296828D01*
X161799435Y-114296830D01*
X161879132Y-114391641D01*
X161887383Y-114401457D01*
X161894860Y-114406434D01*
X162001161Y-114477194D01*
X162001163Y-114477195D01*
X162008634Y-114482168D01*
X162147664Y-114525605D01*
X162293298Y-114528274D01*
X162363562Y-114509118D01*
X162425163Y-114492323D01*
X162425164Y-114492323D01*
X162433826Y-114489961D01*
X162442159Y-114484845D01*
X162550302Y-114418445D01*
X162557954Y-114413747D01*
X162564574Y-114406434D01*
X162649673Y-114312418D01*
X162649674Y-114312417D01*
X162655701Y-114305758D01*
X162690654Y-114233616D01*
X162715295Y-114182756D01*
X162715295Y-114182755D01*
X162719210Y-114174675D01*
X162743376Y-114031036D01*
X162743529Y-114018484D01*
X162726319Y-113898311D01*
X162724154Y-113883190D01*
X162724153Y-113883187D01*
X162722880Y-113874297D01*
X162719162Y-113866119D01*
X162666308Y-113749874D01*
X162666307Y-113749872D01*
X162662592Y-113741702D01*
X162640273Y-113715800D01*
X169713357Y-113715800D01*
X169714047Y-113722365D01*
X169730316Y-113877151D01*
X169731880Y-113892035D01*
X169733919Y-113898309D01*
X169733919Y-113898311D01*
X169778602Y-114035828D01*
X169786640Y-114060567D01*
X169789940Y-114066282D01*
X169789940Y-114066283D01*
X169816369Y-114112060D01*
X169875242Y-114214032D01*
X169993816Y-114345722D01*
X169999158Y-114349603D01*
X169999160Y-114349605D01*
X170057018Y-114391641D01*
X170137178Y-114449880D01*
X170143206Y-114452564D01*
X170143208Y-114452565D01*
X170293031Y-114519270D01*
X170299064Y-114521956D01*
X170305522Y-114523329D01*
X170305526Y-114523330D01*
X170392132Y-114541739D01*
X170472397Y-114558800D01*
X170649603Y-114558800D01*
X170729868Y-114541739D01*
X170816474Y-114523330D01*
X170816478Y-114523329D01*
X170822936Y-114521956D01*
X170828969Y-114519270D01*
X170978792Y-114452565D01*
X170978794Y-114452564D01*
X170984822Y-114449880D01*
X171064982Y-114391641D01*
X171122840Y-114349605D01*
X171122842Y-114349603D01*
X171128184Y-114345722D01*
X171246758Y-114214032D01*
X171305631Y-114112060D01*
X171332060Y-114066283D01*
X171332060Y-114066282D01*
X171335360Y-114060567D01*
X171343399Y-114035828D01*
X171388081Y-113898311D01*
X171388081Y-113898309D01*
X171390120Y-113892035D01*
X171391685Y-113877151D01*
X171407953Y-113722365D01*
X171408643Y-113715800D01*
X171406092Y-113691531D01*
X171954376Y-113691531D01*
X171967353Y-113889525D01*
X171969153Y-113900893D01*
X172017997Y-114093213D01*
X172021835Y-114104051D01*
X172104908Y-114284249D01*
X172110664Y-114294218D01*
X172122032Y-114310304D01*
X172132623Y-114318695D01*
X172145923Y-114311667D01*
X172728978Y-113728612D01*
X172735356Y-113716932D01*
X173465408Y-113716932D01*
X173465539Y-113718765D01*
X173469790Y-113725380D01*
X174056583Y-114312173D01*
X174068963Y-114318933D01*
X174075543Y-114314007D01*
X174146377Y-114187523D01*
X174151053Y-114177020D01*
X174214835Y-113989124D01*
X174217521Y-113977939D01*
X174246291Y-113779520D01*
X174246920Y-113772143D01*
X174248298Y-113719504D01*
X174248176Y-113715800D01*
X174793357Y-113715800D01*
X174794047Y-113722365D01*
X174810316Y-113877151D01*
X174811880Y-113892035D01*
X174813919Y-113898309D01*
X174813919Y-113898311D01*
X174858602Y-114035828D01*
X174866640Y-114060567D01*
X174869940Y-114066282D01*
X174869940Y-114066283D01*
X174896369Y-114112060D01*
X174955242Y-114214032D01*
X175073816Y-114345722D01*
X175079158Y-114349603D01*
X175079160Y-114349605D01*
X175137018Y-114391641D01*
X175217178Y-114449880D01*
X175223206Y-114452564D01*
X175223208Y-114452565D01*
X175373031Y-114519270D01*
X175379064Y-114521956D01*
X175385522Y-114523329D01*
X175385526Y-114523330D01*
X175472132Y-114541739D01*
X175552397Y-114558800D01*
X175729603Y-114558800D01*
X175809868Y-114541739D01*
X175896474Y-114523330D01*
X175896478Y-114523329D01*
X175902936Y-114521956D01*
X175908969Y-114519270D01*
X176058792Y-114452565D01*
X176058794Y-114452564D01*
X176064822Y-114449880D01*
X176144982Y-114391641D01*
X176202840Y-114349605D01*
X176202842Y-114349603D01*
X176208184Y-114345722D01*
X176326758Y-114214032D01*
X176385631Y-114112060D01*
X176412060Y-114066283D01*
X176412060Y-114066282D01*
X176415360Y-114060567D01*
X176423399Y-114035828D01*
X176468081Y-113898311D01*
X176468081Y-113898309D01*
X176470120Y-113892035D01*
X176471685Y-113877151D01*
X176487953Y-113722365D01*
X176488643Y-113715800D01*
X176484883Y-113680028D01*
X176470810Y-113546126D01*
X176470809Y-113546122D01*
X176470120Y-113539565D01*
X176461940Y-113514390D01*
X176417400Y-113377310D01*
X176417398Y-113377306D01*
X176415360Y-113371033D01*
X176401491Y-113347010D01*
X176330061Y-113223289D01*
X176326758Y-113217568D01*
X176230928Y-113111138D01*
X176212606Y-113090789D01*
X176212605Y-113090788D01*
X176208184Y-113085878D01*
X176202841Y-113081996D01*
X176202840Y-113081995D01*
X176070164Y-112985601D01*
X176070161Y-112985599D01*
X176064822Y-112981720D01*
X176058794Y-112979036D01*
X176058792Y-112979035D01*
X175908969Y-112912330D01*
X175902936Y-112909644D01*
X175896478Y-112908271D01*
X175896474Y-112908270D01*
X175809868Y-112889861D01*
X175729603Y-112872800D01*
X175552397Y-112872800D01*
X175472132Y-112889861D01*
X175385526Y-112908270D01*
X175385522Y-112908271D01*
X175379064Y-112909644D01*
X175269300Y-112958514D01*
X175223210Y-112979035D01*
X175217179Y-112981720D01*
X175073816Y-113085878D01*
X175069395Y-113090788D01*
X175069394Y-113090789D01*
X175051072Y-113111138D01*
X174955242Y-113217568D01*
X174951939Y-113223289D01*
X174880510Y-113347010D01*
X174866640Y-113371033D01*
X174864602Y-113377306D01*
X174864600Y-113377310D01*
X174820060Y-113514390D01*
X174811880Y-113539565D01*
X174811191Y-113546122D01*
X174811190Y-113546126D01*
X174797117Y-113680028D01*
X174793357Y-113715800D01*
X174248176Y-113715800D01*
X174248055Y-113712105D01*
X174229711Y-113512461D01*
X174227613Y-113501140D01*
X174173755Y-113310175D01*
X174169631Y-113299428D01*
X174081870Y-113121469D01*
X174079813Y-113118112D01*
X174070519Y-113111138D01*
X174058101Y-113117909D01*
X173473022Y-113702988D01*
X173465408Y-113716932D01*
X172735356Y-113716932D01*
X172736592Y-113714668D01*
X172736461Y-113712835D01*
X172732210Y-113706220D01*
X172143997Y-113118007D01*
X172131617Y-113111247D01*
X172125651Y-113115713D01*
X172043637Y-113271593D01*
X172039230Y-113282236D01*
X171980390Y-113471728D01*
X171978000Y-113482972D01*
X171954677Y-113680028D01*
X171954376Y-113691531D01*
X171406092Y-113691531D01*
X171404883Y-113680028D01*
X171390810Y-113546126D01*
X171390809Y-113546122D01*
X171390120Y-113539565D01*
X171381940Y-113514390D01*
X171337400Y-113377310D01*
X171337398Y-113377306D01*
X171335360Y-113371033D01*
X171321491Y-113347010D01*
X171250061Y-113223289D01*
X171246758Y-113217568D01*
X171150928Y-113111138D01*
X171132606Y-113090789D01*
X171132605Y-113090788D01*
X171128184Y-113085878D01*
X171122841Y-113081996D01*
X171122840Y-113081995D01*
X170990164Y-112985601D01*
X170990161Y-112985599D01*
X170984822Y-112981720D01*
X170978794Y-112979036D01*
X170978792Y-112979035D01*
X170828969Y-112912330D01*
X170822936Y-112909644D01*
X170816478Y-112908271D01*
X170816474Y-112908270D01*
X170729868Y-112889861D01*
X170649603Y-112872800D01*
X170472397Y-112872800D01*
X170392132Y-112889861D01*
X170305526Y-112908270D01*
X170305522Y-112908271D01*
X170299064Y-112909644D01*
X170189300Y-112958514D01*
X170143210Y-112979035D01*
X170137179Y-112981720D01*
X169993816Y-113085878D01*
X169989395Y-113090788D01*
X169989394Y-113090789D01*
X169971072Y-113111138D01*
X169875242Y-113217568D01*
X169871939Y-113223289D01*
X169800510Y-113347010D01*
X169786640Y-113371033D01*
X169784602Y-113377306D01*
X169784600Y-113377310D01*
X169740060Y-113514390D01*
X169731880Y-113539565D01*
X169731191Y-113546122D01*
X169731190Y-113546126D01*
X169717117Y-113680028D01*
X169713357Y-113715800D01*
X162640273Y-113715800D01*
X162567513Y-113631357D01*
X162445285Y-113552132D01*
X162305734Y-113510398D01*
X162296758Y-113510343D01*
X162296757Y-113510343D01*
X162235444Y-113509969D01*
X162160079Y-113509508D01*
X162020029Y-113549535D01*
X161896842Y-113627260D01*
X161890900Y-113633988D01*
X161887216Y-113638159D01*
X161800422Y-113736435D01*
X161796608Y-113744558D01*
X161796607Y-113744560D01*
X161760100Y-113822318D01*
X161738519Y-113868284D01*
X161737139Y-113877149D01*
X161737138Y-113877151D01*
X161723766Y-113963034D01*
X161716109Y-114012208D01*
X156888432Y-114012208D01*
X156882255Y-113969073D01*
X156882254Y-113969070D01*
X156880981Y-113960180D01*
X156877263Y-113952002D01*
X156824409Y-113835757D01*
X156824408Y-113835755D01*
X156820693Y-113827585D01*
X156725614Y-113717240D01*
X156603386Y-113638015D01*
X156463835Y-113596281D01*
X156454859Y-113596226D01*
X156454858Y-113596226D01*
X156393545Y-113595852D01*
X156318180Y-113595391D01*
X156178130Y-113635418D01*
X156054943Y-113713143D01*
X155958523Y-113822318D01*
X155954709Y-113830441D01*
X155954708Y-113830443D01*
X155928871Y-113885474D01*
X155896620Y-113954167D01*
X155895240Y-113963032D01*
X155895239Y-113963034D01*
X155876995Y-114080208D01*
X155874210Y-114098091D01*
X148410500Y-114098091D01*
X148410500Y-112998324D01*
X157753709Y-112998324D01*
X157754873Y-113007226D01*
X157754873Y-113007229D01*
X157763136Y-113070419D01*
X157772595Y-113142752D01*
X157776209Y-113150965D01*
X157776210Y-113150969D01*
X157803354Y-113212656D01*
X157831259Y-113276074D01*
X157837034Y-113282944D01*
X157837035Y-113282946D01*
X157890886Y-113347010D01*
X157924983Y-113387573D01*
X157932460Y-113392550D01*
X158038761Y-113463310D01*
X158038763Y-113463311D01*
X158046234Y-113468284D01*
X158185264Y-113511721D01*
X158330898Y-113514390D01*
X158446136Y-113482972D01*
X158462763Y-113478439D01*
X158462764Y-113478439D01*
X158471426Y-113476077D01*
X158479759Y-113470961D01*
X158574733Y-113412647D01*
X158595554Y-113399863D01*
X158602174Y-113392550D01*
X158687273Y-113298534D01*
X158687274Y-113298533D01*
X158693301Y-113291874D01*
X158724033Y-113228444D01*
X158752895Y-113168872D01*
X158752895Y-113168871D01*
X158756810Y-113160791D01*
X158780976Y-113017152D01*
X158781129Y-113004600D01*
X158771355Y-112936353D01*
X158771146Y-112934894D01*
X160541572Y-112934894D01*
X160542736Y-112943796D01*
X160542736Y-112943799D01*
X160551693Y-113012293D01*
X160560458Y-113079322D01*
X160564072Y-113087535D01*
X160564073Y-113087539D01*
X160603830Y-113177892D01*
X160619122Y-113212644D01*
X160624897Y-113219514D01*
X160624898Y-113219516D01*
X160692071Y-113299428D01*
X160712846Y-113324143D01*
X160720323Y-113329120D01*
X160826624Y-113399880D01*
X160826626Y-113399881D01*
X160834097Y-113404854D01*
X160973127Y-113448291D01*
X161118761Y-113450960D01*
X161189025Y-113431804D01*
X161250626Y-113415009D01*
X161250627Y-113415009D01*
X161259289Y-113412647D01*
X161267622Y-113407531D01*
X161336374Y-113365317D01*
X161383417Y-113336433D01*
X161390037Y-113329120D01*
X161475136Y-113235104D01*
X161475137Y-113235103D01*
X161481164Y-113228444D01*
X161486434Y-113217568D01*
X161540758Y-113105442D01*
X161540758Y-113105441D01*
X161544673Y-113097361D01*
X161564129Y-112981720D01*
X161568033Y-112958514D01*
X161568033Y-112958511D01*
X161568839Y-112953722D01*
X161568992Y-112941170D01*
X161558966Y-112871161D01*
X161549617Y-112805876D01*
X161549616Y-112805873D01*
X161548343Y-112796983D01*
X161544625Y-112788805D01*
X161491771Y-112672560D01*
X161491770Y-112672558D01*
X161488055Y-112664388D01*
X161392976Y-112554043D01*
X161270748Y-112474818D01*
X161237664Y-112464924D01*
X168599509Y-112464924D01*
X168600673Y-112473826D01*
X168600673Y-112473829D01*
X168608761Y-112535677D01*
X168618395Y-112609352D01*
X168622009Y-112617565D01*
X168622010Y-112617569D01*
X168656761Y-112696545D01*
X168677059Y-112742674D01*
X168682834Y-112749544D01*
X168682835Y-112749546D01*
X168722710Y-112796983D01*
X168770783Y-112854173D01*
X168778260Y-112859150D01*
X168884561Y-112929910D01*
X168884563Y-112929911D01*
X168892034Y-112934884D01*
X169031064Y-112978321D01*
X169176698Y-112980990D01*
X169276714Y-112953722D01*
X169308563Y-112945039D01*
X169308564Y-112945039D01*
X169317226Y-112942677D01*
X169325559Y-112937561D01*
X169379290Y-112904570D01*
X169441354Y-112866463D01*
X169447974Y-112859150D01*
X169533073Y-112765134D01*
X169533074Y-112765133D01*
X169539101Y-112758474D01*
X169543545Y-112749303D01*
X172498615Y-112749303D01*
X172502102Y-112757692D01*
X173088188Y-113343778D01*
X173102132Y-113351392D01*
X173103965Y-113351261D01*
X173110580Y-113347010D01*
X173696295Y-112761295D01*
X173703055Y-112748915D01*
X173697025Y-112740860D01*
X173626789Y-112696545D01*
X173616545Y-112691325D01*
X173432246Y-112617797D01*
X173421208Y-112614527D01*
X173226603Y-112575818D01*
X173215156Y-112574615D01*
X173016758Y-112572018D01*
X173005278Y-112572921D01*
X172809729Y-112606523D01*
X172798609Y-112609503D01*
X172612450Y-112678180D01*
X172602072Y-112683130D01*
X172508213Y-112738970D01*
X172498615Y-112749303D01*
X169543545Y-112749303D01*
X169598695Y-112635472D01*
X169598695Y-112635471D01*
X169602610Y-112627391D01*
X169624638Y-112496459D01*
X169625970Y-112488544D01*
X169625970Y-112488541D01*
X169626776Y-112483752D01*
X169626929Y-112471200D01*
X169606280Y-112327013D01*
X169602562Y-112318835D01*
X169549708Y-112202590D01*
X169549707Y-112202588D01*
X169545992Y-112194418D01*
X169450913Y-112084073D01*
X169328685Y-112004848D01*
X169189134Y-111963114D01*
X169180158Y-111963059D01*
X169180157Y-111963059D01*
X169118844Y-111962685D01*
X169043479Y-111962224D01*
X168903429Y-112002251D01*
X168780242Y-112079976D01*
X168683822Y-112189151D01*
X168621919Y-112321000D01*
X168620539Y-112329865D01*
X168620538Y-112329867D01*
X168604467Y-112433084D01*
X168599509Y-112464924D01*
X161237664Y-112464924D01*
X161131197Y-112433084D01*
X161122221Y-112433029D01*
X161122220Y-112433029D01*
X161060907Y-112432655D01*
X160985542Y-112432194D01*
X160845492Y-112472221D01*
X160837905Y-112477008D01*
X160837903Y-112477009D01*
X160808400Y-112495624D01*
X160722305Y-112549946D01*
X160625885Y-112659121D01*
X160622071Y-112667244D01*
X160622070Y-112667246D01*
X160583034Y-112750390D01*
X160563982Y-112790970D01*
X160562602Y-112799835D01*
X160562601Y-112799837D01*
X160545504Y-112909644D01*
X160541572Y-112934894D01*
X158771146Y-112934894D01*
X158761754Y-112869306D01*
X158761753Y-112869303D01*
X158760480Y-112860413D01*
X158756762Y-112852235D01*
X158703908Y-112735990D01*
X158703907Y-112735988D01*
X158700192Y-112727818D01*
X158605113Y-112617473D01*
X158482885Y-112538248D01*
X158343334Y-112496514D01*
X158334358Y-112496459D01*
X158334357Y-112496459D01*
X158273044Y-112496085D01*
X158197679Y-112495624D01*
X158057629Y-112535651D01*
X158050042Y-112540438D01*
X158050040Y-112540439D01*
X158028479Y-112554043D01*
X157934442Y-112613376D01*
X157838022Y-112722551D01*
X157834208Y-112730674D01*
X157834207Y-112730676D01*
X157806916Y-112788805D01*
X157776119Y-112854400D01*
X157774739Y-112863265D01*
X157774738Y-112863267D01*
X157756434Y-112980825D01*
X157753709Y-112998324D01*
X148410500Y-112998324D01*
X148410500Y-111448924D01*
X150463909Y-111448924D01*
X150465073Y-111457826D01*
X150465073Y-111457829D01*
X150466371Y-111467752D01*
X150482795Y-111593352D01*
X150486409Y-111601565D01*
X150486410Y-111601569D01*
X150490732Y-111611391D01*
X150541459Y-111726674D01*
X150547234Y-111733544D01*
X150547235Y-111733546D01*
X150629403Y-111831297D01*
X150635183Y-111838173D01*
X150642660Y-111843150D01*
X150748961Y-111913910D01*
X150748963Y-111913911D01*
X150756434Y-111918884D01*
X150895464Y-111962321D01*
X151041098Y-111964990D01*
X151111362Y-111945834D01*
X151172963Y-111929039D01*
X151172964Y-111929039D01*
X151181626Y-111926677D01*
X151189959Y-111921561D01*
X151298102Y-111855161D01*
X151305754Y-111850463D01*
X151312374Y-111843150D01*
X151397473Y-111749134D01*
X151397474Y-111749133D01*
X151403501Y-111742474D01*
X151429911Y-111687965D01*
X151463095Y-111619472D01*
X151463095Y-111619471D01*
X151467010Y-111611391D01*
X151468499Y-111602542D01*
X151468500Y-111602538D01*
X151489264Y-111479116D01*
X151500103Y-111456808D01*
X151498910Y-111454153D01*
X151725617Y-111454153D01*
X151738454Y-111483683D01*
X151752795Y-111593352D01*
X151756409Y-111601565D01*
X151756410Y-111601569D01*
X151760732Y-111611391D01*
X151811459Y-111726674D01*
X151817234Y-111733544D01*
X151817235Y-111733546D01*
X151899403Y-111831297D01*
X151905183Y-111838173D01*
X151912660Y-111843150D01*
X152018961Y-111913910D01*
X152018963Y-111913911D01*
X152026434Y-111918884D01*
X152165464Y-111962321D01*
X152311098Y-111964990D01*
X152381362Y-111945834D01*
X152442963Y-111929039D01*
X152442964Y-111929039D01*
X152451626Y-111926677D01*
X152459959Y-111921561D01*
X152568102Y-111855161D01*
X152575754Y-111850463D01*
X152641364Y-111777979D01*
X152701904Y-111740900D01*
X152772884Y-111742437D01*
X152794587Y-111752847D01*
X152794707Y-111752595D01*
X152802807Y-111756459D01*
X152810280Y-111761433D01*
X152949310Y-111804870D01*
X153094944Y-111807539D01*
X153203360Y-111777981D01*
X153226809Y-111771588D01*
X153226810Y-111771588D01*
X153235472Y-111769226D01*
X153243805Y-111764110D01*
X153351948Y-111697710D01*
X153359600Y-111693012D01*
X153426166Y-111619472D01*
X153451319Y-111591683D01*
X153451320Y-111591682D01*
X153457347Y-111585023D01*
X153508659Y-111479116D01*
X153516941Y-111462021D01*
X153516941Y-111462020D01*
X153520856Y-111453940D01*
X153545022Y-111310301D01*
X153545175Y-111297749D01*
X153528086Y-111178418D01*
X153525800Y-111162455D01*
X153525799Y-111162452D01*
X153524526Y-111153562D01*
X153464238Y-111020967D01*
X153464309Y-111020935D01*
X153445796Y-110957371D01*
X153465948Y-110889295D01*
X153505866Y-110850274D01*
X153589638Y-110798838D01*
X153658154Y-110780242D01*
X153725382Y-110801327D01*
X153738823Y-110810274D01*
X153801634Y-110852084D01*
X153940664Y-110895521D01*
X154086298Y-110898190D01*
X154209646Y-110864561D01*
X154218163Y-110862239D01*
X154218164Y-110862239D01*
X154226826Y-110859877D01*
X154235159Y-110854761D01*
X154339449Y-110790727D01*
X154407966Y-110772129D01*
X154475196Y-110793215D01*
X154556161Y-110847110D01*
X154556163Y-110847111D01*
X154563634Y-110852084D01*
X154702664Y-110895521D01*
X154848298Y-110898190D01*
X154971646Y-110864561D01*
X154980163Y-110862239D01*
X154980164Y-110862239D01*
X154988826Y-110859877D01*
X154997159Y-110854761D01*
X155090364Y-110797533D01*
X155112954Y-110783663D01*
X155124079Y-110771373D01*
X155204673Y-110682334D01*
X155204674Y-110682333D01*
X155210701Y-110675674D01*
X155217663Y-110661306D01*
X155270295Y-110552672D01*
X155270295Y-110552671D01*
X155274210Y-110544591D01*
X155276240Y-110532524D01*
X160998109Y-110532524D01*
X160999273Y-110541426D01*
X160999273Y-110541429D01*
X161004688Y-110582839D01*
X161016995Y-110676952D01*
X161020609Y-110685165D01*
X161020610Y-110685169D01*
X161056459Y-110766640D01*
X161075659Y-110810274D01*
X161081434Y-110817144D01*
X161081435Y-110817146D01*
X161152541Y-110901737D01*
X161169383Y-110921773D01*
X161176860Y-110926750D01*
X161283161Y-110997510D01*
X161283163Y-110997511D01*
X161290634Y-111002484D01*
X161429664Y-111045921D01*
X161575298Y-111048590D01*
X161659858Y-111025536D01*
X161707163Y-111012639D01*
X161707164Y-111012639D01*
X161715826Y-111010277D01*
X161724159Y-111005161D01*
X161801993Y-110957371D01*
X161839954Y-110934063D01*
X161846574Y-110926750D01*
X161931673Y-110832734D01*
X161931674Y-110832733D01*
X161937701Y-110826074D01*
X161950158Y-110800364D01*
X161997295Y-110703072D01*
X161997295Y-110703071D01*
X162001210Y-110694991D01*
X162020476Y-110580477D01*
X162024570Y-110556144D01*
X162024570Y-110556141D01*
X162025376Y-110551352D01*
X162025529Y-110538800D01*
X162014004Y-110458324D01*
X162006154Y-110403506D01*
X162006153Y-110403503D01*
X162004880Y-110394613D01*
X161999202Y-110382124D01*
X161948308Y-110270190D01*
X161948307Y-110270188D01*
X161944592Y-110262018D01*
X161849513Y-110151673D01*
X161773995Y-110102724D01*
X163189309Y-110102724D01*
X163190473Y-110111626D01*
X163190473Y-110111629D01*
X163200436Y-110187818D01*
X163208195Y-110247152D01*
X163211809Y-110255365D01*
X163211810Y-110255369D01*
X163237785Y-110314400D01*
X163266859Y-110380474D01*
X163272634Y-110387344D01*
X163272635Y-110387346D01*
X163341659Y-110469460D01*
X163360583Y-110491973D01*
X163368060Y-110496950D01*
X163474361Y-110567710D01*
X163474363Y-110567711D01*
X163481834Y-110572684D01*
X163620864Y-110616121D01*
X163766498Y-110618790D01*
X163857979Y-110593849D01*
X163898363Y-110582839D01*
X163898364Y-110582839D01*
X163907026Y-110580477D01*
X163915359Y-110575361D01*
X163979890Y-110535739D01*
X164031154Y-110504263D01*
X164037774Y-110496950D01*
X164072736Y-110458324D01*
X170936309Y-110458324D01*
X170937473Y-110467226D01*
X170937473Y-110467229D01*
X170945231Y-110526552D01*
X170955195Y-110602752D01*
X170958809Y-110610965D01*
X170958810Y-110610969D01*
X170980960Y-110661306D01*
X171013859Y-110736074D01*
X171019634Y-110742944D01*
X171019635Y-110742946D01*
X171099892Y-110838423D01*
X171107583Y-110847573D01*
X171119009Y-110855179D01*
X171221361Y-110923310D01*
X171221363Y-110923311D01*
X171228834Y-110928284D01*
X171367864Y-110971721D01*
X171513498Y-110974390D01*
X171607759Y-110948691D01*
X171645363Y-110938439D01*
X171645364Y-110938439D01*
X171654026Y-110936077D01*
X171662359Y-110930961D01*
X171719579Y-110895828D01*
X171778154Y-110859863D01*
X171784774Y-110852550D01*
X171799837Y-110835908D01*
X171860380Y-110798826D01*
X171931360Y-110800364D01*
X171983594Y-110835302D01*
X171984116Y-110834718D01*
X171988260Y-110838423D01*
X171989703Y-110839389D01*
X171996583Y-110847573D01*
X172008009Y-110855179D01*
X172110361Y-110923310D01*
X172110363Y-110923311D01*
X172117834Y-110928284D01*
X172256864Y-110971721D01*
X172402498Y-110974390D01*
X172496759Y-110948691D01*
X172534363Y-110938439D01*
X172534364Y-110938439D01*
X172543026Y-110936077D01*
X172551359Y-110930961D01*
X172608579Y-110895828D01*
X172667154Y-110859863D01*
X172754687Y-110763159D01*
X172815230Y-110726078D01*
X172886210Y-110727616D01*
X172944552Y-110766640D01*
X173004892Y-110838423D01*
X173012583Y-110847573D01*
X173024009Y-110855179D01*
X173126361Y-110923310D01*
X173126363Y-110923311D01*
X173133834Y-110928284D01*
X173272864Y-110971721D01*
X173418498Y-110974390D01*
X173512759Y-110948691D01*
X173550363Y-110938439D01*
X173550364Y-110938439D01*
X173559026Y-110936077D01*
X173567359Y-110930961D01*
X173624579Y-110895828D01*
X173683154Y-110859863D01*
X173770687Y-110763159D01*
X173831230Y-110726078D01*
X173902210Y-110727616D01*
X173960552Y-110766640D01*
X174020892Y-110838423D01*
X174028583Y-110847573D01*
X174040009Y-110855179D01*
X174142361Y-110923310D01*
X174142363Y-110923311D01*
X174149834Y-110928284D01*
X174288864Y-110971721D01*
X174434498Y-110974390D01*
X174528759Y-110948691D01*
X174566363Y-110938439D01*
X174566364Y-110938439D01*
X174575026Y-110936077D01*
X174583359Y-110930961D01*
X174640579Y-110895828D01*
X174699154Y-110859863D01*
X174786687Y-110763159D01*
X174847230Y-110726078D01*
X174918210Y-110727616D01*
X174976552Y-110766640D01*
X175036892Y-110838423D01*
X175044583Y-110847573D01*
X175056009Y-110855179D01*
X175158361Y-110923310D01*
X175158363Y-110923311D01*
X175165834Y-110928284D01*
X175304864Y-110971721D01*
X175450498Y-110974390D01*
X175544759Y-110948691D01*
X175582363Y-110938439D01*
X175582364Y-110938439D01*
X175591026Y-110936077D01*
X175599359Y-110930961D01*
X175656579Y-110895828D01*
X175715154Y-110859863D01*
X175721774Y-110852550D01*
X175806873Y-110758534D01*
X175806874Y-110758533D01*
X175812901Y-110751874D01*
X175823641Y-110729708D01*
X175872495Y-110628872D01*
X175872495Y-110628871D01*
X175876410Y-110620791D01*
X175893763Y-110517649D01*
X175899770Y-110481944D01*
X175899770Y-110481941D01*
X175900576Y-110477152D01*
X175900729Y-110464600D01*
X175890706Y-110394613D01*
X175881354Y-110329306D01*
X175881353Y-110329303D01*
X175880080Y-110320413D01*
X175876362Y-110312235D01*
X175823508Y-110195990D01*
X175823507Y-110195988D01*
X175819792Y-110187818D01*
X175813932Y-110181017D01*
X175813930Y-110181014D01*
X175745629Y-110101746D01*
X175716315Y-110037084D01*
X175726614Y-109966838D01*
X175747666Y-109934944D01*
X175761666Y-109919477D01*
X175812901Y-109862874D01*
X175823795Y-109840390D01*
X175872495Y-109739872D01*
X175872495Y-109739871D01*
X175876410Y-109731791D01*
X175892259Y-109637585D01*
X175899770Y-109592944D01*
X175899770Y-109592941D01*
X175900576Y-109588152D01*
X175900729Y-109575600D01*
X175890944Y-109507274D01*
X175881354Y-109440306D01*
X175881353Y-109440303D01*
X175880080Y-109431413D01*
X175876362Y-109423235D01*
X175823508Y-109306990D01*
X175823507Y-109306988D01*
X175819792Y-109298818D01*
X175724713Y-109188473D01*
X175602485Y-109109248D01*
X175462934Y-109067514D01*
X175453958Y-109067459D01*
X175453957Y-109067459D01*
X175392644Y-109067085D01*
X175317279Y-109066624D01*
X175177229Y-109106651D01*
X175169642Y-109111438D01*
X175169640Y-109111439D01*
X175140559Y-109129788D01*
X175054042Y-109184376D01*
X175048100Y-109191104D01*
X174973073Y-109276056D01*
X174912987Y-109313874D01*
X174841994Y-109313204D01*
X174783180Y-109274896D01*
X174708713Y-109188473D01*
X174586485Y-109109248D01*
X174446934Y-109067514D01*
X174437958Y-109067459D01*
X174437957Y-109067459D01*
X174376644Y-109067085D01*
X174301279Y-109066624D01*
X174161229Y-109106651D01*
X174153642Y-109111438D01*
X174153640Y-109111439D01*
X174124559Y-109129788D01*
X174038042Y-109184376D01*
X174032100Y-109191104D01*
X173957073Y-109276056D01*
X173896987Y-109313874D01*
X173825994Y-109313204D01*
X173767180Y-109274896D01*
X173692713Y-109188473D01*
X173679002Y-109179586D01*
X173578016Y-109114129D01*
X173578014Y-109114128D01*
X173570485Y-109109248D01*
X173563753Y-109107235D01*
X173511042Y-109061150D01*
X173491342Y-108992941D01*
X173511646Y-108924910D01*
X173523926Y-108908945D01*
X173597073Y-108828134D01*
X173597074Y-108828133D01*
X173603101Y-108821474D01*
X173607263Y-108812885D01*
X173662695Y-108698472D01*
X173662695Y-108698471D01*
X173666610Y-108690391D01*
X173684444Y-108584390D01*
X173689970Y-108551544D01*
X173689970Y-108551541D01*
X173690776Y-108546752D01*
X173690929Y-108534200D01*
X173681905Y-108471187D01*
X173671554Y-108398906D01*
X173671553Y-108398903D01*
X173670280Y-108390013D01*
X173666562Y-108381835D01*
X173613708Y-108265590D01*
X173613707Y-108265588D01*
X173609992Y-108257418D01*
X173599657Y-108245423D01*
X173576208Y-108218210D01*
X173563787Y-108203795D01*
X173534474Y-108139134D01*
X173544773Y-108068888D01*
X173565827Y-108036992D01*
X173571673Y-108030534D01*
X173571674Y-108030533D01*
X173577701Y-108023874D01*
X173598315Y-107981328D01*
X173637295Y-107900872D01*
X173637295Y-107900871D01*
X173641210Y-107892791D01*
X173662341Y-107767193D01*
X173664570Y-107753944D01*
X173664570Y-107753941D01*
X173665376Y-107749152D01*
X173665529Y-107736600D01*
X173649433Y-107624206D01*
X173646154Y-107601306D01*
X173646153Y-107601303D01*
X173644880Y-107592413D01*
X173641162Y-107584235D01*
X173588308Y-107467990D01*
X173588307Y-107467988D01*
X173584592Y-107459818D01*
X173578733Y-107453018D01*
X173573896Y-107445455D01*
X173577283Y-107443289D01*
X173555442Y-107396481D01*
X173564969Y-107326126D01*
X173586590Y-107292976D01*
X173628501Y-107246674D01*
X173635008Y-107233245D01*
X173688095Y-107123672D01*
X173688095Y-107123671D01*
X173692010Y-107115591D01*
X173710624Y-107004951D01*
X173715370Y-106976744D01*
X173715370Y-106976741D01*
X173716176Y-106971952D01*
X173716329Y-106959400D01*
X173712691Y-106934000D01*
X175916249Y-106934000D01*
X175917327Y-106942188D01*
X175933823Y-107067484D01*
X175937162Y-107092850D01*
X175998476Y-107240875D01*
X176022000Y-107271532D01*
X176090984Y-107361434D01*
X176090987Y-107361437D01*
X176096013Y-107367987D01*
X176102563Y-107373013D01*
X176102564Y-107373014D01*
X176139432Y-107401304D01*
X176223124Y-107465524D01*
X176230750Y-107468683D01*
X176230752Y-107468684D01*
X176363520Y-107523678D01*
X176363523Y-107523679D01*
X176371150Y-107526838D01*
X176530000Y-107547751D01*
X176538188Y-107546673D01*
X176680662Y-107527916D01*
X176688850Y-107526838D01*
X176696477Y-107523679D01*
X176696480Y-107523678D01*
X176829248Y-107468684D01*
X176829250Y-107468683D01*
X176836876Y-107465524D01*
X176843424Y-107460499D01*
X176843430Y-107460496D01*
X176961296Y-107370053D01*
X177027516Y-107344452D01*
X177097065Y-107358716D01*
X177114704Y-107370053D01*
X177232570Y-107460496D01*
X177232576Y-107460499D01*
X177239124Y-107465524D01*
X177246750Y-107468683D01*
X177246752Y-107468684D01*
X177379520Y-107523678D01*
X177379523Y-107523679D01*
X177387150Y-107526838D01*
X177546000Y-107547751D01*
X177554188Y-107546673D01*
X177696662Y-107527916D01*
X177704850Y-107526838D01*
X177712477Y-107523679D01*
X177712480Y-107523678D01*
X177845248Y-107468684D01*
X177845250Y-107468683D01*
X177852876Y-107465524D01*
X177936568Y-107401304D01*
X177973436Y-107373014D01*
X177973437Y-107373013D01*
X177979987Y-107367987D01*
X177985013Y-107361437D01*
X177985016Y-107361434D01*
X178054000Y-107271532D01*
X178077524Y-107240875D01*
X178138838Y-107092850D01*
X178142178Y-107067484D01*
X178158673Y-106942188D01*
X178159751Y-106934000D01*
X178138838Y-106775150D01*
X178077524Y-106627125D01*
X177998047Y-106523549D01*
X177985016Y-106506566D01*
X177985013Y-106506563D01*
X177979987Y-106500013D01*
X177927338Y-106459613D01*
X177859426Y-106407502D01*
X177852876Y-106402476D01*
X177845250Y-106399317D01*
X177845248Y-106399316D01*
X177712480Y-106344322D01*
X177712477Y-106344321D01*
X177704850Y-106341162D01*
X177546000Y-106320249D01*
X177387150Y-106341162D01*
X177239125Y-106402476D01*
X177114702Y-106497949D01*
X177048485Y-106523549D01*
X176978937Y-106509285D01*
X176961296Y-106497948D01*
X176843426Y-106407502D01*
X176836876Y-106402476D01*
X176829250Y-106399317D01*
X176829248Y-106399316D01*
X176696480Y-106344322D01*
X176696477Y-106344321D01*
X176688850Y-106341162D01*
X176530000Y-106320249D01*
X176371150Y-106341162D01*
X176223125Y-106402476D01*
X176096013Y-106500013D01*
X175998476Y-106627125D01*
X175937162Y-106775150D01*
X175916249Y-106934000D01*
X173712691Y-106934000D01*
X173706544Y-106891074D01*
X173696954Y-106824106D01*
X173696953Y-106824103D01*
X173695680Y-106815213D01*
X173689645Y-106801939D01*
X173639108Y-106690790D01*
X173639107Y-106690788D01*
X173635392Y-106682618D01*
X173540313Y-106572273D01*
X173418085Y-106493048D01*
X173278534Y-106451314D01*
X173269558Y-106451259D01*
X173269557Y-106451259D01*
X173208244Y-106450885D01*
X173132879Y-106450424D01*
X172992829Y-106490451D01*
X172985242Y-106495238D01*
X172985240Y-106495239D01*
X172947096Y-106519306D01*
X172869642Y-106568176D01*
X172773222Y-106677351D01*
X172769408Y-106685474D01*
X172769407Y-106685476D01*
X172727305Y-106775150D01*
X172711319Y-106809200D01*
X172709939Y-106818065D01*
X172709938Y-106818067D01*
X172690612Y-106942188D01*
X172688909Y-106953124D01*
X172690073Y-106962026D01*
X172690073Y-106962029D01*
X172695686Y-107004951D01*
X172707795Y-107097552D01*
X172711409Y-107105765D01*
X172711410Y-107105769D01*
X172728677Y-107145009D01*
X172766459Y-107230874D01*
X172772236Y-107237746D01*
X172776978Y-107245365D01*
X172775586Y-107246231D01*
X172799979Y-107301836D01*
X172788823Y-107371951D01*
X172769448Y-107401304D01*
X172722422Y-107454551D01*
X172718608Y-107462674D01*
X172718607Y-107462676D01*
X172664333Y-107578276D01*
X172660519Y-107586400D01*
X172659139Y-107595265D01*
X172659138Y-107595267D01*
X172640164Y-107717129D01*
X172638109Y-107730324D01*
X172639273Y-107739226D01*
X172639273Y-107739229D01*
X172646786Y-107796679D01*
X172656995Y-107874752D01*
X172660609Y-107882965D01*
X172660610Y-107882969D01*
X172694202Y-107959310D01*
X172715659Y-108008074D01*
X172766604Y-108068680D01*
X172795123Y-108133695D01*
X172783967Y-108203810D01*
X172764594Y-108233160D01*
X172747822Y-108252151D01*
X172744008Y-108260274D01*
X172744007Y-108260276D01*
X172700567Y-108352801D01*
X172685919Y-108384000D01*
X172684539Y-108392865D01*
X172684538Y-108392867D01*
X172671934Y-108473818D01*
X172663509Y-108527924D01*
X172664673Y-108536826D01*
X172664673Y-108536829D01*
X172676296Y-108625714D01*
X172682395Y-108672352D01*
X172686009Y-108680565D01*
X172686010Y-108680569D01*
X172715939Y-108748585D01*
X172741059Y-108805674D01*
X172746834Y-108812544D01*
X172746835Y-108812546D01*
X172789392Y-108863174D01*
X172834783Y-108917173D01*
X172956034Y-108997884D01*
X172964600Y-109000560D01*
X172968459Y-109002401D01*
X173021332Y-109049781D01*
X173040197Y-109118226D01*
X173019062Y-109186004D01*
X173008655Y-109199534D01*
X172941073Y-109276056D01*
X172880987Y-109313874D01*
X172809994Y-109313204D01*
X172751180Y-109274896D01*
X172676713Y-109188473D01*
X172554485Y-109109248D01*
X172414934Y-109067514D01*
X172405958Y-109067459D01*
X172405957Y-109067459D01*
X172344644Y-109067085D01*
X172269279Y-109066624D01*
X172129229Y-109106651D01*
X172121642Y-109111438D01*
X172121640Y-109111439D01*
X172092559Y-109129788D01*
X172006042Y-109184376D01*
X172000100Y-109191104D01*
X172000099Y-109191105D01*
X171989356Y-109203269D01*
X171929269Y-109241087D01*
X171858276Y-109240416D01*
X171799462Y-109202108D01*
X171787713Y-109188473D01*
X171665485Y-109109248D01*
X171525934Y-109067514D01*
X171516958Y-109067459D01*
X171516957Y-109067459D01*
X171455644Y-109067085D01*
X171380279Y-109066624D01*
X171240229Y-109106651D01*
X171232642Y-109111438D01*
X171232640Y-109111439D01*
X171203559Y-109129788D01*
X171117042Y-109184376D01*
X171111100Y-109191104D01*
X171100356Y-109203269D01*
X171020622Y-109293551D01*
X171016808Y-109301674D01*
X171016807Y-109301676D01*
X170962533Y-109417276D01*
X170958719Y-109425400D01*
X170957339Y-109434265D01*
X170957338Y-109434267D01*
X170941790Y-109534126D01*
X170936309Y-109569324D01*
X170937473Y-109578226D01*
X170937473Y-109578229D01*
X170945561Y-109640077D01*
X170955195Y-109713752D01*
X170958809Y-109721965D01*
X170958810Y-109721969D01*
X170963132Y-109731791D01*
X171013859Y-109847074D01*
X171019634Y-109853944D01*
X171019635Y-109853946D01*
X171091780Y-109939773D01*
X171120301Y-110004789D01*
X171109145Y-110074903D01*
X171089771Y-110104255D01*
X171020622Y-110182551D01*
X171016808Y-110190674D01*
X171016807Y-110190676D01*
X170962533Y-110306276D01*
X170958719Y-110314400D01*
X170957339Y-110323265D01*
X170957338Y-110323267D01*
X170941790Y-110423126D01*
X170936309Y-110458324D01*
X164072736Y-110458324D01*
X164122873Y-110402934D01*
X164122874Y-110402933D01*
X164128901Y-110396274D01*
X164164273Y-110323267D01*
X164188495Y-110273272D01*
X164188495Y-110273271D01*
X164192410Y-110265191D01*
X164211066Y-110154304D01*
X164215770Y-110126344D01*
X164215770Y-110126341D01*
X164216576Y-110121552D01*
X164216729Y-110109000D01*
X164210769Y-110067385D01*
X164197354Y-109973706D01*
X164197353Y-109973703D01*
X164196080Y-109964813D01*
X164192362Y-109956635D01*
X164139508Y-109840390D01*
X164139507Y-109840388D01*
X164135792Y-109832218D01*
X164040713Y-109721873D01*
X163918485Y-109642648D01*
X163778934Y-109600914D01*
X163769958Y-109600859D01*
X163769957Y-109600859D01*
X163708644Y-109600485D01*
X163633279Y-109600024D01*
X163493229Y-109640051D01*
X163370042Y-109717776D01*
X163273622Y-109826951D01*
X163269808Y-109835074D01*
X163269807Y-109835076D01*
X163247360Y-109882887D01*
X163211719Y-109958800D01*
X163210339Y-109967665D01*
X163210338Y-109967667D01*
X163193241Y-110077473D01*
X163189309Y-110102724D01*
X161773995Y-110102724D01*
X161727285Y-110072448D01*
X161587734Y-110030714D01*
X161578758Y-110030659D01*
X161578757Y-110030659D01*
X161517444Y-110030285D01*
X161442079Y-110029824D01*
X161302029Y-110069851D01*
X161294442Y-110074638D01*
X161294440Y-110074639D01*
X161244180Y-110106351D01*
X161178842Y-110147576D01*
X161172900Y-110154304D01*
X161140777Y-110190676D01*
X161082422Y-110256751D01*
X161078608Y-110264874D01*
X161078607Y-110264876D01*
X161027725Y-110373252D01*
X161020519Y-110388600D01*
X161019139Y-110397465D01*
X161019138Y-110397467D01*
X161002146Y-110506600D01*
X160998109Y-110532524D01*
X155276240Y-110532524D01*
X155290216Y-110449452D01*
X155297570Y-110405744D01*
X155297570Y-110405741D01*
X155298376Y-110400952D01*
X155298529Y-110388400D01*
X155288793Y-110320413D01*
X155279154Y-110253106D01*
X155279153Y-110253103D01*
X155277880Y-110244213D01*
X155274162Y-110236035D01*
X155221308Y-110119790D01*
X155221307Y-110119788D01*
X155217592Y-110111618D01*
X155122513Y-110001273D01*
X155000285Y-109922048D01*
X154860734Y-109880314D01*
X154851758Y-109880259D01*
X154851757Y-109880259D01*
X154790444Y-109879885D01*
X154715079Y-109879424D01*
X154575029Y-109919451D01*
X154567442Y-109924238D01*
X154567440Y-109924239D01*
X154470509Y-109985398D01*
X154402224Y-110004832D01*
X154334741Y-109984568D01*
X154245816Y-109926929D01*
X154245814Y-109926928D01*
X154238285Y-109922048D01*
X154098734Y-109880314D01*
X154089758Y-109880259D01*
X154089757Y-109880259D01*
X154028444Y-109879885D01*
X153953079Y-109879424D01*
X153813029Y-109919451D01*
X153805442Y-109924238D01*
X153805440Y-109924239D01*
X153721380Y-109977277D01*
X153653095Y-109996711D01*
X153585613Y-109976447D01*
X153509219Y-109926931D01*
X153509215Y-109926929D01*
X153501685Y-109922048D01*
X153362134Y-109880314D01*
X153353158Y-109880259D01*
X153353157Y-109880259D01*
X153291844Y-109879885D01*
X153216479Y-109879424D01*
X153076429Y-109919451D01*
X153068842Y-109924238D01*
X153068840Y-109924239D01*
X153051874Y-109934944D01*
X152953242Y-109997176D01*
X152947300Y-110003904D01*
X152921350Y-110033287D01*
X152856822Y-110106351D01*
X152853008Y-110114474D01*
X152853007Y-110114476D01*
X152806199Y-110214174D01*
X152794919Y-110238200D01*
X152793539Y-110247065D01*
X152793538Y-110247067D01*
X152782118Y-110320413D01*
X152772509Y-110382124D01*
X152773673Y-110391026D01*
X152773673Y-110391029D01*
X152781313Y-110449452D01*
X152791395Y-110526552D01*
X152795009Y-110534765D01*
X152795010Y-110534769D01*
X152815123Y-110580477D01*
X152850059Y-110659874D01*
X152853035Y-110663415D01*
X152871467Y-110729708D01*
X152850484Y-110797533D01*
X152812717Y-110834452D01*
X152698488Y-110906525D01*
X152638698Y-110974225D01*
X152638422Y-110974537D01*
X152578337Y-111012355D01*
X152507343Y-111011685D01*
X152475451Y-110996862D01*
X152470622Y-110993732D01*
X152470615Y-110993729D01*
X152463085Y-110988848D01*
X152323534Y-110947114D01*
X152314558Y-110947059D01*
X152314557Y-110947059D01*
X152253244Y-110946685D01*
X152177879Y-110946224D01*
X152037829Y-110986251D01*
X152030242Y-110991038D01*
X152030240Y-110991039D01*
X151996006Y-111012639D01*
X151914642Y-111063976D01*
X151818222Y-111173151D01*
X151756319Y-111305000D01*
X151754938Y-111313867D01*
X151754938Y-111313868D01*
X151736790Y-111430423D01*
X151725617Y-111454153D01*
X151498910Y-111454153D01*
X151487563Y-111428901D01*
X151471953Y-111319905D01*
X151470680Y-111311013D01*
X151466859Y-111302609D01*
X151414108Y-111186590D01*
X151414107Y-111186588D01*
X151410392Y-111178418D01*
X151315313Y-111068073D01*
X151193085Y-110988848D01*
X151053534Y-110947114D01*
X151044558Y-110947059D01*
X151044557Y-110947059D01*
X150983244Y-110946685D01*
X150907879Y-110946224D01*
X150767829Y-110986251D01*
X150760242Y-110991038D01*
X150760240Y-110991039D01*
X150726006Y-111012639D01*
X150644642Y-111063976D01*
X150548222Y-111173151D01*
X150486319Y-111305000D01*
X150484939Y-111313865D01*
X150484938Y-111313867D01*
X150466790Y-111430423D01*
X150463909Y-111448924D01*
X148410500Y-111448924D01*
X148410500Y-108852038D01*
X160463516Y-108852038D01*
X160464680Y-108860940D01*
X160464680Y-108860943D01*
X160474550Y-108936418D01*
X160482402Y-108996466D01*
X160486016Y-109004679D01*
X160486017Y-109004683D01*
X160517316Y-109075813D01*
X160541066Y-109129788D01*
X160546841Y-109136658D01*
X160546842Y-109136660D01*
X160629010Y-109234411D01*
X160634790Y-109241287D01*
X160642267Y-109246264D01*
X160748568Y-109317024D01*
X160748570Y-109317025D01*
X160756041Y-109321998D01*
X160764608Y-109324675D01*
X160764609Y-109324675D01*
X160780984Y-109329791D01*
X160895071Y-109365435D01*
X161040705Y-109368104D01*
X161110969Y-109348948D01*
X161172570Y-109332153D01*
X161172571Y-109332153D01*
X161181233Y-109329791D01*
X161189566Y-109324675D01*
X161297709Y-109258275D01*
X161305361Y-109253577D01*
X161311981Y-109246264D01*
X161341435Y-109213724D01*
X166990809Y-109213724D01*
X166991973Y-109222626D01*
X166991973Y-109222629D01*
X167001936Y-109298818D01*
X167009695Y-109358152D01*
X167013309Y-109366365D01*
X167013310Y-109366369D01*
X167039285Y-109425400D01*
X167068359Y-109491474D01*
X167074134Y-109498344D01*
X167074135Y-109498346D01*
X167143159Y-109580460D01*
X167162083Y-109602973D01*
X167169560Y-109607950D01*
X167275861Y-109678710D01*
X167275863Y-109678711D01*
X167283334Y-109683684D01*
X167422364Y-109727121D01*
X167567998Y-109729790D01*
X167659479Y-109704849D01*
X167699863Y-109693839D01*
X167699864Y-109693839D01*
X167708526Y-109691477D01*
X167716859Y-109686361D01*
X167792282Y-109640051D01*
X167832654Y-109615263D01*
X167839274Y-109607950D01*
X167924373Y-109513934D01*
X167924374Y-109513933D01*
X167930401Y-109507274D01*
X167965773Y-109434267D01*
X167989995Y-109384272D01*
X167989995Y-109384271D01*
X167993910Y-109376191D01*
X168015769Y-109246264D01*
X168017270Y-109237344D01*
X168017270Y-109237341D01*
X168018076Y-109232552D01*
X168018229Y-109220000D01*
X168008526Y-109152248D01*
X167998854Y-109084706D01*
X167998853Y-109084703D01*
X167997580Y-109075813D01*
X167993402Y-109066624D01*
X167941008Y-108951390D01*
X167941007Y-108951388D01*
X167937292Y-108943218D01*
X167842213Y-108832873D01*
X167719985Y-108753648D01*
X167580434Y-108711914D01*
X167571458Y-108711859D01*
X167571457Y-108711859D01*
X167510144Y-108711485D01*
X167434779Y-108711024D01*
X167294729Y-108751051D01*
X167287142Y-108755838D01*
X167287140Y-108755839D01*
X167221178Y-108797458D01*
X167171542Y-108828776D01*
X167075122Y-108937951D01*
X167071308Y-108946074D01*
X167071307Y-108946076D01*
X167039180Y-109014505D01*
X167013219Y-109069800D01*
X167011839Y-109078665D01*
X167011838Y-109078667D01*
X166992437Y-109203269D01*
X166990809Y-109213724D01*
X161341435Y-109213724D01*
X161397080Y-109152248D01*
X161397081Y-109152247D01*
X161403108Y-109145588D01*
X161421378Y-109107880D01*
X161462702Y-109022586D01*
X161462702Y-109022585D01*
X161466617Y-109014505D01*
X161490783Y-108870866D01*
X161490936Y-108858314D01*
X161482221Y-108797458D01*
X161471561Y-108723020D01*
X161471560Y-108723017D01*
X161470287Y-108714127D01*
X161466569Y-108705949D01*
X161413715Y-108589704D01*
X161413714Y-108589702D01*
X161409999Y-108581532D01*
X161314920Y-108471187D01*
X161192692Y-108391962D01*
X161053141Y-108350228D01*
X161044165Y-108350173D01*
X161044164Y-108350173D01*
X160982851Y-108349799D01*
X160907486Y-108349338D01*
X160767436Y-108389365D01*
X160644249Y-108467090D01*
X160547829Y-108576265D01*
X160485926Y-108708114D01*
X160484546Y-108716979D01*
X160484545Y-108716981D01*
X160467261Y-108827989D01*
X160463516Y-108852038D01*
X148410500Y-108852038D01*
X148410500Y-107753224D01*
X156013809Y-107753224D01*
X156014973Y-107762126D01*
X156014973Y-107762129D01*
X156025058Y-107839248D01*
X156032695Y-107897652D01*
X156036309Y-107905865D01*
X156036310Y-107905869D01*
X156068201Y-107978344D01*
X156091359Y-108030974D01*
X156097134Y-108037844D01*
X156097135Y-108037846D01*
X156172218Y-108127168D01*
X156185083Y-108142473D01*
X156192560Y-108147450D01*
X156298861Y-108218210D01*
X156298863Y-108218211D01*
X156306334Y-108223184D01*
X156445364Y-108266621D01*
X156590998Y-108269290D01*
X156678540Y-108245423D01*
X156722863Y-108233339D01*
X156722864Y-108233339D01*
X156731526Y-108230977D01*
X156739859Y-108225861D01*
X156848002Y-108159461D01*
X156855654Y-108154763D01*
X156862274Y-108147450D01*
X156947373Y-108053434D01*
X156947374Y-108053433D01*
X156953401Y-108046774D01*
X156958141Y-108036992D01*
X157012995Y-107923772D01*
X157012995Y-107923771D01*
X157016910Y-107915691D01*
X157036792Y-107797514D01*
X157040270Y-107776844D01*
X157040270Y-107776841D01*
X157041076Y-107772052D01*
X157041229Y-107759500D01*
X157023854Y-107638172D01*
X157021854Y-107624206D01*
X157021853Y-107624203D01*
X157020580Y-107615313D01*
X157016862Y-107607135D01*
X156964008Y-107490890D01*
X156964007Y-107490888D01*
X156960292Y-107482718D01*
X156947286Y-107467624D01*
X160395309Y-107467624D01*
X160396473Y-107476526D01*
X160396473Y-107476529D01*
X160402639Y-107523678D01*
X160414195Y-107612052D01*
X160417809Y-107620265D01*
X160417810Y-107620269D01*
X160422132Y-107630091D01*
X160472859Y-107745374D01*
X160478634Y-107752244D01*
X160478635Y-107752246D01*
X160545459Y-107831743D01*
X160566583Y-107856873D01*
X160574060Y-107861850D01*
X160680361Y-107932610D01*
X160680363Y-107932611D01*
X160687834Y-107937584D01*
X160826864Y-107981021D01*
X160972498Y-107983690D01*
X161061921Y-107959310D01*
X161104363Y-107947739D01*
X161104364Y-107947739D01*
X161113026Y-107945377D01*
X161121359Y-107940261D01*
X161185510Y-107900872D01*
X161237154Y-107869163D01*
X161243774Y-107861850D01*
X161328873Y-107767834D01*
X161328874Y-107767833D01*
X161334901Y-107761174D01*
X161343052Y-107744352D01*
X161394495Y-107638172D01*
X161394495Y-107638171D01*
X161398410Y-107630091D01*
X161422576Y-107486452D01*
X161422729Y-107473900D01*
X161411642Y-107396481D01*
X161403354Y-107338606D01*
X161403353Y-107338603D01*
X161402080Y-107329713D01*
X161395653Y-107315576D01*
X161350059Y-107215300D01*
X161340071Y-107145009D01*
X161369672Y-107080477D01*
X161398829Y-107055774D01*
X161400804Y-107054562D01*
X161400807Y-107054559D01*
X161408456Y-107049863D01*
X161449109Y-107004951D01*
X161500175Y-106948534D01*
X161500176Y-106948533D01*
X161506203Y-106941874D01*
X161530816Y-106891074D01*
X161565797Y-106818872D01*
X161565797Y-106818871D01*
X161569712Y-106810791D01*
X161593878Y-106667152D01*
X161594031Y-106654600D01*
X161580968Y-106563386D01*
X161574656Y-106519306D01*
X161574655Y-106519303D01*
X161573382Y-106510413D01*
X161569664Y-106502235D01*
X161516810Y-106385990D01*
X161516809Y-106385988D01*
X161513094Y-106377818D01*
X161418015Y-106267473D01*
X161295787Y-106188248D01*
X161156236Y-106146514D01*
X161147260Y-106146459D01*
X161147259Y-106146459D01*
X161085946Y-106146085D01*
X161010581Y-106145624D01*
X160870531Y-106185651D01*
X160862944Y-106190438D01*
X160862942Y-106190439D01*
X160827857Y-106212576D01*
X160747344Y-106263376D01*
X160650924Y-106372551D01*
X160647110Y-106380674D01*
X160647109Y-106380676D01*
X160605873Y-106468506D01*
X160589021Y-106504400D01*
X160587641Y-106513265D01*
X160587640Y-106513267D01*
X160568724Y-106634755D01*
X160566611Y-106648324D01*
X160567775Y-106657226D01*
X160567775Y-106657229D01*
X160571095Y-106682618D01*
X160585497Y-106792752D01*
X160589112Y-106800967D01*
X160589112Y-106800968D01*
X160639566Y-106915631D01*
X160648694Y-106986039D01*
X160618307Y-107050204D01*
X160591474Y-107072938D01*
X160583638Y-107077882D01*
X160583632Y-107077887D01*
X160576042Y-107082676D01*
X160479622Y-107191851D01*
X160475808Y-107199974D01*
X160475807Y-107199976D01*
X160427984Y-107301836D01*
X160417719Y-107323700D01*
X160416339Y-107332565D01*
X160416338Y-107332567D01*
X160397345Y-107454551D01*
X160395309Y-107467624D01*
X156947286Y-107467624D01*
X156865213Y-107372373D01*
X156742985Y-107293148D01*
X156603434Y-107251414D01*
X156594458Y-107251359D01*
X156594457Y-107251359D01*
X156533144Y-107250985D01*
X156457779Y-107250524D01*
X156317729Y-107290551D01*
X156310142Y-107295338D01*
X156310140Y-107295339D01*
X156268622Y-107321535D01*
X156194542Y-107368276D01*
X156098122Y-107477451D01*
X156094308Y-107485574D01*
X156094307Y-107485576D01*
X156044147Y-107592413D01*
X156036219Y-107609300D01*
X156034839Y-107618165D01*
X156034838Y-107618167D01*
X156015200Y-107744293D01*
X156013809Y-107753224D01*
X148410500Y-107753224D01*
X148410500Y-106597524D01*
X158033109Y-106597524D01*
X158034273Y-106606426D01*
X158034273Y-106606429D01*
X158044236Y-106682618D01*
X158051995Y-106741952D01*
X158055609Y-106750165D01*
X158055610Y-106750169D01*
X158081585Y-106809200D01*
X158110659Y-106875274D01*
X158116434Y-106882144D01*
X158116435Y-106882146D01*
X158185459Y-106964260D01*
X158204383Y-106986773D01*
X158211860Y-106991750D01*
X158318161Y-107062510D01*
X158318163Y-107062511D01*
X158325634Y-107067484D01*
X158464664Y-107110921D01*
X158610298Y-107113590D01*
X158716403Y-107084662D01*
X158742163Y-107077639D01*
X158742164Y-107077639D01*
X158750826Y-107075277D01*
X158759159Y-107070161D01*
X158867302Y-107003761D01*
X158874954Y-106999063D01*
X158881574Y-106991750D01*
X158966673Y-106897734D01*
X158966674Y-106897733D01*
X158972701Y-106891074D01*
X159007683Y-106818872D01*
X159032295Y-106768072D01*
X159032295Y-106768071D01*
X159036210Y-106759991D01*
X159052647Y-106662293D01*
X159059570Y-106621144D01*
X159059570Y-106621141D01*
X159060376Y-106616352D01*
X159060529Y-106603800D01*
X159045370Y-106497948D01*
X159041154Y-106468506D01*
X159041153Y-106468503D01*
X159039880Y-106459613D01*
X159035702Y-106450424D01*
X158983308Y-106335190D01*
X158983307Y-106335188D01*
X158979592Y-106327018D01*
X158884513Y-106216673D01*
X158762285Y-106137448D01*
X158622734Y-106095714D01*
X158613758Y-106095659D01*
X158613757Y-106095659D01*
X158552444Y-106095285D01*
X158477079Y-106094824D01*
X158337029Y-106134851D01*
X158329442Y-106139638D01*
X158329440Y-106139639D01*
X158314466Y-106149087D01*
X158213842Y-106212576D01*
X158117422Y-106321751D01*
X158113608Y-106329874D01*
X158113607Y-106329876D01*
X158059333Y-106445476D01*
X158055519Y-106453600D01*
X158054139Y-106462465D01*
X158054138Y-106462467D01*
X158035982Y-106579075D01*
X158033109Y-106597524D01*
X148410500Y-106597524D01*
X148410500Y-104794124D01*
X150489309Y-104794124D01*
X150490473Y-104803026D01*
X150490473Y-104803029D01*
X150502096Y-104891914D01*
X150508195Y-104938552D01*
X150511809Y-104946765D01*
X150511810Y-104946769D01*
X150512237Y-104947739D01*
X150566859Y-105071874D01*
X150572634Y-105078744D01*
X150572635Y-105078746D01*
X150580140Y-105087674D01*
X150660583Y-105183373D01*
X150668060Y-105188350D01*
X150774361Y-105259110D01*
X150774363Y-105259111D01*
X150781834Y-105264084D01*
X150920864Y-105307521D01*
X151066498Y-105310190D01*
X151136762Y-105291034D01*
X151198363Y-105274239D01*
X151198364Y-105274239D01*
X151207026Y-105271877D01*
X151215359Y-105266761D01*
X151323502Y-105200361D01*
X151331154Y-105195663D01*
X151337774Y-105188350D01*
X151422873Y-105094334D01*
X151422874Y-105094333D01*
X151428901Y-105087674D01*
X151492410Y-104956591D01*
X151516576Y-104812952D01*
X151516729Y-104800400D01*
X151515830Y-104794124D01*
X151784709Y-104794124D01*
X151785873Y-104803026D01*
X151785873Y-104803029D01*
X151797496Y-104891914D01*
X151803595Y-104938552D01*
X151807209Y-104946765D01*
X151807210Y-104946769D01*
X151807637Y-104947739D01*
X151862259Y-105071874D01*
X151868034Y-105078744D01*
X151868035Y-105078746D01*
X151875540Y-105087674D01*
X151955983Y-105183373D01*
X151963460Y-105188350D01*
X152069761Y-105259110D01*
X152069763Y-105259111D01*
X152077234Y-105264084D01*
X152216264Y-105307521D01*
X152361898Y-105310190D01*
X152432162Y-105291034D01*
X152493763Y-105274239D01*
X152493764Y-105274239D01*
X152502426Y-105271877D01*
X152510759Y-105266761D01*
X152618902Y-105200361D01*
X152626554Y-105195663D01*
X152633174Y-105188350D01*
X152718273Y-105094334D01*
X152718274Y-105094333D01*
X152724301Y-105087674D01*
X152787810Y-104956591D01*
X152811976Y-104812952D01*
X152812129Y-104800400D01*
X152797497Y-104698228D01*
X152792754Y-104665106D01*
X152792753Y-104665103D01*
X152791480Y-104656213D01*
X152787762Y-104648035D01*
X152734908Y-104531790D01*
X152734907Y-104531788D01*
X152731192Y-104523618D01*
X152636113Y-104413273D01*
X152513885Y-104334048D01*
X152374334Y-104292314D01*
X152365358Y-104292259D01*
X152365357Y-104292259D01*
X152304044Y-104291885D01*
X152228679Y-104291424D01*
X152088629Y-104331451D01*
X152081042Y-104336238D01*
X152081040Y-104336239D01*
X152051192Y-104355072D01*
X151965442Y-104409176D01*
X151869022Y-104518351D01*
X151865208Y-104526474D01*
X151865207Y-104526476D01*
X151820490Y-104621721D01*
X151807119Y-104650200D01*
X151805739Y-104659065D01*
X151805738Y-104659067D01*
X151799299Y-104700425D01*
X151784709Y-104794124D01*
X151515830Y-104794124D01*
X151502097Y-104698228D01*
X151497354Y-104665106D01*
X151497353Y-104665103D01*
X151496080Y-104656213D01*
X151492362Y-104648035D01*
X151439508Y-104531790D01*
X151439507Y-104531788D01*
X151435792Y-104523618D01*
X151340713Y-104413273D01*
X151218485Y-104334048D01*
X151078934Y-104292314D01*
X151069958Y-104292259D01*
X151069957Y-104292259D01*
X151008644Y-104291885D01*
X150933279Y-104291424D01*
X150793229Y-104331451D01*
X150785642Y-104336238D01*
X150785640Y-104336239D01*
X150755792Y-104355072D01*
X150670042Y-104409176D01*
X150573622Y-104518351D01*
X150569808Y-104526474D01*
X150569807Y-104526476D01*
X150525090Y-104621721D01*
X150511719Y-104650200D01*
X150510339Y-104659065D01*
X150510338Y-104659067D01*
X150503899Y-104700425D01*
X150489309Y-104794124D01*
X148410500Y-104794124D01*
X148410500Y-104184524D01*
X154273909Y-104184524D01*
X154275073Y-104193426D01*
X154275073Y-104193429D01*
X154282831Y-104252752D01*
X154292795Y-104328952D01*
X154296409Y-104337165D01*
X154296410Y-104337169D01*
X154320953Y-104392946D01*
X154351459Y-104462274D01*
X154357234Y-104469144D01*
X154357235Y-104469146D01*
X154405426Y-104526476D01*
X154445183Y-104573773D01*
X154456609Y-104581379D01*
X154558961Y-104649510D01*
X154558963Y-104649511D01*
X154566434Y-104654484D01*
X154705464Y-104697921D01*
X154851098Y-104700590D01*
X154981250Y-104665106D01*
X154982963Y-104664639D01*
X154982964Y-104664639D01*
X154991626Y-104662277D01*
X154999959Y-104657161D01*
X155057179Y-104622028D01*
X155115754Y-104586063D01*
X155122374Y-104578750D01*
X155207473Y-104484734D01*
X155207474Y-104484733D01*
X155213501Y-104478074D01*
X155249203Y-104404386D01*
X155273095Y-104355072D01*
X155273095Y-104355071D01*
X155277010Y-104346991D01*
X155301176Y-104203352D01*
X155301329Y-104190800D01*
X155291518Y-104122293D01*
X155289518Y-104108324D01*
X161078309Y-104108324D01*
X161079473Y-104117226D01*
X161079473Y-104117229D01*
X161087113Y-104175652D01*
X161097195Y-104252752D01*
X161100809Y-104260965D01*
X161100810Y-104260969D01*
X161115735Y-104294887D01*
X161155859Y-104386074D01*
X161161634Y-104392944D01*
X161161635Y-104392946D01*
X161238791Y-104484734D01*
X161249583Y-104497573D01*
X161257060Y-104502550D01*
X161363361Y-104573310D01*
X161363363Y-104573311D01*
X161370834Y-104578284D01*
X161509864Y-104621721D01*
X161655498Y-104624390D01*
X161778846Y-104590761D01*
X161787363Y-104588439D01*
X161787364Y-104588439D01*
X161796026Y-104586077D01*
X161804359Y-104580961D01*
X161884442Y-104531790D01*
X161920154Y-104509863D01*
X161926774Y-104502550D01*
X162011873Y-104408534D01*
X162011874Y-104408533D01*
X162017901Y-104401874D01*
X162040577Y-104355072D01*
X162077495Y-104278872D01*
X162077495Y-104278871D01*
X162081410Y-104270791D01*
X162105576Y-104127152D01*
X162105729Y-104114600D01*
X162095993Y-104046613D01*
X162086354Y-103979306D01*
X162086353Y-103979303D01*
X162085080Y-103970413D01*
X162081362Y-103962235D01*
X162028508Y-103845990D01*
X162028507Y-103845988D01*
X162024792Y-103837818D01*
X161929713Y-103727473D01*
X161807485Y-103648248D01*
X161667934Y-103606514D01*
X161658958Y-103606459D01*
X161658957Y-103606459D01*
X161597644Y-103606085D01*
X161522279Y-103605624D01*
X161382229Y-103645651D01*
X161374642Y-103650438D01*
X161374640Y-103650439D01*
X161308377Y-103692248D01*
X161259042Y-103723376D01*
X161162622Y-103832551D01*
X161158808Y-103840674D01*
X161158807Y-103840676D01*
X161104533Y-103956276D01*
X161100719Y-103964400D01*
X161099339Y-103973265D01*
X161099338Y-103973267D01*
X161087918Y-104046613D01*
X161078309Y-104108324D01*
X155289518Y-104108324D01*
X155281954Y-104055506D01*
X155281953Y-104055503D01*
X155280680Y-104046613D01*
X155276962Y-104038435D01*
X155224108Y-103922190D01*
X155224107Y-103922188D01*
X155220392Y-103914018D01*
X155125313Y-103803673D01*
X155003085Y-103724448D01*
X154863534Y-103682714D01*
X154854558Y-103682659D01*
X154854557Y-103682659D01*
X154793244Y-103682285D01*
X154717879Y-103681824D01*
X154577829Y-103721851D01*
X154570242Y-103726638D01*
X154570240Y-103726639D01*
X154558138Y-103734275D01*
X154454642Y-103799576D01*
X154358222Y-103908751D01*
X154354408Y-103916874D01*
X154354407Y-103916876D01*
X154327932Y-103973267D01*
X154296319Y-104040600D01*
X154294939Y-104049465D01*
X154294938Y-104049467D01*
X154283599Y-104122293D01*
X154273909Y-104184524D01*
X148410500Y-104184524D01*
X148410500Y-100330000D01*
X169515449Y-100330000D01*
X169536362Y-100488850D01*
X169597676Y-100636875D01*
X169615525Y-100660136D01*
X169690184Y-100757434D01*
X169690187Y-100757437D01*
X169695213Y-100763987D01*
X169701763Y-100769013D01*
X169701764Y-100769014D01*
X169794517Y-100840187D01*
X169822324Y-100861524D01*
X169829950Y-100864683D01*
X169829952Y-100864684D01*
X169962720Y-100919678D01*
X169962723Y-100919679D01*
X169970350Y-100922838D01*
X170129200Y-100943751D01*
X170137388Y-100942673D01*
X170279862Y-100923916D01*
X170288050Y-100922838D01*
X170295677Y-100919679D01*
X170295680Y-100919678D01*
X170428448Y-100864684D01*
X170428450Y-100864683D01*
X170436076Y-100861524D01*
X170463883Y-100840187D01*
X170556636Y-100769014D01*
X170556637Y-100769013D01*
X170563187Y-100763987D01*
X170568213Y-100757437D01*
X170568216Y-100757434D01*
X170642875Y-100660136D01*
X170660724Y-100636875D01*
X170722038Y-100488850D01*
X170742951Y-100330000D01*
X170722038Y-100171150D01*
X170711589Y-100145924D01*
X174898709Y-100145924D01*
X174899873Y-100154826D01*
X174899873Y-100154829D01*
X174905310Y-100196404D01*
X174917595Y-100290352D01*
X174921209Y-100298565D01*
X174921210Y-100298569D01*
X174939504Y-100340144D01*
X174976259Y-100423674D01*
X174982034Y-100430544D01*
X174982035Y-100430546D01*
X175064203Y-100528297D01*
X175069983Y-100535173D01*
X175077460Y-100540150D01*
X175183761Y-100610910D01*
X175183763Y-100610911D01*
X175191234Y-100615884D01*
X175330264Y-100659321D01*
X175475898Y-100661990D01*
X175568017Y-100636875D01*
X175607763Y-100626039D01*
X175607764Y-100626039D01*
X175616426Y-100623677D01*
X175624759Y-100618561D01*
X175732902Y-100552161D01*
X175740554Y-100547463D01*
X175747174Y-100540150D01*
X175832273Y-100446134D01*
X175832274Y-100446133D01*
X175838301Y-100439474D01*
X175854422Y-100406200D01*
X176754449Y-100406200D01*
X176775362Y-100565050D01*
X176836676Y-100713075D01*
X176879600Y-100769014D01*
X176929184Y-100833634D01*
X176929187Y-100833637D01*
X176934213Y-100840187D01*
X176940763Y-100845213D01*
X176940764Y-100845214D01*
X177037806Y-100919678D01*
X177061324Y-100937724D01*
X177068950Y-100940883D01*
X177068952Y-100940884D01*
X177201720Y-100995878D01*
X177201723Y-100995879D01*
X177209350Y-100999038D01*
X177368200Y-101019951D01*
X177376388Y-101018873D01*
X177518862Y-101000116D01*
X177527050Y-100999038D01*
X177534677Y-100995879D01*
X177534680Y-100995878D01*
X177667448Y-100940884D01*
X177667450Y-100940883D01*
X177675076Y-100937724D01*
X177698594Y-100919678D01*
X177795636Y-100845214D01*
X177795637Y-100845213D01*
X177802187Y-100840187D01*
X177807213Y-100833637D01*
X177807216Y-100833634D01*
X177856800Y-100769014D01*
X177899724Y-100713075D01*
X177961038Y-100565050D01*
X177981951Y-100406200D01*
X177961038Y-100247350D01*
X177899724Y-100099325D01*
X177847108Y-100030755D01*
X177807216Y-99978766D01*
X177807213Y-99978763D01*
X177802187Y-99972213D01*
X177733949Y-99919851D01*
X177681626Y-99879702D01*
X177675076Y-99874676D01*
X177667450Y-99871517D01*
X177667448Y-99871516D01*
X177534680Y-99816522D01*
X177534677Y-99816521D01*
X177527050Y-99813362D01*
X177368200Y-99792449D01*
X177209350Y-99813362D01*
X177061325Y-99874676D01*
X176934213Y-99972213D01*
X176836676Y-100099325D01*
X176775362Y-100247350D01*
X176754449Y-100406200D01*
X175854422Y-100406200D01*
X175894721Y-100323024D01*
X175897895Y-100316472D01*
X175897895Y-100316471D01*
X175901810Y-100308391D01*
X175925976Y-100164752D01*
X175926129Y-100152200D01*
X175910573Y-100043575D01*
X175906754Y-100016906D01*
X175906753Y-100016903D01*
X175905480Y-100008013D01*
X175901762Y-99999835D01*
X175848908Y-99883590D01*
X175848907Y-99883588D01*
X175845192Y-99875418D01*
X175750113Y-99765073D01*
X175627885Y-99685848D01*
X175488334Y-99644114D01*
X175479358Y-99644059D01*
X175479357Y-99644059D01*
X175418044Y-99643685D01*
X175342679Y-99643224D01*
X175202629Y-99683251D01*
X175195042Y-99688038D01*
X175195040Y-99688039D01*
X175150330Y-99716249D01*
X175079442Y-99760976D01*
X174983022Y-99870151D01*
X174979208Y-99878274D01*
X174979207Y-99878276D01*
X174935104Y-99972213D01*
X174921119Y-100002000D01*
X174919739Y-100010865D01*
X174919738Y-100010867D01*
X174904777Y-100106955D01*
X174898709Y-100145924D01*
X170711589Y-100145924D01*
X170660724Y-100023125D01*
X170581479Y-99919851D01*
X170568216Y-99902566D01*
X170568213Y-99902563D01*
X170563187Y-99896013D01*
X170541931Y-99879702D01*
X170442626Y-99803502D01*
X170436076Y-99798476D01*
X170428450Y-99795317D01*
X170428448Y-99795316D01*
X170295680Y-99740322D01*
X170295677Y-99740321D01*
X170288050Y-99737162D01*
X170129200Y-99716249D01*
X169970350Y-99737162D01*
X169822325Y-99798476D01*
X169695213Y-99896013D01*
X169597676Y-100023125D01*
X169536362Y-100171150D01*
X169515449Y-100330000D01*
X148410500Y-100330000D01*
X148410500Y-99418350D01*
X156787095Y-99418350D01*
X156791763Y-99424924D01*
X156993111Y-99542583D01*
X157002394Y-99547030D01*
X157221708Y-99630778D01*
X157231606Y-99633654D01*
X157461653Y-99680457D01*
X157471881Y-99681676D01*
X157706481Y-99690279D01*
X157716767Y-99689812D01*
X157949623Y-99659982D01*
X157959709Y-99657839D01*
X158184562Y-99590380D01*
X158194157Y-99586620D01*
X158404973Y-99483341D01*
X158413823Y-99478066D01*
X158488047Y-99425123D01*
X158496447Y-99414424D01*
X158489458Y-99401268D01*
X157656612Y-98568422D01*
X157642668Y-98560808D01*
X157640835Y-98560939D01*
X157634220Y-98565190D01*
X156794355Y-99405055D01*
X156787095Y-99418350D01*
X148410500Y-99418350D01*
X148410500Y-98165090D01*
X152258108Y-98165090D01*
X152272424Y-98383512D01*
X152273845Y-98389108D01*
X152273846Y-98389113D01*
X152303870Y-98507330D01*
X152326305Y-98595667D01*
X152417945Y-98794451D01*
X152544277Y-98973206D01*
X152701069Y-99125946D01*
X152705865Y-99129151D01*
X152705868Y-99129153D01*
X152779633Y-99178441D01*
X152883069Y-99247555D01*
X152888372Y-99249833D01*
X152888375Y-99249835D01*
X152973180Y-99286270D01*
X153084184Y-99333961D01*
X153162017Y-99351573D01*
X153292040Y-99380994D01*
X153292045Y-99380995D01*
X153297677Y-99382269D01*
X153303448Y-99382496D01*
X153303450Y-99382496D01*
X153368810Y-99385064D01*
X153516399Y-99390863D01*
X153624712Y-99375158D01*
X153727310Y-99360283D01*
X153727315Y-99360282D01*
X153733024Y-99359454D01*
X153738488Y-99357599D01*
X153738493Y-99357598D01*
X153934827Y-99290952D01*
X153934832Y-99290950D01*
X153940299Y-99289094D01*
X154020204Y-99244345D01*
X154126233Y-99184966D01*
X154126237Y-99184963D01*
X154131280Y-99182139D01*
X154299572Y-99042172D01*
X154439539Y-98873880D01*
X154442363Y-98868837D01*
X154442366Y-98868833D01*
X154543670Y-98687942D01*
X154543671Y-98687940D01*
X154546494Y-98682899D01*
X154548350Y-98677432D01*
X154548352Y-98677427D01*
X154614998Y-98481093D01*
X154614999Y-98481088D01*
X154616854Y-98475624D01*
X154617682Y-98469915D01*
X154617683Y-98469910D01*
X154636698Y-98338763D01*
X154648263Y-98258999D01*
X154649902Y-98196400D01*
X154647018Y-98165015D01*
X156148935Y-98165015D01*
X156162449Y-98399379D01*
X156163885Y-98409600D01*
X156215495Y-98638605D01*
X156218574Y-98648434D01*
X156306898Y-98865948D01*
X156311543Y-98875144D01*
X156413901Y-99042178D01*
X156424357Y-99051639D01*
X156433135Y-99047855D01*
X157271778Y-98209212D01*
X157278156Y-98197532D01*
X158008208Y-98197532D01*
X158008339Y-98199365D01*
X158012590Y-98205980D01*
X158849218Y-99042608D01*
X158861229Y-99049167D01*
X158872968Y-99040199D01*
X158922765Y-98970898D01*
X158928080Y-98962053D01*
X159032087Y-98751611D01*
X159035886Y-98742016D01*
X159104127Y-98517411D01*
X159106306Y-98507330D01*
X159137185Y-98272782D01*
X159137704Y-98266107D01*
X159139326Y-98199764D01*
X159139132Y-98193047D01*
X159136833Y-98165090D01*
X160638108Y-98165090D01*
X160652424Y-98383512D01*
X160653845Y-98389108D01*
X160653846Y-98389113D01*
X160683870Y-98507330D01*
X160706305Y-98595667D01*
X160797945Y-98794451D01*
X160924277Y-98973206D01*
X161081069Y-99125946D01*
X161085865Y-99129151D01*
X161085868Y-99129153D01*
X161159633Y-99178441D01*
X161263069Y-99247555D01*
X161268372Y-99249833D01*
X161268375Y-99249835D01*
X161353180Y-99286270D01*
X161464184Y-99333961D01*
X161542017Y-99351573D01*
X161672040Y-99380994D01*
X161672045Y-99380995D01*
X161677677Y-99382269D01*
X161683448Y-99382496D01*
X161683450Y-99382496D01*
X161748810Y-99385064D01*
X161896399Y-99390863D01*
X162004712Y-99375158D01*
X162107310Y-99360283D01*
X162107315Y-99360282D01*
X162113024Y-99359454D01*
X162118488Y-99357599D01*
X162118493Y-99357598D01*
X162314827Y-99290952D01*
X162314832Y-99290950D01*
X162320299Y-99289094D01*
X162400204Y-99244345D01*
X162506233Y-99184966D01*
X162506237Y-99184963D01*
X162511280Y-99182139D01*
X162679572Y-99042172D01*
X162819539Y-98873880D01*
X162822363Y-98868837D01*
X162822366Y-98868833D01*
X162923670Y-98687942D01*
X162923671Y-98687940D01*
X162926494Y-98682899D01*
X162928350Y-98677432D01*
X162928352Y-98677427D01*
X162994998Y-98481093D01*
X162994999Y-98481088D01*
X162996854Y-98475624D01*
X162997682Y-98469915D01*
X162997683Y-98469910D01*
X163016698Y-98338763D01*
X163028263Y-98258999D01*
X163029902Y-98196400D01*
X163027025Y-98165090D01*
X164828108Y-98165090D01*
X164842424Y-98383512D01*
X164843845Y-98389108D01*
X164843846Y-98389113D01*
X164873870Y-98507330D01*
X164896305Y-98595667D01*
X164987945Y-98794451D01*
X165114277Y-98973206D01*
X165271069Y-99125946D01*
X165275865Y-99129151D01*
X165275868Y-99129153D01*
X165349633Y-99178441D01*
X165453069Y-99247555D01*
X165458372Y-99249833D01*
X165458375Y-99249835D01*
X165543180Y-99286270D01*
X165654184Y-99333961D01*
X165732017Y-99351573D01*
X165862040Y-99380994D01*
X165862045Y-99380995D01*
X165867677Y-99382269D01*
X165873448Y-99382496D01*
X165873450Y-99382496D01*
X165938810Y-99385064D01*
X166086399Y-99390863D01*
X166194712Y-99375158D01*
X166297310Y-99360283D01*
X166297315Y-99360282D01*
X166303024Y-99359454D01*
X166308488Y-99357599D01*
X166308493Y-99357598D01*
X166504827Y-99290952D01*
X166504832Y-99290950D01*
X166510299Y-99289094D01*
X166590204Y-99244345D01*
X166696233Y-99184966D01*
X166696237Y-99184963D01*
X166701280Y-99182139D01*
X166869572Y-99042172D01*
X167009539Y-98873880D01*
X167012363Y-98868837D01*
X167012366Y-98868833D01*
X167113670Y-98687942D01*
X167113671Y-98687940D01*
X167116494Y-98682899D01*
X167118350Y-98677432D01*
X167118352Y-98677427D01*
X167184998Y-98481093D01*
X167184999Y-98481088D01*
X167186854Y-98475624D01*
X167187682Y-98469915D01*
X167187683Y-98469910D01*
X167206698Y-98338763D01*
X167218263Y-98258999D01*
X167219902Y-98196400D01*
X167217025Y-98165090D01*
X169018108Y-98165090D01*
X169032424Y-98383512D01*
X169033845Y-98389108D01*
X169033846Y-98389113D01*
X169063870Y-98507330D01*
X169086305Y-98595667D01*
X169177945Y-98794451D01*
X169304277Y-98973206D01*
X169461069Y-99125946D01*
X169465865Y-99129151D01*
X169465868Y-99129153D01*
X169539633Y-99178441D01*
X169643069Y-99247555D01*
X169648372Y-99249833D01*
X169648375Y-99249835D01*
X169733180Y-99286270D01*
X169844184Y-99333961D01*
X169922017Y-99351573D01*
X170052040Y-99380994D01*
X170052045Y-99380995D01*
X170057677Y-99382269D01*
X170063448Y-99382496D01*
X170063450Y-99382496D01*
X170128810Y-99385064D01*
X170276399Y-99390863D01*
X170384712Y-99375158D01*
X170487310Y-99360283D01*
X170487315Y-99360282D01*
X170493024Y-99359454D01*
X170498488Y-99357599D01*
X170498493Y-99357598D01*
X170694827Y-99290952D01*
X170694832Y-99290950D01*
X170700299Y-99289094D01*
X170780204Y-99244345D01*
X170886233Y-99184966D01*
X170886237Y-99184963D01*
X170891280Y-99182139D01*
X171059572Y-99042172D01*
X171199539Y-98873880D01*
X171202363Y-98868837D01*
X171202366Y-98868833D01*
X171303670Y-98687942D01*
X171303671Y-98687940D01*
X171306494Y-98682899D01*
X171308350Y-98677432D01*
X171308352Y-98677427D01*
X171374998Y-98481093D01*
X171374999Y-98481088D01*
X171376854Y-98475624D01*
X171377682Y-98469915D01*
X171377683Y-98469910D01*
X171396698Y-98338763D01*
X171408263Y-98258999D01*
X171409902Y-98196400D01*
X171407025Y-98165090D01*
X173208108Y-98165090D01*
X173222424Y-98383512D01*
X173223845Y-98389108D01*
X173223846Y-98389113D01*
X173253870Y-98507330D01*
X173276305Y-98595667D01*
X173367945Y-98794451D01*
X173494277Y-98973206D01*
X173651069Y-99125946D01*
X173655865Y-99129151D01*
X173655868Y-99129153D01*
X173729633Y-99178441D01*
X173833069Y-99247555D01*
X173838372Y-99249833D01*
X173838375Y-99249835D01*
X173923180Y-99286270D01*
X174034184Y-99333961D01*
X174112017Y-99351573D01*
X174242040Y-99380994D01*
X174242045Y-99380995D01*
X174247677Y-99382269D01*
X174253448Y-99382496D01*
X174253450Y-99382496D01*
X174318810Y-99385064D01*
X174466399Y-99390863D01*
X174574712Y-99375158D01*
X174677310Y-99360283D01*
X174677315Y-99360282D01*
X174683024Y-99359454D01*
X174688488Y-99357599D01*
X174688493Y-99357598D01*
X174884827Y-99290952D01*
X174884832Y-99290950D01*
X174890299Y-99289094D01*
X174970204Y-99244345D01*
X175076233Y-99184966D01*
X175076237Y-99184963D01*
X175081280Y-99182139D01*
X175249572Y-99042172D01*
X175389539Y-98873880D01*
X175392363Y-98868837D01*
X175392366Y-98868833D01*
X175493670Y-98687942D01*
X175493671Y-98687940D01*
X175496494Y-98682899D01*
X175498350Y-98677432D01*
X175498352Y-98677427D01*
X175564998Y-98481093D01*
X175564999Y-98481088D01*
X175566854Y-98475624D01*
X175567682Y-98469915D01*
X175567683Y-98469910D01*
X175586698Y-98338763D01*
X175598263Y-98258999D01*
X175599902Y-98196400D01*
X175579873Y-97978428D01*
X175573912Y-97957289D01*
X175522025Y-97773314D01*
X175522024Y-97773312D01*
X175520457Y-97767755D01*
X175506115Y-97738672D01*
X175426200Y-97576618D01*
X175426197Y-97576614D01*
X175423645Y-97571438D01*
X175292677Y-97396052D01*
X175131941Y-97247468D01*
X175127058Y-97244387D01*
X175127054Y-97244384D01*
X174951702Y-97133746D01*
X174951703Y-97133746D01*
X174946819Y-97130665D01*
X174743511Y-97049554D01*
X174528827Y-97006850D01*
X174523052Y-97006774D01*
X174523048Y-97006774D01*
X174413302Y-97005338D01*
X174309955Y-97003985D01*
X174304258Y-97004964D01*
X174304257Y-97004964D01*
X174099923Y-97040075D01*
X174094226Y-97041054D01*
X173888865Y-97116816D01*
X173883904Y-97119768D01*
X173883903Y-97119768D01*
X173705717Y-97225777D01*
X173705714Y-97225779D01*
X173700749Y-97228733D01*
X173536178Y-97373058D01*
X173532603Y-97377593D01*
X173532602Y-97377594D01*
X173447685Y-97485311D01*
X173400664Y-97544956D01*
X173397976Y-97550065D01*
X173301435Y-97733560D01*
X173301433Y-97733565D01*
X173298746Y-97738672D01*
X173233836Y-97947716D01*
X173208108Y-98165090D01*
X171407025Y-98165090D01*
X171389873Y-97978428D01*
X171383912Y-97957289D01*
X171332025Y-97773314D01*
X171332024Y-97773312D01*
X171330457Y-97767755D01*
X171316115Y-97738672D01*
X171236200Y-97576618D01*
X171236197Y-97576614D01*
X171233645Y-97571438D01*
X171102677Y-97396052D01*
X170941941Y-97247468D01*
X170937058Y-97244387D01*
X170937054Y-97244384D01*
X170761702Y-97133746D01*
X170761703Y-97133746D01*
X170756819Y-97130665D01*
X170553511Y-97049554D01*
X170338827Y-97006850D01*
X170333052Y-97006774D01*
X170333048Y-97006774D01*
X170223302Y-97005338D01*
X170119955Y-97003985D01*
X170114258Y-97004964D01*
X170114257Y-97004964D01*
X169909923Y-97040075D01*
X169904226Y-97041054D01*
X169698865Y-97116816D01*
X169693904Y-97119768D01*
X169693903Y-97119768D01*
X169515717Y-97225777D01*
X169515714Y-97225779D01*
X169510749Y-97228733D01*
X169346178Y-97373058D01*
X169342603Y-97377593D01*
X169342602Y-97377594D01*
X169257685Y-97485311D01*
X169210664Y-97544956D01*
X169207976Y-97550065D01*
X169111435Y-97733560D01*
X169111433Y-97733565D01*
X169108746Y-97738672D01*
X169043836Y-97947716D01*
X169018108Y-98165090D01*
X167217025Y-98165090D01*
X167199873Y-97978428D01*
X167193912Y-97957289D01*
X167142025Y-97773314D01*
X167142024Y-97773312D01*
X167140457Y-97767755D01*
X167126115Y-97738672D01*
X167046200Y-97576618D01*
X167046197Y-97576614D01*
X167043645Y-97571438D01*
X166912677Y-97396052D01*
X166751941Y-97247468D01*
X166747058Y-97244387D01*
X166747054Y-97244384D01*
X166571702Y-97133746D01*
X166571703Y-97133746D01*
X166566819Y-97130665D01*
X166363511Y-97049554D01*
X166148827Y-97006850D01*
X166143052Y-97006774D01*
X166143048Y-97006774D01*
X166033302Y-97005338D01*
X165929955Y-97003985D01*
X165924258Y-97004964D01*
X165924257Y-97004964D01*
X165719923Y-97040075D01*
X165714226Y-97041054D01*
X165508865Y-97116816D01*
X165503904Y-97119768D01*
X165503903Y-97119768D01*
X165325717Y-97225777D01*
X165325714Y-97225779D01*
X165320749Y-97228733D01*
X165156178Y-97373058D01*
X165152603Y-97377593D01*
X165152602Y-97377594D01*
X165067685Y-97485311D01*
X165020664Y-97544956D01*
X165017976Y-97550065D01*
X164921435Y-97733560D01*
X164921433Y-97733565D01*
X164918746Y-97738672D01*
X164853836Y-97947716D01*
X164828108Y-98165090D01*
X163027025Y-98165090D01*
X163009873Y-97978428D01*
X163003912Y-97957289D01*
X162952025Y-97773314D01*
X162952024Y-97773312D01*
X162950457Y-97767755D01*
X162936115Y-97738672D01*
X162856200Y-97576618D01*
X162856197Y-97576614D01*
X162853645Y-97571438D01*
X162722677Y-97396052D01*
X162561941Y-97247468D01*
X162557058Y-97244387D01*
X162557054Y-97244384D01*
X162381702Y-97133746D01*
X162381703Y-97133746D01*
X162376819Y-97130665D01*
X162173511Y-97049554D01*
X161958827Y-97006850D01*
X161953052Y-97006774D01*
X161953048Y-97006774D01*
X161843302Y-97005338D01*
X161739955Y-97003985D01*
X161734258Y-97004964D01*
X161734257Y-97004964D01*
X161529923Y-97040075D01*
X161524226Y-97041054D01*
X161318865Y-97116816D01*
X161313904Y-97119768D01*
X161313903Y-97119768D01*
X161135717Y-97225777D01*
X161135714Y-97225779D01*
X161130749Y-97228733D01*
X160966178Y-97373058D01*
X160962603Y-97377593D01*
X160962602Y-97377594D01*
X160877685Y-97485311D01*
X160830664Y-97544956D01*
X160827976Y-97550065D01*
X160731435Y-97733560D01*
X160731433Y-97733565D01*
X160728746Y-97738672D01*
X160663836Y-97947716D01*
X160638108Y-98165090D01*
X159136833Y-98165090D01*
X159119749Y-97957289D01*
X159118064Y-97947109D01*
X159060875Y-97719429D01*
X159057555Y-97709678D01*
X158963944Y-97494386D01*
X158959077Y-97485311D01*
X158872688Y-97351773D01*
X158862003Y-97342570D01*
X158852436Y-97346974D01*
X158015822Y-98183588D01*
X158008208Y-98197532D01*
X157278156Y-98197532D01*
X157279392Y-98195268D01*
X157279261Y-98193435D01*
X157275010Y-98186820D01*
X156438295Y-97350105D01*
X156426759Y-97343805D01*
X156414476Y-97353429D01*
X156346293Y-97453381D01*
X156341200Y-97462345D01*
X156242357Y-97675284D01*
X156238800Y-97684952D01*
X156176065Y-97911168D01*
X156174134Y-97921288D01*
X156149187Y-98154726D01*
X156148935Y-98165015D01*
X154647018Y-98165015D01*
X154629873Y-97978428D01*
X154623912Y-97957289D01*
X154572025Y-97773314D01*
X154572024Y-97773312D01*
X154570457Y-97767755D01*
X154556115Y-97738672D01*
X154476200Y-97576618D01*
X154476197Y-97576614D01*
X154473645Y-97571438D01*
X154342677Y-97396052D01*
X154181941Y-97247468D01*
X154177058Y-97244387D01*
X154177054Y-97244384D01*
X154001702Y-97133746D01*
X154001703Y-97133746D01*
X153996819Y-97130665D01*
X153793511Y-97049554D01*
X153578827Y-97006850D01*
X153573052Y-97006774D01*
X153573048Y-97006774D01*
X153463302Y-97005338D01*
X153359955Y-97003985D01*
X153354258Y-97004964D01*
X153354257Y-97004964D01*
X153149923Y-97040075D01*
X153144226Y-97041054D01*
X152938865Y-97116816D01*
X152933904Y-97119768D01*
X152933903Y-97119768D01*
X152755717Y-97225777D01*
X152755714Y-97225779D01*
X152750749Y-97228733D01*
X152586178Y-97373058D01*
X152582603Y-97377593D01*
X152582602Y-97377594D01*
X152497685Y-97485311D01*
X152450664Y-97544956D01*
X152447976Y-97550065D01*
X152351435Y-97733560D01*
X152351433Y-97733565D01*
X152348746Y-97738672D01*
X152283836Y-97947716D01*
X152258108Y-98165090D01*
X148410500Y-98165090D01*
X148410500Y-96978185D01*
X156790381Y-96978185D01*
X156797125Y-96990515D01*
X157630988Y-97824378D01*
X157644932Y-97831992D01*
X157646765Y-97831861D01*
X157653380Y-97827610D01*
X158491530Y-96989460D01*
X158498550Y-96976604D01*
X158490776Y-96965934D01*
X158475515Y-96953881D01*
X158466932Y-96948178D01*
X158261410Y-96834725D01*
X158252011Y-96830500D01*
X158030722Y-96752137D01*
X158020752Y-96749503D01*
X157789639Y-96708337D01*
X157779385Y-96707367D01*
X157544642Y-96704498D01*
X157534358Y-96705218D01*
X157302309Y-96740727D01*
X157292281Y-96743116D01*
X157069147Y-96816047D01*
X157059638Y-96820044D01*
X156851412Y-96928440D01*
X156842694Y-96933929D01*
X156798834Y-96966860D01*
X156790381Y-96978185D01*
X148410500Y-96978185D01*
X148410500Y-95294524D01*
X176879909Y-95294524D01*
X176881073Y-95303426D01*
X176881073Y-95303429D01*
X176892696Y-95392314D01*
X176898795Y-95438952D01*
X176902409Y-95447165D01*
X176902410Y-95447169D01*
X176902837Y-95448139D01*
X176957459Y-95572274D01*
X176963234Y-95579144D01*
X176963235Y-95579146D01*
X176970740Y-95588074D01*
X177051183Y-95683773D01*
X177058660Y-95688750D01*
X177164961Y-95759510D01*
X177164963Y-95759511D01*
X177172434Y-95764484D01*
X177311464Y-95807921D01*
X177457098Y-95810590D01*
X177527362Y-95791434D01*
X177588963Y-95774639D01*
X177588964Y-95774639D01*
X177597626Y-95772277D01*
X177605959Y-95767161D01*
X177714102Y-95700761D01*
X177721754Y-95696063D01*
X177728374Y-95688750D01*
X177813473Y-95594734D01*
X177813474Y-95594733D01*
X177819501Y-95588074D01*
X177883010Y-95456991D01*
X177907176Y-95313352D01*
X177907329Y-95300800D01*
X177886680Y-95156613D01*
X177882962Y-95148435D01*
X177830108Y-95032190D01*
X177830107Y-95032188D01*
X177826392Y-95024018D01*
X177731313Y-94913673D01*
X177609085Y-94834448D01*
X177469534Y-94792714D01*
X177460558Y-94792659D01*
X177460557Y-94792659D01*
X177399244Y-94792285D01*
X177323879Y-94791824D01*
X177183829Y-94831851D01*
X177060642Y-94909576D01*
X176964222Y-95018751D01*
X176902319Y-95150600D01*
X176879909Y-95294524D01*
X148410500Y-95294524D01*
X148410500Y-91815090D01*
X152258108Y-91815090D01*
X152272424Y-92033512D01*
X152273845Y-92039108D01*
X152273846Y-92039113D01*
X152324884Y-92240072D01*
X152326305Y-92245667D01*
X152417945Y-92444451D01*
X152544277Y-92623206D01*
X152701069Y-92775946D01*
X152705865Y-92779151D01*
X152705868Y-92779153D01*
X152779633Y-92828441D01*
X152883069Y-92897555D01*
X152888372Y-92899833D01*
X152888375Y-92899835D01*
X152973180Y-92936270D01*
X153084184Y-92983961D01*
X153162017Y-93001573D01*
X153292040Y-93030994D01*
X153292045Y-93030995D01*
X153297677Y-93032269D01*
X153303448Y-93032496D01*
X153303450Y-93032496D01*
X153368810Y-93035064D01*
X153516399Y-93040863D01*
X153624712Y-93025158D01*
X153727310Y-93010283D01*
X153727315Y-93010282D01*
X153733024Y-93009454D01*
X153738488Y-93007599D01*
X153738493Y-93007598D01*
X153934827Y-92940952D01*
X153934832Y-92940950D01*
X153940299Y-92939094D01*
X154020204Y-92894345D01*
X154126233Y-92834966D01*
X154126237Y-92834963D01*
X154131280Y-92832139D01*
X154299572Y-92692172D01*
X154439539Y-92523880D01*
X154442363Y-92518837D01*
X154442366Y-92518833D01*
X154543670Y-92337942D01*
X154543671Y-92337940D01*
X154546494Y-92332899D01*
X154548350Y-92327432D01*
X154548352Y-92327427D01*
X154614998Y-92131093D01*
X154614999Y-92131088D01*
X154616854Y-92125624D01*
X154617682Y-92119915D01*
X154617683Y-92119910D01*
X154647730Y-91912673D01*
X154648263Y-91908999D01*
X154649902Y-91846400D01*
X154647025Y-91815090D01*
X156448108Y-91815090D01*
X156462424Y-92033512D01*
X156463845Y-92039108D01*
X156463846Y-92039113D01*
X156514884Y-92240072D01*
X156516305Y-92245667D01*
X156607945Y-92444451D01*
X156734277Y-92623206D01*
X156891069Y-92775946D01*
X156895865Y-92779151D01*
X156895868Y-92779153D01*
X156969633Y-92828441D01*
X157073069Y-92897555D01*
X157078372Y-92899833D01*
X157078375Y-92899835D01*
X157163180Y-92936270D01*
X157274184Y-92983961D01*
X157352017Y-93001573D01*
X157482040Y-93030994D01*
X157482045Y-93030995D01*
X157487677Y-93032269D01*
X157493448Y-93032496D01*
X157493450Y-93032496D01*
X157558810Y-93035064D01*
X157706399Y-93040863D01*
X157814712Y-93025158D01*
X157917310Y-93010283D01*
X157917315Y-93010282D01*
X157923024Y-93009454D01*
X157928488Y-93007599D01*
X157928493Y-93007598D01*
X158124827Y-92940952D01*
X158124832Y-92940950D01*
X158130299Y-92939094D01*
X158210204Y-92894345D01*
X158316233Y-92834966D01*
X158316237Y-92834963D01*
X158321280Y-92832139D01*
X158489572Y-92692172D01*
X158629539Y-92523880D01*
X158632363Y-92518837D01*
X158632366Y-92518833D01*
X158733670Y-92337942D01*
X158733671Y-92337940D01*
X158736494Y-92332899D01*
X158738350Y-92327432D01*
X158738352Y-92327427D01*
X158804998Y-92131093D01*
X158804999Y-92131088D01*
X158806854Y-92125624D01*
X158807682Y-92119915D01*
X158807683Y-92119910D01*
X158837730Y-91912673D01*
X158838263Y-91908999D01*
X158839902Y-91846400D01*
X158837025Y-91815090D01*
X160638108Y-91815090D01*
X160652424Y-92033512D01*
X160653845Y-92039108D01*
X160653846Y-92039113D01*
X160704884Y-92240072D01*
X160706305Y-92245667D01*
X160797945Y-92444451D01*
X160924277Y-92623206D01*
X161081069Y-92775946D01*
X161085865Y-92779151D01*
X161085868Y-92779153D01*
X161159633Y-92828441D01*
X161263069Y-92897555D01*
X161268372Y-92899833D01*
X161268375Y-92899835D01*
X161353180Y-92936270D01*
X161464184Y-92983961D01*
X161542017Y-93001573D01*
X161672040Y-93030994D01*
X161672045Y-93030995D01*
X161677677Y-93032269D01*
X161683448Y-93032496D01*
X161683450Y-93032496D01*
X161748810Y-93035064D01*
X161896399Y-93040863D01*
X162004712Y-93025158D01*
X162107310Y-93010283D01*
X162107315Y-93010282D01*
X162113024Y-93009454D01*
X162118488Y-93007599D01*
X162118493Y-93007598D01*
X162314827Y-92940952D01*
X162314832Y-92940950D01*
X162320299Y-92939094D01*
X162400204Y-92894345D01*
X162506233Y-92834966D01*
X162506237Y-92834963D01*
X162511280Y-92832139D01*
X162679572Y-92692172D01*
X162819539Y-92523880D01*
X162822363Y-92518837D01*
X162822366Y-92518833D01*
X162923670Y-92337942D01*
X162923671Y-92337940D01*
X162926494Y-92332899D01*
X162928350Y-92327432D01*
X162928352Y-92327427D01*
X162994998Y-92131093D01*
X162994999Y-92131088D01*
X162996854Y-92125624D01*
X162997682Y-92119915D01*
X162997683Y-92119910D01*
X163027730Y-91912673D01*
X163028263Y-91908999D01*
X163029902Y-91846400D01*
X163027025Y-91815090D01*
X164828108Y-91815090D01*
X164842424Y-92033512D01*
X164843845Y-92039108D01*
X164843846Y-92039113D01*
X164894884Y-92240072D01*
X164896305Y-92245667D01*
X164987945Y-92444451D01*
X165114277Y-92623206D01*
X165271069Y-92775946D01*
X165275865Y-92779151D01*
X165275868Y-92779153D01*
X165349633Y-92828441D01*
X165453069Y-92897555D01*
X165458372Y-92899833D01*
X165458375Y-92899835D01*
X165543180Y-92936270D01*
X165654184Y-92983961D01*
X165732017Y-93001573D01*
X165862040Y-93030994D01*
X165862045Y-93030995D01*
X165867677Y-93032269D01*
X165873448Y-93032496D01*
X165873450Y-93032496D01*
X165938810Y-93035064D01*
X166086399Y-93040863D01*
X166194712Y-93025158D01*
X166297310Y-93010283D01*
X166297315Y-93010282D01*
X166303024Y-93009454D01*
X166308488Y-93007599D01*
X166308493Y-93007598D01*
X166504827Y-92940952D01*
X166504832Y-92940950D01*
X166510299Y-92939094D01*
X166590204Y-92894345D01*
X166696233Y-92834966D01*
X166696237Y-92834963D01*
X166701280Y-92832139D01*
X166869572Y-92692172D01*
X167009539Y-92523880D01*
X167012363Y-92518837D01*
X167012366Y-92518833D01*
X167113670Y-92337942D01*
X167113671Y-92337940D01*
X167116494Y-92332899D01*
X167118350Y-92327432D01*
X167118352Y-92327427D01*
X167184998Y-92131093D01*
X167184999Y-92131088D01*
X167186854Y-92125624D01*
X167187682Y-92119915D01*
X167187683Y-92119910D01*
X167217730Y-91912673D01*
X167218263Y-91908999D01*
X167219902Y-91846400D01*
X167217025Y-91815090D01*
X169018108Y-91815090D01*
X169032424Y-92033512D01*
X169033845Y-92039108D01*
X169033846Y-92039113D01*
X169084884Y-92240072D01*
X169086305Y-92245667D01*
X169177945Y-92444451D01*
X169304277Y-92623206D01*
X169461069Y-92775946D01*
X169465865Y-92779151D01*
X169465868Y-92779153D01*
X169539633Y-92828441D01*
X169643069Y-92897555D01*
X169648372Y-92899833D01*
X169648375Y-92899835D01*
X169733180Y-92936270D01*
X169844184Y-92983961D01*
X169922017Y-93001573D01*
X170052040Y-93030994D01*
X170052045Y-93030995D01*
X170057677Y-93032269D01*
X170063448Y-93032496D01*
X170063450Y-93032496D01*
X170128810Y-93035064D01*
X170276399Y-93040863D01*
X170384712Y-93025158D01*
X170487310Y-93010283D01*
X170487315Y-93010282D01*
X170493024Y-93009454D01*
X170498488Y-93007599D01*
X170498493Y-93007598D01*
X170694827Y-92940952D01*
X170694832Y-92940950D01*
X170700299Y-92939094D01*
X170780204Y-92894345D01*
X170886233Y-92834966D01*
X170886237Y-92834963D01*
X170891280Y-92832139D01*
X171059572Y-92692172D01*
X171199539Y-92523880D01*
X171202363Y-92518837D01*
X171202366Y-92518833D01*
X171303670Y-92337942D01*
X171303671Y-92337940D01*
X171306494Y-92332899D01*
X171308350Y-92327432D01*
X171308352Y-92327427D01*
X171374998Y-92131093D01*
X171374999Y-92131088D01*
X171376854Y-92125624D01*
X171377682Y-92119915D01*
X171377683Y-92119910D01*
X171407730Y-91912673D01*
X171408263Y-91908999D01*
X171409902Y-91846400D01*
X171407025Y-91815090D01*
X173208108Y-91815090D01*
X173222424Y-92033512D01*
X173223845Y-92039108D01*
X173223846Y-92039113D01*
X173274884Y-92240072D01*
X173276305Y-92245667D01*
X173367945Y-92444451D01*
X173494277Y-92623206D01*
X173651069Y-92775946D01*
X173655865Y-92779151D01*
X173655868Y-92779153D01*
X173729633Y-92828441D01*
X173833069Y-92897555D01*
X173838372Y-92899833D01*
X173838375Y-92899835D01*
X173923180Y-92936270D01*
X174034184Y-92983961D01*
X174112017Y-93001573D01*
X174242040Y-93030994D01*
X174242045Y-93030995D01*
X174247677Y-93032269D01*
X174253448Y-93032496D01*
X174253450Y-93032496D01*
X174318810Y-93035064D01*
X174466399Y-93040863D01*
X174574712Y-93025158D01*
X174677310Y-93010283D01*
X174677315Y-93010282D01*
X174683024Y-93009454D01*
X174688488Y-93007599D01*
X174688493Y-93007598D01*
X174884827Y-92940952D01*
X174884832Y-92940950D01*
X174890299Y-92939094D01*
X174970204Y-92894345D01*
X175076233Y-92834966D01*
X175076237Y-92834963D01*
X175081280Y-92832139D01*
X175249572Y-92692172D01*
X175389539Y-92523880D01*
X175392363Y-92518837D01*
X175392366Y-92518833D01*
X175493670Y-92337942D01*
X175493671Y-92337940D01*
X175496494Y-92332899D01*
X175498350Y-92327432D01*
X175498352Y-92327427D01*
X175564998Y-92131093D01*
X175564999Y-92131088D01*
X175566854Y-92125624D01*
X175567682Y-92119915D01*
X175567683Y-92119910D01*
X175597730Y-91912673D01*
X175598263Y-91908999D01*
X175599902Y-91846400D01*
X175579873Y-91628428D01*
X175571212Y-91597716D01*
X175522025Y-91423314D01*
X175522024Y-91423312D01*
X175520457Y-91417755D01*
X175506115Y-91388672D01*
X175426200Y-91226618D01*
X175426197Y-91226614D01*
X175423645Y-91221438D01*
X175292677Y-91046052D01*
X175131941Y-90897468D01*
X175127058Y-90894387D01*
X175127054Y-90894384D01*
X174951702Y-90783746D01*
X174951703Y-90783746D01*
X174946819Y-90780665D01*
X174743511Y-90699554D01*
X174528827Y-90656850D01*
X174523052Y-90656774D01*
X174523048Y-90656774D01*
X174413302Y-90655338D01*
X174309955Y-90653985D01*
X174304258Y-90654964D01*
X174304257Y-90654964D01*
X174099923Y-90690075D01*
X174094226Y-90691054D01*
X173888865Y-90766816D01*
X173883904Y-90769768D01*
X173883903Y-90769768D01*
X173705717Y-90875777D01*
X173705714Y-90875779D01*
X173700749Y-90878733D01*
X173536178Y-91023058D01*
X173400664Y-91194956D01*
X173397976Y-91200065D01*
X173301435Y-91383560D01*
X173301433Y-91383565D01*
X173298746Y-91388672D01*
X173233836Y-91597716D01*
X173208108Y-91815090D01*
X171407025Y-91815090D01*
X171389873Y-91628428D01*
X171381212Y-91597716D01*
X171332025Y-91423314D01*
X171332024Y-91423312D01*
X171330457Y-91417755D01*
X171316115Y-91388672D01*
X171236200Y-91226618D01*
X171236197Y-91226614D01*
X171233645Y-91221438D01*
X171102677Y-91046052D01*
X170941941Y-90897468D01*
X170937058Y-90894387D01*
X170937054Y-90894384D01*
X170761702Y-90783746D01*
X170761703Y-90783746D01*
X170756819Y-90780665D01*
X170553511Y-90699554D01*
X170338827Y-90656850D01*
X170333052Y-90656774D01*
X170333048Y-90656774D01*
X170223302Y-90655338D01*
X170119955Y-90653985D01*
X170114258Y-90654964D01*
X170114257Y-90654964D01*
X169909923Y-90690075D01*
X169904226Y-90691054D01*
X169698865Y-90766816D01*
X169693904Y-90769768D01*
X169693903Y-90769768D01*
X169515717Y-90875777D01*
X169515714Y-90875779D01*
X169510749Y-90878733D01*
X169346178Y-91023058D01*
X169210664Y-91194956D01*
X169207976Y-91200065D01*
X169111435Y-91383560D01*
X169111433Y-91383565D01*
X169108746Y-91388672D01*
X169043836Y-91597716D01*
X169018108Y-91815090D01*
X167217025Y-91815090D01*
X167199873Y-91628428D01*
X167191212Y-91597716D01*
X167142025Y-91423314D01*
X167142024Y-91423312D01*
X167140457Y-91417755D01*
X167126115Y-91388672D01*
X167046200Y-91226618D01*
X167046197Y-91226614D01*
X167043645Y-91221438D01*
X166912677Y-91046052D01*
X166751941Y-90897468D01*
X166747058Y-90894387D01*
X166747054Y-90894384D01*
X166571702Y-90783746D01*
X166571703Y-90783746D01*
X166566819Y-90780665D01*
X166363511Y-90699554D01*
X166148827Y-90656850D01*
X166143052Y-90656774D01*
X166143048Y-90656774D01*
X166033302Y-90655338D01*
X165929955Y-90653985D01*
X165924258Y-90654964D01*
X165924257Y-90654964D01*
X165719923Y-90690075D01*
X165714226Y-90691054D01*
X165508865Y-90766816D01*
X165503904Y-90769768D01*
X165503903Y-90769768D01*
X165325717Y-90875777D01*
X165325714Y-90875779D01*
X165320749Y-90878733D01*
X165156178Y-91023058D01*
X165020664Y-91194956D01*
X165017976Y-91200065D01*
X164921435Y-91383560D01*
X164921433Y-91383565D01*
X164918746Y-91388672D01*
X164853836Y-91597716D01*
X164828108Y-91815090D01*
X163027025Y-91815090D01*
X163009873Y-91628428D01*
X163001212Y-91597716D01*
X162952025Y-91423314D01*
X162952024Y-91423312D01*
X162950457Y-91417755D01*
X162936115Y-91388672D01*
X162856200Y-91226618D01*
X162856197Y-91226614D01*
X162853645Y-91221438D01*
X162722677Y-91046052D01*
X162561941Y-90897468D01*
X162557058Y-90894387D01*
X162557054Y-90894384D01*
X162381702Y-90783746D01*
X162381703Y-90783746D01*
X162376819Y-90780665D01*
X162173511Y-90699554D01*
X161958827Y-90656850D01*
X161953052Y-90656774D01*
X161953048Y-90656774D01*
X161843302Y-90655338D01*
X161739955Y-90653985D01*
X161734258Y-90654964D01*
X161734257Y-90654964D01*
X161529923Y-90690075D01*
X161524226Y-90691054D01*
X161318865Y-90766816D01*
X161313904Y-90769768D01*
X161313903Y-90769768D01*
X161135717Y-90875777D01*
X161135714Y-90875779D01*
X161130749Y-90878733D01*
X160966178Y-91023058D01*
X160830664Y-91194956D01*
X160827976Y-91200065D01*
X160731435Y-91383560D01*
X160731433Y-91383565D01*
X160728746Y-91388672D01*
X160663836Y-91597716D01*
X160638108Y-91815090D01*
X158837025Y-91815090D01*
X158819873Y-91628428D01*
X158811212Y-91597716D01*
X158762025Y-91423314D01*
X158762024Y-91423312D01*
X158760457Y-91417755D01*
X158746115Y-91388672D01*
X158666200Y-91226618D01*
X158666197Y-91226614D01*
X158663645Y-91221438D01*
X158532677Y-91046052D01*
X158371941Y-90897468D01*
X158367058Y-90894387D01*
X158367054Y-90894384D01*
X158191702Y-90783746D01*
X158191703Y-90783746D01*
X158186819Y-90780665D01*
X157983511Y-90699554D01*
X157768827Y-90656850D01*
X157763052Y-90656774D01*
X157763048Y-90656774D01*
X157653302Y-90655338D01*
X157549955Y-90653985D01*
X157544258Y-90654964D01*
X157544257Y-90654964D01*
X157339923Y-90690075D01*
X157334226Y-90691054D01*
X157128865Y-90766816D01*
X157123904Y-90769768D01*
X157123903Y-90769768D01*
X156945717Y-90875777D01*
X156945714Y-90875779D01*
X156940749Y-90878733D01*
X156776178Y-91023058D01*
X156640664Y-91194956D01*
X156637976Y-91200065D01*
X156541435Y-91383560D01*
X156541433Y-91383565D01*
X156538746Y-91388672D01*
X156473836Y-91597716D01*
X156448108Y-91815090D01*
X154647025Y-91815090D01*
X154629873Y-91628428D01*
X154621212Y-91597716D01*
X154572025Y-91423314D01*
X154572024Y-91423312D01*
X154570457Y-91417755D01*
X154556115Y-91388672D01*
X154476200Y-91226618D01*
X154476197Y-91226614D01*
X154473645Y-91221438D01*
X154342677Y-91046052D01*
X154181941Y-90897468D01*
X154177058Y-90894387D01*
X154177054Y-90894384D01*
X154001702Y-90783746D01*
X154001703Y-90783746D01*
X153996819Y-90780665D01*
X153793511Y-90699554D01*
X153578827Y-90656850D01*
X153573052Y-90656774D01*
X153573048Y-90656774D01*
X153463302Y-90655338D01*
X153359955Y-90653985D01*
X153354258Y-90654964D01*
X153354257Y-90654964D01*
X153149923Y-90690075D01*
X153144226Y-90691054D01*
X152938865Y-90766816D01*
X152933904Y-90769768D01*
X152933903Y-90769768D01*
X152755717Y-90875777D01*
X152755714Y-90875779D01*
X152750749Y-90878733D01*
X152586178Y-91023058D01*
X152450664Y-91194956D01*
X152447976Y-91200065D01*
X152351435Y-91383560D01*
X152351433Y-91383565D01*
X152348746Y-91388672D01*
X152283836Y-91597716D01*
X152258108Y-91815090D01*
X148410500Y-91815090D01*
X148410500Y-85496400D01*
X152487776Y-85496400D01*
X152507852Y-85815501D01*
X152567764Y-86129570D01*
X152666567Y-86433654D01*
X152668254Y-86437240D01*
X152668256Y-86437244D01*
X152801014Y-86719370D01*
X152801018Y-86719377D01*
X152802702Y-86722956D01*
X152974023Y-86992915D01*
X153177828Y-87239273D01*
X153410903Y-87458145D01*
X153669572Y-87646079D01*
X153949756Y-87800111D01*
X154247035Y-87917813D01*
X154556723Y-87997327D01*
X154873934Y-88037400D01*
X155193666Y-88037400D01*
X155510877Y-87997327D01*
X155820565Y-87917813D01*
X156117844Y-87800111D01*
X156398028Y-87646079D01*
X156656697Y-87458145D01*
X156889772Y-87239273D01*
X157093577Y-86992915D01*
X157264898Y-86722956D01*
X157266582Y-86719377D01*
X157266586Y-86719370D01*
X157399344Y-86437244D01*
X157399346Y-86437240D01*
X157401033Y-86433654D01*
X157499836Y-86129570D01*
X157559748Y-85815501D01*
X157579824Y-85496400D01*
X170267776Y-85496400D01*
X170287852Y-85815501D01*
X170347764Y-86129570D01*
X170446567Y-86433654D01*
X170448254Y-86437240D01*
X170448256Y-86437244D01*
X170581014Y-86719370D01*
X170581018Y-86719377D01*
X170582702Y-86722956D01*
X170754023Y-86992915D01*
X170957828Y-87239273D01*
X171190903Y-87458145D01*
X171449572Y-87646079D01*
X171729756Y-87800111D01*
X172027035Y-87917813D01*
X172336723Y-87997327D01*
X172653934Y-88037400D01*
X172973666Y-88037400D01*
X173290877Y-87997327D01*
X173600565Y-87917813D01*
X173897844Y-87800111D01*
X174178028Y-87646079D01*
X174436697Y-87458145D01*
X174669772Y-87239273D01*
X174873577Y-86992915D01*
X175044898Y-86722956D01*
X175046582Y-86719377D01*
X175046586Y-86719370D01*
X175179344Y-86437244D01*
X175179346Y-86437240D01*
X175181033Y-86433654D01*
X175279836Y-86129570D01*
X175339748Y-85815501D01*
X175359824Y-85496400D01*
X175339748Y-85177299D01*
X175279836Y-84863230D01*
X175181033Y-84559146D01*
X175179344Y-84555556D01*
X175046586Y-84273430D01*
X175046582Y-84273423D01*
X175044898Y-84269844D01*
X174873577Y-83999885D01*
X174669772Y-83753527D01*
X174436697Y-83534655D01*
X174178028Y-83346721D01*
X174127193Y-83318774D01*
X173901306Y-83194592D01*
X173901303Y-83194591D01*
X173897844Y-83192689D01*
X173600565Y-83074987D01*
X173290877Y-82995473D01*
X172973666Y-82955400D01*
X172653934Y-82955400D01*
X172336723Y-82995473D01*
X172027035Y-83074987D01*
X171729756Y-83192689D01*
X171726297Y-83194591D01*
X171726294Y-83194592D01*
X171500408Y-83318774D01*
X171449572Y-83346721D01*
X171190903Y-83534655D01*
X170957828Y-83753527D01*
X170754023Y-83999885D01*
X170582702Y-84269844D01*
X170581018Y-84273423D01*
X170581014Y-84273430D01*
X170448256Y-84555556D01*
X170446567Y-84559146D01*
X170347764Y-84863230D01*
X170287852Y-85177299D01*
X170267776Y-85496400D01*
X157579824Y-85496400D01*
X157559748Y-85177299D01*
X157499836Y-84863230D01*
X157401033Y-84559146D01*
X157399344Y-84555556D01*
X157266586Y-84273430D01*
X157266582Y-84273423D01*
X157264898Y-84269844D01*
X157093577Y-83999885D01*
X156889772Y-83753527D01*
X156656697Y-83534655D01*
X156398028Y-83346721D01*
X156347193Y-83318774D01*
X156121306Y-83194592D01*
X156121303Y-83194591D01*
X156117844Y-83192689D01*
X155820565Y-83074987D01*
X155510877Y-82995473D01*
X155193666Y-82955400D01*
X154873934Y-82955400D01*
X154556723Y-82995473D01*
X154247035Y-83074987D01*
X153949756Y-83192689D01*
X153946297Y-83194591D01*
X153946294Y-83194592D01*
X153720408Y-83318774D01*
X153669572Y-83346721D01*
X153410903Y-83534655D01*
X153177828Y-83753527D01*
X152974023Y-83999885D01*
X152802702Y-84269844D01*
X152801018Y-84273423D01*
X152801014Y-84273430D01*
X152668256Y-84555556D01*
X152666567Y-84559146D01*
X152567764Y-84863230D01*
X152507852Y-85177299D01*
X152487776Y-85496400D01*
X148410500Y-85496400D01*
X148410500Y-84076379D01*
X148412317Y-84061352D01*
X148412451Y-84053191D01*
X148415833Y-84039413D01*
X148412906Y-84025533D01*
X148413082Y-84014831D01*
X148413602Y-84005283D01*
X148430636Y-83821636D01*
X148433953Y-83802350D01*
X148434397Y-83800600D01*
X148485135Y-83600308D01*
X148491406Y-83581752D01*
X148573281Y-83390087D01*
X148582353Y-83372726D01*
X148692944Y-83196068D01*
X148704596Y-83180324D01*
X148794783Y-83076440D01*
X148841231Y-83022938D01*
X148855181Y-83009192D01*
X149014560Y-82874883D01*
X149030471Y-82863465D01*
X149208744Y-82755479D01*
X149226227Y-82746668D01*
X149419078Y-82667618D01*
X149437725Y-82661620D01*
X149442996Y-82660367D01*
X149640502Y-82613413D01*
X149659844Y-82610380D01*
X149740952Y-82604058D01*
X149844990Y-82595949D01*
X149855002Y-82595568D01*
X149863231Y-82595582D01*
X149877056Y-82598762D01*
X149890894Y-82595631D01*
X149894798Y-82595638D01*
X149914832Y-82593400D01*
X178114810Y-82593400D01*
X178133961Y-82595574D01*
G37*
%TD.AperFunction*%
%TD*%
M02*
