%TF.GenerationSoftware,KiCad,Pcbnew,(6.0.8)*%
%TF.CreationDate,2023-03-20T22:14:44+01:00*%
%TF.ProjectId,BSPD-07,42535044-2d30-4372-9e6b-696361645f70,rev?*%
%TF.SameCoordinates,Original*%
%TF.FileFunction,Legend,Top*%
%TF.FilePolarity,Positive*%
%FSLAX46Y46*%
G04 Gerber Fmt 4.6, Leading zero omitted, Abs format (unit mm)*
G04 Created by KiCad (PCBNEW (6.0.8)) date 2023-03-20 22:14:44*
%MOMM*%
%LPD*%
G01*
G04 APERTURE LIST*
%ADD10C,0.150000*%
%ADD11C,0.120000*%
%ADD12C,0.100000*%
%ADD13C,0.200000*%
%ADD14C,0.250000*%
%ADD15C,0.300000*%
G04 APERTURE END LIST*
D10*
X155050609Y-120746780D02*
X155050609Y-119746780D01*
X155288704Y-119746780D01*
X155431561Y-119794400D01*
X155526800Y-119889638D01*
X155574419Y-119984876D01*
X155622038Y-120175352D01*
X155622038Y-120318209D01*
X155574419Y-120508685D01*
X155526800Y-120603923D01*
X155431561Y-120699161D01*
X155288704Y-120746780D01*
X155050609Y-120746780D01*
X156050609Y-120222971D02*
X156383942Y-120222971D01*
X156526800Y-120746780D02*
X156050609Y-120746780D01*
X156050609Y-119746780D01*
X156526800Y-119746780D01*
X157431561Y-120746780D02*
X156955371Y-120746780D01*
X156955371Y-119746780D01*
X157717276Y-120461066D02*
X158193466Y-120461066D01*
X157622038Y-120746780D02*
X157955371Y-119746780D01*
X158288704Y-120746780D01*
X158812514Y-120270590D02*
X158812514Y-120746780D01*
X158479180Y-119746780D02*
X158812514Y-120270590D01*
X159145847Y-119746780D01*
X155217276Y-111586971D02*
X155360133Y-111634590D01*
X155407752Y-111682209D01*
X155455371Y-111777447D01*
X155455371Y-111920304D01*
X155407752Y-112015542D01*
X155360133Y-112063161D01*
X155264895Y-112110780D01*
X154883942Y-112110780D01*
X154883942Y-111110780D01*
X155217276Y-111110780D01*
X155312514Y-111158400D01*
X155360133Y-111206019D01*
X155407752Y-111301257D01*
X155407752Y-111396495D01*
X155360133Y-111491733D01*
X155312514Y-111539352D01*
X155217276Y-111586971D01*
X154883942Y-111586971D01*
X156455371Y-112110780D02*
X156122038Y-111634590D01*
X155883942Y-112110780D02*
X155883942Y-111110780D01*
X156264895Y-111110780D01*
X156360133Y-111158400D01*
X156407752Y-111206019D01*
X156455371Y-111301257D01*
X156455371Y-111444114D01*
X156407752Y-111539352D01*
X156360133Y-111586971D01*
X156264895Y-111634590D01*
X155883942Y-111634590D01*
X156836323Y-111825066D02*
X157312514Y-111825066D01*
X156741085Y-112110780D02*
X157074419Y-111110780D01*
X157407752Y-112110780D01*
X157741085Y-112110780D02*
X157741085Y-111110780D01*
X158312514Y-112110780D02*
X157883942Y-111539352D01*
X158312514Y-111110780D02*
X157741085Y-111682209D01*
X158741085Y-111586971D02*
X159074419Y-111586971D01*
X159217276Y-112110780D02*
X158741085Y-112110780D01*
X158741085Y-111110780D01*
X159217276Y-111110780D01*
X155764895Y-103490780D02*
X156336323Y-103490780D01*
X156050609Y-104490780D02*
X156050609Y-103490780D01*
X156669657Y-104490780D02*
X156669657Y-103490780D01*
X157050609Y-103490780D01*
X157145847Y-103538400D01*
X157193466Y-103586019D01*
X157241085Y-103681257D01*
X157241085Y-103824114D01*
X157193466Y-103919352D01*
X157145847Y-103966971D01*
X157050609Y-104014590D01*
X156669657Y-104014590D01*
X157622038Y-104443161D02*
X157764895Y-104490780D01*
X158002990Y-104490780D01*
X158098228Y-104443161D01*
X158145847Y-104395542D01*
X158193466Y-104300304D01*
X158193466Y-104205066D01*
X158145847Y-104109828D01*
X158098228Y-104062209D01*
X158002990Y-104014590D01*
X157812514Y-103966971D01*
X157717276Y-103919352D01*
X157669657Y-103871733D01*
X157622038Y-103776495D01*
X157622038Y-103681257D01*
X157669657Y-103586019D01*
X157717276Y-103538400D01*
X157812514Y-103490780D01*
X158050609Y-103490780D01*
X158193466Y-103538400D01*
%TO.C,TP2*%
X163889657Y-111913828D02*
X164232514Y-111913828D01*
X164061085Y-112513828D02*
X164061085Y-111913828D01*
X164432514Y-112513828D02*
X164432514Y-111913828D01*
X164661085Y-111913828D01*
X164718228Y-111942400D01*
X164746800Y-111970971D01*
X164775371Y-112028114D01*
X164775371Y-112113828D01*
X164746800Y-112170971D01*
X164718228Y-112199542D01*
X164661085Y-112228114D01*
X164432514Y-112228114D01*
X165003942Y-111970971D02*
X165032514Y-111942400D01*
X165089657Y-111913828D01*
X165232514Y-111913828D01*
X165289657Y-111942400D01*
X165318228Y-111970971D01*
X165346800Y-112028114D01*
X165346800Y-112085257D01*
X165318228Y-112170971D01*
X164975371Y-112513828D01*
X165346800Y-112513828D01*
%TO.C,R18*%
X148671371Y-124099685D02*
X148957085Y-123899685D01*
X148671371Y-123756828D02*
X149271371Y-123756828D01*
X149271371Y-123985400D01*
X149242800Y-124042542D01*
X149214228Y-124071114D01*
X149157085Y-124099685D01*
X149071371Y-124099685D01*
X149014228Y-124071114D01*
X148985657Y-124042542D01*
X148957085Y-123985400D01*
X148957085Y-123756828D01*
X148671371Y-124671114D02*
X148671371Y-124328257D01*
X148671371Y-124499685D02*
X149271371Y-124499685D01*
X149185657Y-124442542D01*
X149128514Y-124385400D01*
X149099942Y-124328257D01*
X149014228Y-125013971D02*
X149042800Y-124956828D01*
X149071371Y-124928257D01*
X149128514Y-124899685D01*
X149157085Y-124899685D01*
X149214228Y-124928257D01*
X149242800Y-124956828D01*
X149271371Y-125013971D01*
X149271371Y-125128257D01*
X149242800Y-125185400D01*
X149214228Y-125213971D01*
X149157085Y-125242542D01*
X149128514Y-125242542D01*
X149071371Y-125213971D01*
X149042800Y-125185400D01*
X149014228Y-125128257D01*
X149014228Y-125013971D01*
X148985657Y-124956828D01*
X148957085Y-124928257D01*
X148899942Y-124899685D01*
X148785657Y-124899685D01*
X148728514Y-124928257D01*
X148699942Y-124956828D01*
X148671371Y-125013971D01*
X148671371Y-125128257D01*
X148699942Y-125185400D01*
X148728514Y-125213971D01*
X148785657Y-125242542D01*
X148899942Y-125242542D01*
X148957085Y-125213971D01*
X148985657Y-125185400D01*
X149014228Y-125128257D01*
%TO.C,R23*%
X176011228Y-124617114D02*
X175725514Y-124817114D01*
X176011228Y-124959971D02*
X175411228Y-124959971D01*
X175411228Y-124731400D01*
X175439800Y-124674257D01*
X175468371Y-124645685D01*
X175525514Y-124617114D01*
X175611228Y-124617114D01*
X175668371Y-124645685D01*
X175696942Y-124674257D01*
X175725514Y-124731400D01*
X175725514Y-124959971D01*
X175468371Y-124388542D02*
X175439800Y-124359971D01*
X175411228Y-124302828D01*
X175411228Y-124159971D01*
X175439800Y-124102828D01*
X175468371Y-124074257D01*
X175525514Y-124045685D01*
X175582657Y-124045685D01*
X175668371Y-124074257D01*
X176011228Y-124417114D01*
X176011228Y-124045685D01*
X175411228Y-123845685D02*
X175411228Y-123474257D01*
X175639800Y-123674257D01*
X175639800Y-123588542D01*
X175668371Y-123531400D01*
X175696942Y-123502828D01*
X175754085Y-123474257D01*
X175896942Y-123474257D01*
X175954085Y-123502828D01*
X175982657Y-123531400D01*
X176011228Y-123588542D01*
X176011228Y-123759971D01*
X175982657Y-123817114D01*
X175954085Y-123845685D01*
%TO.C,R15*%
X161663485Y-133037228D02*
X161463485Y-132751514D01*
X161320628Y-133037228D02*
X161320628Y-132437228D01*
X161549200Y-132437228D01*
X161606342Y-132465800D01*
X161634914Y-132494371D01*
X161663485Y-132551514D01*
X161663485Y-132637228D01*
X161634914Y-132694371D01*
X161606342Y-132722942D01*
X161549200Y-132751514D01*
X161320628Y-132751514D01*
X162234914Y-133037228D02*
X161892057Y-133037228D01*
X162063485Y-133037228D02*
X162063485Y-132437228D01*
X162006342Y-132522942D01*
X161949200Y-132580085D01*
X161892057Y-132608657D01*
X162777771Y-132437228D02*
X162492057Y-132437228D01*
X162463485Y-132722942D01*
X162492057Y-132694371D01*
X162549200Y-132665800D01*
X162692057Y-132665800D01*
X162749200Y-132694371D01*
X162777771Y-132722942D01*
X162806342Y-132780085D01*
X162806342Y-132922942D01*
X162777771Y-132980085D01*
X162749200Y-133008657D01*
X162692057Y-133037228D01*
X162549200Y-133037228D01*
X162492057Y-133008657D01*
X162463485Y-132980085D01*
%TO.C,C5*%
X160206085Y-128649400D02*
X160234657Y-128677971D01*
X160263228Y-128763685D01*
X160263228Y-128820828D01*
X160234657Y-128906542D01*
X160177514Y-128963685D01*
X160120371Y-128992257D01*
X160006085Y-129020828D01*
X159920371Y-129020828D01*
X159806085Y-128992257D01*
X159748942Y-128963685D01*
X159691800Y-128906542D01*
X159663228Y-128820828D01*
X159663228Y-128763685D01*
X159691800Y-128677971D01*
X159720371Y-128649400D01*
X159663228Y-128106542D02*
X159663228Y-128392257D01*
X159948942Y-128420828D01*
X159920371Y-128392257D01*
X159891800Y-128335114D01*
X159891800Y-128192257D01*
X159920371Y-128135114D01*
X159948942Y-128106542D01*
X160006085Y-128077971D01*
X160148942Y-128077971D01*
X160206085Y-128106542D01*
X160234657Y-128135114D01*
X160263228Y-128192257D01*
X160263228Y-128335114D01*
X160234657Y-128392257D01*
X160206085Y-128420828D01*
%TO.C,D2*%
X150898228Y-118197257D02*
X150298228Y-118197257D01*
X150298228Y-118054400D01*
X150326800Y-117968685D01*
X150383942Y-117911542D01*
X150441085Y-117882971D01*
X150555371Y-117854400D01*
X150641085Y-117854400D01*
X150755371Y-117882971D01*
X150812514Y-117911542D01*
X150869657Y-117968685D01*
X150898228Y-118054400D01*
X150898228Y-118197257D01*
X150355371Y-117625828D02*
X150326800Y-117597257D01*
X150298228Y-117540114D01*
X150298228Y-117397257D01*
X150326800Y-117340114D01*
X150355371Y-117311542D01*
X150412514Y-117282971D01*
X150469657Y-117282971D01*
X150555371Y-117311542D01*
X150898228Y-117654400D01*
X150898228Y-117282971D01*
%TO.C,R4*%
X161870228Y-110234400D02*
X161584514Y-110434400D01*
X161870228Y-110577257D02*
X161270228Y-110577257D01*
X161270228Y-110348685D01*
X161298800Y-110291542D01*
X161327371Y-110262971D01*
X161384514Y-110234400D01*
X161470228Y-110234400D01*
X161527371Y-110262971D01*
X161555942Y-110291542D01*
X161584514Y-110348685D01*
X161584514Y-110577257D01*
X161470228Y-109720114D02*
X161870228Y-109720114D01*
X161241657Y-109862971D02*
X161670228Y-110005828D01*
X161670228Y-109634400D01*
%TO.C,RV1*%
X173055371Y-110578257D02*
X173341085Y-110378257D01*
X173055371Y-110235400D02*
X173655371Y-110235400D01*
X173655371Y-110463971D01*
X173626800Y-110521114D01*
X173598228Y-110549685D01*
X173541085Y-110578257D01*
X173455371Y-110578257D01*
X173398228Y-110549685D01*
X173369657Y-110521114D01*
X173341085Y-110463971D01*
X173341085Y-110235400D01*
X173655371Y-110749685D02*
X173055371Y-110949685D01*
X173655371Y-111149685D01*
X173055371Y-111663971D02*
X173055371Y-111321114D01*
X173055371Y-111492542D02*
X173655371Y-111492542D01*
X173569657Y-111435400D01*
X173512514Y-111378257D01*
X173483942Y-111321114D01*
%TO.C,IC1*%
X156520085Y-107865828D02*
X156520085Y-107265828D01*
X157148657Y-107808685D02*
X157120085Y-107837257D01*
X157034371Y-107865828D01*
X156977228Y-107865828D01*
X156891514Y-107837257D01*
X156834371Y-107780114D01*
X156805800Y-107722971D01*
X156777228Y-107608685D01*
X156777228Y-107522971D01*
X156805800Y-107408685D01*
X156834371Y-107351542D01*
X156891514Y-107294400D01*
X156977228Y-107265828D01*
X157034371Y-107265828D01*
X157120085Y-107294400D01*
X157148657Y-107322971D01*
X157720085Y-107865828D02*
X157377228Y-107865828D01*
X157548657Y-107865828D02*
X157548657Y-107265828D01*
X157491514Y-107351542D01*
X157434371Y-107408685D01*
X157377228Y-107437257D01*
%TO.C,C4*%
X152332085Y-125093400D02*
X152360657Y-125121971D01*
X152389228Y-125207685D01*
X152389228Y-125264828D01*
X152360657Y-125350542D01*
X152303514Y-125407685D01*
X152246371Y-125436257D01*
X152132085Y-125464828D01*
X152046371Y-125464828D01*
X151932085Y-125436257D01*
X151874942Y-125407685D01*
X151817800Y-125350542D01*
X151789228Y-125264828D01*
X151789228Y-125207685D01*
X151817800Y-125121971D01*
X151846371Y-125093400D01*
X151989228Y-124579114D02*
X152389228Y-124579114D01*
X151760657Y-124721971D02*
X152189228Y-124864828D01*
X152189228Y-124493400D01*
%TO.C,C3*%
X164226085Y-120714400D02*
X164254657Y-120742971D01*
X164283228Y-120828685D01*
X164283228Y-120885828D01*
X164254657Y-120971542D01*
X164197514Y-121028685D01*
X164140371Y-121057257D01*
X164026085Y-121085828D01*
X163940371Y-121085828D01*
X163826085Y-121057257D01*
X163768942Y-121028685D01*
X163711800Y-120971542D01*
X163683228Y-120885828D01*
X163683228Y-120828685D01*
X163711800Y-120742971D01*
X163740371Y-120714400D01*
X163683228Y-120514400D02*
X163683228Y-120142971D01*
X163911800Y-120342971D01*
X163911800Y-120257257D01*
X163940371Y-120200114D01*
X163968942Y-120171542D01*
X164026085Y-120142971D01*
X164168942Y-120142971D01*
X164226085Y-120171542D01*
X164254657Y-120200114D01*
X164283228Y-120257257D01*
X164283228Y-120428685D01*
X164254657Y-120485828D01*
X164226085Y-120514400D01*
%TO.C,R5*%
X152218228Y-117854400D02*
X151932514Y-118054400D01*
X152218228Y-118197257D02*
X151618228Y-118197257D01*
X151618228Y-117968685D01*
X151646800Y-117911542D01*
X151675371Y-117882971D01*
X151732514Y-117854400D01*
X151818228Y-117854400D01*
X151875371Y-117882971D01*
X151903942Y-117911542D01*
X151932514Y-117968685D01*
X151932514Y-118197257D01*
X151618228Y-117311542D02*
X151618228Y-117597257D01*
X151903942Y-117625828D01*
X151875371Y-117597257D01*
X151846800Y-117540114D01*
X151846800Y-117397257D01*
X151875371Y-117340114D01*
X151903942Y-117311542D01*
X151961085Y-117282971D01*
X152103942Y-117282971D01*
X152161085Y-117311542D01*
X152189657Y-117340114D01*
X152218228Y-117397257D01*
X152218228Y-117540114D01*
X152189657Y-117597257D01*
X152161085Y-117625828D01*
%TO.C,R12*%
X166696228Y-124998114D02*
X166410514Y-125198114D01*
X166696228Y-125340971D02*
X166096228Y-125340971D01*
X166096228Y-125112400D01*
X166124800Y-125055257D01*
X166153371Y-125026685D01*
X166210514Y-124998114D01*
X166296228Y-124998114D01*
X166353371Y-125026685D01*
X166381942Y-125055257D01*
X166410514Y-125112400D01*
X166410514Y-125340971D01*
X166696228Y-124426685D02*
X166696228Y-124769542D01*
X166696228Y-124598114D02*
X166096228Y-124598114D01*
X166181942Y-124655257D01*
X166239085Y-124712400D01*
X166267657Y-124769542D01*
X166153371Y-124198114D02*
X166124800Y-124169542D01*
X166096228Y-124112400D01*
X166096228Y-123969542D01*
X166124800Y-123912400D01*
X166153371Y-123883828D01*
X166210514Y-123855257D01*
X166267657Y-123855257D01*
X166353371Y-123883828D01*
X166696228Y-124226685D01*
X166696228Y-123855257D01*
%TO.C,R7*%
X163140228Y-110234400D02*
X162854514Y-110434400D01*
X163140228Y-110577257D02*
X162540228Y-110577257D01*
X162540228Y-110348685D01*
X162568800Y-110291542D01*
X162597371Y-110262971D01*
X162654514Y-110234400D01*
X162740228Y-110234400D01*
X162797371Y-110262971D01*
X162825942Y-110291542D01*
X162854514Y-110348685D01*
X162854514Y-110577257D01*
X162540228Y-110034400D02*
X162540228Y-109634400D01*
X163140228Y-109891542D01*
%TO.C,R20*%
X151859085Y-129582828D02*
X151659085Y-129297114D01*
X151516228Y-129582828D02*
X151516228Y-128982828D01*
X151744800Y-128982828D01*
X151801942Y-129011400D01*
X151830514Y-129039971D01*
X151859085Y-129097114D01*
X151859085Y-129182828D01*
X151830514Y-129239971D01*
X151801942Y-129268542D01*
X151744800Y-129297114D01*
X151516228Y-129297114D01*
X152087657Y-129039971D02*
X152116228Y-129011400D01*
X152173371Y-128982828D01*
X152316228Y-128982828D01*
X152373371Y-129011400D01*
X152401942Y-129039971D01*
X152430514Y-129097114D01*
X152430514Y-129154257D01*
X152401942Y-129239971D01*
X152059085Y-129582828D01*
X152430514Y-129582828D01*
X152801942Y-128982828D02*
X152859085Y-128982828D01*
X152916228Y-129011400D01*
X152944800Y-129039971D01*
X152973371Y-129097114D01*
X153001942Y-129211400D01*
X153001942Y-129354257D01*
X152973371Y-129468542D01*
X152944800Y-129525685D01*
X152916228Y-129554257D01*
X152859085Y-129582828D01*
X152801942Y-129582828D01*
X152744800Y-129554257D01*
X152716228Y-129525685D01*
X152687657Y-129468542D01*
X152659085Y-129354257D01*
X152659085Y-129211400D01*
X152687657Y-129097114D01*
X152716228Y-129039971D01*
X152744800Y-129011400D01*
X152801942Y-128982828D01*
%TO.C,R11*%
X161870228Y-121127114D02*
X161584514Y-121327114D01*
X161870228Y-121469971D02*
X161270228Y-121469971D01*
X161270228Y-121241400D01*
X161298800Y-121184257D01*
X161327371Y-121155685D01*
X161384514Y-121127114D01*
X161470228Y-121127114D01*
X161527371Y-121155685D01*
X161555942Y-121184257D01*
X161584514Y-121241400D01*
X161584514Y-121469971D01*
X161870228Y-120555685D02*
X161870228Y-120898542D01*
X161870228Y-120727114D02*
X161270228Y-120727114D01*
X161355942Y-120784257D01*
X161413085Y-120841400D01*
X161441657Y-120898542D01*
X161870228Y-119984257D02*
X161870228Y-120327114D01*
X161870228Y-120155685D02*
X161270228Y-120155685D01*
X161355942Y-120212828D01*
X161413085Y-120269971D01*
X161441657Y-120327114D01*
%TO.C,R21*%
X156431085Y-133900828D02*
X156231085Y-133615114D01*
X156088228Y-133900828D02*
X156088228Y-133300828D01*
X156316800Y-133300828D01*
X156373942Y-133329400D01*
X156402514Y-133357971D01*
X156431085Y-133415114D01*
X156431085Y-133500828D01*
X156402514Y-133557971D01*
X156373942Y-133586542D01*
X156316800Y-133615114D01*
X156088228Y-133615114D01*
X156659657Y-133357971D02*
X156688228Y-133329400D01*
X156745371Y-133300828D01*
X156888228Y-133300828D01*
X156945371Y-133329400D01*
X156973942Y-133357971D01*
X157002514Y-133415114D01*
X157002514Y-133472257D01*
X156973942Y-133557971D01*
X156631085Y-133900828D01*
X157002514Y-133900828D01*
X157573942Y-133900828D02*
X157231085Y-133900828D01*
X157402514Y-133900828D02*
X157402514Y-133300828D01*
X157345371Y-133386542D01*
X157288228Y-133443685D01*
X157231085Y-133472257D01*
%TO.C,IC2*%
X156441085Y-115485828D02*
X156441085Y-114885828D01*
X157069657Y-115428685D02*
X157041085Y-115457257D01*
X156955371Y-115485828D01*
X156898228Y-115485828D01*
X156812514Y-115457257D01*
X156755371Y-115400114D01*
X156726800Y-115342971D01*
X156698228Y-115228685D01*
X156698228Y-115142971D01*
X156726800Y-115028685D01*
X156755371Y-114971542D01*
X156812514Y-114914400D01*
X156898228Y-114885828D01*
X156955371Y-114885828D01*
X157041085Y-114914400D01*
X157069657Y-114942971D01*
X157298228Y-114942971D02*
X157326800Y-114914400D01*
X157383942Y-114885828D01*
X157526800Y-114885828D01*
X157583942Y-114914400D01*
X157612514Y-114942971D01*
X157641085Y-115000114D01*
X157641085Y-115057257D01*
X157612514Y-115142971D01*
X157269657Y-115485828D01*
X157641085Y-115485828D01*
%TO.C,IC4*%
X171725085Y-103166828D02*
X171725085Y-102566828D01*
X172353657Y-103109685D02*
X172325085Y-103138257D01*
X172239371Y-103166828D01*
X172182228Y-103166828D01*
X172096514Y-103138257D01*
X172039371Y-103081114D01*
X172010800Y-103023971D01*
X171982228Y-102909685D01*
X171982228Y-102823971D01*
X172010800Y-102709685D01*
X172039371Y-102652542D01*
X172096514Y-102595400D01*
X172182228Y-102566828D01*
X172239371Y-102566828D01*
X172325085Y-102595400D01*
X172353657Y-102623971D01*
X172867942Y-102766828D02*
X172867942Y-103166828D01*
X172725085Y-102538257D02*
X172582228Y-102966828D01*
X172953657Y-102966828D01*
%TO.C,C2*%
X160990800Y-111618685D02*
X160962228Y-111647257D01*
X160876514Y-111675828D01*
X160819371Y-111675828D01*
X160733657Y-111647257D01*
X160676514Y-111590114D01*
X160647942Y-111532971D01*
X160619371Y-111418685D01*
X160619371Y-111332971D01*
X160647942Y-111218685D01*
X160676514Y-111161542D01*
X160733657Y-111104400D01*
X160819371Y-111075828D01*
X160876514Y-111075828D01*
X160962228Y-111104400D01*
X160990800Y-111132971D01*
X161219371Y-111132971D02*
X161247942Y-111104400D01*
X161305085Y-111075828D01*
X161447942Y-111075828D01*
X161505085Y-111104400D01*
X161533657Y-111132971D01*
X161562228Y-111190114D01*
X161562228Y-111247257D01*
X161533657Y-111332971D01*
X161190800Y-111675828D01*
X161562228Y-111675828D01*
%TO.C,D1*%
X150999028Y-110577257D02*
X150399028Y-110577257D01*
X150399028Y-110434400D01*
X150427600Y-110348685D01*
X150484742Y-110291542D01*
X150541885Y-110262971D01*
X150656171Y-110234400D01*
X150741885Y-110234400D01*
X150856171Y-110262971D01*
X150913314Y-110291542D01*
X150970457Y-110348685D01*
X150999028Y-110434400D01*
X150999028Y-110577257D01*
X150999028Y-109662971D02*
X150999028Y-110005828D01*
X150999028Y-109834400D02*
X150399028Y-109834400D01*
X150484742Y-109891542D01*
X150541885Y-109948685D01*
X150570457Y-110005828D01*
%TO.C,C6*%
X177586514Y-105081400D02*
X177557942Y-105052828D01*
X177529371Y-104967114D01*
X177529371Y-104909971D01*
X177557942Y-104824257D01*
X177615085Y-104767114D01*
X177672228Y-104738542D01*
X177786514Y-104709971D01*
X177872228Y-104709971D01*
X177986514Y-104738542D01*
X178043657Y-104767114D01*
X178100800Y-104824257D01*
X178129371Y-104909971D01*
X178129371Y-104967114D01*
X178100800Y-105052828D01*
X178072228Y-105081400D01*
X178129371Y-105595685D02*
X178129371Y-105481400D01*
X178100800Y-105424257D01*
X178072228Y-105395685D01*
X177986514Y-105338542D01*
X177872228Y-105309971D01*
X177643657Y-105309971D01*
X177586514Y-105338542D01*
X177557942Y-105367114D01*
X177529371Y-105424257D01*
X177529371Y-105538542D01*
X177557942Y-105595685D01*
X177586514Y-105624257D01*
X177643657Y-105652828D01*
X177786514Y-105652828D01*
X177843657Y-105624257D01*
X177872228Y-105595685D01*
X177900800Y-105538542D01*
X177900800Y-105424257D01*
X177872228Y-105367114D01*
X177843657Y-105338542D01*
X177786514Y-105309971D01*
%TO.C,R9*%
X163092228Y-103884400D02*
X162806514Y-104084400D01*
X163092228Y-104227257D02*
X162492228Y-104227257D01*
X162492228Y-103998685D01*
X162520800Y-103941542D01*
X162549371Y-103912971D01*
X162606514Y-103884400D01*
X162692228Y-103884400D01*
X162749371Y-103912971D01*
X162777942Y-103941542D01*
X162806514Y-103998685D01*
X162806514Y-104227257D01*
X163092228Y-103598685D02*
X163092228Y-103484400D01*
X163063657Y-103427257D01*
X163035085Y-103398685D01*
X162949371Y-103341542D01*
X162835085Y-103312971D01*
X162606514Y-103312971D01*
X162549371Y-103341542D01*
X162520800Y-103370114D01*
X162492228Y-103427257D01*
X162492228Y-103541542D01*
X162520800Y-103598685D01*
X162549371Y-103627257D01*
X162606514Y-103655828D01*
X162749371Y-103655828D01*
X162806514Y-103627257D01*
X162835085Y-103598685D01*
X162863657Y-103541542D01*
X162863657Y-103427257D01*
X162835085Y-103370114D01*
X162806514Y-103341542D01*
X162749371Y-103312971D01*
%TO.C,LED1*%
X176628428Y-130890628D02*
X176628428Y-131176342D01*
X176028428Y-131176342D01*
X176314142Y-130690628D02*
X176314142Y-130490628D01*
X176628428Y-130404914D02*
X176628428Y-130690628D01*
X176028428Y-130690628D01*
X176028428Y-130404914D01*
X176628428Y-130147771D02*
X176028428Y-130147771D01*
X176028428Y-130004914D01*
X176057000Y-129919200D01*
X176114142Y-129862057D01*
X176171285Y-129833485D01*
X176285571Y-129804914D01*
X176371285Y-129804914D01*
X176485571Y-129833485D01*
X176542714Y-129862057D01*
X176599857Y-129919200D01*
X176628428Y-130004914D01*
X176628428Y-130147771D01*
X176628428Y-129233485D02*
X176628428Y-129576342D01*
X176628428Y-129404914D02*
X176028428Y-129404914D01*
X176114142Y-129462057D01*
X176171285Y-129519200D01*
X176199857Y-129576342D01*
%TO.C,IC5*%
X167331228Y-117451114D02*
X166731228Y-117451114D01*
X167274085Y-116822542D02*
X167302657Y-116851114D01*
X167331228Y-116936828D01*
X167331228Y-116993971D01*
X167302657Y-117079685D01*
X167245514Y-117136828D01*
X167188371Y-117165400D01*
X167074085Y-117193971D01*
X166988371Y-117193971D01*
X166874085Y-117165400D01*
X166816942Y-117136828D01*
X166759800Y-117079685D01*
X166731228Y-116993971D01*
X166731228Y-116936828D01*
X166759800Y-116851114D01*
X166788371Y-116822542D01*
X166731228Y-116279685D02*
X166731228Y-116565400D01*
X167016942Y-116593971D01*
X166988371Y-116565400D01*
X166959800Y-116508257D01*
X166959800Y-116365400D01*
X166988371Y-116308257D01*
X167016942Y-116279685D01*
X167074085Y-116251114D01*
X167216942Y-116251114D01*
X167274085Y-116279685D01*
X167302657Y-116308257D01*
X167331228Y-116365400D01*
X167331228Y-116508257D01*
X167302657Y-116565400D01*
X167274085Y-116593971D01*
%TO.C,IC3*%
X157612514Y-123771971D02*
X157612514Y-124371971D01*
X156983942Y-123829114D02*
X157012514Y-123800542D01*
X157098228Y-123771971D01*
X157155371Y-123771971D01*
X157241085Y-123800542D01*
X157298228Y-123857685D01*
X157326800Y-123914828D01*
X157355371Y-124029114D01*
X157355371Y-124114828D01*
X157326800Y-124229114D01*
X157298228Y-124286257D01*
X157241085Y-124343400D01*
X157155371Y-124371971D01*
X157098228Y-124371971D01*
X157012514Y-124343400D01*
X156983942Y-124314828D01*
X156783942Y-124371971D02*
X156412514Y-124371971D01*
X156612514Y-124143400D01*
X156526800Y-124143400D01*
X156469657Y-124114828D01*
X156441085Y-124086257D01*
X156412514Y-124029114D01*
X156412514Y-123886257D01*
X156441085Y-123829114D01*
X156469657Y-123800542D01*
X156526800Y-123771971D01*
X156698228Y-123771971D01*
X156755371Y-123800542D01*
X156783942Y-123829114D01*
%TO.C,TP1*%
X165073428Y-107716542D02*
X165073428Y-107373685D01*
X165673428Y-107545114D02*
X165073428Y-107545114D01*
X165673428Y-107173685D02*
X165073428Y-107173685D01*
X165073428Y-106945114D01*
X165102000Y-106887971D01*
X165130571Y-106859400D01*
X165187714Y-106830828D01*
X165273428Y-106830828D01*
X165330571Y-106859400D01*
X165359142Y-106887971D01*
X165387714Y-106945114D01*
X165387714Y-107173685D01*
X165673428Y-106259400D02*
X165673428Y-106602257D01*
X165673428Y-106430828D02*
X165073428Y-106430828D01*
X165159142Y-106487971D01*
X165216285Y-106545114D01*
X165244857Y-106602257D01*
%TO.C,U2*%
X168121428Y-130936942D02*
X168607142Y-130936942D01*
X168664285Y-130908371D01*
X168692857Y-130879800D01*
X168721428Y-130822657D01*
X168721428Y-130708371D01*
X168692857Y-130651228D01*
X168664285Y-130622657D01*
X168607142Y-130594085D01*
X168121428Y-130594085D01*
X168178571Y-130336942D02*
X168150000Y-130308371D01*
X168121428Y-130251228D01*
X168121428Y-130108371D01*
X168150000Y-130051228D01*
X168178571Y-130022657D01*
X168235714Y-129994085D01*
X168292857Y-129994085D01*
X168378571Y-130022657D01*
X168721428Y-130365514D01*
X168721428Y-129994085D01*
%TO.C,R26*%
X152211428Y-120043114D02*
X151925714Y-120243114D01*
X152211428Y-120385971D02*
X151611428Y-120385971D01*
X151611428Y-120157400D01*
X151640000Y-120100257D01*
X151668571Y-120071685D01*
X151725714Y-120043114D01*
X151811428Y-120043114D01*
X151868571Y-120071685D01*
X151897142Y-120100257D01*
X151925714Y-120157400D01*
X151925714Y-120385971D01*
X151668571Y-119814542D02*
X151640000Y-119785971D01*
X151611428Y-119728828D01*
X151611428Y-119585971D01*
X151640000Y-119528828D01*
X151668571Y-119500257D01*
X151725714Y-119471685D01*
X151782857Y-119471685D01*
X151868571Y-119500257D01*
X152211428Y-119843114D01*
X152211428Y-119471685D01*
X151611428Y-118957400D02*
X151611428Y-119071685D01*
X151640000Y-119128828D01*
X151668571Y-119157400D01*
X151754285Y-119214542D01*
X151868571Y-119243114D01*
X152097142Y-119243114D01*
X152154285Y-119214542D01*
X152182857Y-119185971D01*
X152211428Y-119128828D01*
X152211428Y-119014542D01*
X152182857Y-118957400D01*
X152154285Y-118928828D01*
X152097142Y-118900257D01*
X151954285Y-118900257D01*
X151897142Y-118928828D01*
X151868571Y-118957400D01*
X151840000Y-119014542D01*
X151840000Y-119128828D01*
X151868571Y-119185971D01*
X151897142Y-119214542D01*
X151954285Y-119243114D01*
%TO.C,R10*%
X162660885Y-111625028D02*
X162460885Y-111339314D01*
X162318028Y-111625028D02*
X162318028Y-111025028D01*
X162546600Y-111025028D01*
X162603742Y-111053600D01*
X162632314Y-111082171D01*
X162660885Y-111139314D01*
X162660885Y-111225028D01*
X162632314Y-111282171D01*
X162603742Y-111310742D01*
X162546600Y-111339314D01*
X162318028Y-111339314D01*
X163232314Y-111625028D02*
X162889457Y-111625028D01*
X163060885Y-111625028D02*
X163060885Y-111025028D01*
X163003742Y-111110742D01*
X162946600Y-111167885D01*
X162889457Y-111196457D01*
X163603742Y-111025028D02*
X163660885Y-111025028D01*
X163718028Y-111053600D01*
X163746600Y-111082171D01*
X163775171Y-111139314D01*
X163803742Y-111253600D01*
X163803742Y-111396457D01*
X163775171Y-111510742D01*
X163746600Y-111567885D01*
X163718028Y-111596457D01*
X163660885Y-111625028D01*
X163603742Y-111625028D01*
X163546600Y-111596457D01*
X163518028Y-111567885D01*
X163489457Y-111510742D01*
X163460885Y-111396457D01*
X163460885Y-111253600D01*
X163489457Y-111139314D01*
X163518028Y-111082171D01*
X163546600Y-111053600D01*
X163603742Y-111025028D01*
%TO.C,RV2*%
X173055371Y-118198257D02*
X173341085Y-117998257D01*
X173055371Y-117855400D02*
X173655371Y-117855400D01*
X173655371Y-118083971D01*
X173626800Y-118141114D01*
X173598228Y-118169685D01*
X173541085Y-118198257D01*
X173455371Y-118198257D01*
X173398228Y-118169685D01*
X173369657Y-118141114D01*
X173341085Y-118083971D01*
X173341085Y-117855400D01*
X173655371Y-118369685D02*
X173055371Y-118569685D01*
X173655371Y-118769685D01*
X173598228Y-118941114D02*
X173626800Y-118969685D01*
X173655371Y-119026828D01*
X173655371Y-119169685D01*
X173626800Y-119226828D01*
X173598228Y-119255400D01*
X173541085Y-119283971D01*
X173483942Y-119283971D01*
X173398228Y-119255400D01*
X173055371Y-118912542D01*
X173055371Y-119283971D01*
%TO.C,R16*%
X161638085Y-125137828D02*
X161438085Y-124852114D01*
X161295228Y-125137828D02*
X161295228Y-124537828D01*
X161523800Y-124537828D01*
X161580942Y-124566400D01*
X161609514Y-124594971D01*
X161638085Y-124652114D01*
X161638085Y-124737828D01*
X161609514Y-124794971D01*
X161580942Y-124823542D01*
X161523800Y-124852114D01*
X161295228Y-124852114D01*
X162209514Y-125137828D02*
X161866657Y-125137828D01*
X162038085Y-125137828D02*
X162038085Y-124537828D01*
X161980942Y-124623542D01*
X161923800Y-124680685D01*
X161866657Y-124709257D01*
X162723800Y-124537828D02*
X162609514Y-124537828D01*
X162552371Y-124566400D01*
X162523800Y-124594971D01*
X162466657Y-124680685D01*
X162438085Y-124794971D01*
X162438085Y-125023542D01*
X162466657Y-125080685D01*
X162495228Y-125109257D01*
X162552371Y-125137828D01*
X162666657Y-125137828D01*
X162723800Y-125109257D01*
X162752371Y-125080685D01*
X162780942Y-125023542D01*
X162780942Y-124880685D01*
X162752371Y-124823542D01*
X162723800Y-124794971D01*
X162666657Y-124766400D01*
X162552371Y-124766400D01*
X162495228Y-124794971D01*
X162466657Y-124823542D01*
X162438085Y-124880685D01*
%TO.C,TP3*%
X150344657Y-127712828D02*
X150687514Y-127712828D01*
X150516085Y-128312828D02*
X150516085Y-127712828D01*
X150887514Y-128312828D02*
X150887514Y-127712828D01*
X151116085Y-127712828D01*
X151173228Y-127741400D01*
X151201800Y-127769971D01*
X151230371Y-127827114D01*
X151230371Y-127912828D01*
X151201800Y-127969971D01*
X151173228Y-127998542D01*
X151116085Y-128027114D01*
X150887514Y-128027114D01*
X151430371Y-127712828D02*
X151801800Y-127712828D01*
X151601800Y-127941400D01*
X151687514Y-127941400D01*
X151744657Y-127969971D01*
X151773228Y-127998542D01*
X151801800Y-128055685D01*
X151801800Y-128198542D01*
X151773228Y-128255685D01*
X151744657Y-128284257D01*
X151687514Y-128312828D01*
X151516085Y-128312828D01*
X151458942Y-128284257D01*
X151430371Y-128255685D01*
%TO.C,R14*%
X161663485Y-129684428D02*
X161463485Y-129398714D01*
X161320628Y-129684428D02*
X161320628Y-129084428D01*
X161549200Y-129084428D01*
X161606342Y-129113000D01*
X161634914Y-129141571D01*
X161663485Y-129198714D01*
X161663485Y-129284428D01*
X161634914Y-129341571D01*
X161606342Y-129370142D01*
X161549200Y-129398714D01*
X161320628Y-129398714D01*
X162234914Y-129684428D02*
X161892057Y-129684428D01*
X162063485Y-129684428D02*
X162063485Y-129084428D01*
X162006342Y-129170142D01*
X161949200Y-129227285D01*
X161892057Y-129255857D01*
X162749200Y-129284428D02*
X162749200Y-129684428D01*
X162606342Y-129055857D02*
X162463485Y-129484428D01*
X162834914Y-129484428D01*
%TO.C,R8*%
X163140228Y-117854400D02*
X162854514Y-118054400D01*
X163140228Y-118197257D02*
X162540228Y-118197257D01*
X162540228Y-117968685D01*
X162568800Y-117911542D01*
X162597371Y-117882971D01*
X162654514Y-117854400D01*
X162740228Y-117854400D01*
X162797371Y-117882971D01*
X162825942Y-117911542D01*
X162854514Y-117968685D01*
X162854514Y-118197257D01*
X162797371Y-117511542D02*
X162768800Y-117568685D01*
X162740228Y-117597257D01*
X162683085Y-117625828D01*
X162654514Y-117625828D01*
X162597371Y-117597257D01*
X162568800Y-117568685D01*
X162540228Y-117511542D01*
X162540228Y-117397257D01*
X162568800Y-117340114D01*
X162597371Y-117311542D01*
X162654514Y-117282971D01*
X162683085Y-117282971D01*
X162740228Y-117311542D01*
X162768800Y-117340114D01*
X162797371Y-117397257D01*
X162797371Y-117511542D01*
X162825942Y-117568685D01*
X162854514Y-117597257D01*
X162911657Y-117625828D01*
X163025942Y-117625828D01*
X163083085Y-117597257D01*
X163111657Y-117568685D01*
X163140228Y-117511542D01*
X163140228Y-117397257D01*
X163111657Y-117340114D01*
X163083085Y-117311542D01*
X163025942Y-117282971D01*
X162911657Y-117282971D01*
X162854514Y-117311542D01*
X162825942Y-117340114D01*
X162797371Y-117397257D01*
%TO.C,C7*%
X165746514Y-104253400D02*
X165717942Y-104224828D01*
X165689371Y-104139114D01*
X165689371Y-104081971D01*
X165717942Y-103996257D01*
X165775085Y-103939114D01*
X165832228Y-103910542D01*
X165946514Y-103881971D01*
X166032228Y-103881971D01*
X166146514Y-103910542D01*
X166203657Y-103939114D01*
X166260800Y-103996257D01*
X166289371Y-104081971D01*
X166289371Y-104139114D01*
X166260800Y-104224828D01*
X166232228Y-104253400D01*
X166289371Y-104453400D02*
X166289371Y-104853400D01*
X165689371Y-104596257D01*
%TO.C,R2*%
X152218228Y-111758400D02*
X151932514Y-111958400D01*
X152218228Y-112101257D02*
X151618228Y-112101257D01*
X151618228Y-111872685D01*
X151646800Y-111815542D01*
X151675371Y-111786971D01*
X151732514Y-111758400D01*
X151818228Y-111758400D01*
X151875371Y-111786971D01*
X151903942Y-111815542D01*
X151932514Y-111872685D01*
X151932514Y-112101257D01*
X151675371Y-111529828D02*
X151646800Y-111501257D01*
X151618228Y-111444114D01*
X151618228Y-111301257D01*
X151646800Y-111244114D01*
X151675371Y-111215542D01*
X151732514Y-111186971D01*
X151789657Y-111186971D01*
X151875371Y-111215542D01*
X152218228Y-111558400D01*
X152218228Y-111186971D01*
%TO.C,R19*%
X150865228Y-125125114D02*
X150579514Y-125325114D01*
X150865228Y-125467971D02*
X150265228Y-125467971D01*
X150265228Y-125239400D01*
X150293800Y-125182257D01*
X150322371Y-125153685D01*
X150379514Y-125125114D01*
X150465228Y-125125114D01*
X150522371Y-125153685D01*
X150550942Y-125182257D01*
X150579514Y-125239400D01*
X150579514Y-125467971D01*
X150865228Y-124553685D02*
X150865228Y-124896542D01*
X150865228Y-124725114D02*
X150265228Y-124725114D01*
X150350942Y-124782257D01*
X150408085Y-124839400D01*
X150436657Y-124896542D01*
X150865228Y-124267971D02*
X150865228Y-124153685D01*
X150836657Y-124096542D01*
X150808085Y-124067971D01*
X150722371Y-124010828D01*
X150608085Y-123982257D01*
X150379514Y-123982257D01*
X150322371Y-124010828D01*
X150293800Y-124039400D01*
X150265228Y-124096542D01*
X150265228Y-124210828D01*
X150293800Y-124267971D01*
X150322371Y-124296542D01*
X150379514Y-124325114D01*
X150522371Y-124325114D01*
X150579514Y-124296542D01*
X150608085Y-124267971D01*
X150636657Y-124210828D01*
X150636657Y-124096542D01*
X150608085Y-124039400D01*
X150579514Y-124010828D01*
X150522371Y-123982257D01*
%TO.C,R3*%
X152218228Y-110234400D02*
X151932514Y-110434400D01*
X152218228Y-110577257D02*
X151618228Y-110577257D01*
X151618228Y-110348685D01*
X151646800Y-110291542D01*
X151675371Y-110262971D01*
X151732514Y-110234400D01*
X151818228Y-110234400D01*
X151875371Y-110262971D01*
X151903942Y-110291542D01*
X151932514Y-110348685D01*
X151932514Y-110577257D01*
X151618228Y-110034400D02*
X151618228Y-109662971D01*
X151846800Y-109862971D01*
X151846800Y-109777257D01*
X151875371Y-109720114D01*
X151903942Y-109691542D01*
X151961085Y-109662971D01*
X152103942Y-109662971D01*
X152161085Y-109691542D01*
X152189657Y-109720114D01*
X152218228Y-109777257D01*
X152218228Y-109948685D01*
X152189657Y-110005828D01*
X152161085Y-110034400D01*
%TO.C,R22*%
X167200685Y-132935628D02*
X167000685Y-132649914D01*
X166857828Y-132935628D02*
X166857828Y-132335628D01*
X167086400Y-132335628D01*
X167143542Y-132364200D01*
X167172114Y-132392771D01*
X167200685Y-132449914D01*
X167200685Y-132535628D01*
X167172114Y-132592771D01*
X167143542Y-132621342D01*
X167086400Y-132649914D01*
X166857828Y-132649914D01*
X167429257Y-132392771D02*
X167457828Y-132364200D01*
X167514971Y-132335628D01*
X167657828Y-132335628D01*
X167714971Y-132364200D01*
X167743542Y-132392771D01*
X167772114Y-132449914D01*
X167772114Y-132507057D01*
X167743542Y-132592771D01*
X167400685Y-132935628D01*
X167772114Y-132935628D01*
X168000685Y-132392771D02*
X168029257Y-132364200D01*
X168086400Y-132335628D01*
X168229257Y-132335628D01*
X168286400Y-132364200D01*
X168314971Y-132392771D01*
X168343542Y-132449914D01*
X168343542Y-132507057D01*
X168314971Y-132592771D01*
X167972114Y-132935628D01*
X168343542Y-132935628D01*
%TO.C,JP1*%
X173912628Y-125239400D02*
X174341200Y-125239400D01*
X174426914Y-125267971D01*
X174484057Y-125325114D01*
X174512628Y-125410828D01*
X174512628Y-125467971D01*
X174512628Y-124953685D02*
X173912628Y-124953685D01*
X173912628Y-124725114D01*
X173941200Y-124667971D01*
X173969771Y-124639400D01*
X174026914Y-124610828D01*
X174112628Y-124610828D01*
X174169771Y-124639400D01*
X174198342Y-124667971D01*
X174226914Y-124725114D01*
X174226914Y-124953685D01*
X174512628Y-124039400D02*
X174512628Y-124382257D01*
X174512628Y-124210828D02*
X173912628Y-124210828D01*
X173998342Y-124267971D01*
X174055485Y-124325114D01*
X174084057Y-124382257D01*
%TO.C,R25*%
X150992228Y-120146714D02*
X150706514Y-120346714D01*
X150992228Y-120489571D02*
X150392228Y-120489571D01*
X150392228Y-120261000D01*
X150420800Y-120203857D01*
X150449371Y-120175285D01*
X150506514Y-120146714D01*
X150592228Y-120146714D01*
X150649371Y-120175285D01*
X150677942Y-120203857D01*
X150706514Y-120261000D01*
X150706514Y-120489571D01*
X150449371Y-119918142D02*
X150420800Y-119889571D01*
X150392228Y-119832428D01*
X150392228Y-119689571D01*
X150420800Y-119632428D01*
X150449371Y-119603857D01*
X150506514Y-119575285D01*
X150563657Y-119575285D01*
X150649371Y-119603857D01*
X150992228Y-119946714D01*
X150992228Y-119575285D01*
X150392228Y-119032428D02*
X150392228Y-119318142D01*
X150677942Y-119346714D01*
X150649371Y-119318142D01*
X150620800Y-119261000D01*
X150620800Y-119118142D01*
X150649371Y-119061000D01*
X150677942Y-119032428D01*
X150735085Y-119003857D01*
X150877942Y-119003857D01*
X150935085Y-119032428D01*
X150963657Y-119061000D01*
X150992228Y-119118142D01*
X150992228Y-119261000D01*
X150963657Y-119318142D01*
X150935085Y-119346714D01*
%TO.C,R1*%
X152269028Y-104367000D02*
X151983314Y-104567000D01*
X152269028Y-104709857D02*
X151669028Y-104709857D01*
X151669028Y-104481285D01*
X151697600Y-104424142D01*
X151726171Y-104395571D01*
X151783314Y-104367000D01*
X151869028Y-104367000D01*
X151926171Y-104395571D01*
X151954742Y-104424142D01*
X151983314Y-104481285D01*
X151983314Y-104709857D01*
X152269028Y-103795571D02*
X152269028Y-104138428D01*
X152269028Y-103967000D02*
X151669028Y-103967000D01*
X151754742Y-104024142D01*
X151811885Y-104081285D01*
X151840457Y-104138428D01*
%TO.C,TP4*%
X166934428Y-120746742D02*
X166934428Y-120403885D01*
X167534428Y-120575314D02*
X166934428Y-120575314D01*
X167534428Y-120203885D02*
X166934428Y-120203885D01*
X166934428Y-119975314D01*
X166963000Y-119918171D01*
X166991571Y-119889600D01*
X167048714Y-119861028D01*
X167134428Y-119861028D01*
X167191571Y-119889600D01*
X167220142Y-119918171D01*
X167248714Y-119975314D01*
X167248714Y-120203885D01*
X167134428Y-119346742D02*
X167534428Y-119346742D01*
X166905857Y-119489600D02*
X167334428Y-119632457D01*
X167334428Y-119261028D01*
%TO.C,R24*%
X177281228Y-124617114D02*
X176995514Y-124817114D01*
X177281228Y-124959971D02*
X176681228Y-124959971D01*
X176681228Y-124731400D01*
X176709800Y-124674257D01*
X176738371Y-124645685D01*
X176795514Y-124617114D01*
X176881228Y-124617114D01*
X176938371Y-124645685D01*
X176966942Y-124674257D01*
X176995514Y-124731400D01*
X176995514Y-124959971D01*
X176738371Y-124388542D02*
X176709800Y-124359971D01*
X176681228Y-124302828D01*
X176681228Y-124159971D01*
X176709800Y-124102828D01*
X176738371Y-124074257D01*
X176795514Y-124045685D01*
X176852657Y-124045685D01*
X176938371Y-124074257D01*
X177281228Y-124417114D01*
X177281228Y-124045685D01*
X176881228Y-123531400D02*
X177281228Y-123531400D01*
X176652657Y-123674257D02*
X177081228Y-123817114D01*
X177081228Y-123445685D01*
%TO.C,R6*%
X161870228Y-117854400D02*
X161584514Y-118054400D01*
X161870228Y-118197257D02*
X161270228Y-118197257D01*
X161270228Y-117968685D01*
X161298800Y-117911542D01*
X161327371Y-117882971D01*
X161384514Y-117854400D01*
X161470228Y-117854400D01*
X161527371Y-117882971D01*
X161555942Y-117911542D01*
X161584514Y-117968685D01*
X161584514Y-118197257D01*
X161270228Y-117340114D02*
X161270228Y-117454400D01*
X161298800Y-117511542D01*
X161327371Y-117540114D01*
X161413085Y-117597257D01*
X161527371Y-117625828D01*
X161755942Y-117625828D01*
X161813085Y-117597257D01*
X161841657Y-117568685D01*
X161870228Y-117511542D01*
X161870228Y-117397257D01*
X161841657Y-117340114D01*
X161813085Y-117311542D01*
X161755942Y-117282971D01*
X161613085Y-117282971D01*
X161555942Y-117311542D01*
X161527371Y-117340114D01*
X161498800Y-117397257D01*
X161498800Y-117511542D01*
X161527371Y-117568685D01*
X161555942Y-117597257D01*
X161613085Y-117625828D01*
%TO.C,C1*%
X161765085Y-103884400D02*
X161793657Y-103912971D01*
X161822228Y-103998685D01*
X161822228Y-104055828D01*
X161793657Y-104141542D01*
X161736514Y-104198685D01*
X161679371Y-104227257D01*
X161565085Y-104255828D01*
X161479371Y-104255828D01*
X161365085Y-104227257D01*
X161307942Y-104198685D01*
X161250800Y-104141542D01*
X161222228Y-104055828D01*
X161222228Y-103998685D01*
X161250800Y-103912971D01*
X161279371Y-103884400D01*
X161822228Y-103312971D02*
X161822228Y-103655828D01*
X161822228Y-103484400D02*
X161222228Y-103484400D01*
X161307942Y-103541542D01*
X161365085Y-103598685D01*
X161393657Y-103655828D01*
%TO.C,Q1*%
X167686371Y-127685942D02*
X167657800Y-127743085D01*
X167600657Y-127800228D01*
X167514942Y-127885942D01*
X167486371Y-127943085D01*
X167486371Y-128000228D01*
X167629228Y-127971657D02*
X167600657Y-128028800D01*
X167543514Y-128085942D01*
X167429228Y-128114514D01*
X167229228Y-128114514D01*
X167114942Y-128085942D01*
X167057800Y-128028800D01*
X167029228Y-127971657D01*
X167029228Y-127857371D01*
X167057800Y-127800228D01*
X167114942Y-127743085D01*
X167229228Y-127714514D01*
X167429228Y-127714514D01*
X167543514Y-127743085D01*
X167600657Y-127800228D01*
X167629228Y-127857371D01*
X167629228Y-127971657D01*
X167629228Y-127143085D02*
X167629228Y-127485942D01*
X167629228Y-127314514D02*
X167029228Y-127314514D01*
X167114942Y-127371657D01*
X167172085Y-127428800D01*
X167200657Y-127485942D01*
%TO.C,Q3*%
X151789228Y-132048257D02*
X151817800Y-131991114D01*
X151874942Y-131933971D01*
X151960657Y-131848257D01*
X151989228Y-131791114D01*
X151989228Y-131733971D01*
X151846371Y-131762542D02*
X151874942Y-131705400D01*
X151932085Y-131648257D01*
X152046371Y-131619685D01*
X152246371Y-131619685D01*
X152360657Y-131648257D01*
X152417800Y-131705400D01*
X152446371Y-131762542D01*
X152446371Y-131876828D01*
X152417800Y-131933971D01*
X152360657Y-131991114D01*
X152246371Y-132019685D01*
X152046371Y-132019685D01*
X151932085Y-131991114D01*
X151874942Y-131933971D01*
X151846371Y-131876828D01*
X151846371Y-131762542D01*
X152446371Y-132219685D02*
X152446371Y-132591114D01*
X152217800Y-132391114D01*
X152217800Y-132476828D01*
X152189228Y-132533971D01*
X152160657Y-132562542D01*
X152103514Y-132591114D01*
X151960657Y-132591114D01*
X151903514Y-132562542D01*
X151874942Y-132533971D01*
X151846371Y-132476828D01*
X151846371Y-132305400D01*
X151874942Y-132248257D01*
X151903514Y-132219685D01*
%TO.C,R13*%
X163140228Y-121127114D02*
X162854514Y-121327114D01*
X163140228Y-121469971D02*
X162540228Y-121469971D01*
X162540228Y-121241400D01*
X162568800Y-121184257D01*
X162597371Y-121155685D01*
X162654514Y-121127114D01*
X162740228Y-121127114D01*
X162797371Y-121155685D01*
X162825942Y-121184257D01*
X162854514Y-121241400D01*
X162854514Y-121469971D01*
X163140228Y-120555685D02*
X163140228Y-120898542D01*
X163140228Y-120727114D02*
X162540228Y-120727114D01*
X162625942Y-120784257D01*
X162683085Y-120841400D01*
X162711657Y-120898542D01*
X162540228Y-120355685D02*
X162540228Y-119984257D01*
X162768800Y-120184257D01*
X162768800Y-120098542D01*
X162797371Y-120041400D01*
X162825942Y-120012828D01*
X162883085Y-119984257D01*
X163025942Y-119984257D01*
X163083085Y-120012828D01*
X163111657Y-120041400D01*
X163140228Y-120098542D01*
X163140228Y-120269971D01*
X163111657Y-120327114D01*
X163083085Y-120355685D01*
%TO.C,C8*%
X152500400Y-128255685D02*
X152471828Y-128284257D01*
X152386114Y-128312828D01*
X152328971Y-128312828D01*
X152243257Y-128284257D01*
X152186114Y-128227114D01*
X152157542Y-128169971D01*
X152128971Y-128055685D01*
X152128971Y-127969971D01*
X152157542Y-127855685D01*
X152186114Y-127798542D01*
X152243257Y-127741400D01*
X152328971Y-127712828D01*
X152386114Y-127712828D01*
X152471828Y-127741400D01*
X152500400Y-127769971D01*
X152843257Y-127969971D02*
X152786114Y-127941400D01*
X152757542Y-127912828D01*
X152728971Y-127855685D01*
X152728971Y-127827114D01*
X152757542Y-127769971D01*
X152786114Y-127741400D01*
X152843257Y-127712828D01*
X152957542Y-127712828D01*
X153014685Y-127741400D01*
X153043257Y-127769971D01*
X153071828Y-127827114D01*
X153071828Y-127855685D01*
X153043257Y-127912828D01*
X153014685Y-127941400D01*
X152957542Y-127969971D01*
X152843257Y-127969971D01*
X152786114Y-127998542D01*
X152757542Y-128027114D01*
X152728971Y-128084257D01*
X152728971Y-128198542D01*
X152757542Y-128255685D01*
X152786114Y-128284257D01*
X152843257Y-128312828D01*
X152957542Y-128312828D01*
X153014685Y-128284257D01*
X153043257Y-128255685D01*
X153071828Y-128198542D01*
X153071828Y-128084257D01*
X153043257Y-128027114D01*
X153014685Y-127998542D01*
X152957542Y-127969971D01*
%TO.C,R17*%
X161638085Y-128566828D02*
X161438085Y-128281114D01*
X161295228Y-128566828D02*
X161295228Y-127966828D01*
X161523800Y-127966828D01*
X161580942Y-127995400D01*
X161609514Y-128023971D01*
X161638085Y-128081114D01*
X161638085Y-128166828D01*
X161609514Y-128223971D01*
X161580942Y-128252542D01*
X161523800Y-128281114D01*
X161295228Y-128281114D01*
X162209514Y-128566828D02*
X161866657Y-128566828D01*
X162038085Y-128566828D02*
X162038085Y-127966828D01*
X161980942Y-128052542D01*
X161923800Y-128109685D01*
X161866657Y-128138257D01*
X162409514Y-127966828D02*
X162809514Y-127966828D01*
X162552371Y-128566828D01*
%TO.C,Q2*%
X154981657Y-131773571D02*
X154924514Y-131745000D01*
X154867371Y-131687857D01*
X154781657Y-131602142D01*
X154724514Y-131573571D01*
X154667371Y-131573571D01*
X154695942Y-131716428D02*
X154638800Y-131687857D01*
X154581657Y-131630714D01*
X154553085Y-131516428D01*
X154553085Y-131316428D01*
X154581657Y-131202142D01*
X154638800Y-131145000D01*
X154695942Y-131116428D01*
X154810228Y-131116428D01*
X154867371Y-131145000D01*
X154924514Y-131202142D01*
X154953085Y-131316428D01*
X154953085Y-131516428D01*
X154924514Y-131630714D01*
X154867371Y-131687857D01*
X154810228Y-131716428D01*
X154695942Y-131716428D01*
X155181657Y-131173571D02*
X155210228Y-131145000D01*
X155267371Y-131116428D01*
X155410228Y-131116428D01*
X155467371Y-131145000D01*
X155495942Y-131173571D01*
X155524514Y-131230714D01*
X155524514Y-131287857D01*
X155495942Y-131373571D01*
X155153085Y-131716428D01*
X155524514Y-131716428D01*
%TO.C,J1*%
X164194800Y-83529971D02*
X164194800Y-83101400D01*
X164223371Y-83015685D01*
X164280514Y-82958542D01*
X164366228Y-82929971D01*
X164423371Y-82929971D01*
X163594800Y-82929971D02*
X163937657Y-82929971D01*
X163766228Y-82929971D02*
X163766228Y-83529971D01*
X163823371Y-83444257D01*
X163880514Y-83387114D01*
X163937657Y-83358542D01*
D11*
%TO.C,TP2*%
X165346800Y-113690400D02*
G75*
G03*
X165346800Y-113690400I-700000J0D01*
G01*
%TO.C,R18*%
X149322800Y-126363759D02*
X149322800Y-126671041D01*
X148562800Y-126363759D02*
X148562800Y-126671041D01*
%TO.C,R23*%
X175359800Y-126290041D02*
X175359800Y-125982759D01*
X176119800Y-126290041D02*
X176119800Y-125982759D01*
%TO.C,R15*%
X161868159Y-131344400D02*
X162175441Y-131344400D01*
X161868159Y-132104400D02*
X162175441Y-132104400D01*
%TO.C,C5*%
X157967052Y-127814400D02*
X157444548Y-127814400D01*
X157967052Y-129284400D02*
X157444548Y-129284400D01*
D12*
%TO.C,D2*%
X150726800Y-115117400D02*
G75*
G03*
X150726800Y-115117400I-50000J0D01*
G01*
D11*
%TO.C,R4*%
X161170800Y-108764041D02*
X161170800Y-108456759D01*
X161930800Y-108764041D02*
X161930800Y-108456759D01*
D12*
%TO.C,RV1*%
X168561800Y-108862400D02*
X178091800Y-108862400D01*
X178091800Y-108862400D02*
X178091800Y-113692400D01*
X178091800Y-113692400D02*
X168561800Y-113692400D01*
D13*
X170726800Y-108277400D02*
X170726800Y-108277400D01*
X170926800Y-108277400D02*
X170926800Y-108277400D01*
D12*
X168561800Y-113692400D02*
X168561800Y-108862400D01*
D13*
X170926800Y-108277400D02*
G75*
G03*
X170726800Y-108277400I-100000J0D01*
G01*
X170726800Y-108277400D02*
G75*
G03*
X170926800Y-108277400I100000J0D01*
G01*
%TO.C,IC1*%
X155507800Y-110046400D02*
X155507800Y-105142400D01*
X158703800Y-105142400D02*
X158703800Y-110046400D01*
X153630800Y-105014400D02*
X155157800Y-105014400D01*
X155507800Y-105142400D02*
X158703800Y-105142400D01*
X158703800Y-110046400D02*
X155507800Y-110046400D01*
D11*
%TO.C,C4*%
X152350800Y-126625236D02*
X152350800Y-126409564D01*
X151630800Y-126625236D02*
X151630800Y-126409564D01*
%TO.C,C3*%
X163911800Y-123796652D02*
X163911800Y-123274148D01*
X165381800Y-123796652D02*
X165381800Y-123274148D01*
%TO.C,R5*%
X151566800Y-116384041D02*
X151566800Y-116076759D01*
X152326800Y-116384041D02*
X152326800Y-116076759D01*
%TO.C,R12*%
X166044800Y-122863041D02*
X166044800Y-122555759D01*
X166804800Y-122863041D02*
X166804800Y-122555759D01*
%TO.C,R7*%
X162488800Y-108764041D02*
X162488800Y-108456759D01*
X163248800Y-108764041D02*
X163248800Y-108456759D01*
%TO.C,R20*%
X154481241Y-128880600D02*
X154173959Y-128880600D01*
X154481241Y-129640600D02*
X154173959Y-129640600D01*
%TO.C,R11*%
X161978800Y-122927041D02*
X161978800Y-122619759D01*
X161218800Y-122927041D02*
X161218800Y-122619759D01*
%TO.C,R21*%
X154481241Y-133249400D02*
X154173959Y-133249400D01*
X154481241Y-134009400D02*
X154173959Y-134009400D01*
D13*
%TO.C,IC2*%
X153551800Y-112634400D02*
X155078800Y-112634400D01*
X155428800Y-112762400D02*
X158624800Y-112762400D01*
X158624800Y-112762400D02*
X158624800Y-117666400D01*
X155428800Y-117666400D02*
X155428800Y-112762400D01*
X158624800Y-117666400D02*
X155428800Y-117666400D01*
D14*
%TO.C,IC4*%
X174183800Y-106781400D02*
G75*
G03*
X174183800Y-106781400I-125000J0D01*
G01*
D11*
%TO.C,C2*%
X161908000Y-112744364D02*
X161908000Y-112960036D01*
X161188000Y-112744364D02*
X161188000Y-112960036D01*
D12*
%TO.C,D1*%
X150777600Y-107493000D02*
G75*
G03*
X150777600Y-107493000I-50000J0D01*
G01*
D11*
%TO.C,C6*%
X176855800Y-104920148D02*
X176855800Y-105442652D01*
X175385800Y-104920148D02*
X175385800Y-105442652D01*
%TO.C,R9*%
X163200800Y-105462041D02*
X163200800Y-105154759D01*
X162440800Y-105462041D02*
X162440800Y-105154759D01*
D15*
%TO.C,LED1*%
X175857000Y-128494200D02*
X175857000Y-128494200D01*
X175757000Y-128494200D02*
X175757000Y-128494200D01*
X175857000Y-128494200D02*
G75*
G03*
X175757000Y-128494200I-50000J0D01*
G01*
X175757000Y-128494200D02*
G75*
G03*
X175857000Y-128494200I50000J0D01*
G01*
D13*
%TO.C,IC5*%
X166179800Y-116917400D02*
X166179800Y-117067400D01*
X164129800Y-116917400D02*
X166179800Y-116917400D01*
X166179800Y-117067400D02*
X164129800Y-117067400D01*
X166254800Y-115517400D02*
X166254800Y-116567400D01*
X164129800Y-117067400D02*
X164129800Y-116917400D01*
%TO.C,IC3*%
X158624800Y-126495400D02*
X155428800Y-126495400D01*
X160501800Y-126623400D02*
X158974800Y-126623400D01*
X155428800Y-121591400D02*
X158624800Y-121591400D01*
X158624800Y-121591400D02*
X158624800Y-126495400D01*
X155428800Y-126495400D02*
X155428800Y-121591400D01*
D11*
%TO.C,TP1*%
X166102000Y-108839000D02*
G75*
G03*
X166102000Y-108839000I-700000J0D01*
G01*
%TO.C,U2*%
X169374800Y-133708400D02*
X169374800Y-128708400D01*
X173214800Y-129208400D02*
X173214800Y-132208400D01*
%TO.C,R26*%
X151560000Y-121794241D02*
X151560000Y-121486959D01*
X152320000Y-121794241D02*
X152320000Y-121486959D01*
%TO.C,R10*%
X163274200Y-112980441D02*
X163274200Y-112673159D01*
X162514200Y-112980441D02*
X162514200Y-112673159D01*
D12*
%TO.C,RV2*%
X178091800Y-116482400D02*
X178091800Y-121312400D01*
X178091800Y-121312400D02*
X168561800Y-121312400D01*
D13*
X170726800Y-115897400D02*
X170726800Y-115897400D01*
D12*
X168561800Y-116482400D02*
X178091800Y-116482400D01*
D13*
X170926800Y-115897400D02*
X170926800Y-115897400D01*
D12*
X168561800Y-121312400D02*
X168561800Y-116482400D01*
D13*
X170926800Y-115897400D02*
G75*
G03*
X170726800Y-115897400I-100000J0D01*
G01*
X170726800Y-115897400D02*
G75*
G03*
X170926800Y-115897400I100000J0D01*
G01*
D11*
%TO.C,R16*%
X161826159Y-125502400D02*
X162133441Y-125502400D01*
X161826159Y-126262400D02*
X162133441Y-126262400D01*
%TO.C,TP3*%
X150785800Y-129057400D02*
G75*
G03*
X150785800Y-129057400I-700000J0D01*
G01*
%TO.C,R14*%
X162175441Y-129947400D02*
X161868159Y-129947400D01*
X162175441Y-130707400D02*
X161868159Y-130707400D01*
%TO.C,R8*%
X163248800Y-116384041D02*
X163248800Y-116076759D01*
X162488800Y-116384041D02*
X162488800Y-116076759D01*
%TO.C,C7*%
X167511800Y-104793148D02*
X167511800Y-105315652D01*
X168981800Y-104793148D02*
X168981800Y-105315652D01*
%TO.C,R2*%
X151566800Y-113028759D02*
X151566800Y-113336041D01*
X152326800Y-113028759D02*
X152326800Y-113336041D01*
%TO.C,R19*%
X150973800Y-126363759D02*
X150973800Y-126671041D01*
X150213800Y-126363759D02*
X150213800Y-126671041D01*
%TO.C,R3*%
X152326800Y-108762041D02*
X152326800Y-108454759D01*
X151566800Y-108762041D02*
X151566800Y-108454759D01*
%TO.C,R22*%
X167790841Y-134263400D02*
X167483559Y-134263400D01*
X167790841Y-133503400D02*
X167483559Y-133503400D01*
%TO.C,JP1*%
X173234400Y-125815400D02*
X173234400Y-123155400D01*
X168034400Y-125815400D02*
X168034400Y-124485400D01*
X169364400Y-125815400D02*
X168034400Y-125815400D01*
X170634400Y-125815400D02*
X173234400Y-125815400D01*
X170634400Y-123155400D02*
X173234400Y-123155400D01*
X170634400Y-125815400D02*
X170634400Y-123155400D01*
%TO.C,R25*%
X151050000Y-121486959D02*
X151050000Y-121794241D01*
X150290000Y-121486959D02*
X150290000Y-121794241D01*
%TO.C,R1*%
X151566800Y-105664759D02*
X151566800Y-105972041D01*
X152326800Y-105664759D02*
X152326800Y-105972041D01*
%TO.C,TP4*%
X166235800Y-120040400D02*
G75*
G03*
X166235800Y-120040400I-700000J0D01*
G01*
%TO.C,R24*%
X176629800Y-126290041D02*
X176629800Y-125982759D01*
X177389800Y-126290041D02*
X177389800Y-125982759D01*
%TO.C,R6*%
X161978800Y-116384041D02*
X161978800Y-116076759D01*
X161218800Y-116384041D02*
X161218800Y-116076759D01*
%TO.C,C1*%
X161190800Y-105200564D02*
X161190800Y-105416236D01*
X161910800Y-105200564D02*
X161910800Y-105416236D01*
D13*
%TO.C,Q1*%
X166521800Y-127587400D02*
X166521800Y-127987400D01*
X166671800Y-125937400D02*
X166671800Y-127237400D01*
X166521800Y-127987400D02*
X163621800Y-127987400D01*
X163621800Y-127987400D02*
X163621800Y-127587400D01*
X163621800Y-127587400D02*
X166521800Y-127587400D01*
%TO.C,Q3*%
X151489800Y-130782400D02*
X151489800Y-131882400D01*
D11*
%TO.C,R13*%
X163248800Y-122927041D02*
X163248800Y-122619759D01*
X162488800Y-122927041D02*
X162488800Y-122619759D01*
%TO.C,C8*%
X154219764Y-128350600D02*
X154435436Y-128350600D01*
X154219764Y-127630600D02*
X154435436Y-127630600D01*
%TO.C,R17*%
X161868159Y-127659400D02*
X162175441Y-127659400D01*
X161868159Y-126899400D02*
X162175441Y-126899400D01*
D13*
%TO.C,Q2*%
X153588800Y-130295000D02*
X154688800Y-130295000D01*
D15*
%TO.C,J1*%
X174994800Y-103801400D02*
X174994800Y-103801400D01*
X174994800Y-103601400D02*
X174994800Y-103601400D01*
D12*
X133509800Y-75971400D02*
X194469800Y-75971400D01*
X194469800Y-75971400D02*
X194469800Y-101231400D01*
X194469800Y-101231400D02*
X133509800Y-101231400D01*
X133509800Y-101231400D02*
X133509800Y-75971400D01*
D15*
X174994800Y-103801400D02*
G75*
G03*
X174994800Y-103601400I0J100000D01*
G01*
X174994800Y-103601400D02*
G75*
G03*
X174994800Y-103801400I0J-100000D01*
G01*
%TD*%
M02*
