%TF.GenerationSoftware,KiCad,Pcbnew,(6.0.8)*%
%TF.CreationDate,2023-03-20T22:14:44+01:00*%
%TF.ProjectId,BSPD-07,42535044-2d30-4372-9e6b-696361645f70,rev?*%
%TF.SameCoordinates,Original*%
%TF.FileFunction,Legend,Bot*%
%TF.FilePolarity,Positive*%
%FSLAX46Y46*%
G04 Gerber Fmt 4.6, Leading zero omitted, Abs format (unit mm)*
G04 Created by KiCad (PCBNEW (6.0.8)) date 2023-03-20 22:14:44*
%MOMM*%
%LPD*%
G01*
G04 APERTURE LIST*
%ADD10C,0.150000*%
G04 APERTURE END LIST*
D10*
X154757657Y-94470542D02*
X154671942Y-94499114D01*
X154643371Y-94527685D01*
X154614800Y-94584828D01*
X154614800Y-94670542D01*
X154643371Y-94727685D01*
X154671942Y-94756257D01*
X154729085Y-94784828D01*
X154957657Y-94784828D01*
X154957657Y-94184828D01*
X154757657Y-94184828D01*
X154700514Y-94213400D01*
X154671942Y-94241971D01*
X154643371Y-94299114D01*
X154643371Y-94356257D01*
X154671942Y-94413400D01*
X154700514Y-94441971D01*
X154757657Y-94470542D01*
X154957657Y-94470542D01*
X154014800Y-94784828D02*
X154214800Y-94499114D01*
X154357657Y-94784828D02*
X154357657Y-94184828D01*
X154129085Y-94184828D01*
X154071942Y-94213400D01*
X154043371Y-94241971D01*
X154014800Y-94299114D01*
X154014800Y-94384828D01*
X154043371Y-94441971D01*
X154071942Y-94470542D01*
X154129085Y-94499114D01*
X154357657Y-94499114D01*
X153757657Y-94784828D02*
X153757657Y-94184828D01*
X153414800Y-94784828D02*
X153671942Y-94441971D01*
X153414800Y-94184828D02*
X153757657Y-94527685D01*
X153300514Y-94841971D02*
X152843371Y-94841971D01*
X152700514Y-94784828D02*
X152700514Y-94184828D01*
X152414800Y-94784828D02*
X152414800Y-94184828D01*
X152071942Y-94784828D01*
X152071942Y-94184828D01*
X171781942Y-94216542D02*
X171696228Y-94245114D01*
X171667657Y-94273685D01*
X171639085Y-94330828D01*
X171639085Y-94416542D01*
X171667657Y-94473685D01*
X171696228Y-94502257D01*
X171753371Y-94530828D01*
X171981942Y-94530828D01*
X171981942Y-93930828D01*
X171781942Y-93930828D01*
X171724800Y-93959400D01*
X171696228Y-93987971D01*
X171667657Y-94045114D01*
X171667657Y-94102257D01*
X171696228Y-94159400D01*
X171724800Y-94187971D01*
X171781942Y-94216542D01*
X171981942Y-94216542D01*
X171039085Y-94530828D02*
X171239085Y-94245114D01*
X171381942Y-94530828D02*
X171381942Y-93930828D01*
X171153371Y-93930828D01*
X171096228Y-93959400D01*
X171067657Y-93987971D01*
X171039085Y-94045114D01*
X171039085Y-94130828D01*
X171067657Y-94187971D01*
X171096228Y-94216542D01*
X171153371Y-94245114D01*
X171381942Y-94245114D01*
X170781942Y-94530828D02*
X170781942Y-93930828D01*
X170439085Y-94530828D02*
X170696228Y-94187971D01*
X170439085Y-93930828D02*
X170781942Y-94273685D01*
X170324800Y-94587971D02*
X169867657Y-94587971D01*
X169810514Y-93930828D02*
X169467657Y-93930828D01*
X169639085Y-94530828D02*
X169639085Y-93930828D01*
X168924800Y-94530828D02*
X169124800Y-94245114D01*
X169267657Y-94530828D02*
X169267657Y-93930828D01*
X169039085Y-93930828D01*
X168981942Y-93959400D01*
X168953371Y-93987971D01*
X168924800Y-94045114D01*
X168924800Y-94130828D01*
X168953371Y-94187971D01*
X168981942Y-94216542D01*
X169039085Y-94245114D01*
X169267657Y-94245114D01*
X168667657Y-94530828D02*
X168667657Y-93930828D01*
X168067657Y-93959400D02*
X168124800Y-93930828D01*
X168210514Y-93930828D01*
X168296228Y-93959400D01*
X168353371Y-94016542D01*
X168381942Y-94073685D01*
X168410514Y-94187971D01*
X168410514Y-94273685D01*
X168381942Y-94387971D01*
X168353371Y-94445114D01*
X168296228Y-94502257D01*
X168210514Y-94530828D01*
X168153371Y-94530828D01*
X168067657Y-94502257D01*
X168039085Y-94473685D01*
X168039085Y-94273685D01*
X168153371Y-94273685D01*
X148789657Y-113460542D02*
X149689657Y-113460542D01*
X149346800Y-113460542D02*
X149389657Y-113374828D01*
X149389657Y-113203400D01*
X149346800Y-113117685D01*
X149303942Y-113074828D01*
X149218228Y-113031971D01*
X148961085Y-113031971D01*
X148875371Y-113074828D01*
X148832514Y-113117685D01*
X148789657Y-113203400D01*
X148789657Y-113374828D01*
X148832514Y-113460542D01*
X149389657Y-112731971D02*
X148789657Y-112517685D01*
X149389657Y-112303400D02*
X148789657Y-112517685D01*
X148575371Y-112603400D01*
X148532514Y-112646257D01*
X148489657Y-112731971D01*
X148789657Y-111274828D02*
X149689657Y-111274828D01*
X148789657Y-110760542D02*
X149303942Y-111146257D01*
X149689657Y-110760542D02*
X149175371Y-111274828D01*
X148875371Y-110374828D02*
X148832514Y-110331971D01*
X148789657Y-110374828D01*
X148832514Y-110417685D01*
X148875371Y-110374828D01*
X148789657Y-110374828D01*
X148789657Y-109946257D02*
X149689657Y-109946257D01*
X149689657Y-109603400D01*
X149646800Y-109517685D01*
X149603942Y-109474828D01*
X149518228Y-109431971D01*
X149389657Y-109431971D01*
X149303942Y-109474828D01*
X149261085Y-109517685D01*
X149218228Y-109603400D01*
X149218228Y-109946257D01*
X148832514Y-108703400D02*
X148789657Y-108789114D01*
X148789657Y-108960542D01*
X148832514Y-109046257D01*
X148918228Y-109089114D01*
X149261085Y-109089114D01*
X149346800Y-109046257D01*
X149389657Y-108960542D01*
X149389657Y-108789114D01*
X149346800Y-108703400D01*
X149261085Y-108660542D01*
X149175371Y-108660542D01*
X149089657Y-109089114D01*
X148789657Y-108274828D02*
X149389657Y-108274828D01*
X149218228Y-108274828D02*
X149303942Y-108231971D01*
X149346800Y-108189114D01*
X149389657Y-108103400D01*
X149389657Y-108017685D01*
X149389657Y-107331971D02*
X148661085Y-107331971D01*
X148575371Y-107374828D01*
X148532514Y-107417685D01*
X148489657Y-107503400D01*
X148489657Y-107631971D01*
X148532514Y-107717685D01*
X148832514Y-107331971D02*
X148789657Y-107417685D01*
X148789657Y-107589114D01*
X148832514Y-107674828D01*
X148875371Y-107717685D01*
X148961085Y-107760542D01*
X149218228Y-107760542D01*
X149303942Y-107717685D01*
X149346800Y-107674828D01*
X149389657Y-107589114D01*
X149389657Y-107417685D01*
X149346800Y-107331971D01*
X148789657Y-106774828D02*
X148832514Y-106860542D01*
X148875371Y-106903400D01*
X148961085Y-106946257D01*
X149218228Y-106946257D01*
X149303942Y-106903400D01*
X149346800Y-106860542D01*
X149389657Y-106774828D01*
X149389657Y-106646257D01*
X149346800Y-106560542D01*
X149303942Y-106517685D01*
X149218228Y-106474828D01*
X148961085Y-106474828D01*
X148875371Y-106517685D01*
X148832514Y-106560542D01*
X148789657Y-106646257D01*
X148789657Y-106774828D01*
X148789657Y-105960542D02*
X148832514Y-106046257D01*
X148918228Y-106089114D01*
X149689657Y-106089114D01*
X174968228Y-100880828D02*
X175311085Y-100880828D01*
X175139657Y-100880828D02*
X175139657Y-100280828D01*
X175196800Y-100366542D01*
X175253942Y-100423685D01*
X175311085Y-100452257D01*
X174739657Y-100337971D02*
X174711085Y-100309400D01*
X174653942Y-100280828D01*
X174511085Y-100280828D01*
X174453942Y-100309400D01*
X174425371Y-100337971D01*
X174396800Y-100395114D01*
X174396800Y-100452257D01*
X174425371Y-100537971D01*
X174768228Y-100880828D01*
X174396800Y-100880828D01*
X174225371Y-100280828D02*
X174025371Y-100880828D01*
X173825371Y-100280828D01*
X154957657Y-100534828D02*
X154614800Y-100534828D01*
X154786228Y-101134828D02*
X154786228Y-100534828D01*
X154414800Y-101134828D02*
X154414800Y-100534828D01*
X154186228Y-100534828D01*
X154129085Y-100563400D01*
X154100514Y-100591971D01*
X154071942Y-100649114D01*
X154071942Y-100734828D01*
X154100514Y-100791971D01*
X154129085Y-100820542D01*
X154186228Y-100849114D01*
X154414800Y-100849114D01*
X153843371Y-101106257D02*
X153757657Y-101134828D01*
X153614800Y-101134828D01*
X153557657Y-101106257D01*
X153529085Y-101077685D01*
X153500514Y-101020542D01*
X153500514Y-100963400D01*
X153529085Y-100906257D01*
X153557657Y-100877685D01*
X153614800Y-100849114D01*
X153729085Y-100820542D01*
X153786228Y-100791971D01*
X153814800Y-100763400D01*
X153843371Y-100706257D01*
X153843371Y-100649114D01*
X153814800Y-100591971D01*
X153786228Y-100563400D01*
X153729085Y-100534828D01*
X153586228Y-100534828D01*
X153500514Y-100563400D01*
X153386228Y-101191971D02*
X152929085Y-101191971D01*
X152786228Y-101134828D02*
X152786228Y-100534828D01*
X152500514Y-101134828D02*
X152500514Y-100534828D01*
X152157657Y-101134828D01*
X152157657Y-100534828D01*
X167475085Y-100852257D02*
X167389371Y-100880828D01*
X167246514Y-100880828D01*
X167189371Y-100852257D01*
X167160800Y-100823685D01*
X167132228Y-100766542D01*
X167132228Y-100709400D01*
X167160800Y-100652257D01*
X167189371Y-100623685D01*
X167246514Y-100595114D01*
X167360800Y-100566542D01*
X167417942Y-100537971D01*
X167446514Y-100509400D01*
X167475085Y-100452257D01*
X167475085Y-100395114D01*
X167446514Y-100337971D01*
X167417942Y-100309400D01*
X167360800Y-100280828D01*
X167217942Y-100280828D01*
X167132228Y-100309400D01*
X166675085Y-100566542D02*
X166875085Y-100566542D01*
X166875085Y-100880828D02*
X166875085Y-100280828D01*
X166589371Y-100280828D01*
X166503657Y-100937971D02*
X166046514Y-100937971D01*
X165789371Y-100280828D02*
X165675085Y-100280828D01*
X165617942Y-100309400D01*
X165560800Y-100366542D01*
X165532228Y-100480828D01*
X165532228Y-100680828D01*
X165560800Y-100795114D01*
X165617942Y-100852257D01*
X165675085Y-100880828D01*
X165789371Y-100880828D01*
X165846514Y-100852257D01*
X165903657Y-100795114D01*
X165932228Y-100680828D01*
X165932228Y-100480828D01*
X165903657Y-100366542D01*
X165846514Y-100309400D01*
X165789371Y-100280828D01*
X165275085Y-100280828D02*
X165275085Y-100766542D01*
X165246514Y-100823685D01*
X165217942Y-100852257D01*
X165160800Y-100880828D01*
X165046514Y-100880828D01*
X164989371Y-100852257D01*
X164960800Y-100823685D01*
X164932228Y-100766542D01*
X164932228Y-100280828D01*
X164732228Y-100280828D02*
X164389371Y-100280828D01*
X164560800Y-100880828D02*
X164560800Y-100280828D01*
X151879657Y-132357780D02*
X151784419Y-132072066D01*
X151689180Y-131976828D01*
X151498704Y-131881590D01*
X151212990Y-131881590D01*
X151022514Y-131976828D01*
X150927276Y-132072066D01*
X150832038Y-132262542D01*
X150832038Y-133024447D01*
X152832038Y-133024447D01*
X152832038Y-132357780D01*
X152736800Y-132167304D01*
X152641561Y-132072066D01*
X152451085Y-131976828D01*
X152260609Y-131976828D01*
X152070133Y-132072066D01*
X151974895Y-132167304D01*
X151879657Y-132357780D01*
X151879657Y-133024447D01*
X150927276Y-131119685D02*
X150832038Y-130833971D01*
X150832038Y-130357780D01*
X150927276Y-130167304D01*
X151022514Y-130072066D01*
X151212990Y-129976828D01*
X151403466Y-129976828D01*
X151593942Y-130072066D01*
X151689180Y-130167304D01*
X151784419Y-130357780D01*
X151879657Y-130738733D01*
X151974895Y-130929209D01*
X152070133Y-131024447D01*
X152260609Y-131119685D01*
X152451085Y-131119685D01*
X152641561Y-131024447D01*
X152736800Y-130929209D01*
X152832038Y-130738733D01*
X152832038Y-130262542D01*
X152736800Y-129976828D01*
X150832038Y-129119685D02*
X152832038Y-129119685D01*
X152832038Y-128357780D01*
X152736800Y-128167304D01*
X152641561Y-128072066D01*
X152451085Y-127976828D01*
X152165371Y-127976828D01*
X151974895Y-128072066D01*
X151879657Y-128167304D01*
X151784419Y-128357780D01*
X151784419Y-129119685D01*
X150832038Y-127119685D02*
X152832038Y-127119685D01*
X152832038Y-126643495D01*
X152736800Y-126357780D01*
X152546323Y-126167304D01*
X152355847Y-126072066D01*
X151974895Y-125976828D01*
X151689180Y-125976828D01*
X151308228Y-126072066D01*
X151117752Y-126167304D01*
X150927276Y-126357780D01*
X150832038Y-126643495D01*
X150832038Y-127119685D01*
X151593942Y-123595876D02*
X151593942Y-122072066D01*
X151879657Y-118929209D02*
X151879657Y-119595876D01*
X150832038Y-119595876D02*
X152832038Y-119595876D01*
X152832038Y-118643495D01*
X150927276Y-117976828D02*
X150832038Y-117691114D01*
X150832038Y-117214923D01*
X150927276Y-117024447D01*
X151022514Y-116929209D01*
X151212990Y-116833971D01*
X151403466Y-116833971D01*
X151593942Y-116929209D01*
X151689180Y-117024447D01*
X151784419Y-117214923D01*
X151879657Y-117595876D01*
X151974895Y-117786352D01*
X152070133Y-117881590D01*
X152260609Y-117976828D01*
X152451085Y-117976828D01*
X152641561Y-117881590D01*
X152736800Y-117786352D01*
X152832038Y-117595876D01*
X152832038Y-117119685D01*
X152736800Y-116833971D01*
X152736800Y-114929209D02*
X152832038Y-115119685D01*
X152832038Y-115405400D01*
X152736800Y-115691114D01*
X152546323Y-115881590D01*
X152355847Y-115976828D01*
X151974895Y-116072066D01*
X151689180Y-116072066D01*
X151308228Y-115976828D01*
X151117752Y-115881590D01*
X150927276Y-115691114D01*
X150832038Y-115405400D01*
X150832038Y-115214923D01*
X150927276Y-114929209D01*
X151022514Y-114833971D01*
X151689180Y-114833971D01*
X151689180Y-115214923D01*
X152641561Y-112548257D02*
X152736800Y-112453019D01*
X152832038Y-112262542D01*
X152832038Y-111786352D01*
X152736800Y-111595876D01*
X152641561Y-111500638D01*
X152451085Y-111405400D01*
X152260609Y-111405400D01*
X151974895Y-111500638D01*
X150832038Y-112643495D01*
X150832038Y-111405400D01*
X152832038Y-110167304D02*
X152832038Y-109976828D01*
X152736800Y-109786352D01*
X152641561Y-109691114D01*
X152451085Y-109595876D01*
X152070133Y-109500638D01*
X151593942Y-109500638D01*
X151212990Y-109595876D01*
X151022514Y-109691114D01*
X150927276Y-109786352D01*
X150832038Y-109976828D01*
X150832038Y-110167304D01*
X150927276Y-110357780D01*
X151022514Y-110453019D01*
X151212990Y-110548257D01*
X151593942Y-110643495D01*
X152070133Y-110643495D01*
X152451085Y-110548257D01*
X152641561Y-110453019D01*
X152736800Y-110357780D01*
X152832038Y-110167304D01*
X152641561Y-108738733D02*
X152736800Y-108643495D01*
X152832038Y-108453019D01*
X152832038Y-107976828D01*
X152736800Y-107786352D01*
X152641561Y-107691114D01*
X152451085Y-107595876D01*
X152260609Y-107595876D01*
X151974895Y-107691114D01*
X150832038Y-108833971D01*
X150832038Y-107595876D01*
X152832038Y-106929209D02*
X152832038Y-105691114D01*
X152070133Y-106357780D01*
X152070133Y-106072066D01*
X151974895Y-105881590D01*
X151879657Y-105786352D01*
X151689180Y-105691114D01*
X151212990Y-105691114D01*
X151022514Y-105786352D01*
X150927276Y-105881590D01*
X150832038Y-106072066D01*
X150832038Y-106643495D01*
X150927276Y-106833971D01*
X151022514Y-106929209D01*
X167075085Y-94502257D02*
X166989371Y-94530828D01*
X166846514Y-94530828D01*
X166789371Y-94502257D01*
X166760800Y-94473685D01*
X166732228Y-94416542D01*
X166732228Y-94359400D01*
X166760800Y-94302257D01*
X166789371Y-94273685D01*
X166846514Y-94245114D01*
X166960800Y-94216542D01*
X167017942Y-94187971D01*
X167046514Y-94159400D01*
X167075085Y-94102257D01*
X167075085Y-94045114D01*
X167046514Y-93987971D01*
X167017942Y-93959400D01*
X166960800Y-93930828D01*
X166817942Y-93930828D01*
X166732228Y-93959400D01*
X166275085Y-94216542D02*
X166475085Y-94216542D01*
X166475085Y-94530828D02*
X166475085Y-93930828D01*
X166189371Y-93930828D01*
X166103657Y-94587971D02*
X165646514Y-94587971D01*
X165503657Y-94530828D02*
X165503657Y-93930828D01*
X165217942Y-94530828D02*
X165217942Y-93930828D01*
X164875085Y-94530828D01*
X164875085Y-93930828D01*
X176299942Y-93930828D02*
X175957085Y-93930828D01*
X176128514Y-94530828D02*
X176128514Y-93930828D01*
X175757085Y-94530828D02*
X175757085Y-93930828D01*
X175528514Y-93930828D01*
X175471371Y-93959400D01*
X175442800Y-93987971D01*
X175414228Y-94045114D01*
X175414228Y-94130828D01*
X175442800Y-94187971D01*
X175471371Y-94216542D01*
X175528514Y-94245114D01*
X175757085Y-94245114D01*
X175185657Y-94502257D02*
X175099942Y-94530828D01*
X174957085Y-94530828D01*
X174899942Y-94502257D01*
X174871371Y-94473685D01*
X174842800Y-94416542D01*
X174842800Y-94359400D01*
X174871371Y-94302257D01*
X174899942Y-94273685D01*
X174957085Y-94245114D01*
X175071371Y-94216542D01*
X175128514Y-94187971D01*
X175157085Y-94159400D01*
X175185657Y-94102257D01*
X175185657Y-94045114D01*
X175157085Y-93987971D01*
X175128514Y-93959400D01*
X175071371Y-93930828D01*
X174928514Y-93930828D01*
X174842800Y-93959400D01*
X174728514Y-94587971D02*
X174271371Y-94587971D01*
X174214228Y-93930828D02*
X173871371Y-93930828D01*
X174042800Y-94530828D02*
X174042800Y-93930828D01*
X173328514Y-94530828D02*
X173528514Y-94245114D01*
X173671371Y-94530828D02*
X173671371Y-93930828D01*
X173442800Y-93930828D01*
X173385657Y-93959400D01*
X173357085Y-93987971D01*
X173328514Y-94045114D01*
X173328514Y-94130828D01*
X173357085Y-94187971D01*
X173385657Y-94216542D01*
X173442800Y-94245114D01*
X173671371Y-94245114D01*
X173071371Y-94530828D02*
X173071371Y-93930828D01*
X172471371Y-93959400D02*
X172528514Y-93930828D01*
X172614228Y-93930828D01*
X172699942Y-93959400D01*
X172757085Y-94016542D01*
X172785657Y-94073685D01*
X172814228Y-94187971D01*
X172814228Y-94273685D01*
X172785657Y-94387971D01*
X172757085Y-94445114D01*
X172699942Y-94502257D01*
X172614228Y-94530828D01*
X172557085Y-94530828D01*
X172471371Y-94502257D01*
X172442800Y-94473685D01*
X172442800Y-94273685D01*
X172557085Y-94273685D01*
X157693085Y-100534828D02*
X157978800Y-100534828D01*
X158007371Y-100820542D01*
X157978800Y-100791971D01*
X157921657Y-100763400D01*
X157778800Y-100763400D01*
X157721657Y-100791971D01*
X157693085Y-100820542D01*
X157664514Y-100877685D01*
X157664514Y-101020542D01*
X157693085Y-101077685D01*
X157721657Y-101106257D01*
X157778800Y-101134828D01*
X157921657Y-101134828D01*
X157978800Y-101106257D01*
X158007371Y-101077685D01*
X157493085Y-100534828D02*
X157293085Y-101134828D01*
X157093085Y-100534828D01*
X170989942Y-100309400D02*
X171047085Y-100280828D01*
X171132800Y-100280828D01*
X171218514Y-100309400D01*
X171275657Y-100366542D01*
X171304228Y-100423685D01*
X171332800Y-100537971D01*
X171332800Y-100623685D01*
X171304228Y-100737971D01*
X171275657Y-100795114D01*
X171218514Y-100852257D01*
X171132800Y-100880828D01*
X171075657Y-100880828D01*
X170989942Y-100852257D01*
X170961371Y-100823685D01*
X170961371Y-100623685D01*
X171075657Y-100623685D01*
X170704228Y-100880828D02*
X170704228Y-100280828D01*
X170361371Y-100880828D01*
X170361371Y-100280828D01*
X170075657Y-100880828D02*
X170075657Y-100280828D01*
X169932800Y-100280828D01*
X169847085Y-100309400D01*
X169789942Y-100366542D01*
X169761371Y-100423685D01*
X169732800Y-100537971D01*
X169732800Y-100623685D01*
X169761371Y-100737971D01*
X169789942Y-100795114D01*
X169847085Y-100852257D01*
X169932800Y-100880828D01*
X170075657Y-100880828D01*
M02*
