M48
; DRILL file {KiCad (6.0.8)} date Mon Mar 20 22:14:46 2023
; FORMAT={-:-/ absolute / inch / decimal}
; #@! TF.CreationDate,2023-03-20T22:14:46+01:00
; #@! TF.GenerationSoftware,Kicad,Pcbnew,(6.0.8)
; #@! TF.FileFunction,Plated,1,2,PTH
FMAT,2
INCH
; #@! TA.AperFunction,Plated,PTH,ViaDrill
T1C0.0118
; #@! TA.AperFunction,Plated,PTH,ComponentDrill
T2C0.0291
; #@! TA.AperFunction,Plated,PTH,ComponentDrill
T3C0.0394
; #@! TA.AperFunction,Plated,PTH,ComponentDrill
T4C0.0516
; #@! TA.AperFunction,Plated,PTH,ComponentDrill
T5C0.1224
%
G90
G05
T1
X5.8589Y-5.126
X5.8839Y-4.486
X5.9389Y-4.406
X5.9679Y-4.739
X6.0122Y-4.126
X6.0122Y-4.416
X6.0139Y-5.011
X6.0222Y-4.306
X6.0222Y-4.606
X6.0289Y-5.106
X6.0639Y-4.346
X6.0639Y-4.651
X6.0939Y-4.346
X6.0939Y-4.651
X6.1239Y-5.251
X6.1522Y-4.176
X6.1522Y-4.476
X6.1639Y-4.366
X6.1689Y-4.671
X6.2689Y-4.761
X6.2939Y-4.761
X6.3189Y-4.761
X6.3322Y-4.106
X6.3322Y-4.406
X6.3522Y-4.7836
X6.3822Y-4.326
X6.3822Y-4.626
X6.3922Y-4.196
X6.3922Y-4.496
X6.4289Y-5.181
X6.4522Y-4.526
X6.4622Y-4.781
X6.6689Y-4.211
X6.6839Y-4.001
X6.7239Y-4.001
X6.7239Y-4.036
X6.7639Y-4.001
X6.7639Y-4.036
X6.8589Y-5.221
T2
X6.7239Y-4.381
X6.7239Y-4.681
X6.8239Y-4.381
X6.8239Y-4.681
X6.9239Y-4.381
X6.9239Y-4.681
T3
X6.6679Y-4.901
X6.7679Y-4.901
T4
X6.0441Y-3.641
X6.0441Y-3.891
X6.209Y-3.641
X6.209Y-3.891
X6.374Y-3.641
X6.374Y-3.891
X6.539Y-3.641
X6.539Y-3.891
X6.7039Y-3.641
X6.7039Y-3.891
X6.8689Y-3.641
X6.8689Y-3.891
T5
X6.1063Y-3.391
X6.8063Y-3.391
T0
M30
