%TF.GenerationSoftware,KiCad,Pcbnew,(6.0.8)*%
%TF.CreationDate,2023-03-20T22:14:44+01:00*%
%TF.ProjectId,BSPD-07,42535044-2d30-4372-9e6b-696361645f70,rev?*%
%TF.SameCoordinates,Original*%
%TF.FileFunction,Paste,Top*%
%TF.FilePolarity,Positive*%
%FSLAX46Y46*%
G04 Gerber Fmt 4.6, Leading zero omitted, Abs format (unit mm)*
G04 Created by KiCad (PCBNEW (6.0.8)) date 2023-03-20 22:14:44*
%MOMM*%
%LPD*%
G01*
G04 APERTURE LIST*
G04 Aperture macros list*
%AMRoundRect*
0 Rectangle with rounded corners*
0 $1 Rounding radius*
0 $2 $3 $4 $5 $6 $7 $8 $9 X,Y pos of 4 corners*
0 Add a 4 corners polygon primitive as box body*
4,1,4,$2,$3,$4,$5,$6,$7,$8,$9,$2,$3,0*
0 Add four circle primitives for the rounded corners*
1,1,$1+$1,$2,$3*
1,1,$1+$1,$4,$5*
1,1,$1+$1,$6,$7*
1,1,$1+$1,$8,$9*
0 Add four rect primitives between the rounded corners*
20,1,$1+$1,$2,$3,$4,$5,0*
20,1,$1+$1,$4,$5,$6,$7,0*
20,1,$1+$1,$6,$7,$8,$9,0*
20,1,$1+$1,$8,$9,$2,$3,0*%
G04 Aperture macros list end*
%ADD10RoundRect,0.135000X-0.185000X0.135000X-0.185000X-0.135000X0.185000X-0.135000X0.185000X0.135000X0*%
%ADD11RoundRect,0.135000X0.185000X-0.135000X0.185000X0.135000X-0.185000X0.135000X-0.185000X-0.135000X0*%
%ADD12RoundRect,0.135000X-0.135000X-0.185000X0.135000X-0.185000X0.135000X0.185000X-0.135000X0.185000X0*%
%ADD13RoundRect,0.250000X0.250000X0.475000X-0.250000X0.475000X-0.250000X-0.475000X0.250000X-0.475000X0*%
%ADD14RoundRect,0.147500X-0.172500X0.147500X-0.172500X-0.147500X0.172500X-0.147500X0.172500X0.147500X0*%
%ADD15R,1.528000X0.650000*%
%ADD16RoundRect,0.140000X0.170000X-0.140000X0.170000X0.140000X-0.170000X0.140000X-0.170000X-0.140000X0*%
%ADD17RoundRect,0.250000X0.475000X-0.250000X0.475000X0.250000X-0.475000X0.250000X-0.475000X-0.250000X0*%
%ADD18RoundRect,0.135000X0.135000X0.185000X-0.135000X0.185000X-0.135000X-0.185000X0.135000X-0.185000X0*%
%ADD19R,0.850000X0.300000*%
%ADD20R,1.700000X2.500000*%
%ADD21RoundRect,0.140000X-0.170000X0.140000X-0.170000X-0.140000X0.170000X-0.140000X0.170000X0.140000X0*%
%ADD22RoundRect,0.250000X-0.475000X0.250000X-0.475000X-0.250000X0.475000X-0.250000X0.475000X0.250000X0*%
%ADD23R,0.600000X1.200000*%
%ADD24R,0.400000X1.050000*%
%ADD25R,0.800000X1.200000*%
%ADD26R,0.600000X1.300000*%
%ADD27R,0.500000X1.100000*%
%ADD28RoundRect,0.140000X-0.140000X-0.170000X0.140000X-0.170000X0.140000X0.170000X-0.140000X0.170000X0*%
%ADD29R,1.100000X0.500000*%
G04 APERTURE END LIST*
D10*
%TO.C,R18*%
X148942800Y-126007400D03*
X148942800Y-127027400D03*
%TD*%
D11*
%TO.C,R23*%
X175739800Y-126646400D03*
X175739800Y-125626400D03*
%TD*%
D12*
%TO.C,R15*%
X161511800Y-131724400D03*
X162531800Y-131724400D03*
%TD*%
D13*
%TO.C,C5*%
X158655800Y-128549400D03*
X156755800Y-128549400D03*
%TD*%
D14*
%TO.C,D2*%
X150676800Y-115722400D03*
X150676800Y-116692400D03*
%TD*%
D11*
%TO.C,R4*%
X161550800Y-109120400D03*
X161550800Y-108100400D03*
%TD*%
D15*
%TO.C,IC1*%
X154394800Y-105689400D03*
X154394800Y-106959400D03*
X154394800Y-108229400D03*
X154394800Y-109499400D03*
X159816800Y-109499400D03*
X159816800Y-108229400D03*
X159816800Y-106959400D03*
X159816800Y-105689400D03*
%TD*%
D16*
%TO.C,C4*%
X151990800Y-126997400D03*
X151990800Y-126037400D03*
%TD*%
D17*
%TO.C,C3*%
X164646800Y-124485400D03*
X164646800Y-122585400D03*
%TD*%
D11*
%TO.C,R5*%
X151946800Y-116740400D03*
X151946800Y-115720400D03*
%TD*%
%TO.C,R12*%
X166424800Y-123219400D03*
X166424800Y-122199400D03*
%TD*%
%TO.C,R7*%
X162868800Y-109120400D03*
X162868800Y-108100400D03*
%TD*%
D18*
%TO.C,R20*%
X154837600Y-129260600D03*
X153817600Y-129260600D03*
%TD*%
D11*
%TO.C,R11*%
X161598800Y-123283400D03*
X161598800Y-122263400D03*
%TD*%
D18*
%TO.C,R21*%
X154837600Y-133629400D03*
X153817600Y-133629400D03*
%TD*%
D15*
%TO.C,IC2*%
X154315800Y-113309400D03*
X154315800Y-114579400D03*
X154315800Y-115849400D03*
X154315800Y-117119400D03*
X159737800Y-117119400D03*
X159737800Y-115849400D03*
X159737800Y-114579400D03*
X159737800Y-113309400D03*
%TD*%
D19*
%TO.C,IC4*%
X173633800Y-106131400D03*
X173633800Y-105181400D03*
X173633800Y-104231400D03*
X170733800Y-104231400D03*
X170733800Y-105181400D03*
X170733800Y-106131400D03*
D20*
X172183800Y-105181400D03*
%TD*%
D21*
%TO.C,C2*%
X161548000Y-112372200D03*
X161548000Y-113332200D03*
%TD*%
D14*
%TO.C,D1*%
X150727600Y-108098000D03*
X150727600Y-109068000D03*
%TD*%
D22*
%TO.C,C6*%
X176120800Y-104231400D03*
X176120800Y-106131400D03*
%TD*%
D11*
%TO.C,R9*%
X162820800Y-105818400D03*
X162820800Y-104798400D03*
%TD*%
D23*
%TO.C,LED1*%
X175882000Y-129594200D03*
X175882000Y-131394200D03*
X176832000Y-131394200D03*
X176832000Y-129594200D03*
%TD*%
D24*
%TO.C,IC5*%
X165804800Y-116042400D03*
X165154800Y-116042400D03*
X164504800Y-116042400D03*
X164504800Y-117942400D03*
X165804800Y-117942400D03*
%TD*%
D15*
%TO.C,IC3*%
X159737800Y-125948400D03*
X159737800Y-124678400D03*
X159737800Y-123408400D03*
X159737800Y-122138400D03*
X154315800Y-122138400D03*
X154315800Y-123408400D03*
X154315800Y-124678400D03*
X154315800Y-125948400D03*
%TD*%
D25*
%TO.C,U2*%
X170024800Y-133858400D03*
X172564800Y-133858400D03*
X172564800Y-127558400D03*
X170024800Y-127558400D03*
%TD*%
D11*
%TO.C,R26*%
X151940000Y-122150600D03*
X151940000Y-121130600D03*
%TD*%
%TO.C,R10*%
X162894200Y-113336800D03*
X162894200Y-112316800D03*
%TD*%
D12*
%TO.C,R16*%
X161469800Y-125882400D03*
X162489800Y-125882400D03*
%TD*%
D18*
%TO.C,R14*%
X162531800Y-130327400D03*
X161511800Y-130327400D03*
%TD*%
D11*
%TO.C,R8*%
X162868800Y-116740400D03*
X162868800Y-115720400D03*
%TD*%
D22*
%TO.C,C7*%
X168246800Y-104104400D03*
X168246800Y-106004400D03*
%TD*%
D10*
%TO.C,R2*%
X151946800Y-112672400D03*
X151946800Y-113692400D03*
%TD*%
%TO.C,R19*%
X150593800Y-126007400D03*
X150593800Y-127027400D03*
%TD*%
D11*
%TO.C,R3*%
X151946800Y-109118400D03*
X151946800Y-108098400D03*
%TD*%
D18*
%TO.C,R22*%
X168147200Y-133883400D03*
X167127200Y-133883400D03*
%TD*%
D10*
%TO.C,R25*%
X150670000Y-121130600D03*
X150670000Y-122150600D03*
%TD*%
%TO.C,R1*%
X151946800Y-105308400D03*
X151946800Y-106328400D03*
%TD*%
D11*
%TO.C,R24*%
X177009800Y-126646400D03*
X177009800Y-125626400D03*
%TD*%
%TO.C,R6*%
X161598800Y-116740400D03*
X161598800Y-115720400D03*
%TD*%
D21*
%TO.C,C1*%
X161550800Y-104828400D03*
X161550800Y-105788400D03*
%TD*%
D26*
%TO.C,Q1*%
X166021800Y-126587400D03*
X165071800Y-126587400D03*
X164121800Y-126587400D03*
X164121800Y-128987400D03*
X165071800Y-128987400D03*
X166021800Y-128987400D03*
%TD*%
D27*
%TO.C,Q3*%
X150989800Y-131332400D03*
X149689800Y-131332400D03*
X150339800Y-133132400D03*
%TD*%
D11*
%TO.C,R13*%
X162868800Y-123283400D03*
X162868800Y-122263400D03*
%TD*%
D28*
%TO.C,C8*%
X153847600Y-127990600D03*
X154807600Y-127990600D03*
%TD*%
D12*
%TO.C,R17*%
X161511800Y-127279400D03*
X162531800Y-127279400D03*
%TD*%
D29*
%TO.C,Q2*%
X154138800Y-130795000D03*
X154138800Y-132095000D03*
X155938800Y-131445000D03*
%TD*%
M02*
