M48
; DRILL file {KiCad (6.0.8)} date Mon Nov 13 19:04:33 2023
; FORMAT={-:-/ absolute / inch / decimal}
; #@! TF.CreationDate,2023-11-13T19:04:33+01:00
; #@! TF.GenerationSoftware,Kicad,Pcbnew,(6.0.8)
; #@! TF.FileFunction,Plated,1,4,PTH
FMAT,2
INCH
; #@! TA.AperFunction,Plated,PTH,ViaDrill
T1C0.0118
; #@! TA.AperFunction,Plated,PTH,ComponentDrill
T2C0.0291
; #@! TA.AperFunction,Plated,PTH,ComponentDrill
T3C0.0394
; #@! TA.AperFunction,Plated,PTH,ComponentDrill
T4C0.0516
; #@! TA.AperFunction,Plated,PTH,ComponentDrill
T5C0.1224
%
G90
G05
T1
X5.914Y-4.73
X5.915Y-4.898
X5.944Y-4.388
X5.945Y-4.126
X5.975Y-4.985
X5.975Y-5.21
X5.994Y-4.388
X5.996Y-4.126
X6.01Y-4.73
X6.016Y-5.242
X6.0249Y-4.3818
X6.032Y-4.896
X6.0349Y-4.346
X6.0357Y-4.6069
X6.0357Y-4.86
X6.05Y-5.12
X6.0622Y-5.2409
X6.0637Y-4.6069
X6.0637Y-4.86
X6.0639Y-4.346
X6.075Y-5.12
X6.088Y-5.184
X6.0937Y-4.6069
X6.0937Y-4.86
X6.0939Y-4.346
X6.094Y-4.102
X6.099Y-5.12
X6.135Y-4.72
X6.135Y-5.045
X6.157Y-4.4923
X6.1625Y-4.2425
X6.231Y-4.449
X6.235Y-5.215
X6.24Y-4.77
X6.242Y-4.197
X6.2598Y-4.3809
X6.26Y-4.127
X6.2641Y-4.6444
X6.2689Y-4.8873
X6.276Y-5.33
X6.2848Y-4.3809
X6.285Y-4.127
X6.2891Y-4.6444
X6.2939Y-4.8873
X6.3098Y-4.3809
X6.31Y-4.127
X6.3141Y-4.6444
X6.3189Y-4.8873
X6.335Y-4.2313
X6.3377Y-4.2858
X6.339Y-4.552
X6.34Y-4.794
X6.34Y-5.258
X6.3408Y-4.4465
X6.3417Y-4.199
X6.3587Y-4.3519
X6.36Y-4.619
X6.3619Y-4.099
X6.3825Y-4.7648
X6.387Y-4.4889
X6.412Y-4.23
X6.415Y-4.355
X6.43Y-4.64
X6.43Y-4.915
X6.438Y-4.513
X6.442Y-4.792
X6.445Y-4.335
X6.475Y-4.53
X6.49Y-5.03
X6.49Y-5.105
X6.5097Y-4.895
X6.52Y-4.02
X6.5206Y-4.225
X6.53Y-4.685
X6.535Y-5.15
X6.55Y-4.3203
X6.55Y-5.045
X6.56Y-4.04
X6.57Y-4.275
X6.5703Y-4.725
X6.61Y-4.035
X6.615Y-5.045
X6.675Y-4.32
X6.675Y-4.64
X6.6789Y-4.086
X6.68Y-4.195
X6.68Y-4.224
X6.68Y-4.255
X6.71Y-4.195
X6.71Y-4.224
X6.71Y-4.255
X6.715Y-5.04
X6.7189Y-4.086
X6.7189Y-4.121
X6.72Y-4.9
X6.7589Y-4.086
X6.7589Y-4.121
X6.7989Y-4.086
X6.7989Y-4.121
X6.81Y-5.03
X6.8339Y-4.086
X6.8339Y-4.121
X6.895Y-4.935
X6.965Y-4.935
X6.965Y-5.14
T2
X6.715Y-4.477
X6.715Y-4.7835
X6.815Y-4.477
X6.815Y-4.7835
X6.915Y-4.477
X6.915Y-4.7835
T3
X6.9048Y-5.23
X7.0048Y-5.23
T4
X6.0415Y-3.616
X6.0415Y-3.866
X6.2064Y-3.616
X6.2064Y-3.866
X6.3714Y-3.616
X6.3714Y-3.866
X6.5364Y-3.616
X6.5364Y-3.866
X6.7013Y-3.616
X6.7013Y-3.866
X6.8663Y-3.616
X6.8663Y-3.866
T5
X6.1037Y-3.366
X6.8037Y-3.366
T0
M30
