%TF.GenerationSoftware,KiCad,Pcbnew,(6.0.8)*%
%TF.CreationDate,2023-11-13T19:04:32+01:00*%
%TF.ProjectId,BSPD-07,42535044-2d30-4372-9e6b-696361645f70,rev?*%
%TF.SameCoordinates,Original*%
%TF.FileFunction,Drillmap*%
%TF.FilePolarity,Positive*%
%FSLAX45Y45*%
G04 Gerber Fmt 4.5, Leading zero omitted, Abs format (unit mm)*
G04 Created by KiCad (PCBNEW (6.0.8)) date 2023-11-13 19:04:32*
%MOMM*%
%LPD*%
G01*
G04 APERTURE LIST*
%ADD10C,0.100000*%
%ADD11C,0.200000*%
G04 APERTURE END LIST*
D10*
X15102743Y-8238492D02*
G75*
G03*
X14935200Y-8403590I-3J-167558D01*
G01*
X17980380Y-8403590D02*
G75*
G03*
X17815280Y-8238490I-165100J0D01*
G01*
X17815280Y-8238490D02*
X15102743Y-8238490D01*
X17815280Y-13585190D02*
G75*
G03*
X17980380Y-13420090I0J165100D01*
G01*
X14935202Y-13420090D02*
G75*
G03*
X15102743Y-13585190I165118J0D01*
G01*
X15102743Y-13585190D02*
X17815280Y-13585190D01*
X14935200Y-8403590D02*
X14935200Y-13420090D01*
X17980380Y-8403590D02*
X17980380Y-13420090D01*
D11*
X15187819Y-13900684D02*
X15187819Y-13700684D01*
X15235438Y-13700684D01*
X15264009Y-13710208D01*
X15283057Y-13729255D01*
X15292581Y-13748303D01*
X15302105Y-13786398D01*
X15302105Y-13814970D01*
X15292581Y-13853065D01*
X15283057Y-13872112D01*
X15264009Y-13891160D01*
X15235438Y-13900684D01*
X15187819Y-13900684D01*
X15387819Y-13900684D02*
X15387819Y-13767351D01*
X15387819Y-13805446D02*
X15397343Y-13786398D01*
X15406867Y-13776874D01*
X15425914Y-13767351D01*
X15444962Y-13767351D01*
X15511628Y-13900684D02*
X15511628Y-13767351D01*
X15511628Y-13700684D02*
X15502105Y-13710208D01*
X15511628Y-13719732D01*
X15521152Y-13710208D01*
X15511628Y-13700684D01*
X15511628Y-13719732D01*
X15635438Y-13900684D02*
X15616390Y-13891160D01*
X15606867Y-13872112D01*
X15606867Y-13700684D01*
X15740200Y-13900684D02*
X15721152Y-13891160D01*
X15711628Y-13872112D01*
X15711628Y-13700684D01*
X15968771Y-13900684D02*
X15968771Y-13700684D01*
X16035438Y-13843541D01*
X16102105Y-13700684D01*
X16102105Y-13900684D01*
X16283057Y-13900684D02*
X16283057Y-13795922D01*
X16273533Y-13776874D01*
X16254486Y-13767351D01*
X16216390Y-13767351D01*
X16197343Y-13776874D01*
X16283057Y-13891160D02*
X16264009Y-13900684D01*
X16216390Y-13900684D01*
X16197343Y-13891160D01*
X16187819Y-13872112D01*
X16187819Y-13853065D01*
X16197343Y-13834017D01*
X16216390Y-13824493D01*
X16264009Y-13824493D01*
X16283057Y-13814970D01*
X16378295Y-13767351D02*
X16378295Y-13967351D01*
X16378295Y-13776874D02*
X16397343Y-13767351D01*
X16435438Y-13767351D01*
X16454486Y-13776874D01*
X16464009Y-13786398D01*
X16473533Y-13805446D01*
X16473533Y-13862589D01*
X16464009Y-13881636D01*
X16454486Y-13891160D01*
X16435438Y-13900684D01*
X16397343Y-13900684D01*
X16378295Y-13891160D01*
X16559248Y-13881636D02*
X16568771Y-13891160D01*
X16559248Y-13900684D01*
X16549724Y-13891160D01*
X16559248Y-13881636D01*
X16559248Y-13900684D01*
X16559248Y-13776874D02*
X16568771Y-13786398D01*
X16559248Y-13795922D01*
X16549724Y-13786398D01*
X16559248Y-13776874D01*
X16559248Y-13795922D01*
M02*
