%TF.GenerationSoftware,KiCad,Pcbnew,(6.0.8)*%
%TF.CreationDate,2023-11-13T19:04:35+01:00*%
%TF.ProjectId,BSPD-07,42535044-2d30-4372-9e6b-696361645f70,rev?*%
%TF.SameCoordinates,Original*%
%TF.FileFunction,Copper,L4,Bot*%
%TF.FilePolarity,Positive*%
%FSLAX46Y46*%
G04 Gerber Fmt 4.6, Leading zero omitted, Abs format (unit mm)*
G04 Created by KiCad (PCBNEW (6.0.8)) date 2023-11-13 19:04:35*
%MOMM*%
%LPD*%
G01*
G04 APERTURE LIST*
%TA.AperFunction,ComponentPad*%
%ADD10C,1.269000*%
%TD*%
%TA.AperFunction,ComponentPad*%
%ADD11R,1.700000X1.700000*%
%TD*%
%TA.AperFunction,ComponentPad*%
%ADD12O,1.700000X1.700000*%
%TD*%
%TA.AperFunction,ComponentPad*%
%ADD13C,4.665000*%
%TD*%
%TA.AperFunction,ComponentPad*%
%ADD14C,1.965000*%
%TD*%
%TA.AperFunction,ViaPad*%
%ADD15C,0.600000*%
%TD*%
%TA.AperFunction,Conductor*%
%ADD16C,0.254000*%
%TD*%
G04 APERTURE END LIST*
D10*
%TO.P,RV1,1,1*%
%TO.N,unconnected-(RV1-Pad1)*%
X170561000Y-113715800D03*
%TO.P,RV1,2,2*%
%TO.N,+5V*%
X173101000Y-113715800D03*
%TO.P,RV1,3,3*%
%TO.N,TPS_TRIG*%
X175641000Y-113715800D03*
%TD*%
%TO.P,RV2,1,1*%
%TO.N,unconnected-(RV2-Pad1)*%
X170561000Y-121500500D03*
%TO.P,RV2,2,2*%
%TO.N,+5V*%
X173101000Y-121500500D03*
%TO.P,RV2,3,3*%
%TO.N,BRAKE_TRIG*%
X175641000Y-121500500D03*
%TD*%
D11*
%TO.P,JP1,1,A*%
%TO.N,SAFETY_IN*%
X175382000Y-132842000D03*
D12*
%TO.P,JP1,2,B*%
%TO.N,SAFETY_OUT*%
X177922000Y-132842000D03*
%TD*%
D13*
%TO.P,J1,MH2,MH2*%
%TO.N,unconnected-(J1-PadMH2)*%
X155033800Y-85496400D03*
%TO.P,J1,MH1,MH1*%
%TO.N,unconnected-(J1-PadMH1)*%
X172813800Y-85496400D03*
D14*
%TO.P,J1,12,12*%
%TO.N,TPS_TRIG*%
X174403800Y-91846400D03*
%TO.P,J1,11,11*%
%TO.N,BRAKE_TRIG*%
X170213800Y-91846400D03*
%TO.P,J1,10,10*%
%TO.N,SAFETY_IN*%
X166023800Y-91846400D03*
%TO.P,J1,9,9*%
%TO.N,unconnected-(J1-Pad9)*%
X161833800Y-91846400D03*
%TO.P,J1,8,8*%
%TO.N,unconnected-(J1-Pad8)*%
X157643800Y-91846400D03*
%TO.P,J1,7,7*%
%TO.N,BRAKE_IN_NF*%
X153453800Y-91846400D03*
%TO.P,J1,6,6*%
%TO.N,TPS_IN_NF*%
X153453800Y-98196400D03*
%TO.P,J1,5,5*%
%TO.N,+5V*%
X157643800Y-98196400D03*
%TO.P,J1,4,4*%
%TO.N,unconnected-(J1-Pad4)*%
X161833800Y-98196400D03*
%TO.P,J1,3,3*%
%TO.N,SAFETY_OUT*%
X166023800Y-98196400D03*
%TO.P,J1,2,2*%
%TO.N,GND*%
X170213800Y-98196400D03*
%TO.P,J1,1,1*%
%TO.N,+12V*%
X174403800Y-98196400D03*
%TD*%
D15*
%TO.N,GND*%
X152247600Y-111455200D03*
%TO.N,BRAKE_IN*%
X153031446Y-111297749D03*
X154787600Y-104190800D03*
%TO.N,GND*%
X150977600Y-111455200D03*
X151003000Y-104800400D03*
%TO.N,TPS_COMP_OUT*%
X161080302Y-106654600D03*
X158546800Y-106603800D03*
%TO.N,TPS_IN*%
X156527500Y-107759500D03*
X158496000Y-121158000D03*
%TO.N,GND*%
X154022800Y-110388400D03*
X153286200Y-110388400D03*
X160499800Y-124138000D03*
X165989000Y-130810000D03*
X171675800Y-103784400D03*
X153212800Y-124358400D03*
X161010600Y-115620800D03*
X159229800Y-124138000D03*
X159410400Y-135382000D03*
X153307600Y-123444000D03*
X161036000Y-121767600D03*
X173580800Y-104673400D03*
X159864800Y-124138000D03*
X164846000Y-127762000D03*
X153307600Y-117015800D03*
X161544000Y-117322600D03*
X166878000Y-108585000D03*
X152654000Y-120142000D03*
X169643800Y-103784400D03*
X154018800Y-123444000D03*
X154784800Y-110388400D03*
X172691800Y-103784400D03*
X152298400Y-104800400D03*
X172691800Y-104673400D03*
X173580800Y-103784400D03*
X164465000Y-115062000D03*
X154780800Y-117015800D03*
X154018800Y-117015800D03*
X160977207Y-108858314D03*
X176911000Y-130556000D03*
X161592000Y-104114600D03*
X170659800Y-104673400D03*
X161511800Y-110538800D03*
X151765000Y-126619000D03*
X154780800Y-123444000D03*
X171675800Y-104673400D03*
X170659800Y-103784400D03*
X152806400Y-133146800D03*
X154635200Y-131673600D03*
%TO.N,+5V*%
X163626800Y-121716800D03*
X158369000Y-132461000D03*
X159639000Y-104825800D03*
X150241000Y-124409200D03*
X165862000Y-118999000D03*
X169672000Y-106553000D03*
X159000000Y-111275400D03*
X170434000Y-107289600D03*
X162864800Y-107442000D03*
X151765000Y-132334000D03*
X160274000Y-104825800D03*
X160377737Y-117968230D03*
X170434000Y-106553000D03*
X159107737Y-117968230D03*
X176911000Y-125349000D03*
X159635000Y-111275400D03*
X154914600Y-130048000D03*
X159742737Y-117968230D03*
X153979385Y-133117949D03*
X163322000Y-124841000D03*
X161036000Y-133553200D03*
X163525200Y-114630200D03*
X160270000Y-111275400D03*
X150215600Y-120142000D03*
X168021000Y-128143000D03*
X175133000Y-125349000D03*
X170434000Y-108077000D03*
X166370000Y-128143000D03*
X153670000Y-130048000D03*
X154305000Y-130048000D03*
X169672000Y-107289600D03*
X159004000Y-104825800D03*
X169672000Y-108077000D03*
X162941000Y-110617000D03*
%TO.N,BRAKE_COMP_OUT*%
X158267400Y-113004600D03*
X161055263Y-112941170D03*
%TO.N,BRAKE_IN*%
X155829000Y-119888000D03*
X156387901Y-114104367D03*
%TO.N,SAFETY_IN*%
X166624000Y-102616000D03*
X166370000Y-109736500D03*
X170561000Y-128016000D03*
%TO.N,SAFETY_OUT*%
X170688000Y-124460000D03*
X172974000Y-127762000D03*
X166886500Y-120015000D03*
X165608000Y-102108000D03*
X165624500Y-107315000D03*
%TO.N,TPS_TRIG*%
X163703000Y-110109000D03*
%TO.N,BRAKE_TRIG*%
X169545000Y-117856000D03*
X169545000Y-109728000D03*
X163322000Y-117856000D03*
X167894000Y-102489000D03*
%TO.N,ERR_FINAL*%
X155829000Y-128143000D03*
X162229800Y-114018484D03*
X162114764Y-121025237D03*
X165345500Y-124333000D03*
X164846000Y-129667000D03*
X160909000Y-107473900D03*
%TD*%
D16*
%TO.N,BRAKE_IN*%
X154787600Y-106273600D02*
X154787600Y-104190800D01*
X152659200Y-110648112D02*
X152659200Y-108402000D01*
X153031446Y-111020358D02*
X152659200Y-110648112D01*
X153031446Y-111297749D02*
X153031446Y-111020358D01*
X152659200Y-108402000D02*
X154787600Y-106273600D01*
%TO.N,TPS_IN*%
X157014901Y-119676901D02*
X158496000Y-121158000D01*
X156527500Y-107759500D02*
X157014901Y-108246901D01*
X157014901Y-108246901D02*
X157014901Y-119676901D01*
%TO.N,TPS_COMP_OUT*%
X161029502Y-106603800D02*
X161080302Y-106654600D01*
X158546800Y-106603800D02*
X161029502Y-106603800D01*
%TO.N,BRAKE_COMP_OUT*%
X160991833Y-113004600D02*
X158267400Y-113004600D01*
X161055263Y-112941170D02*
X160991833Y-113004600D01*
%TO.N,BRAKE_IN*%
X156387901Y-119329099D02*
X156387901Y-114104367D01*
X155829000Y-119888000D02*
X156387901Y-119329099D01*
%TO.N,SAFETY_IN*%
X166624000Y-102616000D02*
X166251000Y-102989000D01*
X166251000Y-109617500D02*
X166370000Y-109736500D01*
X175382000Y-132842000D02*
X175382000Y-132837000D01*
X175382000Y-132837000D02*
X170561000Y-128016000D01*
X166251000Y-102989000D02*
X166251000Y-109617500D01*
%TO.N,SAFETY_OUT*%
X165608000Y-102108000D02*
X165608000Y-107298500D01*
X165608000Y-107298500D02*
X165624500Y-107315000D01*
X172974000Y-128013712D02*
X172974000Y-127762000D01*
X166886500Y-120658500D02*
X170688000Y-124460000D01*
X177802288Y-132842000D02*
X172974000Y-128013712D01*
X166886500Y-120015000D02*
X166886500Y-120658500D01*
X177922000Y-132842000D02*
X177802288Y-132842000D01*
%TO.N,TPS_TRIG*%
X172412400Y-110363000D02*
X175765200Y-113715800D01*
X163957000Y-110363000D02*
X172412400Y-110363000D01*
X163703000Y-110109000D02*
X163957000Y-110363000D01*
%TO.N,BRAKE_TRIG*%
X171315000Y-119626000D02*
X174004600Y-119626000D01*
X163322000Y-117856000D02*
X169545000Y-117856000D01*
X174004600Y-119626000D02*
X175816000Y-121437400D01*
X167894000Y-102489000D02*
X167894000Y-108077000D01*
X167894000Y-108077000D02*
X169545000Y-109728000D01*
X169545000Y-117856000D02*
X171315000Y-119626000D01*
%TO.N,ERR_FINAL*%
X162560000Y-120580001D02*
X162560000Y-114348684D01*
X162114764Y-121025237D02*
X162153600Y-121064073D01*
X160909000Y-107473900D02*
X162298000Y-108862900D01*
X162114764Y-121091476D02*
X162114764Y-121025237D01*
X165345500Y-124333000D02*
X165345500Y-124322212D01*
X162560000Y-114348684D02*
X162229800Y-114018484D01*
X155829000Y-128143000D02*
X157353000Y-129667000D01*
X165345500Y-124322212D02*
X162114764Y-121091476D01*
X162114764Y-121025237D02*
X162560000Y-120580001D01*
X157353000Y-129667000D02*
X164846000Y-129667000D01*
X162298000Y-108862900D02*
X162298000Y-114172706D01*
%TD*%
M02*
