%TF.GenerationSoftware,KiCad,Pcbnew,(6.0.8)*%
%TF.CreationDate,2023-11-13T19:04:35+01:00*%
%TF.ProjectId,BSPD-07,42535044-2d30-4372-9e6b-696361645f70,rev?*%
%TF.SameCoordinates,Original*%
%TF.FileFunction,Copper,L3,Inr*%
%TF.FilePolarity,Positive*%
%FSLAX46Y46*%
G04 Gerber Fmt 4.6, Leading zero omitted, Abs format (unit mm)*
G04 Created by KiCad (PCBNEW (6.0.8)) date 2023-11-13 19:04:35*
%MOMM*%
%LPD*%
G01*
G04 APERTURE LIST*
%TA.AperFunction,ComponentPad*%
%ADD10C,1.269000*%
%TD*%
%TA.AperFunction,ComponentPad*%
%ADD11R,1.700000X1.700000*%
%TD*%
%TA.AperFunction,ComponentPad*%
%ADD12O,1.700000X1.700000*%
%TD*%
%TA.AperFunction,ComponentPad*%
%ADD13C,4.665000*%
%TD*%
%TA.AperFunction,ComponentPad*%
%ADD14C,1.965000*%
%TD*%
%TA.AperFunction,ViaPad*%
%ADD15C,0.600000*%
%TD*%
G04 APERTURE END LIST*
D10*
%TO.N,unconnected-(RV1-Pad1)*%
%TO.C,RV1*%
X170561000Y-113715800D03*
%TO.N,+5V*%
X173101000Y-113715800D03*
%TO.N,TPS_TRIG*%
X175641000Y-113715800D03*
%TD*%
%TO.N,unconnected-(RV2-Pad1)*%
%TO.C,RV2*%
X170561000Y-121500500D03*
%TO.N,+5V*%
X173101000Y-121500500D03*
%TO.N,BRAKE_TRIG*%
X175641000Y-121500500D03*
%TD*%
D11*
%TO.N,SAFETY_IN*%
%TO.C,JP1*%
X175382000Y-132842000D03*
D12*
%TO.N,SAFETY_OUT*%
X177922000Y-132842000D03*
%TD*%
D13*
%TO.N,unconnected-(J1-PadMH2)*%
%TO.C,J1*%
X155033800Y-85496400D03*
%TO.N,unconnected-(J1-PadMH1)*%
X172813800Y-85496400D03*
D14*
%TO.N,TPS_TRIG*%
X174403800Y-91846400D03*
%TO.N,BRAKE_TRIG*%
X170213800Y-91846400D03*
%TO.N,SAFETY_IN*%
X166023800Y-91846400D03*
%TO.N,unconnected-(J1-Pad9)*%
X161833800Y-91846400D03*
%TO.N,unconnected-(J1-Pad8)*%
X157643800Y-91846400D03*
%TO.N,BRAKE_IN_NF*%
X153453800Y-91846400D03*
%TO.N,TPS_IN_NF*%
X153453800Y-98196400D03*
%TO.N,+5V*%
X157643800Y-98196400D03*
%TO.N,unconnected-(J1-Pad4)*%
X161833800Y-98196400D03*
%TO.N,SAFETY_OUT*%
X166023800Y-98196400D03*
%TO.N,GND*%
X170213800Y-98196400D03*
%TO.N,+12V*%
X174403800Y-98196400D03*
%TD*%
D15*
%TO.N,GND*%
X152247600Y-111455200D03*
%TO.N,BRAKE_IN*%
X153031446Y-111297749D03*
X154787600Y-104190800D03*
%TO.N,GND*%
X150977600Y-111455200D03*
X151003000Y-104800400D03*
%TO.N,TPS_COMP_OUT*%
X161080302Y-106654600D03*
X158546800Y-106603800D03*
%TO.N,TPS_IN*%
X156527500Y-107759500D03*
X158496000Y-121158000D03*
%TO.N,GND*%
X154022800Y-110388400D03*
X153286200Y-110388400D03*
X160499800Y-124138000D03*
X165989000Y-130810000D03*
X171675800Y-103784400D03*
X153212800Y-124358400D03*
X161010600Y-115620800D03*
X159229800Y-124138000D03*
X159410400Y-135382000D03*
X153307600Y-123444000D03*
X161036000Y-121767600D03*
X173580800Y-104673400D03*
X159864800Y-124138000D03*
X164846000Y-127762000D03*
X153307600Y-117015800D03*
X161544000Y-117322600D03*
X166878000Y-108585000D03*
X152654000Y-120142000D03*
X169643800Y-103784400D03*
X154018800Y-123444000D03*
X154784800Y-110388400D03*
X172691800Y-103784400D03*
X152298400Y-104800400D03*
X172691800Y-104673400D03*
X173580800Y-103784400D03*
X164465000Y-115062000D03*
X154780800Y-117015800D03*
X154018800Y-117015800D03*
X160977207Y-108858314D03*
X176911000Y-130556000D03*
X161592000Y-104114600D03*
X170659800Y-104673400D03*
X161511800Y-110538800D03*
X151765000Y-126619000D03*
X154780800Y-123444000D03*
X171675800Y-104673400D03*
X170659800Y-103784400D03*
X152806400Y-133146800D03*
X154635200Y-131673600D03*
%TO.N,+5V*%
X163626800Y-121716800D03*
X158369000Y-132461000D03*
X159639000Y-104825800D03*
X150241000Y-124409200D03*
X165862000Y-118999000D03*
X169672000Y-106553000D03*
X159000000Y-111275400D03*
X170434000Y-107289600D03*
X162864800Y-107442000D03*
X151765000Y-132334000D03*
X160274000Y-104825800D03*
X160377737Y-117968230D03*
X170434000Y-106553000D03*
X159107737Y-117968230D03*
X176911000Y-125349000D03*
X159635000Y-111275400D03*
X154914600Y-130048000D03*
X159742737Y-117968230D03*
X153979385Y-133117949D03*
X163322000Y-124841000D03*
X161036000Y-133553200D03*
X163525200Y-114630200D03*
X160270000Y-111275400D03*
X150215600Y-120142000D03*
X168021000Y-128143000D03*
X175133000Y-125349000D03*
X170434000Y-108077000D03*
X166370000Y-128143000D03*
X153670000Y-130048000D03*
X154305000Y-130048000D03*
X169672000Y-107289600D03*
X159004000Y-104825800D03*
X169672000Y-108077000D03*
X162941000Y-110617000D03*
%TO.N,BRAKE_COMP_OUT*%
X158267400Y-113004600D03*
X161055263Y-112941170D03*
%TO.N,BRAKE_IN*%
X155829000Y-119888000D03*
X156387901Y-114104367D03*
%TO.N,SAFETY_IN*%
X166624000Y-102616000D03*
X166370000Y-109736500D03*
X170561000Y-128016000D03*
%TO.N,SAFETY_OUT*%
X170688000Y-124460000D03*
X172974000Y-127762000D03*
X166886500Y-120015000D03*
X165608000Y-102108000D03*
X165624500Y-107315000D03*
%TO.N,TPS_TRIG*%
X163703000Y-110109000D03*
%TO.N,BRAKE_TRIG*%
X169545000Y-117856000D03*
X169545000Y-109728000D03*
X163322000Y-117856000D03*
X167894000Y-102489000D03*
%TO.N,ERR_FINAL*%
X155829000Y-128143000D03*
X162229800Y-114018484D03*
X162114764Y-121025237D03*
X165345500Y-124333000D03*
X164846000Y-129667000D03*
X160909000Y-107473900D03*
%TD*%
%TA.AperFunction,Conductor*%
%TO.N,GND*%
G36*
X178133961Y-82595574D02*
G01*
X178138598Y-82595582D01*
X178152427Y-82598762D01*
X178166269Y-82595630D01*
X178176630Y-82595648D01*
X178186289Y-82596036D01*
X178368534Y-82610379D01*
X178368572Y-82610382D01*
X178388099Y-82613475D01*
X178588921Y-82661688D01*
X178607715Y-82667794D01*
X178798524Y-82746830D01*
X178816129Y-82755800D01*
X178992229Y-82863714D01*
X179008224Y-82875336D01*
X179165261Y-83009458D01*
X179179242Y-83023439D01*
X179313364Y-83180476D01*
X179324985Y-83196469D01*
X179432900Y-83372571D01*
X179441870Y-83390176D01*
X179520904Y-83580980D01*
X179527012Y-83599779D01*
X179572411Y-83788877D01*
X179575225Y-83800600D01*
X179578318Y-83820128D01*
X179592744Y-84003428D01*
X179593132Y-84013533D01*
X179593118Y-84021699D01*
X179589938Y-84035527D01*
X179593070Y-84049368D01*
X179593063Y-84053278D01*
X179595300Y-84073300D01*
X179595300Y-134162910D01*
X179593126Y-134182061D01*
X179593118Y-134186698D01*
X179589938Y-134200527D01*
X179593070Y-134214369D01*
X179593052Y-134224730D01*
X179592664Y-134234396D01*
X179578318Y-134416672D01*
X179575225Y-134436199D01*
X179531206Y-134619556D01*
X179527014Y-134637016D01*
X179520906Y-134655815D01*
X179441870Y-134846624D01*
X179432900Y-134864229D01*
X179324986Y-135040329D01*
X179313364Y-135056324D01*
X179179242Y-135213361D01*
X179165261Y-135227342D01*
X179008224Y-135361464D01*
X178992231Y-135373085D01*
X178816129Y-135481000D01*
X178798524Y-135489970D01*
X178607715Y-135569006D01*
X178588921Y-135575112D01*
X178388100Y-135623325D01*
X178368572Y-135626418D01*
X178185272Y-135640844D01*
X178175167Y-135641232D01*
X178167001Y-135641218D01*
X178153173Y-135638038D01*
X178139332Y-135641170D01*
X178135422Y-135641163D01*
X178115400Y-135643400D01*
X151062938Y-135643400D01*
X151040387Y-135641008D01*
X151038538Y-135641032D01*
X151024667Y-135638056D01*
X151010877Y-135641390D01*
X150997464Y-135641563D01*
X150988611Y-135641367D01*
X150826030Y-135632026D01*
X150808045Y-135629685D01*
X150667083Y-135600886D01*
X150622311Y-135591739D01*
X150604841Y-135586836D01*
X150426488Y-135522608D01*
X150409914Y-135515252D01*
X150242615Y-135426063D01*
X150227278Y-135416407D01*
X150074533Y-135304117D01*
X150060729Y-135292348D01*
X149925703Y-135159289D01*
X149913729Y-135145655D01*
X149799217Y-134994584D01*
X149789326Y-134979373D01*
X149697695Y-134813411D01*
X149690100Y-134796955D01*
X149623258Y-134619552D01*
X149618100Y-134602159D01*
X149577434Y-134417002D01*
X149574828Y-134399046D01*
X149563150Y-134237291D01*
X149563649Y-134213815D01*
X149564249Y-134208602D01*
X149565861Y-134201647D01*
X149565862Y-134200900D01*
X149563654Y-134191222D01*
X149560500Y-134163207D01*
X149560500Y-133111673D01*
X153465694Y-133111673D01*
X153466858Y-133120575D01*
X153466858Y-133120578D01*
X153473697Y-133172875D01*
X153484580Y-133256101D01*
X153488194Y-133264314D01*
X153488195Y-133264318D01*
X153527952Y-133354671D01*
X153543244Y-133389423D01*
X153549019Y-133396293D01*
X153549020Y-133396295D01*
X153631188Y-133494046D01*
X153636968Y-133500922D01*
X153644445Y-133505899D01*
X153750746Y-133576659D01*
X153750748Y-133576660D01*
X153758219Y-133581633D01*
X153897249Y-133625070D01*
X154042883Y-133627739D01*
X154116828Y-133607579D01*
X154174748Y-133591788D01*
X154174749Y-133591788D01*
X154183411Y-133589426D01*
X154191744Y-133584310D01*
X154252633Y-133546924D01*
X160522309Y-133546924D01*
X160523473Y-133555826D01*
X160523473Y-133555829D01*
X160531347Y-133616043D01*
X160541195Y-133691352D01*
X160544809Y-133699565D01*
X160544810Y-133699569D01*
X160571922Y-133761183D01*
X160599859Y-133824674D01*
X160605634Y-133831544D01*
X160605635Y-133831546D01*
X160687803Y-133929297D01*
X160693583Y-133936173D01*
X160701060Y-133941150D01*
X160807361Y-134011910D01*
X160807363Y-134011911D01*
X160814834Y-134016884D01*
X160953864Y-134060321D01*
X161099498Y-134062990D01*
X161169762Y-134043833D01*
X161231363Y-134027039D01*
X161231364Y-134027039D01*
X161240026Y-134024677D01*
X161248359Y-134019561D01*
X161356502Y-133953161D01*
X161364154Y-133948463D01*
X161370774Y-133941150D01*
X161455873Y-133847134D01*
X161455874Y-133847133D01*
X161461901Y-133840474D01*
X161466004Y-133832007D01*
X161521495Y-133717472D01*
X161521495Y-133717471D01*
X161525410Y-133709391D01*
X161546364Y-133584846D01*
X161548770Y-133570544D01*
X161548770Y-133570541D01*
X161549576Y-133565752D01*
X161549729Y-133553200D01*
X161534914Y-133449748D01*
X161530354Y-133417906D01*
X161530353Y-133417903D01*
X161529080Y-133409013D01*
X161525362Y-133400835D01*
X161472508Y-133284590D01*
X161472507Y-133284588D01*
X161468792Y-133276418D01*
X161373713Y-133166073D01*
X161251485Y-133086848D01*
X161111934Y-133045114D01*
X161102958Y-133045059D01*
X161102957Y-133045059D01*
X161041644Y-133044685D01*
X160966279Y-133044224D01*
X160826229Y-133084251D01*
X160818642Y-133089038D01*
X160818640Y-133089039D01*
X160780455Y-133113132D01*
X160703042Y-133161976D01*
X160606622Y-133271151D01*
X160602808Y-133279274D01*
X160602807Y-133279276D01*
X160600312Y-133284590D01*
X160544719Y-133403000D01*
X160543339Y-133411865D01*
X160543338Y-133411867D01*
X160526827Y-133517910D01*
X160522309Y-133546924D01*
X154252633Y-133546924D01*
X154307539Y-133513212D01*
X154314159Y-133505899D01*
X154399258Y-133411883D01*
X154399259Y-133411882D01*
X154405286Y-133405223D01*
X154468795Y-133274140D01*
X154487798Y-133161189D01*
X154492155Y-133135293D01*
X154492155Y-133135290D01*
X154492961Y-133130501D01*
X154493114Y-133117949D01*
X154487342Y-133077644D01*
X154473739Y-132982655D01*
X154473738Y-132982652D01*
X154472465Y-132973762D01*
X154468683Y-132965444D01*
X154415893Y-132849339D01*
X154415892Y-132849337D01*
X154412177Y-132841167D01*
X154317098Y-132730822D01*
X154194870Y-132651597D01*
X154055319Y-132609863D01*
X154046343Y-132609808D01*
X154046342Y-132609808D01*
X153985029Y-132609434D01*
X153909664Y-132608973D01*
X153769614Y-132649000D01*
X153646427Y-132726725D01*
X153640485Y-132733453D01*
X153634535Y-132740190D01*
X153550007Y-132835900D01*
X153546193Y-132844023D01*
X153546192Y-132844025D01*
X153510658Y-132919710D01*
X153488104Y-132967749D01*
X153486724Y-132976614D01*
X153486723Y-132976616D01*
X153469960Y-133084277D01*
X153465694Y-133111673D01*
X149560500Y-133111673D01*
X149560500Y-132327724D01*
X151251309Y-132327724D01*
X151252473Y-132336626D01*
X151252473Y-132336629D01*
X151263061Y-132417598D01*
X151270195Y-132472152D01*
X151273809Y-132480365D01*
X151273810Y-132480369D01*
X151274237Y-132481339D01*
X151328859Y-132605474D01*
X151334634Y-132612344D01*
X151334635Y-132612346D01*
X151346938Y-132626982D01*
X151422583Y-132716973D01*
X151430060Y-132721950D01*
X151536361Y-132792710D01*
X151536363Y-132792711D01*
X151543834Y-132797684D01*
X151682864Y-132841121D01*
X151828498Y-132843790D01*
X151911998Y-132821025D01*
X151960363Y-132807839D01*
X151960364Y-132807839D01*
X151969026Y-132805477D01*
X151977359Y-132800361D01*
X152076732Y-132739346D01*
X152093154Y-132729263D01*
X152099774Y-132721950D01*
X152184873Y-132627934D01*
X152184874Y-132627933D01*
X152190901Y-132621274D01*
X152196457Y-132609808D01*
X152250495Y-132498272D01*
X152250495Y-132498271D01*
X152254410Y-132490191D01*
X152260377Y-132454724D01*
X157855309Y-132454724D01*
X157856473Y-132463626D01*
X157856473Y-132463629D01*
X157868096Y-132552514D01*
X157874195Y-132599152D01*
X157877809Y-132607365D01*
X157877810Y-132607369D01*
X157899419Y-132656478D01*
X157932859Y-132732474D01*
X157938634Y-132739344D01*
X157938635Y-132739346D01*
X158017606Y-132833294D01*
X158026583Y-132843973D01*
X158034060Y-132848950D01*
X158140361Y-132919710D01*
X158140363Y-132919711D01*
X158147834Y-132924684D01*
X158286864Y-132968121D01*
X158432498Y-132970790D01*
X158502762Y-132951633D01*
X158564363Y-132934839D01*
X158564364Y-132934839D01*
X158573026Y-132932477D01*
X158581359Y-132927361D01*
X158689502Y-132860961D01*
X158697154Y-132856263D01*
X158703422Y-132849339D01*
X158788873Y-132754934D01*
X158788874Y-132754933D01*
X158794901Y-132748274D01*
X158803357Y-132730822D01*
X158854495Y-132625272D01*
X158854495Y-132625271D01*
X158858410Y-132617191D01*
X158882576Y-132473552D01*
X158882729Y-132461000D01*
X158865643Y-132341693D01*
X158863354Y-132325706D01*
X158863353Y-132325703D01*
X158862080Y-132316813D01*
X158858362Y-132308635D01*
X158805508Y-132192390D01*
X158805507Y-132192388D01*
X158801792Y-132184218D01*
X158706713Y-132073873D01*
X158584485Y-131994648D01*
X158506959Y-131971463D01*
X174323500Y-131971463D01*
X174323501Y-133712536D01*
X174335597Y-133773353D01*
X174381680Y-133842320D01*
X174450647Y-133888403D01*
X174462816Y-133890824D01*
X174462817Y-133890824D01*
X174504519Y-133899119D01*
X174511463Y-133900500D01*
X175381859Y-133900500D01*
X176252536Y-133900499D01*
X176313353Y-133888403D01*
X176323670Y-133881510D01*
X176323671Y-133881509D01*
X176372007Y-133849211D01*
X176382320Y-133842320D01*
X176428403Y-133773353D01*
X176430825Y-133761180D01*
X176439293Y-133718605D01*
X176440500Y-133712537D01*
X176440499Y-132827150D01*
X176858482Y-132827150D01*
X176858998Y-132833294D01*
X176870320Y-132968121D01*
X176875852Y-133034004D01*
X176933069Y-133233545D01*
X176935887Y-133239027D01*
X176935888Y-133239031D01*
X177008957Y-133381207D01*
X177027955Y-133418173D01*
X177156894Y-133580854D01*
X177161581Y-133584843D01*
X177161584Y-133584846D01*
X177307925Y-133709391D01*
X177314976Y-133715392D01*
X177496180Y-133816664D01*
X177693603Y-133880810D01*
X177899725Y-133905389D01*
X177905860Y-133904917D01*
X177905862Y-133904917D01*
X178100555Y-133889936D01*
X178100560Y-133889935D01*
X178106696Y-133889463D01*
X178112626Y-133887807D01*
X178112628Y-133887807D01*
X178206664Y-133861552D01*
X178306632Y-133833640D01*
X178405558Y-133783669D01*
X178486416Y-133742825D01*
X178486418Y-133742824D01*
X178491917Y-133740046D01*
X178655495Y-133612245D01*
X178791133Y-133455106D01*
X178825349Y-133394876D01*
X178833114Y-133381207D01*
X178893667Y-133274614D01*
X178959190Y-133077644D01*
X178985207Y-132871698D01*
X178985516Y-132849606D01*
X178985573Y-132845522D01*
X178985573Y-132845518D01*
X178985622Y-132842000D01*
X178973363Y-132716973D01*
X178965966Y-132641534D01*
X178965965Y-132641531D01*
X178965365Y-132635408D01*
X178918557Y-132480369D01*
X178907152Y-132442593D01*
X178907151Y-132442590D01*
X178905368Y-132436685D01*
X178857443Y-132346552D01*
X178810809Y-132258847D01*
X178810808Y-132258845D01*
X178807913Y-132253401D01*
X178741706Y-132172223D01*
X178680610Y-132097311D01*
X178680607Y-132097308D01*
X178676715Y-132092536D01*
X178669770Y-132086790D01*
X178521518Y-131964145D01*
X178521519Y-131964145D01*
X178516770Y-131960217D01*
X178511353Y-131957288D01*
X178511350Y-131957286D01*
X178339590Y-131864416D01*
X178339585Y-131864414D01*
X178334170Y-131861486D01*
X178135871Y-131800102D01*
X178129746Y-131799458D01*
X178129745Y-131799458D01*
X177935554Y-131779048D01*
X177935552Y-131779048D01*
X177929425Y-131778404D01*
X177860168Y-131784707D01*
X177728836Y-131796659D01*
X177728833Y-131796660D01*
X177722697Y-131797218D01*
X177716791Y-131798956D01*
X177716787Y-131798957D01*
X177595041Y-131834789D01*
X177523560Y-131855827D01*
X177339600Y-131951999D01*
X177177823Y-132082071D01*
X177173865Y-132086788D01*
X177173863Y-132086790D01*
X177169042Y-132092536D01*
X177044391Y-132241089D01*
X177041427Y-132246481D01*
X177041424Y-132246485D01*
X176947354Y-132417598D01*
X176944387Y-132422995D01*
X176881621Y-132620861D01*
X176880935Y-132626978D01*
X176880934Y-132626982D01*
X176868992Y-132733453D01*
X176858482Y-132827150D01*
X176440499Y-132827150D01*
X176440499Y-131971464D01*
X176428403Y-131910647D01*
X176396289Y-131862585D01*
X176389211Y-131851993D01*
X176382320Y-131841680D01*
X176313353Y-131795597D01*
X176301184Y-131793176D01*
X176301183Y-131793176D01*
X176258605Y-131784707D01*
X176252537Y-131783500D01*
X175382141Y-131783500D01*
X174511464Y-131783501D01*
X174450647Y-131795597D01*
X174440330Y-131802490D01*
X174440329Y-131802491D01*
X174406607Y-131825024D01*
X174381680Y-131841680D01*
X174335597Y-131910647D01*
X174333176Y-131922816D01*
X174333176Y-131922817D01*
X174327190Y-131952914D01*
X174323500Y-131971463D01*
X158506959Y-131971463D01*
X158444934Y-131952914D01*
X158435958Y-131952859D01*
X158435957Y-131952859D01*
X158374644Y-131952485D01*
X158299279Y-131952024D01*
X158159229Y-131992051D01*
X158036042Y-132069776D01*
X157939622Y-132178951D01*
X157935808Y-132187074D01*
X157935807Y-132187076D01*
X157904668Y-132253401D01*
X157877719Y-132310800D01*
X157876339Y-132319665D01*
X157876338Y-132319667D01*
X157857198Y-132442593D01*
X157855309Y-132454724D01*
X152260377Y-132454724D01*
X152278576Y-132346552D01*
X152278729Y-132334000D01*
X152273056Y-132294385D01*
X152259354Y-132198706D01*
X152259353Y-132198703D01*
X152258080Y-132189813D01*
X152254362Y-132181635D01*
X152201508Y-132065390D01*
X152201507Y-132065388D01*
X152197792Y-132057218D01*
X152102713Y-131946873D01*
X151980485Y-131867648D01*
X151840934Y-131825914D01*
X151831958Y-131825859D01*
X151831957Y-131825859D01*
X151770644Y-131825485D01*
X151695279Y-131825024D01*
X151555229Y-131865051D01*
X151547642Y-131869838D01*
X151547640Y-131869839D01*
X151499313Y-131900331D01*
X151432042Y-131942776D01*
X151426100Y-131949504D01*
X151423874Y-131952024D01*
X151335622Y-132051951D01*
X151331808Y-132060074D01*
X151331807Y-132060076D01*
X151279154Y-132172223D01*
X151273719Y-132183800D01*
X151272339Y-132192665D01*
X151272338Y-132192667D01*
X151253008Y-132316813D01*
X151251309Y-132327724D01*
X149560500Y-132327724D01*
X149560500Y-130041724D01*
X153156309Y-130041724D01*
X153157473Y-130050626D01*
X153157473Y-130050629D01*
X153159609Y-130066961D01*
X153175195Y-130186152D01*
X153178809Y-130194365D01*
X153178810Y-130194369D01*
X153179237Y-130195339D01*
X153233859Y-130319474D01*
X153239634Y-130326344D01*
X153239635Y-130326346D01*
X153247140Y-130335274D01*
X153327583Y-130430973D01*
X153335060Y-130435950D01*
X153441361Y-130506710D01*
X153441363Y-130506711D01*
X153448834Y-130511684D01*
X153457401Y-130514361D01*
X153457402Y-130514361D01*
X153473777Y-130519477D01*
X153587864Y-130555121D01*
X153733498Y-130557790D01*
X153789756Y-130542452D01*
X153865367Y-130521838D01*
X153865369Y-130521837D01*
X153874026Y-130519477D01*
X153920585Y-130490890D01*
X153989103Y-130472292D01*
X154056332Y-130493377D01*
X154083834Y-130511684D01*
X154092401Y-130514361D01*
X154092402Y-130514361D01*
X154108777Y-130519477D01*
X154222864Y-130555121D01*
X154368498Y-130557790D01*
X154424756Y-130542452D01*
X154500367Y-130521838D01*
X154500369Y-130521837D01*
X154509026Y-130519477D01*
X154516671Y-130514783D01*
X154516678Y-130514780D01*
X154542373Y-130499003D01*
X154610890Y-130480405D01*
X154678117Y-130501489D01*
X154685960Y-130506709D01*
X154693434Y-130511684D01*
X154701998Y-130514360D01*
X154702001Y-130514361D01*
X154725937Y-130521839D01*
X154832464Y-130555121D01*
X154978098Y-130557790D01*
X155048362Y-130538633D01*
X155109963Y-130521839D01*
X155109964Y-130521839D01*
X155118626Y-130519477D01*
X155126959Y-130514361D01*
X155220641Y-130456840D01*
X155242754Y-130443263D01*
X155249374Y-130435950D01*
X155334473Y-130341934D01*
X155334474Y-130341933D01*
X155340501Y-130335274D01*
X155404010Y-130204191D01*
X155428176Y-130060552D01*
X155428329Y-130048000D01*
X155422656Y-130008385D01*
X155408954Y-129912706D01*
X155408953Y-129912703D01*
X155407680Y-129903813D01*
X155403962Y-129895635D01*
X155351108Y-129779390D01*
X155351107Y-129779388D01*
X155347392Y-129771218D01*
X155252313Y-129660873D01*
X155252083Y-129660724D01*
X164332309Y-129660724D01*
X164333473Y-129669626D01*
X164333473Y-129669629D01*
X164345096Y-129758514D01*
X164351195Y-129805152D01*
X164354809Y-129813365D01*
X164354810Y-129813369D01*
X164355237Y-129814339D01*
X164409859Y-129938474D01*
X164415634Y-129945344D01*
X164415635Y-129945346D01*
X164423140Y-129954274D01*
X164503583Y-130049973D01*
X164511060Y-130054950D01*
X164617361Y-130125710D01*
X164617363Y-130125711D01*
X164624834Y-130130684D01*
X164763864Y-130174121D01*
X164909498Y-130176790D01*
X164979762Y-130157633D01*
X165041363Y-130140839D01*
X165041364Y-130140839D01*
X165050026Y-130138477D01*
X165058359Y-130133361D01*
X165166502Y-130066961D01*
X165174154Y-130062263D01*
X165180774Y-130054950D01*
X165265873Y-129960934D01*
X165265874Y-129960933D01*
X165271901Y-129954274D01*
X165292041Y-129912706D01*
X165331495Y-129831272D01*
X165331495Y-129831271D01*
X165335410Y-129823191D01*
X165359576Y-129679552D01*
X165359729Y-129667000D01*
X165341529Y-129539914D01*
X165340354Y-129531706D01*
X165340353Y-129531703D01*
X165339080Y-129522813D01*
X165335362Y-129514635D01*
X165282508Y-129398390D01*
X165282507Y-129398388D01*
X165278792Y-129390218D01*
X165183713Y-129279873D01*
X165061485Y-129200648D01*
X164921934Y-129158914D01*
X164912958Y-129158859D01*
X164912957Y-129158859D01*
X164851644Y-129158485D01*
X164776279Y-129158024D01*
X164636229Y-129198051D01*
X164513042Y-129275776D01*
X164416622Y-129384951D01*
X164354719Y-129516800D01*
X164353339Y-129525665D01*
X164353338Y-129525667D01*
X164334385Y-129647392D01*
X164332309Y-129660724D01*
X155252083Y-129660724D01*
X155130085Y-129581648D01*
X154990534Y-129539914D01*
X154981558Y-129539859D01*
X154981557Y-129539859D01*
X154920244Y-129539485D01*
X154844879Y-129539024D01*
X154704829Y-129579051D01*
X154697241Y-129583839D01*
X154697238Y-129583840D01*
X154677535Y-129596272D01*
X154609250Y-129615707D01*
X154541769Y-129595443D01*
X154520485Y-129581648D01*
X154380934Y-129539914D01*
X154371958Y-129539859D01*
X154371957Y-129539859D01*
X154310644Y-129539485D01*
X154235279Y-129539024D01*
X154095229Y-129579051D01*
X154062609Y-129599633D01*
X154055064Y-129604393D01*
X153986779Y-129623827D01*
X153919297Y-129603564D01*
X153893014Y-129586528D01*
X153885485Y-129581648D01*
X153745934Y-129539914D01*
X153736958Y-129539859D01*
X153736957Y-129539859D01*
X153675644Y-129539485D01*
X153600279Y-129539024D01*
X153460229Y-129579051D01*
X153452642Y-129583838D01*
X153452640Y-129583839D01*
X153389263Y-129623827D01*
X153337042Y-129656776D01*
X153240622Y-129765951D01*
X153178719Y-129897800D01*
X153177339Y-129906665D01*
X153177338Y-129906667D01*
X153168889Y-129960934D01*
X153156309Y-130041724D01*
X149560500Y-130041724D01*
X149560500Y-128136724D01*
X155315309Y-128136724D01*
X155316473Y-128145626D01*
X155316473Y-128145629D01*
X155326291Y-128220710D01*
X155334195Y-128281152D01*
X155337809Y-128289365D01*
X155337810Y-128289369D01*
X155377567Y-128379722D01*
X155392859Y-128414474D01*
X155398634Y-128421344D01*
X155398635Y-128421346D01*
X155450275Y-128482779D01*
X155486583Y-128525973D01*
X155494060Y-128530950D01*
X155600361Y-128601710D01*
X155600363Y-128601711D01*
X155607834Y-128606684D01*
X155746864Y-128650121D01*
X155892498Y-128652790D01*
X155962762Y-128633634D01*
X156024363Y-128616839D01*
X156024364Y-128616839D01*
X156033026Y-128614477D01*
X156041359Y-128609361D01*
X156149502Y-128542961D01*
X156157154Y-128538263D01*
X156163774Y-128530950D01*
X156248873Y-128436934D01*
X156248874Y-128436933D01*
X156254901Y-128430274D01*
X156318410Y-128299191D01*
X156342576Y-128155552D01*
X156342729Y-128143000D01*
X156341830Y-128136724D01*
X165856309Y-128136724D01*
X165857473Y-128145626D01*
X165857473Y-128145629D01*
X165867291Y-128220710D01*
X165875195Y-128281152D01*
X165878809Y-128289365D01*
X165878810Y-128289369D01*
X165918567Y-128379722D01*
X165933859Y-128414474D01*
X165939634Y-128421344D01*
X165939635Y-128421346D01*
X165991275Y-128482779D01*
X166027583Y-128525973D01*
X166035060Y-128530950D01*
X166141361Y-128601710D01*
X166141363Y-128601711D01*
X166148834Y-128606684D01*
X166287864Y-128650121D01*
X166433498Y-128652790D01*
X166503762Y-128633634D01*
X166565363Y-128616839D01*
X166565364Y-128616839D01*
X166574026Y-128614477D01*
X166582359Y-128609361D01*
X166690502Y-128542961D01*
X166698154Y-128538263D01*
X166704774Y-128530950D01*
X166789873Y-128436934D01*
X166789874Y-128436933D01*
X166795901Y-128430274D01*
X166859410Y-128299191D01*
X166883576Y-128155552D01*
X166883729Y-128143000D01*
X166882830Y-128136724D01*
X167507309Y-128136724D01*
X167508473Y-128145626D01*
X167508473Y-128145629D01*
X167518291Y-128220710D01*
X167526195Y-128281152D01*
X167529809Y-128289365D01*
X167529810Y-128289369D01*
X167569567Y-128379722D01*
X167584859Y-128414474D01*
X167590634Y-128421344D01*
X167590635Y-128421346D01*
X167642275Y-128482779D01*
X167678583Y-128525973D01*
X167686060Y-128530950D01*
X167792361Y-128601710D01*
X167792363Y-128601711D01*
X167799834Y-128606684D01*
X167938864Y-128650121D01*
X168084498Y-128652790D01*
X168154762Y-128633634D01*
X168216363Y-128616839D01*
X168216364Y-128616839D01*
X168225026Y-128614477D01*
X168233359Y-128609361D01*
X168341502Y-128542961D01*
X168349154Y-128538263D01*
X168355774Y-128530950D01*
X168440873Y-128436934D01*
X168440874Y-128436933D01*
X168446901Y-128430274D01*
X168510410Y-128299191D01*
X168534576Y-128155552D01*
X168534729Y-128143000D01*
X168529056Y-128103385D01*
X168515643Y-128009724D01*
X170047309Y-128009724D01*
X170048473Y-128018626D01*
X170048473Y-128018629D01*
X170060096Y-128107514D01*
X170066195Y-128154152D01*
X170069809Y-128162365D01*
X170069810Y-128162369D01*
X170097670Y-128225684D01*
X170124859Y-128287474D01*
X170130634Y-128294344D01*
X170130635Y-128294346D01*
X170143738Y-128309934D01*
X170218583Y-128398973D01*
X170226060Y-128403950D01*
X170332361Y-128474710D01*
X170332363Y-128474711D01*
X170339834Y-128479684D01*
X170478864Y-128523121D01*
X170624498Y-128525790D01*
X170694762Y-128506634D01*
X170756363Y-128489839D01*
X170756364Y-128489839D01*
X170765026Y-128487477D01*
X170773359Y-128482361D01*
X170881502Y-128415961D01*
X170889154Y-128411263D01*
X170895774Y-128403950D01*
X170980873Y-128309934D01*
X170980874Y-128309933D01*
X170986901Y-128303274D01*
X171001933Y-128272249D01*
X171046495Y-128180272D01*
X171046495Y-128180271D01*
X171050410Y-128172191D01*
X171074576Y-128028552D01*
X171074729Y-128016000D01*
X171059315Y-127908369D01*
X171055354Y-127880706D01*
X171055353Y-127880703D01*
X171054080Y-127871813D01*
X171050362Y-127863635D01*
X171001297Y-127755724D01*
X172460309Y-127755724D01*
X172461473Y-127764626D01*
X172461473Y-127764629D01*
X172473096Y-127853514D01*
X172479195Y-127900152D01*
X172482809Y-127908365D01*
X172482810Y-127908369D01*
X172483237Y-127909339D01*
X172537859Y-128033474D01*
X172543634Y-128040344D01*
X172543635Y-128040346D01*
X172551140Y-128049274D01*
X172631583Y-128144973D01*
X172647476Y-128155552D01*
X172745361Y-128220710D01*
X172745363Y-128220711D01*
X172752834Y-128225684D01*
X172891864Y-128269121D01*
X173037498Y-128271790D01*
X173107762Y-128252634D01*
X173169363Y-128235839D01*
X173169364Y-128235839D01*
X173178026Y-128233477D01*
X173186359Y-128228361D01*
X173294502Y-128161961D01*
X173302154Y-128157263D01*
X173308774Y-128149950D01*
X173393873Y-128055934D01*
X173393874Y-128055933D01*
X173399901Y-128049274D01*
X173413668Y-128020860D01*
X173459495Y-127926272D01*
X173459495Y-127926271D01*
X173463410Y-127918191D01*
X173487576Y-127774552D01*
X173487729Y-127762000D01*
X173469529Y-127634914D01*
X173468354Y-127626706D01*
X173468353Y-127626703D01*
X173467080Y-127617813D01*
X173463362Y-127609635D01*
X173410508Y-127493390D01*
X173410507Y-127493388D01*
X173406792Y-127485218D01*
X173311713Y-127374873D01*
X173189485Y-127295648D01*
X173049934Y-127253914D01*
X173040958Y-127253859D01*
X173040957Y-127253859D01*
X172979644Y-127253485D01*
X172904279Y-127253024D01*
X172764229Y-127293051D01*
X172641042Y-127370776D01*
X172544622Y-127479951D01*
X172540808Y-127488074D01*
X172540807Y-127488076D01*
X172486533Y-127603676D01*
X172482719Y-127611800D01*
X172481339Y-127620665D01*
X172481338Y-127620667D01*
X172463938Y-127732418D01*
X172460309Y-127755724D01*
X171001297Y-127755724D01*
X170997508Y-127747390D01*
X170997507Y-127747388D01*
X170993792Y-127739218D01*
X170898713Y-127628873D01*
X170776485Y-127549648D01*
X170636934Y-127507914D01*
X170627958Y-127507859D01*
X170627957Y-127507859D01*
X170566644Y-127507485D01*
X170491279Y-127507024D01*
X170351229Y-127547051D01*
X170228042Y-127624776D01*
X170131622Y-127733951D01*
X170127808Y-127742074D01*
X170127807Y-127742076D01*
X170116171Y-127766860D01*
X170069719Y-127865800D01*
X170068339Y-127874665D01*
X170068338Y-127874667D01*
X170049008Y-127998813D01*
X170047309Y-128009724D01*
X168515643Y-128009724D01*
X168515354Y-128007706D01*
X168515353Y-128007703D01*
X168514080Y-127998813D01*
X168510362Y-127990635D01*
X168457508Y-127874390D01*
X168457507Y-127874388D01*
X168453792Y-127866218D01*
X168358713Y-127755873D01*
X168236485Y-127676648D01*
X168096934Y-127634914D01*
X168087958Y-127634859D01*
X168087957Y-127634859D01*
X168026644Y-127634485D01*
X167951279Y-127634024D01*
X167811229Y-127674051D01*
X167688042Y-127751776D01*
X167591622Y-127860951D01*
X167529719Y-127992800D01*
X167528339Y-128001665D01*
X167528338Y-128001667D01*
X167519889Y-128055934D01*
X167507309Y-128136724D01*
X166882830Y-128136724D01*
X166878056Y-128103385D01*
X166864354Y-128007706D01*
X166864353Y-128007703D01*
X166863080Y-127998813D01*
X166859362Y-127990635D01*
X166806508Y-127874390D01*
X166806507Y-127874388D01*
X166802792Y-127866218D01*
X166707713Y-127755873D01*
X166585485Y-127676648D01*
X166445934Y-127634914D01*
X166436958Y-127634859D01*
X166436957Y-127634859D01*
X166375644Y-127634485D01*
X166300279Y-127634024D01*
X166160229Y-127674051D01*
X166037042Y-127751776D01*
X165940622Y-127860951D01*
X165878719Y-127992800D01*
X165877339Y-128001665D01*
X165877338Y-128001667D01*
X165868889Y-128055934D01*
X165856309Y-128136724D01*
X156341830Y-128136724D01*
X156337056Y-128103385D01*
X156323354Y-128007706D01*
X156323353Y-128007703D01*
X156322080Y-127998813D01*
X156318362Y-127990635D01*
X156265508Y-127874390D01*
X156265507Y-127874388D01*
X156261792Y-127866218D01*
X156166713Y-127755873D01*
X156044485Y-127676648D01*
X155904934Y-127634914D01*
X155895958Y-127634859D01*
X155895957Y-127634859D01*
X155834644Y-127634485D01*
X155759279Y-127634024D01*
X155619229Y-127674051D01*
X155496042Y-127751776D01*
X155399622Y-127860951D01*
X155337719Y-127992800D01*
X155336339Y-128001665D01*
X155336338Y-128001667D01*
X155327889Y-128055934D01*
X155315309Y-128136724D01*
X149560500Y-128136724D01*
X149560500Y-124724535D01*
X149580502Y-124656414D01*
X149634158Y-124609921D01*
X149704432Y-124599817D01*
X149769012Y-124629311D01*
X149795626Y-124665381D01*
X149796500Y-124664837D01*
X149801244Y-124672459D01*
X149804859Y-124680674D01*
X149810634Y-124687544D01*
X149810635Y-124687546D01*
X149866440Y-124753934D01*
X149898583Y-124792173D01*
X149910009Y-124799779D01*
X150012361Y-124867910D01*
X150012363Y-124867911D01*
X150019834Y-124872884D01*
X150028401Y-124875561D01*
X150028402Y-124875561D01*
X150042857Y-124880077D01*
X150158864Y-124916321D01*
X150304498Y-124918990D01*
X150419894Y-124887529D01*
X150436363Y-124883039D01*
X150436364Y-124883039D01*
X150445026Y-124880677D01*
X150453359Y-124875561D01*
X150510579Y-124840428D01*
X150519869Y-124834724D01*
X162808309Y-124834724D01*
X162809473Y-124843626D01*
X162809473Y-124843629D01*
X162814627Y-124883039D01*
X162827195Y-124979152D01*
X162830809Y-124987365D01*
X162830810Y-124987369D01*
X162865828Y-125066951D01*
X162885859Y-125112474D01*
X162891634Y-125119344D01*
X162891635Y-125119346D01*
X162899140Y-125128274D01*
X162979583Y-125223973D01*
X162987060Y-125228950D01*
X163093361Y-125299710D01*
X163093363Y-125299711D01*
X163100834Y-125304684D01*
X163239864Y-125348121D01*
X163385498Y-125350790D01*
X163415082Y-125342724D01*
X174619309Y-125342724D01*
X174620473Y-125351626D01*
X174620473Y-125351629D01*
X174632096Y-125440514D01*
X174638195Y-125487152D01*
X174641809Y-125495365D01*
X174641810Y-125495369D01*
X174642237Y-125496339D01*
X174696859Y-125620474D01*
X174702634Y-125627344D01*
X174702635Y-125627346D01*
X174710140Y-125636274D01*
X174790583Y-125731973D01*
X174798060Y-125736950D01*
X174904361Y-125807710D01*
X174904363Y-125807711D01*
X174911834Y-125812684D01*
X175050864Y-125856121D01*
X175196498Y-125858790D01*
X175266762Y-125839633D01*
X175328363Y-125822839D01*
X175328364Y-125822839D01*
X175337026Y-125820477D01*
X175345359Y-125815361D01*
X175453502Y-125748961D01*
X175461154Y-125744263D01*
X175467774Y-125736950D01*
X175552873Y-125642934D01*
X175552874Y-125642933D01*
X175558901Y-125636274D01*
X175622410Y-125505191D01*
X175646576Y-125361552D01*
X175646729Y-125349000D01*
X175645830Y-125342724D01*
X176397309Y-125342724D01*
X176398473Y-125351626D01*
X176398473Y-125351629D01*
X176410096Y-125440514D01*
X176416195Y-125487152D01*
X176419809Y-125495365D01*
X176419810Y-125495369D01*
X176420237Y-125496339D01*
X176474859Y-125620474D01*
X176480634Y-125627344D01*
X176480635Y-125627346D01*
X176488140Y-125636274D01*
X176568583Y-125731973D01*
X176576060Y-125736950D01*
X176682361Y-125807710D01*
X176682363Y-125807711D01*
X176689834Y-125812684D01*
X176828864Y-125856121D01*
X176974498Y-125858790D01*
X177044762Y-125839633D01*
X177106363Y-125822839D01*
X177106364Y-125822839D01*
X177115026Y-125820477D01*
X177123359Y-125815361D01*
X177231502Y-125748961D01*
X177239154Y-125744263D01*
X177245774Y-125736950D01*
X177330873Y-125642934D01*
X177330874Y-125642933D01*
X177336901Y-125636274D01*
X177400410Y-125505191D01*
X177424576Y-125361552D01*
X177424729Y-125349000D01*
X177406824Y-125223973D01*
X177405354Y-125213706D01*
X177405353Y-125213703D01*
X177404080Y-125204813D01*
X177400362Y-125196635D01*
X177347508Y-125080390D01*
X177347507Y-125080388D01*
X177343792Y-125072218D01*
X177248713Y-124961873D01*
X177126485Y-124882648D01*
X176986934Y-124840914D01*
X176977958Y-124840859D01*
X176977957Y-124840859D01*
X176916644Y-124840485D01*
X176841279Y-124840024D01*
X176701229Y-124880051D01*
X176578042Y-124957776D01*
X176481622Y-125066951D01*
X176477808Y-125075074D01*
X176477807Y-125075076D01*
X176456626Y-125120190D01*
X176419719Y-125198800D01*
X176418339Y-125207665D01*
X176418338Y-125207667D01*
X176401651Y-125314839D01*
X176397309Y-125342724D01*
X175645830Y-125342724D01*
X175628824Y-125223973D01*
X175627354Y-125213706D01*
X175627353Y-125213703D01*
X175626080Y-125204813D01*
X175622362Y-125196635D01*
X175569508Y-125080390D01*
X175569507Y-125080388D01*
X175565792Y-125072218D01*
X175470713Y-124961873D01*
X175348485Y-124882648D01*
X175208934Y-124840914D01*
X175199958Y-124840859D01*
X175199957Y-124840859D01*
X175138644Y-124840485D01*
X175063279Y-124840024D01*
X174923229Y-124880051D01*
X174800042Y-124957776D01*
X174703622Y-125066951D01*
X174699808Y-125075074D01*
X174699807Y-125075076D01*
X174678626Y-125120190D01*
X174641719Y-125198800D01*
X174640339Y-125207665D01*
X174640338Y-125207667D01*
X174623651Y-125314839D01*
X174619309Y-125342724D01*
X163415082Y-125342724D01*
X163455762Y-125331633D01*
X163517363Y-125314839D01*
X163517364Y-125314839D01*
X163526026Y-125312477D01*
X163534359Y-125307361D01*
X163642502Y-125240961D01*
X163650154Y-125236263D01*
X163656774Y-125228950D01*
X163741873Y-125134934D01*
X163741874Y-125134933D01*
X163747901Y-125128274D01*
X163778355Y-125065418D01*
X163807495Y-125005272D01*
X163807495Y-125005271D01*
X163811410Y-124997191D01*
X163830681Y-124882648D01*
X163834770Y-124858344D01*
X163834770Y-124858341D01*
X163835576Y-124853552D01*
X163835729Y-124841000D01*
X163829383Y-124796684D01*
X163816354Y-124705706D01*
X163816353Y-124705703D01*
X163815080Y-124696813D01*
X163811362Y-124688635D01*
X163758508Y-124572390D01*
X163758507Y-124572388D01*
X163754792Y-124564218D01*
X163659713Y-124453873D01*
X163537485Y-124374648D01*
X163397934Y-124332914D01*
X163388958Y-124332859D01*
X163388957Y-124332859D01*
X163327644Y-124332485D01*
X163252279Y-124332024D01*
X163112229Y-124372051D01*
X162989042Y-124449776D01*
X162892622Y-124558951D01*
X162888808Y-124567074D01*
X162888807Y-124567076D01*
X162842653Y-124665381D01*
X162830719Y-124690800D01*
X162829339Y-124699665D01*
X162829338Y-124699667D01*
X162812651Y-124806839D01*
X162808309Y-124834724D01*
X150519869Y-124834724D01*
X150569154Y-124804463D01*
X150575774Y-124797150D01*
X150660873Y-124703134D01*
X150660874Y-124703133D01*
X150666901Y-124696474D01*
X150681966Y-124665381D01*
X150726495Y-124573472D01*
X150726495Y-124573471D01*
X150730410Y-124565391D01*
X150746847Y-124467693D01*
X150753770Y-124426544D01*
X150753770Y-124426541D01*
X150754576Y-124421752D01*
X150754729Y-124409200D01*
X150744918Y-124340693D01*
X150742918Y-124326724D01*
X164831809Y-124326724D01*
X164832973Y-124335626D01*
X164832973Y-124335629D01*
X164838362Y-124376839D01*
X164850695Y-124471152D01*
X164854309Y-124479365D01*
X164854310Y-124479369D01*
X164889328Y-124558951D01*
X164909359Y-124604474D01*
X164915134Y-124611344D01*
X164915135Y-124611346D01*
X164986977Y-124696813D01*
X165003083Y-124715973D01*
X165010560Y-124720950D01*
X165116861Y-124791710D01*
X165116863Y-124791711D01*
X165124334Y-124796684D01*
X165263364Y-124840121D01*
X165408998Y-124842790D01*
X165532346Y-124809161D01*
X165540863Y-124806839D01*
X165540864Y-124806839D01*
X165549526Y-124804477D01*
X165557859Y-124799361D01*
X165666002Y-124732961D01*
X165673654Y-124728263D01*
X165680274Y-124720950D01*
X165765373Y-124626934D01*
X165765374Y-124626933D01*
X165771401Y-124620274D01*
X165781313Y-124599817D01*
X165830995Y-124497272D01*
X165830995Y-124497271D01*
X165834910Y-124489191D01*
X165840877Y-124453724D01*
X170174309Y-124453724D01*
X170175473Y-124462626D01*
X170175473Y-124462629D01*
X170186552Y-124547352D01*
X170193195Y-124598152D01*
X170196809Y-124606365D01*
X170196810Y-124606369D01*
X170222777Y-124665381D01*
X170251859Y-124731474D01*
X170257634Y-124738344D01*
X170257635Y-124738346D01*
X170309275Y-124799779D01*
X170345583Y-124842973D01*
X170353060Y-124847950D01*
X170459361Y-124918710D01*
X170459363Y-124918711D01*
X170466834Y-124923684D01*
X170605864Y-124967121D01*
X170751498Y-124969790D01*
X170821762Y-124950634D01*
X170883363Y-124933839D01*
X170883364Y-124933839D01*
X170892026Y-124931477D01*
X170900359Y-124926361D01*
X170975782Y-124880051D01*
X171016154Y-124855263D01*
X171022774Y-124847950D01*
X171107873Y-124753934D01*
X171107874Y-124753933D01*
X171113901Y-124747274D01*
X171134041Y-124705706D01*
X171173495Y-124624272D01*
X171173495Y-124624271D01*
X171177410Y-124616191D01*
X171201576Y-124472552D01*
X171201729Y-124460000D01*
X171184643Y-124340693D01*
X171182354Y-124324706D01*
X171182353Y-124324703D01*
X171181080Y-124315813D01*
X171177362Y-124307635D01*
X171124508Y-124191390D01*
X171124507Y-124191388D01*
X171120792Y-124183218D01*
X171025713Y-124072873D01*
X170903485Y-123993648D01*
X170763934Y-123951914D01*
X170754958Y-123951859D01*
X170754957Y-123951859D01*
X170693644Y-123951485D01*
X170618279Y-123951024D01*
X170478229Y-123991051D01*
X170470642Y-123995838D01*
X170470640Y-123995839D01*
X170435555Y-124017976D01*
X170355042Y-124068776D01*
X170258622Y-124177951D01*
X170254808Y-124186074D01*
X170254807Y-124186076D01*
X170217746Y-124265013D01*
X170196719Y-124309800D01*
X170195339Y-124318665D01*
X170195338Y-124318667D01*
X170180044Y-124416893D01*
X170174309Y-124453724D01*
X165840877Y-124453724D01*
X165854181Y-124374648D01*
X165858270Y-124350344D01*
X165858270Y-124350341D01*
X165859076Y-124345552D01*
X165859229Y-124333000D01*
X165849493Y-124265013D01*
X165839854Y-124197706D01*
X165839853Y-124197703D01*
X165838580Y-124188813D01*
X165834862Y-124180635D01*
X165782008Y-124064390D01*
X165782007Y-124064388D01*
X165778292Y-124056218D01*
X165683213Y-123945873D01*
X165560985Y-123866648D01*
X165421434Y-123824914D01*
X165412458Y-123824859D01*
X165412457Y-123824859D01*
X165351144Y-123824485D01*
X165275779Y-123824024D01*
X165135729Y-123864051D01*
X165128142Y-123868838D01*
X165128140Y-123868839D01*
X165061877Y-123910648D01*
X165012542Y-123941776D01*
X164916122Y-124050951D01*
X164912308Y-124059074D01*
X164912307Y-124059076D01*
X164870415Y-124148304D01*
X164854219Y-124182800D01*
X164852839Y-124191665D01*
X164852838Y-124191667D01*
X164833508Y-124315813D01*
X164831809Y-124326724D01*
X150742918Y-124326724D01*
X150735354Y-124273906D01*
X150735353Y-124273903D01*
X150734080Y-124265013D01*
X150715054Y-124223167D01*
X150677508Y-124140590D01*
X150677507Y-124140588D01*
X150673792Y-124132418D01*
X150578713Y-124022073D01*
X150456485Y-123942848D01*
X150316934Y-123901114D01*
X150307958Y-123901059D01*
X150307957Y-123901059D01*
X150246644Y-123900685D01*
X150171279Y-123900224D01*
X150031229Y-123940251D01*
X150023642Y-123945038D01*
X150023640Y-123945039D01*
X150008666Y-123954487D01*
X149908042Y-124017976D01*
X149811622Y-124127151D01*
X149807808Y-124135274D01*
X149807807Y-124135276D01*
X149800555Y-124150723D01*
X149753499Y-124203885D01*
X149685171Y-124223167D01*
X149617265Y-124202447D01*
X149571341Y-124148304D01*
X149560500Y-124097174D01*
X149560500Y-121710524D01*
X163113109Y-121710524D01*
X163114273Y-121719426D01*
X163114273Y-121719429D01*
X163125896Y-121808314D01*
X163131995Y-121854952D01*
X163135609Y-121863165D01*
X163135610Y-121863169D01*
X163136037Y-121864139D01*
X163190659Y-121988274D01*
X163196434Y-121995144D01*
X163196435Y-121995146D01*
X163203940Y-122004074D01*
X163284383Y-122099773D01*
X163291860Y-122104750D01*
X163398161Y-122175510D01*
X163398163Y-122175511D01*
X163405634Y-122180484D01*
X163544664Y-122223921D01*
X163690298Y-122226590D01*
X163760562Y-122207433D01*
X163822163Y-122190639D01*
X163822164Y-122190639D01*
X163830826Y-122188277D01*
X163839159Y-122183161D01*
X163925053Y-122130422D01*
X163954954Y-122112063D01*
X163961574Y-122104750D01*
X164046673Y-122010734D01*
X164046674Y-122010733D01*
X164052701Y-122004074D01*
X164116210Y-121872991D01*
X164140376Y-121729352D01*
X164140529Y-121716800D01*
X164128362Y-121631839D01*
X164121154Y-121581506D01*
X164121153Y-121581503D01*
X164119880Y-121572613D01*
X164116162Y-121564435D01*
X164087092Y-121500500D01*
X169713357Y-121500500D01*
X169714047Y-121507065D01*
X169730940Y-121667790D01*
X169731880Y-121676735D01*
X169733919Y-121683009D01*
X169733919Y-121683011D01*
X169750534Y-121734144D01*
X169786640Y-121845267D01*
X169789940Y-121850982D01*
X169789940Y-121850983D01*
X169796976Y-121863169D01*
X169875242Y-121998732D01*
X169879665Y-122003644D01*
X169977286Y-122112063D01*
X169993816Y-122130422D01*
X169999158Y-122134303D01*
X169999160Y-122134305D01*
X170131836Y-122230699D01*
X170137178Y-122234580D01*
X170143206Y-122237264D01*
X170143208Y-122237265D01*
X170293031Y-122303970D01*
X170299064Y-122306656D01*
X170305522Y-122308029D01*
X170305526Y-122308030D01*
X170392132Y-122326439D01*
X170472397Y-122343500D01*
X170649603Y-122343500D01*
X170729868Y-122326439D01*
X170816474Y-122308030D01*
X170816478Y-122308029D01*
X170822936Y-122306656D01*
X170828969Y-122303970D01*
X170978792Y-122237265D01*
X170978794Y-122237264D01*
X170984822Y-122234580D01*
X170990164Y-122230699D01*
X171122840Y-122134305D01*
X171122842Y-122134303D01*
X171128184Y-122130422D01*
X171144715Y-122112063D01*
X171242335Y-122003644D01*
X171246758Y-121998732D01*
X171325024Y-121863169D01*
X171332060Y-121850983D01*
X171332060Y-121850982D01*
X171335360Y-121845267D01*
X171371467Y-121734144D01*
X171388081Y-121683011D01*
X171388081Y-121683009D01*
X171390120Y-121676735D01*
X171391061Y-121667790D01*
X171407953Y-121507065D01*
X171408643Y-121500500D01*
X172253357Y-121500500D01*
X172254047Y-121507065D01*
X172270940Y-121667790D01*
X172271880Y-121676735D01*
X172273919Y-121683009D01*
X172273919Y-121683011D01*
X172290534Y-121734144D01*
X172326640Y-121845267D01*
X172329940Y-121850982D01*
X172329940Y-121850983D01*
X172336976Y-121863169D01*
X172415242Y-121998732D01*
X172419665Y-122003644D01*
X172517286Y-122112063D01*
X172533816Y-122130422D01*
X172539158Y-122134303D01*
X172539160Y-122134305D01*
X172671836Y-122230699D01*
X172677178Y-122234580D01*
X172683206Y-122237264D01*
X172683208Y-122237265D01*
X172833031Y-122303970D01*
X172839064Y-122306656D01*
X172845522Y-122308029D01*
X172845526Y-122308030D01*
X172932132Y-122326439D01*
X173012397Y-122343500D01*
X173189603Y-122343500D01*
X173269868Y-122326439D01*
X173356474Y-122308030D01*
X173356478Y-122308029D01*
X173362936Y-122306656D01*
X173368969Y-122303970D01*
X173518792Y-122237265D01*
X173518794Y-122237264D01*
X173524822Y-122234580D01*
X173530164Y-122230699D01*
X173662840Y-122134305D01*
X173662842Y-122134303D01*
X173668184Y-122130422D01*
X173684715Y-122112063D01*
X173782335Y-122003644D01*
X173786758Y-121998732D01*
X173865024Y-121863169D01*
X173872060Y-121850983D01*
X173872060Y-121850982D01*
X173875360Y-121845267D01*
X173911467Y-121734144D01*
X173928081Y-121683011D01*
X173928081Y-121683009D01*
X173930120Y-121676735D01*
X173931061Y-121667790D01*
X173947953Y-121507065D01*
X173948643Y-121500500D01*
X174793357Y-121500500D01*
X174794047Y-121507065D01*
X174810940Y-121667790D01*
X174811880Y-121676735D01*
X174813919Y-121683009D01*
X174813919Y-121683011D01*
X174830534Y-121734144D01*
X174866640Y-121845267D01*
X174869940Y-121850982D01*
X174869940Y-121850983D01*
X174876976Y-121863169D01*
X174955242Y-121998732D01*
X174959665Y-122003644D01*
X175057286Y-122112063D01*
X175073816Y-122130422D01*
X175079158Y-122134303D01*
X175079160Y-122134305D01*
X175211836Y-122230699D01*
X175217178Y-122234580D01*
X175223206Y-122237264D01*
X175223208Y-122237265D01*
X175373031Y-122303970D01*
X175379064Y-122306656D01*
X175385522Y-122308029D01*
X175385526Y-122308030D01*
X175472132Y-122326439D01*
X175552397Y-122343500D01*
X175729603Y-122343500D01*
X175809868Y-122326439D01*
X175896474Y-122308030D01*
X175896478Y-122308029D01*
X175902936Y-122306656D01*
X175908969Y-122303970D01*
X176058792Y-122237265D01*
X176058794Y-122237264D01*
X176064822Y-122234580D01*
X176070164Y-122230699D01*
X176202840Y-122134305D01*
X176202842Y-122134303D01*
X176208184Y-122130422D01*
X176224715Y-122112063D01*
X176322335Y-122003644D01*
X176326758Y-121998732D01*
X176405024Y-121863169D01*
X176412060Y-121850983D01*
X176412060Y-121850982D01*
X176415360Y-121845267D01*
X176451467Y-121734144D01*
X176468081Y-121683011D01*
X176468081Y-121683009D01*
X176470120Y-121676735D01*
X176471061Y-121667790D01*
X176487953Y-121507065D01*
X176488643Y-121500500D01*
X176482839Y-121445274D01*
X176470810Y-121330826D01*
X176470809Y-121330822D01*
X176470120Y-121324265D01*
X176466301Y-121312511D01*
X176417400Y-121162010D01*
X176417398Y-121162006D01*
X176415360Y-121155733D01*
X176326758Y-121002268D01*
X176208184Y-120870578D01*
X176202841Y-120866696D01*
X176202840Y-120866695D01*
X176070164Y-120770301D01*
X176070161Y-120770299D01*
X176064822Y-120766420D01*
X176058794Y-120763736D01*
X176058792Y-120763735D01*
X175908969Y-120697030D01*
X175902936Y-120694344D01*
X175896478Y-120692971D01*
X175896474Y-120692970D01*
X175809868Y-120674561D01*
X175729603Y-120657500D01*
X175552397Y-120657500D01*
X175472132Y-120674561D01*
X175385526Y-120692970D01*
X175385522Y-120692971D01*
X175379064Y-120694344D01*
X175284470Y-120736460D01*
X175223210Y-120763735D01*
X175217179Y-120766420D01*
X175073816Y-120870578D01*
X174955242Y-121002268D01*
X174866640Y-121155733D01*
X174864602Y-121162006D01*
X174864600Y-121162010D01*
X174815699Y-121312511D01*
X174811880Y-121324265D01*
X174811191Y-121330822D01*
X174811190Y-121330826D01*
X174799161Y-121445274D01*
X174793357Y-121500500D01*
X173948643Y-121500500D01*
X173942839Y-121445274D01*
X173930810Y-121330826D01*
X173930809Y-121330822D01*
X173930120Y-121324265D01*
X173926301Y-121312511D01*
X173877400Y-121162010D01*
X173877398Y-121162006D01*
X173875360Y-121155733D01*
X173786758Y-121002268D01*
X173668184Y-120870578D01*
X173662841Y-120866696D01*
X173662840Y-120866695D01*
X173530164Y-120770301D01*
X173530161Y-120770299D01*
X173524822Y-120766420D01*
X173518794Y-120763736D01*
X173518792Y-120763735D01*
X173368969Y-120697030D01*
X173362936Y-120694344D01*
X173356478Y-120692971D01*
X173356474Y-120692970D01*
X173269868Y-120674561D01*
X173189603Y-120657500D01*
X173012397Y-120657500D01*
X172932132Y-120674561D01*
X172845526Y-120692970D01*
X172845522Y-120692971D01*
X172839064Y-120694344D01*
X172744470Y-120736460D01*
X172683210Y-120763735D01*
X172677179Y-120766420D01*
X172533816Y-120870578D01*
X172415242Y-121002268D01*
X172326640Y-121155733D01*
X172324602Y-121162006D01*
X172324600Y-121162010D01*
X172275699Y-121312511D01*
X172271880Y-121324265D01*
X172271191Y-121330822D01*
X172271190Y-121330826D01*
X172259161Y-121445274D01*
X172253357Y-121500500D01*
X171408643Y-121500500D01*
X171402839Y-121445274D01*
X171390810Y-121330826D01*
X171390809Y-121330822D01*
X171390120Y-121324265D01*
X171386301Y-121312511D01*
X171337400Y-121162010D01*
X171337398Y-121162006D01*
X171335360Y-121155733D01*
X171246758Y-121002268D01*
X171128184Y-120870578D01*
X171122841Y-120866696D01*
X171122840Y-120866695D01*
X170990164Y-120770301D01*
X170990161Y-120770299D01*
X170984822Y-120766420D01*
X170978794Y-120763736D01*
X170978792Y-120763735D01*
X170828969Y-120697030D01*
X170822936Y-120694344D01*
X170816478Y-120692971D01*
X170816474Y-120692970D01*
X170729868Y-120674561D01*
X170649603Y-120657500D01*
X170472397Y-120657500D01*
X170392132Y-120674561D01*
X170305526Y-120692970D01*
X170305522Y-120692971D01*
X170299064Y-120694344D01*
X170204470Y-120736460D01*
X170143210Y-120763735D01*
X170137179Y-120766420D01*
X169993816Y-120870578D01*
X169875242Y-121002268D01*
X169786640Y-121155733D01*
X169784602Y-121162006D01*
X169784600Y-121162010D01*
X169735699Y-121312511D01*
X169731880Y-121324265D01*
X169731191Y-121330822D01*
X169731190Y-121330826D01*
X169719161Y-121445274D01*
X169713357Y-121500500D01*
X164087092Y-121500500D01*
X164063308Y-121448190D01*
X164063307Y-121448188D01*
X164059592Y-121440018D01*
X163964513Y-121329673D01*
X163842285Y-121250448D01*
X163702734Y-121208714D01*
X163693758Y-121208659D01*
X163693757Y-121208659D01*
X163632444Y-121208285D01*
X163557079Y-121207824D01*
X163417029Y-121247851D01*
X163293842Y-121325576D01*
X163197422Y-121434751D01*
X163193608Y-121442874D01*
X163193607Y-121442876D01*
X163139575Y-121557961D01*
X163135519Y-121566600D01*
X163134139Y-121575465D01*
X163134138Y-121575467D01*
X163119392Y-121670174D01*
X163113109Y-121710524D01*
X149560500Y-121710524D01*
X149560500Y-121151724D01*
X157982309Y-121151724D01*
X157983473Y-121160626D01*
X157983473Y-121160629D01*
X157986193Y-121181428D01*
X158001195Y-121296152D01*
X158004809Y-121304365D01*
X158004810Y-121304369D01*
X158044567Y-121394722D01*
X158059859Y-121429474D01*
X158065634Y-121436344D01*
X158065635Y-121436346D01*
X158144091Y-121529681D01*
X158153583Y-121540973D01*
X158161060Y-121545950D01*
X158267361Y-121616710D01*
X158267363Y-121616711D01*
X158274834Y-121621684D01*
X158413864Y-121665121D01*
X158559498Y-121667790D01*
X158629762Y-121648634D01*
X158691363Y-121631839D01*
X158691364Y-121631839D01*
X158700026Y-121629477D01*
X158708359Y-121624361D01*
X158805958Y-121564435D01*
X158824154Y-121553263D01*
X158830774Y-121545950D01*
X158915873Y-121451934D01*
X158915874Y-121451933D01*
X158921901Y-121445274D01*
X158927000Y-121434751D01*
X158981495Y-121322272D01*
X158981495Y-121322271D01*
X158985410Y-121314191D01*
X159009576Y-121170552D01*
X159009729Y-121158000D01*
X158989817Y-121018961D01*
X161601073Y-121018961D01*
X161602237Y-121027863D01*
X161602237Y-121027866D01*
X161613860Y-121116751D01*
X161619959Y-121163389D01*
X161623573Y-121171602D01*
X161623574Y-121171606D01*
X161660414Y-121255329D01*
X161678623Y-121296711D01*
X161684398Y-121303581D01*
X161684399Y-121303583D01*
X161712048Y-121336475D01*
X161772347Y-121408210D01*
X161779824Y-121413187D01*
X161886125Y-121483947D01*
X161886127Y-121483948D01*
X161893598Y-121488921D01*
X162032628Y-121532358D01*
X162178262Y-121535027D01*
X162280824Y-121507065D01*
X162310127Y-121499076D01*
X162310128Y-121499076D01*
X162318790Y-121496714D01*
X162327123Y-121491598D01*
X162402569Y-121445274D01*
X162442918Y-121420500D01*
X162449538Y-121413187D01*
X162534637Y-121319171D01*
X162534638Y-121319170D01*
X162540665Y-121312511D01*
X162552905Y-121287249D01*
X162600259Y-121189509D01*
X162600259Y-121189508D01*
X162604174Y-121181428D01*
X162628340Y-121037789D01*
X162628493Y-121025237D01*
X162607844Y-120881050D01*
X162602467Y-120869223D01*
X162551272Y-120756627D01*
X162551271Y-120756625D01*
X162547556Y-120748455D01*
X162452477Y-120638110D01*
X162330249Y-120558885D01*
X162190698Y-120517151D01*
X162181722Y-120517096D01*
X162181721Y-120517096D01*
X162120408Y-120516722D01*
X162045043Y-120516261D01*
X161904993Y-120556288D01*
X161781806Y-120634013D01*
X161685386Y-120743188D01*
X161681572Y-120751311D01*
X161681571Y-120751313D01*
X161627399Y-120866696D01*
X161623483Y-120875037D01*
X161622103Y-120883902D01*
X161622102Y-120883904D01*
X161602811Y-121007800D01*
X161601073Y-121018961D01*
X158989817Y-121018961D01*
X158989080Y-121013813D01*
X158983831Y-121002268D01*
X158932508Y-120889390D01*
X158932507Y-120889388D01*
X158928792Y-120881218D01*
X158833713Y-120770873D01*
X158711485Y-120691648D01*
X158571934Y-120649914D01*
X158562958Y-120649859D01*
X158562957Y-120649859D01*
X158501644Y-120649485D01*
X158426279Y-120649024D01*
X158286229Y-120689051D01*
X158163042Y-120766776D01*
X158066622Y-120875951D01*
X158062808Y-120884074D01*
X158062807Y-120884076D01*
X158009622Y-120997356D01*
X158004719Y-121007800D01*
X158003339Y-121016665D01*
X158003338Y-121016667D01*
X158001595Y-121027866D01*
X157982309Y-121151724D01*
X149560500Y-121151724D01*
X149560500Y-120498703D01*
X149580502Y-120430582D01*
X149634158Y-120384089D01*
X149704432Y-120373985D01*
X149769012Y-120403479D01*
X149782949Y-120417626D01*
X149873183Y-120524973D01*
X149880660Y-120529950D01*
X149986961Y-120600710D01*
X149986963Y-120600711D01*
X149994434Y-120605684D01*
X150133464Y-120649121D01*
X150279098Y-120651790D01*
X150361871Y-120629223D01*
X150410963Y-120615839D01*
X150410964Y-120615839D01*
X150419626Y-120613477D01*
X150427959Y-120608361D01*
X150512768Y-120556288D01*
X150543754Y-120537263D01*
X150550374Y-120529950D01*
X150635473Y-120435934D01*
X150635474Y-120435933D01*
X150641501Y-120429274D01*
X150647144Y-120417628D01*
X150701095Y-120306272D01*
X150701095Y-120306271D01*
X150705010Y-120298191D01*
X150729176Y-120154552D01*
X150729329Y-120142000D01*
X150712939Y-120027552D01*
X150709954Y-120006706D01*
X150709953Y-120006703D01*
X150708680Y-119997813D01*
X150668350Y-119909113D01*
X150655897Y-119881724D01*
X155315309Y-119881724D01*
X155316473Y-119890626D01*
X155316473Y-119890629D01*
X155318890Y-119909113D01*
X155334195Y-120026152D01*
X155337809Y-120034365D01*
X155337810Y-120034369D01*
X155338237Y-120035339D01*
X155392859Y-120159474D01*
X155398634Y-120166344D01*
X155398635Y-120166346D01*
X155411738Y-120181934D01*
X155486583Y-120270973D01*
X155505046Y-120283263D01*
X155600361Y-120346710D01*
X155600363Y-120346711D01*
X155607834Y-120351684D01*
X155746864Y-120395121D01*
X155892498Y-120397790D01*
X155979812Y-120373985D01*
X156024363Y-120361839D01*
X156024364Y-120361839D01*
X156033026Y-120359477D01*
X156041359Y-120354361D01*
X156149502Y-120287961D01*
X156157154Y-120283263D01*
X156163774Y-120275950D01*
X156248873Y-120181934D01*
X156248874Y-120181933D01*
X156254901Y-120175274D01*
X156268668Y-120146860D01*
X156314495Y-120052272D01*
X156314495Y-120052271D01*
X156318410Y-120044191D01*
X156324377Y-120008724D01*
X166372809Y-120008724D01*
X166373973Y-120017626D01*
X166373973Y-120017629D01*
X166385596Y-120106514D01*
X166391695Y-120153152D01*
X166395309Y-120161365D01*
X166395310Y-120161369D01*
X166435067Y-120251722D01*
X166450359Y-120286474D01*
X166456134Y-120293344D01*
X166456135Y-120293346D01*
X166507775Y-120354779D01*
X166544083Y-120397973D01*
X166551560Y-120402950D01*
X166657861Y-120473710D01*
X166657863Y-120473711D01*
X166665334Y-120478684D01*
X166804364Y-120522121D01*
X166949998Y-120524790D01*
X167020262Y-120505633D01*
X167081863Y-120488839D01*
X167081864Y-120488839D01*
X167090526Y-120486477D01*
X167098859Y-120481361D01*
X167196857Y-120421190D01*
X167214654Y-120410263D01*
X167221274Y-120402950D01*
X167306373Y-120308934D01*
X167306374Y-120308933D01*
X167312401Y-120302274D01*
X167375910Y-120171191D01*
X167400076Y-120027552D01*
X167400229Y-120015000D01*
X167383143Y-119895693D01*
X167380854Y-119879706D01*
X167380853Y-119879703D01*
X167379580Y-119870813D01*
X167375862Y-119862635D01*
X167323008Y-119746390D01*
X167323007Y-119746388D01*
X167319292Y-119738218D01*
X167224213Y-119627873D01*
X167101985Y-119548648D01*
X166962434Y-119506914D01*
X166953458Y-119506859D01*
X166953457Y-119506859D01*
X166892144Y-119506485D01*
X166816779Y-119506024D01*
X166676729Y-119546051D01*
X166553542Y-119623776D01*
X166457122Y-119732951D01*
X166453308Y-119741074D01*
X166453307Y-119741076D01*
X166445594Y-119757504D01*
X166395219Y-119864800D01*
X166393839Y-119873665D01*
X166393838Y-119873667D01*
X166374508Y-119997813D01*
X166372809Y-120008724D01*
X156324377Y-120008724D01*
X156342576Y-119900552D01*
X156342729Y-119888000D01*
X156322080Y-119743813D01*
X156318362Y-119735635D01*
X156265508Y-119619390D01*
X156265507Y-119619388D01*
X156261792Y-119611218D01*
X156166713Y-119500873D01*
X156044485Y-119421648D01*
X155904934Y-119379914D01*
X155895958Y-119379859D01*
X155895957Y-119379859D01*
X155834644Y-119379485D01*
X155759279Y-119379024D01*
X155619229Y-119419051D01*
X155496042Y-119496776D01*
X155399622Y-119605951D01*
X155395808Y-119614074D01*
X155395807Y-119614076D01*
X155343154Y-119726223D01*
X155337719Y-119737800D01*
X155336339Y-119746665D01*
X155336338Y-119746667D01*
X155317008Y-119870813D01*
X155315309Y-119881724D01*
X150655897Y-119881724D01*
X150652108Y-119873390D01*
X150652107Y-119873388D01*
X150648392Y-119865218D01*
X150553313Y-119754873D01*
X150431085Y-119675648D01*
X150291534Y-119633914D01*
X150282558Y-119633859D01*
X150282557Y-119633859D01*
X150221244Y-119633485D01*
X150145879Y-119633024D01*
X150005829Y-119673051D01*
X149882642Y-119750776D01*
X149876700Y-119757504D01*
X149792164Y-119853222D01*
X149792162Y-119853226D01*
X149786222Y-119859951D01*
X149785388Y-119859215D01*
X149737690Y-119899715D01*
X149667319Y-119909113D01*
X149603037Y-119878974D01*
X149565254Y-119818866D01*
X149560500Y-119784582D01*
X149560500Y-118992724D01*
X165348309Y-118992724D01*
X165349473Y-119001626D01*
X165349473Y-119001629D01*
X165361096Y-119090514D01*
X165367195Y-119137152D01*
X165370809Y-119145365D01*
X165370810Y-119145369D01*
X165371237Y-119146339D01*
X165425859Y-119270474D01*
X165431634Y-119277344D01*
X165431635Y-119277346D01*
X165439140Y-119286274D01*
X165519583Y-119381973D01*
X165527060Y-119386950D01*
X165633361Y-119457710D01*
X165633363Y-119457711D01*
X165640834Y-119462684D01*
X165779864Y-119506121D01*
X165925498Y-119508790D01*
X165995762Y-119489634D01*
X166057363Y-119472839D01*
X166057364Y-119472839D01*
X166066026Y-119470477D01*
X166074359Y-119465361D01*
X166149782Y-119419051D01*
X166190154Y-119394263D01*
X166196774Y-119386950D01*
X166281873Y-119292934D01*
X166281874Y-119292933D01*
X166287901Y-119286274D01*
X166351410Y-119155191D01*
X166375576Y-119011552D01*
X166375729Y-118999000D01*
X166355080Y-118854813D01*
X166351362Y-118846635D01*
X166298508Y-118730390D01*
X166298507Y-118730388D01*
X166294792Y-118722218D01*
X166199713Y-118611873D01*
X166077485Y-118532648D01*
X165937934Y-118490914D01*
X165928958Y-118490859D01*
X165928957Y-118490859D01*
X165867644Y-118490485D01*
X165792279Y-118490024D01*
X165652229Y-118530051D01*
X165529042Y-118607776D01*
X165432622Y-118716951D01*
X165370719Y-118848800D01*
X165348309Y-118992724D01*
X149560500Y-118992724D01*
X149560500Y-117961954D01*
X158594046Y-117961954D01*
X158595210Y-117970856D01*
X158595210Y-117970859D01*
X158600615Y-118012191D01*
X158612932Y-118106382D01*
X158616546Y-118114595D01*
X158616547Y-118114599D01*
X158656304Y-118204952D01*
X158671596Y-118239704D01*
X158677371Y-118246574D01*
X158677372Y-118246576D01*
X158741076Y-118322361D01*
X158765320Y-118351203D01*
X158772797Y-118356180D01*
X158879098Y-118426940D01*
X158879100Y-118426941D01*
X158886571Y-118431914D01*
X158895138Y-118434591D01*
X158895139Y-118434591D01*
X158911514Y-118439707D01*
X159025601Y-118475351D01*
X159171235Y-118478020D01*
X159227493Y-118462682D01*
X159303104Y-118442068D01*
X159303106Y-118442067D01*
X159311763Y-118439707D01*
X159358322Y-118411120D01*
X159426840Y-118392522D01*
X159494069Y-118413607D01*
X159521571Y-118431914D01*
X159530138Y-118434591D01*
X159530139Y-118434591D01*
X159546514Y-118439707D01*
X159660601Y-118475351D01*
X159806235Y-118478020D01*
X159862493Y-118462682D01*
X159938104Y-118442068D01*
X159938106Y-118442067D01*
X159946763Y-118439707D01*
X159993322Y-118411120D01*
X160061840Y-118392522D01*
X160129069Y-118413607D01*
X160156571Y-118431914D01*
X160165138Y-118434591D01*
X160165139Y-118434591D01*
X160181514Y-118439707D01*
X160295601Y-118475351D01*
X160441235Y-118478020D01*
X160511499Y-118458863D01*
X160573100Y-118442069D01*
X160573101Y-118442069D01*
X160581763Y-118439707D01*
X160590096Y-118434591D01*
X160658612Y-118392522D01*
X160705891Y-118363493D01*
X160712511Y-118356180D01*
X160797610Y-118262164D01*
X160797611Y-118262163D01*
X160803638Y-118255504D01*
X160811648Y-118238973D01*
X160863232Y-118132502D01*
X160863232Y-118132501D01*
X160867147Y-118124421D01*
X160891313Y-117980782D01*
X160891466Y-117968230D01*
X160885793Y-117928615D01*
X160874495Y-117849724D01*
X162808309Y-117849724D01*
X162809473Y-117858626D01*
X162809473Y-117858629D01*
X162821096Y-117947514D01*
X162827195Y-117994152D01*
X162830809Y-118002365D01*
X162830810Y-118002369D01*
X162831237Y-118003339D01*
X162885859Y-118127474D01*
X162891634Y-118134344D01*
X162891635Y-118134346D01*
X162899140Y-118143274D01*
X162979583Y-118238973D01*
X162987060Y-118243950D01*
X163093361Y-118314710D01*
X163093363Y-118314711D01*
X163100834Y-118319684D01*
X163239864Y-118363121D01*
X163385498Y-118365790D01*
X163464222Y-118344327D01*
X163517363Y-118329839D01*
X163517364Y-118329839D01*
X163526026Y-118327477D01*
X163534359Y-118322361D01*
X163588090Y-118289370D01*
X163650154Y-118251263D01*
X163656774Y-118243950D01*
X163741873Y-118149934D01*
X163741874Y-118149933D01*
X163747901Y-118143274D01*
X163757036Y-118124421D01*
X163807495Y-118020272D01*
X163807495Y-118020271D01*
X163811410Y-118012191D01*
X163835576Y-117868552D01*
X163835729Y-117856000D01*
X163834830Y-117849724D01*
X169031309Y-117849724D01*
X169032473Y-117858626D01*
X169032473Y-117858629D01*
X169044096Y-117947514D01*
X169050195Y-117994152D01*
X169053809Y-118002365D01*
X169053810Y-118002369D01*
X169054237Y-118003339D01*
X169108859Y-118127474D01*
X169114634Y-118134344D01*
X169114635Y-118134346D01*
X169122140Y-118143274D01*
X169202583Y-118238973D01*
X169210060Y-118243950D01*
X169316361Y-118314710D01*
X169316363Y-118314711D01*
X169323834Y-118319684D01*
X169462864Y-118363121D01*
X169608498Y-118365790D01*
X169687222Y-118344327D01*
X169740363Y-118329839D01*
X169740364Y-118329839D01*
X169749026Y-118327477D01*
X169757359Y-118322361D01*
X169811090Y-118289370D01*
X169873154Y-118251263D01*
X169879774Y-118243950D01*
X169964873Y-118149934D01*
X169964874Y-118149933D01*
X169970901Y-118143274D01*
X169980036Y-118124421D01*
X170030495Y-118020272D01*
X170030495Y-118020271D01*
X170034410Y-118012191D01*
X170058576Y-117868552D01*
X170058729Y-117856000D01*
X170038080Y-117711813D01*
X170032536Y-117699620D01*
X169981508Y-117587390D01*
X169981507Y-117587388D01*
X169977792Y-117579218D01*
X169882713Y-117468873D01*
X169760485Y-117389648D01*
X169620934Y-117347914D01*
X169611958Y-117347859D01*
X169611957Y-117347859D01*
X169550644Y-117347485D01*
X169475279Y-117347024D01*
X169335229Y-117387051D01*
X169212042Y-117464776D01*
X169115622Y-117573951D01*
X169111808Y-117582074D01*
X169111807Y-117582076D01*
X169066089Y-117679453D01*
X169053719Y-117705800D01*
X169052339Y-117714665D01*
X169052338Y-117714667D01*
X169035308Y-117824043D01*
X169031309Y-117849724D01*
X163834830Y-117849724D01*
X163815080Y-117711813D01*
X163809536Y-117699620D01*
X163758508Y-117587390D01*
X163758507Y-117587388D01*
X163754792Y-117579218D01*
X163659713Y-117468873D01*
X163537485Y-117389648D01*
X163397934Y-117347914D01*
X163388958Y-117347859D01*
X163388957Y-117347859D01*
X163327644Y-117347485D01*
X163252279Y-117347024D01*
X163112229Y-117387051D01*
X162989042Y-117464776D01*
X162892622Y-117573951D01*
X162888808Y-117582074D01*
X162888807Y-117582076D01*
X162843089Y-117679453D01*
X162830719Y-117705800D01*
X162829339Y-117714665D01*
X162829338Y-117714667D01*
X162812308Y-117824043D01*
X162808309Y-117849724D01*
X160874495Y-117849724D01*
X160872091Y-117832936D01*
X160872090Y-117832933D01*
X160870817Y-117824043D01*
X160867099Y-117815865D01*
X160814245Y-117699620D01*
X160814244Y-117699618D01*
X160810529Y-117691448D01*
X160715450Y-117581103D01*
X160593222Y-117501878D01*
X160453671Y-117460144D01*
X160444695Y-117460089D01*
X160444694Y-117460089D01*
X160383381Y-117459715D01*
X160308016Y-117459254D01*
X160167966Y-117499281D01*
X160135346Y-117519863D01*
X160127801Y-117524623D01*
X160059516Y-117544057D01*
X159992034Y-117523794D01*
X159965751Y-117506758D01*
X159958222Y-117501878D01*
X159818671Y-117460144D01*
X159809695Y-117460089D01*
X159809694Y-117460089D01*
X159748381Y-117459715D01*
X159673016Y-117459254D01*
X159532966Y-117499281D01*
X159500346Y-117519863D01*
X159492801Y-117524623D01*
X159424516Y-117544057D01*
X159357034Y-117523794D01*
X159330751Y-117506758D01*
X159323222Y-117501878D01*
X159183671Y-117460144D01*
X159174695Y-117460089D01*
X159174694Y-117460089D01*
X159113381Y-117459715D01*
X159038016Y-117459254D01*
X158897966Y-117499281D01*
X158890379Y-117504068D01*
X158890377Y-117504069D01*
X158886114Y-117506759D01*
X158774779Y-117577006D01*
X158678359Y-117686181D01*
X158674545Y-117694304D01*
X158674544Y-117694306D01*
X158620270Y-117809906D01*
X158616456Y-117818030D01*
X158615076Y-117826895D01*
X158615075Y-117826897D01*
X158610544Y-117856000D01*
X158594046Y-117961954D01*
X149560500Y-117961954D01*
X149560500Y-114623924D01*
X163011509Y-114623924D01*
X163012673Y-114632826D01*
X163012673Y-114632829D01*
X163024296Y-114721714D01*
X163030395Y-114768352D01*
X163034009Y-114776565D01*
X163034010Y-114776569D01*
X163034437Y-114777539D01*
X163089059Y-114901674D01*
X163094834Y-114908544D01*
X163094835Y-114908546D01*
X163102340Y-114917474D01*
X163182783Y-115013173D01*
X163190260Y-115018150D01*
X163296561Y-115088910D01*
X163296563Y-115088911D01*
X163304034Y-115093884D01*
X163443064Y-115137321D01*
X163588698Y-115139990D01*
X163658962Y-115120834D01*
X163720563Y-115104039D01*
X163720564Y-115104039D01*
X163729226Y-115101677D01*
X163737559Y-115096561D01*
X163845702Y-115030161D01*
X163853354Y-115025463D01*
X163859974Y-115018150D01*
X163945073Y-114924134D01*
X163945074Y-114924133D01*
X163951101Y-114917474D01*
X164014610Y-114786391D01*
X164038776Y-114642752D01*
X164038929Y-114630200D01*
X164023994Y-114525912D01*
X164019554Y-114494906D01*
X164019553Y-114494903D01*
X164018280Y-114486013D01*
X164014562Y-114477835D01*
X163961708Y-114361590D01*
X163961707Y-114361588D01*
X163957992Y-114353418D01*
X163862913Y-114243073D01*
X163740685Y-114163848D01*
X163601134Y-114122114D01*
X163592158Y-114122059D01*
X163592157Y-114122059D01*
X163530844Y-114121685D01*
X163455479Y-114121224D01*
X163315429Y-114161251D01*
X163307842Y-114166038D01*
X163307840Y-114166039D01*
X163241577Y-114207848D01*
X163192242Y-114238976D01*
X163095822Y-114348151D01*
X163092008Y-114356274D01*
X163092007Y-114356276D01*
X163037733Y-114471876D01*
X163033919Y-114480000D01*
X163032539Y-114488865D01*
X163032538Y-114488867D01*
X163013030Y-114614157D01*
X163011509Y-114623924D01*
X149560500Y-114623924D01*
X149560500Y-114098091D01*
X155874210Y-114098091D01*
X155875374Y-114106993D01*
X155875374Y-114106996D01*
X155882940Y-114164853D01*
X155893096Y-114242519D01*
X155896710Y-114250732D01*
X155896711Y-114250736D01*
X155917365Y-114297674D01*
X155951760Y-114375841D01*
X155957535Y-114382711D01*
X155957536Y-114382713D01*
X156013996Y-114449880D01*
X156045484Y-114487340D01*
X156052961Y-114492317D01*
X156159262Y-114563077D01*
X156159264Y-114563078D01*
X156166735Y-114568051D01*
X156305765Y-114611488D01*
X156451399Y-114614157D01*
X156521663Y-114595000D01*
X156583264Y-114578206D01*
X156583265Y-114578206D01*
X156591927Y-114575844D01*
X156600260Y-114570728D01*
X156708403Y-114504328D01*
X156716055Y-114499630D01*
X156722675Y-114492317D01*
X156807774Y-114398301D01*
X156807775Y-114398300D01*
X156813802Y-114391641D01*
X156834169Y-114349605D01*
X156873396Y-114268639D01*
X156873396Y-114268638D01*
X156877311Y-114260558D01*
X156901477Y-114116919D01*
X156901630Y-114104367D01*
X156895357Y-114060567D01*
X156888432Y-114012208D01*
X161716109Y-114012208D01*
X161717273Y-114021110D01*
X161717273Y-114021113D01*
X161723180Y-114066283D01*
X161734995Y-114156636D01*
X161738609Y-114164849D01*
X161738610Y-114164853D01*
X161769118Y-114234186D01*
X161793659Y-114289958D01*
X161799434Y-114296828D01*
X161799435Y-114296830D01*
X161879132Y-114391641D01*
X161887383Y-114401457D01*
X161894860Y-114406434D01*
X162001161Y-114477194D01*
X162001163Y-114477195D01*
X162008634Y-114482168D01*
X162147664Y-114525605D01*
X162293298Y-114528274D01*
X162363562Y-114509118D01*
X162425163Y-114492323D01*
X162425164Y-114492323D01*
X162433826Y-114489961D01*
X162442159Y-114484845D01*
X162550302Y-114418445D01*
X162557954Y-114413747D01*
X162564574Y-114406434D01*
X162649673Y-114312418D01*
X162649674Y-114312417D01*
X162655701Y-114305758D01*
X162690378Y-114234186D01*
X162715295Y-114182756D01*
X162715295Y-114182755D01*
X162719210Y-114174675D01*
X162743376Y-114031036D01*
X162743529Y-114018484D01*
X162726319Y-113898311D01*
X162724154Y-113883190D01*
X162724153Y-113883187D01*
X162722880Y-113874297D01*
X162719162Y-113866119D01*
X162666308Y-113749874D01*
X162666307Y-113749872D01*
X162662592Y-113741702D01*
X162640273Y-113715800D01*
X169713357Y-113715800D01*
X169714047Y-113722365D01*
X169730316Y-113877151D01*
X169731880Y-113892035D01*
X169733919Y-113898309D01*
X169733919Y-113898311D01*
X169778602Y-114035828D01*
X169786640Y-114060567D01*
X169789940Y-114066282D01*
X169789940Y-114066283D01*
X169844769Y-114161251D01*
X169875242Y-114214032D01*
X169993816Y-114345722D01*
X169999158Y-114349603D01*
X169999160Y-114349605D01*
X170057018Y-114391641D01*
X170137178Y-114449880D01*
X170143206Y-114452564D01*
X170143208Y-114452565D01*
X170293031Y-114519270D01*
X170299064Y-114521956D01*
X170305522Y-114523329D01*
X170305526Y-114523330D01*
X170392132Y-114541739D01*
X170472397Y-114558800D01*
X170649603Y-114558800D01*
X170729868Y-114541739D01*
X170816474Y-114523330D01*
X170816478Y-114523329D01*
X170822936Y-114521956D01*
X170828969Y-114519270D01*
X170978792Y-114452565D01*
X170978794Y-114452564D01*
X170984822Y-114449880D01*
X171064982Y-114391641D01*
X171122840Y-114349605D01*
X171122842Y-114349603D01*
X171128184Y-114345722D01*
X171246758Y-114214032D01*
X171277231Y-114161251D01*
X171332060Y-114066283D01*
X171332060Y-114066282D01*
X171335360Y-114060567D01*
X171343399Y-114035828D01*
X171388081Y-113898311D01*
X171388081Y-113898309D01*
X171390120Y-113892035D01*
X171391685Y-113877151D01*
X171407953Y-113722365D01*
X171408643Y-113715800D01*
X172253357Y-113715800D01*
X172254047Y-113722365D01*
X172270316Y-113877151D01*
X172271880Y-113892035D01*
X172273919Y-113898309D01*
X172273919Y-113898311D01*
X172318602Y-114035828D01*
X172326640Y-114060567D01*
X172329940Y-114066282D01*
X172329940Y-114066283D01*
X172384769Y-114161251D01*
X172415242Y-114214032D01*
X172533816Y-114345722D01*
X172539158Y-114349603D01*
X172539160Y-114349605D01*
X172597018Y-114391641D01*
X172677178Y-114449880D01*
X172683206Y-114452564D01*
X172683208Y-114452565D01*
X172833031Y-114519270D01*
X172839064Y-114521956D01*
X172845522Y-114523329D01*
X172845526Y-114523330D01*
X172932132Y-114541739D01*
X173012397Y-114558800D01*
X173189603Y-114558800D01*
X173269868Y-114541739D01*
X173356474Y-114523330D01*
X173356478Y-114523329D01*
X173362936Y-114521956D01*
X173368969Y-114519270D01*
X173518792Y-114452565D01*
X173518794Y-114452564D01*
X173524822Y-114449880D01*
X173604982Y-114391641D01*
X173662840Y-114349605D01*
X173662842Y-114349603D01*
X173668184Y-114345722D01*
X173786758Y-114214032D01*
X173817231Y-114161251D01*
X173872060Y-114066283D01*
X173872060Y-114066282D01*
X173875360Y-114060567D01*
X173883399Y-114035828D01*
X173928081Y-113898311D01*
X173928081Y-113898309D01*
X173930120Y-113892035D01*
X173931685Y-113877151D01*
X173947953Y-113722365D01*
X173948643Y-113715800D01*
X174793357Y-113715800D01*
X174794047Y-113722365D01*
X174810316Y-113877151D01*
X174811880Y-113892035D01*
X174813919Y-113898309D01*
X174813919Y-113898311D01*
X174858602Y-114035828D01*
X174866640Y-114060567D01*
X174869940Y-114066282D01*
X174869940Y-114066283D01*
X174924769Y-114161251D01*
X174955242Y-114214032D01*
X175073816Y-114345722D01*
X175079158Y-114349603D01*
X175079160Y-114349605D01*
X175137018Y-114391641D01*
X175217178Y-114449880D01*
X175223206Y-114452564D01*
X175223208Y-114452565D01*
X175373031Y-114519270D01*
X175379064Y-114521956D01*
X175385522Y-114523329D01*
X175385526Y-114523330D01*
X175472132Y-114541739D01*
X175552397Y-114558800D01*
X175729603Y-114558800D01*
X175809868Y-114541739D01*
X175896474Y-114523330D01*
X175896478Y-114523329D01*
X175902936Y-114521956D01*
X175908969Y-114519270D01*
X176058792Y-114452565D01*
X176058794Y-114452564D01*
X176064822Y-114449880D01*
X176144982Y-114391641D01*
X176202840Y-114349605D01*
X176202842Y-114349603D01*
X176208184Y-114345722D01*
X176326758Y-114214032D01*
X176357231Y-114161251D01*
X176412060Y-114066283D01*
X176412060Y-114066282D01*
X176415360Y-114060567D01*
X176423399Y-114035828D01*
X176468081Y-113898311D01*
X176468081Y-113898309D01*
X176470120Y-113892035D01*
X176471685Y-113877151D01*
X176487953Y-113722365D01*
X176488643Y-113715800D01*
X176487860Y-113708353D01*
X176470810Y-113546126D01*
X176470809Y-113546122D01*
X176470120Y-113539565D01*
X176461940Y-113514390D01*
X176417400Y-113377310D01*
X176417398Y-113377306D01*
X176415360Y-113371033D01*
X176326758Y-113217568D01*
X176251377Y-113133849D01*
X176212606Y-113090789D01*
X176212605Y-113090788D01*
X176208184Y-113085878D01*
X176202841Y-113081996D01*
X176202840Y-113081995D01*
X176070164Y-112985601D01*
X176070161Y-112985599D01*
X176064822Y-112981720D01*
X176058794Y-112979036D01*
X176058792Y-112979035D01*
X175908969Y-112912330D01*
X175902936Y-112909644D01*
X175896478Y-112908271D01*
X175896474Y-112908270D01*
X175809868Y-112889861D01*
X175729603Y-112872800D01*
X175552397Y-112872800D01*
X175472132Y-112889861D01*
X175385526Y-112908270D01*
X175385522Y-112908271D01*
X175379064Y-112909644D01*
X175269300Y-112958514D01*
X175223210Y-112979035D01*
X175217179Y-112981720D01*
X175073816Y-113085878D01*
X175069395Y-113090788D01*
X175069394Y-113090789D01*
X175030623Y-113133849D01*
X174955242Y-113217568D01*
X174866640Y-113371033D01*
X174864602Y-113377306D01*
X174864600Y-113377310D01*
X174820060Y-113514390D01*
X174811880Y-113539565D01*
X174811191Y-113546122D01*
X174811190Y-113546126D01*
X174794140Y-113708353D01*
X174793357Y-113715800D01*
X173948643Y-113715800D01*
X173947860Y-113708353D01*
X173930810Y-113546126D01*
X173930809Y-113546122D01*
X173930120Y-113539565D01*
X173921940Y-113514390D01*
X173877400Y-113377310D01*
X173877398Y-113377306D01*
X173875360Y-113371033D01*
X173786758Y-113217568D01*
X173711377Y-113133849D01*
X173672606Y-113090789D01*
X173672605Y-113090788D01*
X173668184Y-113085878D01*
X173662841Y-113081996D01*
X173662840Y-113081995D01*
X173530164Y-112985601D01*
X173530161Y-112985599D01*
X173524822Y-112981720D01*
X173518794Y-112979036D01*
X173518792Y-112979035D01*
X173368969Y-112912330D01*
X173362936Y-112909644D01*
X173356478Y-112908271D01*
X173356474Y-112908270D01*
X173269868Y-112889861D01*
X173189603Y-112872800D01*
X173012397Y-112872800D01*
X172932132Y-112889861D01*
X172845526Y-112908270D01*
X172845522Y-112908271D01*
X172839064Y-112909644D01*
X172729300Y-112958514D01*
X172683210Y-112979035D01*
X172677179Y-112981720D01*
X172533816Y-113085878D01*
X172529395Y-113090788D01*
X172529394Y-113090789D01*
X172490623Y-113133849D01*
X172415242Y-113217568D01*
X172326640Y-113371033D01*
X172324602Y-113377306D01*
X172324600Y-113377310D01*
X172280060Y-113514390D01*
X172271880Y-113539565D01*
X172271191Y-113546122D01*
X172271190Y-113546126D01*
X172254140Y-113708353D01*
X172253357Y-113715800D01*
X171408643Y-113715800D01*
X171407860Y-113708353D01*
X171390810Y-113546126D01*
X171390809Y-113546122D01*
X171390120Y-113539565D01*
X171381940Y-113514390D01*
X171337400Y-113377310D01*
X171337398Y-113377306D01*
X171335360Y-113371033D01*
X171246758Y-113217568D01*
X171171377Y-113133849D01*
X171132606Y-113090789D01*
X171132605Y-113090788D01*
X171128184Y-113085878D01*
X171122841Y-113081996D01*
X171122840Y-113081995D01*
X170990164Y-112985601D01*
X170990161Y-112985599D01*
X170984822Y-112981720D01*
X170978794Y-112979036D01*
X170978792Y-112979035D01*
X170828969Y-112912330D01*
X170822936Y-112909644D01*
X170816478Y-112908271D01*
X170816474Y-112908270D01*
X170729868Y-112889861D01*
X170649603Y-112872800D01*
X170472397Y-112872800D01*
X170392132Y-112889861D01*
X170305526Y-112908270D01*
X170305522Y-112908271D01*
X170299064Y-112909644D01*
X170189300Y-112958514D01*
X170143210Y-112979035D01*
X170137179Y-112981720D01*
X169993816Y-113085878D01*
X169989395Y-113090788D01*
X169989394Y-113090789D01*
X169950623Y-113133849D01*
X169875242Y-113217568D01*
X169786640Y-113371033D01*
X169784602Y-113377306D01*
X169784600Y-113377310D01*
X169740060Y-113514390D01*
X169731880Y-113539565D01*
X169731191Y-113546122D01*
X169731190Y-113546126D01*
X169714140Y-113708353D01*
X169713357Y-113715800D01*
X162640273Y-113715800D01*
X162567513Y-113631357D01*
X162445285Y-113552132D01*
X162305734Y-113510398D01*
X162296758Y-113510343D01*
X162296757Y-113510343D01*
X162235444Y-113509969D01*
X162160079Y-113509508D01*
X162020029Y-113549535D01*
X161896842Y-113627260D01*
X161890900Y-113633988D01*
X161887216Y-113638159D01*
X161800422Y-113736435D01*
X161796608Y-113744558D01*
X161796607Y-113744560D01*
X161760100Y-113822318D01*
X161738519Y-113868284D01*
X161737139Y-113877149D01*
X161737138Y-113877151D01*
X161723766Y-113963034D01*
X161716109Y-114012208D01*
X156888432Y-114012208D01*
X156882255Y-113969073D01*
X156882254Y-113969070D01*
X156880981Y-113960180D01*
X156877263Y-113952002D01*
X156824409Y-113835757D01*
X156824408Y-113835755D01*
X156820693Y-113827585D01*
X156725614Y-113717240D01*
X156603386Y-113638015D01*
X156463835Y-113596281D01*
X156454859Y-113596226D01*
X156454858Y-113596226D01*
X156393545Y-113595852D01*
X156318180Y-113595391D01*
X156178130Y-113635418D01*
X156054943Y-113713143D01*
X155958523Y-113822318D01*
X155954709Y-113830441D01*
X155954708Y-113830443D01*
X155928871Y-113885474D01*
X155896620Y-113954167D01*
X155895240Y-113963032D01*
X155895239Y-113963034D01*
X155879163Y-114066283D01*
X155874210Y-114098091D01*
X149560500Y-114098091D01*
X149560500Y-112998324D01*
X157753709Y-112998324D01*
X157754873Y-113007226D01*
X157754873Y-113007229D01*
X157763136Y-113070419D01*
X157772595Y-113142752D01*
X157776209Y-113150965D01*
X157776210Y-113150969D01*
X157803354Y-113212656D01*
X157831259Y-113276074D01*
X157837034Y-113282944D01*
X157837035Y-113282946D01*
X157906275Y-113365317D01*
X157924983Y-113387573D01*
X157932460Y-113392550D01*
X158038761Y-113463310D01*
X158038763Y-113463311D01*
X158046234Y-113468284D01*
X158185264Y-113511721D01*
X158330898Y-113514390D01*
X158401162Y-113495233D01*
X158462763Y-113478439D01*
X158462764Y-113478439D01*
X158471426Y-113476077D01*
X158479759Y-113470961D01*
X158574733Y-113412647D01*
X158595554Y-113399863D01*
X158602174Y-113392550D01*
X158687273Y-113298534D01*
X158687274Y-113298533D01*
X158693301Y-113291874D01*
X158724033Y-113228444D01*
X158752895Y-113168872D01*
X158752895Y-113168871D01*
X158756810Y-113160791D01*
X158780976Y-113017152D01*
X158781129Y-113004600D01*
X158771355Y-112936353D01*
X158771146Y-112934894D01*
X160541572Y-112934894D01*
X160542736Y-112943796D01*
X160542736Y-112943799D01*
X160551693Y-113012293D01*
X160560458Y-113079322D01*
X160564072Y-113087535D01*
X160564073Y-113087539D01*
X160603830Y-113177892D01*
X160619122Y-113212644D01*
X160624897Y-113219514D01*
X160624898Y-113219516D01*
X160707066Y-113317267D01*
X160712846Y-113324143D01*
X160720323Y-113329120D01*
X160826624Y-113399880D01*
X160826626Y-113399881D01*
X160834097Y-113404854D01*
X160973127Y-113448291D01*
X161118761Y-113450960D01*
X161189025Y-113431804D01*
X161250626Y-113415009D01*
X161250627Y-113415009D01*
X161259289Y-113412647D01*
X161267622Y-113407531D01*
X161375765Y-113341131D01*
X161383417Y-113336433D01*
X161390037Y-113329120D01*
X161475136Y-113235104D01*
X161475137Y-113235103D01*
X161481164Y-113228444D01*
X161486434Y-113217568D01*
X161540758Y-113105442D01*
X161540758Y-113105441D01*
X161544673Y-113097361D01*
X161568839Y-112953722D01*
X161568992Y-112941170D01*
X161559201Y-112872800D01*
X161549617Y-112805876D01*
X161549616Y-112805873D01*
X161548343Y-112796983D01*
X161544625Y-112788805D01*
X161491771Y-112672560D01*
X161491770Y-112672558D01*
X161488055Y-112664388D01*
X161392976Y-112554043D01*
X161270748Y-112474818D01*
X161131197Y-112433084D01*
X161122221Y-112433029D01*
X161122220Y-112433029D01*
X161060907Y-112432655D01*
X160985542Y-112432194D01*
X160845492Y-112472221D01*
X160722305Y-112549946D01*
X160625885Y-112659121D01*
X160622071Y-112667244D01*
X160622070Y-112667246D01*
X160593632Y-112727818D01*
X160563982Y-112790970D01*
X160562602Y-112799835D01*
X160562601Y-112799837D01*
X160545504Y-112909644D01*
X160541572Y-112934894D01*
X158771146Y-112934894D01*
X158761754Y-112869306D01*
X158761753Y-112869303D01*
X158760480Y-112860413D01*
X158756762Y-112852235D01*
X158703908Y-112735990D01*
X158703907Y-112735988D01*
X158700192Y-112727818D01*
X158605113Y-112617473D01*
X158482885Y-112538248D01*
X158343334Y-112496514D01*
X158334358Y-112496459D01*
X158334357Y-112496459D01*
X158273044Y-112496085D01*
X158197679Y-112495624D01*
X158057629Y-112535651D01*
X158050042Y-112540438D01*
X158050040Y-112540439D01*
X158028479Y-112554043D01*
X157934442Y-112613376D01*
X157838022Y-112722551D01*
X157834208Y-112730674D01*
X157834207Y-112730676D01*
X157806916Y-112788805D01*
X157776119Y-112854400D01*
X157774739Y-112863265D01*
X157774738Y-112863267D01*
X157759908Y-112958514D01*
X157753709Y-112998324D01*
X149560500Y-112998324D01*
X149560500Y-111291473D01*
X152517755Y-111291473D01*
X152518919Y-111300375D01*
X152518919Y-111300378D01*
X152530542Y-111389263D01*
X152536641Y-111435901D01*
X152540255Y-111444114D01*
X152540256Y-111444118D01*
X152540683Y-111445088D01*
X152595305Y-111569223D01*
X152601080Y-111576093D01*
X152601081Y-111576095D01*
X152683249Y-111673846D01*
X152689029Y-111680722D01*
X152696506Y-111685699D01*
X152802807Y-111756459D01*
X152802809Y-111756460D01*
X152810280Y-111761433D01*
X152949310Y-111804870D01*
X153094944Y-111807539D01*
X153177523Y-111785025D01*
X153226809Y-111771588D01*
X153226810Y-111771588D01*
X153235472Y-111769226D01*
X153243805Y-111764110D01*
X153351948Y-111697710D01*
X153359600Y-111693012D01*
X153366220Y-111685699D01*
X153451319Y-111591683D01*
X153451320Y-111591682D01*
X153457347Y-111585023D01*
X153464949Y-111569334D01*
X153516941Y-111462021D01*
X153516941Y-111462020D01*
X153520856Y-111453940D01*
X153545022Y-111310301D01*
X153545175Y-111297749D01*
X153541076Y-111269124D01*
X158486309Y-111269124D01*
X158487473Y-111278026D01*
X158487473Y-111278029D01*
X158491058Y-111305442D01*
X158505195Y-111413552D01*
X158508809Y-111421765D01*
X158508810Y-111421769D01*
X158519071Y-111445088D01*
X158563859Y-111546874D01*
X158569634Y-111553744D01*
X158569635Y-111553746D01*
X158651803Y-111651497D01*
X158657583Y-111658373D01*
X158665060Y-111663350D01*
X158771361Y-111734110D01*
X158771363Y-111734111D01*
X158778834Y-111739084D01*
X158787401Y-111741761D01*
X158787402Y-111741761D01*
X158803777Y-111746877D01*
X158917864Y-111782521D01*
X159063498Y-111785190D01*
X159140817Y-111764110D01*
X159195367Y-111749238D01*
X159195369Y-111749237D01*
X159204026Y-111746877D01*
X159250585Y-111718290D01*
X159319103Y-111699692D01*
X159386332Y-111720777D01*
X159413834Y-111739084D01*
X159422401Y-111741761D01*
X159422402Y-111741761D01*
X159438777Y-111746877D01*
X159552864Y-111782521D01*
X159698498Y-111785190D01*
X159775817Y-111764110D01*
X159830367Y-111749238D01*
X159830369Y-111749237D01*
X159839026Y-111746877D01*
X159885585Y-111718290D01*
X159954103Y-111699692D01*
X160021332Y-111720777D01*
X160048834Y-111739084D01*
X160057401Y-111741761D01*
X160057402Y-111741761D01*
X160073777Y-111746877D01*
X160187864Y-111782521D01*
X160333498Y-111785190D01*
X160420636Y-111761433D01*
X160465363Y-111749239D01*
X160465364Y-111749239D01*
X160474026Y-111746877D01*
X160482359Y-111741761D01*
X160554103Y-111697710D01*
X160598154Y-111670663D01*
X160604774Y-111663350D01*
X160689873Y-111569334D01*
X160689874Y-111569333D01*
X160695901Y-111562674D01*
X160759410Y-111431591D01*
X160779816Y-111310301D01*
X160782770Y-111292744D01*
X160782770Y-111292741D01*
X160783576Y-111287952D01*
X160783729Y-111275400D01*
X160767554Y-111162455D01*
X160764354Y-111140106D01*
X160764353Y-111140103D01*
X160763080Y-111131213D01*
X160759362Y-111123035D01*
X160706508Y-111006790D01*
X160706507Y-111006788D01*
X160702792Y-110998618D01*
X160614535Y-110896190D01*
X160613574Y-110895075D01*
X160607713Y-110888273D01*
X160485485Y-110809048D01*
X160345934Y-110767314D01*
X160336958Y-110767259D01*
X160336957Y-110767259D01*
X160275644Y-110766885D01*
X160200279Y-110766424D01*
X160060229Y-110806451D01*
X160028716Y-110826334D01*
X160020064Y-110831793D01*
X159951779Y-110851227D01*
X159884297Y-110830964D01*
X159858014Y-110813928D01*
X159850485Y-110809048D01*
X159710934Y-110767314D01*
X159701958Y-110767259D01*
X159701957Y-110767259D01*
X159640644Y-110766885D01*
X159565279Y-110766424D01*
X159425229Y-110806451D01*
X159393716Y-110826334D01*
X159385064Y-110831793D01*
X159316779Y-110851227D01*
X159249297Y-110830964D01*
X159223014Y-110813928D01*
X159215485Y-110809048D01*
X159075934Y-110767314D01*
X159066958Y-110767259D01*
X159066957Y-110767259D01*
X159005644Y-110766885D01*
X158930279Y-110766424D01*
X158790229Y-110806451D01*
X158782642Y-110811238D01*
X158782640Y-110811239D01*
X158751378Y-110830964D01*
X158667042Y-110884176D01*
X158570622Y-110993351D01*
X158566808Y-111001474D01*
X158566807Y-111001476D01*
X158529619Y-111080684D01*
X158508719Y-111125200D01*
X158507339Y-111134065D01*
X158507338Y-111134067D01*
X158504303Y-111153562D01*
X158486309Y-111269124D01*
X153541076Y-111269124D01*
X153524526Y-111153562D01*
X153518408Y-111140106D01*
X153467954Y-111029139D01*
X153467953Y-111029137D01*
X153464238Y-111020967D01*
X153369159Y-110910622D01*
X153246931Y-110831397D01*
X153107380Y-110789663D01*
X153098404Y-110789608D01*
X153098403Y-110789608D01*
X153037090Y-110789234D01*
X152961725Y-110788773D01*
X152821675Y-110828800D01*
X152698488Y-110906525D01*
X152602068Y-111015700D01*
X152540165Y-111147549D01*
X152538785Y-111156414D01*
X152538784Y-111156416D01*
X152520258Y-111275400D01*
X152517755Y-111291473D01*
X149560500Y-111291473D01*
X149560500Y-110610724D01*
X162427309Y-110610724D01*
X162446195Y-110755152D01*
X162449809Y-110763365D01*
X162449810Y-110763369D01*
X162479744Y-110831397D01*
X162504859Y-110888474D01*
X162510634Y-110895344D01*
X162510635Y-110895346D01*
X162587361Y-110986623D01*
X162598583Y-110999973D01*
X162606060Y-111004950D01*
X162712361Y-111075710D01*
X162712363Y-111075711D01*
X162719834Y-111080684D01*
X162858864Y-111124121D01*
X163004498Y-111126790D01*
X163074762Y-111107633D01*
X163136363Y-111090839D01*
X163136364Y-111090839D01*
X163145026Y-111088477D01*
X163153359Y-111083361D01*
X163261502Y-111016961D01*
X163269154Y-111012263D01*
X163275774Y-111004950D01*
X163360873Y-110910934D01*
X163360874Y-110910933D01*
X163366901Y-110904274D01*
X163374654Y-110888273D01*
X163426495Y-110781272D01*
X163426495Y-110781271D01*
X163430410Y-110773191D01*
X163441064Y-110709868D01*
X163472092Y-110646010D01*
X163532717Y-110609063D01*
X163602895Y-110610507D01*
X163612295Y-110613444D01*
X163612296Y-110613444D01*
X163620864Y-110616121D01*
X163766498Y-110618790D01*
X163836762Y-110599633D01*
X163898363Y-110582839D01*
X163898364Y-110582839D01*
X163907026Y-110580477D01*
X163919719Y-110572684D01*
X164023502Y-110508961D01*
X164031154Y-110504263D01*
X164072418Y-110458676D01*
X164122873Y-110402934D01*
X164122874Y-110402933D01*
X164128901Y-110396274D01*
X164161872Y-110328223D01*
X164188495Y-110273272D01*
X164188495Y-110273271D01*
X164192410Y-110265191D01*
X164216576Y-110121552D01*
X164216729Y-110109000D01*
X164204524Y-110023774D01*
X164197354Y-109973706D01*
X164197353Y-109973703D01*
X164196080Y-109964813D01*
X164192362Y-109956635D01*
X164139508Y-109840390D01*
X164139507Y-109840388D01*
X164135792Y-109832218D01*
X164047909Y-109730224D01*
X165856309Y-109730224D01*
X165857473Y-109739126D01*
X165857473Y-109739129D01*
X165868078Y-109820223D01*
X165875195Y-109874652D01*
X165878809Y-109882865D01*
X165878810Y-109882869D01*
X165914867Y-109964813D01*
X165933859Y-110007974D01*
X165939634Y-110014844D01*
X165939635Y-110014846D01*
X166020033Y-110110491D01*
X166027583Y-110119473D01*
X166035060Y-110124450D01*
X166141361Y-110195210D01*
X166141363Y-110195211D01*
X166148834Y-110200184D01*
X166287864Y-110243621D01*
X166433498Y-110246290D01*
X166508741Y-110225776D01*
X166565363Y-110210339D01*
X166565364Y-110210339D01*
X166574026Y-110207977D01*
X166582359Y-110202861D01*
X166690502Y-110136461D01*
X166698154Y-110131763D01*
X166704774Y-110124450D01*
X166789873Y-110030434D01*
X166789874Y-110030433D01*
X166795901Y-110023774D01*
X166800020Y-110015274D01*
X166855495Y-109900772D01*
X166855495Y-109900771D01*
X166859410Y-109892691D01*
X166883576Y-109749052D01*
X166883729Y-109736500D01*
X166881613Y-109721724D01*
X169031309Y-109721724D01*
X169032473Y-109730626D01*
X169032473Y-109730629D01*
X169035509Y-109753844D01*
X169050195Y-109866152D01*
X169053809Y-109874365D01*
X169053810Y-109874369D01*
X169065428Y-109900772D01*
X169108859Y-109999474D01*
X169114634Y-110006344D01*
X169114635Y-110006346D01*
X169127738Y-110021934D01*
X169202583Y-110110973D01*
X169218476Y-110121552D01*
X169316361Y-110186710D01*
X169316363Y-110186711D01*
X169323834Y-110191684D01*
X169332401Y-110194361D01*
X169332402Y-110194361D01*
X169348777Y-110199477D01*
X169462864Y-110235121D01*
X169608498Y-110237790D01*
X169678762Y-110218634D01*
X169740363Y-110201839D01*
X169740364Y-110201839D01*
X169749026Y-110199477D01*
X169757359Y-110194361D01*
X169832782Y-110148051D01*
X169873154Y-110123263D01*
X169879774Y-110115950D01*
X169964873Y-110021934D01*
X169964874Y-110021933D01*
X169970901Y-110015274D01*
X169978419Y-109999758D01*
X170030495Y-109892272D01*
X170030495Y-109892271D01*
X170034410Y-109884191D01*
X170058576Y-109740552D01*
X170058729Y-109728000D01*
X170040529Y-109600914D01*
X170039354Y-109592706D01*
X170039353Y-109592703D01*
X170038080Y-109583813D01*
X170034362Y-109575635D01*
X169981508Y-109459390D01*
X169981507Y-109459388D01*
X169977792Y-109451218D01*
X169882713Y-109340873D01*
X169760485Y-109261648D01*
X169620934Y-109219914D01*
X169611958Y-109219859D01*
X169611957Y-109219859D01*
X169550644Y-109219485D01*
X169475279Y-109219024D01*
X169335229Y-109259051D01*
X169327642Y-109263838D01*
X169327640Y-109263839D01*
X169309905Y-109275029D01*
X169212042Y-109336776D01*
X169115622Y-109445951D01*
X169111808Y-109454074D01*
X169111807Y-109454076D01*
X169057533Y-109569676D01*
X169053719Y-109577800D01*
X169052339Y-109586665D01*
X169052338Y-109586667D01*
X169042862Y-109647529D01*
X169031309Y-109721724D01*
X166881613Y-109721724D01*
X166878056Y-109696885D01*
X166864354Y-109601206D01*
X166864353Y-109601203D01*
X166863080Y-109592313D01*
X166859362Y-109584135D01*
X166806508Y-109467890D01*
X166806507Y-109467888D01*
X166802792Y-109459718D01*
X166707713Y-109349373D01*
X166585485Y-109270148D01*
X166445934Y-109228414D01*
X166436958Y-109228359D01*
X166436957Y-109228359D01*
X166375644Y-109227985D01*
X166300279Y-109227524D01*
X166160229Y-109267551D01*
X166037042Y-109345276D01*
X165940622Y-109454451D01*
X165878719Y-109586300D01*
X165877339Y-109595165D01*
X165877338Y-109595167D01*
X165858370Y-109716989D01*
X165856309Y-109730224D01*
X164047909Y-109730224D01*
X164040713Y-109721873D01*
X163918485Y-109642648D01*
X163778934Y-109600914D01*
X163769958Y-109600859D01*
X163769957Y-109600859D01*
X163708644Y-109600485D01*
X163633279Y-109600024D01*
X163493229Y-109640051D01*
X163370042Y-109717776D01*
X163273622Y-109826951D01*
X163269808Y-109835074D01*
X163269807Y-109835076D01*
X163246913Y-109883839D01*
X163211719Y-109958800D01*
X163210338Y-109967667D01*
X163210338Y-109967668D01*
X163202940Y-110015180D01*
X163172695Y-110079412D01*
X163112525Y-110117096D01*
X163042340Y-110116512D01*
X163025535Y-110111486D01*
X163025534Y-110111486D01*
X163016934Y-110108914D01*
X163007958Y-110108859D01*
X163007957Y-110108859D01*
X162946644Y-110108485D01*
X162871279Y-110108024D01*
X162731229Y-110148051D01*
X162608042Y-110225776D01*
X162511622Y-110334951D01*
X162449719Y-110466800D01*
X162448339Y-110475665D01*
X162448338Y-110475667D01*
X162431651Y-110582839D01*
X162427309Y-110610724D01*
X149560500Y-110610724D01*
X149560500Y-107753224D01*
X156013809Y-107753224D01*
X156014973Y-107762126D01*
X156014973Y-107762129D01*
X156018466Y-107788839D01*
X156032695Y-107897652D01*
X156036309Y-107905865D01*
X156036310Y-107905869D01*
X156068201Y-107978344D01*
X156091359Y-108030974D01*
X156097134Y-108037844D01*
X156097135Y-108037846D01*
X156179303Y-108135597D01*
X156185083Y-108142473D01*
X156192560Y-108147450D01*
X156298861Y-108218210D01*
X156298863Y-108218211D01*
X156306334Y-108223184D01*
X156445364Y-108266621D01*
X156590998Y-108269290D01*
X156693765Y-108241272D01*
X156722863Y-108233339D01*
X156722864Y-108233339D01*
X156731526Y-108230977D01*
X156739859Y-108225861D01*
X156848002Y-108159461D01*
X156855654Y-108154763D01*
X156862274Y-108147450D01*
X156931723Y-108070724D01*
X169158309Y-108070724D01*
X169159473Y-108079626D01*
X169159473Y-108079629D01*
X169166792Y-108135597D01*
X169177195Y-108215152D01*
X169180809Y-108223365D01*
X169180810Y-108223369D01*
X169220567Y-108313722D01*
X169235859Y-108348474D01*
X169241634Y-108355344D01*
X169241635Y-108355346D01*
X169249140Y-108364274D01*
X169329583Y-108459973D01*
X169337060Y-108464950D01*
X169443361Y-108535710D01*
X169443363Y-108535711D01*
X169450834Y-108540684D01*
X169589864Y-108584121D01*
X169735498Y-108586790D01*
X169805762Y-108567634D01*
X169867363Y-108550839D01*
X169867364Y-108550839D01*
X169876026Y-108548477D01*
X169884359Y-108543361D01*
X169988649Y-108479327D01*
X170057166Y-108460729D01*
X170124396Y-108481815D01*
X170205361Y-108535710D01*
X170205363Y-108535711D01*
X170212834Y-108540684D01*
X170351864Y-108584121D01*
X170497498Y-108586790D01*
X170567762Y-108567634D01*
X170629363Y-108550839D01*
X170629364Y-108550839D01*
X170638026Y-108548477D01*
X170646359Y-108543361D01*
X170700090Y-108510370D01*
X170762154Y-108472263D01*
X170768774Y-108464950D01*
X170853873Y-108370934D01*
X170853874Y-108370933D01*
X170859901Y-108364274D01*
X170907214Y-108266621D01*
X170919495Y-108241272D01*
X170919495Y-108241271D01*
X170923410Y-108233191D01*
X170947576Y-108089552D01*
X170947729Y-108077000D01*
X170934366Y-107983690D01*
X170928354Y-107941706D01*
X170928353Y-107941703D01*
X170927080Y-107932813D01*
X170923362Y-107924635D01*
X170870508Y-107808390D01*
X170870507Y-107808388D01*
X170866792Y-107800218D01*
X170860933Y-107793418D01*
X170837478Y-107766197D01*
X170808165Y-107701534D01*
X170818465Y-107631289D01*
X170839517Y-107599395D01*
X170853877Y-107583531D01*
X170853882Y-107583524D01*
X170859901Y-107576874D01*
X170916844Y-107459344D01*
X170919495Y-107453872D01*
X170919495Y-107453871D01*
X170923410Y-107445791D01*
X170942459Y-107332567D01*
X170946770Y-107306944D01*
X170946770Y-107306941D01*
X170947576Y-107302152D01*
X170947729Y-107289600D01*
X170934485Y-107197118D01*
X170928354Y-107154306D01*
X170928353Y-107154303D01*
X170927080Y-107145413D01*
X170923362Y-107137235D01*
X170870508Y-107020990D01*
X170870507Y-107020988D01*
X170866792Y-107012818D01*
X170859611Y-107004484D01*
X170858782Y-107002654D01*
X170856096Y-106998455D01*
X170856702Y-106998067D01*
X170830298Y-106939821D01*
X170840598Y-106869575D01*
X170850605Y-106851780D01*
X170853876Y-106846930D01*
X170859901Y-106840274D01*
X170898798Y-106759991D01*
X170919495Y-106717272D01*
X170919495Y-106717271D01*
X170923410Y-106709191D01*
X170939847Y-106611493D01*
X170946770Y-106570344D01*
X170946770Y-106570341D01*
X170947576Y-106565552D01*
X170947729Y-106553000D01*
X170927080Y-106408813D01*
X170923362Y-106400635D01*
X170870508Y-106284390D01*
X170870507Y-106284388D01*
X170866792Y-106276218D01*
X170771713Y-106165873D01*
X170649485Y-106086648D01*
X170509934Y-106044914D01*
X170500958Y-106044859D01*
X170500957Y-106044859D01*
X170439644Y-106044485D01*
X170364279Y-106044024D01*
X170224229Y-106084051D01*
X170216642Y-106088838D01*
X170216640Y-106088839D01*
X170119709Y-106149998D01*
X170051424Y-106169432D01*
X169983941Y-106149168D01*
X169895016Y-106091529D01*
X169895014Y-106091528D01*
X169887485Y-106086648D01*
X169747934Y-106044914D01*
X169738958Y-106044859D01*
X169738957Y-106044859D01*
X169677644Y-106044485D01*
X169602279Y-106044024D01*
X169462229Y-106084051D01*
X169454642Y-106088838D01*
X169454640Y-106088839D01*
X169439666Y-106098287D01*
X169339042Y-106161776D01*
X169242622Y-106270951D01*
X169238808Y-106279074D01*
X169238807Y-106279076D01*
X169194921Y-106372551D01*
X169180719Y-106402800D01*
X169179339Y-106411665D01*
X169179338Y-106411667D01*
X169163963Y-106510413D01*
X169158309Y-106546724D01*
X169159473Y-106555626D01*
X169159473Y-106555629D01*
X169165772Y-106603800D01*
X169177195Y-106691152D01*
X169180809Y-106699365D01*
X169180810Y-106699369D01*
X169203590Y-106751139D01*
X169235859Y-106824474D01*
X169241634Y-106831344D01*
X169241635Y-106831346D01*
X169248145Y-106839090D01*
X169276666Y-106904105D01*
X169265510Y-106974220D01*
X169253081Y-106993051D01*
X169253492Y-106993321D01*
X169248564Y-107000823D01*
X169242622Y-107007551D01*
X169238808Y-107015674D01*
X169238807Y-107015676D01*
X169194090Y-107110921D01*
X169180719Y-107139400D01*
X169179339Y-107148265D01*
X169179338Y-107148267D01*
X169163278Y-107251414D01*
X169158309Y-107283324D01*
X169159473Y-107292226D01*
X169159473Y-107292229D01*
X169164092Y-107327552D01*
X169177195Y-107427752D01*
X169180809Y-107435965D01*
X169180810Y-107435969D01*
X169220567Y-107526322D01*
X169235859Y-107561074D01*
X169241634Y-107567944D01*
X169241635Y-107567946D01*
X169270024Y-107601719D01*
X169298545Y-107666735D01*
X169287387Y-107736849D01*
X169268014Y-107766200D01*
X169242622Y-107794951D01*
X169238808Y-107803074D01*
X169238807Y-107803076D01*
X169185865Y-107915839D01*
X169180719Y-107926800D01*
X169179339Y-107935665D01*
X169179338Y-107935667D01*
X169165778Y-108022758D01*
X169158309Y-108070724D01*
X156931723Y-108070724D01*
X156947373Y-108053434D01*
X156947374Y-108053433D01*
X156953401Y-108046774D01*
X156985110Y-107981328D01*
X157012995Y-107923772D01*
X157012995Y-107923771D01*
X157016910Y-107915691D01*
X157033329Y-107818097D01*
X157040270Y-107776844D01*
X157040270Y-107776841D01*
X157041076Y-107772052D01*
X157041229Y-107759500D01*
X157033461Y-107705258D01*
X157021854Y-107624206D01*
X157021853Y-107624203D01*
X157020580Y-107615313D01*
X157016862Y-107607135D01*
X156964008Y-107490890D01*
X156964007Y-107490888D01*
X156960292Y-107482718D01*
X156947286Y-107467624D01*
X160395309Y-107467624D01*
X160396473Y-107476526D01*
X160396473Y-107476529D01*
X160407529Y-107561074D01*
X160414195Y-107612052D01*
X160417809Y-107620265D01*
X160417810Y-107620269D01*
X160448976Y-107691097D01*
X160472859Y-107745374D01*
X160478634Y-107752244D01*
X160478635Y-107752246D01*
X160539768Y-107824973D01*
X160566583Y-107856873D01*
X160574060Y-107861850D01*
X160680361Y-107932610D01*
X160680363Y-107932611D01*
X160687834Y-107937584D01*
X160826864Y-107981021D01*
X160972498Y-107983690D01*
X161090109Y-107951625D01*
X161104363Y-107947739D01*
X161104364Y-107947739D01*
X161113026Y-107945377D01*
X161121359Y-107940261D01*
X161185774Y-107900710D01*
X161237154Y-107869163D01*
X161243774Y-107861850D01*
X161328873Y-107767834D01*
X161328874Y-107767833D01*
X161334901Y-107761174D01*
X161343052Y-107744352D01*
X161394495Y-107638172D01*
X161394495Y-107638171D01*
X161398410Y-107630091D01*
X161422576Y-107486452D01*
X161422729Y-107473900D01*
X161417262Y-107435724D01*
X162351109Y-107435724D01*
X162352273Y-107444626D01*
X162352273Y-107444629D01*
X162357107Y-107481593D01*
X162369995Y-107580152D01*
X162373609Y-107588365D01*
X162373610Y-107588369D01*
X162390421Y-107626573D01*
X162428659Y-107713474D01*
X162434434Y-107720344D01*
X162434435Y-107720346D01*
X162516603Y-107818097D01*
X162522383Y-107824973D01*
X162529860Y-107829950D01*
X162636161Y-107900710D01*
X162636163Y-107900711D01*
X162643634Y-107905684D01*
X162782664Y-107949121D01*
X162928298Y-107951790D01*
X163049757Y-107918676D01*
X163060163Y-107915839D01*
X163060164Y-107915839D01*
X163068826Y-107913477D01*
X163077159Y-107908361D01*
X163152910Y-107861850D01*
X163192954Y-107837263D01*
X163199574Y-107829950D01*
X163284673Y-107735934D01*
X163284674Y-107735933D01*
X163290701Y-107729274D01*
X163318173Y-107672573D01*
X163350295Y-107606272D01*
X163350295Y-107606271D01*
X163354210Y-107598191D01*
X163372203Y-107491244D01*
X163377570Y-107459344D01*
X163377570Y-107459341D01*
X163378376Y-107454552D01*
X163378529Y-107442000D01*
X163362825Y-107332344D01*
X163359443Y-107308724D01*
X165110809Y-107308724D01*
X165111973Y-107317626D01*
X165111973Y-107317629D01*
X165114716Y-107338606D01*
X165129695Y-107453152D01*
X165133309Y-107461365D01*
X165133310Y-107461369D01*
X165146300Y-107490890D01*
X165188359Y-107586474D01*
X165194134Y-107593344D01*
X165194135Y-107593346D01*
X165231815Y-107638172D01*
X165282083Y-107697973D01*
X165289560Y-107702950D01*
X165395861Y-107773710D01*
X165395863Y-107773711D01*
X165403334Y-107778684D01*
X165542364Y-107822121D01*
X165687998Y-107824790D01*
X165767643Y-107803076D01*
X165819863Y-107788839D01*
X165819864Y-107788839D01*
X165828526Y-107786477D01*
X165836859Y-107781361D01*
X165890590Y-107748370D01*
X165952654Y-107710263D01*
X165959274Y-107702950D01*
X166044373Y-107608934D01*
X166044374Y-107608933D01*
X166050401Y-107602274D01*
X166065433Y-107571249D01*
X166109995Y-107479272D01*
X166109995Y-107479271D01*
X166113910Y-107471191D01*
X166131357Y-107367489D01*
X166137270Y-107332344D01*
X166137270Y-107332341D01*
X166138076Y-107327552D01*
X166138229Y-107315000D01*
X166129003Y-107250579D01*
X166118854Y-107179706D01*
X166118853Y-107179703D01*
X166117580Y-107170813D01*
X166113862Y-107162635D01*
X166061008Y-107046390D01*
X166061007Y-107046388D01*
X166057292Y-107038218D01*
X165962213Y-106927873D01*
X165839985Y-106848648D01*
X165700434Y-106806914D01*
X165691458Y-106806859D01*
X165691457Y-106806859D01*
X165630144Y-106806485D01*
X165554779Y-106806024D01*
X165414729Y-106846051D01*
X165407142Y-106850838D01*
X165407140Y-106850839D01*
X165368413Y-106875274D01*
X165291542Y-106923776D01*
X165195122Y-107032951D01*
X165191308Y-107041074D01*
X165191307Y-107041076D01*
X165148958Y-107131276D01*
X165133219Y-107164800D01*
X165131839Y-107173665D01*
X165131838Y-107173667D01*
X165112508Y-107297813D01*
X165110809Y-107308724D01*
X163359443Y-107308724D01*
X163359154Y-107306706D01*
X163359153Y-107306703D01*
X163357880Y-107297813D01*
X163351956Y-107284783D01*
X163301308Y-107173390D01*
X163301307Y-107173388D01*
X163297592Y-107165218D01*
X163202513Y-107054873D01*
X163080285Y-106975648D01*
X162940734Y-106933914D01*
X162931758Y-106933859D01*
X162931757Y-106933859D01*
X162870444Y-106933485D01*
X162795079Y-106933024D01*
X162655029Y-106973051D01*
X162647442Y-106977838D01*
X162647440Y-106977839D01*
X162604470Y-107004951D01*
X162531842Y-107050776D01*
X162435422Y-107159951D01*
X162431608Y-107168074D01*
X162431607Y-107168076D01*
X162392898Y-107250524D01*
X162373519Y-107291800D01*
X162372139Y-107300665D01*
X162372138Y-107300667D01*
X162353737Y-107418849D01*
X162351109Y-107435724D01*
X161417262Y-107435724D01*
X161414845Y-107418849D01*
X161403354Y-107338606D01*
X161403353Y-107338603D01*
X161402080Y-107329713D01*
X161395653Y-107315576D01*
X161350059Y-107215300D01*
X161340071Y-107145009D01*
X161369672Y-107080477D01*
X161398829Y-107055774D01*
X161400804Y-107054562D01*
X161400807Y-107054559D01*
X161408456Y-107049863D01*
X161449109Y-107004951D01*
X161500175Y-106948534D01*
X161500176Y-106948533D01*
X161506203Y-106941874D01*
X161512987Y-106927873D01*
X161565797Y-106818872D01*
X161565797Y-106818871D01*
X161569712Y-106810791D01*
X161593878Y-106667152D01*
X161594031Y-106654600D01*
X161581965Y-106570344D01*
X161574656Y-106519306D01*
X161574655Y-106519303D01*
X161573382Y-106510413D01*
X161569664Y-106502235D01*
X161516810Y-106385990D01*
X161516809Y-106385988D01*
X161513094Y-106377818D01*
X161418015Y-106267473D01*
X161295787Y-106188248D01*
X161156236Y-106146514D01*
X161147260Y-106146459D01*
X161147259Y-106146459D01*
X161085946Y-106146085D01*
X161010581Y-106145624D01*
X160870531Y-106185651D01*
X160862944Y-106190438D01*
X160862942Y-106190439D01*
X160821364Y-106216673D01*
X160747344Y-106263376D01*
X160650924Y-106372551D01*
X160647110Y-106380674D01*
X160647109Y-106380676D01*
X160605873Y-106468506D01*
X160589021Y-106504400D01*
X160587641Y-106513265D01*
X160587640Y-106513267D01*
X160572346Y-106611493D01*
X160566611Y-106648324D01*
X160567775Y-106657226D01*
X160567775Y-106657229D01*
X160574570Y-106709191D01*
X160585497Y-106792752D01*
X160589112Y-106800967D01*
X160589112Y-106800968D01*
X160639566Y-106915631D01*
X160648694Y-106986039D01*
X160618307Y-107050204D01*
X160591474Y-107072938D01*
X160583638Y-107077882D01*
X160583632Y-107077887D01*
X160576042Y-107082676D01*
X160479622Y-107191851D01*
X160475808Y-107199974D01*
X160475807Y-107199976D01*
X160421533Y-107315576D01*
X160417719Y-107323700D01*
X160416339Y-107332565D01*
X160416338Y-107332567D01*
X160398709Y-107445791D01*
X160395309Y-107467624D01*
X156947286Y-107467624D01*
X156865213Y-107372373D01*
X156742985Y-107293148D01*
X156603434Y-107251414D01*
X156594458Y-107251359D01*
X156594457Y-107251359D01*
X156533144Y-107250985D01*
X156457779Y-107250524D01*
X156317729Y-107290551D01*
X156310142Y-107295338D01*
X156310140Y-107295339D01*
X156274813Y-107317629D01*
X156194542Y-107368276D01*
X156098122Y-107477451D01*
X156094308Y-107485574D01*
X156094307Y-107485576D01*
X156040869Y-107599395D01*
X156036219Y-107609300D01*
X156034839Y-107618165D01*
X156034838Y-107618167D01*
X156016311Y-107737158D01*
X156013809Y-107753224D01*
X149560500Y-107753224D01*
X149560500Y-106597524D01*
X158033109Y-106597524D01*
X158034273Y-106606426D01*
X158034273Y-106606429D01*
X158040572Y-106654600D01*
X158051995Y-106741952D01*
X158055609Y-106750165D01*
X158055610Y-106750169D01*
X158082285Y-106810791D01*
X158110659Y-106875274D01*
X158116434Y-106882144D01*
X158116435Y-106882146D01*
X158196873Y-106977839D01*
X158204383Y-106986773D01*
X158211860Y-106991750D01*
X158318161Y-107062510D01*
X158318163Y-107062511D01*
X158325634Y-107067484D01*
X158464664Y-107110921D01*
X158610298Y-107113590D01*
X158699010Y-107089404D01*
X158742163Y-107077639D01*
X158742164Y-107077639D01*
X158750826Y-107075277D01*
X158759159Y-107070161D01*
X158839242Y-107020990D01*
X158874954Y-106999063D01*
X158881574Y-106991750D01*
X158966673Y-106897734D01*
X158966674Y-106897733D01*
X158972701Y-106891074D01*
X158990892Y-106853529D01*
X159032295Y-106768072D01*
X159032295Y-106768071D01*
X159036210Y-106759991D01*
X159052647Y-106662293D01*
X159059570Y-106621144D01*
X159059570Y-106621141D01*
X159060376Y-106616352D01*
X159060529Y-106603800D01*
X159039880Y-106459613D01*
X159036162Y-106451435D01*
X158983308Y-106335190D01*
X158983307Y-106335188D01*
X158979592Y-106327018D01*
X158884513Y-106216673D01*
X158762285Y-106137448D01*
X158622734Y-106095714D01*
X158613758Y-106095659D01*
X158613757Y-106095659D01*
X158552444Y-106095285D01*
X158477079Y-106094824D01*
X158337029Y-106134851D01*
X158329442Y-106139638D01*
X158329440Y-106139639D01*
X158294355Y-106161776D01*
X158213842Y-106212576D01*
X158117422Y-106321751D01*
X158113608Y-106329874D01*
X158113607Y-106329876D01*
X158072371Y-106417706D01*
X158055519Y-106453600D01*
X158054139Y-106462465D01*
X158054138Y-106462467D01*
X158038844Y-106560693D01*
X158033109Y-106597524D01*
X149560500Y-106597524D01*
X149560500Y-104819524D01*
X158490309Y-104819524D01*
X158491473Y-104828426D01*
X158491473Y-104828429D01*
X158503096Y-104917314D01*
X158509195Y-104963952D01*
X158512809Y-104972165D01*
X158512810Y-104972169D01*
X158513237Y-104973139D01*
X158567859Y-105097274D01*
X158573634Y-105104144D01*
X158573635Y-105104146D01*
X158581140Y-105113074D01*
X158661583Y-105208773D01*
X158669060Y-105213750D01*
X158775361Y-105284510D01*
X158775363Y-105284511D01*
X158782834Y-105289484D01*
X158791401Y-105292161D01*
X158791402Y-105292161D01*
X158807777Y-105297277D01*
X158921864Y-105332921D01*
X159067498Y-105335590D01*
X159123756Y-105320252D01*
X159199367Y-105299638D01*
X159199369Y-105299637D01*
X159208026Y-105297277D01*
X159254585Y-105268690D01*
X159323103Y-105250092D01*
X159390332Y-105271177D01*
X159417834Y-105289484D01*
X159426401Y-105292161D01*
X159426402Y-105292161D01*
X159442777Y-105297277D01*
X159556864Y-105332921D01*
X159702498Y-105335590D01*
X159758756Y-105320252D01*
X159834367Y-105299638D01*
X159834369Y-105299637D01*
X159843026Y-105297277D01*
X159889585Y-105268690D01*
X159958103Y-105250092D01*
X160025332Y-105271177D01*
X160052834Y-105289484D01*
X160061401Y-105292161D01*
X160061402Y-105292161D01*
X160077777Y-105297277D01*
X160191864Y-105332921D01*
X160337498Y-105335590D01*
X160407762Y-105316433D01*
X160469363Y-105299639D01*
X160469364Y-105299639D01*
X160478026Y-105297277D01*
X160486359Y-105292161D01*
X160554875Y-105250092D01*
X160602154Y-105221063D01*
X160608774Y-105213750D01*
X160693873Y-105119734D01*
X160693874Y-105119733D01*
X160699901Y-105113074D01*
X160763410Y-104981991D01*
X160787576Y-104838352D01*
X160787729Y-104825800D01*
X160769774Y-104700425D01*
X160768354Y-104690506D01*
X160768353Y-104690503D01*
X160767080Y-104681613D01*
X160763362Y-104673435D01*
X160710508Y-104557190D01*
X160710507Y-104557188D01*
X160706792Y-104549018D01*
X160611713Y-104438673D01*
X160489485Y-104359448D01*
X160349934Y-104317714D01*
X160340958Y-104317659D01*
X160340957Y-104317659D01*
X160279644Y-104317285D01*
X160204279Y-104316824D01*
X160064229Y-104356851D01*
X160031609Y-104377433D01*
X160024064Y-104382193D01*
X159955779Y-104401627D01*
X159888297Y-104381364D01*
X159862014Y-104364328D01*
X159854485Y-104359448D01*
X159714934Y-104317714D01*
X159705958Y-104317659D01*
X159705957Y-104317659D01*
X159644644Y-104317285D01*
X159569279Y-104316824D01*
X159429229Y-104356851D01*
X159396609Y-104377433D01*
X159389064Y-104382193D01*
X159320779Y-104401627D01*
X159253297Y-104381364D01*
X159227014Y-104364328D01*
X159219485Y-104359448D01*
X159079934Y-104317714D01*
X159070958Y-104317659D01*
X159070957Y-104317659D01*
X159009644Y-104317285D01*
X158934279Y-104316824D01*
X158794229Y-104356851D01*
X158786642Y-104361638D01*
X158786640Y-104361639D01*
X158782377Y-104364329D01*
X158671042Y-104434576D01*
X158574622Y-104543751D01*
X158570808Y-104551874D01*
X158570807Y-104551876D01*
X158552551Y-104590761D01*
X158512719Y-104675600D01*
X158511339Y-104684465D01*
X158511338Y-104684467D01*
X158508854Y-104700425D01*
X158490309Y-104819524D01*
X149560500Y-104819524D01*
X149560500Y-104184524D01*
X154273909Y-104184524D01*
X154275073Y-104193426D01*
X154275073Y-104193429D01*
X154286696Y-104282314D01*
X154292795Y-104328952D01*
X154296409Y-104337165D01*
X154296410Y-104337169D01*
X154307178Y-104361640D01*
X154351459Y-104462274D01*
X154357234Y-104469144D01*
X154357235Y-104469146D01*
X154439403Y-104566897D01*
X154445183Y-104573773D01*
X154452660Y-104578750D01*
X154558961Y-104649510D01*
X154558963Y-104649511D01*
X154566434Y-104654484D01*
X154705464Y-104697921D01*
X154851098Y-104700590D01*
X154972557Y-104667476D01*
X154982963Y-104664639D01*
X154982964Y-104664639D01*
X154991626Y-104662277D01*
X154999959Y-104657161D01*
X155108102Y-104590761D01*
X155115754Y-104586063D01*
X155122374Y-104578750D01*
X155207473Y-104484734D01*
X155207474Y-104484733D01*
X155213501Y-104478074D01*
X155236897Y-104429786D01*
X155273095Y-104355072D01*
X155273095Y-104355071D01*
X155277010Y-104346991D01*
X155301176Y-104203352D01*
X155301329Y-104190800D01*
X155280680Y-104046613D01*
X155276962Y-104038435D01*
X155224108Y-103922190D01*
X155224107Y-103922188D01*
X155220392Y-103914018D01*
X155125313Y-103803673D01*
X155003085Y-103724448D01*
X154863534Y-103682714D01*
X154854558Y-103682659D01*
X154854557Y-103682659D01*
X154793244Y-103682285D01*
X154717879Y-103681824D01*
X154577829Y-103721851D01*
X154454642Y-103799576D01*
X154358222Y-103908751D01*
X154296319Y-104040600D01*
X154273909Y-104184524D01*
X149560500Y-104184524D01*
X149560500Y-102101724D01*
X165094309Y-102101724D01*
X165095473Y-102110626D01*
X165095473Y-102110629D01*
X165100862Y-102151839D01*
X165113195Y-102246152D01*
X165116809Y-102254365D01*
X165116810Y-102254369D01*
X165151828Y-102333951D01*
X165171859Y-102379474D01*
X165265583Y-102490973D01*
X165273060Y-102495950D01*
X165379361Y-102566710D01*
X165379363Y-102566711D01*
X165386834Y-102571684D01*
X165525864Y-102615121D01*
X165671498Y-102617790D01*
X165741762Y-102598634D01*
X165803363Y-102581839D01*
X165803364Y-102581839D01*
X165812026Y-102579477D01*
X165820359Y-102574361D01*
X165853670Y-102553908D01*
X165919510Y-102513483D01*
X165988025Y-102494885D01*
X166055720Y-102516282D01*
X166101101Y-102570882D01*
X166108925Y-102609905D01*
X166110309Y-102609724D01*
X166129195Y-102754152D01*
X166132809Y-102762365D01*
X166132810Y-102762369D01*
X166172567Y-102852722D01*
X166187859Y-102887474D01*
X166193634Y-102894344D01*
X166193635Y-102894346D01*
X166245275Y-102955779D01*
X166281583Y-102998973D01*
X166289060Y-103003950D01*
X166395361Y-103074710D01*
X166395363Y-103074711D01*
X166402834Y-103079684D01*
X166541864Y-103123121D01*
X166687498Y-103125790D01*
X166757762Y-103106634D01*
X166819363Y-103089839D01*
X166819364Y-103089839D01*
X166828026Y-103087477D01*
X166836359Y-103082361D01*
X166944502Y-103015961D01*
X166952154Y-103011263D01*
X166958774Y-103003950D01*
X167043873Y-102909934D01*
X167043874Y-102909933D01*
X167049901Y-102903274D01*
X167113410Y-102772191D01*
X167137576Y-102628552D01*
X167137729Y-102616000D01*
X167130670Y-102566710D01*
X167118643Y-102482724D01*
X167380309Y-102482724D01*
X167381473Y-102491626D01*
X167381473Y-102491629D01*
X167384331Y-102513483D01*
X167399195Y-102627152D01*
X167402809Y-102635365D01*
X167402810Y-102635369D01*
X167403237Y-102636339D01*
X167457859Y-102760474D01*
X167463634Y-102767344D01*
X167463635Y-102767346D01*
X167476738Y-102782934D01*
X167551583Y-102871973D01*
X167559060Y-102876950D01*
X167665361Y-102947710D01*
X167665363Y-102947711D01*
X167672834Y-102952684D01*
X167811864Y-102996121D01*
X167957498Y-102998790D01*
X168027762Y-102979634D01*
X168089363Y-102962839D01*
X168089364Y-102962839D01*
X168098026Y-102960477D01*
X168106359Y-102955361D01*
X168214502Y-102888961D01*
X168222154Y-102884263D01*
X168228774Y-102876950D01*
X168313873Y-102782934D01*
X168313874Y-102782933D01*
X168319901Y-102776274D01*
X168334933Y-102745249D01*
X168379495Y-102653272D01*
X168379495Y-102653271D01*
X168383410Y-102645191D01*
X168407576Y-102501552D01*
X168407729Y-102489000D01*
X168392044Y-102379474D01*
X168388354Y-102353706D01*
X168388353Y-102353703D01*
X168387080Y-102344813D01*
X168383362Y-102336635D01*
X168330508Y-102220390D01*
X168330507Y-102220388D01*
X168326792Y-102212218D01*
X168231713Y-102101873D01*
X168109485Y-102022648D01*
X167969934Y-101980914D01*
X167960958Y-101980859D01*
X167960957Y-101980859D01*
X167899644Y-101980485D01*
X167824279Y-101980024D01*
X167684229Y-102020051D01*
X167561042Y-102097776D01*
X167464622Y-102206951D01*
X167460808Y-102215074D01*
X167460807Y-102215076D01*
X167454094Y-102229375D01*
X167402719Y-102338800D01*
X167401339Y-102347665D01*
X167401338Y-102347667D01*
X167382008Y-102471813D01*
X167380309Y-102482724D01*
X167118643Y-102482724D01*
X167118354Y-102480706D01*
X167118353Y-102480703D01*
X167117080Y-102471813D01*
X167113362Y-102463635D01*
X167060508Y-102347390D01*
X167060507Y-102347388D01*
X167056792Y-102339218D01*
X166961713Y-102228873D01*
X166839485Y-102149648D01*
X166699934Y-102107914D01*
X166690958Y-102107859D01*
X166690957Y-102107859D01*
X166629644Y-102107485D01*
X166554279Y-102107024D01*
X166414229Y-102147051D01*
X166406642Y-102151838D01*
X166406640Y-102151839D01*
X166314554Y-102209941D01*
X166246269Y-102229375D01*
X166178317Y-102208806D01*
X166132273Y-102154765D01*
X166121681Y-102111957D01*
X166121729Y-102108000D01*
X166103529Y-101980914D01*
X166102354Y-101972706D01*
X166102353Y-101972703D01*
X166101080Y-101963813D01*
X166097362Y-101955635D01*
X166044508Y-101839390D01*
X166044507Y-101839388D01*
X166040792Y-101831218D01*
X165945713Y-101720873D01*
X165823485Y-101641648D01*
X165683934Y-101599914D01*
X165674958Y-101599859D01*
X165674957Y-101599859D01*
X165613644Y-101599485D01*
X165538279Y-101599024D01*
X165398229Y-101639051D01*
X165275042Y-101716776D01*
X165178622Y-101825951D01*
X165116719Y-101957800D01*
X165115339Y-101966665D01*
X165115338Y-101966667D01*
X165105862Y-102027529D01*
X165094309Y-102101724D01*
X149560500Y-102101724D01*
X149560500Y-99418350D01*
X169357095Y-99418350D01*
X169361763Y-99424924D01*
X169563111Y-99542583D01*
X169572394Y-99547030D01*
X169791708Y-99630778D01*
X169801606Y-99633654D01*
X170031653Y-99680457D01*
X170041881Y-99681676D01*
X170276481Y-99690279D01*
X170286767Y-99689812D01*
X170519623Y-99659982D01*
X170529709Y-99657839D01*
X170754562Y-99590380D01*
X170764157Y-99586620D01*
X170974973Y-99483341D01*
X170983823Y-99478066D01*
X171058047Y-99425123D01*
X171066447Y-99414424D01*
X171059458Y-99401268D01*
X170226612Y-98568422D01*
X170212668Y-98560808D01*
X170210835Y-98560939D01*
X170204220Y-98565190D01*
X169364355Y-99405055D01*
X169357095Y-99418350D01*
X149560500Y-99418350D01*
X149560500Y-98165090D01*
X152258108Y-98165090D01*
X152272424Y-98383512D01*
X152273845Y-98389108D01*
X152273846Y-98389113D01*
X152303870Y-98507330D01*
X152326305Y-98595667D01*
X152417945Y-98794451D01*
X152544277Y-98973206D01*
X152701069Y-99125946D01*
X152705865Y-99129151D01*
X152705868Y-99129153D01*
X152779633Y-99178441D01*
X152883069Y-99247555D01*
X152888372Y-99249833D01*
X152888375Y-99249835D01*
X152973180Y-99286270D01*
X153084184Y-99333961D01*
X153162017Y-99351573D01*
X153292040Y-99380994D01*
X153292045Y-99380995D01*
X153297677Y-99382269D01*
X153303448Y-99382496D01*
X153303450Y-99382496D01*
X153368810Y-99385064D01*
X153516399Y-99390863D01*
X153624712Y-99375158D01*
X153727310Y-99360283D01*
X153727315Y-99360282D01*
X153733024Y-99359454D01*
X153738488Y-99357599D01*
X153738493Y-99357598D01*
X153934827Y-99290952D01*
X153934832Y-99290950D01*
X153940299Y-99289094D01*
X154020204Y-99244345D01*
X154126233Y-99184966D01*
X154126237Y-99184963D01*
X154131280Y-99182139D01*
X154299572Y-99042172D01*
X154439539Y-98873880D01*
X154442363Y-98868837D01*
X154442366Y-98868833D01*
X154543670Y-98687942D01*
X154543671Y-98687940D01*
X154546494Y-98682899D01*
X154548350Y-98677432D01*
X154548352Y-98677427D01*
X154614998Y-98481093D01*
X154614999Y-98481088D01*
X154616854Y-98475624D01*
X154617682Y-98469915D01*
X154617683Y-98469910D01*
X154636698Y-98338763D01*
X154648263Y-98258999D01*
X154649902Y-98196400D01*
X154647025Y-98165090D01*
X156448108Y-98165090D01*
X156462424Y-98383512D01*
X156463845Y-98389108D01*
X156463846Y-98389113D01*
X156493870Y-98507330D01*
X156516305Y-98595667D01*
X156607945Y-98794451D01*
X156734277Y-98973206D01*
X156891069Y-99125946D01*
X156895865Y-99129151D01*
X156895868Y-99129153D01*
X156969633Y-99178441D01*
X157073069Y-99247555D01*
X157078372Y-99249833D01*
X157078375Y-99249835D01*
X157163180Y-99286270D01*
X157274184Y-99333961D01*
X157352017Y-99351573D01*
X157482040Y-99380994D01*
X157482045Y-99380995D01*
X157487677Y-99382269D01*
X157493448Y-99382496D01*
X157493450Y-99382496D01*
X157558810Y-99385064D01*
X157706399Y-99390863D01*
X157814712Y-99375158D01*
X157917310Y-99360283D01*
X157917315Y-99360282D01*
X157923024Y-99359454D01*
X157928488Y-99357599D01*
X157928493Y-99357598D01*
X158124827Y-99290952D01*
X158124832Y-99290950D01*
X158130299Y-99289094D01*
X158210204Y-99244345D01*
X158316233Y-99184966D01*
X158316237Y-99184963D01*
X158321280Y-99182139D01*
X158489572Y-99042172D01*
X158629539Y-98873880D01*
X158632363Y-98868837D01*
X158632366Y-98868833D01*
X158733670Y-98687942D01*
X158733671Y-98687940D01*
X158736494Y-98682899D01*
X158738350Y-98677432D01*
X158738352Y-98677427D01*
X158804998Y-98481093D01*
X158804999Y-98481088D01*
X158806854Y-98475624D01*
X158807682Y-98469915D01*
X158807683Y-98469910D01*
X158826698Y-98338763D01*
X158838263Y-98258999D01*
X158839902Y-98196400D01*
X158837025Y-98165090D01*
X160638108Y-98165090D01*
X160652424Y-98383512D01*
X160653845Y-98389108D01*
X160653846Y-98389113D01*
X160683870Y-98507330D01*
X160706305Y-98595667D01*
X160797945Y-98794451D01*
X160924277Y-98973206D01*
X161081069Y-99125946D01*
X161085865Y-99129151D01*
X161085868Y-99129153D01*
X161159633Y-99178441D01*
X161263069Y-99247555D01*
X161268372Y-99249833D01*
X161268375Y-99249835D01*
X161353180Y-99286270D01*
X161464184Y-99333961D01*
X161542017Y-99351573D01*
X161672040Y-99380994D01*
X161672045Y-99380995D01*
X161677677Y-99382269D01*
X161683448Y-99382496D01*
X161683450Y-99382496D01*
X161748810Y-99385064D01*
X161896399Y-99390863D01*
X162004712Y-99375158D01*
X162107310Y-99360283D01*
X162107315Y-99360282D01*
X162113024Y-99359454D01*
X162118488Y-99357599D01*
X162118493Y-99357598D01*
X162314827Y-99290952D01*
X162314832Y-99290950D01*
X162320299Y-99289094D01*
X162400204Y-99244345D01*
X162506233Y-99184966D01*
X162506237Y-99184963D01*
X162511280Y-99182139D01*
X162679572Y-99042172D01*
X162819539Y-98873880D01*
X162822363Y-98868837D01*
X162822366Y-98868833D01*
X162923670Y-98687942D01*
X162923671Y-98687940D01*
X162926494Y-98682899D01*
X162928350Y-98677432D01*
X162928352Y-98677427D01*
X162994998Y-98481093D01*
X162994999Y-98481088D01*
X162996854Y-98475624D01*
X162997682Y-98469915D01*
X162997683Y-98469910D01*
X163016698Y-98338763D01*
X163028263Y-98258999D01*
X163029902Y-98196400D01*
X163027025Y-98165090D01*
X164828108Y-98165090D01*
X164842424Y-98383512D01*
X164843845Y-98389108D01*
X164843846Y-98389113D01*
X164873870Y-98507330D01*
X164896305Y-98595667D01*
X164987945Y-98794451D01*
X165114277Y-98973206D01*
X165271069Y-99125946D01*
X165275865Y-99129151D01*
X165275868Y-99129153D01*
X165349633Y-99178441D01*
X165453069Y-99247555D01*
X165458372Y-99249833D01*
X165458375Y-99249835D01*
X165543180Y-99286270D01*
X165654184Y-99333961D01*
X165732017Y-99351573D01*
X165862040Y-99380994D01*
X165862045Y-99380995D01*
X165867677Y-99382269D01*
X165873448Y-99382496D01*
X165873450Y-99382496D01*
X165938810Y-99385064D01*
X166086399Y-99390863D01*
X166194712Y-99375158D01*
X166297310Y-99360283D01*
X166297315Y-99360282D01*
X166303024Y-99359454D01*
X166308488Y-99357599D01*
X166308493Y-99357598D01*
X166504827Y-99290952D01*
X166504832Y-99290950D01*
X166510299Y-99289094D01*
X166590204Y-99244345D01*
X166696233Y-99184966D01*
X166696237Y-99184963D01*
X166701280Y-99182139D01*
X166869572Y-99042172D01*
X167009539Y-98873880D01*
X167012363Y-98868837D01*
X167012366Y-98868833D01*
X167113670Y-98687942D01*
X167113671Y-98687940D01*
X167116494Y-98682899D01*
X167118350Y-98677432D01*
X167118352Y-98677427D01*
X167184998Y-98481093D01*
X167184999Y-98481088D01*
X167186854Y-98475624D01*
X167187682Y-98469915D01*
X167187683Y-98469910D01*
X167206698Y-98338763D01*
X167218263Y-98258999D01*
X167219902Y-98196400D01*
X167217018Y-98165015D01*
X168718935Y-98165015D01*
X168732449Y-98399379D01*
X168733885Y-98409600D01*
X168785495Y-98638605D01*
X168788574Y-98648434D01*
X168876898Y-98865948D01*
X168881543Y-98875144D01*
X168983901Y-99042178D01*
X168994357Y-99051639D01*
X169003135Y-99047855D01*
X169841778Y-98209212D01*
X169848156Y-98197532D01*
X170578208Y-98197532D01*
X170578339Y-98199365D01*
X170582590Y-98205980D01*
X171419218Y-99042608D01*
X171431229Y-99049167D01*
X171442968Y-99040199D01*
X171492765Y-98970898D01*
X171498080Y-98962053D01*
X171602087Y-98751611D01*
X171605886Y-98742016D01*
X171674127Y-98517411D01*
X171676306Y-98507330D01*
X171707185Y-98272782D01*
X171707704Y-98266107D01*
X171709326Y-98199764D01*
X171709132Y-98193047D01*
X171706833Y-98165090D01*
X173208108Y-98165090D01*
X173222424Y-98383512D01*
X173223845Y-98389108D01*
X173223846Y-98389113D01*
X173253870Y-98507330D01*
X173276305Y-98595667D01*
X173367945Y-98794451D01*
X173494277Y-98973206D01*
X173651069Y-99125946D01*
X173655865Y-99129151D01*
X173655868Y-99129153D01*
X173729633Y-99178441D01*
X173833069Y-99247555D01*
X173838372Y-99249833D01*
X173838375Y-99249835D01*
X173923180Y-99286270D01*
X174034184Y-99333961D01*
X174112017Y-99351573D01*
X174242040Y-99380994D01*
X174242045Y-99380995D01*
X174247677Y-99382269D01*
X174253448Y-99382496D01*
X174253450Y-99382496D01*
X174318810Y-99385064D01*
X174466399Y-99390863D01*
X174574712Y-99375158D01*
X174677310Y-99360283D01*
X174677315Y-99360282D01*
X174683024Y-99359454D01*
X174688488Y-99357599D01*
X174688493Y-99357598D01*
X174884827Y-99290952D01*
X174884832Y-99290950D01*
X174890299Y-99289094D01*
X174970204Y-99244345D01*
X175076233Y-99184966D01*
X175076237Y-99184963D01*
X175081280Y-99182139D01*
X175249572Y-99042172D01*
X175389539Y-98873880D01*
X175392363Y-98868837D01*
X175392366Y-98868833D01*
X175493670Y-98687942D01*
X175493671Y-98687940D01*
X175496494Y-98682899D01*
X175498350Y-98677432D01*
X175498352Y-98677427D01*
X175564998Y-98481093D01*
X175564999Y-98481088D01*
X175566854Y-98475624D01*
X175567682Y-98469915D01*
X175567683Y-98469910D01*
X175586698Y-98338763D01*
X175598263Y-98258999D01*
X175599902Y-98196400D01*
X175579873Y-97978428D01*
X175573912Y-97957289D01*
X175522025Y-97773314D01*
X175522024Y-97773312D01*
X175520457Y-97767755D01*
X175506115Y-97738672D01*
X175426200Y-97576618D01*
X175426197Y-97576614D01*
X175423645Y-97571438D01*
X175292677Y-97396052D01*
X175131941Y-97247468D01*
X175127058Y-97244387D01*
X175127054Y-97244384D01*
X174951702Y-97133746D01*
X174951703Y-97133746D01*
X174946819Y-97130665D01*
X174743511Y-97049554D01*
X174528827Y-97006850D01*
X174523052Y-97006774D01*
X174523048Y-97006774D01*
X174413302Y-97005338D01*
X174309955Y-97003985D01*
X174304258Y-97004964D01*
X174304257Y-97004964D01*
X174099923Y-97040075D01*
X174094226Y-97041054D01*
X173888865Y-97116816D01*
X173883904Y-97119768D01*
X173883903Y-97119768D01*
X173705717Y-97225777D01*
X173705714Y-97225779D01*
X173700749Y-97228733D01*
X173536178Y-97373058D01*
X173532603Y-97377593D01*
X173532602Y-97377594D01*
X173447685Y-97485311D01*
X173400664Y-97544956D01*
X173397976Y-97550065D01*
X173301435Y-97733560D01*
X173301433Y-97733565D01*
X173298746Y-97738672D01*
X173233836Y-97947716D01*
X173208108Y-98165090D01*
X171706833Y-98165090D01*
X171689749Y-97957289D01*
X171688064Y-97947109D01*
X171630875Y-97719429D01*
X171627555Y-97709678D01*
X171533944Y-97494386D01*
X171529077Y-97485311D01*
X171442688Y-97351773D01*
X171432003Y-97342570D01*
X171422436Y-97346974D01*
X170585822Y-98183588D01*
X170578208Y-98197532D01*
X169848156Y-98197532D01*
X169849392Y-98195268D01*
X169849261Y-98193435D01*
X169845010Y-98186820D01*
X169008295Y-97350105D01*
X168996759Y-97343805D01*
X168984476Y-97353429D01*
X168916293Y-97453381D01*
X168911200Y-97462345D01*
X168812357Y-97675284D01*
X168808800Y-97684952D01*
X168746065Y-97911168D01*
X168744134Y-97921288D01*
X168719187Y-98154726D01*
X168718935Y-98165015D01*
X167217018Y-98165015D01*
X167199873Y-97978428D01*
X167193912Y-97957289D01*
X167142025Y-97773314D01*
X167142024Y-97773312D01*
X167140457Y-97767755D01*
X167126115Y-97738672D01*
X167046200Y-97576618D01*
X167046197Y-97576614D01*
X167043645Y-97571438D01*
X166912677Y-97396052D01*
X166751941Y-97247468D01*
X166747058Y-97244387D01*
X166747054Y-97244384D01*
X166571702Y-97133746D01*
X166571703Y-97133746D01*
X166566819Y-97130665D01*
X166363511Y-97049554D01*
X166148827Y-97006850D01*
X166143052Y-97006774D01*
X166143048Y-97006774D01*
X166033302Y-97005338D01*
X165929955Y-97003985D01*
X165924258Y-97004964D01*
X165924257Y-97004964D01*
X165719923Y-97040075D01*
X165714226Y-97041054D01*
X165508865Y-97116816D01*
X165503904Y-97119768D01*
X165503903Y-97119768D01*
X165325717Y-97225777D01*
X165325714Y-97225779D01*
X165320749Y-97228733D01*
X165156178Y-97373058D01*
X165152603Y-97377593D01*
X165152602Y-97377594D01*
X165067685Y-97485311D01*
X165020664Y-97544956D01*
X165017976Y-97550065D01*
X164921435Y-97733560D01*
X164921433Y-97733565D01*
X164918746Y-97738672D01*
X164853836Y-97947716D01*
X164828108Y-98165090D01*
X163027025Y-98165090D01*
X163009873Y-97978428D01*
X163003912Y-97957289D01*
X162952025Y-97773314D01*
X162952024Y-97773312D01*
X162950457Y-97767755D01*
X162936115Y-97738672D01*
X162856200Y-97576618D01*
X162856197Y-97576614D01*
X162853645Y-97571438D01*
X162722677Y-97396052D01*
X162561941Y-97247468D01*
X162557058Y-97244387D01*
X162557054Y-97244384D01*
X162381702Y-97133746D01*
X162381703Y-97133746D01*
X162376819Y-97130665D01*
X162173511Y-97049554D01*
X161958827Y-97006850D01*
X161953052Y-97006774D01*
X161953048Y-97006774D01*
X161843302Y-97005338D01*
X161739955Y-97003985D01*
X161734258Y-97004964D01*
X161734257Y-97004964D01*
X161529923Y-97040075D01*
X161524226Y-97041054D01*
X161318865Y-97116816D01*
X161313904Y-97119768D01*
X161313903Y-97119768D01*
X161135717Y-97225777D01*
X161135714Y-97225779D01*
X161130749Y-97228733D01*
X160966178Y-97373058D01*
X160962603Y-97377593D01*
X160962602Y-97377594D01*
X160877685Y-97485311D01*
X160830664Y-97544956D01*
X160827976Y-97550065D01*
X160731435Y-97733560D01*
X160731433Y-97733565D01*
X160728746Y-97738672D01*
X160663836Y-97947716D01*
X160638108Y-98165090D01*
X158837025Y-98165090D01*
X158819873Y-97978428D01*
X158813912Y-97957289D01*
X158762025Y-97773314D01*
X158762024Y-97773312D01*
X158760457Y-97767755D01*
X158746115Y-97738672D01*
X158666200Y-97576618D01*
X158666197Y-97576614D01*
X158663645Y-97571438D01*
X158532677Y-97396052D01*
X158371941Y-97247468D01*
X158367058Y-97244387D01*
X158367054Y-97244384D01*
X158191702Y-97133746D01*
X158191703Y-97133746D01*
X158186819Y-97130665D01*
X157983511Y-97049554D01*
X157768827Y-97006850D01*
X157763052Y-97006774D01*
X157763048Y-97006774D01*
X157653302Y-97005338D01*
X157549955Y-97003985D01*
X157544258Y-97004964D01*
X157544257Y-97004964D01*
X157339923Y-97040075D01*
X157334226Y-97041054D01*
X157128865Y-97116816D01*
X157123904Y-97119768D01*
X157123903Y-97119768D01*
X156945717Y-97225777D01*
X156945714Y-97225779D01*
X156940749Y-97228733D01*
X156776178Y-97373058D01*
X156772603Y-97377593D01*
X156772602Y-97377594D01*
X156687685Y-97485311D01*
X156640664Y-97544956D01*
X156637976Y-97550065D01*
X156541435Y-97733560D01*
X156541433Y-97733565D01*
X156538746Y-97738672D01*
X156473836Y-97947716D01*
X156448108Y-98165090D01*
X154647025Y-98165090D01*
X154629873Y-97978428D01*
X154623912Y-97957289D01*
X154572025Y-97773314D01*
X154572024Y-97773312D01*
X154570457Y-97767755D01*
X154556115Y-97738672D01*
X154476200Y-97576618D01*
X154476197Y-97576614D01*
X154473645Y-97571438D01*
X154342677Y-97396052D01*
X154181941Y-97247468D01*
X154177058Y-97244387D01*
X154177054Y-97244384D01*
X154001702Y-97133746D01*
X154001703Y-97133746D01*
X153996819Y-97130665D01*
X153793511Y-97049554D01*
X153578827Y-97006850D01*
X153573052Y-97006774D01*
X153573048Y-97006774D01*
X153463302Y-97005338D01*
X153359955Y-97003985D01*
X153354258Y-97004964D01*
X153354257Y-97004964D01*
X153149923Y-97040075D01*
X153144226Y-97041054D01*
X152938865Y-97116816D01*
X152933904Y-97119768D01*
X152933903Y-97119768D01*
X152755717Y-97225777D01*
X152755714Y-97225779D01*
X152750749Y-97228733D01*
X152586178Y-97373058D01*
X152582603Y-97377593D01*
X152582602Y-97377594D01*
X152497685Y-97485311D01*
X152450664Y-97544956D01*
X152447976Y-97550065D01*
X152351435Y-97733560D01*
X152351433Y-97733565D01*
X152348746Y-97738672D01*
X152283836Y-97947716D01*
X152258108Y-98165090D01*
X149560500Y-98165090D01*
X149560500Y-96978185D01*
X169360381Y-96978185D01*
X169367125Y-96990515D01*
X170200988Y-97824378D01*
X170214932Y-97831992D01*
X170216765Y-97831861D01*
X170223380Y-97827610D01*
X171061530Y-96989460D01*
X171068550Y-96976604D01*
X171060776Y-96965934D01*
X171045515Y-96953881D01*
X171036932Y-96948178D01*
X170831410Y-96834725D01*
X170822011Y-96830500D01*
X170600722Y-96752137D01*
X170590752Y-96749503D01*
X170359639Y-96708337D01*
X170349385Y-96707367D01*
X170114642Y-96704498D01*
X170104358Y-96705218D01*
X169872309Y-96740727D01*
X169862281Y-96743116D01*
X169639147Y-96816047D01*
X169629638Y-96820044D01*
X169421412Y-96928440D01*
X169412694Y-96933929D01*
X169368834Y-96966860D01*
X169360381Y-96978185D01*
X149560500Y-96978185D01*
X149560500Y-91815090D01*
X152258108Y-91815090D01*
X152272424Y-92033512D01*
X152273845Y-92039108D01*
X152273846Y-92039113D01*
X152324884Y-92240072D01*
X152326305Y-92245667D01*
X152417945Y-92444451D01*
X152544277Y-92623206D01*
X152701069Y-92775946D01*
X152705865Y-92779151D01*
X152705868Y-92779153D01*
X152779633Y-92828441D01*
X152883069Y-92897555D01*
X152888372Y-92899833D01*
X152888375Y-92899835D01*
X152973180Y-92936270D01*
X153084184Y-92983961D01*
X153162017Y-93001573D01*
X153292040Y-93030994D01*
X153292045Y-93030995D01*
X153297677Y-93032269D01*
X153303448Y-93032496D01*
X153303450Y-93032496D01*
X153368810Y-93035064D01*
X153516399Y-93040863D01*
X153624712Y-93025158D01*
X153727310Y-93010283D01*
X153727315Y-93010282D01*
X153733024Y-93009454D01*
X153738488Y-93007599D01*
X153738493Y-93007598D01*
X153934827Y-92940952D01*
X153934832Y-92940950D01*
X153940299Y-92939094D01*
X154020204Y-92894345D01*
X154126233Y-92834966D01*
X154126237Y-92834963D01*
X154131280Y-92832139D01*
X154299572Y-92692172D01*
X154439539Y-92523880D01*
X154442363Y-92518837D01*
X154442366Y-92518833D01*
X154543670Y-92337942D01*
X154543671Y-92337940D01*
X154546494Y-92332899D01*
X154548350Y-92327432D01*
X154548352Y-92327427D01*
X154614998Y-92131093D01*
X154614999Y-92131088D01*
X154616854Y-92125624D01*
X154617682Y-92119915D01*
X154617683Y-92119910D01*
X154647730Y-91912673D01*
X154648263Y-91908999D01*
X154649902Y-91846400D01*
X154647025Y-91815090D01*
X156448108Y-91815090D01*
X156462424Y-92033512D01*
X156463845Y-92039108D01*
X156463846Y-92039113D01*
X156514884Y-92240072D01*
X156516305Y-92245667D01*
X156607945Y-92444451D01*
X156734277Y-92623206D01*
X156891069Y-92775946D01*
X156895865Y-92779151D01*
X156895868Y-92779153D01*
X156969633Y-92828441D01*
X157073069Y-92897555D01*
X157078372Y-92899833D01*
X157078375Y-92899835D01*
X157163180Y-92936270D01*
X157274184Y-92983961D01*
X157352017Y-93001573D01*
X157482040Y-93030994D01*
X157482045Y-93030995D01*
X157487677Y-93032269D01*
X157493448Y-93032496D01*
X157493450Y-93032496D01*
X157558810Y-93035064D01*
X157706399Y-93040863D01*
X157814712Y-93025158D01*
X157917310Y-93010283D01*
X157917315Y-93010282D01*
X157923024Y-93009454D01*
X157928488Y-93007599D01*
X157928493Y-93007598D01*
X158124827Y-92940952D01*
X158124832Y-92940950D01*
X158130299Y-92939094D01*
X158210204Y-92894345D01*
X158316233Y-92834966D01*
X158316237Y-92834963D01*
X158321280Y-92832139D01*
X158489572Y-92692172D01*
X158629539Y-92523880D01*
X158632363Y-92518837D01*
X158632366Y-92518833D01*
X158733670Y-92337942D01*
X158733671Y-92337940D01*
X158736494Y-92332899D01*
X158738350Y-92327432D01*
X158738352Y-92327427D01*
X158804998Y-92131093D01*
X158804999Y-92131088D01*
X158806854Y-92125624D01*
X158807682Y-92119915D01*
X158807683Y-92119910D01*
X158837730Y-91912673D01*
X158838263Y-91908999D01*
X158839902Y-91846400D01*
X158837025Y-91815090D01*
X160638108Y-91815090D01*
X160652424Y-92033512D01*
X160653845Y-92039108D01*
X160653846Y-92039113D01*
X160704884Y-92240072D01*
X160706305Y-92245667D01*
X160797945Y-92444451D01*
X160924277Y-92623206D01*
X161081069Y-92775946D01*
X161085865Y-92779151D01*
X161085868Y-92779153D01*
X161159633Y-92828441D01*
X161263069Y-92897555D01*
X161268372Y-92899833D01*
X161268375Y-92899835D01*
X161353180Y-92936270D01*
X161464184Y-92983961D01*
X161542017Y-93001573D01*
X161672040Y-93030994D01*
X161672045Y-93030995D01*
X161677677Y-93032269D01*
X161683448Y-93032496D01*
X161683450Y-93032496D01*
X161748810Y-93035064D01*
X161896399Y-93040863D01*
X162004712Y-93025158D01*
X162107310Y-93010283D01*
X162107315Y-93010282D01*
X162113024Y-93009454D01*
X162118488Y-93007599D01*
X162118493Y-93007598D01*
X162314827Y-92940952D01*
X162314832Y-92940950D01*
X162320299Y-92939094D01*
X162400204Y-92894345D01*
X162506233Y-92834966D01*
X162506237Y-92834963D01*
X162511280Y-92832139D01*
X162679572Y-92692172D01*
X162819539Y-92523880D01*
X162822363Y-92518837D01*
X162822366Y-92518833D01*
X162923670Y-92337942D01*
X162923671Y-92337940D01*
X162926494Y-92332899D01*
X162928350Y-92327432D01*
X162928352Y-92327427D01*
X162994998Y-92131093D01*
X162994999Y-92131088D01*
X162996854Y-92125624D01*
X162997682Y-92119915D01*
X162997683Y-92119910D01*
X163027730Y-91912673D01*
X163028263Y-91908999D01*
X163029902Y-91846400D01*
X163027025Y-91815090D01*
X164828108Y-91815090D01*
X164842424Y-92033512D01*
X164843845Y-92039108D01*
X164843846Y-92039113D01*
X164894884Y-92240072D01*
X164896305Y-92245667D01*
X164987945Y-92444451D01*
X165114277Y-92623206D01*
X165271069Y-92775946D01*
X165275865Y-92779151D01*
X165275868Y-92779153D01*
X165349633Y-92828441D01*
X165453069Y-92897555D01*
X165458372Y-92899833D01*
X165458375Y-92899835D01*
X165543180Y-92936270D01*
X165654184Y-92983961D01*
X165732017Y-93001573D01*
X165862040Y-93030994D01*
X165862045Y-93030995D01*
X165867677Y-93032269D01*
X165873448Y-93032496D01*
X165873450Y-93032496D01*
X165938810Y-93035064D01*
X166086399Y-93040863D01*
X166194712Y-93025158D01*
X166297310Y-93010283D01*
X166297315Y-93010282D01*
X166303024Y-93009454D01*
X166308488Y-93007599D01*
X166308493Y-93007598D01*
X166504827Y-92940952D01*
X166504832Y-92940950D01*
X166510299Y-92939094D01*
X166590204Y-92894345D01*
X166696233Y-92834966D01*
X166696237Y-92834963D01*
X166701280Y-92832139D01*
X166869572Y-92692172D01*
X167009539Y-92523880D01*
X167012363Y-92518837D01*
X167012366Y-92518833D01*
X167113670Y-92337942D01*
X167113671Y-92337940D01*
X167116494Y-92332899D01*
X167118350Y-92327432D01*
X167118352Y-92327427D01*
X167184998Y-92131093D01*
X167184999Y-92131088D01*
X167186854Y-92125624D01*
X167187682Y-92119915D01*
X167187683Y-92119910D01*
X167217730Y-91912673D01*
X167218263Y-91908999D01*
X167219902Y-91846400D01*
X167217025Y-91815090D01*
X169018108Y-91815090D01*
X169032424Y-92033512D01*
X169033845Y-92039108D01*
X169033846Y-92039113D01*
X169084884Y-92240072D01*
X169086305Y-92245667D01*
X169177945Y-92444451D01*
X169304277Y-92623206D01*
X169461069Y-92775946D01*
X169465865Y-92779151D01*
X169465868Y-92779153D01*
X169539633Y-92828441D01*
X169643069Y-92897555D01*
X169648372Y-92899833D01*
X169648375Y-92899835D01*
X169733180Y-92936270D01*
X169844184Y-92983961D01*
X169922017Y-93001573D01*
X170052040Y-93030994D01*
X170052045Y-93030995D01*
X170057677Y-93032269D01*
X170063448Y-93032496D01*
X170063450Y-93032496D01*
X170128810Y-93035064D01*
X170276399Y-93040863D01*
X170384712Y-93025158D01*
X170487310Y-93010283D01*
X170487315Y-93010282D01*
X170493024Y-93009454D01*
X170498488Y-93007599D01*
X170498493Y-93007598D01*
X170694827Y-92940952D01*
X170694832Y-92940950D01*
X170700299Y-92939094D01*
X170780204Y-92894345D01*
X170886233Y-92834966D01*
X170886237Y-92834963D01*
X170891280Y-92832139D01*
X171059572Y-92692172D01*
X171199539Y-92523880D01*
X171202363Y-92518837D01*
X171202366Y-92518833D01*
X171303670Y-92337942D01*
X171303671Y-92337940D01*
X171306494Y-92332899D01*
X171308350Y-92327432D01*
X171308352Y-92327427D01*
X171374998Y-92131093D01*
X171374999Y-92131088D01*
X171376854Y-92125624D01*
X171377682Y-92119915D01*
X171377683Y-92119910D01*
X171407730Y-91912673D01*
X171408263Y-91908999D01*
X171409902Y-91846400D01*
X171407025Y-91815090D01*
X173208108Y-91815090D01*
X173222424Y-92033512D01*
X173223845Y-92039108D01*
X173223846Y-92039113D01*
X173274884Y-92240072D01*
X173276305Y-92245667D01*
X173367945Y-92444451D01*
X173494277Y-92623206D01*
X173651069Y-92775946D01*
X173655865Y-92779151D01*
X173655868Y-92779153D01*
X173729633Y-92828441D01*
X173833069Y-92897555D01*
X173838372Y-92899833D01*
X173838375Y-92899835D01*
X173923180Y-92936270D01*
X174034184Y-92983961D01*
X174112017Y-93001573D01*
X174242040Y-93030994D01*
X174242045Y-93030995D01*
X174247677Y-93032269D01*
X174253448Y-93032496D01*
X174253450Y-93032496D01*
X174318810Y-93035064D01*
X174466399Y-93040863D01*
X174574712Y-93025158D01*
X174677310Y-93010283D01*
X174677315Y-93010282D01*
X174683024Y-93009454D01*
X174688488Y-93007599D01*
X174688493Y-93007598D01*
X174884827Y-92940952D01*
X174884832Y-92940950D01*
X174890299Y-92939094D01*
X174970204Y-92894345D01*
X175076233Y-92834966D01*
X175076237Y-92834963D01*
X175081280Y-92832139D01*
X175249572Y-92692172D01*
X175389539Y-92523880D01*
X175392363Y-92518837D01*
X175392366Y-92518833D01*
X175493670Y-92337942D01*
X175493671Y-92337940D01*
X175496494Y-92332899D01*
X175498350Y-92327432D01*
X175498352Y-92327427D01*
X175564998Y-92131093D01*
X175564999Y-92131088D01*
X175566854Y-92125624D01*
X175567682Y-92119915D01*
X175567683Y-92119910D01*
X175597730Y-91912673D01*
X175598263Y-91908999D01*
X175599902Y-91846400D01*
X175579873Y-91628428D01*
X175571212Y-91597716D01*
X175522025Y-91423314D01*
X175522024Y-91423312D01*
X175520457Y-91417755D01*
X175506115Y-91388672D01*
X175426200Y-91226618D01*
X175426197Y-91226614D01*
X175423645Y-91221438D01*
X175292677Y-91046052D01*
X175131941Y-90897468D01*
X175127058Y-90894387D01*
X175127054Y-90894384D01*
X174951702Y-90783746D01*
X174951703Y-90783746D01*
X174946819Y-90780665D01*
X174743511Y-90699554D01*
X174528827Y-90656850D01*
X174523052Y-90656774D01*
X174523048Y-90656774D01*
X174413302Y-90655338D01*
X174309955Y-90653985D01*
X174304258Y-90654964D01*
X174304257Y-90654964D01*
X174099923Y-90690075D01*
X174094226Y-90691054D01*
X173888865Y-90766816D01*
X173883904Y-90769768D01*
X173883903Y-90769768D01*
X173705717Y-90875777D01*
X173705714Y-90875779D01*
X173700749Y-90878733D01*
X173536178Y-91023058D01*
X173400664Y-91194956D01*
X173397976Y-91200065D01*
X173301435Y-91383560D01*
X173301433Y-91383565D01*
X173298746Y-91388672D01*
X173233836Y-91597716D01*
X173208108Y-91815090D01*
X171407025Y-91815090D01*
X171389873Y-91628428D01*
X171381212Y-91597716D01*
X171332025Y-91423314D01*
X171332024Y-91423312D01*
X171330457Y-91417755D01*
X171316115Y-91388672D01*
X171236200Y-91226618D01*
X171236197Y-91226614D01*
X171233645Y-91221438D01*
X171102677Y-91046052D01*
X170941941Y-90897468D01*
X170937058Y-90894387D01*
X170937054Y-90894384D01*
X170761702Y-90783746D01*
X170761703Y-90783746D01*
X170756819Y-90780665D01*
X170553511Y-90699554D01*
X170338827Y-90656850D01*
X170333052Y-90656774D01*
X170333048Y-90656774D01*
X170223302Y-90655338D01*
X170119955Y-90653985D01*
X170114258Y-90654964D01*
X170114257Y-90654964D01*
X169909923Y-90690075D01*
X169904226Y-90691054D01*
X169698865Y-90766816D01*
X169693904Y-90769768D01*
X169693903Y-90769768D01*
X169515717Y-90875777D01*
X169515714Y-90875779D01*
X169510749Y-90878733D01*
X169346178Y-91023058D01*
X169210664Y-91194956D01*
X169207976Y-91200065D01*
X169111435Y-91383560D01*
X169111433Y-91383565D01*
X169108746Y-91388672D01*
X169043836Y-91597716D01*
X169018108Y-91815090D01*
X167217025Y-91815090D01*
X167199873Y-91628428D01*
X167191212Y-91597716D01*
X167142025Y-91423314D01*
X167142024Y-91423312D01*
X167140457Y-91417755D01*
X167126115Y-91388672D01*
X167046200Y-91226618D01*
X167046197Y-91226614D01*
X167043645Y-91221438D01*
X166912677Y-91046052D01*
X166751941Y-90897468D01*
X166747058Y-90894387D01*
X166747054Y-90894384D01*
X166571702Y-90783746D01*
X166571703Y-90783746D01*
X166566819Y-90780665D01*
X166363511Y-90699554D01*
X166148827Y-90656850D01*
X166143052Y-90656774D01*
X166143048Y-90656774D01*
X166033302Y-90655338D01*
X165929955Y-90653985D01*
X165924258Y-90654964D01*
X165924257Y-90654964D01*
X165719923Y-90690075D01*
X165714226Y-90691054D01*
X165508865Y-90766816D01*
X165503904Y-90769768D01*
X165503903Y-90769768D01*
X165325717Y-90875777D01*
X165325714Y-90875779D01*
X165320749Y-90878733D01*
X165156178Y-91023058D01*
X165020664Y-91194956D01*
X165017976Y-91200065D01*
X164921435Y-91383560D01*
X164921433Y-91383565D01*
X164918746Y-91388672D01*
X164853836Y-91597716D01*
X164828108Y-91815090D01*
X163027025Y-91815090D01*
X163009873Y-91628428D01*
X163001212Y-91597716D01*
X162952025Y-91423314D01*
X162952024Y-91423312D01*
X162950457Y-91417755D01*
X162936115Y-91388672D01*
X162856200Y-91226618D01*
X162856197Y-91226614D01*
X162853645Y-91221438D01*
X162722677Y-91046052D01*
X162561941Y-90897468D01*
X162557058Y-90894387D01*
X162557054Y-90894384D01*
X162381702Y-90783746D01*
X162381703Y-90783746D01*
X162376819Y-90780665D01*
X162173511Y-90699554D01*
X161958827Y-90656850D01*
X161953052Y-90656774D01*
X161953048Y-90656774D01*
X161843302Y-90655338D01*
X161739955Y-90653985D01*
X161734258Y-90654964D01*
X161734257Y-90654964D01*
X161529923Y-90690075D01*
X161524226Y-90691054D01*
X161318865Y-90766816D01*
X161313904Y-90769768D01*
X161313903Y-90769768D01*
X161135717Y-90875777D01*
X161135714Y-90875779D01*
X161130749Y-90878733D01*
X160966178Y-91023058D01*
X160830664Y-91194956D01*
X160827976Y-91200065D01*
X160731435Y-91383560D01*
X160731433Y-91383565D01*
X160728746Y-91388672D01*
X160663836Y-91597716D01*
X160638108Y-91815090D01*
X158837025Y-91815090D01*
X158819873Y-91628428D01*
X158811212Y-91597716D01*
X158762025Y-91423314D01*
X158762024Y-91423312D01*
X158760457Y-91417755D01*
X158746115Y-91388672D01*
X158666200Y-91226618D01*
X158666197Y-91226614D01*
X158663645Y-91221438D01*
X158532677Y-91046052D01*
X158371941Y-90897468D01*
X158367058Y-90894387D01*
X158367054Y-90894384D01*
X158191702Y-90783746D01*
X158191703Y-90783746D01*
X158186819Y-90780665D01*
X157983511Y-90699554D01*
X157768827Y-90656850D01*
X157763052Y-90656774D01*
X157763048Y-90656774D01*
X157653302Y-90655338D01*
X157549955Y-90653985D01*
X157544258Y-90654964D01*
X157544257Y-90654964D01*
X157339923Y-90690075D01*
X157334226Y-90691054D01*
X157128865Y-90766816D01*
X157123904Y-90769768D01*
X157123903Y-90769768D01*
X156945717Y-90875777D01*
X156945714Y-90875779D01*
X156940749Y-90878733D01*
X156776178Y-91023058D01*
X156640664Y-91194956D01*
X156637976Y-91200065D01*
X156541435Y-91383560D01*
X156541433Y-91383565D01*
X156538746Y-91388672D01*
X156473836Y-91597716D01*
X156448108Y-91815090D01*
X154647025Y-91815090D01*
X154629873Y-91628428D01*
X154621212Y-91597716D01*
X154572025Y-91423314D01*
X154572024Y-91423312D01*
X154570457Y-91417755D01*
X154556115Y-91388672D01*
X154476200Y-91226618D01*
X154476197Y-91226614D01*
X154473645Y-91221438D01*
X154342677Y-91046052D01*
X154181941Y-90897468D01*
X154177058Y-90894387D01*
X154177054Y-90894384D01*
X154001702Y-90783746D01*
X154001703Y-90783746D01*
X153996819Y-90780665D01*
X153793511Y-90699554D01*
X153578827Y-90656850D01*
X153573052Y-90656774D01*
X153573048Y-90656774D01*
X153463302Y-90655338D01*
X153359955Y-90653985D01*
X153354258Y-90654964D01*
X153354257Y-90654964D01*
X153149923Y-90690075D01*
X153144226Y-90691054D01*
X152938865Y-90766816D01*
X152933904Y-90769768D01*
X152933903Y-90769768D01*
X152755717Y-90875777D01*
X152755714Y-90875779D01*
X152750749Y-90878733D01*
X152586178Y-91023058D01*
X152450664Y-91194956D01*
X152447976Y-91200065D01*
X152351435Y-91383560D01*
X152351433Y-91383565D01*
X152348746Y-91388672D01*
X152283836Y-91597716D01*
X152258108Y-91815090D01*
X149560500Y-91815090D01*
X149560500Y-85496400D01*
X152487776Y-85496400D01*
X152507852Y-85815501D01*
X152567764Y-86129570D01*
X152666567Y-86433654D01*
X152668254Y-86437240D01*
X152668256Y-86437244D01*
X152801014Y-86719370D01*
X152801018Y-86719377D01*
X152802702Y-86722956D01*
X152974023Y-86992915D01*
X153177828Y-87239273D01*
X153410903Y-87458145D01*
X153669572Y-87646079D01*
X153949756Y-87800111D01*
X154247035Y-87917813D01*
X154556723Y-87997327D01*
X154873934Y-88037400D01*
X155193666Y-88037400D01*
X155510877Y-87997327D01*
X155820565Y-87917813D01*
X156117844Y-87800111D01*
X156398028Y-87646079D01*
X156656697Y-87458145D01*
X156889772Y-87239273D01*
X157093577Y-86992915D01*
X157264898Y-86722956D01*
X157266582Y-86719377D01*
X157266586Y-86719370D01*
X157399344Y-86437244D01*
X157399346Y-86437240D01*
X157401033Y-86433654D01*
X157499836Y-86129570D01*
X157559748Y-85815501D01*
X157579824Y-85496400D01*
X170267776Y-85496400D01*
X170287852Y-85815501D01*
X170347764Y-86129570D01*
X170446567Y-86433654D01*
X170448254Y-86437240D01*
X170448256Y-86437244D01*
X170581014Y-86719370D01*
X170581018Y-86719377D01*
X170582702Y-86722956D01*
X170754023Y-86992915D01*
X170957828Y-87239273D01*
X171190903Y-87458145D01*
X171449572Y-87646079D01*
X171729756Y-87800111D01*
X172027035Y-87917813D01*
X172336723Y-87997327D01*
X172653934Y-88037400D01*
X172973666Y-88037400D01*
X173290877Y-87997327D01*
X173600565Y-87917813D01*
X173897844Y-87800111D01*
X174178028Y-87646079D01*
X174436697Y-87458145D01*
X174669772Y-87239273D01*
X174873577Y-86992915D01*
X175044898Y-86722956D01*
X175046582Y-86719377D01*
X175046586Y-86719370D01*
X175179344Y-86437244D01*
X175179346Y-86437240D01*
X175181033Y-86433654D01*
X175279836Y-86129570D01*
X175339748Y-85815501D01*
X175359824Y-85496400D01*
X175339748Y-85177299D01*
X175279836Y-84863230D01*
X175181033Y-84559146D01*
X175179344Y-84555556D01*
X175046586Y-84273430D01*
X175046582Y-84273423D01*
X175044898Y-84269844D01*
X174873577Y-83999885D01*
X174669772Y-83753527D01*
X174436697Y-83534655D01*
X174178028Y-83346721D01*
X174127193Y-83318774D01*
X173901306Y-83194592D01*
X173901303Y-83194591D01*
X173897844Y-83192689D01*
X173600565Y-83074987D01*
X173290877Y-82995473D01*
X172973666Y-82955400D01*
X172653934Y-82955400D01*
X172336723Y-82995473D01*
X172027035Y-83074987D01*
X171729756Y-83192689D01*
X171726297Y-83194591D01*
X171726294Y-83194592D01*
X171500408Y-83318774D01*
X171449572Y-83346721D01*
X171190903Y-83534655D01*
X170957828Y-83753527D01*
X170754023Y-83999885D01*
X170582702Y-84269844D01*
X170581018Y-84273423D01*
X170581014Y-84273430D01*
X170448256Y-84555556D01*
X170446567Y-84559146D01*
X170347764Y-84863230D01*
X170287852Y-85177299D01*
X170267776Y-85496400D01*
X157579824Y-85496400D01*
X157559748Y-85177299D01*
X157499836Y-84863230D01*
X157401033Y-84559146D01*
X157399344Y-84555556D01*
X157266586Y-84273430D01*
X157266582Y-84273423D01*
X157264898Y-84269844D01*
X157093577Y-83999885D01*
X156889772Y-83753527D01*
X156656697Y-83534655D01*
X156398028Y-83346721D01*
X156347193Y-83318774D01*
X156121306Y-83194592D01*
X156121303Y-83194591D01*
X156117844Y-83192689D01*
X155820565Y-83074987D01*
X155510877Y-82995473D01*
X155193666Y-82955400D01*
X154873934Y-82955400D01*
X154556723Y-82995473D01*
X154247035Y-83074987D01*
X153949756Y-83192689D01*
X153946297Y-83194591D01*
X153946294Y-83194592D01*
X153720408Y-83318774D01*
X153669572Y-83346721D01*
X153410903Y-83534655D01*
X153177828Y-83753527D01*
X152974023Y-83999885D01*
X152802702Y-84269844D01*
X152801018Y-84273423D01*
X152801014Y-84273430D01*
X152668256Y-84555556D01*
X152666567Y-84559146D01*
X152567764Y-84863230D01*
X152507852Y-85177299D01*
X152487776Y-85496400D01*
X149560500Y-85496400D01*
X149560500Y-84076379D01*
X149562317Y-84061352D01*
X149562451Y-84053191D01*
X149565833Y-84039413D01*
X149562906Y-84025533D01*
X149563082Y-84014831D01*
X149563602Y-84005283D01*
X149580636Y-83821636D01*
X149583953Y-83802350D01*
X149584397Y-83800600D01*
X149635135Y-83600308D01*
X149641406Y-83581752D01*
X149723281Y-83390087D01*
X149732353Y-83372726D01*
X149842944Y-83196068D01*
X149854596Y-83180324D01*
X149944783Y-83076440D01*
X149991231Y-83022938D01*
X150005181Y-83009192D01*
X150164560Y-82874883D01*
X150180471Y-82863465D01*
X150358744Y-82755479D01*
X150376227Y-82746668D01*
X150569078Y-82667618D01*
X150587725Y-82661620D01*
X150592996Y-82660367D01*
X150790502Y-82613413D01*
X150809844Y-82610380D01*
X150890952Y-82604058D01*
X150994990Y-82595949D01*
X151005002Y-82595568D01*
X151013231Y-82595582D01*
X151027056Y-82598762D01*
X151040894Y-82595631D01*
X151044798Y-82595638D01*
X151064832Y-82593400D01*
X178114810Y-82593400D01*
X178133961Y-82595574D01*
G37*
%TD.AperFunction*%
%TD*%
M02*
