%TF.GenerationSoftware,KiCad,Pcbnew,(6.0.8)*%
%TF.CreationDate,2023-11-13T19:04:35+01:00*%
%TF.ProjectId,BSPD-07,42535044-2d30-4372-9e6b-696361645f70,rev?*%
%TF.SameCoordinates,Original*%
%TF.FileFunction,Copper,L1,Top*%
%TF.FilePolarity,Positive*%
%FSLAX46Y46*%
G04 Gerber Fmt 4.6, Leading zero omitted, Abs format (unit mm)*
G04 Created by KiCad (PCBNEW (6.0.8)) date 2023-11-13 19:04:35*
%MOMM*%
%LPD*%
G01*
G04 APERTURE LIST*
G04 Aperture macros list*
%AMRoundRect*
0 Rectangle with rounded corners*
0 $1 Rounding radius*
0 $2 $3 $4 $5 $6 $7 $8 $9 X,Y pos of 4 corners*
0 Add a 4 corners polygon primitive as box body*
4,1,4,$2,$3,$4,$5,$6,$7,$8,$9,$2,$3,0*
0 Add four circle primitives for the rounded corners*
1,1,$1+$1,$2,$3*
1,1,$1+$1,$4,$5*
1,1,$1+$1,$6,$7*
1,1,$1+$1,$8,$9*
0 Add four rect primitives between the rounded corners*
20,1,$1+$1,$2,$3,$4,$5,0*
20,1,$1+$1,$4,$5,$6,$7,0*
20,1,$1+$1,$6,$7,$8,$9,0*
20,1,$1+$1,$8,$9,$2,$3,0*%
G04 Aperture macros list end*
%TA.AperFunction,SMDPad,CuDef*%
%ADD10RoundRect,0.135000X-0.185000X0.135000X-0.185000X-0.135000X0.185000X-0.135000X0.185000X0.135000X0*%
%TD*%
%TA.AperFunction,SMDPad,CuDef*%
%ADD11RoundRect,0.140000X0.170000X-0.140000X0.170000X0.140000X-0.170000X0.140000X-0.170000X-0.140000X0*%
%TD*%
%TA.AperFunction,SMDPad,CuDef*%
%ADD12C,1.000000*%
%TD*%
%TA.AperFunction,SMDPad,CuDef*%
%ADD13RoundRect,0.135000X0.185000X-0.135000X0.185000X0.135000X-0.185000X0.135000X-0.185000X-0.135000X0*%
%TD*%
%TA.AperFunction,SMDPad,CuDef*%
%ADD14RoundRect,0.250000X0.475000X-0.250000X0.475000X0.250000X-0.475000X0.250000X-0.475000X-0.250000X0*%
%TD*%
%TA.AperFunction,SMDPad,CuDef*%
%ADD15RoundRect,0.147500X-0.172500X0.147500X-0.172500X-0.147500X0.172500X-0.147500X0.172500X0.147500X0*%
%TD*%
%TA.AperFunction,ComponentPad*%
%ADD16C,1.269000*%
%TD*%
%TA.AperFunction,SMDPad,CuDef*%
%ADD17R,1.528000X0.650000*%
%TD*%
%TA.AperFunction,SMDPad,CuDef*%
%ADD18RoundRect,0.140000X0.140000X0.170000X-0.140000X0.170000X-0.140000X-0.170000X0.140000X-0.170000X0*%
%TD*%
%TA.AperFunction,SMDPad,CuDef*%
%ADD19RoundRect,0.250000X-0.250000X-0.475000X0.250000X-0.475000X0.250000X0.475000X-0.250000X0.475000X0*%
%TD*%
%TA.AperFunction,SMDPad,CuDef*%
%ADD20RoundRect,0.160000X0.160000X-0.222500X0.160000X0.222500X-0.160000X0.222500X-0.160000X-0.222500X0*%
%TD*%
%TA.AperFunction,SMDPad,CuDef*%
%ADD21RoundRect,0.135000X0.135000X0.185000X-0.135000X0.185000X-0.135000X-0.185000X0.135000X-0.185000X0*%
%TD*%
%TA.AperFunction,SMDPad,CuDef*%
%ADD22R,0.850000X0.300000*%
%TD*%
%TA.AperFunction,SMDPad,CuDef*%
%ADD23R,1.700000X2.500000*%
%TD*%
%TA.AperFunction,SMDPad,CuDef*%
%ADD24RoundRect,0.140000X-0.170000X0.140000X-0.170000X-0.140000X0.170000X-0.140000X0.170000X0.140000X0*%
%TD*%
%TA.AperFunction,SMDPad,CuDef*%
%ADD25RoundRect,0.250000X-0.475000X0.250000X-0.475000X-0.250000X0.475000X-0.250000X0.475000X0.250000X0*%
%TD*%
%TA.AperFunction,SMDPad,CuDef*%
%ADD26R,0.400000X1.050000*%
%TD*%
%TA.AperFunction,SMDPad,CuDef*%
%ADD27R,0.800000X1.200000*%
%TD*%
%TA.AperFunction,ComponentPad*%
%ADD28R,1.700000X1.700000*%
%TD*%
%TA.AperFunction,ComponentPad*%
%ADD29O,1.700000X1.700000*%
%TD*%
%TA.AperFunction,SMDPad,CuDef*%
%ADD30R,0.600000X1.300000*%
%TD*%
%TA.AperFunction,SMDPad,CuDef*%
%ADD31R,0.500000X1.100000*%
%TD*%
%TA.AperFunction,SMDPad,CuDef*%
%ADD32RoundRect,0.150000X0.150000X-0.587500X0.150000X0.587500X-0.150000X0.587500X-0.150000X-0.587500X0*%
%TD*%
%TA.AperFunction,ComponentPad*%
%ADD33C,4.665000*%
%TD*%
%TA.AperFunction,ComponentPad*%
%ADD34C,1.965000*%
%TD*%
%TA.AperFunction,ViaPad*%
%ADD35C,0.600000*%
%TD*%
%TA.AperFunction,Conductor*%
%ADD36C,0.254000*%
%TD*%
%TA.AperFunction,Conductor*%
%ADD37C,0.300000*%
%TD*%
%TA.AperFunction,Conductor*%
%ADD38C,0.600000*%
%TD*%
%TA.AperFunction,Conductor*%
%ADD39C,0.200000*%
%TD*%
G04 APERTURE END LIST*
D10*
%TO.P,R32,1*%
%TO.N,BRAKE_IN_NF*%
X154787600Y-102461600D03*
%TO.P,R32,2*%
%TO.N,BRAKE_IN*%
X154787600Y-103481600D03*
%TD*%
%TO.P,R31,1*%
%TO.N,TPS_IN_NF*%
X153212800Y-103172800D03*
%TO.P,R31,2*%
%TO.N,TPS_IN*%
X153212800Y-104192800D03*
%TD*%
D11*
%TO.P,C11,1*%
%TO.N,BRAKE_IN*%
X152247600Y-113052800D03*
%TO.P,C11,2*%
%TO.N,GND*%
X152247600Y-112092800D03*
%TD*%
%TO.P,C10,1*%
%TO.N,TPS_IN*%
X152298400Y-106601200D03*
%TO.P,C10,2*%
%TO.N,GND*%
X152298400Y-105641200D03*
%TD*%
D12*
%TO.P,TP2,1,1*%
%TO.N,BRAKE_COMP_OUT*%
X164642800Y-113588800D03*
%TD*%
D10*
%TO.P,R18,1*%
%TO.N,GND*%
X152095200Y-120103900D03*
%TO.P,R18,2*%
%TO.N,Net-(IC6-Pad3)*%
X152095200Y-121123900D03*
%TD*%
D13*
%TO.P,R23,1*%
%TO.N,Net-(D3-Pad2)*%
X176911000Y-127193500D03*
%TO.P,R23,2*%
%TO.N,+5V*%
X176911000Y-126173500D03*
%TD*%
%TO.P,R15,1*%
%TO.N,/10ms VAL*%
X152349200Y-128016000D03*
%TO.P,R15,2*%
%TO.N,GND*%
X152349200Y-126996000D03*
%TD*%
D14*
%TO.P,C5,1*%
%TO.N,+5V*%
X151841200Y-131328200D03*
%TO.P,C5,2*%
%TO.N,/10ms VAL*%
X151841200Y-129428200D03*
%TD*%
D15*
%TO.P,D2,1,A1*%
%TO.N,BRAKE_IN*%
X150977600Y-114627800D03*
%TO.P,D2,2,A2*%
%TO.N,GND*%
X150977600Y-115597800D03*
%TD*%
D13*
%TO.P,R4,1*%
%TO.N,GND*%
X161550800Y-109120400D03*
%TO.P,R4,2*%
%TO.N,Net-(IC1-Pad6)*%
X161550800Y-108100400D03*
%TD*%
D16*
%TO.P,RV1,1,1*%
%TO.N,unconnected-(RV1-Pad1)*%
X170561000Y-113715800D03*
%TO.P,RV1,2,2*%
%TO.N,+5V*%
X173101000Y-113715800D03*
%TO.P,RV1,3,3*%
%TO.N,TPS_TRIG*%
X175641000Y-113715800D03*
%TD*%
D10*
%TO.P,R30,1*%
%TO.N,GND*%
X161544000Y-121664000D03*
%TO.P,R30,2*%
%TO.N,Net-(IC6-Pad5)*%
X161544000Y-122684000D03*
%TD*%
D17*
%TO.P,IC1,1,OUT1*%
%TO.N,TPS_COMP_OUT*%
X154394800Y-105689400D03*
%TO.P,IC1,2,IN1-*%
%TO.N,TPS_IN*%
X154394800Y-106959400D03*
%TO.P,IC1,3,IN1+*%
%TO.N,TPS_TRIG*%
X154394800Y-108229400D03*
%TO.P,IC1,4,GND*%
%TO.N,GND*%
X154394800Y-109499400D03*
%TO.P,IC1,5,IN2+*%
%TO.N,TPS_IN*%
X159816800Y-109499400D03*
%TO.P,IC1,6,IN2-*%
%TO.N,Net-(IC1-Pad6)*%
X159816800Y-108229400D03*
%TO.P,IC1,7,OUT2*%
%TO.N,ERR_FINAL*%
X159816800Y-106959400D03*
%TO.P,IC1,8,V+*%
%TO.N,+5V*%
X159816800Y-105689400D03*
%TD*%
D18*
%TO.P,C4,1*%
%TO.N,GND*%
X154658000Y-130937000D03*
%TO.P,C4,2*%
%TO.N,+5V*%
X153698000Y-130937000D03*
%TD*%
D19*
%TO.P,C3,1*%
%TO.N,Net-(IC3-Pad2)*%
X161991000Y-128270000D03*
%TO.P,C3,2*%
%TO.N,GND*%
X163891000Y-128270000D03*
%TD*%
D13*
%TO.P,R29,1*%
%TO.N,Net-(IC6-Pad5)*%
X162864800Y-122684000D03*
%TO.P,R29,2*%
%TO.N,+5V*%
X162864800Y-121664000D03*
%TD*%
%TO.P,R5,1*%
%TO.N,GND*%
X152203600Y-115584700D03*
%TO.P,R5,2*%
%TO.N,BRAKE_TRIG*%
X152203600Y-114564700D03*
%TD*%
%TO.P,R12,1*%
%TO.N,Net-(IC3-Pad2)*%
X164211000Y-126494000D03*
%TO.P,R12,2*%
%TO.N,ERR_CURRENT*%
X164211000Y-125474000D03*
%TD*%
%TO.P,R7,1*%
%TO.N,Net-(IC1-Pad6)*%
X162868800Y-109120400D03*
%TO.P,R7,2*%
%TO.N,+5V*%
X162868800Y-108100400D03*
%TD*%
%TO.P,R20,1*%
%TO.N,Net-(C8-Pad2)*%
X152806400Y-134751600D03*
%TO.P,R20,2*%
%TO.N,GND*%
X152806400Y-133731600D03*
%TD*%
D20*
%TO.P,D4,1,K*%
%TO.N,INFO_LED*%
X174625000Y-129604500D03*
%TO.P,D4,2,A*%
%TO.N,Net-(D4-Pad2)*%
X174625000Y-128459500D03*
%TD*%
%TO.P,D3,1,K*%
%TO.N,GND*%
X176911000Y-129604500D03*
%TO.P,D3,2,A*%
%TO.N,Net-(D3-Pad2)*%
X176911000Y-128459500D03*
%TD*%
D13*
%TO.P,R11,1*%
%TO.N,/500MS_REF*%
X161598800Y-126492000D03*
%TO.P,R11,2*%
%TO.N,GND*%
X161598800Y-125472000D03*
%TD*%
D21*
%TO.P,R21,1*%
%TO.N,GND*%
X159387000Y-134747000D03*
%TO.P,R21,2*%
%TO.N,Net-(Q2-Pad2)*%
X158367000Y-134747000D03*
%TD*%
D17*
%TO.P,IC2,1,OUT1*%
%TO.N,BRAKE_COMP_OUT*%
X154311800Y-112189800D03*
%TO.P,IC2,2,IN1-*%
%TO.N,BRAKE_IN*%
X154311800Y-113459800D03*
%TO.P,IC2,3,IN1+*%
%TO.N,BRAKE_TRIG*%
X154311800Y-114729800D03*
%TO.P,IC2,4,GND*%
%TO.N,GND*%
X154311800Y-115999800D03*
%TO.P,IC2,5,IN2+*%
%TO.N,BRAKE_IN*%
X159733800Y-115999800D03*
%TO.P,IC2,6,IN2-*%
%TO.N,Net-(IC2-Pad6)*%
X159733800Y-114729800D03*
%TO.P,IC2,7,OUT2*%
%TO.N,ERR_FINAL*%
X159733800Y-113459800D03*
%TO.P,IC2,8,V+*%
%TO.N,+5V*%
X159733800Y-112189800D03*
%TD*%
D22*
%TO.P,IC4,1,GND_1*%
%TO.N,GND*%
X174548200Y-108366600D03*
%TO.P,IC4,2,EN*%
%TO.N,Net-(C6-Pad1)*%
X174548200Y-107416600D03*
%TO.P,IC4,3,VIN*%
X174548200Y-106466600D03*
%TO.P,IC4,4,VOUT*%
%TO.N,+5V*%
X171648200Y-106466600D03*
%TO.P,IC4,5,VSENSE*%
X171648200Y-107416600D03*
%TO.P,IC4,6,ADJ*%
%TO.N,unconnected-(IC4-Pad6)*%
X171648200Y-108366600D03*
D23*
%TO.P,IC4,7,GND_2*%
%TO.N,GND*%
X173098200Y-107416600D03*
%TD*%
D24*
%TO.P,C2,1*%
%TO.N,GND*%
X161544000Y-111252600D03*
%TO.P,C2,2*%
%TO.N,+5V*%
X161544000Y-112212600D03*
%TD*%
D15*
%TO.P,D1,1,A1*%
%TO.N,TPS_IN*%
X150981600Y-108098000D03*
%TO.P,D1,2,A2*%
%TO.N,GND*%
X150981600Y-109068000D03*
%TD*%
D25*
%TO.P,C6,1*%
%TO.N,Net-(C6-Pad1)*%
X177035200Y-106466600D03*
%TO.P,C6,2*%
%TO.N,GND*%
X177035200Y-108366600D03*
%TD*%
D13*
%TO.P,R9,1*%
%TO.N,TPS_COMP_OUT*%
X162820800Y-105818400D03*
%TO.P,R9,2*%
%TO.N,+5V*%
X162820800Y-104798400D03*
%TD*%
D26*
%TO.P,IC5,1,B*%
%TO.N,TPS_COMP_OUT*%
X165804800Y-116042400D03*
%TO.P,IC5,2,A*%
%TO.N,BRAKE_COMP_OUT*%
X165154800Y-116042400D03*
%TO.P,IC5,3,GND*%
%TO.N,GND*%
X164504800Y-116042400D03*
%TO.P,IC5,4,Y*%
%TO.N,ERR_CURRENT*%
X164504800Y-117942400D03*
%TO.P,IC5,5,VCC*%
%TO.N,+5V*%
X165804800Y-117942400D03*
%TD*%
D17*
%TO.P,IC6,1,OUT1*%
%TO.N,ERR_FINAL*%
X154286400Y-118795800D03*
%TO.P,IC6,2,IN1-*%
%TO.N,BRAKE_IN*%
X154286400Y-120065800D03*
%TO.P,IC6,3,IN1+*%
%TO.N,Net-(IC6-Pad3)*%
X154286400Y-121335800D03*
%TO.P,IC6,4,GND*%
%TO.N,GND*%
X154286400Y-122605800D03*
%TO.P,IC6,5,IN2+*%
%TO.N,Net-(IC6-Pad5)*%
X159708400Y-122605800D03*
%TO.P,IC6,6,IN2-*%
%TO.N,TPS_IN*%
X159708400Y-121335800D03*
%TO.P,IC6,7,OUT2*%
%TO.N,ERR_FINAL*%
X159708400Y-120065800D03*
%TO.P,IC6,8,V+*%
%TO.N,+5V*%
X159708400Y-118795800D03*
%TD*%
%TO.P,IC3,1,OUT1*%
%TO.N,Net-(IC3-Pad1)*%
X159708400Y-129157000D03*
%TO.P,IC3,2,IN1-*%
%TO.N,Net-(IC3-Pad2)*%
X159708400Y-127887000D03*
%TO.P,IC3,3,IN1+*%
%TO.N,/500MS_REF*%
X159708400Y-126617000D03*
%TO.P,IC3,4,GND*%
%TO.N,GND*%
X159708400Y-125347000D03*
%TO.P,IC3,5,IN2+*%
%TO.N,/10s REF*%
X154286400Y-125347000D03*
%TO.P,IC3,6,IN2-*%
%TO.N,/10ms VAL*%
X154286400Y-126617000D03*
%TO.P,IC3,7,OUT2*%
%TO.N,ERR_FINAL*%
X154286400Y-127887000D03*
%TO.P,IC3,8,V+*%
%TO.N,+5V*%
X154286400Y-129157000D03*
%TD*%
D12*
%TO.P,TP1,1,1*%
%TO.N,TPS_COMP_OUT*%
X164515800Y-108356400D03*
%TD*%
D27*
%TO.P,U2,1*%
%TO.N,Net-(R22-Pad1)*%
X170180000Y-132944000D03*
%TO.P,U2,3*%
%TO.N,INFO_LED*%
X172720000Y-132944000D03*
%TO.P,U2,4*%
%TO.N,SAFETY_OUT*%
X172720000Y-126644000D03*
%TO.P,U2,6*%
%TO.N,SAFETY_IN*%
X170180000Y-126644000D03*
%TD*%
D13*
%TO.P,R26,1*%
%TO.N,/10s REF*%
X152349200Y-125434000D03*
%TO.P,R26,2*%
%TO.N,GND*%
X152349200Y-124414000D03*
%TD*%
%TO.P,R10,1*%
%TO.N,BRAKE_COMP_OUT*%
X162890200Y-112217200D03*
%TO.P,R10,2*%
%TO.N,+5V*%
X162890200Y-111197200D03*
%TD*%
%TO.P,R27,1*%
%TO.N,Net-(IC6-Pad3)*%
X150977600Y-121109200D03*
%TO.P,R27,2*%
%TO.N,+5V*%
X150977600Y-120089200D03*
%TD*%
D16*
%TO.P,RV2,1,1*%
%TO.N,unconnected-(RV2-Pad1)*%
X170561000Y-121500500D03*
%TO.P,RV2,2,2*%
%TO.N,+5V*%
X173101000Y-121500500D03*
%TO.P,RV2,3,3*%
%TO.N,BRAKE_TRIG*%
X175641000Y-121500500D03*
%TD*%
D10*
%TO.P,R16,1*%
%TO.N,Net-(IC3-Pad1)*%
X159766000Y-130808000D03*
%TO.P,R16,2*%
%TO.N,Net-(Q1-Pad3)*%
X159766000Y-131828000D03*
%TD*%
D12*
%TO.P,TP3,1,1*%
%TO.N,ERR_FINAL*%
X165989000Y-125349000D03*
%TD*%
D21*
%TO.P,R14,1*%
%TO.N,Net-(Q1-Pad1)*%
X159387000Y-133350000D03*
%TO.P,R14,2*%
%TO.N,/10ms VAL*%
X158367000Y-133350000D03*
%TD*%
D13*
%TO.P,R8,1*%
%TO.N,Net-(IC2-Pad6)*%
X162864800Y-115620800D03*
%TO.P,R8,2*%
%TO.N,+5V*%
X162864800Y-114600800D03*
%TD*%
D25*
%TO.P,C7,1*%
%TO.N,+5V*%
X168097200Y-106608800D03*
%TO.P,C7,2*%
%TO.N,GND*%
X168097200Y-108508800D03*
%TD*%
D10*
%TO.P,R28,1*%
%TO.N,ERR_FINAL*%
X167259000Y-128776000D03*
%TO.P,R28,2*%
%TO.N,Net-(Q3-Pad1)*%
X167259000Y-129796000D03*
%TD*%
%TO.P,R2,1*%
%TO.N,GND*%
X150977600Y-112062800D03*
%TO.P,R2,2*%
%TO.N,BRAKE_IN*%
X150977600Y-113082800D03*
%TD*%
D13*
%TO.P,R19,1*%
%TO.N,ERR_FINAL*%
X165989000Y-129796000D03*
%TO.P,R19,2*%
%TO.N,+5V*%
X165989000Y-128776000D03*
%TD*%
%TO.P,R3,1*%
%TO.N,GND*%
X152200800Y-109118400D03*
%TO.P,R3,2*%
%TO.N,TPS_TRIG*%
X152200800Y-108098400D03*
%TD*%
%TO.P,R22,1*%
%TO.N,Net-(R22-Pad1)*%
X168529000Y-129796000D03*
%TO.P,R22,2*%
%TO.N,+5V*%
X168529000Y-128776000D03*
%TD*%
D28*
%TO.P,JP1,1,A*%
%TO.N,SAFETY_IN*%
X175382000Y-132842000D03*
D29*
%TO.P,JP1,2,B*%
%TO.N,SAFETY_OUT*%
X177922000Y-132842000D03*
%TD*%
D10*
%TO.P,R25,1*%
%TO.N,+5V*%
X151079200Y-124414000D03*
%TO.P,R25,2*%
%TO.N,/10s REF*%
X151079200Y-125434000D03*
%TD*%
%TO.P,R1,1*%
%TO.N,GND*%
X151028400Y-105611200D03*
%TO.P,R1,2*%
%TO.N,TPS_IN*%
X151028400Y-106631200D03*
%TD*%
D12*
%TO.P,TP4,1,1*%
%TO.N,ERR_CURRENT*%
X164719000Y-122428000D03*
%TD*%
D13*
%TO.P,R24,1*%
%TO.N,Net-(D4-Pad2)*%
X175133000Y-127129000D03*
%TO.P,R24,2*%
%TO.N,+5V*%
X175133000Y-126109000D03*
%TD*%
%TO.P,R6,1*%
%TO.N,GND*%
X161594800Y-115620800D03*
%TO.P,R6,2*%
%TO.N,Net-(IC2-Pad6)*%
X161594800Y-114600800D03*
%TD*%
D24*
%TO.P,C1,1*%
%TO.N,GND*%
X161550800Y-104828400D03*
%TO.P,C1,2*%
%TO.N,+5V*%
X161550800Y-105788400D03*
%TD*%
D30*
%TO.P,Q1,1,DRAIN_1*%
%TO.N,Net-(Q1-Pad1)*%
X163764000Y-131134000D03*
%TO.P,Q1,2,DRAIN_2*%
X162814000Y-131134000D03*
%TO.P,Q1,3,GATE*%
%TO.N,Net-(Q1-Pad3)*%
X161864000Y-131134000D03*
%TO.P,Q1,4,SOURCE*%
%TO.N,+5V*%
X161864000Y-133534000D03*
%TO.P,Q1,5,DRAIN_3*%
%TO.N,Net-(Q1-Pad1)*%
X162814000Y-133534000D03*
%TO.P,Q1,6,DRAIN_4*%
X163764000Y-133534000D03*
%TD*%
D31*
%TO.P,Q3,1*%
%TO.N,Net-(Q3-Pad1)*%
X167274000Y-131815000D03*
%TO.P,Q3,2*%
%TO.N,GND*%
X165974000Y-131815000D03*
%TO.P,Q3,3*%
%TO.N,INFO_LED*%
X166624000Y-133615000D03*
%TD*%
D32*
%TO.P,Q4,1,G*%
%TO.N,GND*%
X175120000Y-103832900D03*
%TO.P,Q4,2,S*%
%TO.N,Net-(C6-Pad1)*%
X177020000Y-103832900D03*
%TO.P,Q4,3,D*%
%TO.N,+12V*%
X176070000Y-101957900D03*
%TD*%
D13*
%TO.P,R13,1*%
%TO.N,/500MS_REF*%
X162868800Y-126492000D03*
%TO.P,R13,2*%
%TO.N,+5V*%
X162868800Y-125472000D03*
%TD*%
D24*
%TO.P,C8,1*%
%TO.N,+5V*%
X154127200Y-133761600D03*
%TO.P,C8,2*%
%TO.N,Net-(C8-Pad2)*%
X154127200Y-134721600D03*
%TD*%
D10*
%TO.P,R17,1*%
%TO.N,Net-(IC3-Pad1)*%
X158369000Y-130801200D03*
%TO.P,R17,2*%
%TO.N,+5V*%
X158369000Y-131821200D03*
%TD*%
D31*
%TO.P,Q2,1*%
%TO.N,Net-(C8-Pad2)*%
X155610800Y-134416800D03*
%TO.P,Q2,2*%
%TO.N,Net-(Q2-Pad2)*%
X156910800Y-134416800D03*
%TO.P,Q2,3*%
%TO.N,/10ms VAL*%
X156260800Y-132616800D03*
%TD*%
D24*
%TO.P,C9,1*%
%TO.N,GND*%
X161544000Y-118011000D03*
%TO.P,C9,2*%
%TO.N,+5V*%
X161544000Y-118971000D03*
%TD*%
D33*
%TO.P,J1,MH2,MH2*%
%TO.N,unconnected-(J1-PadMH2)*%
X155033800Y-85496400D03*
%TO.P,J1,MH1,MH1*%
%TO.N,unconnected-(J1-PadMH1)*%
X172813800Y-85496400D03*
D34*
%TO.P,J1,12,12*%
%TO.N,TPS_TRIG*%
X174403800Y-91846400D03*
%TO.P,J1,11,11*%
%TO.N,BRAKE_TRIG*%
X170213800Y-91846400D03*
%TO.P,J1,10,10*%
%TO.N,SAFETY_IN*%
X166023800Y-91846400D03*
%TO.P,J1,9,9*%
%TO.N,unconnected-(J1-Pad9)*%
X161833800Y-91846400D03*
%TO.P,J1,8,8*%
%TO.N,unconnected-(J1-Pad8)*%
X157643800Y-91846400D03*
%TO.P,J1,7,7*%
%TO.N,BRAKE_IN_NF*%
X153453800Y-91846400D03*
%TO.P,J1,6,6*%
%TO.N,TPS_IN_NF*%
X153453800Y-98196400D03*
%TO.P,J1,5,5*%
%TO.N,+5V*%
X157643800Y-98196400D03*
%TO.P,J1,4,4*%
%TO.N,unconnected-(J1-Pad4)*%
X161833800Y-98196400D03*
%TO.P,J1,3,3*%
%TO.N,SAFETY_OUT*%
X166023800Y-98196400D03*
%TO.P,J1,2,2*%
%TO.N,GND*%
X170213800Y-98196400D03*
%TO.P,J1,1,1*%
%TO.N,+12V*%
X174403800Y-98196400D03*
%TD*%
D35*
%TO.N,GND*%
X152247600Y-111455200D03*
%TO.N,BRAKE_IN*%
X153031446Y-111297749D03*
X154787600Y-104190800D03*
%TO.N,GND*%
X150977600Y-111455200D03*
X151003000Y-104800400D03*
%TO.N,TPS_COMP_OUT*%
X161080302Y-106654600D03*
X158546800Y-106603800D03*
%TO.N,TPS_IN*%
X156527500Y-107759500D03*
X158496000Y-121158000D03*
%TO.N,GND*%
X154022800Y-110388400D03*
X153286200Y-110388400D03*
X160499800Y-124138000D03*
X165989000Y-130810000D03*
X171675800Y-103784400D03*
X153212800Y-124358400D03*
X161010600Y-115620800D03*
X159229800Y-124138000D03*
X159410400Y-135382000D03*
X153307600Y-123444000D03*
X161036000Y-121767600D03*
X173580800Y-104673400D03*
X159864800Y-124138000D03*
X164846000Y-127762000D03*
X153307600Y-117015800D03*
X161544000Y-117322600D03*
X166878000Y-108585000D03*
X152654000Y-120142000D03*
X169643800Y-103784400D03*
X154018800Y-123444000D03*
X154784800Y-110388400D03*
X172691800Y-103784400D03*
X152298400Y-104800400D03*
X172691800Y-104673400D03*
X173580800Y-103784400D03*
X164465000Y-115062000D03*
X154780800Y-117015800D03*
X154018800Y-117015800D03*
X160977207Y-108858314D03*
X176911000Y-130556000D03*
X161592000Y-104114600D03*
X170659800Y-104673400D03*
X161511800Y-110538800D03*
X151765000Y-126619000D03*
X154780800Y-123444000D03*
X171675800Y-104673400D03*
X170659800Y-103784400D03*
X152806400Y-133146800D03*
X154635200Y-131673600D03*
%TO.N,+5V*%
X163626800Y-121716800D03*
X158369000Y-132461000D03*
X159639000Y-104825800D03*
X150241000Y-124409200D03*
X165862000Y-118999000D03*
X169672000Y-106553000D03*
X159000000Y-111275400D03*
X170434000Y-107289600D03*
X162864800Y-107442000D03*
X151765000Y-132334000D03*
X160274000Y-104825800D03*
X160377737Y-117968230D03*
X170434000Y-106553000D03*
X159107737Y-117968230D03*
X176911000Y-125349000D03*
X159635000Y-111275400D03*
X154914600Y-130048000D03*
X159742737Y-117968230D03*
X153979385Y-133117949D03*
X163322000Y-124841000D03*
X161036000Y-133553200D03*
X163525200Y-114630200D03*
X160270000Y-111275400D03*
X150215600Y-120142000D03*
X168021000Y-128143000D03*
X175133000Y-125349000D03*
X170434000Y-108077000D03*
X166370000Y-128143000D03*
X153670000Y-130048000D03*
X154305000Y-130048000D03*
X169672000Y-107289600D03*
X159004000Y-104825800D03*
X169672000Y-108077000D03*
X162941000Y-110617000D03*
%TO.N,BRAKE_COMP_OUT*%
X158267400Y-113004600D03*
X161055263Y-112941170D03*
%TO.N,BRAKE_IN*%
X155829000Y-119888000D03*
X156387901Y-114104367D03*
%TO.N,SAFETY_IN*%
X166624000Y-102616000D03*
X166370000Y-109736500D03*
X170561000Y-128016000D03*
%TO.N,SAFETY_OUT*%
X170688000Y-124460000D03*
X172974000Y-127762000D03*
X166886500Y-120015000D03*
X165608000Y-102108000D03*
X165624500Y-107315000D03*
%TO.N,TPS_TRIG*%
X163703000Y-110109000D03*
%TO.N,BRAKE_TRIG*%
X169545000Y-117856000D03*
X169545000Y-109728000D03*
X163322000Y-117856000D03*
X167894000Y-102489000D03*
%TO.N,ERR_FINAL*%
X155829000Y-128143000D03*
X162229800Y-114018484D03*
X162114764Y-121025237D03*
X165345500Y-124333000D03*
X164846000Y-129667000D03*
X160909000Y-107473900D03*
%TD*%
D36*
%TO.N,BRAKE_IN*%
X153031446Y-111297749D02*
X153031446Y-112279392D01*
X153031446Y-112279392D02*
X152207238Y-113103600D01*
%TO.N,GND*%
X151003000Y-104800400D02*
X151003000Y-105692000D01*
X152247600Y-112092800D02*
X152247600Y-111455200D01*
%TO.N,BRAKE_IN_NF*%
X154787600Y-102461600D02*
X154787600Y-94996000D01*
X154787600Y-94996000D02*
X154152600Y-94361000D01*
X153453800Y-93662200D02*
X154152600Y-94361000D01*
%TO.N,BRAKE_IN*%
X154787600Y-104190800D02*
X154787600Y-103481600D01*
%TO.N,BRAKE_IN_NF*%
X153453800Y-91846400D02*
X153453800Y-93662200D01*
%TO.N,GND*%
X150977600Y-112062800D02*
X150977600Y-111455200D01*
%TO.N,BRAKE_IN*%
X150933600Y-114566700D02*
X150933600Y-113126800D01*
X152718300Y-113459800D02*
X154311800Y-113459800D01*
X152328600Y-113074100D02*
X152330600Y-113072100D01*
X152330600Y-113072100D02*
X152718300Y-113459800D01*
X150986300Y-113074100D02*
X152328600Y-113074100D01*
%TO.N,TPS_IN_NF*%
X153212800Y-98437400D02*
X153453800Y-98196400D01*
X153212800Y-103170800D02*
X153212800Y-98437400D01*
%TO.N,TPS_IN*%
X153212800Y-105793000D02*
X153035000Y-105970800D01*
X153212800Y-104190800D02*
X153212800Y-105793000D01*
X151003000Y-106652000D02*
X151056400Y-106705400D01*
X151056400Y-106705400D02*
X152196800Y-106705400D01*
X150981600Y-106673400D02*
X151003000Y-106652000D01*
X150981600Y-108098000D02*
X150981600Y-106673400D01*
%TO.N,GND*%
X152298400Y-104927400D02*
X152298400Y-105664800D01*
X152273000Y-104902000D02*
X152298400Y-104927400D01*
%TO.N,TPS_COMP_OUT*%
X161080302Y-106654600D02*
X161984600Y-106654600D01*
X164515800Y-107188000D02*
X164515800Y-108356400D01*
X162820800Y-105818400D02*
X163146200Y-105818400D01*
X164515800Y-111836200D02*
X165804800Y-113125200D01*
X163146200Y-105818400D02*
X164515800Y-107188000D01*
X154394800Y-105689400D02*
X157632400Y-105689400D01*
X164515800Y-108356400D02*
X164515800Y-111836200D01*
X165804800Y-113125200D02*
X165804800Y-116042400D01*
X161984600Y-106654600D02*
X162820800Y-105818400D01*
X157632400Y-105689400D02*
X158546800Y-106603800D01*
%TO.N,TPS_IN*%
X152616900Y-106388900D02*
X152743900Y-106261900D01*
X152870900Y-106769900D02*
X153060400Y-106959400D01*
X155727400Y-106959400D02*
X156527500Y-107759500D01*
X152870900Y-106134900D02*
X152870900Y-106769900D01*
X152298400Y-106707400D02*
X152616900Y-106388900D01*
X158673800Y-121335800D02*
X158496000Y-121158000D01*
X152743900Y-106261900D02*
X152755600Y-106273600D01*
X152870900Y-106134900D02*
X153035000Y-105970800D01*
X152298400Y-106707400D02*
X152550400Y-106959400D01*
X158267400Y-109499400D02*
X159816800Y-109499400D01*
X152755600Y-106959400D02*
X153060400Y-106959400D01*
X156527500Y-107759500D02*
X158267400Y-109499400D01*
X152550400Y-106959400D02*
X152755600Y-106959400D01*
X153060400Y-106959400D02*
X154394800Y-106959400D01*
X152755600Y-106273600D02*
X152755600Y-106959400D01*
%TO.N,TPS_IN_NF*%
X153035000Y-98615200D02*
X153453800Y-98196400D01*
%TO.N,TPS_IN*%
X154394800Y-106959400D02*
X155727400Y-106959400D01*
X152616900Y-106388900D02*
X152550400Y-106455400D01*
X153035000Y-105970800D02*
X153035000Y-106934000D01*
X152743900Y-106261900D02*
X152870900Y-106134900D01*
X153035000Y-106934000D02*
X153060400Y-106959400D01*
X159708400Y-121335800D02*
X158673800Y-121335800D01*
X152550400Y-106455400D02*
X152550400Y-106959400D01*
%TO.N,GND*%
X174548200Y-108366600D02*
X174048200Y-108366600D01*
X161036000Y-121767600D02*
X161139600Y-121664000D01*
X164338000Y-128270000D02*
X164846000Y-127762000D01*
X165974000Y-130825000D02*
X165989000Y-130810000D01*
X161511800Y-110538800D02*
X161511800Y-111220400D01*
D37*
X152271000Y-126998000D02*
X151892000Y-126619000D01*
D36*
X152654000Y-120142000D02*
X152615900Y-120103900D01*
X161010600Y-115620800D02*
X161594800Y-115620800D01*
X161511800Y-111220400D02*
X161544000Y-111252600D01*
X152404800Y-124358400D02*
X152349200Y-124414000D01*
X161139600Y-121664000D02*
X161544000Y-121664000D01*
X164504800Y-115101800D02*
X164465000Y-115062000D01*
X165974000Y-131815000D02*
X165974000Y-130825000D01*
X161544000Y-117322600D02*
X161544000Y-118011000D01*
X160977207Y-108858314D02*
X161239293Y-109120400D01*
X152615900Y-120103900D02*
X152095200Y-120103900D01*
X176911000Y-129604500D02*
X176911000Y-130556000D01*
X161239293Y-109120400D02*
X161550800Y-109120400D01*
X154658000Y-131650800D02*
X154658000Y-130937000D01*
D37*
X152806400Y-133731600D02*
X152806400Y-133146800D01*
D36*
X161515800Y-104770800D02*
X161548000Y-104803000D01*
X153212800Y-124358400D02*
X152404800Y-124358400D01*
X164504800Y-116042400D02*
X164504800Y-115101800D01*
X163891000Y-128270000D02*
X164338000Y-128270000D01*
X166954200Y-108508800D02*
X168097200Y-108508800D01*
X159410400Y-134770400D02*
X159387000Y-134747000D01*
D37*
X151892000Y-126619000D02*
X151765000Y-126619000D01*
X152400000Y-126998000D02*
X152271000Y-126998000D01*
D36*
X154635200Y-131673600D02*
X154658000Y-131650800D01*
X166878000Y-108585000D02*
X166954200Y-108508800D01*
X159410400Y-135382000D02*
X159410400Y-134770400D01*
X174048200Y-108366600D02*
X173098200Y-107416600D01*
X161515800Y-104089200D02*
X161515800Y-104770800D01*
%TO.N,Net-(IC1-Pad6)*%
X159945800Y-108100400D02*
X159816800Y-108229400D01*
X162570800Y-109120400D02*
X161550800Y-108100400D01*
X162868800Y-109120400D02*
X162570800Y-109120400D01*
X161550800Y-108100400D02*
X159945800Y-108100400D01*
%TO.N,+5V*%
X161521200Y-112189800D02*
X161544000Y-112212600D01*
X168021000Y-128268000D02*
X168529000Y-128776000D01*
X161055200Y-133534000D02*
X161864000Y-133534000D01*
X168021000Y-128143000D02*
X168021000Y-128268000D01*
X150255700Y-120101900D02*
X150825200Y-120101900D01*
X162868800Y-108100400D02*
X162868800Y-107446000D01*
X159816800Y-105689400D02*
X161451800Y-105689400D01*
X157643800Y-99604800D02*
X160655000Y-102616000D01*
X151841200Y-132257800D02*
X151841200Y-131328200D01*
X159733800Y-112189800D02*
X161521200Y-112189800D01*
D37*
X154127200Y-133265764D02*
X154127200Y-133761600D01*
D36*
X168097200Y-106121200D02*
X168097200Y-106608800D01*
D37*
X153979385Y-133117949D02*
X154127200Y-133265764D01*
D36*
X162941000Y-111146400D02*
X162890200Y-111197200D01*
D37*
X161830800Y-105788400D02*
X162820800Y-104798400D01*
D36*
X151765000Y-132334000D02*
X151841200Y-132257800D01*
X162868800Y-125294200D02*
X163322000Y-124841000D01*
X165804800Y-118941800D02*
X165862000Y-118999000D01*
X165989000Y-128524000D02*
X166370000Y-128143000D01*
X165804800Y-117942400D02*
X165804800Y-118941800D01*
X161451800Y-105689400D02*
X161550800Y-105788400D01*
X150245800Y-124414000D02*
X151079200Y-124414000D01*
X176911000Y-125349000D02*
X176911000Y-126173500D01*
X161036000Y-133553200D02*
X161055200Y-133534000D01*
X165989000Y-128776000D02*
X165989000Y-128524000D01*
X157643800Y-98196400D02*
X157643800Y-99604800D01*
X162868800Y-107446000D02*
X162864800Y-107442000D01*
X175133000Y-126109000D02*
X175133000Y-125349000D01*
X150241000Y-124409200D02*
X150245800Y-124414000D01*
X159841537Y-118882630D02*
X161628937Y-118882630D01*
X150215600Y-120142000D02*
X150255700Y-120101900D01*
X158369000Y-132461000D02*
X158369000Y-131821200D01*
X162941000Y-110617000D02*
X162941000Y-111146400D01*
X162864800Y-121664000D02*
X163574000Y-121664000D01*
D37*
X161550800Y-105788400D02*
X161830800Y-105788400D01*
D36*
X160655000Y-102616000D02*
X164592000Y-102616000D01*
X161525200Y-105740200D02*
X161548000Y-105763000D01*
X162868800Y-125472000D02*
X162868800Y-125294200D01*
X163574000Y-121664000D02*
X163626800Y-121716800D01*
X163525200Y-114630200D02*
X163495800Y-114600800D01*
X163495800Y-114600800D02*
X162864800Y-114600800D01*
X164592000Y-102616000D02*
X168097200Y-106121200D01*
%TO.N,BRAKE_COMP_OUT*%
X164642800Y-113588800D02*
X165154800Y-114100800D01*
X162890200Y-112217200D02*
X163271200Y-112217200D01*
X154311800Y-112189800D02*
X157452600Y-112189800D01*
X157452600Y-112189800D02*
X158267400Y-113004600D01*
X165154800Y-114100800D02*
X165154800Y-116042400D01*
X161055263Y-112941170D02*
X162166230Y-112941170D01*
X162166230Y-112941170D02*
X162890200Y-112217200D01*
X163271200Y-112217200D02*
X164642800Y-113588800D01*
%TO.N,BRAKE_IN*%
X154311800Y-113459800D02*
X154337200Y-113434400D01*
X155651200Y-120065800D02*
X154286400Y-120065800D01*
X158263400Y-115999800D02*
X159733800Y-115999800D01*
X154337200Y-113434400D02*
X155698000Y-113434400D01*
X155698000Y-113434400D02*
X158263400Y-115999800D01*
X155829000Y-119888000D02*
X155651200Y-120065800D01*
D38*
%TO.N,+12V*%
X176070000Y-101957900D02*
X176070000Y-99862600D01*
X176070000Y-99862600D02*
X174403800Y-98196400D01*
D36*
%TO.N,SAFETY_IN*%
X166370000Y-109736500D02*
X166370000Y-111506000D01*
X167333300Y-101906700D02*
X167333300Y-93155900D01*
X170180000Y-125603000D02*
X170180000Y-126644000D01*
X166370000Y-111506000D02*
X167513000Y-112649000D01*
X167333300Y-93155900D02*
X166023800Y-91846400D01*
X170561000Y-128016000D02*
X170180000Y-127635000D01*
X167513000Y-122936000D02*
X170180000Y-125603000D01*
X167513000Y-112649000D02*
X167513000Y-122936000D01*
X170180000Y-127635000D02*
X170180000Y-126644000D01*
X166624000Y-102616000D02*
X167333300Y-101906700D01*
%TO.N,SAFETY_OUT*%
X165743000Y-111895000D02*
X165743000Y-107433500D01*
X166886500Y-120015000D02*
X166886500Y-113038500D01*
X170688000Y-124612000D02*
X172720000Y-126644000D01*
X165870000Y-101846000D02*
X165870000Y-98350200D01*
X170688000Y-124460000D02*
X170688000Y-124612000D01*
X166886500Y-113038500D02*
X165743000Y-111895000D01*
X165743000Y-107433500D02*
X165624500Y-107315000D01*
X165870000Y-98350200D02*
X166023800Y-98196400D01*
X172974000Y-127762000D02*
X172974000Y-126898000D01*
X172974000Y-126898000D02*
X172720000Y-126644000D01*
X165608000Y-102108000D02*
X165870000Y-101846000D01*
%TO.N,Net-(IC3-Pad2)*%
X159837400Y-128016000D02*
X161737000Y-128016000D01*
X159708400Y-127887000D02*
X159837400Y-128016000D01*
X163134000Y-127127000D02*
X163830000Y-127127000D01*
X164211000Y-126746000D02*
X164211000Y-126494000D01*
X161737000Y-128016000D02*
X161991000Y-128270000D01*
X163830000Y-127127000D02*
X164211000Y-126746000D01*
X161991000Y-128270000D02*
X163134000Y-127127000D01*
D39*
%TO.N,Net-(C8-Pad2)*%
X155306000Y-134721600D02*
X155610800Y-134416800D01*
X154097200Y-134751600D02*
X154127200Y-134721600D01*
X154127200Y-134721600D02*
X155306000Y-134721600D01*
X152806400Y-134751600D02*
X154097200Y-134751600D01*
D36*
%TO.N,ERR_CURRENT*%
X164719000Y-119380000D02*
X164504800Y-119165800D01*
X164211000Y-125474000D02*
X164719000Y-124966000D01*
X164504800Y-119165800D02*
X164504800Y-117942400D01*
X164719000Y-124966000D02*
X164719000Y-122428000D01*
X164719000Y-122428000D02*
X164719000Y-119380000D01*
%TO.N,TPS_TRIG*%
X174403800Y-91846400D02*
X174403800Y-95028800D01*
X152200800Y-108098400D02*
X154263800Y-108098400D01*
X163449000Y-109855000D02*
X161163000Y-109855000D01*
X163703000Y-110109000D02*
X163449000Y-109855000D01*
X178308000Y-111173000D02*
X175765200Y-113715800D01*
X154833800Y-108229400D02*
X154394800Y-108229400D01*
X174403800Y-95028800D02*
X178308000Y-98933000D01*
X178308000Y-98933000D02*
X178308000Y-111173000D01*
X156755800Y-110151400D02*
X154833800Y-108229400D01*
X160866600Y-110151400D02*
X156755800Y-110151400D01*
X161163000Y-109855000D02*
X160866600Y-110151400D01*
X154263800Y-108098400D02*
X154394800Y-108229400D01*
%TO.N,BRAKE_TRIG*%
X158273348Y-116651800D02*
X161990800Y-116651800D01*
X152203600Y-114564700D02*
X154146700Y-114564700D01*
X163195000Y-117856000D02*
X163322000Y-117856000D01*
X161990800Y-116651800D02*
X163195000Y-117856000D01*
X170213800Y-91846400D02*
X167894000Y-94166200D01*
X167894000Y-94166200D02*
X167894000Y-102489000D01*
X154146700Y-114564700D02*
X154311800Y-114729800D01*
X156351348Y-114729800D02*
X158273348Y-116651800D01*
X154311800Y-114729800D02*
X156351348Y-114729800D01*
X169545000Y-109728000D02*
X169545000Y-117856000D01*
%TO.N,Net-(IC3-Pad1)*%
X159766000Y-130808000D02*
X159766000Y-129214600D01*
X158375800Y-130808000D02*
X158369000Y-130801200D01*
X159766000Y-129214600D02*
X159708400Y-129157000D01*
X159766000Y-130808000D02*
X158375800Y-130808000D01*
%TO.N,Net-(Q1-Pad3)*%
X159766000Y-131828000D02*
X161170000Y-131828000D01*
X161170000Y-131828000D02*
X161864000Y-131134000D01*
%TO.N,Net-(Q1-Pad1)*%
X163764000Y-131134000D02*
X163764000Y-133534000D01*
X162814000Y-133534000D02*
X162814000Y-132880000D01*
X162814000Y-132880000D02*
X162491000Y-132557000D01*
X163764000Y-133534000D02*
X162814000Y-133534000D01*
X160180000Y-132557000D02*
X159387000Y-133350000D01*
X162814000Y-131134000D02*
X163764000Y-131134000D01*
X162491000Y-132557000D02*
X160180000Y-132557000D01*
%TO.N,Net-(IC6-Pad3)*%
X152095200Y-121123900D02*
X150827200Y-121123900D01*
X154233600Y-121283000D02*
X154286400Y-121335800D01*
X152222200Y-121283000D02*
X154233600Y-121283000D01*
%TO.N,Net-(Q2-Pad2)*%
X158367000Y-134747000D02*
X157241000Y-134747000D01*
X157241000Y-134747000D02*
X156910800Y-134416800D01*
%TO.N,ERR_FINAL*%
X165989000Y-129796000D02*
X167009000Y-128776000D01*
X160394500Y-106959400D02*
X160909000Y-107473900D01*
X167259000Y-126619000D02*
X165989000Y-125349000D01*
X155879800Y-118795800D02*
X157149800Y-120065800D01*
X160703800Y-113459800D02*
X159733800Y-113459800D01*
X161868316Y-113657000D02*
X160901000Y-113657000D01*
X159816800Y-106959400D02*
X160394500Y-106959400D01*
X157149800Y-120065800D02*
X159708400Y-120065800D01*
X154286400Y-118795800D02*
X155879800Y-118795800D01*
X165860000Y-129667000D02*
X165989000Y-129796000D01*
X162229800Y-114018484D02*
X161868316Y-113657000D01*
X165345500Y-124333000D02*
X165345500Y-124705500D01*
X160901000Y-113657000D02*
X160703800Y-113459800D01*
X154286400Y-127887000D02*
X155573000Y-127887000D01*
X165345500Y-124705500D02*
X165989000Y-125349000D01*
X161155327Y-120065800D02*
X159708400Y-120065800D01*
X167259000Y-128776000D02*
X167259000Y-126619000D01*
X155573000Y-127887000D02*
X155829000Y-128143000D01*
X162114764Y-121025237D02*
X161155327Y-120065800D01*
X164846000Y-129667000D02*
X165860000Y-129667000D01*
X167009000Y-128776000D02*
X167259000Y-128776000D01*
%TO.N,Net-(R22-Pad1)*%
X170180000Y-132944000D02*
X168529000Y-131293000D01*
X168529000Y-131293000D02*
X168529000Y-129796000D01*
%TO.N,INFO_LED*%
X172720000Y-131509500D02*
X174625000Y-129604500D01*
X172720000Y-132944000D02*
X172720000Y-131509500D01*
X167248000Y-134239000D02*
X171425000Y-134239000D01*
X171425000Y-134239000D02*
X172720000Y-132944000D01*
X166624000Y-133615000D02*
X167248000Y-134239000D01*
%TO.N,/500MS_REF*%
X161473800Y-126617000D02*
X161598800Y-126492000D01*
X162868800Y-126492000D02*
X161598800Y-126492000D01*
X159737800Y-126617000D02*
X161473800Y-126617000D01*
%TO.N,/10s REF*%
X151166200Y-125347000D02*
X154286400Y-125347000D01*
X151079200Y-125434000D02*
X151166200Y-125347000D01*
%TO.N,/10ms VAL*%
X151841200Y-128524000D02*
X152349200Y-128016000D01*
X152893200Y-131684200D02*
X152893200Y-130480200D01*
X152893200Y-130480200D02*
X151841200Y-129428200D01*
X158367000Y-133350000D02*
X156994000Y-133350000D01*
X154687149Y-132490949D02*
X153699949Y-132490949D01*
X153748200Y-126617000D02*
X152349200Y-128016000D01*
X153699949Y-132490949D02*
X152893200Y-131684200D01*
D39*
X153801000Y-126617000D02*
X154286400Y-126617000D01*
D36*
X156994000Y-133350000D02*
X156260800Y-132616800D01*
X154813000Y-132616800D02*
X154687149Y-132490949D01*
X156260800Y-132616800D02*
X154813000Y-132616800D01*
X151841200Y-129428200D02*
X151841200Y-128524000D01*
X154286400Y-126617000D02*
X153748200Y-126617000D01*
%TO.N,Net-(IC2-Pad6)*%
X161465800Y-114729800D02*
X161594800Y-114600800D01*
X162864800Y-115620800D02*
X162614800Y-115620800D01*
X162614800Y-115620800D02*
X161594800Y-114600800D01*
X159733800Y-114729800D02*
X161465800Y-114729800D01*
%TO.N,Net-(D3-Pad2)*%
X176911000Y-128459500D02*
X176911000Y-127193500D01*
%TO.N,Net-(D4-Pad2)*%
X174625000Y-128459500D02*
X175133000Y-127951500D01*
X175133000Y-127951500D02*
X175133000Y-127129000D01*
%TO.N,Net-(Q3-Pad1)*%
X167259000Y-129796000D02*
X167259000Y-131800000D01*
X167259000Y-131800000D02*
X167274000Y-131815000D01*
%TO.N,Net-(IC6-Pad5)*%
X162786600Y-122605800D02*
X159708400Y-122605800D01*
X162864800Y-122684000D02*
X162786600Y-122605800D01*
%TD*%
%TA.AperFunction,Conductor*%
%TO.N,Net-(C6-Pad1)*%
G36*
X177216121Y-103598902D02*
G01*
X177262614Y-103652558D01*
X177274000Y-103704900D01*
X177274000Y-105057278D01*
X177277973Y-105070809D01*
X177285871Y-105071944D01*
X177425790Y-105031293D01*
X177440221Y-105025048D01*
X177569678Y-104948489D01*
X177582104Y-104938849D01*
X177688449Y-104832504D01*
X177702952Y-104813808D01*
X177704869Y-104815295D01*
X177747933Y-104775081D01*
X177817783Y-104762372D01*
X177883416Y-104789444D01*
X177923993Y-104847702D01*
X177930500Y-104887670D01*
X177930500Y-105382830D01*
X177910498Y-105450951D01*
X177856842Y-105497444D01*
X177786568Y-105507548D01*
X177764832Y-105502423D01*
X177671490Y-105471462D01*
X177658114Y-105468595D01*
X177563762Y-105458928D01*
X177557345Y-105458600D01*
X177307315Y-105458600D01*
X177292076Y-105463075D01*
X177290871Y-105464465D01*
X177289200Y-105472148D01*
X177289200Y-106594600D01*
X177269198Y-106662721D01*
X177215542Y-106709214D01*
X177163200Y-106720600D01*
X175820316Y-106720600D01*
X175805077Y-106725075D01*
X175803872Y-106726465D01*
X175802201Y-106734148D01*
X175802201Y-106763695D01*
X175802538Y-106770214D01*
X175812457Y-106865806D01*
X175815349Y-106879200D01*
X175866788Y-107033384D01*
X175872961Y-107046562D01*
X175958263Y-107184407D01*
X175967299Y-107195808D01*
X176082029Y-107310339D01*
X176093440Y-107319351D01*
X176202442Y-107386540D01*
X176249935Y-107439312D01*
X176261359Y-107509383D01*
X176233085Y-107574507D01*
X176174091Y-107614007D01*
X176136326Y-107619800D01*
X175581798Y-107619800D01*
X175513677Y-107599798D01*
X175499286Y-107589025D01*
X175475335Y-107568271D01*
X175467652Y-107566600D01*
X174524200Y-107566600D01*
X174456079Y-107546598D01*
X174409586Y-107492942D01*
X174398200Y-107440600D01*
X174398200Y-107248485D01*
X174698200Y-107248485D01*
X174702675Y-107263724D01*
X174704065Y-107264929D01*
X174711748Y-107266600D01*
X175463084Y-107266600D01*
X175478323Y-107262125D01*
X175479528Y-107260735D01*
X175481199Y-107253052D01*
X175481199Y-107221931D01*
X175480829Y-107215110D01*
X175475305Y-107164248D01*
X175471679Y-107148996D01*
X175426524Y-107028546D01*
X175413678Y-107005083D01*
X175416128Y-107003741D01*
X175396296Y-106950655D01*
X175411351Y-106881273D01*
X175415397Y-106874978D01*
X175426524Y-106854654D01*
X175471678Y-106734206D01*
X175475305Y-106718951D01*
X175480831Y-106668086D01*
X175481200Y-106661272D01*
X175481200Y-106634715D01*
X175476725Y-106619476D01*
X175475335Y-106618271D01*
X175467652Y-106616600D01*
X174716315Y-106616600D01*
X174701076Y-106621075D01*
X174699871Y-106622465D01*
X174698200Y-106630148D01*
X174698200Y-107248485D01*
X174398200Y-107248485D01*
X174398200Y-106442600D01*
X174418202Y-106374479D01*
X174471858Y-106327986D01*
X174524200Y-106316600D01*
X175463084Y-106316600D01*
X175478323Y-106312125D01*
X175479528Y-106310735D01*
X175481199Y-106303052D01*
X175481199Y-106271931D01*
X175480829Y-106265110D01*
X175475305Y-106214248D01*
X175471679Y-106198996D01*
X175426524Y-106078546D01*
X175417986Y-106062951D01*
X175341485Y-105960876D01*
X175328924Y-105948315D01*
X175286108Y-105916226D01*
X175243593Y-105859367D01*
X175238567Y-105788548D01*
X175272627Y-105726255D01*
X175334958Y-105692265D01*
X175361673Y-105689400D01*
X175769023Y-105689400D01*
X175837144Y-105709402D01*
X175883637Y-105763058D01*
X175893741Y-105833332D01*
X175876285Y-105881513D01*
X175872384Y-105887842D01*
X175866237Y-105901024D01*
X175815062Y-106055310D01*
X175812195Y-106068686D01*
X175802528Y-106163038D01*
X175802200Y-106169455D01*
X175802200Y-106194485D01*
X175806675Y-106209724D01*
X175808065Y-106210929D01*
X175815748Y-106212600D01*
X176763085Y-106212600D01*
X176778324Y-106208125D01*
X176779529Y-106206735D01*
X176781200Y-106199052D01*
X176781200Y-105476716D01*
X176776725Y-105461477D01*
X176775335Y-105460272D01*
X176767652Y-105458601D01*
X176704000Y-105458601D01*
X176635879Y-105438599D01*
X176589386Y-105384943D01*
X176578000Y-105332601D01*
X176578000Y-105188590D01*
X176598002Y-105120469D01*
X176651658Y-105073976D01*
X176721932Y-105063872D01*
X176739155Y-105067594D01*
X176748603Y-105070339D01*
X176762706Y-105070299D01*
X176766000Y-105063030D01*
X176766000Y-103704900D01*
X176786002Y-103636779D01*
X176839658Y-103590286D01*
X176892000Y-103578900D01*
X177148000Y-103578900D01*
X177216121Y-103598902D01*
G37*
%TD.AperFunction*%
%TD*%
%TA.AperFunction,Conductor*%
%TO.N,GND*%
G36*
X155050731Y-122067002D02*
G01*
X155071705Y-122083905D01*
X155251895Y-122264095D01*
X155285921Y-122326407D01*
X155288800Y-122353190D01*
X155288800Y-123699000D01*
X155268798Y-123767121D01*
X155215142Y-123813614D01*
X155162800Y-123825000D01*
X153001800Y-123825000D01*
X152933679Y-123804998D01*
X152887186Y-123751342D01*
X152875800Y-123699000D01*
X152875800Y-123242190D01*
X152895802Y-123174069D01*
X152912705Y-123153095D01*
X153383800Y-122682000D01*
X153383800Y-122173000D01*
X153403802Y-122104879D01*
X153457458Y-122058386D01*
X153509800Y-122047000D01*
X154982610Y-122047000D01*
X155050731Y-122067002D01*
G37*
%TD.AperFunction*%
%TD*%
%TA.AperFunction,Conductor*%
%TO.N,GND*%
G36*
X175763407Y-108071602D02*
G01*
X175777080Y-108087382D01*
X175778714Y-108085496D01*
X175808065Y-108110929D01*
X175815748Y-108112600D01*
X177163200Y-108112600D01*
X177231321Y-108132602D01*
X177277814Y-108186258D01*
X177289200Y-108238600D01*
X177289200Y-108494600D01*
X177269198Y-108562721D01*
X177215542Y-108609214D01*
X177163200Y-108620600D01*
X175820316Y-108620600D01*
X175805077Y-108625075D01*
X175803872Y-108626465D01*
X175802201Y-108634148D01*
X175802201Y-108663695D01*
X175802538Y-108670200D01*
X175802994Y-108674599D01*
X175790127Y-108744420D01*
X175741555Y-108796201D01*
X175677666Y-108813600D01*
X175586225Y-108813600D01*
X175518104Y-108793598D01*
X175471611Y-108739942D01*
X175461507Y-108669668D01*
X175468243Y-108643372D01*
X175471677Y-108634212D01*
X175475305Y-108618951D01*
X175480831Y-108568086D01*
X175481200Y-108561272D01*
X175481200Y-108534715D01*
X175476725Y-108519476D01*
X175475335Y-108518271D01*
X175467652Y-108516600D01*
X174524200Y-108516600D01*
X174456079Y-108496598D01*
X174409586Y-108442942D01*
X174398200Y-108390600D01*
X174398200Y-108342600D01*
X174418202Y-108274479D01*
X174471858Y-108227986D01*
X174524200Y-108216600D01*
X175463084Y-108216600D01*
X175478323Y-108212125D01*
X175479528Y-108210735D01*
X175481199Y-108203052D01*
X175481199Y-108177600D01*
X175501201Y-108109479D01*
X175554857Y-108062986D01*
X175607199Y-108051600D01*
X175695286Y-108051600D01*
X175763407Y-108071602D01*
G37*
%TD.AperFunction*%
%TA.AperFunction,Conductor*%
G36*
X171541721Y-96387602D02*
G01*
X171588214Y-96441258D01*
X171599600Y-96493600D01*
X171599600Y-97220209D01*
X171579598Y-97288330D01*
X171525942Y-97334823D01*
X171456044Y-97344980D01*
X171433621Y-97341825D01*
X171422436Y-97346974D01*
X170585822Y-98183588D01*
X170578208Y-98197532D01*
X170578339Y-98199365D01*
X170582590Y-98205980D01*
X171419218Y-99042608D01*
X171433162Y-99050222D01*
X171464611Y-99047973D01*
X171533985Y-99063064D01*
X171584187Y-99113266D01*
X171599600Y-99173652D01*
X171599600Y-103149400D01*
X174186000Y-103149400D01*
X174254121Y-103169402D01*
X174300614Y-103223058D01*
X174312000Y-103275400D01*
X174312000Y-103560785D01*
X174316475Y-103576024D01*
X174317865Y-103577229D01*
X174325548Y-103578900D01*
X175248000Y-103578900D01*
X175316121Y-103598902D01*
X175362614Y-103652558D01*
X175374000Y-103704900D01*
X175374000Y-103960900D01*
X175353998Y-104029021D01*
X175300342Y-104075514D01*
X175248000Y-104086900D01*
X174330116Y-104086900D01*
X174314877Y-104091375D01*
X174313672Y-104092765D01*
X174312001Y-104100448D01*
X174312001Y-104484384D01*
X174312195Y-104489320D01*
X174314430Y-104517736D01*
X174316730Y-104530331D01*
X174359107Y-104676190D01*
X174365352Y-104690621D01*
X174441911Y-104820078D01*
X174451551Y-104832504D01*
X174458352Y-104839305D01*
X174492378Y-104901617D01*
X174487313Y-104972432D01*
X174444766Y-105029268D01*
X174378246Y-105054079D01*
X174369257Y-105054400D01*
X173939200Y-105054400D01*
X173938753Y-105532720D01*
X173918688Y-105600820D01*
X173864989Y-105647262D01*
X173812754Y-105658600D01*
X173370315Y-105658600D01*
X173355076Y-105663075D01*
X173353871Y-105664465D01*
X173352200Y-105672148D01*
X173352200Y-107544600D01*
X173332198Y-107612721D01*
X173278542Y-107659214D01*
X173226200Y-107670600D01*
X172970200Y-107670600D01*
X172902079Y-107650598D01*
X172855586Y-107596942D01*
X172844200Y-107544600D01*
X172844200Y-105676716D01*
X172839725Y-105661477D01*
X172838335Y-105660272D01*
X172830652Y-105658601D01*
X172203531Y-105658601D01*
X172196710Y-105658971D01*
X172145848Y-105664495D01*
X172130597Y-105668121D01*
X172010088Y-105713298D01*
X171939281Y-105718481D01*
X171918319Y-105712004D01*
X170315184Y-105058875D01*
X169011060Y-104527565D01*
X168955521Y-104483340D01*
X168932600Y-104410878D01*
X168932600Y-99418350D01*
X169357095Y-99418350D01*
X169361763Y-99424924D01*
X169563111Y-99542583D01*
X169572394Y-99547030D01*
X169791708Y-99630778D01*
X169801606Y-99633654D01*
X170031653Y-99680457D01*
X170041881Y-99681676D01*
X170276481Y-99690279D01*
X170286767Y-99689812D01*
X170519623Y-99659982D01*
X170529709Y-99657839D01*
X170754562Y-99590380D01*
X170764157Y-99586620D01*
X170974973Y-99483341D01*
X170983823Y-99478066D01*
X171058047Y-99425123D01*
X171066447Y-99414424D01*
X171059458Y-99401268D01*
X170226612Y-98568422D01*
X170212668Y-98560808D01*
X170210835Y-98560939D01*
X170204220Y-98565190D01*
X169364355Y-99405055D01*
X169357095Y-99418350D01*
X168932600Y-99418350D01*
X168932600Y-99161155D01*
X168952602Y-99093034D01*
X168989331Y-99061891D01*
X168988946Y-99061468D01*
X168995444Y-99055546D01*
X169841778Y-98209212D01*
X169849392Y-98195268D01*
X169849261Y-98193435D01*
X169845010Y-98186820D01*
X169008293Y-97350103D01*
X168998212Y-97344598D01*
X168948011Y-97294394D01*
X168932600Y-97234012D01*
X168932600Y-96978185D01*
X169360381Y-96978185D01*
X169367125Y-96990515D01*
X170200988Y-97824378D01*
X170214932Y-97831992D01*
X170216765Y-97831861D01*
X170223380Y-97827610D01*
X171061530Y-96989460D01*
X171068550Y-96976604D01*
X171060776Y-96965934D01*
X171045515Y-96953881D01*
X171036932Y-96948178D01*
X170831410Y-96834725D01*
X170822011Y-96830500D01*
X170600722Y-96752137D01*
X170590752Y-96749503D01*
X170359639Y-96708337D01*
X170349385Y-96707367D01*
X170114642Y-96704498D01*
X170104358Y-96705218D01*
X169872309Y-96740727D01*
X169862281Y-96743116D01*
X169639147Y-96816047D01*
X169629638Y-96820044D01*
X169421412Y-96928440D01*
X169412694Y-96933929D01*
X169368834Y-96966860D01*
X169360381Y-96978185D01*
X168932600Y-96978185D01*
X168932600Y-96493600D01*
X168952602Y-96425479D01*
X169006258Y-96378986D01*
X169058600Y-96367600D01*
X171473600Y-96367600D01*
X171541721Y-96387602D01*
G37*
%TD.AperFunction*%
%TD*%
%TA.AperFunction,Conductor*%
%TO.N,+5V*%
G36*
X155212321Y-128645602D02*
G01*
X155258814Y-128699258D01*
X155270200Y-128751600D01*
X155270200Y-130442103D01*
X155250198Y-130510224D01*
X155196542Y-130556717D01*
X155126268Y-130566821D01*
X155061688Y-130537327D01*
X155055183Y-130531276D01*
X155010548Y-130486719D01*
X155010544Y-130486716D01*
X155003173Y-130479358D01*
X154944154Y-130450508D01*
X154907726Y-130432701D01*
X154907724Y-130432701D01*
X154898939Y-130428406D01*
X154889262Y-130426994D01*
X154889261Y-130426994D01*
X154871671Y-130424428D01*
X154831034Y-130418500D01*
X154484966Y-130418500D01*
X154480417Y-130419170D01*
X154480412Y-130419170D01*
X154426155Y-130427157D01*
X154426153Y-130427158D01*
X154416470Y-130428583D01*
X154407682Y-130432898D01*
X154407681Y-130432898D01*
X154388933Y-130442103D01*
X154312325Y-130479716D01*
X154304970Y-130487084D01*
X154304967Y-130487086D01*
X154271374Y-130520739D01*
X154230358Y-130561827D01*
X154179406Y-130666061D01*
X154169500Y-130733966D01*
X154169500Y-131140034D01*
X154179583Y-131208530D01*
X154183898Y-131217318D01*
X154183898Y-131217319D01*
X154206557Y-131263469D01*
X154218625Y-131333432D01*
X154190952Y-131398813D01*
X154132324Y-131438855D01*
X154093454Y-131445000D01*
X153354700Y-131445000D01*
X153286579Y-131424998D01*
X153240086Y-131371342D01*
X153228700Y-131319000D01*
X153228700Y-130500363D01*
X153229179Y-130489381D01*
X153231619Y-130461490D01*
X153232580Y-130450508D01*
X153229726Y-130439856D01*
X153222483Y-130412824D01*
X153220103Y-130402090D01*
X153215245Y-130374536D01*
X153215245Y-130374535D01*
X153213331Y-130363682D01*
X153207822Y-130354139D01*
X153206478Y-130350447D01*
X153204812Y-130346874D01*
X153201958Y-130336224D01*
X153184786Y-130311700D01*
X153162000Y-130239430D01*
X153162000Y-128751600D01*
X153182002Y-128683479D01*
X153235658Y-128636986D01*
X153288000Y-128625600D01*
X155144200Y-128625600D01*
X155212321Y-128645602D01*
G37*
%TD.AperFunction*%
%TD*%
%TA.AperFunction,Conductor*%
%TO.N,+5V*%
G36*
X160508803Y-104464802D02*
G01*
X160555296Y-104518458D01*
X160558659Y-104526558D01*
X160909000Y-105460800D01*
X161926000Y-105460800D01*
X161994121Y-105480802D01*
X162040614Y-105534458D01*
X162052000Y-105586800D01*
X162052000Y-106060542D01*
X162031998Y-106128663D01*
X162015095Y-106149637D01*
X161978837Y-106185895D01*
X161916525Y-106219921D01*
X161889742Y-106222800D01*
X161386356Y-106222800D01*
X161317825Y-106202533D01*
X161295787Y-106188248D01*
X161156236Y-106146514D01*
X161147260Y-106146459D01*
X161147259Y-106146459D01*
X161085946Y-106146085D01*
X161010581Y-106145624D01*
X160870531Y-106185651D01*
X160862943Y-106190439D01*
X160862940Y-106190440D01*
X160842462Y-106203361D01*
X160775226Y-106222800D01*
X158931229Y-106222800D01*
X158862696Y-106202532D01*
X158769819Y-106142331D01*
X158769817Y-106142330D01*
X158762285Y-106137448D01*
X158712895Y-106122678D01*
X158653365Y-106083998D01*
X158624195Y-106019271D01*
X158623000Y-106001962D01*
X158623000Y-104570800D01*
X158643002Y-104502679D01*
X158696658Y-104456186D01*
X158749000Y-104444800D01*
X160440682Y-104444800D01*
X160508803Y-104464802D01*
G37*
%TD.AperFunction*%
%TD*%
%TA.AperFunction,Conductor*%
%TO.N,+5V*%
G36*
X160612540Y-117607232D02*
G01*
X160659033Y-117660888D01*
X160662396Y-117668988D01*
X161012737Y-118603230D01*
X162029737Y-118603230D01*
X162097858Y-118623232D01*
X162144351Y-118676888D01*
X162155737Y-118729230D01*
X162155737Y-119239230D01*
X162135735Y-119307351D01*
X162082079Y-119353844D01*
X162029737Y-119365230D01*
X158852737Y-119365230D01*
X158784616Y-119345228D01*
X158738123Y-119291572D01*
X158726737Y-119239230D01*
X158726737Y-117713230D01*
X158746739Y-117645109D01*
X158800395Y-117598616D01*
X158852737Y-117587230D01*
X160544419Y-117587230D01*
X160612540Y-117607232D01*
G37*
%TD.AperFunction*%
%TD*%
%TA.AperFunction,Conductor*%
%TO.N,GND*%
G36*
X153393393Y-108757402D02*
G01*
X153414290Y-108774227D01*
X153453488Y-108813357D01*
X153558600Y-108859826D01*
X153575636Y-108861812D01*
X153581326Y-108862476D01*
X153581331Y-108862476D01*
X153584965Y-108862900D01*
X153668001Y-108862900D01*
X154799219Y-108862899D01*
X154867340Y-108882901D01*
X154888314Y-108899804D01*
X155255895Y-109267385D01*
X155289921Y-109329697D01*
X155292800Y-109356480D01*
X155292800Y-110643400D01*
X155272798Y-110711521D01*
X155219142Y-110758014D01*
X155166800Y-110769400D01*
X153371050Y-110769400D01*
X153322832Y-110759809D01*
X153197926Y-110708071D01*
X153197923Y-110708070D01*
X153190296Y-110704911D01*
X153031446Y-110683998D01*
X153023258Y-110685076D01*
X153023255Y-110685076D01*
X153022245Y-110685209D01*
X153021392Y-110685076D01*
X153014999Y-110685076D01*
X153014999Y-110684079D01*
X152952097Y-110674269D01*
X152898998Y-110627141D01*
X152879800Y-110560287D01*
X152879800Y-110007400D01*
X152498800Y-109372400D01*
X150592800Y-109372400D01*
X150524679Y-109352398D01*
X150478186Y-109298742D01*
X150466800Y-109246400D01*
X150466800Y-108863400D01*
X150486802Y-108795279D01*
X150540458Y-108748786D01*
X150592800Y-108737400D01*
X153325272Y-108737400D01*
X153393393Y-108757402D01*
G37*
%TD.AperFunction*%
%TD*%
%TA.AperFunction,Conductor*%
%TO.N,GND*%
G36*
X160695921Y-123777002D02*
G01*
X160742414Y-123830658D01*
X160753800Y-123883000D01*
X160753800Y-124900000D01*
X162024800Y-124900000D01*
X162092921Y-124920002D01*
X162139414Y-124973658D01*
X162150800Y-125026000D01*
X162150800Y-125663000D01*
X162130798Y-125731121D01*
X162077142Y-125777614D01*
X162024800Y-125789000D01*
X158974800Y-125789000D01*
X158906679Y-125768998D01*
X158860186Y-125715342D01*
X158848800Y-125663000D01*
X158848800Y-123883000D01*
X158868802Y-123814879D01*
X158922458Y-123768386D01*
X158974800Y-123757000D01*
X160627800Y-123757000D01*
X160695921Y-123777002D01*
G37*
%TD.AperFunction*%
%TD*%
%TA.AperFunction,Conductor*%
%TO.N,+5V*%
G36*
X160504803Y-110914402D02*
G01*
X160551296Y-110968058D01*
X160554659Y-110976158D01*
X160905000Y-111910400D01*
X161922000Y-111910400D01*
X161990121Y-111930402D01*
X162036614Y-111984058D01*
X162048000Y-112036400D01*
X162048000Y-112479670D01*
X162027998Y-112547791D01*
X161974342Y-112594284D01*
X161922000Y-112605670D01*
X161495215Y-112605670D01*
X161427094Y-112585668D01*
X161399765Y-112561921D01*
X161398840Y-112560848D01*
X161398838Y-112560847D01*
X161392976Y-112554043D01*
X161270748Y-112474818D01*
X161131197Y-112433084D01*
X161122221Y-112433029D01*
X161122220Y-112433029D01*
X161060907Y-112432655D01*
X160985542Y-112432194D01*
X160845492Y-112472221D01*
X160722305Y-112549946D01*
X160683147Y-112594284D01*
X160651773Y-112629808D01*
X160591687Y-112667626D01*
X160557332Y-112672400D01*
X158745000Y-112672400D01*
X158676879Y-112652398D01*
X158630386Y-112598742D01*
X158619000Y-112546400D01*
X158619000Y-111020400D01*
X158639002Y-110952279D01*
X158692658Y-110905786D01*
X158745000Y-110894400D01*
X160436682Y-110894400D01*
X160504803Y-110914402D01*
G37*
%TD.AperFunction*%
%TD*%
%TA.AperFunction,Conductor*%
%TO.N,GND*%
G36*
X155050731Y-115384802D02*
G01*
X155071705Y-115401705D01*
X155251895Y-115581895D01*
X155285921Y-115644207D01*
X155288800Y-115670990D01*
X155288800Y-117270800D01*
X155268798Y-117338921D01*
X155215142Y-117385414D01*
X155162800Y-117396800D01*
X153001800Y-117396800D01*
X152933679Y-117376798D01*
X152887186Y-117323142D01*
X152875800Y-117270800D01*
X152875800Y-116507800D01*
X152494800Y-115999800D01*
X150334800Y-115999800D01*
X150266679Y-115979798D01*
X150220186Y-115926142D01*
X150208800Y-115873800D01*
X150208800Y-115490800D01*
X150228802Y-115422679D01*
X150282458Y-115376186D01*
X150334800Y-115364800D01*
X154982610Y-115364800D01*
X155050731Y-115384802D01*
G37*
%TD.AperFunction*%
%TD*%
%TA.AperFunction,Conductor*%
%TO.N,+5V*%
G36*
X170668282Y-105881674D02*
G01*
X170735867Y-105903416D01*
X170780970Y-105958246D01*
X170789269Y-106028756D01*
X170775571Y-106068145D01*
X170769875Y-106078547D01*
X170724722Y-106198994D01*
X170721095Y-106214249D01*
X170715569Y-106265114D01*
X170715200Y-106271928D01*
X170715200Y-106298485D01*
X170719675Y-106313724D01*
X170721065Y-106314929D01*
X170728748Y-106316600D01*
X171672200Y-106316600D01*
X171740321Y-106336602D01*
X171786814Y-106390258D01*
X171798200Y-106442600D01*
X171798200Y-107440600D01*
X171778198Y-107508721D01*
X171724542Y-107555214D01*
X171672200Y-107566600D01*
X170733316Y-107566600D01*
X170718077Y-107571075D01*
X170716872Y-107572465D01*
X170715201Y-107580148D01*
X170715201Y-107611269D01*
X170715571Y-107618090D01*
X170721095Y-107668952D01*
X170724721Y-107684204D01*
X170769876Y-107804654D01*
X170778414Y-107820249D01*
X170854915Y-107922324D01*
X170867476Y-107934885D01*
X170894629Y-107955235D01*
X170937144Y-108012094D01*
X170942170Y-108082912D01*
X170934304Y-108107009D01*
X170917774Y-108144400D01*
X170914700Y-108170765D01*
X170914700Y-108174427D01*
X170914701Y-108459000D01*
X170894699Y-108527120D01*
X170841044Y-108573613D01*
X170788701Y-108585000D01*
X169256700Y-108585000D01*
X169188579Y-108564998D01*
X169142086Y-108511342D01*
X169130700Y-108459000D01*
X169130700Y-108215408D01*
X169119678Y-108124327D01*
X169063348Y-107982053D01*
X168970832Y-107860168D01*
X168963997Y-107854980D01*
X168963992Y-107854975D01*
X168854157Y-107771605D01*
X168811990Y-107714487D01*
X168807398Y-107643639D01*
X168841838Y-107581555D01*
X168882857Y-107556387D01*
X168882356Y-107555317D01*
X168902162Y-107546039D01*
X169040007Y-107460737D01*
X169051408Y-107451701D01*
X169165939Y-107336971D01*
X169174951Y-107325560D01*
X169222460Y-107248485D01*
X170715200Y-107248485D01*
X170719675Y-107263724D01*
X170721065Y-107264929D01*
X170728748Y-107266600D01*
X171480085Y-107266600D01*
X171495324Y-107262125D01*
X171496529Y-107260735D01*
X171498200Y-107253052D01*
X171498200Y-106634715D01*
X171493725Y-106619476D01*
X171492335Y-106618271D01*
X171484652Y-106616600D01*
X170733316Y-106616600D01*
X170718077Y-106621075D01*
X170716872Y-106622465D01*
X170715201Y-106630148D01*
X170715201Y-106661269D01*
X170715571Y-106668090D01*
X170721095Y-106718952D01*
X170724721Y-106734204D01*
X170769876Y-106854654D01*
X170782722Y-106878117D01*
X170780272Y-106879459D01*
X170800104Y-106932545D01*
X170785049Y-107001927D01*
X170781003Y-107008222D01*
X170769876Y-107028546D01*
X170724722Y-107148994D01*
X170721095Y-107164249D01*
X170715569Y-107215114D01*
X170715200Y-107221928D01*
X170715200Y-107248485D01*
X169222460Y-107248485D01*
X169260016Y-107187557D01*
X169266163Y-107174376D01*
X169317338Y-107020090D01*
X169320205Y-107006714D01*
X169329872Y-106912362D01*
X169330200Y-106905946D01*
X169330200Y-106880915D01*
X169325725Y-106865676D01*
X169324335Y-106864471D01*
X169316652Y-106862800D01*
X167969200Y-106862800D01*
X167901079Y-106842798D01*
X167854586Y-106789142D01*
X167843200Y-106736800D01*
X167843200Y-106480800D01*
X167863202Y-106412679D01*
X167916858Y-106366186D01*
X167969200Y-106354800D01*
X169312084Y-106354800D01*
X169327323Y-106350325D01*
X169328528Y-106348935D01*
X169330199Y-106341252D01*
X169330199Y-106311705D01*
X169329862Y-106305186D01*
X169319943Y-106209594D01*
X169317051Y-106196200D01*
X169265611Y-106042012D01*
X169259027Y-106027958D01*
X169248242Y-105957785D01*
X169277108Y-105892922D01*
X169336459Y-105853961D01*
X169376358Y-105848548D01*
X170668282Y-105881674D01*
G37*
%TD.AperFunction*%
%TD*%
M02*
