%TF.GenerationSoftware,KiCad,Pcbnew,(6.0.8)*%
%TF.CreationDate,2023-06-01T04:31:02+02:00*%
%TF.ProjectId,BSPD-07,42535044-2d30-4372-9e6b-696361645f70,rev?*%
%TF.SameCoordinates,Original*%
%TF.FileFunction,Copper,L2,Bot*%
%TF.FilePolarity,Positive*%
%FSLAX46Y46*%
G04 Gerber Fmt 4.6, Leading zero omitted, Abs format (unit mm)*
G04 Created by KiCad (PCBNEW (6.0.8)) date 2023-06-01 04:31:02*
%MOMM*%
%LPD*%
G01*
G04 APERTURE LIST*
%TA.AperFunction,ComponentPad*%
%ADD10C,1.269000*%
%TD*%
%TA.AperFunction,ComponentPad*%
%ADD11R,1.700000X1.700000*%
%TD*%
%TA.AperFunction,ComponentPad*%
%ADD12O,1.700000X1.700000*%
%TD*%
%TA.AperFunction,ComponentPad*%
%ADD13C,1.965000*%
%TD*%
%TA.AperFunction,ComponentPad*%
%ADD14C,4.665000*%
%TD*%
%TA.AperFunction,ViaPad*%
%ADD15C,0.600000*%
%TD*%
%TA.AperFunction,Conductor*%
%ADD16C,0.300000*%
%TD*%
%TA.AperFunction,Conductor*%
%ADD17C,0.254000*%
%TD*%
G04 APERTURE END LIST*
D10*
%TO.P,RV1,1,1*%
%TO.N,unconnected-(RV1-Pad1)*%
X170685200Y-113715800D03*
%TO.P,RV1,2,2*%
%TO.N,+5V*%
X173225200Y-113715800D03*
%TO.P,RV1,3,3*%
%TO.N,TPS_TRIG*%
X175765200Y-113715800D03*
%TD*%
%TO.P,RV2,1,1*%
%TO.N,unconnected-(RV2-Pad1)*%
X170736000Y-121437400D03*
%TO.P,RV2,2,2*%
%TO.N,+5V*%
X173276000Y-121437400D03*
%TO.P,RV2,3,3*%
%TO.N,BRAKE_TRIG*%
X175816000Y-121437400D03*
%TD*%
D11*
%TO.P,JP1,1,A*%
%TO.N,SAFETY_IN*%
X169969000Y-127431800D03*
D12*
%TO.P,JP1,2,B*%
%TO.N,SAFETY_OUT*%
X172509000Y-127431800D03*
%TD*%
D13*
%TO.P,J1,1,1*%
%TO.N,+12V*%
X174403800Y-98196400D03*
%TO.P,J1,2,2*%
%TO.N,GND*%
X170213800Y-98196400D03*
%TO.P,J1,3,3*%
%TO.N,SAFETY_OUT*%
X166023800Y-98196400D03*
%TO.P,J1,4,4*%
%TO.N,unconnected-(J1-Pad4)*%
X161833800Y-98196400D03*
%TO.P,J1,5,5*%
%TO.N,+5V*%
X157643800Y-98196400D03*
%TO.P,J1,6,6*%
%TO.N,TPS_IN*%
X153453800Y-98196400D03*
%TO.P,J1,7,7*%
%TO.N,BRAKE_IN*%
X153453800Y-91846400D03*
%TO.P,J1,8,8*%
%TO.N,unconnected-(J1-Pad8)*%
X157643800Y-91846400D03*
%TO.P,J1,9,9*%
%TO.N,unconnected-(J1-Pad9)*%
X161833800Y-91846400D03*
%TO.P,J1,10,10*%
%TO.N,SAFETY_IN*%
X166023800Y-91846400D03*
%TO.P,J1,11,11*%
%TO.N,BRAKE_TRIG*%
X170213800Y-91846400D03*
%TO.P,J1,12,12*%
%TO.N,TPS_TRIG*%
X174403800Y-91846400D03*
D14*
%TO.P,J1,MH1,MH1*%
%TO.N,unconnected-(J1-PadMH1)*%
X172813800Y-85496400D03*
%TO.P,J1,MH2,MH2*%
%TO.N,unconnected-(J1-PadMH2)*%
X155033800Y-85496400D03*
%TD*%
D15*
%TO.N,GND*%
X161592000Y-121503400D03*
X154022800Y-110388400D03*
X153286200Y-110388400D03*
X160499800Y-120929400D03*
X152854400Y-105283000D03*
X171675800Y-103784400D03*
X151584400Y-120370600D03*
X161592000Y-117424200D03*
X159229800Y-120929400D03*
X155597600Y-133629400D03*
X173580800Y-104673400D03*
X159864800Y-120929400D03*
X153311600Y-118135400D03*
X150466800Y-130225800D03*
X152803600Y-126974600D03*
X169161200Y-109296200D03*
X175816000Y-131292600D03*
X169643800Y-103784400D03*
X152962800Y-109372400D03*
X154784800Y-110388400D03*
X172691800Y-103784400D03*
X172691800Y-104673400D03*
X153133800Y-129260600D03*
X173580800Y-103784400D03*
X152708800Y-112166400D03*
X163884800Y-114960400D03*
X154784800Y-118135400D03*
X154022800Y-118135400D03*
X161541200Y-109829600D03*
X161592000Y-104114600D03*
X170659800Y-104673400D03*
X152962800Y-116992400D03*
X161515800Y-111658400D03*
X164640000Y-121488200D03*
X163219600Y-131699000D03*
X171675800Y-104673400D03*
X170659800Y-103784400D03*
%TO.N,+5V*%
X150847800Y-111912400D03*
X165204302Y-117627400D03*
X163547800Y-115798600D03*
X149450800Y-113944400D03*
%TO.N,TPS_TRIG*%
X176882800Y-96418400D03*
X156816800Y-110261400D03*
%TO.N,BRAKE_TRIG*%
X157070800Y-118135400D03*
%TD*%
D16*
%TO.N,+5V*%
X165204302Y-117455102D02*
X163547800Y-115798600D01*
X165204302Y-117627400D02*
X165204302Y-117455102D01*
X149450800Y-113309400D02*
X150847800Y-111912400D01*
X149450800Y-113944400D02*
X149450800Y-113309400D01*
D17*
%TO.N,TPS_TRIG*%
X176882800Y-96418400D02*
X174403800Y-93939400D01*
X161256088Y-112285400D02*
X161775512Y-112285400D01*
X158696400Y-112141000D02*
X161111688Y-112141000D01*
X156816800Y-110261400D02*
X158696400Y-112141000D01*
X174403800Y-93939400D02*
X174403800Y-91855400D01*
X161111688Y-112141000D02*
X161256088Y-112285400D01*
X174190400Y-112141000D02*
X175765200Y-113715800D01*
X161775512Y-112285400D02*
X161919912Y-112141000D01*
X161919912Y-112141000D02*
X174190400Y-112141000D01*
%TO.N,BRAKE_TRIG*%
X157070800Y-118135400D02*
X157121600Y-118135400D01*
X174681000Y-120302400D02*
X175816000Y-121437400D01*
X157121600Y-118135400D02*
X159288600Y-120302400D01*
X159288600Y-120302400D02*
X174681000Y-120302400D01*
%TD*%
%TA.AperFunction,Conductor*%
%TO.N,GND*%
G36*
X178133961Y-82595574D02*
G01*
X178138598Y-82595582D01*
X178152427Y-82598762D01*
X178166269Y-82595630D01*
X178176630Y-82595648D01*
X178186289Y-82596036D01*
X178368572Y-82610382D01*
X178388099Y-82613475D01*
X178588921Y-82661688D01*
X178607715Y-82667794D01*
X178798524Y-82746830D01*
X178816129Y-82755800D01*
X178992229Y-82863714D01*
X179008224Y-82875336D01*
X179165261Y-83009458D01*
X179179242Y-83023439D01*
X179313364Y-83180476D01*
X179324985Y-83196469D01*
X179432900Y-83372571D01*
X179441870Y-83390176D01*
X179520904Y-83580980D01*
X179527012Y-83599779D01*
X179573320Y-83792666D01*
X179575225Y-83800600D01*
X179578318Y-83820128D01*
X179592744Y-84003428D01*
X179593132Y-84013533D01*
X179593118Y-84021699D01*
X179589938Y-84035527D01*
X179593070Y-84049368D01*
X179593063Y-84053278D01*
X179595300Y-84073300D01*
X179595300Y-134162910D01*
X179593126Y-134182061D01*
X179593118Y-134186698D01*
X179589938Y-134200527D01*
X179593070Y-134214369D01*
X179593052Y-134224730D01*
X179592664Y-134234396D01*
X179578318Y-134416672D01*
X179575225Y-134436200D01*
X179527014Y-134637016D01*
X179520906Y-134655815D01*
X179441870Y-134846624D01*
X179432900Y-134864229D01*
X179402384Y-134914027D01*
X179324986Y-135040329D01*
X179313364Y-135056324D01*
X179179242Y-135213361D01*
X179165261Y-135227342D01*
X179008224Y-135361464D01*
X178992231Y-135373085D01*
X178816129Y-135481000D01*
X178798524Y-135489970D01*
X178607715Y-135569006D01*
X178588921Y-135575112D01*
X178388100Y-135623325D01*
X178368572Y-135626418D01*
X178185272Y-135640844D01*
X178175167Y-135641232D01*
X178167001Y-135641218D01*
X178153173Y-135638038D01*
X178139332Y-135641170D01*
X178135422Y-135641163D01*
X178115400Y-135643400D01*
X149996790Y-135643400D01*
X149977639Y-135641226D01*
X149973002Y-135641218D01*
X149959173Y-135638038D01*
X149945331Y-135641170D01*
X149934970Y-135641152D01*
X149925311Y-135640764D01*
X149743028Y-135626418D01*
X149723500Y-135623325D01*
X149522679Y-135575112D01*
X149503885Y-135569006D01*
X149313076Y-135489970D01*
X149295471Y-135481000D01*
X149119369Y-135373085D01*
X149103376Y-135361464D01*
X148946339Y-135227342D01*
X148932358Y-135213361D01*
X148798236Y-135056324D01*
X148786614Y-135040329D01*
X148709216Y-134914027D01*
X148678700Y-134864229D01*
X148669730Y-134846624D01*
X148590694Y-134655815D01*
X148584586Y-134637016D01*
X148536375Y-134436200D01*
X148533282Y-134416672D01*
X148519140Y-134236984D01*
X148519578Y-134212695D01*
X148520049Y-134208601D01*
X148521661Y-134201647D01*
X148521662Y-134200900D01*
X148519454Y-134191222D01*
X148516300Y-134163207D01*
X148516300Y-126561263D01*
X168910500Y-126561263D01*
X168910501Y-128302336D01*
X168922597Y-128363153D01*
X168968680Y-128432120D01*
X169037647Y-128478203D01*
X169049816Y-128480624D01*
X169049817Y-128480624D01*
X169091519Y-128488919D01*
X169098463Y-128490300D01*
X169968859Y-128490300D01*
X170839536Y-128490299D01*
X170900353Y-128478203D01*
X170910670Y-128471310D01*
X170910671Y-128471309D01*
X170959007Y-128439011D01*
X170969320Y-128432120D01*
X171015403Y-128363153D01*
X171017825Y-128350980D01*
X171026293Y-128308405D01*
X171027500Y-128302337D01*
X171027499Y-127416950D01*
X171445482Y-127416950D01*
X171462852Y-127623804D01*
X171520069Y-127823345D01*
X171522887Y-127828827D01*
X171522888Y-127828831D01*
X171612135Y-128002486D01*
X171614955Y-128007973D01*
X171743894Y-128170654D01*
X171748581Y-128174643D01*
X171748584Y-128174646D01*
X171897284Y-128301199D01*
X171901976Y-128305192D01*
X172083180Y-128406464D01*
X172280603Y-128470610D01*
X172486725Y-128495189D01*
X172492860Y-128494717D01*
X172492862Y-128494717D01*
X172687555Y-128479736D01*
X172687560Y-128479735D01*
X172693696Y-128479263D01*
X172699626Y-128477607D01*
X172699628Y-128477607D01*
X172793664Y-128451351D01*
X172893632Y-128423440D01*
X172992558Y-128373469D01*
X173073416Y-128332625D01*
X173073418Y-128332624D01*
X173078917Y-128329846D01*
X173242495Y-128202045D01*
X173378133Y-128044906D01*
X173480667Y-127864414D01*
X173546190Y-127667444D01*
X173572207Y-127461498D01*
X173572622Y-127431800D01*
X173552365Y-127225208D01*
X173492368Y-127026485D01*
X173394913Y-126843201D01*
X173346083Y-126783329D01*
X173267610Y-126687111D01*
X173267607Y-126687108D01*
X173263715Y-126682336D01*
X173256770Y-126676590D01*
X173108518Y-126553945D01*
X173108519Y-126553945D01*
X173103770Y-126550017D01*
X173098353Y-126547088D01*
X173098350Y-126547086D01*
X172926590Y-126454216D01*
X172926585Y-126454214D01*
X172921170Y-126451286D01*
X172722871Y-126389902D01*
X172716746Y-126389258D01*
X172716745Y-126389258D01*
X172522554Y-126368848D01*
X172522552Y-126368848D01*
X172516425Y-126368204D01*
X172447168Y-126374507D01*
X172315836Y-126386459D01*
X172315833Y-126386460D01*
X172309697Y-126387018D01*
X172303791Y-126388756D01*
X172303787Y-126388757D01*
X172182041Y-126424589D01*
X172110560Y-126445627D01*
X171926600Y-126541799D01*
X171764823Y-126671871D01*
X171760865Y-126676588D01*
X171760863Y-126676590D01*
X171756042Y-126682336D01*
X171631391Y-126830889D01*
X171628427Y-126836281D01*
X171628424Y-126836285D01*
X171624622Y-126843201D01*
X171531387Y-127012795D01*
X171468621Y-127210661D01*
X171467935Y-127216778D01*
X171467934Y-127216782D01*
X171466989Y-127225208D01*
X171445482Y-127416950D01*
X171027499Y-127416950D01*
X171027499Y-126561264D01*
X171015403Y-126500447D01*
X170969320Y-126431480D01*
X170900353Y-126385397D01*
X170888184Y-126382976D01*
X170888183Y-126382976D01*
X170845605Y-126374507D01*
X170839537Y-126373300D01*
X169969141Y-126373300D01*
X169098464Y-126373301D01*
X169037647Y-126385397D01*
X169027330Y-126392290D01*
X169027329Y-126392291D01*
X168983065Y-126421868D01*
X168968680Y-126431480D01*
X168922597Y-126500447D01*
X168920176Y-126512616D01*
X168920176Y-126512617D01*
X168914939Y-126538945D01*
X168910500Y-126561263D01*
X148516300Y-126561263D01*
X148516300Y-118129124D01*
X156557109Y-118129124D01*
X156575995Y-118273552D01*
X156579609Y-118281765D01*
X156579610Y-118281769D01*
X156619367Y-118372122D01*
X156634659Y-118406874D01*
X156728383Y-118518373D01*
X156735860Y-118523350D01*
X156842161Y-118594110D01*
X156842163Y-118594111D01*
X156849634Y-118599084D01*
X156988664Y-118642521D01*
X157068829Y-118643990D01*
X157106511Y-118644681D01*
X157174254Y-118665928D01*
X157193297Y-118681565D01*
X159037112Y-120525381D01*
X159044538Y-120533484D01*
X159069618Y-120563373D01*
X159079161Y-120568883D01*
X159079165Y-120568886D01*
X159103397Y-120582876D01*
X159112664Y-120588780D01*
X159144624Y-120611158D01*
X159155275Y-120614012D01*
X159158847Y-120615678D01*
X159162539Y-120617022D01*
X159172082Y-120622531D01*
X159182935Y-120624445D01*
X159182936Y-120624445D01*
X159198396Y-120627171D01*
X159210494Y-120629304D01*
X159221224Y-120631683D01*
X159248256Y-120638926D01*
X159248257Y-120638926D01*
X159258908Y-120641780D01*
X159297781Y-120638379D01*
X159308763Y-120637900D01*
X170038505Y-120637900D01*
X170106626Y-120657902D01*
X170153119Y-120711558D01*
X170163223Y-120781832D01*
X170132141Y-120848210D01*
X170050242Y-120939168D01*
X169961640Y-121092633D01*
X169959602Y-121098906D01*
X169959600Y-121098910D01*
X169948128Y-121134217D01*
X169906880Y-121261165D01*
X169888357Y-121437400D01*
X169906880Y-121613635D01*
X169961640Y-121782167D01*
X170050242Y-121935632D01*
X170168816Y-122067322D01*
X170174158Y-122071203D01*
X170174160Y-122071205D01*
X170306836Y-122167599D01*
X170312178Y-122171480D01*
X170318206Y-122174164D01*
X170318208Y-122174165D01*
X170468031Y-122240870D01*
X170474064Y-122243556D01*
X170480522Y-122244929D01*
X170480526Y-122244930D01*
X170567132Y-122263339D01*
X170647397Y-122280400D01*
X170824603Y-122280400D01*
X170904868Y-122263339D01*
X170991474Y-122244930D01*
X170991478Y-122244929D01*
X170997936Y-122243556D01*
X171003969Y-122240870D01*
X171153792Y-122174165D01*
X171153794Y-122174164D01*
X171159822Y-122171480D01*
X171165164Y-122167599D01*
X171297840Y-122071205D01*
X171297842Y-122071203D01*
X171303184Y-122067322D01*
X171421758Y-121935632D01*
X171510360Y-121782167D01*
X171565120Y-121613635D01*
X171583643Y-121437400D01*
X171565120Y-121261165D01*
X171523872Y-121134217D01*
X171512400Y-121098910D01*
X171512398Y-121098906D01*
X171510360Y-121092633D01*
X171421758Y-120939168D01*
X171339859Y-120848210D01*
X171309142Y-120784203D01*
X171317906Y-120713749D01*
X171363368Y-120659218D01*
X171433495Y-120637900D01*
X172578505Y-120637900D01*
X172646626Y-120657902D01*
X172693119Y-120711558D01*
X172703223Y-120781832D01*
X172672141Y-120848210D01*
X172590242Y-120939168D01*
X172501640Y-121092633D01*
X172499602Y-121098906D01*
X172499600Y-121098910D01*
X172488128Y-121134217D01*
X172446880Y-121261165D01*
X172428357Y-121437400D01*
X172446880Y-121613635D01*
X172501640Y-121782167D01*
X172590242Y-121935632D01*
X172708816Y-122067322D01*
X172714158Y-122071203D01*
X172714160Y-122071205D01*
X172846836Y-122167599D01*
X172852178Y-122171480D01*
X172858206Y-122174164D01*
X172858208Y-122174165D01*
X173008031Y-122240870D01*
X173014064Y-122243556D01*
X173020522Y-122244929D01*
X173020526Y-122244930D01*
X173107132Y-122263339D01*
X173187397Y-122280400D01*
X173364603Y-122280400D01*
X173444868Y-122263339D01*
X173531474Y-122244930D01*
X173531478Y-122244929D01*
X173537936Y-122243556D01*
X173543969Y-122240870D01*
X173693792Y-122174165D01*
X173693794Y-122174164D01*
X173699822Y-122171480D01*
X173705164Y-122167599D01*
X173837840Y-122071205D01*
X173837842Y-122071203D01*
X173843184Y-122067322D01*
X173961758Y-121935632D01*
X174050360Y-121782167D01*
X174105120Y-121613635D01*
X174123643Y-121437400D01*
X174105120Y-121261165D01*
X174063872Y-121134217D01*
X174052400Y-121098910D01*
X174052398Y-121098906D01*
X174050360Y-121092633D01*
X173961758Y-120939168D01*
X173879859Y-120848210D01*
X173849142Y-120784203D01*
X173857906Y-120713749D01*
X173903368Y-120659218D01*
X173973495Y-120637900D01*
X174489842Y-120637900D01*
X174557963Y-120657902D01*
X174578937Y-120674805D01*
X174976037Y-121071905D01*
X175010063Y-121134217D01*
X175006775Y-121199935D01*
X174986880Y-121261165D01*
X174968357Y-121437400D01*
X174986880Y-121613635D01*
X175041640Y-121782167D01*
X175130242Y-121935632D01*
X175248816Y-122067322D01*
X175254158Y-122071203D01*
X175254160Y-122071205D01*
X175386836Y-122167599D01*
X175392178Y-122171480D01*
X175398206Y-122174164D01*
X175398208Y-122174165D01*
X175548031Y-122240870D01*
X175554064Y-122243556D01*
X175560522Y-122244929D01*
X175560526Y-122244930D01*
X175647132Y-122263339D01*
X175727397Y-122280400D01*
X175904603Y-122280400D01*
X175984868Y-122263339D01*
X176071474Y-122244930D01*
X176071478Y-122244929D01*
X176077936Y-122243556D01*
X176083969Y-122240870D01*
X176233792Y-122174165D01*
X176233794Y-122174164D01*
X176239822Y-122171480D01*
X176245164Y-122167599D01*
X176377840Y-122071205D01*
X176377842Y-122071203D01*
X176383184Y-122067322D01*
X176501758Y-121935632D01*
X176590360Y-121782167D01*
X176645120Y-121613635D01*
X176663643Y-121437400D01*
X176645120Y-121261165D01*
X176603872Y-121134217D01*
X176592400Y-121098910D01*
X176592398Y-121098906D01*
X176590360Y-121092633D01*
X176501758Y-120939168D01*
X176383184Y-120807478D01*
X176377842Y-120803597D01*
X176377840Y-120803595D01*
X176245164Y-120707201D01*
X176245163Y-120707200D01*
X176239822Y-120703320D01*
X176233794Y-120700636D01*
X176233792Y-120700635D01*
X176083969Y-120633930D01*
X176077936Y-120631244D01*
X176071478Y-120629871D01*
X176071474Y-120629870D01*
X175983441Y-120611158D01*
X175904603Y-120594400D01*
X175727397Y-120594400D01*
X175563455Y-120629248D01*
X175492665Y-120623846D01*
X175448164Y-120595096D01*
X174932493Y-120079425D01*
X174925066Y-120071321D01*
X174907068Y-120049872D01*
X174899982Y-120041427D01*
X174890437Y-120035916D01*
X174890433Y-120035913D01*
X174866194Y-120021919D01*
X174856923Y-120016013D01*
X174824976Y-119993643D01*
X174814328Y-119990790D01*
X174810754Y-119989123D01*
X174807063Y-119987779D01*
X174797518Y-119982269D01*
X174786665Y-119980355D01*
X174786664Y-119980355D01*
X174771389Y-119977662D01*
X174759096Y-119975494D01*
X174748365Y-119973115D01*
X174721339Y-119965873D01*
X174721334Y-119965873D01*
X174710692Y-119963021D01*
X174699717Y-119963981D01*
X174699715Y-119963981D01*
X174671826Y-119966421D01*
X174660845Y-119966900D01*
X159479759Y-119966900D01*
X159411638Y-119946898D01*
X159390664Y-119929995D01*
X157612283Y-118151615D01*
X157578258Y-118089303D01*
X157576651Y-118080382D01*
X157565155Y-118000107D01*
X157565152Y-118000098D01*
X157563880Y-117991213D01*
X157532108Y-117921334D01*
X157507308Y-117866790D01*
X157507307Y-117866788D01*
X157503592Y-117858618D01*
X157408513Y-117748273D01*
X157286285Y-117669048D01*
X157146734Y-117627314D01*
X157137758Y-117627259D01*
X157137757Y-117627259D01*
X157076444Y-117626885D01*
X157001079Y-117626424D01*
X156861029Y-117666451D01*
X156737842Y-117744176D01*
X156641422Y-117853351D01*
X156637608Y-117861474D01*
X156637607Y-117861476D01*
X156616426Y-117906590D01*
X156579519Y-117985200D01*
X156578139Y-117994065D01*
X156578138Y-117994067D01*
X156561451Y-118101239D01*
X156557109Y-118129124D01*
X148516300Y-118129124D01*
X148516300Y-115792324D01*
X163034109Y-115792324D01*
X163035273Y-115801226D01*
X163035273Y-115801229D01*
X163046896Y-115890114D01*
X163052995Y-115936752D01*
X163056609Y-115944965D01*
X163056610Y-115944969D01*
X163096367Y-116035322D01*
X163111659Y-116070074D01*
X163205383Y-116181573D01*
X163212860Y-116186550D01*
X163319161Y-116257310D01*
X163319163Y-116257311D01*
X163326634Y-116262284D01*
X163465664Y-116305721D01*
X163498627Y-116306325D01*
X163566369Y-116327572D01*
X163585413Y-116343209D01*
X164668631Y-117426426D01*
X164702656Y-117488738D01*
X164704036Y-117534905D01*
X164690611Y-117621124D01*
X164691775Y-117630026D01*
X164691775Y-117630029D01*
X164697164Y-117671239D01*
X164709497Y-117765552D01*
X164713111Y-117773765D01*
X164713112Y-117773769D01*
X164748130Y-117853351D01*
X164768161Y-117898874D01*
X164773936Y-117905744D01*
X164773937Y-117905746D01*
X164856105Y-118003497D01*
X164861885Y-118010373D01*
X164869362Y-118015350D01*
X164975663Y-118086110D01*
X164975665Y-118086111D01*
X164983136Y-118091084D01*
X165122166Y-118134521D01*
X165267800Y-118137190D01*
X165338064Y-118118033D01*
X165399665Y-118101239D01*
X165399666Y-118101239D01*
X165408328Y-118098877D01*
X165416661Y-118093761D01*
X165524804Y-118027361D01*
X165532456Y-118022663D01*
X165539076Y-118015350D01*
X165624175Y-117921334D01*
X165624176Y-117921333D01*
X165630203Y-117914674D01*
X165660657Y-117851818D01*
X165689797Y-117791672D01*
X165689797Y-117791671D01*
X165693712Y-117783591D01*
X165712983Y-117669048D01*
X165717072Y-117644744D01*
X165717072Y-117644741D01*
X165717878Y-117639952D01*
X165718031Y-117627400D01*
X165697382Y-117483213D01*
X165692673Y-117472856D01*
X165640810Y-117358790D01*
X165640809Y-117358788D01*
X165637094Y-117350618D01*
X165542015Y-117240273D01*
X165423713Y-117163592D01*
X165403150Y-117146955D01*
X164092336Y-115836141D01*
X164058310Y-115773829D01*
X164056704Y-115764908D01*
X164042154Y-115663306D01*
X164042153Y-115663303D01*
X164040880Y-115654413D01*
X164037162Y-115646235D01*
X163984308Y-115529990D01*
X163984307Y-115529988D01*
X163980592Y-115521818D01*
X163885513Y-115411473D01*
X163763285Y-115332248D01*
X163623734Y-115290514D01*
X163614758Y-115290459D01*
X163614757Y-115290459D01*
X163553444Y-115290085D01*
X163478079Y-115289624D01*
X163338029Y-115329651D01*
X163214842Y-115407376D01*
X163118422Y-115516551D01*
X163056519Y-115648400D01*
X163055139Y-115657265D01*
X163055138Y-115657267D01*
X163036989Y-115773829D01*
X163034109Y-115792324D01*
X148516300Y-115792324D01*
X148516300Y-113938124D01*
X148937109Y-113938124D01*
X148938273Y-113947026D01*
X148938273Y-113947029D01*
X148949896Y-114035914D01*
X148955995Y-114082552D01*
X148959609Y-114090765D01*
X148959610Y-114090769D01*
X148960037Y-114091739D01*
X149014659Y-114215874D01*
X149020434Y-114222744D01*
X149020435Y-114222746D01*
X149027940Y-114231674D01*
X149108383Y-114327373D01*
X149115860Y-114332350D01*
X149222161Y-114403110D01*
X149222163Y-114403111D01*
X149229634Y-114408084D01*
X149368664Y-114451521D01*
X149514298Y-114454190D01*
X149584562Y-114435033D01*
X149646163Y-114418239D01*
X149646164Y-114418239D01*
X149654826Y-114415877D01*
X149663159Y-114410761D01*
X149716890Y-114377770D01*
X149778954Y-114339663D01*
X149785574Y-114332350D01*
X149870673Y-114238334D01*
X149870674Y-114238333D01*
X149876701Y-114231674D01*
X149885249Y-114214032D01*
X149936295Y-114108672D01*
X149936295Y-114108671D01*
X149940210Y-114100591D01*
X149964376Y-113956952D01*
X149964529Y-113944400D01*
X149943880Y-113800213D01*
X149940162Y-113792035D01*
X149905500Y-113715800D01*
X169837557Y-113715800D01*
X169838247Y-113722365D01*
X169845570Y-113792035D01*
X169856080Y-113892035D01*
X169858119Y-113898309D01*
X169858119Y-113898311D01*
X169874674Y-113949260D01*
X169910840Y-114060567D01*
X169999442Y-114214032D01*
X170003865Y-114218944D01*
X170101495Y-114327373D01*
X170118016Y-114345722D01*
X170123358Y-114349603D01*
X170123360Y-114349605D01*
X170256036Y-114445999D01*
X170261378Y-114449880D01*
X170267406Y-114452564D01*
X170267408Y-114452565D01*
X170271058Y-114454190D01*
X170423264Y-114521956D01*
X170429722Y-114523329D01*
X170429726Y-114523330D01*
X170516332Y-114541739D01*
X170596597Y-114558800D01*
X170773803Y-114558800D01*
X170854068Y-114541739D01*
X170940674Y-114523330D01*
X170940678Y-114523329D01*
X170947136Y-114521956D01*
X171099342Y-114454190D01*
X171102992Y-114452565D01*
X171102994Y-114452564D01*
X171109022Y-114449880D01*
X171114364Y-114445999D01*
X171247040Y-114349605D01*
X171247042Y-114349603D01*
X171252384Y-114345722D01*
X171268906Y-114327373D01*
X171366535Y-114218944D01*
X171370958Y-114214032D01*
X171459560Y-114060567D01*
X171495727Y-113949260D01*
X171512281Y-113898311D01*
X171512281Y-113898309D01*
X171514320Y-113892035D01*
X171524831Y-113792035D01*
X171532153Y-113722365D01*
X171532843Y-113715800D01*
X172377557Y-113715800D01*
X172378247Y-113722365D01*
X172385570Y-113792035D01*
X172396080Y-113892035D01*
X172398119Y-113898309D01*
X172398119Y-113898311D01*
X172414674Y-113949260D01*
X172450840Y-114060567D01*
X172539442Y-114214032D01*
X172543865Y-114218944D01*
X172641495Y-114327373D01*
X172658016Y-114345722D01*
X172663358Y-114349603D01*
X172663360Y-114349605D01*
X172796036Y-114445999D01*
X172801378Y-114449880D01*
X172807406Y-114452564D01*
X172807408Y-114452565D01*
X172811058Y-114454190D01*
X172963264Y-114521956D01*
X172969722Y-114523329D01*
X172969726Y-114523330D01*
X173056332Y-114541739D01*
X173136597Y-114558800D01*
X173313803Y-114558800D01*
X173394068Y-114541739D01*
X173480674Y-114523330D01*
X173480678Y-114523329D01*
X173487136Y-114521956D01*
X173639342Y-114454190D01*
X173642992Y-114452565D01*
X173642994Y-114452564D01*
X173649022Y-114449880D01*
X173654364Y-114445999D01*
X173787040Y-114349605D01*
X173787042Y-114349603D01*
X173792384Y-114345722D01*
X173808906Y-114327373D01*
X173906535Y-114218944D01*
X173910958Y-114214032D01*
X173999560Y-114060567D01*
X174035727Y-113949260D01*
X174052281Y-113898311D01*
X174052281Y-113898309D01*
X174054320Y-113892035D01*
X174064831Y-113792035D01*
X174072153Y-113722365D01*
X174072843Y-113715800D01*
X174062443Y-113616848D01*
X174055010Y-113546126D01*
X174055009Y-113546122D01*
X174054320Y-113539565D01*
X174027784Y-113457896D01*
X174001600Y-113377310D01*
X174001598Y-113377306D01*
X173999560Y-113371033D01*
X173969832Y-113319541D01*
X173914261Y-113223289D01*
X173910958Y-113217568D01*
X173801857Y-113096399D01*
X173796806Y-113090789D01*
X173796805Y-113090788D01*
X173792384Y-113085878D01*
X173787041Y-113081996D01*
X173787040Y-113081995D01*
X173654364Y-112985601D01*
X173654361Y-112985599D01*
X173649022Y-112981720D01*
X173642994Y-112979036D01*
X173642992Y-112979035D01*
X173493169Y-112912330D01*
X173487136Y-112909644D01*
X173480678Y-112908271D01*
X173480674Y-112908270D01*
X173394068Y-112889861D01*
X173313803Y-112872800D01*
X173136597Y-112872800D01*
X173056332Y-112889861D01*
X172969726Y-112908270D01*
X172969722Y-112908271D01*
X172963264Y-112909644D01*
X172851386Y-112959455D01*
X172807410Y-112979035D01*
X172801379Y-112981720D01*
X172658016Y-113085878D01*
X172653595Y-113090788D01*
X172653594Y-113090789D01*
X172648543Y-113096399D01*
X172539442Y-113217568D01*
X172536139Y-113223289D01*
X172480569Y-113319541D01*
X172450840Y-113371033D01*
X172448802Y-113377306D01*
X172448800Y-113377310D01*
X172422616Y-113457896D01*
X172396080Y-113539565D01*
X172395391Y-113546122D01*
X172395390Y-113546126D01*
X172387957Y-113616848D01*
X172377557Y-113715800D01*
X171532843Y-113715800D01*
X171522443Y-113616848D01*
X171515010Y-113546126D01*
X171515009Y-113546122D01*
X171514320Y-113539565D01*
X171487784Y-113457896D01*
X171461600Y-113377310D01*
X171461598Y-113377306D01*
X171459560Y-113371033D01*
X171429832Y-113319541D01*
X171374261Y-113223289D01*
X171370958Y-113217568D01*
X171261857Y-113096399D01*
X171256806Y-113090789D01*
X171256805Y-113090788D01*
X171252384Y-113085878D01*
X171247041Y-113081996D01*
X171247040Y-113081995D01*
X171114364Y-112985601D01*
X171114361Y-112985599D01*
X171109022Y-112981720D01*
X171102994Y-112979036D01*
X171102992Y-112979035D01*
X170953169Y-112912330D01*
X170947136Y-112909644D01*
X170940678Y-112908271D01*
X170940674Y-112908270D01*
X170854068Y-112889861D01*
X170773803Y-112872800D01*
X170596597Y-112872800D01*
X170516332Y-112889861D01*
X170429726Y-112908270D01*
X170429722Y-112908271D01*
X170423264Y-112909644D01*
X170311386Y-112959455D01*
X170267410Y-112979035D01*
X170261379Y-112981720D01*
X170118016Y-113085878D01*
X170113595Y-113090788D01*
X170113594Y-113090789D01*
X170108543Y-113096399D01*
X169999442Y-113217568D01*
X169996139Y-113223289D01*
X169940569Y-113319541D01*
X169910840Y-113371033D01*
X169908802Y-113377306D01*
X169908800Y-113377310D01*
X169882616Y-113457896D01*
X169856080Y-113539565D01*
X169855391Y-113546122D01*
X169855390Y-113546126D01*
X169847957Y-113616848D01*
X169837557Y-113715800D01*
X149905500Y-113715800D01*
X149887308Y-113675790D01*
X149887307Y-113675788D01*
X149883592Y-113667618D01*
X149877733Y-113660818D01*
X149839846Y-113616848D01*
X149810533Y-113552186D01*
X149809300Y-113534601D01*
X149809300Y-113510086D01*
X149829302Y-113441965D01*
X149846205Y-113420991D01*
X150808334Y-112458862D01*
X150870646Y-112424836D01*
X150899738Y-112421978D01*
X150911298Y-112422190D01*
X150985452Y-112401973D01*
X151043163Y-112386239D01*
X151043164Y-112386239D01*
X151051826Y-112383877D01*
X151071032Y-112372085D01*
X151168302Y-112312361D01*
X151175954Y-112307663D01*
X151273701Y-112199674D01*
X151337210Y-112068591D01*
X151361376Y-111924952D01*
X151361452Y-111918713D01*
X151361470Y-111917260D01*
X151361470Y-111917257D01*
X151361529Y-111912400D01*
X151349494Y-111828364D01*
X151342154Y-111777106D01*
X151342153Y-111777103D01*
X151340880Y-111768213D01*
X151337162Y-111760035D01*
X151284308Y-111643790D01*
X151284307Y-111643788D01*
X151280592Y-111635618D01*
X151185513Y-111525273D01*
X151063285Y-111446048D01*
X150923734Y-111404314D01*
X150914758Y-111404259D01*
X150914757Y-111404259D01*
X150853444Y-111403885D01*
X150778079Y-111403424D01*
X150638029Y-111443451D01*
X150514842Y-111521176D01*
X150418422Y-111630351D01*
X150356519Y-111762200D01*
X150355139Y-111771065D01*
X150355138Y-111771067D01*
X150338043Y-111880857D01*
X150307798Y-111945089D01*
X150302638Y-111950566D01*
X149233849Y-113019356D01*
X149217849Y-113032278D01*
X149214938Y-113034927D01*
X149206189Y-113040576D01*
X149199740Y-113048757D01*
X149186802Y-113065168D01*
X149183183Y-113069240D01*
X149183279Y-113069321D01*
X149179920Y-113073285D01*
X149176244Y-113076961D01*
X149165736Y-113091665D01*
X149162208Y-113096366D01*
X149132300Y-113134303D01*
X149129433Y-113142466D01*
X149124406Y-113149501D01*
X149121422Y-113159479D01*
X149110581Y-113195728D01*
X149108755Y-113201348D01*
X149092755Y-113246911D01*
X149092300Y-113252165D01*
X149092300Y-113254875D01*
X149092200Y-113257189D01*
X149092076Y-113257603D01*
X149092011Y-113257600D01*
X149091993Y-113257880D01*
X149090209Y-113263847D01*
X149090618Y-113274251D01*
X149092203Y-113314594D01*
X149092300Y-113319541D01*
X149092300Y-113534423D01*
X149072298Y-113602544D01*
X149060742Y-113617829D01*
X149021422Y-113662351D01*
X149017608Y-113670474D01*
X149017607Y-113670476D01*
X148993245Y-113722365D01*
X148959519Y-113794200D01*
X148937109Y-113938124D01*
X148516300Y-113938124D01*
X148516300Y-110255124D01*
X156303109Y-110255124D01*
X156321995Y-110399552D01*
X156325609Y-110407765D01*
X156325610Y-110407769D01*
X156365367Y-110498122D01*
X156380659Y-110532874D01*
X156474383Y-110644373D01*
X156481860Y-110649350D01*
X156588161Y-110720110D01*
X156588163Y-110720111D01*
X156595634Y-110725084D01*
X156734664Y-110768521D01*
X156800762Y-110769732D01*
X156868504Y-110790979D01*
X156887548Y-110806616D01*
X158444912Y-112363981D01*
X158452338Y-112372084D01*
X158477418Y-112401973D01*
X158486961Y-112407483D01*
X158486965Y-112407486D01*
X158511197Y-112421476D01*
X158520464Y-112427380D01*
X158552424Y-112449758D01*
X158563075Y-112452612D01*
X158566647Y-112454278D01*
X158570339Y-112455622D01*
X158579882Y-112461131D01*
X158590735Y-112463045D01*
X158590736Y-112463045D01*
X158606196Y-112465771D01*
X158618294Y-112467904D01*
X158629024Y-112470283D01*
X158656056Y-112477526D01*
X158656057Y-112477526D01*
X158666708Y-112480380D01*
X158705581Y-112476979D01*
X158716563Y-112476500D01*
X160919721Y-112476500D01*
X160987842Y-112496502D01*
X161016241Y-112521507D01*
X161037106Y-112546373D01*
X161046651Y-112551884D01*
X161070889Y-112565878D01*
X161080157Y-112571782D01*
X161112112Y-112594157D01*
X161122759Y-112597010D01*
X161126334Y-112598677D01*
X161130025Y-112600021D01*
X161139570Y-112605531D01*
X161150423Y-112607445D01*
X161150424Y-112607445D01*
X161165699Y-112610138D01*
X161177992Y-112612306D01*
X161188723Y-112614685D01*
X161215744Y-112621925D01*
X161215745Y-112621925D01*
X161226396Y-112624779D01*
X161265258Y-112621379D01*
X161276240Y-112620900D01*
X161755357Y-112620900D01*
X161766338Y-112621379D01*
X161794227Y-112623819D01*
X161794229Y-112623819D01*
X161805204Y-112624779D01*
X161815846Y-112621927D01*
X161815851Y-112621927D01*
X161842877Y-112614685D01*
X161853608Y-112612306D01*
X161865901Y-112610138D01*
X161881176Y-112607445D01*
X161881177Y-112607445D01*
X161892030Y-112605531D01*
X161901575Y-112600021D01*
X161905266Y-112598677D01*
X161908840Y-112597010D01*
X161919488Y-112594157D01*
X161951441Y-112571783D01*
X161960706Y-112565881D01*
X161984945Y-112551887D01*
X161984949Y-112551884D01*
X161994494Y-112546373D01*
X162001579Y-112537929D01*
X162001583Y-112537926D01*
X162015357Y-112521510D01*
X162074466Y-112482183D01*
X162111879Y-112476500D01*
X173999242Y-112476500D01*
X174067363Y-112496502D01*
X174088337Y-112513405D01*
X174925237Y-113350305D01*
X174959263Y-113412617D01*
X174955975Y-113478335D01*
X174936080Y-113539565D01*
X174935391Y-113546122D01*
X174935390Y-113546126D01*
X174927957Y-113616848D01*
X174917557Y-113715800D01*
X174918247Y-113722365D01*
X174925570Y-113792035D01*
X174936080Y-113892035D01*
X174938119Y-113898309D01*
X174938119Y-113898311D01*
X174954674Y-113949260D01*
X174990840Y-114060567D01*
X175079442Y-114214032D01*
X175083865Y-114218944D01*
X175181495Y-114327373D01*
X175198016Y-114345722D01*
X175203358Y-114349603D01*
X175203360Y-114349605D01*
X175336036Y-114445999D01*
X175341378Y-114449880D01*
X175347406Y-114452564D01*
X175347408Y-114452565D01*
X175351058Y-114454190D01*
X175503264Y-114521956D01*
X175509722Y-114523329D01*
X175509726Y-114523330D01*
X175596332Y-114541739D01*
X175676597Y-114558800D01*
X175853803Y-114558800D01*
X175934068Y-114541739D01*
X176020674Y-114523330D01*
X176020678Y-114523329D01*
X176027136Y-114521956D01*
X176179342Y-114454190D01*
X176182992Y-114452565D01*
X176182994Y-114452564D01*
X176189022Y-114449880D01*
X176194364Y-114445999D01*
X176327040Y-114349605D01*
X176327042Y-114349603D01*
X176332384Y-114345722D01*
X176348906Y-114327373D01*
X176446535Y-114218944D01*
X176450958Y-114214032D01*
X176539560Y-114060567D01*
X176575727Y-113949260D01*
X176592281Y-113898311D01*
X176592281Y-113898309D01*
X176594320Y-113892035D01*
X176604831Y-113792035D01*
X176612153Y-113722365D01*
X176612843Y-113715800D01*
X176602443Y-113616848D01*
X176595010Y-113546126D01*
X176595009Y-113546122D01*
X176594320Y-113539565D01*
X176567784Y-113457896D01*
X176541600Y-113377310D01*
X176541598Y-113377306D01*
X176539560Y-113371033D01*
X176509832Y-113319541D01*
X176454261Y-113223289D01*
X176450958Y-113217568D01*
X176341857Y-113096399D01*
X176336806Y-113090789D01*
X176336805Y-113090788D01*
X176332384Y-113085878D01*
X176327041Y-113081996D01*
X176327040Y-113081995D01*
X176194364Y-112985601D01*
X176194361Y-112985599D01*
X176189022Y-112981720D01*
X176182994Y-112979036D01*
X176182992Y-112979035D01*
X176033169Y-112912330D01*
X176027136Y-112909644D01*
X176020678Y-112908271D01*
X176020674Y-112908270D01*
X175934068Y-112889861D01*
X175853803Y-112872800D01*
X175676597Y-112872800D01*
X175670129Y-112874175D01*
X175670128Y-112874175D01*
X175512657Y-112907647D01*
X175441867Y-112902246D01*
X175397368Y-112873499D01*
X174441882Y-111918014D01*
X174434466Y-111909921D01*
X174430245Y-111904891D01*
X174409382Y-111880027D01*
X174399837Y-111874516D01*
X174399833Y-111874513D01*
X174375594Y-111860519D01*
X174366323Y-111854613D01*
X174334376Y-111832243D01*
X174323728Y-111829390D01*
X174320154Y-111827723D01*
X174316463Y-111826379D01*
X174306918Y-111820869D01*
X174296065Y-111818955D01*
X174296064Y-111818955D01*
X174280789Y-111816262D01*
X174268496Y-111814094D01*
X174257765Y-111811715D01*
X174230739Y-111804473D01*
X174230734Y-111804473D01*
X174220092Y-111801621D01*
X174209117Y-111802581D01*
X174209115Y-111802581D01*
X174181226Y-111805021D01*
X174170245Y-111805500D01*
X161940064Y-111805500D01*
X161929082Y-111805021D01*
X161922818Y-111804473D01*
X161890220Y-111801621D01*
X161879569Y-111804475D01*
X161879568Y-111804475D01*
X161852547Y-111811715D01*
X161841816Y-111814094D01*
X161829523Y-111816262D01*
X161814248Y-111818955D01*
X161814247Y-111818955D01*
X161803394Y-111820869D01*
X161793849Y-111826379D01*
X161790158Y-111827723D01*
X161786583Y-111829390D01*
X161775936Y-111832243D01*
X161766907Y-111838565D01*
X161743982Y-111854617D01*
X161734718Y-111860519D01*
X161700930Y-111880027D01*
X161680066Y-111904892D01*
X161620958Y-111944217D01*
X161583545Y-111949900D01*
X161448055Y-111949900D01*
X161379934Y-111929898D01*
X161351533Y-111904890D01*
X161337759Y-111888474D01*
X161337754Y-111888470D01*
X161330670Y-111880027D01*
X161321125Y-111874516D01*
X161321121Y-111874513D01*
X161296882Y-111860519D01*
X161287611Y-111854613D01*
X161255664Y-111832243D01*
X161245016Y-111829390D01*
X161241442Y-111827723D01*
X161237751Y-111826379D01*
X161228206Y-111820869D01*
X161217353Y-111818955D01*
X161217352Y-111818955D01*
X161202077Y-111816262D01*
X161189784Y-111814094D01*
X161179053Y-111811715D01*
X161152027Y-111804473D01*
X161152022Y-111804473D01*
X161141380Y-111801621D01*
X161130405Y-111802581D01*
X161130403Y-111802581D01*
X161102514Y-111805021D01*
X161091533Y-111805500D01*
X158887559Y-111805500D01*
X158819438Y-111785498D01*
X158798464Y-111768595D01*
X157366416Y-110336547D01*
X157332390Y-110274235D01*
X157330586Y-110261392D01*
X157330529Y-110261400D01*
X157311154Y-110126106D01*
X157311153Y-110126103D01*
X157309880Y-110117213D01*
X157306162Y-110109035D01*
X157253308Y-109992790D01*
X157253307Y-109992788D01*
X157249592Y-109984618D01*
X157154513Y-109874273D01*
X157032285Y-109795048D01*
X156892734Y-109753314D01*
X156883758Y-109753259D01*
X156883757Y-109753259D01*
X156822444Y-109752885D01*
X156747079Y-109752424D01*
X156607029Y-109792451D01*
X156483842Y-109870176D01*
X156387422Y-109979351D01*
X156325519Y-110111200D01*
X156303109Y-110255124D01*
X148516300Y-110255124D01*
X148516300Y-99418350D01*
X169357095Y-99418350D01*
X169361763Y-99424924D01*
X169563111Y-99542583D01*
X169572394Y-99547030D01*
X169791708Y-99630778D01*
X169801606Y-99633654D01*
X170031653Y-99680457D01*
X170041881Y-99681676D01*
X170276481Y-99690279D01*
X170286767Y-99689812D01*
X170519623Y-99659982D01*
X170529709Y-99657839D01*
X170754562Y-99590380D01*
X170764157Y-99586620D01*
X170974973Y-99483341D01*
X170983823Y-99478066D01*
X171058047Y-99425123D01*
X171066447Y-99414424D01*
X171059458Y-99401268D01*
X170226612Y-98568422D01*
X170212668Y-98560808D01*
X170210835Y-98560939D01*
X170204220Y-98565190D01*
X169364355Y-99405055D01*
X169357095Y-99418350D01*
X148516300Y-99418350D01*
X148516300Y-98165090D01*
X152258108Y-98165090D01*
X152272424Y-98383512D01*
X152273845Y-98389108D01*
X152273846Y-98389113D01*
X152303870Y-98507330D01*
X152326305Y-98595667D01*
X152417945Y-98794451D01*
X152544277Y-98973206D01*
X152701069Y-99125946D01*
X152705865Y-99129151D01*
X152705868Y-99129153D01*
X152779633Y-99178441D01*
X152883069Y-99247555D01*
X152888372Y-99249833D01*
X152888375Y-99249835D01*
X152973180Y-99286270D01*
X153084184Y-99333961D01*
X153162017Y-99351573D01*
X153292040Y-99380994D01*
X153292045Y-99380995D01*
X153297677Y-99382269D01*
X153303448Y-99382496D01*
X153303450Y-99382496D01*
X153368810Y-99385064D01*
X153516399Y-99390863D01*
X153624712Y-99375158D01*
X153727310Y-99360283D01*
X153727315Y-99360282D01*
X153733024Y-99359454D01*
X153738488Y-99357599D01*
X153738493Y-99357598D01*
X153934827Y-99290952D01*
X153934832Y-99290950D01*
X153940299Y-99289094D01*
X154020204Y-99244345D01*
X154126233Y-99184966D01*
X154126237Y-99184963D01*
X154131280Y-99182139D01*
X154299572Y-99042172D01*
X154439539Y-98873880D01*
X154442363Y-98868837D01*
X154442366Y-98868833D01*
X154543670Y-98687942D01*
X154543671Y-98687940D01*
X154546494Y-98682899D01*
X154548350Y-98677432D01*
X154548352Y-98677427D01*
X154614998Y-98481093D01*
X154614999Y-98481088D01*
X154616854Y-98475624D01*
X154617682Y-98469915D01*
X154617683Y-98469910D01*
X154636698Y-98338763D01*
X154648263Y-98258999D01*
X154649902Y-98196400D01*
X154647025Y-98165090D01*
X156448108Y-98165090D01*
X156462424Y-98383512D01*
X156463845Y-98389108D01*
X156463846Y-98389113D01*
X156493870Y-98507330D01*
X156516305Y-98595667D01*
X156607945Y-98794451D01*
X156734277Y-98973206D01*
X156891069Y-99125946D01*
X156895865Y-99129151D01*
X156895868Y-99129153D01*
X156969633Y-99178441D01*
X157073069Y-99247555D01*
X157078372Y-99249833D01*
X157078375Y-99249835D01*
X157163180Y-99286270D01*
X157274184Y-99333961D01*
X157352017Y-99351573D01*
X157482040Y-99380994D01*
X157482045Y-99380995D01*
X157487677Y-99382269D01*
X157493448Y-99382496D01*
X157493450Y-99382496D01*
X157558810Y-99385064D01*
X157706399Y-99390863D01*
X157814712Y-99375158D01*
X157917310Y-99360283D01*
X157917315Y-99360282D01*
X157923024Y-99359454D01*
X157928488Y-99357599D01*
X157928493Y-99357598D01*
X158124827Y-99290952D01*
X158124832Y-99290950D01*
X158130299Y-99289094D01*
X158210204Y-99244345D01*
X158316233Y-99184966D01*
X158316237Y-99184963D01*
X158321280Y-99182139D01*
X158489572Y-99042172D01*
X158629539Y-98873880D01*
X158632363Y-98868837D01*
X158632366Y-98868833D01*
X158733670Y-98687942D01*
X158733671Y-98687940D01*
X158736494Y-98682899D01*
X158738350Y-98677432D01*
X158738352Y-98677427D01*
X158804998Y-98481093D01*
X158804999Y-98481088D01*
X158806854Y-98475624D01*
X158807682Y-98469915D01*
X158807683Y-98469910D01*
X158826698Y-98338763D01*
X158838263Y-98258999D01*
X158839902Y-98196400D01*
X158837025Y-98165090D01*
X160638108Y-98165090D01*
X160652424Y-98383512D01*
X160653845Y-98389108D01*
X160653846Y-98389113D01*
X160683870Y-98507330D01*
X160706305Y-98595667D01*
X160797945Y-98794451D01*
X160924277Y-98973206D01*
X161081069Y-99125946D01*
X161085865Y-99129151D01*
X161085868Y-99129153D01*
X161159633Y-99178441D01*
X161263069Y-99247555D01*
X161268372Y-99249833D01*
X161268375Y-99249835D01*
X161353180Y-99286270D01*
X161464184Y-99333961D01*
X161542017Y-99351573D01*
X161672040Y-99380994D01*
X161672045Y-99380995D01*
X161677677Y-99382269D01*
X161683448Y-99382496D01*
X161683450Y-99382496D01*
X161748810Y-99385064D01*
X161896399Y-99390863D01*
X162004712Y-99375158D01*
X162107310Y-99360283D01*
X162107315Y-99360282D01*
X162113024Y-99359454D01*
X162118488Y-99357599D01*
X162118493Y-99357598D01*
X162314827Y-99290952D01*
X162314832Y-99290950D01*
X162320299Y-99289094D01*
X162400204Y-99244345D01*
X162506233Y-99184966D01*
X162506237Y-99184963D01*
X162511280Y-99182139D01*
X162679572Y-99042172D01*
X162819539Y-98873880D01*
X162822363Y-98868837D01*
X162822366Y-98868833D01*
X162923670Y-98687942D01*
X162923671Y-98687940D01*
X162926494Y-98682899D01*
X162928350Y-98677432D01*
X162928352Y-98677427D01*
X162994998Y-98481093D01*
X162994999Y-98481088D01*
X162996854Y-98475624D01*
X162997682Y-98469915D01*
X162997683Y-98469910D01*
X163016698Y-98338763D01*
X163028263Y-98258999D01*
X163029902Y-98196400D01*
X163027025Y-98165090D01*
X164828108Y-98165090D01*
X164842424Y-98383512D01*
X164843845Y-98389108D01*
X164843846Y-98389113D01*
X164873870Y-98507330D01*
X164896305Y-98595667D01*
X164987945Y-98794451D01*
X165114277Y-98973206D01*
X165271069Y-99125946D01*
X165275865Y-99129151D01*
X165275868Y-99129153D01*
X165349633Y-99178441D01*
X165453069Y-99247555D01*
X165458372Y-99249833D01*
X165458375Y-99249835D01*
X165543180Y-99286270D01*
X165654184Y-99333961D01*
X165732017Y-99351573D01*
X165862040Y-99380994D01*
X165862045Y-99380995D01*
X165867677Y-99382269D01*
X165873448Y-99382496D01*
X165873450Y-99382496D01*
X165938810Y-99385064D01*
X166086399Y-99390863D01*
X166194712Y-99375158D01*
X166297310Y-99360283D01*
X166297315Y-99360282D01*
X166303024Y-99359454D01*
X166308488Y-99357599D01*
X166308493Y-99357598D01*
X166504827Y-99290952D01*
X166504832Y-99290950D01*
X166510299Y-99289094D01*
X166590204Y-99244345D01*
X166696233Y-99184966D01*
X166696237Y-99184963D01*
X166701280Y-99182139D01*
X166869572Y-99042172D01*
X167009539Y-98873880D01*
X167012363Y-98868837D01*
X167012366Y-98868833D01*
X167113670Y-98687942D01*
X167113671Y-98687940D01*
X167116494Y-98682899D01*
X167118350Y-98677432D01*
X167118352Y-98677427D01*
X167184998Y-98481093D01*
X167184999Y-98481088D01*
X167186854Y-98475624D01*
X167187682Y-98469915D01*
X167187683Y-98469910D01*
X167206698Y-98338763D01*
X167218263Y-98258999D01*
X167219902Y-98196400D01*
X167217018Y-98165015D01*
X168718935Y-98165015D01*
X168732449Y-98399379D01*
X168733885Y-98409600D01*
X168785495Y-98638605D01*
X168788574Y-98648434D01*
X168876898Y-98865948D01*
X168881543Y-98875144D01*
X168983901Y-99042178D01*
X168994357Y-99051639D01*
X169003135Y-99047855D01*
X169841778Y-98209212D01*
X169848156Y-98197532D01*
X170578208Y-98197532D01*
X170578339Y-98199365D01*
X170582590Y-98205980D01*
X171419218Y-99042608D01*
X171431229Y-99049167D01*
X171442968Y-99040199D01*
X171492765Y-98970898D01*
X171498080Y-98962053D01*
X171602087Y-98751611D01*
X171605886Y-98742016D01*
X171674127Y-98517411D01*
X171676306Y-98507330D01*
X171707185Y-98272782D01*
X171707704Y-98266107D01*
X171709326Y-98199764D01*
X171709132Y-98193047D01*
X171706833Y-98165090D01*
X173208108Y-98165090D01*
X173222424Y-98383512D01*
X173223845Y-98389108D01*
X173223846Y-98389113D01*
X173253870Y-98507330D01*
X173276305Y-98595667D01*
X173367945Y-98794451D01*
X173494277Y-98973206D01*
X173651069Y-99125946D01*
X173655865Y-99129151D01*
X173655868Y-99129153D01*
X173729633Y-99178441D01*
X173833069Y-99247555D01*
X173838372Y-99249833D01*
X173838375Y-99249835D01*
X173923180Y-99286270D01*
X174034184Y-99333961D01*
X174112017Y-99351573D01*
X174242040Y-99380994D01*
X174242045Y-99380995D01*
X174247677Y-99382269D01*
X174253448Y-99382496D01*
X174253450Y-99382496D01*
X174318810Y-99385064D01*
X174466399Y-99390863D01*
X174574712Y-99375158D01*
X174677310Y-99360283D01*
X174677315Y-99360282D01*
X174683024Y-99359454D01*
X174688488Y-99357599D01*
X174688493Y-99357598D01*
X174884827Y-99290952D01*
X174884832Y-99290950D01*
X174890299Y-99289094D01*
X174970204Y-99244345D01*
X175076233Y-99184966D01*
X175076237Y-99184963D01*
X175081280Y-99182139D01*
X175249572Y-99042172D01*
X175389539Y-98873880D01*
X175392363Y-98868837D01*
X175392366Y-98868833D01*
X175493670Y-98687942D01*
X175493671Y-98687940D01*
X175496494Y-98682899D01*
X175498350Y-98677432D01*
X175498352Y-98677427D01*
X175564998Y-98481093D01*
X175564999Y-98481088D01*
X175566854Y-98475624D01*
X175567682Y-98469915D01*
X175567683Y-98469910D01*
X175586698Y-98338763D01*
X175598263Y-98258999D01*
X175599902Y-98196400D01*
X175579873Y-97978428D01*
X175573912Y-97957289D01*
X175522025Y-97773314D01*
X175522024Y-97773312D01*
X175520457Y-97767755D01*
X175506115Y-97738672D01*
X175426200Y-97576618D01*
X175426197Y-97576614D01*
X175423645Y-97571438D01*
X175292677Y-97396052D01*
X175131941Y-97247468D01*
X175127058Y-97244387D01*
X175127054Y-97244384D01*
X174951702Y-97133746D01*
X174951703Y-97133746D01*
X174946819Y-97130665D01*
X174743511Y-97049554D01*
X174528827Y-97006850D01*
X174523052Y-97006774D01*
X174523048Y-97006774D01*
X174413302Y-97005338D01*
X174309955Y-97003985D01*
X174304258Y-97004964D01*
X174304257Y-97004964D01*
X174099923Y-97040075D01*
X174094226Y-97041054D01*
X173888865Y-97116816D01*
X173883904Y-97119768D01*
X173883903Y-97119768D01*
X173705717Y-97225777D01*
X173705714Y-97225779D01*
X173700749Y-97228733D01*
X173536178Y-97373058D01*
X173532603Y-97377593D01*
X173532602Y-97377594D01*
X173447685Y-97485311D01*
X173400664Y-97544956D01*
X173397976Y-97550065D01*
X173301435Y-97733560D01*
X173301433Y-97733565D01*
X173298746Y-97738672D01*
X173233836Y-97947716D01*
X173208108Y-98165090D01*
X171706833Y-98165090D01*
X171689749Y-97957289D01*
X171688064Y-97947109D01*
X171630875Y-97719429D01*
X171627555Y-97709678D01*
X171533944Y-97494386D01*
X171529077Y-97485311D01*
X171442688Y-97351773D01*
X171432003Y-97342570D01*
X171422436Y-97346974D01*
X170585822Y-98183588D01*
X170578208Y-98197532D01*
X169848156Y-98197532D01*
X169849392Y-98195268D01*
X169849261Y-98193435D01*
X169845010Y-98186820D01*
X169008295Y-97350105D01*
X168996759Y-97343805D01*
X168984476Y-97353429D01*
X168916293Y-97453381D01*
X168911200Y-97462345D01*
X168812357Y-97675284D01*
X168808800Y-97684952D01*
X168746065Y-97911168D01*
X168744134Y-97921288D01*
X168719187Y-98154726D01*
X168718935Y-98165015D01*
X167217018Y-98165015D01*
X167199873Y-97978428D01*
X167193912Y-97957289D01*
X167142025Y-97773314D01*
X167142024Y-97773312D01*
X167140457Y-97767755D01*
X167126115Y-97738672D01*
X167046200Y-97576618D01*
X167046197Y-97576614D01*
X167043645Y-97571438D01*
X166912677Y-97396052D01*
X166751941Y-97247468D01*
X166747058Y-97244387D01*
X166747054Y-97244384D01*
X166571702Y-97133746D01*
X166571703Y-97133746D01*
X166566819Y-97130665D01*
X166363511Y-97049554D01*
X166148827Y-97006850D01*
X166143052Y-97006774D01*
X166143048Y-97006774D01*
X166033302Y-97005338D01*
X165929955Y-97003985D01*
X165924258Y-97004964D01*
X165924257Y-97004964D01*
X165719923Y-97040075D01*
X165714226Y-97041054D01*
X165508865Y-97116816D01*
X165503904Y-97119768D01*
X165503903Y-97119768D01*
X165325717Y-97225777D01*
X165325714Y-97225779D01*
X165320749Y-97228733D01*
X165156178Y-97373058D01*
X165152603Y-97377593D01*
X165152602Y-97377594D01*
X165067685Y-97485311D01*
X165020664Y-97544956D01*
X165017976Y-97550065D01*
X164921435Y-97733560D01*
X164921433Y-97733565D01*
X164918746Y-97738672D01*
X164853836Y-97947716D01*
X164828108Y-98165090D01*
X163027025Y-98165090D01*
X163009873Y-97978428D01*
X163003912Y-97957289D01*
X162952025Y-97773314D01*
X162952024Y-97773312D01*
X162950457Y-97767755D01*
X162936115Y-97738672D01*
X162856200Y-97576618D01*
X162856197Y-97576614D01*
X162853645Y-97571438D01*
X162722677Y-97396052D01*
X162561941Y-97247468D01*
X162557058Y-97244387D01*
X162557054Y-97244384D01*
X162381702Y-97133746D01*
X162381703Y-97133746D01*
X162376819Y-97130665D01*
X162173511Y-97049554D01*
X161958827Y-97006850D01*
X161953052Y-97006774D01*
X161953048Y-97006774D01*
X161843302Y-97005338D01*
X161739955Y-97003985D01*
X161734258Y-97004964D01*
X161734257Y-97004964D01*
X161529923Y-97040075D01*
X161524226Y-97041054D01*
X161318865Y-97116816D01*
X161313904Y-97119768D01*
X161313903Y-97119768D01*
X161135717Y-97225777D01*
X161135714Y-97225779D01*
X161130749Y-97228733D01*
X160966178Y-97373058D01*
X160962603Y-97377593D01*
X160962602Y-97377594D01*
X160877685Y-97485311D01*
X160830664Y-97544956D01*
X160827976Y-97550065D01*
X160731435Y-97733560D01*
X160731433Y-97733565D01*
X160728746Y-97738672D01*
X160663836Y-97947716D01*
X160638108Y-98165090D01*
X158837025Y-98165090D01*
X158819873Y-97978428D01*
X158813912Y-97957289D01*
X158762025Y-97773314D01*
X158762024Y-97773312D01*
X158760457Y-97767755D01*
X158746115Y-97738672D01*
X158666200Y-97576618D01*
X158666197Y-97576614D01*
X158663645Y-97571438D01*
X158532677Y-97396052D01*
X158371941Y-97247468D01*
X158367058Y-97244387D01*
X158367054Y-97244384D01*
X158191702Y-97133746D01*
X158191703Y-97133746D01*
X158186819Y-97130665D01*
X157983511Y-97049554D01*
X157768827Y-97006850D01*
X157763052Y-97006774D01*
X157763048Y-97006774D01*
X157653302Y-97005338D01*
X157549955Y-97003985D01*
X157544258Y-97004964D01*
X157544257Y-97004964D01*
X157339923Y-97040075D01*
X157334226Y-97041054D01*
X157128865Y-97116816D01*
X157123904Y-97119768D01*
X157123903Y-97119768D01*
X156945717Y-97225777D01*
X156945714Y-97225779D01*
X156940749Y-97228733D01*
X156776178Y-97373058D01*
X156772603Y-97377593D01*
X156772602Y-97377594D01*
X156687685Y-97485311D01*
X156640664Y-97544956D01*
X156637976Y-97550065D01*
X156541435Y-97733560D01*
X156541433Y-97733565D01*
X156538746Y-97738672D01*
X156473836Y-97947716D01*
X156448108Y-98165090D01*
X154647025Y-98165090D01*
X154629873Y-97978428D01*
X154623912Y-97957289D01*
X154572025Y-97773314D01*
X154572024Y-97773312D01*
X154570457Y-97767755D01*
X154556115Y-97738672D01*
X154476200Y-97576618D01*
X154476197Y-97576614D01*
X154473645Y-97571438D01*
X154342677Y-97396052D01*
X154181941Y-97247468D01*
X154177058Y-97244387D01*
X154177054Y-97244384D01*
X154001702Y-97133746D01*
X154001703Y-97133746D01*
X153996819Y-97130665D01*
X153793511Y-97049554D01*
X153578827Y-97006850D01*
X153573052Y-97006774D01*
X153573048Y-97006774D01*
X153463302Y-97005338D01*
X153359955Y-97003985D01*
X153354258Y-97004964D01*
X153354257Y-97004964D01*
X153149923Y-97040075D01*
X153144226Y-97041054D01*
X152938865Y-97116816D01*
X152933904Y-97119768D01*
X152933903Y-97119768D01*
X152755717Y-97225777D01*
X152755714Y-97225779D01*
X152750749Y-97228733D01*
X152586178Y-97373058D01*
X152582603Y-97377593D01*
X152582602Y-97377594D01*
X152497685Y-97485311D01*
X152450664Y-97544956D01*
X152447976Y-97550065D01*
X152351435Y-97733560D01*
X152351433Y-97733565D01*
X152348746Y-97738672D01*
X152283836Y-97947716D01*
X152258108Y-98165090D01*
X148516300Y-98165090D01*
X148516300Y-96978185D01*
X169360381Y-96978185D01*
X169367125Y-96990515D01*
X170200988Y-97824378D01*
X170214932Y-97831992D01*
X170216765Y-97831861D01*
X170223380Y-97827610D01*
X171061530Y-96989460D01*
X171068550Y-96976604D01*
X171060776Y-96965934D01*
X171045515Y-96953881D01*
X171036932Y-96948178D01*
X170831410Y-96834725D01*
X170822011Y-96830500D01*
X170600722Y-96752137D01*
X170590752Y-96749503D01*
X170359639Y-96708337D01*
X170349385Y-96707367D01*
X170114642Y-96704498D01*
X170104358Y-96705218D01*
X169872309Y-96740727D01*
X169862281Y-96743116D01*
X169639147Y-96816047D01*
X169629638Y-96820044D01*
X169421412Y-96928440D01*
X169412694Y-96933929D01*
X169368834Y-96966860D01*
X169360381Y-96978185D01*
X148516300Y-96978185D01*
X148516300Y-91815090D01*
X152258108Y-91815090D01*
X152272424Y-92033512D01*
X152273845Y-92039108D01*
X152273846Y-92039113D01*
X152324884Y-92240072D01*
X152326305Y-92245667D01*
X152417945Y-92444451D01*
X152544277Y-92623206D01*
X152701069Y-92775946D01*
X152705865Y-92779151D01*
X152705868Y-92779153D01*
X152779633Y-92828441D01*
X152883069Y-92897555D01*
X152888372Y-92899833D01*
X152888375Y-92899835D01*
X153078877Y-92981681D01*
X153084184Y-92983961D01*
X153162017Y-93001573D01*
X153292040Y-93030994D01*
X153292045Y-93030995D01*
X153297677Y-93032269D01*
X153303448Y-93032496D01*
X153303450Y-93032496D01*
X153368810Y-93035064D01*
X153516399Y-93040863D01*
X153624712Y-93025158D01*
X153727310Y-93010283D01*
X153727315Y-93010282D01*
X153733024Y-93009454D01*
X153738488Y-93007599D01*
X153738493Y-93007598D01*
X153934827Y-92940952D01*
X153934832Y-92940950D01*
X153940299Y-92939094D01*
X154020204Y-92894345D01*
X154126233Y-92834966D01*
X154126237Y-92834963D01*
X154131280Y-92832139D01*
X154299572Y-92692172D01*
X154439539Y-92523880D01*
X154442363Y-92518837D01*
X154442366Y-92518833D01*
X154543670Y-92337942D01*
X154543671Y-92337940D01*
X154546494Y-92332899D01*
X154548350Y-92327432D01*
X154548352Y-92327427D01*
X154614998Y-92131093D01*
X154614999Y-92131088D01*
X154616854Y-92125624D01*
X154617682Y-92119915D01*
X154617683Y-92119910D01*
X154647730Y-91912673D01*
X154648263Y-91908999D01*
X154649902Y-91846400D01*
X154647025Y-91815090D01*
X156448108Y-91815090D01*
X156462424Y-92033512D01*
X156463845Y-92039108D01*
X156463846Y-92039113D01*
X156514884Y-92240072D01*
X156516305Y-92245667D01*
X156607945Y-92444451D01*
X156734277Y-92623206D01*
X156891069Y-92775946D01*
X156895865Y-92779151D01*
X156895868Y-92779153D01*
X156969633Y-92828441D01*
X157073069Y-92897555D01*
X157078372Y-92899833D01*
X157078375Y-92899835D01*
X157268877Y-92981681D01*
X157274184Y-92983961D01*
X157352017Y-93001573D01*
X157482040Y-93030994D01*
X157482045Y-93030995D01*
X157487677Y-93032269D01*
X157493448Y-93032496D01*
X157493450Y-93032496D01*
X157558810Y-93035064D01*
X157706399Y-93040863D01*
X157814712Y-93025158D01*
X157917310Y-93010283D01*
X157917315Y-93010282D01*
X157923024Y-93009454D01*
X157928488Y-93007599D01*
X157928493Y-93007598D01*
X158124827Y-92940952D01*
X158124832Y-92940950D01*
X158130299Y-92939094D01*
X158210204Y-92894345D01*
X158316233Y-92834966D01*
X158316237Y-92834963D01*
X158321280Y-92832139D01*
X158489572Y-92692172D01*
X158629539Y-92523880D01*
X158632363Y-92518837D01*
X158632366Y-92518833D01*
X158733670Y-92337942D01*
X158733671Y-92337940D01*
X158736494Y-92332899D01*
X158738350Y-92327432D01*
X158738352Y-92327427D01*
X158804998Y-92131093D01*
X158804999Y-92131088D01*
X158806854Y-92125624D01*
X158807682Y-92119915D01*
X158807683Y-92119910D01*
X158837730Y-91912673D01*
X158838263Y-91908999D01*
X158839902Y-91846400D01*
X158837025Y-91815090D01*
X160638108Y-91815090D01*
X160652424Y-92033512D01*
X160653845Y-92039108D01*
X160653846Y-92039113D01*
X160704884Y-92240072D01*
X160706305Y-92245667D01*
X160797945Y-92444451D01*
X160924277Y-92623206D01*
X161081069Y-92775946D01*
X161085865Y-92779151D01*
X161085868Y-92779153D01*
X161159633Y-92828441D01*
X161263069Y-92897555D01*
X161268372Y-92899833D01*
X161268375Y-92899835D01*
X161458877Y-92981681D01*
X161464184Y-92983961D01*
X161542017Y-93001573D01*
X161672040Y-93030994D01*
X161672045Y-93030995D01*
X161677677Y-93032269D01*
X161683448Y-93032496D01*
X161683450Y-93032496D01*
X161748810Y-93035064D01*
X161896399Y-93040863D01*
X162004712Y-93025158D01*
X162107310Y-93010283D01*
X162107315Y-93010282D01*
X162113024Y-93009454D01*
X162118488Y-93007599D01*
X162118493Y-93007598D01*
X162314827Y-92940952D01*
X162314832Y-92940950D01*
X162320299Y-92939094D01*
X162400204Y-92894345D01*
X162506233Y-92834966D01*
X162506237Y-92834963D01*
X162511280Y-92832139D01*
X162679572Y-92692172D01*
X162819539Y-92523880D01*
X162822363Y-92518837D01*
X162822366Y-92518833D01*
X162923670Y-92337942D01*
X162923671Y-92337940D01*
X162926494Y-92332899D01*
X162928350Y-92327432D01*
X162928352Y-92327427D01*
X162994998Y-92131093D01*
X162994999Y-92131088D01*
X162996854Y-92125624D01*
X162997682Y-92119915D01*
X162997683Y-92119910D01*
X163027730Y-91912673D01*
X163028263Y-91908999D01*
X163029902Y-91846400D01*
X163027025Y-91815090D01*
X164828108Y-91815090D01*
X164842424Y-92033512D01*
X164843845Y-92039108D01*
X164843846Y-92039113D01*
X164894884Y-92240072D01*
X164896305Y-92245667D01*
X164987945Y-92444451D01*
X165114277Y-92623206D01*
X165271069Y-92775946D01*
X165275865Y-92779151D01*
X165275868Y-92779153D01*
X165349633Y-92828441D01*
X165453069Y-92897555D01*
X165458372Y-92899833D01*
X165458375Y-92899835D01*
X165648877Y-92981681D01*
X165654184Y-92983961D01*
X165732017Y-93001573D01*
X165862040Y-93030994D01*
X165862045Y-93030995D01*
X165867677Y-93032269D01*
X165873448Y-93032496D01*
X165873450Y-93032496D01*
X165938810Y-93035064D01*
X166086399Y-93040863D01*
X166194712Y-93025158D01*
X166297310Y-93010283D01*
X166297315Y-93010282D01*
X166303024Y-93009454D01*
X166308488Y-93007599D01*
X166308493Y-93007598D01*
X166504827Y-92940952D01*
X166504832Y-92940950D01*
X166510299Y-92939094D01*
X166590204Y-92894345D01*
X166696233Y-92834966D01*
X166696237Y-92834963D01*
X166701280Y-92832139D01*
X166869572Y-92692172D01*
X167009539Y-92523880D01*
X167012363Y-92518837D01*
X167012366Y-92518833D01*
X167113670Y-92337942D01*
X167113671Y-92337940D01*
X167116494Y-92332899D01*
X167118350Y-92327432D01*
X167118352Y-92327427D01*
X167184998Y-92131093D01*
X167184999Y-92131088D01*
X167186854Y-92125624D01*
X167187682Y-92119915D01*
X167187683Y-92119910D01*
X167217730Y-91912673D01*
X167218263Y-91908999D01*
X167219902Y-91846400D01*
X167217025Y-91815090D01*
X169018108Y-91815090D01*
X169032424Y-92033512D01*
X169033845Y-92039108D01*
X169033846Y-92039113D01*
X169084884Y-92240072D01*
X169086305Y-92245667D01*
X169177945Y-92444451D01*
X169304277Y-92623206D01*
X169461069Y-92775946D01*
X169465865Y-92779151D01*
X169465868Y-92779153D01*
X169539633Y-92828441D01*
X169643069Y-92897555D01*
X169648372Y-92899833D01*
X169648375Y-92899835D01*
X169838877Y-92981681D01*
X169844184Y-92983961D01*
X169922017Y-93001573D01*
X170052040Y-93030994D01*
X170052045Y-93030995D01*
X170057677Y-93032269D01*
X170063448Y-93032496D01*
X170063450Y-93032496D01*
X170128810Y-93035064D01*
X170276399Y-93040863D01*
X170384712Y-93025158D01*
X170487310Y-93010283D01*
X170487315Y-93010282D01*
X170493024Y-93009454D01*
X170498488Y-93007599D01*
X170498493Y-93007598D01*
X170694827Y-92940952D01*
X170694832Y-92940950D01*
X170700299Y-92939094D01*
X170780204Y-92894345D01*
X170886233Y-92834966D01*
X170886237Y-92834963D01*
X170891280Y-92832139D01*
X171059572Y-92692172D01*
X171199539Y-92523880D01*
X171202363Y-92518837D01*
X171202366Y-92518833D01*
X171303670Y-92337942D01*
X171303671Y-92337940D01*
X171306494Y-92332899D01*
X171308350Y-92327432D01*
X171308352Y-92327427D01*
X171374998Y-92131093D01*
X171374999Y-92131088D01*
X171376854Y-92125624D01*
X171377682Y-92119915D01*
X171377683Y-92119910D01*
X171407730Y-91912673D01*
X171408263Y-91908999D01*
X171409902Y-91846400D01*
X171407025Y-91815090D01*
X173208108Y-91815090D01*
X173222424Y-92033512D01*
X173223845Y-92039108D01*
X173223846Y-92039113D01*
X173274884Y-92240072D01*
X173276305Y-92245667D01*
X173367945Y-92444451D01*
X173494277Y-92623206D01*
X173651069Y-92775946D01*
X173655865Y-92779151D01*
X173655868Y-92779153D01*
X173729633Y-92828441D01*
X173833069Y-92897555D01*
X173838372Y-92899833D01*
X173838375Y-92899835D01*
X173992038Y-92965854D01*
X174046731Y-93011123D01*
X174068300Y-93081622D01*
X174068300Y-93919245D01*
X174067821Y-93930226D01*
X174064421Y-93969092D01*
X174067273Y-93979734D01*
X174067273Y-93979739D01*
X174074515Y-94006765D01*
X174076894Y-94017496D01*
X174083669Y-94055918D01*
X174089179Y-94065463D01*
X174090523Y-94069154D01*
X174092190Y-94072728D01*
X174095043Y-94083376D01*
X174117413Y-94115323D01*
X174123319Y-94124594D01*
X174137313Y-94148833D01*
X174137316Y-94148837D01*
X174142827Y-94158382D01*
X174151272Y-94165468D01*
X174172721Y-94183466D01*
X174180825Y-94190893D01*
X176333865Y-96343934D01*
X176367891Y-96406246D01*
X176369706Y-96416692D01*
X176380519Y-96499377D01*
X176387995Y-96556552D01*
X176391609Y-96564765D01*
X176391610Y-96564769D01*
X176392037Y-96565739D01*
X176446659Y-96689874D01*
X176452434Y-96696744D01*
X176452435Y-96696746D01*
X176465538Y-96712334D01*
X176540383Y-96801373D01*
X176547860Y-96806350D01*
X176654161Y-96877110D01*
X176654163Y-96877111D01*
X176661634Y-96882084D01*
X176800664Y-96925521D01*
X176946298Y-96928190D01*
X177016562Y-96909034D01*
X177078163Y-96892239D01*
X177078164Y-96892239D01*
X177086826Y-96889877D01*
X177095159Y-96884761D01*
X177203302Y-96818361D01*
X177210954Y-96813663D01*
X177217574Y-96806350D01*
X177302673Y-96712334D01*
X177302674Y-96712333D01*
X177308701Y-96705674D01*
X177372210Y-96574591D01*
X177396376Y-96430952D01*
X177396529Y-96418400D01*
X177375880Y-96274213D01*
X177315592Y-96141618D01*
X177220513Y-96031273D01*
X177098285Y-95952048D01*
X176958734Y-95910314D01*
X176949758Y-95910259D01*
X176949757Y-95910259D01*
X176900246Y-95909956D01*
X176832249Y-95889537D01*
X176811922Y-95873053D01*
X174776205Y-93837337D01*
X174742180Y-93775025D01*
X174739300Y-93748242D01*
X174739300Y-93080641D01*
X174759302Y-93012520D01*
X174812958Y-92966027D01*
X174824799Y-92961328D01*
X174884827Y-92940952D01*
X174884832Y-92940950D01*
X174890299Y-92939094D01*
X174970204Y-92894345D01*
X175076233Y-92834966D01*
X175076237Y-92834963D01*
X175081280Y-92832139D01*
X175249572Y-92692172D01*
X175389539Y-92523880D01*
X175392363Y-92518837D01*
X175392366Y-92518833D01*
X175493670Y-92337942D01*
X175493671Y-92337940D01*
X175496494Y-92332899D01*
X175498350Y-92327432D01*
X175498352Y-92327427D01*
X175564998Y-92131093D01*
X175564999Y-92131088D01*
X175566854Y-92125624D01*
X175567682Y-92119915D01*
X175567683Y-92119910D01*
X175597730Y-91912673D01*
X175598263Y-91908999D01*
X175599902Y-91846400D01*
X175579873Y-91628428D01*
X175571212Y-91597716D01*
X175522025Y-91423314D01*
X175522024Y-91423312D01*
X175520457Y-91417755D01*
X175506115Y-91388672D01*
X175426200Y-91226618D01*
X175426197Y-91226614D01*
X175423645Y-91221438D01*
X175292677Y-91046052D01*
X175131941Y-90897468D01*
X175127058Y-90894387D01*
X175127054Y-90894384D01*
X174951702Y-90783746D01*
X174951703Y-90783746D01*
X174946819Y-90780665D01*
X174743511Y-90699554D01*
X174528827Y-90656850D01*
X174523052Y-90656774D01*
X174523048Y-90656774D01*
X174413302Y-90655338D01*
X174309955Y-90653985D01*
X174304258Y-90654964D01*
X174304257Y-90654964D01*
X174099923Y-90690075D01*
X174094226Y-90691054D01*
X173888865Y-90766816D01*
X173883904Y-90769768D01*
X173883903Y-90769768D01*
X173705717Y-90875777D01*
X173705714Y-90875779D01*
X173700749Y-90878733D01*
X173536178Y-91023058D01*
X173400664Y-91194956D01*
X173397976Y-91200065D01*
X173301435Y-91383560D01*
X173301433Y-91383565D01*
X173298746Y-91388672D01*
X173233836Y-91597716D01*
X173208108Y-91815090D01*
X171407025Y-91815090D01*
X171389873Y-91628428D01*
X171381212Y-91597716D01*
X171332025Y-91423314D01*
X171332024Y-91423312D01*
X171330457Y-91417755D01*
X171316115Y-91388672D01*
X171236200Y-91226618D01*
X171236197Y-91226614D01*
X171233645Y-91221438D01*
X171102677Y-91046052D01*
X170941941Y-90897468D01*
X170937058Y-90894387D01*
X170937054Y-90894384D01*
X170761702Y-90783746D01*
X170761703Y-90783746D01*
X170756819Y-90780665D01*
X170553511Y-90699554D01*
X170338827Y-90656850D01*
X170333052Y-90656774D01*
X170333048Y-90656774D01*
X170223302Y-90655338D01*
X170119955Y-90653985D01*
X170114258Y-90654964D01*
X170114257Y-90654964D01*
X169909923Y-90690075D01*
X169904226Y-90691054D01*
X169698865Y-90766816D01*
X169693904Y-90769768D01*
X169693903Y-90769768D01*
X169515717Y-90875777D01*
X169515714Y-90875779D01*
X169510749Y-90878733D01*
X169346178Y-91023058D01*
X169210664Y-91194956D01*
X169207976Y-91200065D01*
X169111435Y-91383560D01*
X169111433Y-91383565D01*
X169108746Y-91388672D01*
X169043836Y-91597716D01*
X169018108Y-91815090D01*
X167217025Y-91815090D01*
X167199873Y-91628428D01*
X167191212Y-91597716D01*
X167142025Y-91423314D01*
X167142024Y-91423312D01*
X167140457Y-91417755D01*
X167126115Y-91388672D01*
X167046200Y-91226618D01*
X167046197Y-91226614D01*
X167043645Y-91221438D01*
X166912677Y-91046052D01*
X166751941Y-90897468D01*
X166747058Y-90894387D01*
X166747054Y-90894384D01*
X166571702Y-90783746D01*
X166571703Y-90783746D01*
X166566819Y-90780665D01*
X166363511Y-90699554D01*
X166148827Y-90656850D01*
X166143052Y-90656774D01*
X166143048Y-90656774D01*
X166033302Y-90655338D01*
X165929955Y-90653985D01*
X165924258Y-90654964D01*
X165924257Y-90654964D01*
X165719923Y-90690075D01*
X165714226Y-90691054D01*
X165508865Y-90766816D01*
X165503904Y-90769768D01*
X165503903Y-90769768D01*
X165325717Y-90875777D01*
X165325714Y-90875779D01*
X165320749Y-90878733D01*
X165156178Y-91023058D01*
X165020664Y-91194956D01*
X165017976Y-91200065D01*
X164921435Y-91383560D01*
X164921433Y-91383565D01*
X164918746Y-91388672D01*
X164853836Y-91597716D01*
X164828108Y-91815090D01*
X163027025Y-91815090D01*
X163009873Y-91628428D01*
X163001212Y-91597716D01*
X162952025Y-91423314D01*
X162952024Y-91423312D01*
X162950457Y-91417755D01*
X162936115Y-91388672D01*
X162856200Y-91226618D01*
X162856197Y-91226614D01*
X162853645Y-91221438D01*
X162722677Y-91046052D01*
X162561941Y-90897468D01*
X162557058Y-90894387D01*
X162557054Y-90894384D01*
X162381702Y-90783746D01*
X162381703Y-90783746D01*
X162376819Y-90780665D01*
X162173511Y-90699554D01*
X161958827Y-90656850D01*
X161953052Y-90656774D01*
X161953048Y-90656774D01*
X161843302Y-90655338D01*
X161739955Y-90653985D01*
X161734258Y-90654964D01*
X161734257Y-90654964D01*
X161529923Y-90690075D01*
X161524226Y-90691054D01*
X161318865Y-90766816D01*
X161313904Y-90769768D01*
X161313903Y-90769768D01*
X161135717Y-90875777D01*
X161135714Y-90875779D01*
X161130749Y-90878733D01*
X160966178Y-91023058D01*
X160830664Y-91194956D01*
X160827976Y-91200065D01*
X160731435Y-91383560D01*
X160731433Y-91383565D01*
X160728746Y-91388672D01*
X160663836Y-91597716D01*
X160638108Y-91815090D01*
X158837025Y-91815090D01*
X158819873Y-91628428D01*
X158811212Y-91597716D01*
X158762025Y-91423314D01*
X158762024Y-91423312D01*
X158760457Y-91417755D01*
X158746115Y-91388672D01*
X158666200Y-91226618D01*
X158666197Y-91226614D01*
X158663645Y-91221438D01*
X158532677Y-91046052D01*
X158371941Y-90897468D01*
X158367058Y-90894387D01*
X158367054Y-90894384D01*
X158191702Y-90783746D01*
X158191703Y-90783746D01*
X158186819Y-90780665D01*
X157983511Y-90699554D01*
X157768827Y-90656850D01*
X157763052Y-90656774D01*
X157763048Y-90656774D01*
X157653302Y-90655338D01*
X157549955Y-90653985D01*
X157544258Y-90654964D01*
X157544257Y-90654964D01*
X157339923Y-90690075D01*
X157334226Y-90691054D01*
X157128865Y-90766816D01*
X157123904Y-90769768D01*
X157123903Y-90769768D01*
X156945717Y-90875777D01*
X156945714Y-90875779D01*
X156940749Y-90878733D01*
X156776178Y-91023058D01*
X156640664Y-91194956D01*
X156637976Y-91200065D01*
X156541435Y-91383560D01*
X156541433Y-91383565D01*
X156538746Y-91388672D01*
X156473836Y-91597716D01*
X156448108Y-91815090D01*
X154647025Y-91815090D01*
X154629873Y-91628428D01*
X154621212Y-91597716D01*
X154572025Y-91423314D01*
X154572024Y-91423312D01*
X154570457Y-91417755D01*
X154556115Y-91388672D01*
X154476200Y-91226618D01*
X154476197Y-91226614D01*
X154473645Y-91221438D01*
X154342677Y-91046052D01*
X154181941Y-90897468D01*
X154177058Y-90894387D01*
X154177054Y-90894384D01*
X154001702Y-90783746D01*
X154001703Y-90783746D01*
X153996819Y-90780665D01*
X153793511Y-90699554D01*
X153578827Y-90656850D01*
X153573052Y-90656774D01*
X153573048Y-90656774D01*
X153463302Y-90655338D01*
X153359955Y-90653985D01*
X153354258Y-90654964D01*
X153354257Y-90654964D01*
X153149923Y-90690075D01*
X153144226Y-90691054D01*
X152938865Y-90766816D01*
X152933904Y-90769768D01*
X152933903Y-90769768D01*
X152755717Y-90875777D01*
X152755714Y-90875779D01*
X152750749Y-90878733D01*
X152586178Y-91023058D01*
X152450664Y-91194956D01*
X152447976Y-91200065D01*
X152351435Y-91383560D01*
X152351433Y-91383565D01*
X152348746Y-91388672D01*
X152283836Y-91597716D01*
X152258108Y-91815090D01*
X148516300Y-91815090D01*
X148516300Y-85496400D01*
X152487776Y-85496400D01*
X152507852Y-85815501D01*
X152567764Y-86129570D01*
X152666567Y-86433654D01*
X152668254Y-86437240D01*
X152668256Y-86437244D01*
X152801014Y-86719370D01*
X152801018Y-86719377D01*
X152802702Y-86722956D01*
X152974023Y-86992915D01*
X153177828Y-87239273D01*
X153410903Y-87458145D01*
X153669572Y-87646079D01*
X153949756Y-87800111D01*
X154247035Y-87917813D01*
X154556723Y-87997327D01*
X154873934Y-88037400D01*
X155193666Y-88037400D01*
X155510877Y-87997327D01*
X155820565Y-87917813D01*
X156117844Y-87800111D01*
X156398028Y-87646079D01*
X156656697Y-87458145D01*
X156889772Y-87239273D01*
X157093577Y-86992915D01*
X157264898Y-86722956D01*
X157266582Y-86719377D01*
X157266586Y-86719370D01*
X157399344Y-86437244D01*
X157399346Y-86437240D01*
X157401033Y-86433654D01*
X157499836Y-86129570D01*
X157559748Y-85815501D01*
X157579824Y-85496400D01*
X170267776Y-85496400D01*
X170287852Y-85815501D01*
X170347764Y-86129570D01*
X170446567Y-86433654D01*
X170448254Y-86437240D01*
X170448256Y-86437244D01*
X170581014Y-86719370D01*
X170581018Y-86719377D01*
X170582702Y-86722956D01*
X170754023Y-86992915D01*
X170957828Y-87239273D01*
X171190903Y-87458145D01*
X171449572Y-87646079D01*
X171729756Y-87800111D01*
X172027035Y-87917813D01*
X172336723Y-87997327D01*
X172653934Y-88037400D01*
X172973666Y-88037400D01*
X173290877Y-87997327D01*
X173600565Y-87917813D01*
X173897844Y-87800111D01*
X174178028Y-87646079D01*
X174436697Y-87458145D01*
X174669772Y-87239273D01*
X174873577Y-86992915D01*
X175044898Y-86722956D01*
X175046582Y-86719377D01*
X175046586Y-86719370D01*
X175179344Y-86437244D01*
X175179346Y-86437240D01*
X175181033Y-86433654D01*
X175279836Y-86129570D01*
X175339748Y-85815501D01*
X175359824Y-85496400D01*
X175339748Y-85177299D01*
X175279836Y-84863230D01*
X175181033Y-84559146D01*
X175179344Y-84555556D01*
X175046586Y-84273430D01*
X175046582Y-84273423D01*
X175044898Y-84269844D01*
X174873577Y-83999885D01*
X174669772Y-83753527D01*
X174436697Y-83534655D01*
X174178028Y-83346721D01*
X173904724Y-83196471D01*
X173901306Y-83194592D01*
X173901303Y-83194591D01*
X173897844Y-83192689D01*
X173600565Y-83074987D01*
X173290877Y-82995473D01*
X172973666Y-82955400D01*
X172653934Y-82955400D01*
X172336723Y-82995473D01*
X172027035Y-83074987D01*
X171729756Y-83192689D01*
X171726297Y-83194591D01*
X171726294Y-83194592D01*
X171722877Y-83196471D01*
X171449572Y-83346721D01*
X171190903Y-83534655D01*
X170957828Y-83753527D01*
X170754023Y-83999885D01*
X170582702Y-84269844D01*
X170581018Y-84273423D01*
X170581014Y-84273430D01*
X170448256Y-84555556D01*
X170446567Y-84559146D01*
X170347764Y-84863230D01*
X170287852Y-85177299D01*
X170267776Y-85496400D01*
X157579824Y-85496400D01*
X157559748Y-85177299D01*
X157499836Y-84863230D01*
X157401033Y-84559146D01*
X157399344Y-84555556D01*
X157266586Y-84273430D01*
X157266582Y-84273423D01*
X157264898Y-84269844D01*
X157093577Y-83999885D01*
X156889772Y-83753527D01*
X156656697Y-83534655D01*
X156398028Y-83346721D01*
X156124724Y-83196471D01*
X156121306Y-83194592D01*
X156121303Y-83194591D01*
X156117844Y-83192689D01*
X155820565Y-83074987D01*
X155510877Y-82995473D01*
X155193666Y-82955400D01*
X154873934Y-82955400D01*
X154556723Y-82995473D01*
X154247035Y-83074987D01*
X153949756Y-83192689D01*
X153946297Y-83194591D01*
X153946294Y-83194592D01*
X153942877Y-83196471D01*
X153669572Y-83346721D01*
X153410903Y-83534655D01*
X153177828Y-83753527D01*
X152974023Y-83999885D01*
X152802702Y-84269844D01*
X152801018Y-84273423D01*
X152801014Y-84273430D01*
X152668256Y-84555556D01*
X152666567Y-84559146D01*
X152567764Y-84863230D01*
X152507852Y-85177299D01*
X152487776Y-85496400D01*
X148516300Y-85496400D01*
X148516300Y-84074189D01*
X148519554Y-84045737D01*
X148520050Y-84043597D01*
X148521661Y-84036647D01*
X148521662Y-84035900D01*
X148520080Y-84028967D01*
X148519517Y-84023932D01*
X148519123Y-84000031D01*
X148533282Y-83820128D01*
X148536375Y-83800600D01*
X148538280Y-83792666D01*
X148584588Y-83599779D01*
X148590696Y-83580980D01*
X148669730Y-83390176D01*
X148678700Y-83372571D01*
X148786615Y-83196469D01*
X148798236Y-83180476D01*
X148932358Y-83023439D01*
X148946339Y-83009458D01*
X149103376Y-82875336D01*
X149119371Y-82863714D01*
X149295471Y-82755800D01*
X149313076Y-82746830D01*
X149503885Y-82667794D01*
X149522679Y-82661688D01*
X149723501Y-82613475D01*
X149743028Y-82610382D01*
X149926328Y-82595956D01*
X149936433Y-82595568D01*
X149944599Y-82595582D01*
X149958427Y-82598762D01*
X149972268Y-82595630D01*
X149976178Y-82595637D01*
X149996200Y-82593400D01*
X178114810Y-82593400D01*
X178133961Y-82595574D01*
G37*
%TD.AperFunction*%
%TD*%
M02*
