M48
; DRILL file {KiCad (6.0.8)} date Thu Jun  1 04:31:04 2023
; FORMAT={-:-/ absolute / inch / decimal}
; #@! TF.CreationDate,2023-06-01T04:31:04+02:00
; #@! TF.GenerationSoftware,Kicad,Pcbnew,(6.0.8)
; #@! TF.FileFunction,Plated,1,2,PTH
FMAT,2
INCH
; #@! TA.AperFunction,Plated,PTH,ViaDrill
T1C0.0118
; #@! TA.AperFunction,Plated,PTH,ComponentDrill
T2C0.0291
; #@! TA.AperFunction,Plated,PTH,ComponentDrill
T3C0.0394
; #@! TA.AperFunction,Plated,PTH,ComponentDrill
T4C0.0516
; #@! TA.AperFunction,Plated,PTH,ComponentDrill
T5C0.1224
%
G90
G05
T1
X5.8839Y-4.486
X5.9239Y-5.127
X5.9389Y-4.406
X5.9679Y-4.739
X6.0122Y-4.416
X6.0159Y-4.999
X6.0179Y-4.145
X6.0222Y-4.306
X6.0222Y-4.606
X6.0289Y-5.089
X6.0349Y-4.346
X6.0359Y-4.651
X6.0639Y-4.346
X6.0639Y-4.651
X6.0939Y-4.346
X6.0939Y-4.651
X6.1259Y-5.261
X6.1739Y-4.341
X6.1839Y-4.651
X6.2689Y-4.761
X6.2939Y-4.761
X6.3189Y-4.761
X6.3589Y-4.396
X6.3599Y-4.324
X6.3619Y-4.099
X6.3619Y-4.623
X6.3619Y-4.7836
X6.426Y-5.185
X6.4389Y-4.559
X6.4522Y-4.526
X6.4819Y-4.783
X6.5041Y-4.631
X6.6599Y-4.303
X6.6789Y-4.086
X6.7189Y-4.086
X6.7189Y-4.121
X6.7589Y-4.086
X6.7589Y-4.121
X6.7989Y-4.086
X6.7989Y-4.121
X6.8339Y-4.086
X6.8339Y-4.121
X6.9219Y-5.169
X6.9639Y-3.796
T2
X6.7199Y-4.477
X6.7219Y-4.781
X6.8199Y-4.477
X6.8219Y-4.781
X6.9199Y-4.477
X6.9219Y-4.781
T3
X6.6917Y-5.017
X6.7917Y-5.017
T4
X6.0415Y-3.616
X6.0415Y-3.866
X6.2064Y-3.616
X6.2064Y-3.866
X6.3714Y-3.616
X6.3714Y-3.866
X6.5364Y-3.616
X6.5364Y-3.866
X6.7013Y-3.616
X6.7013Y-3.866
X6.8663Y-3.616
X6.8663Y-3.866
T5
X6.1037Y-3.366
X6.8037Y-3.366
T0
M30
